<?xml version="1.0" encoding="UTF-8"?>
<svg width="104px" height="104px" viewBox="0 0 104 104" version="1.1" xmlns="http://www.w3.org/2000/svg" xmlns:xlink="http://www.w3.org/1999/xlink">
    <!-- Generator: Sketch 40.1 (33804) - http://www.bohemiancoding.com/sketch -->
    <title>branding_analysis_a</title>
    <desc>Created with Sketch.</desc>
    <defs></defs>
    <g id="icons" stroke="none" stroke-width="1" fill="none" fill-rule="evenodd">
        <g id="branding_analysis_a" transform="translate(1.000000, 2.000000)" stroke="#009CA6">
            <g id="Group">
                <ellipse id="Oval-43-Copy-4" stroke-width="3" cx="50.6484375" cy="50" rx="50" ry="50"></ellipse>
                <path d="M32.1761194,50.4567901 C31.8298507,50.4567901 31.6567164,50.7160494 31.6567164,50.9753086 L31.6567164,55.037037 C31.6567164,58.7530864 34.6865672,61.7777778 38.4089552,61.7777778 C42.1313433,61.7777778 45.161194,58.7530864 45.161194,55.037037 L45.161194,50.9753086 C45.161194,50.6296296 44.9014925,50.4567901 44.641791,50.4567901 C44.2955224,50.4567901 44.1223881,50.7160494 44.1223881,50.9753086 L44.1223881,55.037037 C44.1223881,58.1481481 41.6119403,60.654321 38.4955224,60.654321 C35.3791045,60.654321 32.8686567,58.1481481 32.8686567,55.037037 L32.8686567,50.9753086 C32.7820896,50.7160494 32.5223881,50.4567901 32.1761194,50.4567901 L32.1761194,50.4567901 Z" id="Shape" fill="#009CA6"></path>
                <path d="M66.1104478,34.8148148 C66.1104478,34.4691358 65.8507463,34.2962963 65.5910448,34.2962963 C65.2447761,34.2962963 65.0716418,34.5555556 65.0716418,34.8148148 L65.0716418,38.962963 C65.0716418,39.654321 64.8985075,40.2592593 64.7253731,40.7777778 L62.8208955,37.5802469 C62.6477612,37.3209877 62.3880597,37.2345679 62.1283582,37.3209877 L54.4238806,40.0864198 C54.2507463,40.1728395 54.1641791,40.2592593 54.0776119,40.4320988 L48.1910448,56.5061728 C48.1044776,56.6790123 48.1044776,56.7654321 48.1910448,56.9382716 C48.2776119,57.1111111 48.3641791,57.1975309 48.5373134,57.1975309 L60.2238806,61.5185185 L60.3970149,61.5185185 C60.6567164,61.5185185 60.8298507,61.345679 60.9164179,61.1728395 L66.8029851,45.0987654 C66.8895522,44.9259259 66.8029851,44.7530864 66.8029851,44.6666667 L65.2447761,41.9012346 C65.7641791,41.037037 66.1104478,40 66.1104478,38.8765432 L66.1104478,34.8148148 L66.1104478,34.8148148 Z M65.7641791,45.0123457 L60.1373134,60.3950617 L49.4895522,56.5061728 L55.1164179,41.2098765 L62.1283582,38.617284 L64.0328358,41.9012346 C63.6865672,42.3333333 63.2537313,42.7654321 62.7343284,43.0246914 C62.3880597,42.3333333 61.8686567,41.8148148 61.0895522,41.5555556 C60.7432836,41.4691358 60.4835821,41.382716 60.1373134,41.382716 C58.9253731,41.382716 57.8865672,42.1604938 57.4537313,43.2839506 C56.9343284,44.7530864 57.7134328,46.3950617 59.1850746,46.9135802 C59.5313433,47 59.7910448,47.0864198 60.1373134,47.0864198 C61.3492537,47.0864198 62.3880597,46.308642 62.8208955,45.1851852 C62.9074627,44.8395062 62.9940299,44.4938272 62.9940299,44.1481481 C63.6,43.8024691 64.2059701,43.4567901 64.638806,42.9382716 L65.7641791,45.0123457 L65.7641791,45.0123457 Z M59.8776119,44.6666667 L60.3104478,44.6666667 C60.8298507,44.6666667 61.2626866,44.5802469 61.6955224,44.4938272 C61.6955224,44.5802469 61.6955224,44.6666667 61.6089552,44.6666667 C61.3492537,45.3580247 60.7432836,45.7901235 59.9641791,45.7901235 C59.7910448,45.7901235 59.5313433,45.7901235 59.358209,45.7037037 C58.4925373,45.3580247 57.9731343,44.4074074 58.319403,43.4567901 C58.5791045,42.7654321 59.1850746,42.3333333 59.9641791,42.3333333 C60.1373134,42.3333333 60.3970149,42.3333333 60.5701493,42.4197531 C61.0029851,42.5925926 61.3492537,42.9382716 61.5223881,43.2839506 C61.0895522,43.3703704 60.6567164,43.4567901 60.2238806,43.4567901 L59.8776119,43.4567901 C59.5313433,43.4567901 59.2716418,43.6296296 59.2716418,43.9753086 C59.358209,44.4074074 59.6179104,44.6666667 59.8776119,44.6666667 L59.8776119,44.6666667 Z" id="Shape" fill="#009CA6"></path>
                <path d="M76.5850746,27.9876543 C76.5850746,27.7283951 76.3253731,27.4691358 76.0656716,27.4691358 L66.1104478,27.4691358 L66.1104478,23.4938272 C66.1104478,17.4444444 61.1761194,12.5185185 55.1164179,12.5185185 C49.0567164,12.5185185 44.1223881,17.4444444 44.1223881,23.4938272 L44.1223881,27.4691358 L34.080597,27.4691358 C33.8208955,27.4691358 33.561194,27.7283951 33.561194,27.9876543 L32.6089552,44.5802469 C32.6089552,44.9259259 32.8686567,45.1851852 33.1283582,45.1851852 C33.4746269,45.1851852 33.7343284,44.9259259 33.7343284,44.6666667 L34.6,28.5925926 L44.0358209,28.5925926 L44.0358209,30.4074074 C44.0358209,30.7530864 44.2955224,30.9259259 44.5552239,30.9259259 C44.9014925,30.9259259 45.0746269,30.6666667 45.0746269,30.4074074 L45.0746269,28.5925926 L64.8985075,28.5925926 L64.8985075,30.4074074 C64.8985075,30.7530864 65.158209,30.9259259 65.4179104,30.9259259 C65.7641791,30.9259259 65.9373134,30.6666667 65.9373134,30.4074074 L65.9373134,28.5925926 L75.2865672,28.5925926 L78.7492537,77.1604938 L58.4059701,77.1604938 C58.0597015,77.1604938 57.8865672,77.4197531 57.8865672,77.6790123 C57.8865672,78.0246914 58.1462687,78.1975309 58.4059701,78.1975309 L79.6149254,78.1975309 C79.7880597,78.1975309 79.961194,78.1111111 80.0477612,78.0246914 C80.1343284,77.9382716 80.2208955,77.7654321 80.2208955,77.5925926 L76.5850746,27.9876543 L76.5850746,27.9876543 Z M45.161194,27.4691358 L45.161194,23.4938272 C45.161194,18.0493827 49.5761194,13.6419753 55.0298507,13.6419753 C60.4835821,13.6419753 64.9850746,18.0493827 64.9850746,23.5802469 L64.9850746,27.5555556 L45.161194,27.5555556 L45.161194,27.4691358 Z" id="Shape" fill="#009CA6"></path>
                <path d="M53.9044776,63.6790123 C53.558209,63.6790123 53.3850746,63.9382716 53.3850746,64.2839506 L54.5104478,80.7901235 L24.1253731,80.7901235 L26.0298507,47.7777778 L46.6328358,47.7777778 C46.9791045,47.7777778 47.1522388,47.5185185 47.1522388,47.2592593 C47.1522388,46.9135802 46.8925373,46.7407407 46.6328358,46.7407407 L25.5104478,46.7407407 C25.2507463,46.7407407 24.9910448,47 24.9910448,47.2592593 L23,81.308642 C23,81.4814815 23.0865672,81.654321 23.1731343,81.7407407 C23.2597015,81.8271605 23.4328358,81.9135802 23.6059701,81.9135802 L55.2029851,81.9135802 C55.3761194,81.9135802 55.5492537,81.8271605 55.6358209,81.7407407 C55.7223881,81.654321 55.8089552,81.4814815 55.8089552,81.308642 L54.5970149,64.1975309 C54.5104478,63.9382716 54.2507463,63.6790123 53.9044776,63.6790123 L53.9044776,63.6790123 Z" id="Shape" fill="#009CA6"></path>
            </g>
        </g>
    </g>
</svg>