<svg width="105" height="38" viewBox="0 0 105 38" fill="none" xmlns="http://www.w3.org/2000/svg">
<path fill-rule="evenodd" clip-rule="evenodd" d="M0 19C0 8.50667 8.5067 0 18.9997 0L18.9995 0.000907548C29.4939 0.000907548 37.9997 8.50735 37.9997 19C37.9997 29.4937 29.4939 37.9997 18.9997 37.9997C8.5067 37.9997 0 29.4937 0 19ZM25.7489 27.3934C26.3119 27.7382 27.0489 27.5601 27.3922 26.9985C27.7378 26.4369 27.5593 25.704 26.9963 25.3593C21.944 22.2795 15.6812 21.5624 8.37998 23.227C7.73546 23.3731 7.33424 24.0123 7.48141 24.6538C7.62789 25.2954 8.26875 25.6972 8.91167 25.551C15.5835 24.0306 21.2487 24.6515 25.7489 27.3934ZM30.3297 22.3499C29.901 23.0869 28.989 23.3194 28.2926 22.8664C23.1863 19.5493 15.4026 18.5888 9.36285 20.526C8.57956 20.776 7.75225 20.3096 7.51452 19.4833C7.2786 18.6557 7.72027 17.7832 8.5022 17.5315C15.4012 15.3196 23.978 16.391 29.842 20.1986C30.5384 20.6516 30.7584 21.6152 30.3297 22.3501V22.3499ZM8.23452 14.808C14.0318 13.1183 24.0497 13.4368 30.1216 16.9001H30.1225C30.9571 17.3775 32.0415 17.1125 32.5364 16.3084C33.0336 15.5053 32.7591 14.4668 31.92 13.9896C24.9293 10.0043 13.8664 9.6295 7.21158 11.5695C6.27998 11.8413 5.7549 12.7861 6.03701 13.6805C6.31913 14.5744 7.30359 15.0791 8.23452 14.808Z" fill="white"/>
<path fill-rule="evenodd" clip-rule="evenodd" d="M51.4244 14.1406L55.732 18.4482L60.0395 14.1406L60.4522 14.5533L56.1447 18.8609L60.4522 23.1684L60.0395 23.5811L55.732 19.2736L51.4244 23.5811L51.0117 23.1684L55.3193 18.8609L51.0117 14.5533L51.4244 14.1406Z" fill="white" stroke="white" stroke-width="1.51999" stroke-linejoin="round"/>
<path d="M75.0758 13.8155L85.0341 7.96086C85.5592 7.65377 85.885 7.08633 85.885 6.47883V3.17431C85.885 2.50005 85.3398 1.95264 84.6684 1.95264H74.9362C74.2648 1.95264 73.7197 2.50005 73.7197 3.17431V13.0412C73.7197 13.7354 74.4709 14.1694 75.0758 13.8155ZM102.604 19.6435L90.4452 12.5939C89.5013 12.0465 88.3379 12.0465 87.394 12.6005L75.2287 19.7103C74.2981 20.2577 73.7197 21.2591 73.7197 22.3472V34.4171C73.7197 35.0913 74.2648 35.6388 74.9362 35.6388H84.6618C85.3332 35.6388 85.8783 35.0913 85.8783 34.4171V26.6197C85.8783 26.0256 86.3569 25.5383 86.9552 25.5383H90.884C91.4756 25.5383 91.9609 26.0189 91.9609 26.6197V34.4238C91.9609 35.098 92.506 35.6454 93.1774 35.6454H102.903C103.574 35.6454 104.119 35.098 104.119 34.4238V22.2871C104.119 21.199 103.541 20.1909 102.604 19.6435ZM102.903 1.95264H93.1774C92.506 1.95264 91.9609 2.50005 91.9609 3.17431V6.47216C91.9609 7.08633 92.2867 7.65377 92.8118 7.96086L102.77 13.7688C103.368 14.116 104.119 13.682 104.119 12.9877V3.17431C104.119 2.50005 103.574 1.95264 102.903 1.95264Z" fill="white"/>
</svg>
