<svg width="440" height="365" viewBox="0 0 440 365" fill="none" xmlns="http://www.w3.org/2000/svg">
<rect width="440" height="365" rx="8" fill="#1ED760"/>
<path d="M46.5327 305.295H44.5064L40.2876 320.969H42.3139L46.5327 305.295ZM51.1363 319H53.5078V314.577H56.0135C59.0369 314.577 60.6605 312.761 60.6605 310.243C60.6605 307.744 59.0561 305.909 56.0454 305.909H51.1363V319ZM53.5078 312.627V307.891H55.6811C57.4581 307.891 58.2443 308.849 58.2443 310.243C58.2443 311.636 57.4581 312.627 55.6939 312.627H53.5078ZM61.8981 319H64.212V313.228C64.212 311.982 65.1516 311.099 66.4236 311.099C66.8135 311.099 67.2993 311.17 67.4975 311.234V309.105C67.2866 309.067 66.9222 309.041 66.6665 309.041C65.5415 309.041 64.6019 309.68 64.2439 310.818H64.1417V309.182H61.8981V319ZM72.1932 319.192C75.0696 319.192 76.8977 317.165 76.8977 314.129C76.8977 311.087 75.0696 309.054 72.1932 309.054C69.3167 309.054 67.4886 311.087 67.4886 314.129C67.4886 317.165 69.3167 319.192 72.1932 319.192ZM72.2059 317.338C70.6143 317.338 69.8345 315.919 69.8345 314.123C69.8345 312.327 70.6143 310.888 72.2059 310.888C73.772 310.888 74.5518 312.327 74.5518 314.123C74.5518 315.919 73.772 317.338 72.2059 317.338ZM78.1417 309.182V319.531C78.1417 320.355 77.7901 320.796 76.9016 320.796C76.7865 320.796 76.6971 320.79 76.5692 320.783V322.669C76.7354 322.682 76.876 322.682 77.0422 322.682C79.2091 322.682 80.4556 321.685 80.4556 319.562V309.182H78.1417ZM79.2922 307.788C80.0273 307.788 80.6282 307.226 80.6282 306.536C80.6282 305.839 80.0273 305.276 79.2922 305.276C78.5507 305.276 77.9499 305.839 77.9499 306.536C77.9499 307.226 78.5507 307.788 79.2922 307.788ZM86.4616 319.192C88.75 319.192 90.3224 318.073 90.7315 316.366L88.571 316.124C88.2578 316.955 87.4907 317.389 86.4936 317.389C84.9978 317.389 84.0071 316.405 83.9879 314.724H90.8274V314.014C90.8274 310.569 88.7563 309.054 86.3402 309.054C83.5277 309.054 81.6931 311.119 81.6931 314.148C81.6931 317.229 83.5021 319.192 86.4616 319.192ZM83.9943 313.164C84.0646 311.911 84.9914 310.857 86.3721 310.857C87.7017 310.857 88.5965 311.828 88.6093 313.164H83.9943ZM96.3476 319.192C98.8149 319.192 100.387 317.728 100.554 315.644H98.3419C98.1438 316.699 97.3831 317.306 96.3668 317.306C94.9222 317.306 93.9889 316.098 93.9889 314.091C93.9889 312.109 94.9414 310.92 96.3668 310.92C97.479 310.92 98.1629 311.636 98.3419 312.582H100.554C100.394 310.454 98.7318 309.054 96.3348 309.054C93.4584 309.054 91.6431 311.131 91.6431 314.129C91.6431 317.102 93.4137 319.192 96.3476 319.192ZM106.636 309.182H104.7V306.83H102.386V309.182H100.992V310.972H102.386V316.43C102.373 318.278 103.715 319.185 105.454 319.134C106.112 319.115 106.566 318.987 106.815 318.904L106.425 317.095C106.298 317.127 106.035 317.185 105.748 317.185C105.166 317.185 104.7 316.98 104.7 316.047V310.972H106.636V309.182ZM109.277 319.141C110.031 319.141 110.677 318.514 110.683 317.734C110.677 316.967 110.031 316.341 109.277 316.341C108.497 316.341 107.864 316.967 107.871 317.734C107.864 318.514 108.497 319.141 109.277 319.141ZM109.277 312.129C110.031 312.129 110.677 311.502 110.683 310.722C110.677 309.955 110.031 309.329 109.277 309.329C108.497 309.329 107.864 309.955 107.871 310.722C107.864 311.502 108.497 312.129 109.277 312.129ZM116.071 319H125.046V317.018H119.344V316.929L121.601 314.634C124.145 312.192 124.848 311.004 124.848 309.527C124.848 307.335 123.064 305.73 120.431 305.73C117.836 305.73 115.995 307.341 115.995 309.827H118.251C118.251 308.491 119.095 307.654 120.399 307.654C121.645 307.654 122.572 308.415 122.572 309.648C122.572 310.741 121.907 311.521 120.616 312.832L116.071 317.287V319ZM131.74 322.682C133.542 322.682 134.584 321.755 135.14 320.189L139.084 309.195L136.611 309.182L134.341 316.597H134.239L131.976 309.182H129.522L133.082 319.205L132.884 319.735C132.456 320.854 131.778 320.93 130.768 320.636L130.231 322.439C130.544 322.567 131.107 322.682 131.74 322.682ZM143.983 319.192C146.271 319.192 147.844 318.073 148.253 316.366L146.092 316.124C145.779 316.955 145.012 317.389 144.015 317.389C142.519 317.389 141.528 316.405 141.509 314.724H148.349V314.014C148.349 310.569 146.278 309.054 143.861 309.054C141.049 309.054 139.214 311.119 139.214 314.148C139.214 317.229 141.023 319.192 143.983 319.192ZM141.516 313.164C141.586 311.911 142.513 310.857 143.893 310.857C145.223 310.857 146.118 311.828 146.131 313.164H141.516ZM152.411 319.198C153.952 319.198 154.872 318.476 155.294 317.651H155.371V319H157.595V312.429C157.595 309.834 155.48 309.054 153.607 309.054C151.542 309.054 149.957 309.974 149.446 311.764L151.606 312.071C151.836 311.4 152.488 310.825 153.62 310.825C154.693 310.825 155.281 311.374 155.281 312.339V312.378C155.281 313.043 154.585 313.075 152.853 313.26C150.948 313.464 149.126 314.033 149.126 316.245C149.126 318.175 150.539 319.198 152.411 319.198ZM153.012 317.498C152.047 317.498 151.357 317.057 151.357 316.207C151.357 315.318 152.13 314.947 153.166 314.8C153.773 314.717 154.987 314.564 155.288 314.321V315.478C155.288 316.571 154.406 317.498 153.012 317.498ZM159.202 319H161.516V313.228C161.516 311.982 162.456 311.099 163.728 311.099C164.118 311.099 164.603 311.17 164.802 311.234V309.105C164.591 309.067 164.226 309.041 163.971 309.041C162.846 309.041 161.906 309.68 161.548 310.818H161.446V309.182H159.202V319ZM173.379 311.777C173.059 310.115 171.73 309.054 169.429 309.054C167.063 309.054 165.453 310.217 165.459 312.033C165.453 313.464 166.335 314.411 168.22 314.8L169.895 315.152C170.796 315.35 171.218 315.714 171.218 316.271C171.218 316.942 170.49 317.447 169.39 317.447C168.329 317.447 167.639 316.987 167.441 316.104L165.184 316.322C165.472 318.124 166.987 319.192 169.397 319.192C171.851 319.192 173.583 317.92 173.59 316.06C173.583 314.66 172.682 313.803 170.828 313.401L169.154 313.043C168.156 312.819 167.76 312.474 167.767 311.905C167.76 311.24 168.495 310.78 169.46 310.78C170.528 310.78 171.09 311.362 171.269 312.007L173.379 311.777Z" fill="white" fill-opacity="0.5"/>
<path d="M197.533 305.295H195.506L191.288 320.969H193.314L197.533 305.295ZM201.561 307.897H205.607V319H207.96V307.897H212.006V305.909H201.561V307.897ZM216.12 319.192C218.408 319.192 219.98 318.073 220.39 316.366L218.229 316.124C217.916 316.955 217.149 317.389 216.152 317.389C214.656 317.389 213.665 316.405 213.646 314.724H220.485V314.014C220.485 310.569 218.414 309.054 215.998 309.054C213.186 309.054 211.351 311.119 211.351 314.148C211.351 317.229 213.16 319.192 216.12 319.192ZM213.652 313.164C213.723 311.911 214.649 310.857 216.03 310.857C217.36 310.857 218.255 311.828 218.267 313.164H213.652ZM224.548 319.198C226.089 319.198 227.009 318.476 227.431 317.651H227.508V319H229.732V312.429C229.732 309.834 227.616 309.054 225.744 309.054C223.679 309.054 222.094 309.974 221.582 311.764L223.743 312.071C223.973 311.4 224.625 310.825 225.756 310.825C226.83 310.825 227.418 311.374 227.418 312.339V312.378C227.418 313.043 226.722 313.075 224.989 313.26C223.084 313.464 221.263 314.033 221.263 316.245C221.263 318.175 222.675 319.198 224.548 319.198ZM225.149 317.498C224.184 317.498 223.494 317.057 223.494 316.207C223.494 315.318 224.267 314.947 225.303 314.8C225.91 314.717 227.124 314.564 227.425 314.321V315.478C227.425 316.571 226.543 317.498 225.149 317.498ZM231.339 319H233.653V313.03C233.653 311.822 234.458 311.004 235.455 311.004C236.433 311.004 237.105 311.662 237.105 312.672V319H239.374V312.876C239.374 311.771 240.032 311.004 241.151 311.004C242.084 311.004 242.825 311.553 242.825 312.768V319H245.146V312.41C245.146 310.217 243.88 309.054 242.078 309.054C240.652 309.054 239.565 309.757 239.131 310.85H239.029C238.651 309.738 237.699 309.054 236.376 309.054C235.059 309.054 234.075 309.732 233.666 310.85H233.551V309.182H231.339V319ZM257.735 309.508H260.017C259.972 307.296 258.086 305.73 255.299 305.73C252.551 305.73 250.486 307.277 250.492 309.591C250.492 311.47 251.828 312.55 253.983 313.107L255.472 313.49C256.885 313.848 257.818 314.289 257.824 315.305C257.818 316.424 256.757 317.172 255.21 317.172C253.727 317.172 252.576 316.507 252.48 315.133H250.147C250.243 317.734 252.18 319.198 255.229 319.198C258.367 319.198 260.189 317.632 260.196 315.325C260.189 313.055 258.316 312.02 256.348 311.553L255.12 311.246C254.046 310.991 252.883 310.537 252.896 309.444C252.902 308.46 253.784 307.737 255.267 307.737C256.68 307.737 257.613 308.396 257.735 309.508ZM261.488 319H263.801V309.182H261.488V319ZM262.651 307.788C263.386 307.788 263.987 307.226 263.987 306.536C263.987 305.839 263.386 305.276 262.651 305.276C261.909 305.276 261.309 305.839 261.309 306.536C261.309 307.226 261.909 307.788 262.651 307.788ZM265.333 319H273.393V317.082H268.408V316.999L273.227 310.761V309.182H265.499V311.099H270.396V311.183L265.333 317.53V319ZM278.914 319.192C281.202 319.192 282.774 318.073 283.184 316.366L281.023 316.124C280.71 316.955 279.943 317.389 278.946 317.389C277.45 317.389 276.459 316.405 276.44 314.724H283.279V314.014C283.279 310.569 281.208 309.054 278.792 309.054C275.98 309.054 274.145 311.119 274.145 314.148C274.145 317.229 275.954 319.192 278.914 319.192ZM276.446 313.164C276.517 311.911 277.443 310.857 278.824 310.857C280.154 310.857 281.049 311.828 281.061 313.164H276.446ZM285.942 319.141C286.697 319.141 287.342 318.514 287.349 317.734C287.342 316.967 286.697 316.341 285.942 316.341C285.163 316.341 284.53 316.967 284.536 317.734C284.53 318.514 285.163 319.141 285.942 319.141ZM285.942 312.129C286.697 312.129 287.342 311.502 287.349 310.722C287.342 309.955 286.697 309.329 285.942 309.329C285.163 309.329 284.53 309.955 284.536 310.722C284.53 311.502 285.163 312.129 285.942 312.129ZM297.39 319.179C300.222 319.179 302.248 317.619 302.255 315.491C302.248 313.854 301.04 312.487 299.519 312.231V312.141C300.842 311.847 301.763 310.658 301.769 309.239C301.763 307.226 299.909 305.73 297.39 305.73C294.853 305.73 292.999 307.219 293.005 309.239C292.999 310.658 293.907 311.847 295.255 312.141V312.231C293.709 312.487 292.513 313.854 292.52 315.491C292.513 317.619 294.533 319.179 297.39 319.179ZM297.39 317.351C295.907 317.351 294.949 316.533 294.961 315.325C294.949 314.072 295.978 313.183 297.39 313.183C298.784 313.183 299.807 314.078 299.819 315.325C299.807 316.533 298.854 317.351 297.39 317.351ZM297.39 311.387C296.176 311.387 295.307 310.601 295.319 309.463C295.307 308.338 296.15 307.584 297.39 307.584C298.611 307.584 299.449 308.338 299.461 309.463C299.449 310.607 298.586 311.387 297.39 311.387ZM308.475 319.249C311.633 319.256 313.518 316.763 313.518 312.467C313.518 308.197 311.62 305.73 308.475 305.73C305.33 305.73 303.438 308.191 303.432 312.467C303.432 316.756 305.317 319.249 308.475 319.249ZM308.475 317.249C306.845 317.249 305.822 315.612 305.829 312.467C305.835 309.348 306.851 307.705 308.475 307.705C310.105 307.705 311.121 309.348 311.128 312.467C311.128 315.612 310.111 317.249 308.475 317.249Z" fill="white" fill-opacity="0.5"/>
<path fill-rule="evenodd" clip-rule="evenodd" d="M40 65C40 54.5067 48.5067 46 58.9997 46L58.9995 46.0009C69.4939 46.0009 77.9997 54.5074 77.9997 65C77.9997 75.4937 69.4939 83.9997 58.9997 83.9997C48.5067 83.9997 40 75.4937 40 65ZM65.7489 73.3934C66.3119 73.7382 67.0489 73.5601 67.3922 72.9985C67.7378 72.4369 67.5593 71.704 66.9963 71.3593C61.944 68.2795 55.6812 67.5624 48.38 69.227C47.7355 69.3731 47.3342 70.0123 47.4814 70.6538C47.6279 71.2954 48.2688 71.6972 48.9117 71.551C55.5835 70.0306 61.2487 70.6515 65.7489 73.3934ZM70.3297 68.3499C69.901 69.0869 68.989 69.3194 68.2926 68.8664C63.1863 65.5493 55.4026 64.5888 49.3629 66.526C48.5796 66.776 47.7523 66.3096 47.5145 65.4833C47.2786 64.6557 47.7203 63.7832 48.5022 63.5315C55.4012 61.3196 63.978 62.391 69.842 66.1986C70.5384 66.6516 70.7584 67.6152 70.3297 68.3501V68.3499ZM48.2345 60.808C54.0318 59.1183 64.0497 59.4368 70.1216 62.9001H70.1225C70.9571 63.3775 72.0415 63.1125 72.5364 62.3084C73.0336 61.5053 72.7591 60.4668 71.92 59.9896C64.9293 56.0043 53.8664 55.6295 47.2116 57.5695C46.28 57.8413 45.7549 58.7861 46.037 59.6805C46.3191 60.5744 47.3036 61.0791 48.2345 60.808Z" fill="white"/>
<path fill-rule="evenodd" clip-rule="evenodd" d="M91.4244 60.1406L95.732 64.4482L100.04 60.1406L100.452 60.5533L96.1447 64.8609L100.452 69.1684L100.04 69.5811L95.732 65.2736L91.4244 69.5811L91.0117 69.1684L95.3193 64.8609L91.0117 60.5533L91.4244 60.1406Z" fill="white" stroke="white" stroke-width="1.51999" stroke-linejoin="round"/>
<path d="M115.076 59.8151L125.034 53.9604C125.559 53.6533 125.885 53.0858 125.885 52.4783V49.1738C125.885 48.4996 125.34 47.9521 124.668 47.9521H114.936C114.265 47.9521 113.72 48.4996 113.72 49.1738V59.0407C113.72 59.7349 114.471 60.1689 115.076 59.8151ZM142.604 65.643L130.445 58.5934C129.501 58.046 128.338 58.046 127.394 58.6001L115.229 65.7098C114.298 66.2572 113.72 67.2586 113.72 68.3467V80.4166C113.72 81.0908 114.265 81.6383 114.936 81.6383H124.662C125.333 81.6383 125.878 81.0908 125.878 80.4166V72.6192C125.878 72.0251 126.357 71.5378 126.955 71.5378H130.884C131.476 71.5378 131.961 72.0184 131.961 72.6192V80.4233C131.961 81.0975 132.506 81.6449 133.177 81.6449H142.903C143.574 81.6449 144.119 81.0975 144.119 80.4233V68.2867C144.119 67.1985 143.541 66.1904 142.604 65.643ZM142.903 47.9521H133.177C132.506 47.9521 131.961 48.4996 131.961 49.1738V52.4717C131.961 53.0858 132.287 53.6533 132.812 53.9604L142.77 59.7683C143.368 60.1155 144.119 59.6815 144.119 58.9873V49.1738C144.119 48.4996 143.574 47.9521 142.903 47.9521Z" fill="white"/>
<path d="M56.8111 145.016H61.375C61.2855 140.592 57.5142 137.46 51.9403 137.46C46.4432 137.46 42.3139 140.554 42.3267 145.182C42.3267 148.94 44.9986 151.101 49.3068 152.213L52.2855 152.98C55.1108 153.696 56.9773 154.578 56.9901 156.611C56.9773 158.848 54.8551 160.344 51.7614 160.344C48.7955 160.344 46.4943 159.014 46.3026 156.266H41.6364C41.8281 161.469 45.7017 164.396 51.7997 164.396C58.0767 164.396 61.7202 161.264 61.733 156.649C61.7202 152.111 57.9744 150.04 54.0369 149.107L51.5824 148.493C49.4347 147.982 47.108 147.074 47.1335 144.888C47.1463 142.919 48.9105 141.474 51.8764 141.474C54.7017 141.474 56.5682 142.791 56.8111 145.016ZM64.3167 171.364H68.9446V160.906H69.1363C69.865 162.338 71.3863 164.345 74.7613 164.345C79.3892 164.345 82.8537 160.676 82.8537 154.207C82.8537 147.662 79.2869 144.108 74.7486 144.108C71.2841 144.108 69.8395 146.192 69.1363 147.611H68.8679V144.364H64.3167V171.364ZM68.8551 154.182C68.8551 150.372 70.4915 147.905 73.4702 147.905C76.5511 147.905 78.1363 150.526 78.1363 154.182C78.1363 157.864 76.5256 160.548 73.4702 160.548C70.517 160.548 68.8551 157.991 68.8551 154.182ZM93.9421 164.384C99.6949 164.384 103.351 160.331 103.351 154.259C103.351 148.173 99.6949 144.108 93.9421 144.108C88.1892 144.108 84.533 148.173 84.533 154.259C84.533 160.331 88.1892 164.384 93.9421 164.384ZM93.9677 160.676C90.7844 160.676 89.2248 157.838 89.2248 154.246C89.2248 150.653 90.7844 147.777 93.9677 147.777C97.0998 147.777 98.6594 150.653 98.6594 154.246C98.6594 157.838 97.0998 160.676 93.9677 160.676ZM115.644 144.364H111.771V139.659H107.143V144.364H104.356V147.943H107.143V158.861C107.118 162.555 109.802 164.371 113.279 164.268C114.596 164.23 115.504 163.974 116.002 163.808L115.223 160.19C114.967 160.254 114.443 160.369 113.868 160.369C112.704 160.369 111.771 159.96 111.771 158.094V147.943H115.644V144.364ZM118.075 164H122.703V144.364H118.075V164ZM120.402 141.577C121.872 141.577 123.073 140.452 123.073 139.071C123.073 137.678 121.872 136.553 120.402 136.553C118.919 136.553 117.717 137.678 117.717 139.071C117.717 140.452 118.919 141.577 120.402 141.577ZM135.968 144.364H131.889V142.817C131.889 141.283 132.529 140.426 134.255 140.426C134.983 140.426 135.597 140.592 135.98 140.707L136.914 137.128C136.313 136.923 134.996 136.591 133.398 136.591C129.985 136.591 127.262 138.547 127.262 142.51V144.364H124.36V147.943H127.262V164H131.889V147.943H135.968V144.364ZM141.028 171.364C144.633 171.364 146.717 169.51 147.829 166.378L155.717 144.389L150.77 144.364L146.231 159.193H146.027L141.501 144.364H136.592L143.713 164.409L143.317 165.47C142.46 167.707 141.105 167.861 139.085 167.273L138.011 170.878C138.638 171.134 139.763 171.364 141.028 171.364Z" fill="white" fill-opacity="0.5"/>
<path d="M56.8111 189.016H61.375C61.2855 184.592 57.5142 181.46 51.9403 181.46C46.4432 181.46 42.3139 184.554 42.3267 189.182C42.3267 192.94 44.9986 195.101 49.3068 196.213L52.2855 196.98C55.1108 197.696 56.9773 198.578 56.9901 200.611C56.9773 202.848 54.8551 204.344 51.7614 204.344C48.7955 204.344 46.4943 203.014 46.3026 200.266H41.6364C41.8281 205.469 45.7017 208.396 51.7997 208.396C58.0767 208.396 61.7202 205.264 61.733 200.649C61.7202 196.111 57.9744 194.04 54.0369 193.107L51.5824 192.493C49.4347 191.982 47.108 191.074 47.1335 188.888C47.1463 186.919 48.9105 185.474 51.8764 185.474C54.7017 185.474 56.5682 186.791 56.8111 189.016ZM64.3167 215.364H68.9446V204.906H69.1363C69.865 206.338 71.3863 208.345 74.7613 208.345C79.3892 208.345 82.8537 204.676 82.8537 198.207C82.8537 191.662 79.2869 188.108 74.7486 188.108C71.2841 188.108 69.8395 190.192 69.1363 191.611H68.8679V188.364H64.3167V215.364ZM68.8551 198.182C68.8551 194.372 70.4915 191.905 73.4702 191.905C76.5511 191.905 78.1363 194.526 78.1363 198.182C78.1363 201.864 76.5256 204.548 73.4702 204.548C70.517 204.548 68.8551 201.991 68.8551 198.182ZM93.9421 208.384C99.6949 208.384 103.351 204.331 103.351 198.259C103.351 192.173 99.6949 188.108 93.9421 188.108C88.1892 188.108 84.533 192.173 84.533 198.259C84.533 204.331 88.1892 208.384 93.9421 208.384ZM93.9677 204.676C90.7844 204.676 89.2248 201.838 89.2248 198.246C89.2248 194.653 90.7844 191.777 93.9677 191.777C97.0998 191.777 98.6594 194.653 98.6594 198.246C98.6594 201.838 97.0998 204.676 93.9677 204.676ZM115.644 188.364H111.771V183.659H107.143V188.364H104.356V191.943H107.143V202.861C107.118 206.555 109.802 208.371 113.279 208.268C114.596 208.23 115.504 207.974 116.002 207.808L115.223 204.19C114.967 204.254 114.443 204.369 113.868 204.369C112.704 204.369 111.771 203.96 111.771 202.094V191.943H115.644V188.364ZM118.075 208H122.703V188.364H118.075V208ZM120.402 185.577C121.872 185.577 123.073 184.452 123.073 183.071C123.073 181.678 121.872 180.553 120.402 180.553C118.919 180.553 117.717 181.678 117.717 183.071C117.717 184.452 118.919 185.577 120.402 185.577ZM135.968 188.364H131.889V186.817C131.889 185.283 132.529 184.426 134.255 184.426C134.983 184.426 135.597 184.592 135.98 184.707L136.914 181.128C136.313 180.923 134.996 180.591 133.398 180.591C129.985 180.591 127.262 182.547 127.262 186.51V188.364H124.36V191.943H127.262V208H131.889V191.943H135.968V188.364ZM141.028 215.364C144.633 215.364 146.717 213.51 147.829 210.378L155.717 188.389L150.77 188.364L146.231 203.193H146.027L141.501 188.364H136.592L143.713 208.409L143.317 209.47C142.46 211.707 141.105 211.861 139.085 211.273L138.011 214.878C138.638 215.134 139.763 215.364 141.028 215.364ZM165.183 208H169.926V196.878H182.058V208H186.814V181.818H182.058V192.902H169.926V181.818H165.183V208ZM198.893 208.384C204.646 208.384 208.302 204.331 208.302 198.259C208.302 192.173 204.646 188.108 198.893 188.108C193.14 188.108 189.484 192.173 189.484 198.259C189.484 204.331 193.14 208.384 198.893 208.384ZM198.919 204.676C195.736 204.676 194.176 201.838 194.176 198.246C194.176 194.653 195.736 191.777 198.919 191.777C202.051 191.777 203.611 194.653 203.611 198.246C203.611 201.838 202.051 204.676 198.919 204.676ZM210.79 208H215.418V196.06C215.418 193.643 217.029 192.007 219.023 192.007C220.979 192.007 222.322 193.324 222.322 195.344V208H226.86V195.753C226.86 193.541 228.177 192.007 230.414 192.007C232.28 192.007 233.763 193.107 233.763 195.536V208H238.404V194.82C238.404 190.435 235.873 188.108 232.268 188.108C229.417 188.108 227.243 189.514 226.374 191.7H226.17C225.415 189.476 223.511 188.108 220.864 188.108C218.231 188.108 216.262 189.463 215.444 191.7H215.214V188.364H210.79V208ZM250.352 208.384C254.929 208.384 258.074 206.146 258.892 202.733L254.571 202.247C253.944 203.909 252.41 204.778 250.416 204.778C247.425 204.778 245.443 202.81 245.405 199.447H259.084V198.028C259.084 191.138 254.942 188.108 250.109 188.108C244.484 188.108 240.815 192.237 240.815 198.297C240.815 204.459 244.433 208.384 250.352 208.384ZM245.417 196.328C245.558 193.822 247.412 191.713 250.173 191.713C252.832 191.713 254.622 193.656 254.648 196.328H245.417Z" fill="white"/>
</svg>
