<svg width="496" height="84" viewBox="0 0 496 84" fill="none" xmlns="http://www.w3.org/2000/svg">
<path fill-rule="evenodd" clip-rule="evenodd" d="M0 19C0 8.50667 8.5067 0 18.9997 0L18.9995 0.000907548C29.4939 0.000907548 37.9997 8.50735 37.9997 19C37.9997 29.4937 29.4939 37.9997 18.9997 37.9997C8.5067 37.9997 0 29.4937 0 19ZM25.7489 27.3934C26.3119 27.7382 27.0489 27.5601 27.3922 26.9985C27.7378 26.4369 27.5593 25.704 26.9963 25.3593C21.944 22.2795 15.6812 21.5624 8.37998 23.227C7.73546 23.3731 7.33424 24.0123 7.48141 24.6538C7.62789 25.2954 8.26875 25.6972 8.91167 25.551C15.5835 24.0306 21.2487 24.6515 25.7489 27.3934ZM30.3297 22.3499C29.901 23.0869 28.989 23.3194 28.2926 22.8664C23.1863 19.5493 15.4026 18.5888 9.36285 20.526C8.57956 20.776 7.75225 20.3096 7.51452 19.4833C7.2786 18.6557 7.72027 17.7832 8.5022 17.5315C15.4012 15.3196 23.978 16.391 29.842 20.1986C30.5384 20.6516 30.7584 21.6152 30.3297 22.3501V22.3499ZM8.23452 14.808C14.0318 13.1183 24.0497 13.4368 30.1216 16.9001H30.1225C30.9571 17.3775 32.0415 17.1125 32.5364 16.3084C33.0336 15.5053 32.7591 14.4668 31.92 13.9896C24.9293 10.0043 13.8664 9.6295 7.21158 11.5695C6.27998 11.8413 5.7549 12.7861 6.03701 13.6805C6.31913 14.5744 7.30359 15.0791 8.23452 14.808Z" fill="white"/>
<path fill-rule="evenodd" clip-rule="evenodd" d="M51.4244 14.1406L55.732 18.4482L60.0395 14.1406L60.4522 14.5533L56.1447 18.8609L60.4522 23.1684L60.0395 23.5811L55.732 19.2736L51.4244 23.5811L51.0117 23.1684L55.3193 18.8609L51.0117 14.5533L51.4244 14.1406Z" fill="white" stroke="white" stroke-width="1.51999" stroke-linejoin="round"/>
<path d="M75.0758 13.8155L85.0341 7.96086C85.5592 7.65377 85.885 7.08633 85.885 6.47883V3.17431C85.885 2.50005 85.3398 1.95264 84.6684 1.95264H74.9362C74.2648 1.95264 73.7197 2.50005 73.7197 3.17431V13.0412C73.7197 13.7354 74.4709 14.1694 75.0758 13.8155ZM102.604 19.6435L90.4452 12.5939C89.5013 12.0465 88.3379 12.0465 87.394 12.6005L75.2287 19.7103C74.2981 20.2577 73.7197 21.2591 73.7197 22.3472V34.4171C73.7197 35.0913 74.2648 35.6388 74.9362 35.6388H84.6618C85.3332 35.6388 85.8783 35.0913 85.8783 34.4171V26.6197C85.8783 26.0256 86.3569 25.5383 86.9552 25.5383H90.884C91.4756 25.5383 91.9609 26.0189 91.9609 26.6197V34.4238C91.9609 35.098 92.506 35.6454 93.1774 35.6454H102.903C103.574 35.6454 104.119 35.098 104.119 34.4238V22.2871C104.119 21.199 103.541 20.1909 102.604 19.6435ZM102.903 1.95264H93.1774C92.506 1.95264 91.9609 2.50005 91.9609 3.17431V6.47216C91.9609 7.08633 92.2867 7.65377 92.8118 7.96086L102.77 13.7688C103.368 14.116 104.119 13.682 104.119 12.9877V3.17431C104.119 2.50005 103.574 1.95264 102.903 1.95264Z" fill="white"/>
<path d="M6.53267 66.295H4.50639L0.287642 81.9683H2.31392L6.53267 66.295ZM11.1363 79.9995H13.5078V75.5762H16.0135C19.0369 75.5762 20.6605 73.7609 20.6605 71.2424C20.6605 68.7431 19.0561 66.9086 16.0454 66.9086H11.1363V79.9995ZM13.5078 73.6266V68.8901H15.6811C17.4581 68.8901 18.2443 69.8489 18.2443 71.2424C18.2443 72.6359 17.4581 73.6266 15.6939 73.6266H13.5078ZM21.8981 79.9995H24.212V74.2275C24.212 72.981 25.1516 72.0989 26.4236 72.0989C26.8135 72.0989 27.2993 72.1693 27.4975 72.2332V70.1046C27.2866 70.0663 26.9222 70.0407 26.6665 70.0407C25.5415 70.0407 24.6019 70.6799 24.2439 71.8177H24.1417V70.1813H21.8981V79.9995ZM32.1932 80.1913C35.0696 80.1913 36.8977 78.165 36.8977 75.1288C36.8977 72.0862 35.0696 70.0535 32.1932 70.0535C29.3167 70.0535 27.4886 72.0862 27.4886 75.1288C27.4886 78.165 29.3167 80.1913 32.1932 80.1913ZM32.2059 78.3376C30.6143 78.3376 29.8345 76.9185 29.8345 75.1224C29.8345 73.3262 30.6143 71.888 32.2059 71.888C33.772 71.888 34.5518 73.3262 34.5518 75.1224C34.5518 76.9185 33.772 78.3376 32.2059 78.3376ZM38.1417 70.1813V80.5301C38.1417 81.3546 37.7901 81.7957 36.9016 81.7957C36.7865 81.7957 36.6971 81.7893 36.5692 81.7829V83.6685C36.7354 83.6813 36.876 83.6813 37.0422 83.6813C39.2091 83.6813 40.4556 82.6842 40.4556 80.562V70.1813H38.1417ZM39.2922 68.7879C40.0273 68.7879 40.6282 68.2254 40.6282 67.535C40.6282 66.8383 40.0273 66.2758 39.2922 66.2758C38.5507 66.2758 37.9499 66.8383 37.9499 67.535C37.9499 68.2254 38.5507 68.7879 39.2922 68.7879ZM46.4616 80.1913C48.75 80.1913 50.3224 79.0727 50.7315 77.366L48.571 77.1231C48.2578 77.9541 47.4907 78.3887 46.4936 78.3887C44.9978 78.3887 44.0071 77.4043 43.9879 75.7232H50.8274V75.0137C50.8274 71.5684 48.7563 70.0535 46.3402 70.0535C43.5277 70.0535 41.6931 72.1181 41.6931 75.1479C41.6931 78.2289 43.5021 80.1913 46.4616 80.1913ZM43.9943 74.1636C44.0646 72.9107 44.9914 71.856 46.3721 71.856C47.7017 71.856 48.5965 72.8276 48.6093 74.1636H43.9943ZM56.3476 80.1913C58.8149 80.1913 60.3874 78.7275 60.5536 76.6437H58.3419C58.1438 77.6984 57.3831 78.3056 56.3668 78.3056C54.9222 78.3056 53.9889 77.0975 53.9889 75.0904C53.9889 73.1089 54.9414 71.92 56.3668 71.92C57.479 71.92 58.1629 72.6359 58.3419 73.5819H60.5536C60.3938 71.4533 58.7318 70.0535 56.3348 70.0535C53.4584 70.0535 51.6431 72.1309 51.6431 75.1288C51.6431 78.1011 53.4137 80.1913 56.3476 80.1913ZM66.6363 70.1813H64.6995V67.8291H62.3856V70.1813H60.9921V71.9711H62.3856V77.4299C62.3728 79.2772 63.7151 80.1849 65.4538 80.1337C66.1122 80.1146 66.566 79.9867 66.8153 79.9036L66.4254 78.0947C66.2975 78.1266 66.0355 78.1842 65.7478 78.1842C65.1661 78.1842 64.6995 77.9796 64.6995 77.0464V71.9711H66.6363V70.1813ZM75.4708 72.7765C75.1512 71.1146 73.8217 70.0535 71.5205 70.0535C69.1555 70.0535 67.5447 71.2168 67.5511 73.0322C67.5447 74.464 68.4268 75.41 70.3124 75.7999L71.9871 76.1515C72.8884 76.3497 73.3103 76.714 73.3103 77.2701C73.3103 77.9413 72.5816 78.4462 71.4822 78.4462C70.4211 78.4462 69.7308 77.986 69.5326 77.1039L67.2762 77.3212C67.5639 79.1238 69.0788 80.1913 71.4886 80.1913C73.9431 80.1913 75.6754 78.9193 75.6818 77.0592C75.6754 75.6593 74.7741 74.8028 72.9204 74.4001L71.2457 74.0421C70.2485 73.8184 69.8522 73.4732 69.8586 72.9043C69.8522 72.2396 70.5873 71.7793 71.5525 71.7793C72.62 71.7793 73.1825 72.361 73.3614 73.0066L75.4708 72.7765Z" fill="white"/>
<path d="M103.533 66.295H101.506L97.2876 81.9683H99.3139L103.533 66.295ZM115.251 70.5073H117.533C117.488 68.2957 115.602 66.7296 112.815 66.7296C110.067 66.7296 108.002 68.2765 108.009 70.5904C108.009 72.4697 109.344 73.5499 111.499 74.106L112.988 74.4896C114.401 74.8475 115.334 75.2886 115.34 76.3049C115.334 77.4235 114.273 78.1714 112.726 78.1714C111.243 78.1714 110.092 77.5066 109.996 76.1323H107.663C107.759 78.7339 109.696 80.1977 112.745 80.1977C115.884 80.1977 117.705 78.6316 117.712 76.3241C117.705 74.0549 115.832 73.0194 113.864 72.5528L112.636 72.246C111.562 71.9903 110.399 71.5364 110.412 70.4434C110.418 69.459 111.3 68.7367 112.783 68.7367C114.196 68.7367 115.129 69.3951 115.251 70.5073ZM119.004 83.6813H121.317V78.4526H121.413C121.778 79.1685 122.538 80.1721 124.226 80.1721C126.54 80.1721 128.272 78.3376 128.272 75.1032C128.272 71.8305 126.489 70.0535 124.219 70.0535C122.487 70.0535 121.765 71.0954 121.413 71.8049H121.279V70.1813H119.004V83.6813ZM121.273 75.0904C121.273 73.1856 122.091 71.9519 123.58 71.9519C125.121 71.9519 125.913 73.2623 125.913 75.0904C125.913 76.9313 125.108 78.2737 123.58 78.2737C122.104 78.2737 121.273 76.9953 121.273 75.0904ZM133.816 80.1913C136.693 80.1913 138.521 78.165 138.521 75.1288C138.521 72.0862 136.693 70.0535 133.816 70.0535C130.94 70.0535 129.112 72.0862 129.112 75.1288C129.112 78.165 130.94 80.1913 133.816 80.1913ZM133.829 78.3376C132.237 78.3376 131.458 76.9185 131.458 75.1224C131.458 73.3262 132.237 71.888 133.829 71.888C135.395 71.888 136.175 73.3262 136.175 75.1224C136.175 76.9185 135.395 78.3376 133.829 78.3376ZM144.667 70.1813H142.731V67.8291H140.417V70.1813H139.023V71.9711H140.417V77.4299C140.404 79.2772 141.746 80.1849 143.485 80.1337C144.143 80.1146 144.597 79.9867 144.846 79.9036L144.456 78.0947C144.329 78.1266 144.067 78.1842 143.779 78.1842C143.197 78.1842 142.731 77.9796 142.731 77.0464V71.9711H144.667V70.1813ZM145.883 79.9995H148.197V70.1813H145.883V79.9995ZM147.046 68.7879C147.781 68.7879 148.382 68.2254 148.382 67.535C148.382 66.8383 147.781 66.2758 147.046 66.2758C146.304 66.2758 145.704 66.8383 145.704 67.535C145.704 68.2254 146.304 68.7879 147.046 68.7879ZM154.829 70.1813H152.79V69.4079C152.79 68.6408 153.11 68.2126 153.972 68.2126C154.337 68.2126 154.644 68.2957 154.835 68.3532L155.302 66.5634C155.002 66.4612 154.343 66.295 153.544 66.295C151.837 66.295 150.476 67.2729 150.476 69.2545V70.1813H149.025V71.9711H150.476V79.9995H152.79V71.9711H154.829V70.1813ZM157.359 83.6813C159.162 83.6813 160.204 82.7545 160.76 81.1884L164.704 70.1941L162.23 70.1813L159.961 77.5961H159.859L157.596 70.1813H155.141L158.702 80.2041L158.503 80.7346C158.075 81.8532 157.398 81.9299 156.388 81.6359L155.851 83.4384C156.164 83.5663 156.727 83.6813 157.359 83.6813Z" fill="white"/>
<path d="M473.422 66.295H471.396L467.177 81.9683H469.203L473.422 66.295ZM478.992 80.2488C482.149 80.2552 484.035 77.7623 484.035 73.4668C484.035 69.197 482.137 66.7296 478.992 66.7296C475.847 66.7296 473.955 69.1906 473.948 73.4668C473.948 77.7559 475.834 80.2488 478.992 80.2488ZM478.992 78.2481C477.362 78.2481 476.339 76.6117 476.345 73.4668C476.352 70.3475 477.368 68.7048 478.992 68.7048C480.622 68.7048 481.638 70.3475 481.644 73.4668C481.644 76.6117 480.628 78.2481 478.992 78.2481ZM490.137 80.1785C492.937 80.1785 494.976 78.5741 494.969 76.3624C494.976 74.7261 493.953 73.5499 492.118 73.2879V73.1856C493.537 72.8788 494.49 71.8241 494.483 70.3539C494.49 68.3596 492.79 66.7296 490.175 66.7296C487.631 66.7296 485.662 68.2445 485.611 70.437H487.893C487.932 69.3376 488.954 68.6536 490.162 68.6536C491.383 68.6536 492.195 69.3951 492.189 70.4945C492.195 71.6387 491.249 72.3994 489.894 72.3994H488.737V74.2275H489.894C491.55 74.2275 492.534 75.0585 492.528 76.241C492.534 77.3979 491.53 78.1906 490.131 78.1906C488.814 78.1906 487.797 77.5066 487.74 76.4391H485.336C485.4 78.6508 487.376 80.1785 490.137 80.1785Z" fill="white"/>
</svg>
