<svg width="440" height="365" viewBox="0 0 440 365" fill="none" xmlns="http://www.w3.org/2000/svg">
<rect width="440" height="365" rx="8" fill="#768595"/>
<path d="M46.5327 305.295H44.5064L40.2876 320.969H42.3139L46.5327 305.295ZM51.1363 319H53.5078V314.577H56.0135C59.0369 314.577 60.6605 312.761 60.6605 310.243C60.6605 307.744 59.0561 305.909 56.0454 305.909H51.1363V319ZM53.5078 312.627V307.891H55.6811C57.4581 307.891 58.2443 308.849 58.2443 310.243C58.2443 311.636 57.4581 312.627 55.6939 312.627H53.5078ZM61.8981 319H64.212V313.228C64.212 311.982 65.1516 311.099 66.4236 311.099C66.8135 311.099 67.2993 311.17 67.4975 311.234V309.105C67.2866 309.067 66.9222 309.041 66.6665 309.041C65.5415 309.041 64.6019 309.68 64.2439 310.818H64.1417V309.182H61.8981V319ZM72.1932 319.192C75.0696 319.192 76.8977 317.165 76.8977 314.129C76.8977 311.087 75.0696 309.054 72.1932 309.054C69.3167 309.054 67.4886 311.087 67.4886 314.129C67.4886 317.165 69.3167 319.192 72.1932 319.192ZM72.2059 317.338C70.6143 317.338 69.8345 315.919 69.8345 314.123C69.8345 312.327 70.6143 310.888 72.2059 310.888C73.772 310.888 74.5518 312.327 74.5518 314.123C74.5518 315.919 73.772 317.338 72.2059 317.338ZM78.1417 309.182V319.531C78.1417 320.355 77.7901 320.796 76.9016 320.796C76.7865 320.796 76.6971 320.79 76.5692 320.783V322.669C76.7354 322.682 76.876 322.682 77.0422 322.682C79.2091 322.682 80.4556 321.685 80.4556 319.562V309.182H78.1417ZM79.2922 307.788C80.0273 307.788 80.6282 307.226 80.6282 306.536C80.6282 305.839 80.0273 305.276 79.2922 305.276C78.5507 305.276 77.9499 305.839 77.9499 306.536C77.9499 307.226 78.5507 307.788 79.2922 307.788ZM86.4616 319.192C88.75 319.192 90.3224 318.073 90.7315 316.366L88.571 316.124C88.2578 316.955 87.4907 317.389 86.4936 317.389C84.9978 317.389 84.0071 316.405 83.9879 314.724H90.8274V314.014C90.8274 310.569 88.7563 309.054 86.3402 309.054C83.5277 309.054 81.6931 311.119 81.6931 314.148C81.6931 317.229 83.5021 319.192 86.4616 319.192ZM83.9943 313.164C84.0646 311.911 84.9914 310.857 86.3721 310.857C87.7017 310.857 88.5965 311.828 88.6093 313.164H83.9943ZM96.3476 319.192C98.8149 319.192 100.387 317.728 100.554 315.644H98.3419C98.1438 316.699 97.3831 317.306 96.3668 317.306C94.9222 317.306 93.9889 316.098 93.9889 314.091C93.9889 312.109 94.9414 310.92 96.3668 310.92C97.479 310.92 98.1629 311.636 98.3419 312.582H100.554C100.394 310.454 98.7318 309.054 96.3348 309.054C93.4584 309.054 91.6431 311.131 91.6431 314.129C91.6431 317.102 93.4137 319.192 96.3476 319.192ZM106.636 309.182H104.7V306.83H102.386V309.182H100.992V310.972H102.386V316.43C102.373 318.278 103.715 319.185 105.454 319.134C106.112 319.115 106.566 318.987 106.815 318.904L106.425 317.095C106.298 317.127 106.035 317.185 105.748 317.185C105.166 317.185 104.7 316.98 104.7 316.047V310.972H106.636V309.182ZM109.277 319.141C110.031 319.141 110.677 318.514 110.683 317.734C110.677 316.967 110.031 316.341 109.277 316.341C108.497 316.341 107.864 316.967 107.871 317.734C107.864 318.514 108.497 319.141 109.277 319.141ZM109.277 312.129C110.031 312.129 110.677 311.502 110.683 310.722C110.677 309.955 110.031 309.329 109.277 309.329C108.497 309.329 107.864 309.955 107.871 310.722C107.864 311.502 108.497 312.129 109.277 312.129ZM121.396 305.909H119.14L115.886 307.999V310.173L118.948 308.217H119.025V319H121.396V305.909ZM129.209 322.682C131.011 322.682 132.053 321.755 132.609 320.189L136.553 309.195L134.079 309.182L131.81 316.597H131.708L129.445 309.182H126.99L130.551 319.205L130.353 319.735C129.924 320.854 129.247 320.93 128.237 320.636L127.7 322.439C128.013 322.567 128.576 322.682 129.209 322.682ZM141.452 319.192C143.74 319.192 145.312 318.073 145.721 316.366L143.561 316.124C143.248 316.955 142.481 317.389 141.484 317.389C139.988 317.389 138.997 316.405 138.978 314.724H145.817V314.014C145.817 310.569 143.746 309.054 141.33 309.054C138.518 309.054 136.683 311.119 136.683 314.148C136.683 317.229 138.492 319.192 141.452 319.192ZM138.984 313.164C139.055 311.911 139.981 310.857 141.362 310.857C142.692 310.857 143.587 311.828 143.599 313.164H138.984ZM149.88 319.198C151.421 319.198 152.341 318.476 152.763 317.651H152.84V319H155.064V312.429C155.064 309.834 152.948 309.054 151.076 309.054C149.011 309.054 147.426 309.974 146.914 311.764L149.075 312.071C149.305 311.4 149.957 310.825 151.088 310.825C152.162 310.825 152.75 311.374 152.75 312.339V312.378C152.75 313.043 152.054 313.075 150.321 313.26C148.416 313.464 146.595 314.033 146.595 316.245C146.595 318.175 148.007 319.198 149.88 319.198ZM150.481 317.498C149.516 317.498 148.826 317.057 148.826 316.207C148.826 315.318 149.599 314.947 150.634 314.8C151.242 314.717 152.456 314.564 152.757 314.321V315.478C152.757 316.571 151.875 317.498 150.481 317.498ZM156.671 319H158.985V313.228C158.985 311.982 159.924 311.099 161.196 311.099C161.586 311.099 162.072 311.17 162.27 311.234V309.105C162.059 309.067 161.695 309.041 161.439 309.041C160.314 309.041 159.375 309.68 159.017 310.818H158.914V309.182H156.671V319Z" fill="white" fill-opacity="0.5"/>
<path d="M185.533 305.295H183.506L179.288 320.969H181.314L185.533 305.295ZM189.561 307.897H193.607V319H195.96V307.897H200.006V305.909H189.561V307.897ZM204.12 319.192C206.408 319.192 207.98 318.073 208.39 316.366L206.229 316.124C205.916 316.955 205.149 317.389 204.152 317.389C202.656 317.389 201.665 316.405 201.646 314.724H208.485V314.014C208.485 310.569 206.414 309.054 203.998 309.054C201.186 309.054 199.351 311.119 199.351 314.148C199.351 317.229 201.16 319.192 204.12 319.192ZM201.652 313.164C201.723 311.911 202.649 310.857 204.03 310.857C205.36 310.857 206.255 311.828 206.267 313.164H201.652ZM212.548 319.198C214.089 319.198 215.009 318.476 215.431 317.651H215.508V319H217.732V312.429C217.732 309.834 215.616 309.054 213.744 309.054C211.679 309.054 210.094 309.974 209.582 311.764L211.743 312.071C211.973 311.4 212.625 310.825 213.756 310.825C214.83 310.825 215.418 311.374 215.418 312.339V312.378C215.418 313.043 214.722 313.075 212.989 313.26C211.084 313.464 209.263 314.033 209.263 316.245C209.263 318.175 210.675 319.198 212.548 319.198ZM213.149 317.498C212.184 317.498 211.494 317.057 211.494 316.207C211.494 315.318 212.267 314.947 213.303 314.8C213.91 314.717 215.124 314.564 215.425 314.321V315.478C215.425 316.571 214.543 317.498 213.149 317.498ZM219.339 319H221.653V313.03C221.653 311.822 222.458 311.004 223.455 311.004C224.433 311.004 225.105 311.662 225.105 312.672V319H227.374V312.876C227.374 311.771 228.032 311.004 229.151 311.004C230.084 311.004 230.825 311.553 230.825 312.768V319H233.146V312.41C233.146 310.217 231.88 309.054 230.078 309.054C228.652 309.054 227.565 309.757 227.131 310.85H227.029C226.651 309.738 225.699 309.054 224.376 309.054C223.059 309.054 222.075 309.732 221.666 310.85H221.551V309.182H219.339V319ZM245.735 309.508H248.017C247.972 307.296 246.086 305.73 243.299 305.73C240.551 305.73 238.486 307.277 238.492 309.591C238.492 311.47 239.828 312.55 241.983 313.107L243.472 313.49C244.885 313.848 245.818 314.289 245.824 315.305C245.818 316.424 244.757 317.172 243.21 317.172C241.727 317.172 240.576 316.507 240.48 315.133H238.147C238.243 317.734 240.18 319.198 243.229 319.198C246.367 319.198 248.189 317.632 248.196 315.325C248.189 313.055 246.316 312.02 244.348 311.553L243.12 311.246C242.046 310.991 240.883 310.537 240.896 309.444C240.902 308.46 241.784 307.737 243.267 307.737C244.68 307.737 245.613 308.396 245.735 309.508ZM249.488 319H251.801V309.182H249.488V319ZM250.651 307.788C251.386 307.788 251.987 307.226 251.987 306.536C251.987 305.839 251.386 305.276 250.651 305.276C249.909 305.276 249.309 305.839 249.309 306.536C249.309 307.226 249.909 307.788 250.651 307.788ZM253.333 319H261.393V317.082H256.408V316.999L261.227 310.761V309.182H253.499V311.099H258.396V311.183L253.333 317.53V319ZM266.914 319.192C269.202 319.192 270.774 318.073 271.184 316.366L269.023 316.124C268.71 316.955 267.943 317.389 266.946 317.389C265.45 317.389 264.459 316.405 264.44 314.724H271.279V314.014C271.279 310.569 269.208 309.054 266.792 309.054C263.98 309.054 262.145 311.119 262.145 314.148C262.145 317.229 263.954 319.192 266.914 319.192ZM264.446 313.164C264.517 311.911 265.443 310.857 266.824 310.857C268.154 310.857 269.049 311.828 269.061 313.164H264.446ZM273.942 319.141C274.697 319.141 275.342 318.514 275.349 317.734C275.342 316.967 274.697 316.341 273.942 316.341C273.163 316.341 272.53 316.967 272.536 317.734C272.53 318.514 273.163 319.141 273.942 319.141ZM273.942 312.129C274.697 312.129 275.342 311.502 275.349 310.722C275.342 309.955 274.697 309.329 273.942 309.329C273.163 309.329 272.53 309.955 272.536 310.722C272.53 311.502 273.163 312.129 273.942 312.129ZM280.737 319H289.711V317.018H284.01V316.929L286.266 314.634C288.81 312.192 289.513 311.004 289.513 309.527C289.513 307.335 287.73 305.73 285.096 305.73C282.501 305.73 280.66 307.341 280.66 309.827H282.917C282.917 308.491 283.76 307.654 285.064 307.654C286.311 307.654 287.238 308.415 287.238 309.648C287.238 310.741 286.573 311.521 285.282 312.832L280.737 317.287V319ZM296.035 319.249C299.193 319.256 301.079 316.763 301.079 312.467C301.079 308.197 299.18 305.73 296.035 305.73C292.891 305.73 290.998 308.191 290.992 312.467C290.992 316.756 292.878 319.249 296.035 319.249ZM296.035 317.249C294.405 317.249 293.383 315.612 293.389 312.467C293.395 309.348 294.412 307.705 296.035 307.705C297.665 307.705 298.682 309.348 298.688 312.467C298.688 315.612 297.672 317.249 296.035 317.249Z" fill="white" fill-opacity="0.5"/>
<path fill-rule="evenodd" clip-rule="evenodd" d="M132.065 68.3643C131.516 68.8981 131.02 69.3695 130.547 69.8072L130.01 69.2305C130.478 68.7975 130.968 68.3303 131.514 67.8007C131.606 67.7107 131.891 67.4299 132.266 67.0607C133.194 66.1475 134.67 64.6935 135.141 64.2484C138.039 61.5083 138.652 60.9739 139.801 60.3328C140.755 59.8007 141.696 59.5488 142.785 59.5488C146.324 59.5488 146.913 60.7059 146.789 66.8293C146.753 68.3615 146.735 69.2611 146.735 69.5188H145.945C145.945 69.2518 145.963 68.3523 145.999 66.8121C146.116 61.0721 145.741 60.3359 142.785 60.3359C141.833 60.3359 141.024 60.5523 140.187 61.0196C139.122 61.6135 138.518 62.1406 135.685 64.8193C135.221 65.2576 133.759 66.6973 132.831 67.611L132.831 67.6115C132.45 67.9859 132.16 68.2718 132.065 68.3643ZM179.218 59.6798C179.088 59.6798 178.983 59.7848 178.983 59.9143V69.4153C178.983 69.5448 179.088 69.6498 179.218 69.6498H181.382C181.511 69.6498 181.616 69.5448 181.616 69.4153V67.2887H189.413C189.514 67.2887 189.601 67.2241 189.633 67.1337C190.229 67.0737 191.392 66.8611 192.148 66.1078C193.202 65.0583 193.202 64.0089 193.202 63.4841C193.202 62.9594 193.202 61.9099 192.148 60.8604C191.392 60.107 190.229 59.8945 189.633 59.8345C189.6 59.7445 189.514 59.6803 189.413 59.6803H181.397C181.392 59.68 181.387 59.6798 181.382 59.6798H179.218ZM189.547 62.2613C189.509 62.2882 189.463 62.3039 189.413 62.3039H181.616V64.665H189.413C189.462 64.665 189.509 64.6806 189.547 64.7071C189.935 64.5615 190.569 64.2123 190.569 63.4841C190.569 62.7563 189.935 62.4071 189.547 62.2613ZM203.499 59.8114L203.508 59.8116H208.765C208.895 59.8116 208.999 59.9166 208.999 60.0461V62.9879C208.999 63.1174 208.895 63.2224 208.765 63.2224H203.733V69.547C203.733 69.6765 203.628 69.7814 203.499 69.7814H200.545C200.416 69.7814 200.311 69.6765 200.311 69.547V63.2224H195.279C195.15 63.2224 195.045 63.1174 195.045 62.9879V60.0461C195.045 59.9166 195.15 59.8116 195.279 59.8116H200.536L200.545 59.8114H203.499ZM143.838 66.5013H136.729C136.511 66.5013 136.334 66.3251 136.334 66.1078C136.334 65.8904 136.511 65.7142 136.729 65.7142H143.838C144.057 65.7142 144.233 65.8904 144.233 66.1078C144.233 66.3251 144.057 66.5013 143.838 66.5013ZM148.939 59.8112C148.809 59.8112 148.704 59.9162 148.704 60.0457V60.0457V60.8886V68.7041V69.5467V69.547C148.704 69.6765 148.809 69.7815 148.939 69.7815H158.212C158.281 69.7815 158.343 69.7517 158.386 69.7043C160.342 69.3317 161.342 67.6197 161.342 64.7964C161.342 61.9732 160.342 60.2612 158.386 59.8886C158.343 59.8411 158.281 59.8112 158.212 59.8112H149.791L149.786 59.8112H148.939ZM157.517 68.4696L157.525 68.4696C159.214 68.4696 160.026 67.3571 160.026 64.7964C160.026 62.2358 159.214 61.1233 157.525 61.1233L157.509 61.1231H150.021V68.4696H157.517ZM175.083 65.9236C175.002 64.5984 174.781 63.5973 174.434 63.0474C173.885 62.1766 172.555 61.672 170.334 61.6479L170.341 61.6478L170.327 61.6478L170.313 61.6479L170.321 61.6479C168.024 61.6903 166.638 62.2027 166.069 63.0652C165.647 63.7055 165.404 64.7839 165.324 66.2467C165.285 66.9629 165.284 67.6021 165.306 68.7441C165.318 69.3776 165.321 69.5256 165.321 69.7812H163.214C163.214 69.5448 163.212 69.4008 163.2 68.784C163.177 67.5929 163.178 66.9149 163.221 66.1326C163.32 64.33 163.633 62.9376 164.309 61.9125C165.341 60.3468 167.371 59.5993 170.305 59.5489L170.333 59.5488C173.21 59.5761 175.209 60.3314 176.218 61.9304C176.799 62.8522 177.084 64.1466 177.186 65.7947C177.243 66.7142 177.239 67.5859 177.198 68.7905L177.195 68.8813C177.19 69.0249 177.18 69.2916 177.178 69.3734C177.172 69.5573 177.169 69.6852 177.169 69.7812H175.063C175.063 69.6577 175.066 69.511 175.072 69.3066C175.075 69.2213 175.085 68.9501 175.09 68.807L175.09 68.8021L175.093 68.7192C175.132 67.5762 175.135 66.7605 175.083 65.9236ZM170.321 61.6479L170.327 61.6478L170.334 61.6479L170.327 61.648L170.321 61.6479ZM166.345 65.7897C166.345 65.5307 166.555 65.3207 166.814 65.3207H173.512C173.771 65.3207 173.981 65.5307 173.981 65.7897V66.9507C173.981 67.2097 173.771 67.4197 173.512 67.4197H166.814C166.555 67.4197 166.345 67.2097 166.345 66.9507V65.7897Z" fill="white"/>
<path fill-rule="evenodd" clip-rule="evenodd" d="M108.133 60.2324L111.788 63.8872L115.443 60.2324L115.793 60.5826L112.138 64.2373L115.793 67.892L115.443 68.2422L111.788 64.5875L108.133 68.2422L107.783 67.892L111.438 64.2373L107.783 60.5826L108.133 60.2324Z" fill="white" stroke="white" stroke-width="1.28963" stroke-linejoin="round"/>
<path fill-rule="evenodd" clip-rule="evenodd" d="M45.9747 74.0475C44.3609 73.9875 43.0405 73.5745 42.008 72.8073C41.811 72.6608 41.3415 72.2214 41.184 72.0361C40.7653 71.5437 40.4807 71.0645 40.2908 70.5328C39.7066 68.8962 40.0073 66.7486 41.1508 64.3917C42.1299 62.3738 43.6407 60.3725 46.2765 57.6007C46.6648 57.1928 47.821 56 47.8285 56C47.8312 56 47.7682 56.1021 47.6889 56.2264C47.0036 57.3001 46.4172 58.5648 46.0977 59.6596C45.5845 61.4164 45.6464 62.9241 46.279 64.0931C46.7154 64.8985 47.4634 65.5961 48.3046 65.9817C49.7773 66.6566 51.9334 66.7124 54.5664 66.1451C54.7477 66.1058 63.7307 63.8755 74.5287 61.1887C85.3268 58.5017 94.163 56.305 94.1644 56.3068C94.1674 56.3091 69.0775 66.3506 56.0529 71.56C53.9902 72.3847 53.4386 72.5931 52.4689 72.9115C49.9901 73.7257 47.7696 74.1141 45.9747 74.0475Z" fill="white"/>
<path d="M64.098 137.818H59.3807V155.665H59.1506L46.8267 137.818H42.5824V164H47.3253V146.166H47.5426L59.8793 164H64.098V137.818ZM67.6214 164H72.2493V144.364H67.6214V164ZM69.9481 141.577C71.4183 141.577 72.62 140.452 72.62 139.071C72.62 137.678 71.4183 136.553 69.9481 136.553C68.4652 136.553 67.2635 137.678 67.2635 139.071C67.2635 140.452 68.4652 141.577 69.9481 141.577ZM75.5682 164H80.196V157.403L81.8835 155.601L87.892 164H93.4275L85.3736 152.839L92.9801 144.364H87.5724L80.5156 152.251H80.196V137.818H75.5682V164ZM102.509 164.384C107.086 164.384 110.23 162.146 111.049 158.733L106.728 158.247C106.101 159.909 104.567 160.778 102.573 160.778C99.5813 160.778 97.5997 158.81 97.5614 155.447H111.24V154.028C111.24 147.138 107.098 144.108 102.266 144.108C96.6409 144.108 92.9719 148.237 92.9719 154.297C92.9719 160.459 96.5898 164.384 102.509 164.384ZM97.5742 152.328C97.7148 149.822 99.5685 147.713 102.33 147.713C104.989 147.713 106.779 149.656 106.804 152.328H97.5742Z" fill="white" fill-opacity="0.5"/>
<path d="M64.098 181.818H59.3807V199.665H59.1506L46.8267 181.818H42.5824V208H47.3253V190.166H47.5426L59.8793 208H64.098V181.818ZM67.6214 208H72.2493V188.364H67.6214V208ZM69.9481 185.577C71.4183 185.577 72.62 184.452 72.62 183.071C72.62 181.678 71.4183 180.553 69.9481 180.553C68.4652 180.553 67.2635 181.678 67.2635 183.071C67.2635 184.452 68.4652 185.577 69.9481 185.577ZM75.5682 208H80.196V201.403L81.8835 199.601L87.892 208H93.4275L85.3736 196.839L92.9801 188.364H87.5724L80.5156 196.251H80.196V181.818H75.5682V208ZM102.509 208.384C107.086 208.384 110.23 206.146 111.049 202.733L106.728 202.247C106.101 203.909 104.567 204.778 102.573 204.778C99.5813 204.778 97.5997 202.81 97.5614 199.447H111.24V198.028C111.24 191.138 107.098 188.108 102.266 188.108C96.6409 188.108 92.9719 192.237 92.9719 198.297C92.9719 204.459 96.5898 208.384 102.509 208.384ZM97.5742 196.328C97.7148 193.822 99.5685 191.713 102.33 191.713C104.989 191.713 106.779 193.656 106.804 196.328H97.5742ZM124.772 208L126.932 201.544H136.776L138.95 208H144.012L134.782 181.818H128.927L119.709 208H124.772ZM128.211 197.734L131.752 187.188H131.957L135.498 197.734H128.211ZM152.505 208.345C155.88 208.345 157.402 206.338 158.13 204.906H158.411V208H162.963V181.818H158.322V191.611H158.13C157.427 190.192 155.983 188.108 152.518 188.108C147.98 188.108 144.413 191.662 144.413 198.207C144.413 204.676 147.877 208.345 152.505 208.345ZM153.796 204.548C150.741 204.548 149.13 201.864 149.13 198.182C149.13 194.526 150.715 191.905 153.796 191.905C156.775 191.905 158.411 194.372 158.411 198.182C158.411 201.991 156.75 204.548 153.796 204.548ZM172.105 208.396C175.186 208.396 177.027 206.952 177.87 205.303H178.024V208H182.473V194.858C182.473 189.668 178.241 188.108 174.495 188.108C170.366 188.108 167.196 189.949 166.173 193.528L170.494 194.142C170.954 192.8 172.258 191.649 174.521 191.649C176.669 191.649 177.845 192.749 177.845 194.679V194.756C177.845 196.085 176.451 196.149 172.987 196.52C169.177 196.929 165.534 198.067 165.534 202.49C165.534 206.351 168.359 208.396 172.105 208.396ZM173.306 204.996C171.376 204.996 169.995 204.114 169.995 202.413C169.995 200.636 171.542 199.895 173.613 199.601C174.828 199.435 177.257 199.128 177.857 198.642V200.956C177.857 203.142 176.093 204.996 173.306 204.996ZM185.686 215.364H190.314V204.906H190.506C191.234 206.338 192.756 208.345 196.131 208.345C200.758 208.345 204.223 204.676 204.223 198.207C204.223 191.662 200.656 188.108 196.118 188.108C192.653 188.108 191.209 190.192 190.506 191.611H190.237V188.364H185.686V215.364ZM190.224 198.182C190.224 194.372 191.861 191.905 194.839 191.905C197.92 191.905 199.506 194.526 199.506 198.182C199.506 201.864 197.895 204.548 194.839 204.548C191.886 204.548 190.224 201.991 190.224 198.182ZM216.551 188.364H212.678V183.659H208.05V188.364H205.263V191.943H208.05V202.861C208.024 206.555 210.709 208.371 214.186 208.268C215.503 208.23 216.411 207.974 216.909 207.808L216.129 204.19C215.874 204.254 215.35 204.369 214.774 204.369C213.611 204.369 212.678 203.96 212.678 202.094V191.943H216.551V188.364Z" fill="white"/>
</svg>
