<svg width="169" height="19" viewBox="0 0 169 19" fill="none" xmlns="http://www.w3.org/2000/svg">
<path fill-rule="evenodd" clip-rule="evenodd" d="M92.0649 12.3643C91.5155 12.8981 91.0203 13.3695 90.5473 13.8072L90.0098 13.2305C90.4777 12.7975 90.9684 12.3303 91.5135 11.8007C91.6062 11.7107 91.8913 11.4299 92.2662 11.0607C93.1936 10.1475 94.6702 8.6935 95.141 8.24835C98.0389 5.50831 98.6517 4.97392 99.801 4.33275C100.755 3.80067 101.696 3.54883 102.785 3.54883C106.324 3.54883 106.913 4.70592 106.789 10.8293C106.753 12.3615 106.735 13.2611 106.735 13.5188H105.945C105.945 13.2518 105.963 12.3523 105.999 10.8121C106.116 5.07215 105.741 4.33593 102.785 4.33593C101.833 4.33593 101.024 4.55232 100.187 5.01955C99.1221 5.61352 98.5177 6.14064 95.6847 8.81932C95.2212 9.25756 93.7591 10.6973 92.8312 11.611L92.8307 11.6115C92.4505 11.9859 92.1601 12.2718 92.0649 12.3643ZM139.218 3.67981C139.088 3.67981 138.983 3.78479 138.983 3.91428V13.4153C138.983 13.5448 139.088 13.6498 139.218 13.6498H141.382C141.511 13.6498 141.616 13.5448 141.616 13.4153V11.2887H149.413C149.514 11.2887 149.601 11.2241 149.633 11.1337C150.229 11.0737 151.392 10.8611 152.148 10.1078C153.202 9.05833 153.202 8.00886 153.202 7.48412C153.202 6.95938 153.202 5.90991 152.148 4.86043C151.392 4.10699 150.229 3.89446 149.633 3.83451C149.6 3.74452 149.514 3.68026 149.413 3.68026H141.397C141.392 3.67996 141.387 3.67981 141.382 3.67981H139.218ZM149.547 6.26135C149.509 6.28819 149.463 6.30395 149.413 6.30395H141.616V8.66497H149.413C149.462 8.66497 149.509 8.68056 149.547 8.70713C149.935 8.56154 150.569 8.2123 150.569 7.48412C150.569 6.75634 149.935 6.40708 149.547 6.26135ZM163.499 3.81141L163.508 3.81158H168.765C168.895 3.81158 168.999 3.91656 168.999 4.04606V6.9879C168.999 7.1174 168.895 7.22238 168.765 7.22238H163.733V13.547C163.733 13.6765 163.628 13.7814 163.499 13.7814H160.545C160.416 13.7814 160.311 13.6765 160.311 13.547V7.22238H155.279C155.15 7.22238 155.045 7.1174 155.045 6.9879V4.04606C155.045 3.91656 155.15 3.81158 155.279 3.81158H160.536L160.545 3.81141H163.499ZM103.838 10.5013H96.7294C96.5112 10.5013 96.3344 10.3251 96.3344 10.1078C96.3344 9.89044 96.5112 9.71424 96.7294 9.71424H103.838C104.057 9.71424 104.233 9.89044 104.233 10.1078C104.233 10.3251 104.057 10.5013 103.838 10.5013ZM108.939 3.81118C108.809 3.81118 108.704 3.91616 108.704 4.04566V4.04572V4.8886V12.7041V13.5467V13.547C108.704 13.6765 108.809 13.7815 108.939 13.7815H118.212C118.281 13.7815 118.343 13.7517 118.386 13.7043C120.342 13.3317 121.342 11.6197 121.342 8.79642C121.342 5.97318 120.342 4.2612 118.386 3.88857C118.343 3.84108 118.281 3.81124 118.212 3.81124H109.791L109.786 3.81118H108.939ZM117.517 12.4696L117.525 12.4696C119.214 12.4696 120.026 11.3571 120.026 8.79642C120.026 6.23575 119.214 5.12326 117.525 5.12326L117.509 5.12308H110.021V12.4696H117.517ZM135.083 9.92357C135.002 8.59844 134.781 7.59734 134.434 7.04736C133.885 6.17665 132.555 5.67197 130.334 5.64789L130.341 5.64776L130.327 5.64782L130.313 5.64787L130.321 5.64794C128.024 5.69029 126.638 6.20274 126.069 7.06521C125.647 7.7055 125.404 8.78385 125.324 10.2467C125.285 10.9629 125.284 11.6021 125.306 12.7441C125.318 13.3776 125.321 13.5256 125.321 13.7812H123.214C123.214 13.5448 123.212 13.4008 123.2 12.784C123.177 11.5929 123.178 10.9149 123.221 10.1326C123.32 8.33004 123.633 6.9376 124.309 5.91251C125.341 4.34679 127.371 3.59932 130.305 3.54894L130.333 3.54883C133.21 3.5761 135.209 4.33141 136.218 5.93036C136.799 6.85217 137.084 8.14655 137.186 9.79472C137.243 10.7142 137.239 11.5859 137.198 12.7905L137.195 12.8813C137.19 13.0249 137.18 13.2916 137.178 13.3734C137.172 13.5573 137.169 13.6852 137.169 13.7812H135.063C135.063 13.6577 135.066 13.511 135.072 13.3066C135.075 13.2213 135.085 12.9501 135.09 12.807L135.09 12.8021L135.093 12.7192C135.132 11.5762 135.135 10.7605 135.083 9.92357ZM130.321 5.64794L130.327 5.64782L130.334 5.64789L130.327 5.64801L130.321 5.64794ZM126.345 9.78968C126.345 9.53069 126.555 9.32073 126.814 9.32073H133.512C133.771 9.32073 133.981 9.53069 133.981 9.78968V10.9507C133.981 11.2097 133.771 11.4197 133.512 11.4197H126.814C126.555 11.4197 126.345 11.2097 126.345 10.9507V9.78968Z" fill="white"/>
<path fill-rule="evenodd" clip-rule="evenodd" d="M68.1334 4.23291L71.7881 7.88764L75.4428 4.23291L75.793 4.58306L72.1382 8.23779L75.793 11.8925L75.4428 12.2427L71.7881 8.58795L68.1334 12.2427L67.7832 11.8925L71.4379 8.23779L67.7832 4.58306L68.1334 4.23291Z" fill="white" stroke="white" stroke-width="1.28963" stroke-linejoin="round"/>
<path fill-rule="evenodd" clip-rule="evenodd" d="M5.97474 18.0475C4.36086 17.9875 3.04047 17.5745 2.00803 16.8073C1.811 16.6608 1.34148 16.2214 1.18396 16.0361C0.765292 15.5437 0.480653 15.0645 0.290802 14.5328C-0.293399 12.8962 0.00726793 10.7486 1.1508 8.39165C2.1299 6.3738 3.6407 4.37249 6.27651 1.60069C6.66478 1.19283 7.82102 0 7.82849 0C7.83125 0 7.76824 0.102095 7.68893 0.226417C7.00359 1.30009 6.41717 2.56477 6.09771 3.65964C5.58454 5.41644 5.64644 6.92408 6.279 8.09312C6.71535 8.89851 7.46343 9.59611 8.30463 9.98174C9.7773 10.6566 11.9334 10.7124 14.5664 10.1451C14.7477 10.1058 23.7307 7.87549 34.5287 5.18873C45.3268 2.5017 54.163 0.304991 54.1644 0.3068C54.1674 0.309127 29.0775 10.3506 16.0529 15.56C13.9902 16.3847 13.4386 16.5931 12.4689 16.9115C9.99008 17.7257 7.76962 18.1141 5.97474 18.0475Z" fill="white"/>
</svg>
