<?xml version="1.0" encoding="UTF-8" standalone="no"?>
<svg width="104px" height="127px" viewBox="0 0 104 127" version="1.1" xmlns="http://www.w3.org/2000/svg" xmlns:xlink="http://www.w3.org/1999/xlink">
    <!-- Generator: Sketch 3.7.1 (28215) - http://www.bohemiancoding.com/sketch -->
    <title>arduino</title>
    <desc>Created with Sketch.</desc>
    <defs></defs>
    <g id="icons" stroke="none" stroke-width="1" fill="none" fill-rule="evenodd">
        <g id="Artboard-1" transform="translate(-658.000000, -627.000000)">
            <g id="arduino" transform="translate(660.000000, 629.000000)">
                <path d="M50.0358087,25.414676 C54.2393432,25.414676 57.6591679,28.8345007 57.6591679,33.0380352 L57.6591679,42.8266153 L42.4124496,42.8266153 L42.4124496,33.0380352 C42.4124496,28.8345007 45.8322742,25.414676 50.0358087,25.414676 L50.0358087,25.414676 Z M50.0358087,23.2950972 L50.0358087,23.2950972 C44.6767475,23.2950972 40.2928707,27.678974 40.2928707,33.0380352 L40.2928707,44.9461942 L59.7787467,44.9461942 L59.7787467,33.0380352 C59.7787467,27.678974 55.3948699,23.2950972 50.0358087,23.2950972 L50.0358087,23.2950972 L50.0358087,23.2950972 Z M59.7787467,47.0346027 L40.2928707,47.0346027 L39.0560787,47.0346027 L39.0560787,49.121898 L40.2928707,49.121898 L59.7787467,49.121898 L61.0155388,49.121898 L61.0155388,47.0346027 L59.7787467,47.0346027 L59.7787467,47.0346027 Z M57.6591679,51.2091934 L55.7689132,51.2091934 L55.7689132,77.5781344 L57.6591679,77.5781344 L57.6591679,51.2091934 L57.6591679,51.2091934 Z M44.3027042,51.2091934 L42.4124496,51.2091934 L42.4124496,80.5649149 L44.3027042,80.5649149 L44.3027042,51.2091934 L44.3027042,51.2091934 Z M53.2073844,51.2091934 L51.3171297,51.2091934 L51.3171297,80.5649149 L53.2073844,80.5649149 L53.2073844,51.2091934 L53.2073844,51.2091934 Z M48.7544877,51.2091934 L46.8653463,51.2091934 L46.8653463,85 L48.7556009,85 L48.7556009,51.2091934 L48.7544877,51.2091934 Z M35.8310682,32.302194 L30,32.302194 L30,33.7738763 L35.8310682,33.7738763 L35.8310682,32.302194 L35.8310682,32.302194 Z M38.1020455,25.2977875 L33.0524607,22.3822534 L32.3166195,23.656895 L37.3662044,26.5724291 L38.1020455,25.2977875 L38.1020455,25.2977875 Z M43.5702027,20.3673176 L40.6546686,15.3177327 L39.3800269,16.0535739 L42.295561,21.1031588 L43.5702027,20.3673176 L43.5702027,20.3673176 Z M50.7716499,18.8310682 L50.7716499,13 L49.2999675,13 L49.3010808,18.8310682 L50.7716499,18.8310682 L50.7716499,18.8310682 Z M60.6915905,16.0513475 L59.4169488,15.3155063 L56.5025279,20.3650911 L57.7771696,21.1009323 L60.6915905,16.0513475 L60.6915905,16.0513475 Z M67.7572244,23.6535554 L67.0213832,22.3789137 L61.9717983,25.295561 L62.7076395,26.5702027 L67.7572244,23.6535554 L67.7572244,23.6535554 Z M70.0760703,33.7694234 L70.0760703,32.2977411 L64.2450021,32.2988543 L64.2450021,33.7705367 L70.0760703,33.7694234 L70.0760703,33.7694234 Z" id="Shape" fill="#FFFFFF"></path>
                <circle id="Oval-43-Copy-20" stroke="#FFFFFF" stroke-width="3" cx="50" cy="50" r="50"></circle>
                <text id="Arduino" font-family="Lato-Light, Lato" font-size="14" font-weight="300" fill="#FFFFFF">
                    <tspan x="26" y="124">Arduino</tspan>
                </text>
            </g>
        </g>
    </g>
</svg>