<?xml version="1.0" encoding="UTF-8" standalone="no"?>
<svg width="111px" height="130px" viewBox="0 0 111 130" version="1.1" xmlns="http://www.w3.org/2000/svg" xmlns:xlink="http://www.w3.org/1999/xlink">
    <!-- Generator: Sketch 3.7.1 (28215) - http://www.bohemiancoding.com/sketch -->
    <title>contextual_inquiry</title>
    <desc>Created with Sketch.</desc>
    <defs></defs>
    <g id="icons" stroke="none" stroke-width="1" fill="none" fill-rule="evenodd">
        <g id="Artboard-1" transform="translate(-1005.000000, -114.000000)">
            <g id="contextual_inquiry" transform="translate(1005.000000, 116.000000)">
                <g id="glass-icon" transform="translate(20.000000, 15.000000)" fill="#FFFFFF">
                    <path d="M48.8726714,41.0116571 C47.7489857,39.8879714 46.1668286,39.4094 44.6306143,39.5271286 L41.0595143,35.9560286 C43.7816286,32.2423143 45.4106857,27.6805714 45.4106857,22.7331 C45.4106857,10.3629857 35.3472857,0.299585714 22.9771714,0.299585714 C10.6080143,0.299585714 0.543657143,10.3629857 0.543657143,22.7331 C0.543657143,35.1032143 10.6080143,45.1666143 22.9771714,45.1666143 C27.9256,45.1666143 32.4873429,43.5366 36.2001,40.8144857 L39.7290857,44.3434714 C39.7147286,44.5023571 39.6812286,44.6583714 39.6812286,44.8220429 C39.6812286,46.2587143 40.2402,47.6102 41.2566857,48.6286 L57.754,65.1230429 C58.7704857,66.1395286 60.1219714,66.7004143 61.5615143,66.7004143 C63.0001,66.7004143 64.3515857,66.1395286 65.3699857,65.1230429 C66.3864714,64.1065571 66.9464,62.7541143 66.9464,61.3164857 C66.9464,59.8779 66.3855143,58.5245 65.3699857,57.5080143 L48.8726714,41.0116571 L48.8726714,41.0116571 Z M2.3383,22.7321429 C2.3383,11.3526714 11.5977,2.09422857 22.9762143,2.09422857 C34.3566429,2.09422857 43.6141286,11.3536286 43.6141286,22.7321429 C43.6141286,34.1106571 34.3556857,43.3700571 22.9762143,43.3700571 C11.5977,43.3700571 2.3383,34.1116143 2.3383,22.7321429 L2.3383,22.7321429 Z M37.6166714,39.6917571 C38.4455571,38.9758143 39.2208429,38.2005286 39.9377429,37.3716429 L42.6330571,40.0669571 C42.1343857,40.3100714 41.6615571,40.6096571 41.2586,41.0126143 C40.8566,41.4146143 40.5484,41.8797857 40.2957143,42.3708 L37.6166714,39.6917571 L37.6166714,39.6917571 Z M64.1008143,63.8548286 C62.7435857,65.2111 60.3794429,65.2111 59.0231714,63.8548286 L42.5258571,47.3584714 C41.8491571,46.6798571 41.4758714,45.7791857 41.4758714,44.8210857 C41.4758714,43.8620286 41.8491571,42.9613571 42.5277714,42.2837 C43.2063857,41.6050857 44.1070571,41.2318 45.0651571,41.2318 C46.0242143,41.2318 46.9239286,41.6050857 47.6025429,42.2817857 L64.0998571,58.7781429 C65.5011143,60.1774857 65.5011143,62.4545286 64.1008143,63.8548286 L64.1008143,63.8548286 Z" id="Shape"></path>
                    <path d="M26.9062429,7.98831429 C25.6322857,7.64948571 24.3104714,7.47815714 22.9771714,7.47815714 C22.4813714,7.47815714 22.0793714,7.8792 22.0793714,8.37595714 C22.0793714,8.87271429 22.4813714,9.27375714 22.9771714,9.27375714 C24.1544571,9.27375714 25.3221714,9.42402857 26.4439429,9.72457143 C26.5214714,9.74467143 26.5999571,9.75424286 26.6755714,9.75424286 C27.0727857,9.75424286 27.4355429,9.49007143 27.5427429,9.08807143 C27.6690857,8.60662857 27.3848143,8.11561429 26.9062429,7.98831429 L26.9062429,7.98831429 Z" id="Shape"></path>
                    <path d="M36.3302714,15.3468286 C34.9864429,12.9252571 33.0109,10.9104714 30.6151714,9.5207 C30.1892429,9.27184286 29.6379286,9.41445714 29.3881143,9.84708571 C29.1392571,10.2758857 29.2866571,10.8243286 29.7145,11.0741429 C31.8297857,12.3002429 33.5756143,14.0776571 34.7596,16.2159143 C34.9242286,16.5126286 35.2295571,16.6782143 35.5444571,16.6782143 C35.6918571,16.6782143 35.8430857,16.6408857 35.979,16.5662286 C36.4145,16.3269429 36.5705143,15.7794571 36.3302714,15.3468286 L36.3302714,15.3468286 Z" id="Shape"></path>
                </g>
                <circle id="Oval-43-Copy-5" stroke="#FFFFFF" stroke-width="3" cx="56" cy="50" r="50"></circle>
                <text id="Contextual-Inquiry" font-family="Lato-Light, Lato" font-size="14" font-weight="300" fill="#FFFFFF">
                    <tspan x="0" y="125">Contextual Inquiry</tspan>
                </text>
            </g>
        </g>
    </g>
</svg>