<?xml version="1.0" encoding="UTF-8" standalone="no"?>
<svg width="55px" height="36px" viewBox="0 0 55 36" version="1.1" xmlns="http://www.w3.org/2000/svg" xmlns:xlink="http://www.w3.org/1999/xlink" xmlns:sketch="http://www.bohemiancoding.com/sketch/ns">
    <!-- Generator: Sketch 3.3.3 (12081) - http://www.bohemiancoding.com/sketch -->
    <title>email</title>
    <desc>Created with Sketch.</desc>
    <defs></defs>
    <g id="icons" stroke="none" stroke-width="1" fill="none" fill-rule="evenodd" sketch:type="MSPage">
        <g id="email" sketch:type="MSLayerGroup" transform="translate(0.000000, 0.623288)" fill="#545B61">
            <path d="M53.9167391,1.61684783 C53.8794565,1.07586957 53.4518478,0.649021739 52.9108696,0.61173913 C51.4317391,0.512065217 49.9503261,0.477826087 48.4734783,0.477826087 C45.383587,0.479347826 42.3111957,0.623913043 39.298913,0.623913043 C38.7122826,0.623913043 38.1279348,0.618586957 37.5458696,0.605652174 C35.8179348,0.567608696 33.851087,0.558478261 31.8781522,0.558478261 C29.9851087,0.558478261 28.0882609,0.566086957 26.4006522,0.566086957 C24.5,0.566086957 22.8588043,0.556195652 21.8171739,0.510543478 C19.1191304,0.394130435 16.3115217,0.363695652 13.2330435,0.363695652 C9.80913043,0.363695652 6.04891304,0.40173913 1.7248913,0.40173913 C1.1276087,0.40173913 0.643695652,0.886413043 0.643695652,1.48065217 C0.643695652,4.72423913 0.745652174,8.7051087 0.745652174,12.3458696 C0.745652174,13.8151087 0.728913043,15.2288043 0.6825,16.5093478 C0.580543478,19.3648913 0.555434783,22.3657609 0.555434783,25.2456522 C0.555434783,28.0616304 0.579782609,30.7566304 0.582826087,33.0833696 C0.486195652,33.396087 0.535652174,33.7354348 0.719021739,34.0063043 C0.896304348,34.3304348 1.23184783,34.5571739 1.62521739,34.5708696 C4.46554348,34.673587 7.8826087,34.6994565 11.4548913,34.6994565 C15.3931522,34.6994565 19.5201087,34.6667391 23.2483696,34.6667391 C25.7394565,34.6667391 28.0547826,34.6819565 30.0140217,34.7298913 C31.2626087,34.7595652 32.6816304,34.7709783 34.1942391,34.7709783 C38.0891304,34.7709783 42.6071739,34.6986957 46.3498913,34.6994565 C47.7263043,34.6994565 48.9977174,34.708587 50.0895652,34.7344565 C51.181413,34.761087 52.0967391,34.8044565 52.738913,34.8676087 C53.0356522,34.8972826 53.333913,34.8021739 53.5568478,34.6051087 C53.7805435,34.4095652 53.9144565,34.125 53.9251087,33.8290217 C54.0225,30.946087 54.1328261,27.4795652 54.1419565,24.5547826 C54.1556522,20.3486957 54.2446739,16.4043478 54.2446739,12.4326087 C54.2469565,8.91206522 54.1769565,5.37173913 53.9167391,1.61684783 L53.9167391,1.61684783 Z M52.0845652,12.4318478 C52.0845652,16.3708696 51.9955435,20.3129348 51.9818478,24.546413 C51.9757609,26.495 51.9240217,28.7038043 51.8601087,30.8220652 C47.5961957,25.8855435 43.026413,21.5318478 39.3141304,16.7223913 C40.1168478,15.9227174 40.9286957,15.1169565 41.7382609,14.3134783 C44.6151087,11.4594565 47.4447826,8.66934783 49.6208696,6.55945652 C50.5088043,5.70043478 51.2856522,4.95478261 51.9118478,4.3651087 C52.0427174,7.11184783 52.0845652,9.77108696 52.0845652,12.4318478 L52.0845652,12.4318478 Z M21.7251087,2.66913043 C22.8405435,2.71782609 24.4893478,2.72771739 26.401413,2.72847826 C28.0958696,2.72847826 29.9919565,2.7201087 31.878913,2.7201087 C33.8442391,2.7201087 35.7981522,2.72847826 37.4986957,2.76728261 C38.0990217,2.78097826 38.6993478,2.78554348 39.2996739,2.78554348 C42.3804348,2.78554348 45.4528261,2.64097826 48.4742391,2.64097826 C49.1727174,2.64097826 49.8681522,2.64858696 50.5605435,2.6676087 C49.2838043,3.86521739 47.3747826,5.71945652 45.1751087,7.88032609 C38.8568478,14.0852174 30.176087,22.7895652 27.6393478,25.333913 C26.0278261,23.8836957 22.05,20.2771739 17.5966304,16.0528261 C15.0340217,13.6218478 12.3154348,10.9861957 9.80228261,8.44184783 C7.74945652,6.36315217 5.83967391,4.34836957 4.26391304,2.55804348 C7.55315217,2.54967391 10.5098913,2.52532609 13.2345652,2.52532609 C16.2978261,2.52456522 19.0742391,2.555 21.7251087,2.66913043 L21.7251087,2.66913043 Z M2.71782609,25.2448913 C2.71782609,22.3771739 2.74369565,19.3991304 2.8448913,16.5869565 C2.89206522,15.2668478 2.90804348,13.8303261 2.90804348,12.3451087 C2.90804348,9.6501087 2.85402174,6.79076087 2.8251087,4.19467391 C4.53782609,6.12804348 6.58913043,8.27597826 8.77282609,10.4756522 C10.4779348,12.1906522 12.2606522,13.9353261 14.0144565,15.6221739 C13.7131522,15.948587 13.3646739,16.3503261 12.9667391,16.8258696 C12.0765217,17.8880435 10.9580435,19.2941304 9.7551087,20.8402174 C7.34771739,23.933913 4.60173913,27.5868478 2.73380435,30.0870652 C2.72695652,28.5447826 2.71782609,26.915 2.71782609,25.2448913 L2.71782609,25.2448913 Z M46.351413,32.5363043 C42.5828261,32.5363043 38.0655435,32.608587 34.1957609,32.608587 C32.6930435,32.608587 31.2892391,32.5971739 30.0680435,32.5682609 C28.0791304,32.5195652 25.7508696,32.5058696 23.2498913,32.5058696 C19.5086957,32.5058696 15.3832609,32.5363043 11.456413,32.5363043 C8.6876087,32.5363043 6.02076087,32.5203261 3.65673913,32.4655435 C4.90532609,30.7901087 6.83413043,28.2107609 8.82456522,25.5979348 C10.2428261,23.736087 11.6907609,21.8575 12.9378261,20.2893478 C13.5602174,19.506413 14.133913,18.8003261 14.6246739,18.2129348 C14.9944565,17.7716304 15.3201087,17.3965217 15.5772826,17.1157609 C21.6353261,22.8823913 26.956087,27.6248913 26.9621739,27.6302174 C27.3897826,28.0129348 28.0426087,27.9931522 28.4473913,27.586087 C28.448913,27.5853261 28.5409783,27.4917391 28.7167391,27.3152174 C29.7317391,26.296413 33.4797826,22.5354348 37.7726087,18.258587 C41.6857609,23.2711957 46.3346739,27.6804348 50.5263043,32.5827174 C50.4007609,32.5796739 50.2744565,32.5766304 50.1451087,32.5728261 C49.0243478,32.5454348 47.7377174,32.5363043 46.351413,32.5363043 L46.351413,32.5363043 Z" id="Shape" sketch:type="MSShapeGroup"></path>
        </g>
    </g>
</svg>