<?xml version="1.0" encoding="UTF-8" standalone="no"?>
<svg width="55px" height="55px" viewBox="0 0 55 55" version="1.1" xmlns="http://www.w3.org/2000/svg" xmlns:xlink="http://www.w3.org/1999/xlink" xmlns:sketch="http://www.bohemiancoding.com/sketch/ns">
    <!-- Generator: Sketch 3.3.3 (12081) - http://www.bohemiancoding.com/sketch -->
    <title>linkedin</title>
    <desc>Created with Sketch.</desc>
    <defs>
        <rect id="path-1" x="0" y="0" width="53" height="53" rx="6"></rect>
        <circle id="path-2" cx="14" cy="14" r="4"></circle>
        <rect id="path-3" x="10" y="24" width="8" height="21"></rect>
        <path id="path-4" d="M23,45.1559071 L29.3496586,45.1559071 L29.3496585,30.8399077 C29.3496585,30.8399077 30.6240234,28.0195952 33.5732422,28.0195952 C36.5224609,28.0195952 37.9985085,30.8399077 37.9985085,30.8399077 L37.9985086,45.0389784 L45.1466687,45.0389784 C45.1466687,45.0389784 45.1466694,34.4341463 45.1466694,28.0195954 C45.1466694,21.6050446 34.0556641,19.645572 28.9716797,25.4605134 C28.6683782,25.8074224 28.9716797,22.4160798 28.9716797,22.4160798 L23,22.4160798 L23,45.1559071 Z"></path>
    </defs>
    <g id="icons" stroke="none" stroke-width="1" fill="none" fill-rule="evenodd" sketch:type="MSPage">
        <g id="linkedin" sketch:type="MSLayerGroup" transform="translate(1.000000, 1.000000)" stroke="#545B61">
            <g id="Rectangle-45">
                <use stroke-width="2" sketch:type="MSShapeGroup" xlink:href="#path-1"></use>
                <use stroke-width="1" xlink:href="#path-1"></use>
            </g>
            <g id="Oval-88">
                <use stroke-width="2" sketch:type="MSShapeGroup" xlink:href="#path-2"></use>
                <use stroke-width="1" xlink:href="#path-2"></use>
            </g>
            <g id="Rectangle-46">
                <use stroke-width="2" sketch:type="MSShapeGroup" xlink:href="#path-3"></use>
                <use stroke-width="1" xlink:href="#path-3"></use>
            </g>
            <g id="Path-806">
                <use stroke-width="2" sketch:type="MSShapeGroup" xlink:href="#path-4"></use>
                <use stroke-width="1" xlink:href="#path-4"></use>
            </g>
        </g>
    </g>
</svg>