<?xml version="1.0" encoding="UTF-8" standalone="no"?>
<svg width="47px" height="47px" viewBox="0 0 47 47" version="1.1" xmlns="http://www.w3.org/2000/svg" xmlns:xlink="http://www.w3.org/1999/xlink">
    <!-- Generator: Sketch 3.7.1 (28215) - http://www.bohemiancoding.com/sketch -->
    <title>linkedin</title>
    <desc>Created with Sketch.</desc>
    <defs>
        <rect id="path-1" x="0" y="0" width="45" height="45" rx="6"></rect>
        <mask id="mask-2" maskContentUnits="userSpaceOnUse" maskUnits="objectBoundingBox" x="0" y="0" width="45" height="45" fill="white">
            <use xlink:href="#path-1"></use>
        </mask>
        <circle id="path-3" cx="11.8867925" cy="11.8867925" r="3.39622642"></circle>
        <rect id="path-4" x="8.49056604" y="20.3773585" width="6.79245283" height="17.8301887"></rect>
        <path d="M19.5283019,38.3399211 L24.9195214,38.3399211 L24.9195214,26.1848273 C24.9195214,26.1848273 26.0015293,23.7902224 28.505583,23.7902224 C31.0096366,23.7902224 32.2628845,26.1848273 32.2628845,26.1848273 L32.2628847,38.2406421 L38.3320772,38.2406421 C38.3320772,38.2406421 38.3320778,29.2365393 38.3320778,23.7902225 C38.3320778,18.3439058 28.9151865,16.6802026 24.598596,21.617417 C24.3410759,21.9119625 24.598596,19.0325206 24.598596,19.0325206 L19.5283019,19.0325206 L19.5283019,38.3399211 Z" id="path-5"></path>
    </defs>
    <g id="icons" stroke="none" stroke-width="1" fill="none" fill-rule="evenodd">
        <g id="linkedin" transform="translate(1.000000, 1.000000)" stroke="#545B61">
            <g id="Rectangle-45">
                <use mask="url(#mask-2)" stroke-width="4" xlink:href="#path-1"></use>
                <use stroke-width="1" xlink:href="#path-1"></use>
            </g>
            <g id="Oval-88">
                <use stroke-width="2" xlink:href="#path-3"></use>
                <use stroke-width="1" xlink:href="#path-3"></use>
            </g>
            <g id="Rectangle-46">
                <use stroke-width="2" xlink:href="#path-4"></use>
                <use stroke-width="1" xlink:href="#path-4"></use>
            </g>
            <g id="Path-806">
                <use stroke-width="2" xlink:href="#path-5"></use>
                <use stroke-width="1" xlink:href="#path-5"></use>
            </g>
        </g>
    </g>
</svg>