<?xml version="1.0" encoding="UTF-8" standalone="no"?>
<svg width="104px" height="129px" viewBox="0 0 104 129" version="1.1" xmlns="http://www.w3.org/2000/svg" xmlns:xlink="http://www.w3.org/1999/xlink">
    <!-- Generator: Sketch 3.7.1 (28215) - http://www.bohemiancoding.com/sketch -->
    <title>material_design</title>
    <desc>Created with Sketch.</desc>
    <defs></defs>
    <g id="icons" stroke="none" stroke-width="1" fill="none" fill-rule="evenodd">
        <g id="Artboard-1" transform="translate(-836.000000, -627.000000)">
            <g id="material_design" transform="translate(838.000000, 629.000000)">
                <g id="Group" transform="translate(22.000000, 22.000000)" fill="#FFFFFF">
                    <path d="M48.7721364,17.356934 L56.8386439,0.865126904 L55.2885606,0.0992436548 L47.4605606,16.1035127 C42.4193712,11.5795355 35.7741212,8.8248731 28.5,8.8248731 C21.30375,8.8248731 14.7231288,11.5206548 9.70194697,15.958698 L1.70683333,0.0901294416 L0.165818182,0.874385787 L8.38792424,17.1937462 C3.20927273,22.3829162 0,29.5565254 0,37.4695431 L0,46.7284264 C0,52.2177868 13.0514167,56.8553299 28.5,56.8553299 C43.9485833,56.8553299 57,52.2177868 57,46.7284264 L57,37.4695431 C57,29.6388426 53.8562197,22.5329391 48.7721364,17.356934 L48.7721364,17.356934 Z M28.5,10.5609137 C43.2625682,10.5609137 55.2727273,22.6320381 55.2727273,37.4695431 C55.2727273,39.2812462 52.3939394,41.4058706 47.7599545,43.0146015 C42.4732045,44.8497411 35.6332045,45.8604061 28.5,45.8604061 C21.3667955,45.8604061 14.5267955,44.8497411 9.24004545,43.0146015 C4.60606061,41.4058706 1.72727273,39.2812462 1.72727273,37.4695431 C1.72727273,22.6320381 13.7374318,10.5609137 28.5,10.5609137 L28.5,10.5609137 Z M47.7599545,52.2734848 C42.4732045,54.1086244 35.6332045,55.1192893 28.5,55.1192893 C21.3667955,55.1192893 14.5267955,54.1086244 9.24004545,52.2734848 C4.60606061,50.6647538 1.72727273,48.5401294 1.72727273,46.7284264 L1.72727273,40.8756548 C5.76318939,44.7490508 16.3951288,47.5964467 28.5,47.5964467 C40.6048712,47.5964467 51.2368106,44.7490508 55.2727273,40.8756548 L55.2727273,46.7284264 C55.2727273,48.5401294 52.3939394,50.6647538 47.7599545,52.2734848 L47.7599545,52.2734848 Z" id="Shape"></path>
                    <path d="M14.4995909,30.7371777 C15.1003939,30.7371777 15.5890682,30.2460228 15.5890682,29.6423147 C15.5890682,29.0386066 15.10025,28.5473071 14.4995909,28.5473071 C13.8989318,28.5473071 13.4102576,29.0386066 13.4102576,29.6423147 C13.4102576,30.2460228 13.8989318,30.7371777 14.4995909,30.7371777 L14.4995909,30.7371777 Z" id="Shape"></path>
                    <path d="M42.5004091,30.7371777 C43.1012121,30.7371777 43.5897424,30.2460228 43.5897424,29.6423147 C43.5897424,29.0386066 43.1010682,28.5473071 42.5004091,28.5473071 C41.89975,28.5473071 41.4109318,29.0386066 41.4109318,29.6423147 C41.4109318,30.2460228 41.8996061,30.7371777 42.5004091,30.7371777 L42.5004091,30.7371777 Z" id="Shape"></path>
                </g>
                <circle id="Oval-43-Copy-21" stroke="#FFFFFF" stroke-width="3" cx="50" cy="50" r="50"></circle>
                <text id="Material-Design" font-family="Lato-Light, Lato" font-size="14" font-weight="300" fill="#FFFFFF">
                    <tspan x="2" y="124">Material Design</tspan>
                </text>
            </g>
        </g>
    </g>
</svg>