<?xml version="1.0" encoding="UTF-8" standalone="no"?>
<svg width="50px" height="50px" viewBox="0 0 50 50" version="1.1" xmlns="http://www.w3.org/2000/svg" xmlns:xlink="http://www.w3.org/1999/xlink" xmlns:sketch="http://www.bohemiancoding.com/sketch/ns">
    <!-- Generator: Sketch 3.3.3 (12081) - http://www.bohemiancoding.com/sketch -->
    <title>phone</title>
    <desc>Created with Sketch.</desc>
    <defs></defs>
    <g id="icons" stroke="none" stroke-width="1" fill="none" fill-rule="evenodd" sketch:type="MSPage">
        <g id="phone" sketch:type="MSLayerGroup" fill="#545B61">
            <path d="M48.6607143,37.2321429 C47.7678571,36.5178571 43.3928571,33.5714286 40.4464286,31.6071429 C39.5535714,30.9821429 38.8392857,30.5357143 38.4821429,30.2678571 C37.9464286,29.9107143 37.4107143,29.7321429 36.9642857,29.7321429 C35.625,29.7321429 35,30.9821429 34.8214286,31.4285714 C33.4821429,33.9285714 32.1428571,35.3571429 31.5178571,35.3571429 L31.5178571,35.3571429 C30.4464286,34.7321429 25.7142857,30.0892857 22.7678571,27.1428571 C19.8214286,24.1964286 15.1785714,19.5535714 14.5535714,18.3928571 L14.5535714,18.2142857 C14.8214286,17.5 16.4285714,16.1607143 18.4821429,15.0892857 C19.375,14.6428571 19.9107143,14.0178571 20.0892857,13.3928571 C20.2678571,12.7678571 20.0892857,12.1428571 19.5535714,11.4285714 C19.375,11.1607143 18.8392857,10.4464286 18.3035714,9.55357143 C16.4285714,6.78571429 13.3928571,2.23214286 12.6785714,1.33928571 C12.2321429,0.803571429 11.6964286,0.178571429 10.8035714,0.178571429 C10.3571429,0.178571429 9.91071429,0.357142857 9.28571429,0.535714286 L9.01785714,0.625 C7.58928571,1.07142857 6.42857143,1.60714286 4.28571429,3.75 C1.25,6.78571429 -1.07142857,10.7142857 2.5,19.1071429 C5.71428571,26.6964286 14.1071429,35.0892857 14.4642857,35.4464286 C14.8214286,35.8035714 23.3035714,44.1964286 30.8035714,47.4107143 C33.6607143,48.6607143 36.0714286,49.1964286 38.2142857,49.1964286 C42.0535714,49.1964286 44.4642857,47.3214286 46.0714286,45.625 C48.2142857,43.4821429 48.75,42.3214286 49.1964286,40.8928571 L49.2857143,40.625 C49.9107143,39.375 50.2678571,38.4821429 48.6607143,37.2321429 L48.6607143,37.2321429 Z M48.125,40.1785714 L48.0357143,40.4464286 C47.6785714,41.5178571 47.3214286,42.5892857 45.2678571,44.6428571 C43.0357143,46.875 40.9821429,47.7678571 38.3928571,47.7678571 C36.4285714,47.7678571 34.1964286,47.2321429 31.5178571,46.0714286 C24.1964286,42.9464286 15.7142857,34.4642857 15.625,34.375 C15.5357143,34.2857143 7.05357143,25.8035714 3.92857143,18.4821429 C0.892857143,11.3392857 2.32142857,7.85714286 5.35714286,4.73214286 C7.41071429,2.67857143 8.48214286,2.32142857 9.55357143,1.96428571 L9.82142857,1.875 C10.2678571,1.69642857 10.625,1.60714286 10.8035714,1.60714286 C10.8928571,1.60714286 11.0714286,1.60714286 11.5178571,2.14285714 C12.2321429,3.03571429 15.2678571,7.58928571 17.0535714,10.2678571 C17.6785714,11.1607143 18.125,11.875 18.3035714,12.1428571 C18.4821429,12.4107143 18.6607143,12.6785714 18.5714286,12.9464286 C18.4821429,13.2142857 18.2142857,13.4821429 17.6785714,13.75 C16.4285714,14.375 13.5714286,16.0714286 13.0357143,17.7678571 C12.8571429,18.2142857 12.9464286,18.6607143 13.125,19.1071429 C14.0178571,20.7142857 20.8035714,27.4107143 21.6071429,28.125 C22.3214286,28.9285714 29.0178571,35.7142857 30.625,36.6071429 C30.8928571,36.6964286 31.1607143,36.7857143 31.4285714,36.7857143 C33.2142857,36.7857143 35,33.8392857 35.9821429,32.0535714 C36.5178571,31.0714286 36.875,30.9821429 37.5892857,31.4285714 C37.9464286,31.6071429 38.6607143,32.1428571 39.5535714,32.7678571 C42.2321429,34.5535714 46.7857143,37.5892857 47.6785714,38.3035714 C48.4821429,38.9285714 48.4821429,39.0178571 48.125,40.1785714 L48.125,40.1785714 Z" id="Shape" sketch:type="MSShapeGroup"></path>
        </g>
    </g>
</svg>