<?xml version="1.0" encoding="UTF-8" standalone="no"?>
<svg width="104px" height="129px" viewBox="0 0 104 129" version="1.1" xmlns="http://www.w3.org/2000/svg" xmlns:xlink="http://www.w3.org/1999/xlink">
    <!-- Generator: Sketch 3.7.1 (28215) - http://www.bohemiancoding.com/sketch -->
    <title>processing</title>
    <desc>Created with Sketch.</desc>
    <defs></defs>
    <g id="icons" stroke="none" stroke-width="1" fill="none" fill-rule="evenodd">
        <g id="Artboard-1" transform="translate(-299.000000, -627.000000)">
            <g id="processing" transform="translate(301.000000, 629.000000)">
                <g id="drawing-icon" transform="translate(11.000000, 11.000000)" fill="#FFFFFF">
                    <path d="M75.2266667,41.86 L78,39 L75.2266667,36.14 L77.48,32.9333333 L74.2733333,30.5066667 L76.0066667,26.9533333 L72.54,25.1333333 L73.6666667,21.32 L69.94,20.02 L70.46,16.12 L66.56,15.4266667 L66.4733333,11.44 L62.4866667,11.3533333 L61.7933333,7.45333333 L57.8933333,7.97333333 L56.5933333,4.24666667 L52.78,5.37333333 L50.96,1.90666667 L47.4066667,3.64 L45.0666667,0.52 L41.86,2.77333333 L39,0 L36.14,2.77333333 L32.9333333,0.52 L30.5066667,3.72666667 L26.9533333,1.99333333 L25.1333333,5.46 L21.32,4.33333333 L20.02,8.06 L16.12,7.54 L15.4266667,11.44 L11.44,11.5266667 L11.3533333,15.5133333 L7.45333333,16.2066667 L7.97333333,20.1066667 L4.24666667,21.4066667 L5.37333333,25.22 L1.90666667,27.04 L3.64,30.5933333 L0.52,32.9333333 L2.77333333,36.14 L0,39 L2.77333333,41.86 L0.52,45.0666667 L3.72666667,47.4933333 L1.99333333,51.0466667 L5.46,52.8666667 L4.33333333,56.68 L8.06,57.98 L7.54,61.88 L11.44,62.5733333 L11.5266667,66.56 L15.5133333,66.6466667 L16.2066667,70.5466667 L20.1066667,70.0266667 L21.4066667,73.7533333 L25.22,72.6266667 L27.04,76.0933333 L30.5933333,74.36 L33.02,77.5666667 L36.2266667,75.3133333 L39,78 L41.86,75.2266667 L45.0666667,77.48 L47.4933333,74.2733333 L51.0466667,76.0066667 L52.8666667,72.54 L56.68,73.6666667 L57.98,69.94 L61.88,70.46 L62.5733333,66.56 L66.56,66.4733333 L66.6466667,62.4866667 L70.5466667,61.7933333 L70.0266667,57.8933333 L73.7533333,56.5933333 L72.6266667,52.78 L76.0933333,50.96 L74.36,47.4066667 L77.5666667,44.98 L75.2266667,41.86 L75.2266667,41.86 Z M76.7866667,39 L74.7066667,41.1666667 L73.2333333,39 L74.7066667,36.8333333 L76.7866667,39 L76.7866667,39 Z M65.8666667,55.4666667 L63.44,56.7666667 L63.0066667,59.4533333 L60.4066667,60.32 L59.54,62.92 L56.8533333,63.3533333 L55.4666667,65.8666667 L52.6933333,65.9533333 L51.0466667,68.12 L48.36,67.7733333 L46.3666667,69.68 L43.7666667,68.9 L41.5133333,70.46 L39,69.2466667 L36.4866667,70.46 L34.2333333,68.9 L31.6333333,69.68 L29.64,67.7733333 L26.9533333,68.12 L25.3066667,65.9533333 L22.5333333,65.8666667 L21.2333333,63.44 L18.5466667,63.0066667 L17.68,60.4066667 L15.08,59.54 L14.6466667,56.8533333 L12.1333333,55.4666667 L12.0466667,52.6933333 L9.88,51.0466667 L10.2266667,48.36 L8.32,46.3666667 L9.1,43.7666667 L7.54,41.5133333 L8.75333333,39 L7.54,36.4866667 L9.1,34.2333333 L8.32,31.6333333 L10.2266667,29.64 L9.88,26.9533333 L12.0466667,25.3066667 L12.1333333,22.5333333 L14.56,21.2333333 L14.9933333,18.5466667 L17.5933333,17.68 L18.46,15.08 L21.1466667,14.6466667 L22.5333333,12.1333333 L25.3066667,12.0466667 L26.9533333,9.88 L29.64,10.2266667 L31.6333333,8.32 L34.2333333,9.1 L36.4866667,7.54 L39,8.75333333 L41.5133333,7.54 L43.7666667,9.1 L46.3666667,8.32 L48.36,10.2266667 L51.0466667,9.88 L52.6933333,12.0466667 L55.4666667,12.1333333 L56.7666667,14.56 L59.4533333,14.9933333 L60.32,17.5933333 L62.92,18.46 L63.3533333,21.1466667 L65.8666667,22.5333333 L65.9533333,25.3066667 L68.12,26.9533333 L67.7733333,29.64 L69.68,31.6333333 L68.9,34.2333333 L70.46,36.4866667 L69.2466667,39 L70.46,41.5133333 L68.9,43.7666667 L69.68,46.3666667 L67.7733333,48.36 L68.12,51.0466667 L65.9533333,52.6933333 L65.8666667,55.4666667 L65.8666667,55.4666667 Z M70.2,39 L70.98,37.3533333 L72.1933333,39 L70.98,40.6466667 L70.2,39 L70.2,39 Z M71.4133333,36.4866667 L72.3666667,34.4933333 L74.1,36.2266667 L72.7133333,38.22 L71.4133333,36.4866667 L71.4133333,36.4866667 Z M70.8933333,35.62 L69.8533333,34.06 L70.3733333,32.24 L71.76,33.7133333 L70.8933333,35.62 L70.8933333,35.62 Z M70.6333333,31.3733333 L71.24,29.2933333 L73.2333333,30.7666667 L72.1066667,33.02 L70.6333333,31.3733333 L70.6333333,31.3733333 Z M69.94,30.68 L68.64,29.38 L68.9,27.56 L70.5466667,28.7733333 L69.94,30.68 L69.94,30.68 Z M69.0733333,26.52 L69.42,24.3533333 L71.5866667,25.48 L70.8933333,27.82 L69.0733333,26.52 L69.0733333,26.52 Z M68.2933333,26 L66.82,24.8733333 L66.82,22.9666667 L68.64,23.92 L68.2933333,26 L68.2933333,26 Z M66.7333333,22.0133333 L66.7333333,19.76 L69.0733333,20.54 L68.7266667,22.9666667 L66.7333333,22.0133333 L66.7333333,22.0133333 Z M65.8666667,21.4933333 L64.22,20.6266667 L63.8733333,18.8066667 L65.78,19.5 L65.8666667,21.4933333 L65.8666667,21.4933333 Z M63.7866667,17.8533333 L63.44,15.6866667 L65.8666667,16.12 L65.8666667,18.5466667 L63.7866667,17.8533333 L63.7866667,17.8533333 Z M62.8333333,17.5066667 L61.1,16.9 L60.4933333,15.1666667 L62.4866667,15.5133333 L62.8333333,17.5066667 L62.8333333,17.5066667 Z M60.1466667,14.2133333 L59.4533333,12.1333333 L61.88,12.1333333 L62.3133333,14.56 L60.1466667,14.2133333 L60.1466667,14.2133333 Z M59.1933333,14.04 L57.3733333,13.6933333 L56.5066667,12.0466667 L58.5866667,12.0466667 L59.1933333,14.04 L59.1933333,14.04 Z M55.9866667,11.2666667 L54.9466667,9.27333333 L57.3733333,8.92666667 L58.1533333,11.2666667 L55.9866667,11.2666667 L55.9866667,11.2666667 Z M55.0333333,11.2666667 L53.1266667,11.2666667 L52,9.70666667 L53.9933333,9.44666667 L55.0333333,11.2666667 L55.0333333,11.2666667 Z M51.48,8.92666667 L50.18,7.19333333 L52.52,6.5 L53.6466667,8.66666667 L51.48,8.92666667 L51.48,8.92666667 Z M50.5266667,9.1 L48.7066667,9.36 L47.4066667,8.06 L49.4,7.45333333 L50.5266667,9.1 L50.5266667,9.1 Z M46.6266667,7.36666667 L45.0666667,5.80666667 L47.32,4.68 L48.7933333,6.67333333 L46.6266667,7.36666667 L46.6266667,7.36666667 Z M45.6733333,7.62666667 L43.8533333,8.14666667 L42.2933333,7.10666667 L44.1133333,6.24 L45.6733333,7.62666667 L45.6733333,7.62666667 Z M41.5133333,6.58666667 L39.6933333,5.28666667 L41.6866667,3.9 L43.42,5.63333333 L41.5133333,6.58666667 L41.5133333,6.58666667 Z M40.6466667,7.02 L39,7.8 L37.3533333,7.02 L39,5.80666667 L40.6466667,7.02 L40.6466667,7.02 Z M36.4866667,6.58666667 L34.4933333,5.63333333 L36.2266667,3.9 L38.22,5.28666667 L36.4866667,6.58666667 L36.4866667,6.58666667 Z M35.62,7.10666667 L34.06,8.14666667 L32.24,7.62666667 L33.7133333,6.24 L35.62,7.10666667 L35.62,7.10666667 Z M31.3733333,7.36666667 L29.2933333,6.76 L30.7666667,4.76666667 L33.02,5.89333333 L31.3733333,7.36666667 L31.3733333,7.36666667 Z M30.68,8.06 L29.38,9.36 L27.56,9.1 L28.7733333,7.45333333 L30.68,8.06 L30.68,8.06 Z M26.52,8.92666667 L24.3533333,8.58 L25.48,6.41333333 L27.82,7.10666667 L26.52,8.92666667 L26.52,8.92666667 Z M26,9.70666667 L24.8733333,11.18 L22.9666667,11.18 L23.92,9.36 L26,9.70666667 L26,9.70666667 Z M22.0133333,11.2666667 L19.76,11.2666667 L20.54,8.92666667 L22.9666667,9.27333333 L22.0133333,11.2666667 L22.0133333,11.2666667 Z M21.4933333,12.1333333 L20.6266667,13.78 L18.8066667,14.1266667 L19.5,12.22 L21.4933333,12.1333333 L21.4933333,12.1333333 Z M17.8533333,14.2133333 L15.6866667,14.56 L16.12,12.1333333 L18.5466667,12.1333333 L17.8533333,14.2133333 L17.8533333,14.2133333 Z M17.5066667,15.1666667 L16.9,16.9 L15.1666667,17.5066667 L15.5133333,15.5133333 L17.5066667,15.1666667 L17.5066667,15.1666667 Z M14.2133333,17.8533333 L12.1333333,18.5466667 L12.1333333,16.12 L14.56,15.6866667 L14.2133333,17.8533333 L14.2133333,17.8533333 Z M14.04,18.8066667 L13.6933333,20.6266667 L12.0466667,21.4933333 L12.0466667,19.4133333 L14.04,18.8066667 L14.04,18.8066667 Z M11.2666667,22.0133333 L9.27333333,23.0533333 L8.92666667,20.6266667 L11.2666667,19.8466667 L11.2666667,22.0133333 L11.2666667,22.0133333 Z M11.2666667,22.9666667 L11.2666667,24.8733333 L9.70666667,26 L9.44666667,24.0066667 L11.2666667,22.9666667 L11.2666667,22.9666667 Z M8.92666667,26.52 L7.19333333,27.82 L6.5,25.48 L8.66666667,24.3533333 L8.92666667,26.52 L8.92666667,26.52 Z M9.1,27.4733333 L9.36,29.2933333 L8.06,30.5933333 L7.45333333,28.6 L9.1,27.4733333 L9.1,27.4733333 Z M7.36666667,31.3733333 L5.80666667,32.9333333 L4.68,30.68 L6.67333333,29.2066667 L7.36666667,31.3733333 L7.36666667,31.3733333 Z M7.62666667,32.3266667 L8.14666667,34.1466667 L7.10666667,35.7066667 L6.24,33.8866667 L7.62666667,32.3266667 L7.62666667,32.3266667 Z M6.58666667,36.4866667 L5.28666667,38.3066667 L3.9,36.3133333 L5.63333333,34.58 L6.58666667,36.4866667 L6.58666667,36.4866667 Z M7.02,37.3533333 L7.8,39 L7.02,40.6466667 L5.80666667,39 L7.02,37.3533333 L7.02,37.3533333 Z M6.58666667,41.5133333 L5.63333333,43.5066667 L3.9,41.7733333 L5.28666667,39.78 L6.58666667,41.5133333 L6.58666667,41.5133333 Z M7.10666667,42.38 L8.14666667,43.94 L7.62666667,45.76 L6.24,44.2 L7.10666667,42.38 L7.10666667,42.38 Z M7.36666667,46.6266667 L6.76,48.7066667 L4.76666667,47.2333333 L5.89333333,44.98 L7.36666667,46.6266667 L7.36666667,46.6266667 Z M8.06,47.32 L9.36,48.62 L9.1,50.44 L7.45333333,49.2266667 L8.06,47.32 L8.06,47.32 Z M8.92666667,51.48 L8.58,53.6466667 L6.41333333,52.52 L7.10666667,50.18 L8.92666667,51.48 L8.92666667,51.48 Z M9.70666667,52 L11.18,53.1266667 L11.18,55.0333333 L9.36,54.08 L9.70666667,52 L9.70666667,52 Z M11.2666667,55.9866667 L11.2666667,58.24 L8.92666667,57.46 L9.27333333,55.0333333 L11.2666667,55.9866667 L11.2666667,55.9866667 Z M12.1333333,56.5066667 L13.78,57.3733333 L14.1266667,59.1933333 L12.1333333,58.5 L12.1333333,56.5066667 L12.1333333,56.5066667 Z M14.2133333,60.1466667 L14.56,62.3133333 L12.1333333,61.88 L12.1333333,59.4533333 L14.2133333,60.1466667 L14.2133333,60.1466667 Z M15.1666667,60.4933333 L16.9,61.1 L17.5066667,62.8333333 L15.5133333,62.4866667 L15.1666667,60.4933333 L15.1666667,60.4933333 Z M17.8533333,63.7866667 L18.5466667,65.8666667 L16.12,65.8666667 L15.6866667,63.44 L17.8533333,63.7866667 L17.8533333,63.7866667 Z M18.8066667,63.96 L20.6266667,64.3066667 L21.4933333,65.9533333 L19.4133333,65.9533333 L18.8066667,63.96 L18.8066667,63.96 Z M22.0133333,66.7333333 L23.0533333,68.7266667 L20.6266667,69.0733333 L19.76,66.7333333 L22.0133333,66.7333333 L22.0133333,66.7333333 Z M22.9666667,66.7333333 L24.8733333,66.7333333 L26,68.2066667 L24.0066667,68.4666667 L22.9666667,66.7333333 L22.9666667,66.7333333 Z M26.52,69.0733333 L27.82,70.8066667 L25.48,71.5 L24.3533333,69.3333333 L26.52,69.0733333 L26.52,69.0733333 Z M27.4733333,68.9 L29.2933333,68.64 L30.5933333,69.94 L28.6,70.5466667 L27.4733333,68.9 L27.4733333,68.9 Z M31.3733333,70.6333333 L32.9333333,72.1933333 L30.68,73.32 L29.2066667,71.3266667 L31.3733333,70.6333333 L31.3733333,70.6333333 Z M32.3266667,70.3733333 L34.1466667,69.8533333 L35.7066667,70.8933333 L33.8866667,71.76 L32.3266667,70.3733333 L32.3266667,70.3733333 Z M36.4866667,71.4133333 L38.3066667,72.7133333 L36.3133333,74.1 L34.58,72.3666667 L36.4866667,71.4133333 L36.4866667,71.4133333 Z M37.3533333,70.98 L39,70.2 L40.6466667,70.98 L39,72.1933333 L37.3533333,70.98 L37.3533333,70.98 Z M41.5133333,71.4133333 L43.5066667,72.3666667 L41.7733333,74.1 L39.78,72.7133333 L41.5133333,71.4133333 L41.5133333,71.4133333 Z M42.38,70.8933333 L43.94,69.8533333 L45.76,70.3733333 L44.2,71.76 L42.38,70.8933333 L42.38,70.8933333 Z M46.6266667,70.6333333 L48.7066667,71.24 L47.2333333,73.2333333 L44.98,72.1066667 L46.6266667,70.6333333 L46.6266667,70.6333333 Z M47.32,69.94 L48.62,68.64 L50.44,68.9 L49.2266667,70.5466667 L47.32,69.94 L47.32,69.94 Z M51.48,69.0733333 L53.6466667,69.42 L52.52,71.5866667 L50.18,70.8933333 L51.48,69.0733333 L51.48,69.0733333 Z M52,68.2933333 L53.1266667,66.82 L55.0333333,66.82 L54.08,68.64 L52,68.2933333 L52,68.2933333 Z M55.9866667,66.7333333 L58.24,66.7333333 L57.46,69.0733333 L55.0333333,68.7266667 L55.9866667,66.7333333 L55.9866667,66.7333333 Z M56.5066667,65.8666667 L57.3733333,64.22 L59.1933333,63.8733333 L58.5,65.8666667 L56.5066667,65.8666667 L56.5066667,65.8666667 Z M60.1466667,63.7866667 L62.3133333,63.44 L61.88,65.8666667 L59.4533333,65.8666667 L60.1466667,63.7866667 L60.1466667,63.7866667 Z M60.4933333,62.8333333 L61.1,61.1 L62.8333333,60.4933333 L62.4866667,62.4866667 L60.4933333,62.8333333 L60.4933333,62.8333333 Z M63.7866667,60.1466667 L65.8666667,59.4533333 L65.8666667,61.88 L63.44,62.3133333 L63.7866667,60.1466667 L63.7866667,60.1466667 Z M63.96,59.1933333 L64.3066667,57.3733333 L65.9533333,56.5066667 L65.9533333,58.5866667 L63.96,59.1933333 L63.96,59.1933333 Z M66.7333333,55.9866667 L68.7266667,54.9466667 L69.0733333,57.3733333 L66.7333333,58.24 L66.7333333,55.9866667 L66.7333333,55.9866667 Z M66.7333333,55.0333333 L66.7333333,53.1266667 L68.2066667,52 L68.4666667,53.9933333 L66.7333333,55.0333333 L66.7333333,55.0333333 Z M69.0733333,51.48 L70.8066667,50.18 L71.5,52.52 L69.3333333,53.6466667 L69.0733333,51.48 L69.0733333,51.48 Z M68.9,50.5266667 L68.64,48.7066667 L69.94,47.4066667 L70.5466667,49.4 L68.9,50.5266667 L68.9,50.5266667 Z M70.6333333,46.6266667 L72.1933333,45.0666667 L73.32,47.32 L71.3266667,48.7933333 L70.6333333,46.6266667 L70.6333333,46.6266667 Z M70.3733333,45.6733333 L69.8533333,43.8533333 L70.8933333,42.2933333 L71.76,44.1133333 L70.3733333,45.6733333 L70.3733333,45.6733333 Z M71.4133333,41.5133333 L72.7133333,39.6933333 L74.1,41.6866667 L72.3666667,43.42 L71.4133333,41.5133333 L71.4133333,41.5133333 Z M76.3533333,33.1066667 L74.62,35.5333333 L72.8,33.6266667 L73.9266667,31.2866667 L76.3533333,33.1066667 L76.3533333,33.1066667 Z M74.9666667,27.3 L73.6666667,29.9866667 L71.5866667,28.4266667 L72.3666667,25.9133333 L74.9666667,27.3 L74.9666667,27.3 Z M72.7133333,21.84 L71.8466667,24.7 L69.5066667,23.4866667 L69.8533333,20.8866667 L72.7133333,21.84 L72.7133333,21.84 Z M69.5933333,16.8133333 L69.16,19.76 L66.6466667,18.8933333 L66.56,16.2933333 L69.5933333,16.8133333 L69.5933333,16.8133333 Z M65.78,12.22 L65.8666667,15.1666667 L63.2666667,14.7333333 L62.8333333,12.1333333 L65.78,12.22 L65.78,12.22 Z M61.1866667,8.40666667 L61.7066667,11.3533333 L59.1066667,11.2666667 L58.24,8.75333333 L61.1866667,8.40666667 L61.1866667,8.40666667 Z M56.16,5.28666667 L57.1133333,8.14666667 L54.5133333,8.49333333 L53.3,6.15333333 L56.16,5.28666667 L56.16,5.28666667 Z M50.7,3.03333333 L52.0866667,5.63333333 L49.5733333,6.41333333 L48.0133333,4.33333333 L50.7,3.03333333 L50.7,3.03333333 Z M44.8933333,1.64666667 L46.7133333,3.98666667 L44.3733333,5.2 L42.4666667,3.38 L44.8933333,1.64666667 L44.8933333,1.64666667 Z M39,1.21333333 L41.1666667,3.29333333 L39,4.76666667 L36.8333333,3.29333333 L39,1.21333333 L39,1.21333333 Z M33.1066667,1.64666667 L35.5333333,3.38 L33.6266667,5.2 L31.2866667,4.07333333 L33.1066667,1.64666667 L33.1066667,1.64666667 Z M27.3,3.03333333 L29.9866667,4.33333333 L28.4266667,6.41333333 L25.9133333,5.63333333 L27.3,3.03333333 L27.3,3.03333333 Z M21.84,5.28666667 L24.7,6.15333333 L23.4866667,8.49333333 L20.8866667,8.14666667 L21.84,5.28666667 L21.84,5.28666667 Z M16.8133333,8.40666667 L19.76,8.84 L18.8933333,11.3533333 L16.2933333,11.44 L16.8133333,8.40666667 L16.8133333,8.40666667 Z M12.22,12.22 L15.1666667,12.1333333 L14.7333333,14.7333333 L12.1333333,15.1666667 L12.22,12.22 L12.22,12.22 Z M8.40666667,16.8133333 L11.3533333,16.2933333 L11.2666667,18.8933333 L8.75333333,19.76 L8.40666667,16.8133333 L8.40666667,16.8133333 Z M5.28666667,21.84 L8.14666667,20.8866667 L8.49333333,23.4866667 L6.15333333,24.7 L5.28666667,21.84 L5.28666667,21.84 Z M3.03333333,27.3 L5.63333333,25.9133333 L6.41333333,28.4266667 L4.33333333,29.9866667 L3.03333333,27.3 L3.03333333,27.3 Z M1.64666667,33.1066667 L3.98666667,31.2866667 L5.11333333,33.6266667 L3.38,35.5333333 L1.64666667,33.1066667 L1.64666667,33.1066667 Z M1.21333333,39 L3.29333333,36.8333333 L4.76666667,39 L3.29333333,41.1666667 L1.21333333,39 L1.21333333,39 Z M1.64666667,44.8933333 L3.38,42.4666667 L5.2,44.3733333 L4.07333333,46.7133333 L1.64666667,44.8933333 L1.64666667,44.8933333 Z M3.03333333,50.7 L4.33333333,48.0133333 L6.41333333,49.5733333 L5.63333333,52.0866667 L3.03333333,50.7 L3.03333333,50.7 Z M5.28666667,56.16 L6.15333333,53.3 L8.49333333,54.5133333 L8.14666667,57.1133333 L5.28666667,56.16 L5.28666667,56.16 Z M8.40666667,61.1866667 L8.84,58.24 L11.3533333,59.1066667 L11.44,61.7066667 L8.40666667,61.1866667 L8.40666667,61.1866667 Z M12.22,65.78 L12.1333333,62.8333333 L14.7333333,63.2666667 L15.1666667,65.8666667 L12.22,65.78 L12.22,65.78 Z M16.8133333,69.5933333 L16.2933333,66.6466667 L18.8933333,66.7333333 L19.76,69.2466667 L16.8133333,69.5933333 L16.8133333,69.5933333 Z M21.84,72.7133333 L20.8866667,69.8533333 L23.4866667,69.5066667 L24.7,71.8466667 L21.84,72.7133333 L21.84,72.7133333 Z M27.3,74.9666667 L25.9133333,72.3666667 L28.4266667,71.5866667 L29.9866667,73.6666667 L27.3,74.9666667 L27.3,74.9666667 Z M33.1066667,76.3533333 L31.2866667,74.0133333 L33.6266667,72.8866667 L35.5333333,74.7066667 L33.1066667,76.3533333 L33.1066667,76.3533333 Z M39,76.7866667 L36.8333333,74.7066667 L39,73.2333333 L41.1666667,74.7066667 L39,76.7866667 L39,76.7866667 Z M44.8933333,76.3533333 L42.4666667,74.62 L44.3733333,72.8 L46.7133333,73.9266667 L44.8933333,76.3533333 L44.8933333,76.3533333 Z M50.7,74.9666667 L48.0133333,73.6666667 L49.5733333,71.5866667 L52.0866667,72.3666667 L50.7,74.9666667 L50.7,74.9666667 Z M56.16,72.7133333 L53.3,71.8466667 L54.5133333,69.5066667 L57.1133333,69.8533333 L56.16,72.7133333 L56.16,72.7133333 Z M61.1866667,69.5933333 L58.24,69.16 L59.1066667,66.6466667 L61.7066667,66.56 L61.1866667,69.5933333 L61.1866667,69.5933333 Z M65.78,65.78 L62.8333333,65.8666667 L63.2666667,63.2666667 L65.8666667,62.8333333 L65.78,65.78 L65.78,65.78 Z M69.5933333,61.1866667 L66.6466667,61.7066667 L66.7333333,59.1066667 L69.2466667,58.24 L69.5933333,61.1866667 L69.5933333,61.1866667 Z M72.7133333,56.16 L69.8533333,57.1133333 L69.5066667,54.5133333 L71.8466667,53.3 L72.7133333,56.16 L72.7133333,56.16 Z M74.9666667,50.7 L72.3666667,52.0866667 L71.5866667,49.5733333 L73.6666667,48.0133333 L74.9666667,50.7 L74.9666667,50.7 Z M72.8,44.3733333 L74.62,42.4666667 L76.3533333,44.8933333 L74.0133333,46.7133333 L72.8,44.3733333 L72.8,44.3733333 Z" id="Shape"></path>
                    <path d="M64.08,40.98 L66,39 L64.08,37.02 L65.64,34.8 L63.42,33.12 L64.62,30.66 L62.22,29.4 L63,26.76 L60.42,25.86 L60.78,23.16 L58.08,22.68 L58.02,19.92 L55.26,19.86 L54.78,17.16 L52.08,17.52 L51.18,14.94 L48.54,15.72 L47.28,13.32 L44.82,14.52 L43.2,12.36 L40.98,13.92 L39,12 L37.02,13.92 L34.8,12.36 L33.12,14.58 L30.66,13.38 L29.4,15.78 L26.76,15 L25.86,17.58 L23.16,17.22 L22.68,19.92 L19.92,19.98 L19.86,22.74 L17.16,23.22 L17.52,25.92 L14.94,26.82 L15.72,29.46 L13.32,30.72 L14.52,33.18 L12.36,34.8 L13.92,37.02 L12,39 L13.92,40.98 L12.36,43.2 L14.58,44.88 L13.38,47.34 L15.78,48.6 L15,51.24 L17.58,52.14 L17.22,54.84 L19.92,55.32 L19.98,58.08 L22.74,58.14 L23.22,60.84 L25.92,60.48 L26.82,63.06 L29.46,62.28 L30.72,64.68 L33.18,63.48 L34.86,65.7 L37.08,64.14 L39,66 L40.98,64.08 L43.2,65.64 L44.88,63.42 L47.34,64.62 L48.6,62.22 L51.24,63 L52.14,60.42 L54.84,60.78 L55.32,58.08 L58.08,58.02 L58.14,55.26 L60.84,54.78 L60.48,52.08 L63.06,51.18 L62.28,48.54 L64.68,47.28 L63.48,44.82 L65.7,43.14 L64.08,40.98 L64.08,40.98 Z M65.16,39 L63.72,40.5 L62.7,39 L63.72,37.5 L65.16,39 L65.16,39 Z M57.6,50.4 L55.92,51.3 L55.62,53.16 L53.82,53.76 L53.22,55.56 L51.36,55.86 L50.4,57.6 L48.48,57.66 L47.34,59.16 L45.48,58.92 L44.1,60.24 L42.3,59.7 L40.74,60.78 L39,59.94 L37.26,60.78 L35.7,59.7 L33.9,60.24 L32.52,58.92 L30.66,59.16 L29.52,57.66 L27.6,57.6 L26.7,55.92 L24.84,55.62 L24.24,53.82 L22.44,53.22 L22.14,51.36 L20.4,50.4 L20.34,48.48 L18.84,47.34 L19.08,45.48 L17.76,44.1 L18.3,42.3 L17.22,40.74 L18.06,39 L17.22,37.26 L18.3,35.7 L17.76,33.9 L19.08,32.52 L18.84,30.66 L20.34,29.52 L20.4,27.6 L22.08,26.7 L22.38,24.84 L24.18,24.24 L24.78,22.44 L26.64,22.14 L27.6,20.4 L29.52,20.34 L30.66,18.84 L32.52,19.08 L33.9,17.76 L35.7,18.3 L37.26,17.22 L39,18.06 L40.74,17.22 L42.3,18.3 L44.1,17.76 L45.48,19.08 L47.34,18.84 L48.48,20.34 L50.4,20.4 L51.3,22.08 L53.16,22.38 L53.76,24.18 L55.56,24.78 L55.86,26.64 L57.6,27.6 L57.66,29.52 L59.16,30.66 L58.92,32.52 L60.24,33.9 L59.7,35.7 L60.78,37.26 L59.94,39 L60.78,40.74 L59.7,42.3 L60.24,44.1 L58.92,45.48 L59.16,47.34 L57.66,48.48 L57.6,50.4 L57.6,50.4 Z M60.6,39 L61.14,37.86 L61.98,39 L61.14,40.14 L60.6,39 L60.6,39 Z M61.44,37.26 L62.1,35.88 L63.3,37.08 L62.34,38.46 L61.44,37.26 L61.44,37.26 Z M61.08,36.66 L60.36,35.58 L60.72,34.32 L61.68,35.34 L61.08,36.66 L61.08,36.66 Z M60.9,33.72 L61.32,32.28 L62.7,33.3 L61.92,34.86 L60.9,33.72 L60.9,33.72 Z M60.42,33.24 L59.52,32.34 L59.7,31.08 L60.84,31.92 L60.42,33.24 L60.42,33.24 Z M59.82,30.36 L60.06,28.86 L61.56,29.64 L61.08,31.26 L59.82,30.36 L59.82,30.36 Z M59.28,30 L58.26,29.22 L58.26,27.9 L59.52,28.56 L59.28,30 L59.28,30 Z M58.2,27.24 L58.2,25.68 L59.82,26.22 L59.58,27.9 L58.2,27.24 L58.2,27.24 Z M57.6,26.88 L56.46,26.28 L56.22,25.02 L57.54,25.5 L57.6,26.88 L57.6,26.88 Z M56.16,24.36 L55.92,22.86 L57.6,23.16 L57.6,24.84 L56.16,24.36 L56.16,24.36 Z M55.5,24.12 L54.3,23.7 L53.88,22.5 L55.26,22.74 L55.5,24.12 L55.5,24.12 Z M53.64,21.84 L53.16,20.4 L54.84,20.4 L55.14,22.08 L53.64,21.84 L53.64,21.84 Z M52.98,21.72 L51.72,21.48 L51.12,20.34 L52.56,20.34 L52.98,21.72 L52.98,21.72 Z M50.76,19.8 L50.04,18.42 L51.72,18.18 L52.26,19.8 L50.76,19.8 L50.76,19.8 Z M50.1,19.8 L48.78,19.8 L48,18.72 L49.38,18.54 L50.1,19.8 L50.1,19.8 Z M47.64,18.18 L46.74,16.98 L48.36,16.5 L49.14,18 L47.64,18.18 L47.64,18.18 Z M46.98,18.3 L45.72,18.48 L44.82,17.58 L46.2,17.16 L46.98,18.3 L46.98,18.3 Z M44.28,17.1 L43.2,16.02 L44.76,15.24 L45.78,16.62 L44.28,17.1 L44.28,17.1 Z M43.62,17.28 L42.36,17.64 L41.28,16.92 L42.54,16.32 L43.62,17.28 L43.62,17.28 Z M40.74,16.56 L39.48,15.66 L40.86,14.7 L42.06,15.9 L40.74,16.56 L40.74,16.56 Z M40.14,16.86 L39,17.4 L37.86,16.86 L39,16.02 L40.14,16.86 L40.14,16.86 Z M37.26,16.56 L35.88,15.9 L37.08,14.7 L38.46,15.66 L37.26,16.56 L37.26,16.56 Z M36.66,16.92 L35.58,17.64 L34.32,17.28 L35.34,16.32 L36.66,16.92 L36.66,16.92 Z M33.72,17.1 L32.28,16.68 L33.3,15.3 L34.86,16.08 L33.72,17.1 L33.72,17.1 Z M33.24,17.58 L32.34,18.48 L31.08,18.3 L31.92,17.16 L33.24,17.58 L33.24,17.58 Z M30.36,18.18 L28.86,17.94 L29.64,16.44 L31.26,16.92 L30.36,18.18 L30.36,18.18 Z M30,18.72 L29.22,19.74 L27.9,19.74 L28.56,18.48 L30,18.72 L30,18.72 Z M27.24,19.8 L25.68,19.8 L26.22,18.18 L27.9,18.42 L27.24,19.8 L27.24,19.8 Z M26.88,20.4 L26.28,21.54 L25.02,21.78 L25.5,20.46 L26.88,20.4 L26.88,20.4 Z M24.36,21.84 L22.86,22.08 L23.16,20.4 L24.84,20.4 L24.36,21.84 L24.36,21.84 Z M24.12,22.5 L23.7,23.7 L22.5,24.12 L22.74,22.74 L24.12,22.5 L24.12,22.5 Z M21.84,24.36 L20.4,24.84 L20.4,23.16 L22.08,22.86 L21.84,24.36 L21.84,24.36 Z M21.72,25.02 L21.48,26.28 L20.34,26.88 L20.34,25.44 L21.72,25.02 L21.72,25.02 Z M19.8,27.24 L18.42,27.96 L18.18,26.28 L19.8,25.74 L19.8,27.24 L19.8,27.24 Z M19.8,27.9 L19.8,29.22 L18.72,30 L18.54,28.62 L19.8,27.9 L19.8,27.9 Z M18.18,30.36 L16.98,31.26 L16.5,29.64 L18,28.86 L18.18,30.36 L18.18,30.36 Z M18.3,31.02 L18.48,32.28 L17.58,33.18 L17.16,31.8 L18.3,31.02 L18.3,31.02 Z M17.1,33.72 L16.02,34.8 L15.24,33.24 L16.62,32.22 L17.1,33.72 L17.1,33.72 Z M17.28,34.38 L17.64,35.64 L16.92,36.72 L16.32,35.46 L17.28,34.38 L17.28,34.38 Z M16.56,37.26 L15.66,38.52 L14.7,37.14 L15.9,35.94 L16.56,37.26 L16.56,37.26 Z M16.86,37.86 L17.4,39 L16.86,40.14 L16.02,39 L16.86,37.86 L16.86,37.86 Z M16.56,40.74 L15.9,42.12 L14.7,40.92 L15.66,39.54 L16.56,40.74 L16.56,40.74 Z M16.92,41.34 L17.64,42.42 L17.28,43.68 L16.32,42.6 L16.92,41.34 L16.92,41.34 Z M17.1,44.28 L16.68,45.72 L15.3,44.7 L16.08,43.14 L17.1,44.28 L17.1,44.28 Z M17.58,44.76 L18.48,45.66 L18.3,46.92 L17.16,46.08 L17.58,44.76 L17.58,44.76 Z M18.18,47.64 L17.94,49.14 L16.44,48.36 L16.92,46.74 L18.18,47.64 L18.18,47.64 Z M18.72,48 L19.74,48.78 L19.74,50.1 L18.48,49.44 L18.72,48 L18.72,48 Z M19.8,50.76 L19.8,52.32 L18.18,51.78 L18.42,50.1 L19.8,50.76 L19.8,50.76 Z M20.4,51.12 L21.54,51.72 L21.78,52.98 L20.4,52.5 L20.4,51.12 L20.4,51.12 Z M21.84,53.64 L22.08,55.14 L20.4,54.84 L20.4,53.16 L21.84,53.64 L21.84,53.64 Z M22.5,53.88 L23.7,54.3 L24.12,55.5 L22.74,55.26 L22.5,53.88 L22.5,53.88 Z M24.36,56.16 L24.84,57.6 L23.16,57.6 L22.86,55.92 L24.36,56.16 L24.36,56.16 Z M25.02,56.28 L26.28,56.52 L26.88,57.66 L25.44,57.66 L25.02,56.28 L25.02,56.28 Z M27.24,58.2 L27.96,59.58 L26.28,59.82 L25.68,58.2 L27.24,58.2 L27.24,58.2 Z M27.9,58.2 L29.22,58.2 L30,59.22 L28.62,59.4 L27.9,58.2 L27.9,58.2 Z M30.36,59.82 L31.26,61.02 L29.64,61.5 L28.86,60 L30.36,59.82 L30.36,59.82 Z M31.02,59.7 L32.28,59.52 L33.18,60.42 L31.8,60.84 L31.02,59.7 L31.02,59.7 Z M33.72,60.9 L34.8,61.98 L33.24,62.76 L32.22,61.38 L33.72,60.9 L33.72,60.9 Z M34.38,60.72 L35.64,60.36 L36.72,61.08 L35.46,61.68 L34.38,60.72 L34.38,60.72 Z M37.26,61.44 L38.52,62.34 L37.14,63.3 L35.94,62.1 L37.26,61.44 L37.26,61.44 Z M37.86,61.14 L39,60.6 L40.14,61.14 L39,61.98 L37.86,61.14 L37.86,61.14 Z M40.74,61.44 L42.12,62.1 L40.92,63.3 L39.54,62.34 L40.74,61.44 L40.74,61.44 Z M41.34,61.08 L42.42,60.36 L43.68,60.72 L42.6,61.68 L41.34,61.08 L41.34,61.08 Z M44.28,60.9 L45.72,61.32 L44.7,62.7 L43.14,61.92 L44.28,60.9 L44.28,60.9 Z M44.76,60.42 L45.66,59.52 L46.92,59.7 L46.08,60.84 L44.76,60.42 L44.76,60.42 Z M47.64,59.82 L49.14,60.06 L48.36,61.56 L46.74,61.08 L47.64,59.82 L47.64,59.82 Z M48,59.28 L48.78,58.26 L50.1,58.26 L49.44,59.52 L48,59.28 L48,59.28 Z M50.76,58.2 L52.32,58.2 L51.78,59.82 L50.1,59.58 L50.76,58.2 L50.76,58.2 Z M51.12,57.6 L51.72,56.46 L52.98,56.22 L52.5,57.6 L51.12,57.6 L51.12,57.6 Z M53.64,56.16 L55.14,55.92 L54.84,57.6 L53.16,57.6 L53.64,56.16 L53.64,56.16 Z M53.88,55.5 L54.3,54.3 L55.5,53.88 L55.26,55.26 L53.88,55.5 L53.88,55.5 Z M56.16,53.64 L57.6,53.16 L57.6,54.84 L55.92,55.14 L56.16,53.64 L56.16,53.64 Z M56.28,52.98 L56.52,51.72 L57.66,51.12 L57.66,52.56 L56.28,52.98 L56.28,52.98 Z M58.2,50.76 L59.58,50.04 L59.82,51.72 L58.2,52.32 L58.2,50.76 L58.2,50.76 Z M58.2,50.1 L58.2,48.78 L59.22,48 L59.4,49.38 L58.2,50.1 L58.2,50.1 Z M59.82,47.64 L61.02,46.74 L61.5,48.36 L60,49.14 L59.82,47.64 L59.82,47.64 Z M59.7,46.98 L59.52,45.72 L60.42,44.82 L60.84,46.2 L59.7,46.98 L59.7,46.98 Z M60.9,44.28 L61.98,43.2 L62.76,44.76 L61.38,45.78 L60.9,44.28 L60.9,44.28 Z M60.72,43.62 L60.36,42.36 L61.08,41.28 L61.68,42.54 L60.72,43.62 L60.72,43.62 Z M61.44,40.74 L62.34,39.48 L63.3,40.86 L62.1,42.06 L61.44,40.74 L61.44,40.74 Z M64.86,34.92 L63.66,36.6 L62.4,35.28 L63.18,33.66 L64.86,34.92 L64.86,34.92 Z M63.9,30.9 L63,32.76 L61.56,31.68 L62.1,29.94 L63.9,30.9 L63.9,30.9 Z M62.34,27.12 L61.74,29.1 L60.12,28.26 L60.36,26.46 L62.34,27.12 L62.34,27.12 Z M60.18,23.64 L59.88,25.68 L58.14,25.08 L58.08,23.28 L60.18,23.64 L60.18,23.64 Z M57.54,20.46 L57.6,22.5 L55.8,22.2 L55.5,20.4 L57.54,20.46 L57.54,20.46 Z M54.36,17.82 L54.72,19.86 L52.92,19.8 L52.32,18.06 L54.36,17.82 L54.36,17.82 Z M50.88,15.66 L51.54,17.64 L49.74,17.88 L48.9,16.26 L50.88,15.66 L50.88,15.66 Z M47.1,14.1 L48.06,15.9 L46.32,16.44 L45.24,15 L47.1,14.1 L47.1,14.1 Z M43.08,13.14 L44.34,14.76 L42.72,15.6 L41.4,14.34 L43.08,13.14 L43.08,13.14 Z M39,12.84 L40.5,14.28 L39,15.3 L37.5,14.28 L39,12.84 L39,12.84 Z M34.92,13.14 L36.6,14.34 L35.28,15.6 L33.66,14.82 L34.92,13.14 L34.92,13.14 Z M30.9,14.1 L32.76,15 L31.68,16.44 L29.94,15.9 L30.9,14.1 L30.9,14.1 Z M27.12,15.66 L29.1,16.26 L28.26,17.88 L26.46,17.64 L27.12,15.66 L27.12,15.66 Z M23.64,17.82 L25.68,18.12 L25.08,19.86 L23.28,19.92 L23.64,17.82 L23.64,17.82 Z M20.46,20.46 L22.5,20.4 L22.2,22.2 L20.4,22.5 L20.46,20.46 L20.46,20.46 Z M17.82,23.64 L19.86,23.28 L19.8,25.08 L18.06,25.68 L17.82,23.64 L17.82,23.64 Z M15.66,27.12 L17.64,26.46 L17.88,28.26 L16.26,29.1 L15.66,27.12 L15.66,27.12 Z M14.1,30.9 L15.9,29.94 L16.44,31.68 L15,32.76 L14.1,30.9 L14.1,30.9 Z M13.14,34.92 L14.76,33.66 L15.54,35.28 L14.34,36.6 L13.14,34.92 L13.14,34.92 Z M12.84,39 L14.28,37.5 L15.3,39 L14.28,40.5 L12.84,39 L12.84,39 Z M13.14,43.08 L14.34,41.4 L15.6,42.72 L14.82,44.34 L13.14,43.08 L13.14,43.08 Z M14.1,47.1 L15,45.24 L16.44,46.32 L15.9,48.06 L14.1,47.1 L14.1,47.1 Z M15.66,50.88 L16.26,48.9 L17.88,49.74 L17.64,51.54 L15.66,50.88 L15.66,50.88 Z M17.82,54.36 L18.12,52.32 L19.86,52.92 L19.92,54.72 L17.82,54.36 L17.82,54.36 Z M20.46,57.54 L20.4,55.5 L22.2,55.8 L22.5,57.6 L20.46,57.54 L20.46,57.54 Z M23.64,60.18 L23.28,58.14 L25.08,58.2 L25.68,59.94 L23.64,60.18 L23.64,60.18 Z M27.12,62.34 L26.46,60.36 L28.26,60.12 L29.1,61.74 L27.12,62.34 L27.12,62.34 Z M30.9,63.9 L29.94,62.1 L31.68,61.56 L32.76,63 L30.9,63.9 L30.9,63.9 Z M34.92,64.86 L33.66,63.24 L35.28,62.46 L36.6,63.72 L34.92,64.86 L34.92,64.86 Z M39,65.16 L37.5,63.72 L39,62.7 L40.5,63.72 L39,65.16 L39,65.16 Z M43.08,64.86 L41.4,63.66 L42.72,62.4 L44.34,63.18 L43.08,64.86 L43.08,64.86 Z M47.1,63.9 L45.24,63 L46.32,61.56 L48.06,62.1 L47.1,63.9 L47.1,63.9 Z M50.88,62.34 L48.9,61.74 L49.74,60.12 L51.54,60.36 L50.88,62.34 L50.88,62.34 Z M54.36,60.18 L52.32,59.88 L52.92,58.14 L54.72,58.08 L54.36,60.18 L54.36,60.18 Z M57.54,57.54 L55.5,57.6 L55.8,55.8 L57.6,55.5 L57.54,57.54 L57.54,57.54 Z M60.18,54.36 L58.14,54.72 L58.2,52.92 L59.94,52.32 L60.18,54.36 L60.18,54.36 Z M62.34,50.88 L60.36,51.54 L60.12,49.74 L61.74,48.9 L62.34,50.88 L62.34,50.88 Z M63.9,47.1 L62.1,48.06 L61.56,46.32 L63,45.24 L63.9,47.1 L63.9,47.1 Z M62.4,42.72 L63.66,41.4 L64.86,43.08 L63.24,44.34 L62.4,42.72 L62.4,42.72 Z" id="Shape-Copy"></path>
                </g>
                <circle id="Oval-43-Copy-18" stroke="#FFFFFF" stroke-width="3" cx="50" cy="50" r="50"></circle>
                <text id="Processing.js" font-family="Lato-Light, Lato" font-size="14" font-weight="300" fill="#FFFFFF">
                    <tspan x="11" y="124">Processing.js</tspan>
                </text>
            </g>
        </g>
    </g>
</svg>