<?xml version="1.0" encoding="UTF-8" standalone="no"?>
<svg width="111px" height="130px" viewBox="0 0 111 130" version="1.1" xmlns="http://www.w3.org/2000/svg" xmlns:xlink="http://www.w3.org/1999/xlink" xmlns:sketch="http://www.bohemiancoding.com/sketch/ns">
    <!-- Generator: Sketch 3.3.3 (12081) - http://www.bohemiancoding.com/sketch -->
    <title>responsive_design</title>
    <desc>Created with Sketch.</desc>
    <defs></defs>
    <g id="icons" stroke="none" stroke-width="1" fill="none" fill-rule="evenodd" sketch:type="MSPage">
        <g id="Artboard-1" sketch:type="MSArtboardGroup" transform="translate(-1006.000000, -446.000000)">
            <g id="responsive_design" sketch:type="MSLayerGroup" transform="translate(1005.000000, 447.000000)">
                <g id="Group" transform="translate(56.500000, 50.700000) scale(1, -1) translate(-56.500000, -50.700000) translate(6.000000, 0.200000)" sketch:type="MSShapeGroup">
                    <circle id="Oval-43-Copy-16" stroke="#FFFFFF" stroke-width="3" cx="50.837826" cy="50.1129761" r="50"></circle>
                    <path d="M34.034888,74.1380556 C33.681775,74.0244157 33.2071489,73.5171816 33.113227,73.1433055 C33.0543516,72.9156773 33.0315679,71.4674126 33.0315679,67.9527265 L33.0315679,63.0693446 L24.9903752,63.056385 L16.9488343,63.0373637 L16.6610068,62.83663 C16.4810363,62.7097519 16.3007173,62.50219 16.186729,62.276652 L16,61.9221456 L16,46.0914961 C16,34.2678564 16.0200664,30.1927742 16.0802656,29.9988687 C16.1805976,29.645059 16.5412355,29.2442884 16.8818069,29.0973438 C17.1556993,28.9768757 17.5697082,28.970814 26.9734653,28.9510263 L36.7725584,28.9380667 L36.7725584,28.035845 C36.7725584,27.0145488 36.8742839,26.6668705 37.2689231,26.3660835 C37.7629189,25.9925558 37.6482339,26.000011 41.8978519,26.000011 C44.5623635,26.000011 45.9123168,26.0251637 46.0906152,26.0735181 C46.4444249,26.1714812 46.9537492,26.6811539 47.0520606,27.0349635 C47.1064768,27.2227377 47.1255677,29.2252671 47.1255677,33.7010502 L47.1255677,40.0935928 L50.09867,40.0935928 L53.0721206,40.0935928 L53.0721206,36.0185803 L53.0721206,31.9435678 L51.5895061,31.9306083 L50.0987396,31.9101935 L50.0797184,31.2018774 L50.0613242,30.4955818 L52.3176099,30.4540555 C55.2209675,30.3935079 62.0081493,30.3935079 64.914921,30.4540555 L67.1719035,30.4955818 L67.1535093,31.2018774 L67.1323978,31.9101935 L65.6497833,31.9306083 L64.1610374,31.9435678 L64.1610374,36.0185803 L64.1610374,40.0935928 L74.2646102,40.0935928 C81.447128,40.0935928 84.4464281,40.1126141 84.6328784,40.1670999 C84.9866881,40.2657597 85.4936435,40.7747357 85.5950206,41.1278486 C85.7025291,41.5102251 85.7025291,72.8095622 85.5950206,73.1892214 C85.4936435,73.5430311 84.9867578,74.0523554 84.6328784,74.1510152 C84.2515471,74.2591508 34.369328,74.2462609 34.034888,74.1380556 L34.034888,74.1380556 Z M84.1971309,57.1605556 L84.1971309,41.5612272 L65.6624641,41.5612272 L47.1254284,41.5612272 L47.1254284,42.0355049 C47.1254284,42.3029176 47.0934475,42.6308779 47.0519212,42.771064 C46.94713,43.1051557 46.6443224,43.4712281 46.3041691,43.6528709 C46.0302766,43.7923603 45.9568391,43.7991884 43.6073282,43.820927 L41.1816625,43.840645 L41.1816625,52.8915679 C41.1816625,62.6964439 41.2004051,62.1303345 40.81559,62.5882386 C40.4332136,63.0430771 40.5131308,63.030884 37.373993,63.0692749 L34.5349455,63.1043214 L34.5155758,67.9332872 L34.5026163,72.7564699 L59.3494904,72.7564699 L84.1970612,72.7564699 L84.1970612,57.1605556 L84.1971309,57.1605556 Z M39.7126347,52.7221879 L39.7126347,43.8536046 L38.7971051,43.820927 C37.7880716,43.7862288 37.5267903,43.7072871 37.1607178,43.3180825 C36.7595988,42.8982906 36.7725584,43.0983275 36.7725584,37.6555946 L36.7725584,32.6789875 L27.1211763,32.6789875 L17.4697246,32.6789875 L17.4697246,47.1392689 L17.4697246,61.6012225 L28.5908313,61.6012225 L39.7126347,61.6012225 L39.7126347,52.7221879 L39.7126347,52.7221879 Z M45.6574456,35.6171129 L45.6574456,28.9381364 L41.9487843,28.9381364 L38.2435371,28.9381364 L38.2435371,35.6171129 L38.2435371,42.2960895 L41.9487843,42.2960895 L45.6574456,42.2960895 L45.6574456,35.6171129 L45.6574456,35.6171129 Z M62.6897103,36.0185803 L62.6897103,31.9435678 L58.6146978,31.9435678 L54.5403123,31.9435678 L54.5403123,36.0185803 L54.5403123,40.0935928 L58.6146978,40.0935928 L62.6897103,40.0935928 L62.6897103,36.0185803 L62.6897103,36.0185803 Z M29.0048401,31.2494654 C29.1514364,31.1229356 29.1926143,31.0364689 29.1926143,30.8071685 C29.1926143,30.1403786 28.3108074,29.9668182 28.0495261,30.5805853 C27.9698876,30.7751876 27.9698876,30.8418666 28.0495261,31.0364689 C28.1035939,31.1623716 28.1961223,31.2957296 28.2692811,31.3358624 C28.4768429,31.4563305 28.8041761,31.4216323 29.0048401,31.2494654 L29.0048401,31.2494654 Z M42.3785398,28.2365787 C42.8181194,27.8025034 42.3306034,27.0737725 41.7358575,27.2738095 C41.3820478,27.3881462 41.2231888,27.7956753 41.4078973,28.1304637 C41.6082826,28.4965362 42.0702976,28.5434275 42.3785398,28.2365787 L42.3785398,28.2365787 Z" id="Shape" fill="#FFFFFF"></path>
                </g>
                <text id="Responsive-Design" sketch:type="MSTextLayer" font-family="Lato" font-size="14" font-weight="260" fill="#FFFFFF">
                    <tspan x="0" y="126">Responsive Design</tspan>
                </text>
            </g>
        </g>
    </g>
</svg>