<?xml version="1.0" encoding="UTF-8" standalone="no"?>
<svg width="104px" height="129px" viewBox="0 0 104 129" version="1.1" xmlns="http://www.w3.org/2000/svg" xmlns:xlink="http://www.w3.org/1999/xlink" xmlns:sketch="http://www.bohemiancoding.com/sketch/ns">
    <!-- Generator: Sketch 3.3.3 (12081) - http://www.bohemiancoding.com/sketch -->
    <title>service_design</title>
    <desc>Created with Sketch.</desc>
    <defs></defs>
    <g id="icons" stroke="none" stroke-width="1" fill="none" fill-rule="evenodd" sketch:type="MSPage">
        <g id="Artboard-1" sketch:type="MSArtboardGroup" transform="translate(-1011.000000, -627.000000)">
            <g id="service_design" sketch:type="MSLayerGroup" transform="translate(1013.000000, 629.000000)">
                <g id="Group" transform="translate(18.000000, 13.000000)" stroke="#FFFFFF" stroke-width="2" sketch:type="MSShapeGroup">
                    <path d="M33,11.4648511 C17.2876957,11.4648511 4.54826087,23.5291277 4.54826087,38.4102553 L61.4517391,38.4102553 C61.4517391,23.5291277 48.7137391,11.4648511 33,11.4648511 L33,11.4648511 Z" id="Shape"></path>
                    <ellipse id="Oval" cx="33" cy="5.94376596" rx="5.82952174" ry="5.52108511"></ellipse>
                    <path d="M58.2564783,52.0126809 C58.2564783,52.0126809 49.487087,62.3278298 41.7335217,62.0669574 C33.9828261,61.8046596 23.4586957,59.9671489 20.6895652,66 L2.97,66 C2.97,66 12.0163043,50.3519362 19.6751739,49.1274043 C27.3354783,47.9057234 42.2342609,48.0411489 42.9344348,47.9912553 C44.4108261,47.885766 47.2646087,51.6306383 41.9200435,52.624234 C36.7505217,53.5850426 29.1820435,54.634234 29.1820435,54.634234 C29.1820435,54.634234 39.8883913,57.2928511 44.1324783,55.1973191 C48.378,53.1003617 51.7985217,52.2379149 53.7326087,49.9157234 C55.1171739,48.2535532 60.6554348,48.4288936 58.2564783,52.0126809 L58.2564783,52.0126809 Z" id="Shape"></path>
                    <path d="M0,42.9961915 L66,42.9961915" id="Shape"></path>
                </g>
                <circle id="Oval-43-Copy-22" stroke="#FFFFFF" stroke-width="3" sketch:type="MSShapeGroup" cx="50" cy="50" r="50"></circle>
                <text id="Service-Design" sketch:type="MSTextLayer" font-family="Lato" font-size="14" font-weight="260" fill="#FFFFFF">
                    <tspan x="5" y="124">Service Design</tspan>
                </text>
            </g>
        </g>
    </g>
</svg>