<?xml version="1.0" encoding="UTF-8" standalone="no"?>
<svg width="104px" height="127px" viewBox="0 0 104 127" version="1.1" xmlns="http://www.w3.org/2000/svg" xmlns:xlink="http://www.w3.org/1999/xlink">
    <!-- Generator: Sketch 3.7.1 (28215) - http://www.bohemiancoding.com/sketch -->
    <title>sketch</title>
    <desc>Created with Sketch.</desc>
    <defs></defs>
    <g id="icons" stroke="none" stroke-width="1" fill="none" fill-rule="evenodd">
        <g id="Artboard-1" transform="translate(-834.000000, -447.000000)">
            <g id="sketch" transform="translate(836.000000, 449.000000)">
                <path d="M73.0702531,26.7915254 L26.9297469,26.7915254 L12.9756994,40.2261759 L50,81.2084746 L87.0243006,40.2261759 L73.0702531,26.7915254 L73.0702531,26.7915254 Z M66.2750598,39.5750378 L61.7325895,33.510258 L75.1724106,39.5750378 L66.2750598,39.5750378 L66.2750598,39.5750378 Z M64.6920652,39.5750378 L51.7878623,39.5750378 L59.6123312,32.7943813 L64.6920652,39.5750378 L64.6920652,39.5750378 Z M65.0614855,40.9486203 L54.4889908,67.3750723 L50.7075755,40.9486203 L65.0614855,40.9486203 L65.0614855,40.9486203 Z M35.3079348,39.5750378 L40.3876688,32.7943813 L48.2121377,39.5750378 L35.3079348,39.5750378 L35.3079348,39.5750378 Z M49.2916017,40.9486203 L45.5093637,67.3741341 L34.9385145,40.9486203 L49.2916017,40.9486203 L49.2916017,40.9486203 Z M33.7241175,39.5750378 L24.8267667,39.5750378 L38.265765,33.510258 L33.7241175,39.5750378 L33.7241175,39.5750378 Z M33.6146901,40.9486203 L43.2961333,65.1476919 L23.0742831,40.9486203 L33.6146901,40.9486203 L33.6146901,40.9486203 Z M50,44.5261273 L53.5913572,69.6212175 L50,78.5982925 L46.4086428,69.6202793 L50,44.5261273 L50,44.5261273 Z M66.3853099,40.9486203 L76.9257169,40.9486203 L56.7046895,65.1467536 L66.3853099,40.9486203 L66.3853099,40.9486203 Z M77.824996,39.2954424 L60.9164093,31.6656793 L64.8516811,28.2551789 L78.3671963,34.0722635 L77.824996,39.2954424 L77.824996,39.2954424 Z M50,39.399587 L41.5132075,32.0456663 L49.9991772,28.2167111 L58.4859697,32.0466045 L50,39.399587 L50,39.399587 Z M22.1741812,39.2954424 L21.6319809,34.0722635 L35.1483189,28.2551789 L39.0844134,31.6656793 L22.1741812,39.2954424 L22.1741812,39.2954424 Z M20.9910491,39.5750378 L15.5188575,39.5750378 L20.493278,34.7853254 L20.9910491,39.5750378 L20.9910491,39.5750378 Z M21.3283816,40.9486203 L29.6925825,56.8170639 L15.3575961,40.9486203 L21.3283816,40.9486203 L21.3283816,40.9486203 Z M24.9921419,45.2354363 L44.8240028,68.9691411 L48.1249249,77.2190805 L33.0650849,60.5503186 L24.9921419,45.2354363 L24.9921419,45.2354363 Z M55.1751745,68.9691411 L75.0062126,45.2373128 L66.9349151,60.5512569 L51.8742524,77.2200187 L55.1751745,68.9691411 L55.1751745,68.9691411 Z M78.6716184,40.9486203 L84.6424039,40.9486203 L70.3082402,56.8161257 L78.6716184,40.9486203 L78.6716184,40.9486203 Z M79.0089509,39.5750378 L79.5058993,34.7843872 L84.4819653,39.5750378 L79.0089509,39.5750378 L79.0089509,39.5750378 Z M72.6300753,28.165108 L76.3283915,31.7257266 L68.0538717,28.165108 L72.6300753,28.165108 L72.6300753,28.165108 Z M59.6073946,31.0745885 L53.1577615,28.165108 L62.9650873,28.165108 L59.6073946,31.0745885 L59.6073946,31.0745885 Z M46.8414158,28.165108 L40.3934281,31.0745885 L37.0357355,28.165108 L46.8414158,28.165108 L46.8414158,28.165108 Z M27.3699247,28.165108 L31.9461283,28.165108 L23.6716085,31.7257266 L27.3699247,28.165108 L27.3699247,28.165108 Z" id="Shape" fill="#FFFFFF"></path>
                <circle id="Oval-43-Copy-15" stroke="#FFFFFF" stroke-width="3" cx="50" cy="50" r="50"></circle>
                <text id="Sketch" font-family="OpenSans-Light, Open Sans" font-size="14" font-weight="300" fill="#FFFFFF">
                    <tspan x="30" y="124">Sketch</tspan>
                </text>
            </g>
        </g>
    </g>
</svg>