<?xml version="1.0" encoding="UTF-8" standalone="no"?>
<svg width="104px" height="128px" viewBox="0 0 104 128" version="1.1" xmlns="http://www.w3.org/2000/svg" xmlns:xlink="http://www.w3.org/1999/xlink">
    <!-- Generator: Sketch 3.7.1 (28215) - http://www.bohemiancoding.com/sketch -->
    <title>user_interviews</title>
    <desc>Created with Sketch.</desc>
    <defs></defs>
    <g id="icons" stroke="none" stroke-width="1" fill="none" fill-rule="evenodd">
        <g id="Artboard-1" transform="translate(-119.000000, -114.000000)">
            <g id="user_interviews" transform="translate(121.000000, 116.000000)">
                <g id="Group" transform="translate(32.000000, 19.000000)" fill="#FFFFFF">
                    <path d="M19.9862069,57.854902 L29.7931034,57.854902 C30.662069,57.854902 31.2827586,58.4823529 31.2827586,59.3607843 C31.2827586,60.2392157 30.662069,60.8666667 29.7931034,60.8666667 L5.33793103,60.8666667 C4.46896552,60.8666667 3.84827586,60.2392157 3.84827586,59.3607843 C3.84827586,58.4823529 4.46896552,57.854902 5.33793103,57.854902 L15.1448276,57.854902 C15.6413793,57.854902 16.137931,57.4784314 16.137931,56.8509804 L16.137931,49.3215686 C16.137931,48.8196078 15.7655172,48.4431373 15.2689655,48.4431373 C5.95862069,47.1882353 1.9862069,38.7803922 1.9862069,34.7647059 L1.9862069,27.8627451 C1.9862069,26.9843137 2.60689655,26.3568627 3.47586207,26.3568627 C4.34482759,26.3568627 4.96551724,26.9843137 4.96551724,27.8627451 L4.96551724,34.7647059 C4.96551724,36.145098 7.44827586,45.5568627 17.5034483,45.5568627 C27.4344828,45.5568627 30.0413793,36.0196078 30.0413793,34.7647059 L30.0413793,27.8627451 C30.0413793,26.9843137 30.662069,26.3568627 31.5310345,26.3568627 C32.4,26.3568627 33.0206897,26.9843137 33.0206897,27.8627451 L33.0206897,34.7647059 C33.0206897,38.7803922 29.0482759,47.3137255 19.737931,48.4431373 C19.2413793,48.4431373 18.8689655,48.945098 18.8689655,49.3215686 L18.8689655,56.8509804 C19.1172414,57.4784314 19.4896552,57.854902 19.9862069,57.854902 L19.9862069,57.854902 Z M35.0068966,34.6392157 L35.0068966,27.8627451 C35.0068966,25.9803922 33.5172414,24.4745098 31.6551724,24.4745098 C29.7931034,24.4745098 28.3034483,25.9803922 28.3034483,27.8627451 L28.3034483,34.6392157 C28.3034483,34.7647059 26.6896552,43.6745098 17.6275862,43.6745098 C8.56551724,43.6745098 6.95172414,34.7647059 6.95172414,34.7647059 L6.95172414,27.8627451 C6.95172414,25.9803922 5.46206897,24.4745098 3.6,24.4745098 C1.73793103,24.4745098 0.248275862,25.9803922 0.248275862,27.8627451 L0.248275862,34.7647059 C0.248275862,39.4078431 4.34482759,48.4431373 14.2758621,50.2 L14.2758621,55.972549 L5.46206897,55.972549 C3.6,55.972549 2.11034483,57.4784314 2.11034483,59.3607843 C2.11034483,61.2431373 3.6,62.7490196 5.46206897,62.7490196 L29.7931034,62.7490196 C31.6551724,62.7490196 33.1448276,61.2431373 33.1448276,59.3607843 C33.1448276,57.4784314 31.6551724,55.972549 29.7931034,55.972549 L20.9793103,55.972549 L20.9793103,50.2 C30.9103448,48.4431373 35.0068966,39.2823529 35.0068966,34.6392157 L35.0068966,34.6392157 Z M8.31724138,25.7294118 C7.82068966,25.7294118 7.32413793,26.1058824 7.32413793,26.7333333 C7.32413793,27.3607843 7.69655172,27.7372549 8.31724138,27.7372549 L26.937931,27.7372549 C27.4344828,27.7372549 27.9310345,27.3607843 27.9310345,26.7333333 C27.9310345,26.1058824 27.5586207,25.7294118 26.937931,25.7294118 L8.31724138,25.7294118 L8.31724138,25.7294118 Z M5.95862069,24.0980392 C6.45517241,24.0980392 6.95172414,23.7215686 6.95172414,23.0941176 L6.95172414,19.0784314 L12.7862069,19.0784314 C13.2827586,19.0784314 13.7793103,18.7019608 13.7793103,18.0745098 C13.7793103,17.572549 13.4068966,17.0705882 12.7862069,17.0705882 L6.95172414,17.0705882 L6.95172414,15.5647059 L12.7862069,15.5647059 C13.2827586,15.5647059 13.7793103,15.1882353 13.7793103,14.5607843 C13.7793103,14.0588235 13.4068966,13.5568627 12.7862069,13.5568627 L6.95172414,13.5568627 L6.95172414,12.9294118 L6.95172414,11.9254902 L12.7862069,11.9254902 C13.2827586,11.9254902 13.6551724,11.5490196 13.6551724,11.0470588 C13.6551724,10.545098 13.2827586,10.0431373 12.662069,10.0431373 L7.2,10.0431373 C8.44137931,5.4 12.537931,2.01176471 17.5034483,2.01176471 C22.4689655,2.01176471 26.5655172,5.4 27.8068966,10.0431373 L22.2206897,10.0431373 C21.7241379,10.0431373 21.2275862,10.4196078 21.2275862,11.0470588 C21.2275862,11.5490196 21.6,12.0509804 22.2206897,12.0509804 L28.1793103,12.0509804 L28.1793103,13.054902 L28.1793103,13.8078431 L22.0965517,13.8078431 C21.6,13.8078431 21.1034483,14.1843137 21.1034483,14.8117647 C21.1034483,15.3137255 21.4758621,15.8156863 22.0965517,15.8156863 L28.1793103,15.8156863 L28.1793103,17.572549 L22.0965517,17.572549 C21.6,17.572549 21.1034483,17.9490196 21.1034483,18.5764706 C21.1034483,19.0784314 21.4758621,19.5803922 22.0965517,19.5803922 L28.1793103,19.5803922 L28.1793103,23.5960784 C28.1793103,24.0980392 28.5517241,24.6 29.1724138,24.6 C29.7931034,24.6 30.1655172,24.2235294 30.1655172,23.5960784 L30.1655172,12.9294118 C30.1655172,5.90196078 24.5793103,0.129411765 17.6275862,0.129411765 C10.6758621,0.129411765 5.08965517,5.90196078 5.08965517,12.9294118 L5.08965517,23.2196078 C5.08965517,23.5960784 5.46206897,24.0980392 5.95862069,24.0980392 L5.95862069,24.0980392 Z" id="a"></path>
                </g>
                <circle id="Oval-43-Copy-2" stroke="#FFFFFF" stroke-width="3" cx="50.1757812" cy="50" r="50"></circle>
                <text id="User-Interviews" font-family="OpenSans-Light, Open Sans" font-size="14" font-weight="300" fill="#FFFFFF">
                    <tspan x="3" y="125">User Interviews</tspan>
                </text>
            </g>
        </g>
    </g>
</svg>