<?xml version="1.0" encoding="UTF-8" standalone="no"?>
<svg width="114px" height="130px" viewBox="0 0 114 130" version="1.1" xmlns="http://www.w3.org/2000/svg" xmlns:xlink="http://www.w3.org/1999/xlink">
    <!-- Generator: Sketch 3.7.1 (28215) - http://www.bohemiancoding.com/sketch -->
    <title>user_requirements</title>
    <desc>Created with Sketch.</desc>
    <defs></defs>
    <g id="icons" stroke="none" stroke-width="1" fill="none" fill-rule="evenodd">
        <g id="Artboard-1" transform="translate(-1002.000000, -267.000000)">
            <g id="user_requirements" transform="translate(1001.000000, 269.000000)">
                <path d="M58,14.491 C54.812,14.491 52.24,17.091 52.24,20.251 C52.24,23.159 54.393,25.563 57.217,25.955 L57.217,38.705 C54.673,38.873 52.38,39.908 50.591,41.473 L44.86,35.742 C46.566,33.505 46.398,30.262 44.329,28.193 C42.092,25.956 38.457,25.956 36.193,28.193 C33.957,30.458 33.957,34.12 36.193,36.357 C38.262,38.426 41.506,38.594 43.742,36.888 L49.474,42.592 C47.908,44.381 46.874,46.674 46.706,49.218 L33.956,49.218 C33.564,46.394 31.16,44.241 28.252,44.241 C25.092,44.241 22.492,46.813 22.492,50.001 C22.492,53.189 25.092,55.761 28.252,55.761 C31.16,55.761 33.564,53.608 33.956,50.784 L46.705,50.784 C46.873,53.328 47.907,55.621 49.473,57.41 L43.741,63.114 C41.505,61.408 38.262,61.576 36.192,63.645 C33.956,65.881 33.956,69.544 36.192,71.809 C38.457,74.045 42.091,74.045 44.328,71.809 C46.397,69.74 46.565,66.496 44.859,64.232 L50.59,58.528 C52.38,60.094 54.672,61.1 57.216,61.268 L57.216,74.018 C54.392,74.41 52.239,76.841 52.239,79.749 C52.239,82.908 54.811,85.509 57.999,85.509 C61.187,85.509 63.759,82.908 63.759,79.749 C63.759,76.841 61.606,74.409 58.782,74.018 L58.782,61.268 C61.326,61.1 63.619,60.094 65.408,58.528 L71.111,64.232 C69.406,66.497 69.574,69.74 71.642,71.809 C73.879,74.045 77.541,74.045 79.806,71.809 C82.043,69.544 82.043,65.881 79.806,63.645 C77.738,61.576 74.494,61.436 72.257,63.141 L66.526,57.41 C68.091,55.621 69.098,53.328 69.266,50.784 L82.015,50.784 C82.407,53.607 84.839,55.761 87.746,55.761 C90.905,55.761 93.506,53.189 93.506,50.001 C93.506,46.813 90.905,44.241 87.746,44.241 C84.839,44.241 82.406,46.394 82.015,49.218 L69.268,49.218 C69.1,46.674 68.093,44.381 66.528,42.592 L72.259,36.86 C74.496,38.566 77.739,38.426 79.808,36.357 C82.045,34.12 82.045,30.458 79.808,28.193 C77.543,25.956 73.881,25.956 71.644,28.193 C69.576,30.262 69.408,33.506 71.113,35.742 L65.41,41.473 C63.621,39.908 61.328,38.873 58.784,38.705 L58.784,25.955 C61.607,25.563 63.761,23.159 63.761,20.251 C63.76,17.091 61.188,14.491 58,14.491 L58,14.491 L58,14.491 Z M58,16.057 C60.32,16.057 62.193,17.93 62.193,20.251 C62.193,22.572 60.32,24.445 58,24.445 C55.679,24.445 53.806,22.572 53.806,20.251 C53.806,17.93 55.679,16.057 58,16.057 L58,16.057 L58,16.057 Z M40.274,28.08 C41.337,28.08 42.399,28.499 43.238,29.31 C44.86,30.96 44.86,33.588 43.238,35.238 C41.588,36.86 38.96,36.86 37.311,35.238 C35.661,33.588 35.661,30.96 37.311,29.31 C38.121,28.499 39.211,28.08 40.274,28.08 L40.274,28.08 L40.274,28.08 Z M75.726,28.08 C76.789,28.08 77.879,28.499 78.69,29.31 C80.339,30.96 80.312,33.588 78.662,35.238 C77.013,36.86 74.385,36.86 72.735,35.238 C71.113,33.588 71.113,30.96 72.735,29.31 C73.573,28.499 74.663,28.08 75.726,28.08 L75.726,28.08 L75.726,28.08 Z M58,40.27 C63.396,40.27 67.729,44.603 67.729,50 C67.729,55.397 63.396,59.729 58,59.729 C52.604,59.729 48.271,55.396 48.271,50 C48.271,44.604 52.604,40.27 58,40.27 L58,40.27 L58,40.27 Z M28.252,45.806 C30.517,45.806 32.362,47.567 32.445,49.804 L32.445,49.888 L32.445,49.888 L32.445,50.196 C32.362,52.433 30.516,54.195 28.252,54.195 C25.931,54.195 24.058,52.321 24.058,50.001 C24.058,47.679 25.931,45.806 28.252,45.806 L28.252,45.806 L28.252,45.806 Z M87.748,45.806 C90.068,45.806 91.942,47.679 91.942,50 C91.942,52.32 90.068,54.194 87.748,54.194 C85.428,54.194 83.555,52.32 83.555,50 C83.555,47.679 85.428,45.806 87.748,45.806 L87.748,45.806 L87.748,45.806 Z M40.274,63.532 C41.337,63.532 42.399,63.952 43.238,64.762 C44.86,66.411 44.86,69.039 43.238,70.69 C41.588,72.339 38.96,72.339 37.311,70.69 C35.661,69.04 35.661,66.412 37.311,64.762 C38.121,63.952 39.211,63.532 40.274,63.532 L40.274,63.532 L40.274,63.532 Z M75.698,63.532 C76.788,63.532 77.879,63.952 78.689,64.762 C80.338,66.411 80.338,69.039 78.689,70.69 C77.04,72.339 74.412,72.339 72.762,70.69 C71.14,69.04 71.112,66.412 72.734,64.762 C73.573,63.952 74.636,63.532 75.698,63.532 L75.698,63.532 L75.698,63.532 Z M58,75.555 C60.32,75.555 62.193,77.429 62.193,79.749 C62.193,82.069 60.32,83.943 58,83.943 C55.679,83.943 53.806,82.069 53.806,79.749 C53.806,77.429 55.679,75.555 58,75.555 L58,75.555 L58,75.555 Z" id="Shape" fill="#FFFFFF"></path>
                <circle id="Oval-43-Copy-10" stroke="#FFFFFF" stroke-width="3" cx="58" cy="50" r="50"></circle>
                <text id="User-Requirements" font-family="Lato-Light, Lato" font-size="14" font-weight="300" fill="#FFFFFF">
                    <tspan x="0" y="125">User Requirements</tspan>
                </text>
            </g>
        </g>
    </g>
</svg>