<?xml version="1.0" encoding="UTF-8" standalone="no"?>
<svg width="104px" height="127px" viewBox="0 0 104 127" version="1.1" xmlns="http://www.w3.org/2000/svg" xmlns:xlink="http://www.w3.org/1999/xlink">
    <!-- Generator: Sketch 3.7.1 (28215) - http://www.bohemiancoding.com/sketch -->
    <title>version_control</title>
    <desc>Created with Sketch.</desc>
    <defs></defs>
    <g id="icons" stroke="none" stroke-width="1" fill="none" fill-rule="evenodd">
        <g id="Artboard-1" transform="translate(-485.000000, -627.000000)">
            <g id="version_control" transform="translate(487.000000, 629.000000)">
                <circle id="Oval-43-Copy-19" stroke="#FFFFFF" stroke-width="3" cx="50" cy="50" r="50"></circle>
                <path d="M37.8675,16.3741495 C34.7787,16.3741495 32.2425,18.9010593 32.2425,21.9785451 C32.2425,24.5381846 33.999825,26.7105978 36.3675,27.3713187 L36.3675,72.6294286 C33.999825,73.2901793 32.2425,75.4624879 32.2425,78.0222022 C32.2425,81.0996879 34.7787,83.6265978 37.8675,83.6265978 C40.9563,83.6265978 43.4925,81.0996879 43.4925,78.0222022 C43.4925,75.4840835 41.765025,73.3259429 39.427575,72.6454945 C39.6947175,68.8605099 40.958925,67.283433 42.77325,66.3537011 C44.7834,65.3236132 47.871525,65.2372308 51.15075,65.2372308 C54.4299,65.2372308 57.898125,65.3288664 60.8205,63.8317231 C63.419475,62.5001187 65.2305,59.7576264 65.560725,55.4116791 C67.96455,54.7752215 69.7575,52.5853451 69.7575,49.9999253 C69.7575,47.4402857 68.000175,45.2678725 65.6325,44.6071516 L65.6325,41.3817099 C68.000175,40.7209591 69.7575,38.5486505 69.7575,35.9889363 C69.7575,33.4292967 68.000175,31.2568835 65.6325,30.5961626 L65.6325,27.3707209 C68.000175,26.7099701 69.7575,24.5376615 69.7575,21.9779473 C69.7575,18.9004615 67.2213,16.3735516 64.1325,16.3735516 C61.56765,16.3735516 59.389875,18.118611 58.722825,20.4717846 L50.354325,20.4951363 L50.354325,18.7423055 L47.541825,20.3594352 L44.729325,21.9779846 L47.541825,23.5965341 L50.354325,25.2136637 L50.354325,23.4841473 L58.716825,23.4607956 C59.242935,25.3479824 60.7398,26.8425626 62.63235,27.3707209 L62.63235,30.5961626 C60.264675,31.2569134 58.50735,33.429222 58.50735,35.9889363 C58.50735,38.5485758 60.264675,40.720989 62.63235,41.3817099 L62.63235,44.6071516 C60.264675,45.2679024 58.50735,47.440211 58.50735,49.9999253 C58.50735,52.5391648 60.23625,54.6986505 62.5752,55.3781275 C62.338395,58.8675736 61.152975,60.2993099 59.4492,61.1722505 C57.50205,62.169833 54.434175,62.2479209 51.1512,62.2479209 C47.86785,62.2479209 44.367075,62.1751385 41.4027,63.6942286 C40.65924,64.0752154 39.97605,64.5667956 39.368025,65.1755824 L39.368025,27.3705714 C41.7357,26.7098207 43.493025,24.5375121 43.493025,21.9777978 C43.493025,18.9003121 40.956825,16.3734022 37.868025,16.3734022 L37.8675,16.3741495 Z M37.8675,19.3631604 C39.335025,19.3631604 40.4925,20.5163956 40.4925,21.9785451 C40.4925,23.4406945 39.335025,24.5939297 37.8675,24.5939297 C36.399975,24.5939297 35.2425,23.4406945 35.2425,21.9785451 C35.2425,20.5163956 36.399975,19.3631604 37.8675,19.3631604 L37.8675,19.3631604 Z M64.1325,19.3631604 C65.600025,19.3631604 66.7575,20.5163956 66.7575,21.9785451 C66.7575,23.4406945 65.600025,24.5939297 64.1325,24.5939297 C62.664975,24.5939297 61.5075,23.4406945 61.5075,21.9785451 C61.5075,20.5163956 62.664975,19.3631604 64.1325,19.3631604 L64.1325,19.3631604 Z M64.1325,33.3741495 C65.600025,33.3741495 66.7575,34.5273846 66.7575,35.9895341 C66.7575,37.4516835 65.600025,38.6049187 64.1325,38.6049187 C62.664975,38.6049187 61.5075,37.4516835 61.5075,35.9895341 C61.5075,34.5273846 62.664975,33.3741495 64.1325,33.3741495 L64.1325,33.3741495 Z M64.1325,47.3851385 C65.600025,47.3851385 66.7575,48.5383736 66.7575,50.0005231 C66.7575,51.4626725 65.600025,52.6159077 64.1325,52.6159077 C62.664975,52.6159077 61.5075,51.4626725 61.5075,50.0005231 C61.5075,48.5383736 62.664975,47.3851385 64.1325,47.3851385 L64.1325,47.3851385 Z M37.8675,75.4071165 C39.335025,75.4071165 40.4925,76.5603516 40.4925,78.0225011 C40.4925,79.4846505 39.335025,80.6378857 37.8675,80.6378857 C36.399975,80.6378857 35.2425,79.4846505 35.2425,78.0225011 C35.2425,76.5603516 36.399975,75.4071165 37.8675,75.4071165 L37.8675,75.4071165 Z" id="Shape" fill="#FFFFFF"></path>
                <text id="Version-Control" font-family="OpenSans-Light, Open Sans" font-size="14" font-weight="300" fill="#FFFFFF">
                    <tspan x="3" y="124">Version Control</tspan>
                </text>
            </g>
        </g>
    </g>
</svg>