<?xml version="1.0" encoding="UTF-8" standalone="no"?>
<svg width="104px" height="129px" viewBox="0 0 104 129" version="1.1" xmlns="http://www.w3.org/2000/svg" xmlns:xlink="http://www.w3.org/1999/xlink" xmlns:sketch="http://www.bohemiancoding.com/sketch/ns">
    <!-- Generator: Sketch 3.3.3 (12081) - http://www.bohemiancoding.com/sketch -->
    <title>sketching_g</title>
    <desc>Created with Sketch.</desc>
    <defs>
        <path d="M53.8935326,44.9013733 C51.7670337,43.1351815 49.7289026,42.7063345 49.643119,42.6889645 L49.5123645,43.3310622 C49.5320579,43.33513 51.4984849,43.7540598 53.4999917,45.4265127 C54.1915175,46.004356 54.8037054,46.6659022 55.337595,47.4003135 L55.3099114,47.5190236 L55.4424184,47.5499037 C56.8770351,49.5908687 57.7100383,52.1890112 57.8742686,55.2149021 C57.7919901,55.5703198 57.0958306,58.3068882 54.9858171,59.2639626 C53.5760028,59.9035958 51.8107275,59.6305744 49.7401008,58.4522918 L49.415858,59.021851 C50.8616729,59.8444783 52.1855552,60.2568461 53.3736927,60.2568461 C54.0471588,60.2568461 54.6769311,60.1243884 55.2604254,59.8590573 C57.812634,58.6985307 58.4972983,55.4449883 58.5251304,55.3070672 L58.5334473,55.266448 L58.5312196,55.2250569 C58.3573951,51.8859708 57.4340934,49.432638 56.3023032,47.6517189 L64.7730111,40.6405467 L77.7135517,19.9260747 L76.8770138,18.0684305 L75.5558346,18.4139903 L75.2240768,17.1461258 L73.532763,17.5883938 L73.1214595,16.0167168 L70.7325011,16.4561046 L57.8177133,36.8538777 L57.781386,36.9118669 L55.5305485,46.572104 C54.9864706,45.8929502 54.4240954,45.3418894 53.8935326,44.9013733 L53.8935326,44.9013733 Z M70.9775841,17.4059638 L72.5360642,17.0164889 L72.9473974,18.5881658 L74.6387112,18.1458682 L74.9704689,19.4137327 L76.2916481,19.0681728 L76.6947832,20.0109355 L64.39952,39.691994 L64.0920597,38.5176307 L62.7709102,38.8631906 L62.4391228,37.5953261 L60.747809,38.037594 L60.3365055,36.4659171 L58.7713125,36.8753156 L70.9775841,17.4059638 L70.9775841,17.4059638 Z M58.4120197,37.8159998 L59.7511101,37.4657188 L60.1624136,39.0373958 L61.8537274,38.5951278 L62.1855148,39.8629924 L63.5066644,39.5174325 L63.7283114,40.3641403 L63.8656304,40.3282126 L56.3838095,46.5207362 L58.4120197,37.8159998 L58.4120197,37.8159998 Z" id="path-1"></path>
    </defs>
    <g id="icons" stroke="none" stroke-width="1" fill="none" fill-rule="evenodd" sketch:type="MSPage">
        <g id="sketching_g" sketch:type="MSLayerGroup" transform="translate(1.000000, 2.000000)">
            <g id="Group" transform="translate(0.333117, 0.000000)" stroke="#6F8FC1">
                <ellipse id="Oval-43-Copy-11" stroke-width="3" sketch:type="MSShapeGroup" cx="50.6668829" cy="50" rx="50" ry="50"></ellipse>
                <path d="M66.6919423,45.7748043 L66.0095058,46.2282069 L78.9414028,65.6803371 L52.4332818,74.1615789 L27.5739691,42.6135458 L53.946672,35.4252883 L53.7312627,34.6349663 L26.16463,42.1486226 L32.7074659,50.4518883 L22.0203172,59.976936 L58.2719383,83.8865751 L71.9248565,68.7852691 L80.2242943,66.12985 L66.6919423,45.7748043 L66.6919423,45.7748043 Z M58.1359559,82.8155116 L23.3608333,59.8796935 L33.2154244,51.0965692 L52.1413862,75.1149121 L70.370832,69.2824383 L58.1359559,82.8155116 L58.1359559,82.8155116 Z" id="Shape" fill="#6F8FC1" sketch:type="MSShapeGroup"></path>
                <g id="Shape">
                    <use fill="#6F8FC1" fill-rule="evenodd" sketch:type="MSShapeGroup" xlink:href="#path-1"></use>
                    <use fill="none" xlink:href="#path-1"></use>
                    <use fill="none" xlink:href="#path-1"></use>
                </g>
            </g>
            <text id="Sketching" sketch:type="MSTextLayer" font-family="Lato" font-size="14" font-weight="260" fill="#6F8FC1">
                <tspan x="22" y="124">Sketching</tspan>
            </text>
        </g>
    </g>
</svg>