<?xml version="1.0" encoding="UTF-8"?>
<svg width="1130px" height="359px" viewBox="0 0 1130 359" version="1.1" xmlns="http://www.w3.org/2000/svg" xmlns:xlink="http://www.w3.org/1999/xlink">
    <!-- Generator: Sketch 63.1 (92452) - https://sketch.com -->
    <title>Group 3</title>
    <desc>Created with Sketch.</desc>
    <defs>
        <rect id="path-1" x="0" y="0" width="1110" height="339" rx="20"></rect>
        <filter x="-1.6%" y="-3.8%" width="103.2%" height="110.6%" filterUnits="objectBoundingBox" id="filter-2">
            <feMorphology radius="0.5" operator="dilate" in="SourceAlpha" result="shadowSpreadOuter1"></feMorphology>
            <feOffset dx="0" dy="5" in="shadowSpreadOuter1" result="shadowOffsetOuter1"></feOffset>
            <feGaussianBlur stdDeviation="5" in="shadowOffsetOuter1" result="shadowBlurOuter1"></feGaussianBlur>
            <feComposite in="shadowBlurOuter1" in2="SourceAlpha" operator="out" result="shadowBlurOuter1"></feComposite>
            <feColorMatrix values="0 0 0 0 0   0 0 0 0 0   0 0 0 0 0  0 0 0 0.05 0" type="matrix" in="shadowBlurOuter1"></feColorMatrix>
        </filter>
        <path d="M41.2219642,17.4200435 L21.3384285,17.4200435 L21.3384285,25.6461752 L32.7835856,25.6461752 C31.7166642,30.8721882 27.2549928,33.8723068 21.3384285,33.8723068 C14.3549428,33.8723068 8.72935712,28.2591817 8.72935712,21.2911643 C8.72935712,14.3231469 14.3549428,8.71002175 21.3384285,8.71002175 C24.3452071,8.71002175 27.0610071,9.77457997 29.1948499,11.5165843 L35.4023928,5.32279107 C31.6196714,2.03233841 26.7700285,0 21.3384285,0 C9.50529998,0 0,9.48424591 0,21.2911643 C0,33.0980827 9.50529998,42.5823286 21.3384285,42.5823286 C32.0076428,42.5823286 41.7069285,34.840087 41.7069285,21.2911643 C41.7069285,20.03305 41.5129428,18.6781578 41.2219642,17.4200435 Z" id="path-3"></path>
        <path d="M41.2219642,17.4200435 L21.3384285,17.4200435 L21.3384285,25.6461752 L32.7835856,25.6461752 C31.7166642,30.8721882 27.2549928,33.8723068 21.3384285,33.8723068 C14.3549428,33.8723068 8.72935712,28.2591817 8.72935712,21.2911643 C8.72935712,14.3231469 14.3549428,8.71002175 21.3384285,8.71002175 C24.3452071,8.71002175 27.0610071,9.77457997 29.1948499,11.5165843 L35.4023928,5.32279107 C31.6196714,2.03233841 26.7700285,0 21.3384285,0 C9.50529998,0 0,9.48424591 0,21.2911643 C0,33.0980827 9.50529998,42.5823286 21.3384285,42.5823286 C32.0076428,42.5823286 41.7069285,34.840087 41.7069285,21.2911643 C41.7069285,20.03305 41.5129428,18.6781578 41.2219642,17.4200435 Z" id="path-5"></path>
        <path d="M41.2219642,17.4200435 L21.3384285,17.4200435 L21.3384285,25.6461752 L32.7835856,25.6461752 C31.7166642,30.8721882 27.2549928,33.8723068 21.3384285,33.8723068 C14.3549428,33.8723068 8.72935712,28.2591817 8.72935712,21.2911643 C8.72935712,14.3231469 14.3549428,8.71002175 21.3384285,8.71002175 C24.3452071,8.71002175 27.0610071,9.77457997 29.1948499,11.5165843 L35.4023928,5.32279107 C31.6196714,2.03233841 26.7700285,0 21.3384285,0 C9.50529998,0 0,9.48424591 0,21.2911643 C0,33.0980827 9.50529998,42.5823286 21.3384285,42.5823286 C32.0076428,42.5823286 41.7069285,34.840087 41.7069285,21.2911643 C41.7069285,20.03305 41.5129428,18.6781578 41.2219642,17.4200435 Z" id="path-7"></path>
        <path d="M41.2219642,17.4200435 L21.3384285,17.4200435 L21.3384285,25.6461752 L32.7835856,25.6461752 C31.7166642,30.8721882 27.2549928,33.8723068 21.3384285,33.8723068 C14.3549428,33.8723068 8.72935712,28.2591817 8.72935712,21.2911643 C8.72935712,14.3231469 14.3549428,8.71002175 21.3384285,8.71002175 C24.3452071,8.71002175 27.0610071,9.77457997 29.1948499,11.5165843 L35.4023928,5.32279107 C31.6196714,2.03233841 26.7700285,0 21.3384285,0 C9.50529998,0 0,9.48424591 0,21.2911643 C0,33.0980827 9.50529998,42.5823286 21.3384285,42.5823286 C32.0076428,42.5823286 41.7069285,34.840087 41.7069285,21.2911643 C41.7069285,20.03305 41.5129428,18.6781578 41.2219642,17.4200435 Z" id="path-9"></path>
    </defs>
    <g id="V3" stroke="none" stroke-width="1" fill="none" fill-rule="evenodd">
        <g id="Intro-Copy-7" transform="translate(-155.000000, -1408.000000)">
            <g id="Group-4" transform="translate(165.000000, 564.000000)">
                <g id="Group-3" transform="translate(0.000000, 849.000000)">
                    <g id="Rectangle">
                        <use fill="black" fill-opacity="1" filter="url(#filter-2)" xlink:href="#path-1"></use>
                        <use stroke="#F0F0F0" stroke-width="1" fill="#FFFFFF" fill-rule="evenodd" xlink:href="#path-1"></use>
                    </g>
                    <g id="Group-21" transform="translate(51.000000, 76.000000)">
                        <g id="Group-19" transform="translate(0.000000, 151.967402)">
                            <g id="Combined-Shape-6" transform="translate(706.000000, 10.000000)" fill="#034EA2">
                                <path d="M5.38809824,-2.30926389e-14 C7.49868741,-2.30926389e-14 10.4120288,0.503626286 10.4120288,3.72998218 L10.4120288,3.72998218 L10.4120288,4.77028523 L6.69593519,4.77028523 L6.69593519,3.85588875 C6.69593519,3.04693903 6.18135043,2.5118361 5.31051469,2.5118361 C4.37792878,2.5118361 4.05176121,3.03277454 3.94884426,3.50492418 C3.91401083,3.67332422 3.89342744,3.98809065 3.96467764,4.28554493 C4.38584547,6.01990795 10.0415278,6.94532125 10.6701129,10.0457706 C10.731863,10.3621108 10.8664467,11.1993895 10.6859462,12.4789151 C10.3328619,14.9466839 8.11302245,15.8626542 5.41818166,15.8626542 C2.6156739,15.8626542 -3.81679538e-14,14.8664184 -3.81679538e-14,11.5645186 L-3.81679538e-14,11.5645186 L0.00316667543,10.417195 L3.99951106,10.417195 L3.99951106,11.850956 C3.99951106,12.6646273 4.56634597,13.1965825 5.50051522,13.1965825 C6.49168463,13.1965825 6.82735222,12.6945301 6.9524359,12.2019206 C7.02051942,11.9233523 7.06485288,11.4622195 6.91918581,11.1033858 C6.15285036,9.18645822 0.859752379,8.30983372 0.209000578,5.28335451 C0.0522501446,4.54050573 0.0680835217,3.94717102 0.175750486,3.28144002 C0.571584915,0.870329175 2.73759091,-2.30926389e-14 5.38809824,-2.30926389e-14 Z M53.8540657,0.0818392715 C55.9440714,0.0818392715 58.8336628,0.582317893 58.8336628,3.77404948 L58.8336628,3.77404948 L58.8336628,4.8033357 L55.1460692,4.8033357 L55.1460692,3.89838222 C55.1460692,3.09572783 54.6425678,2.57321555 53.7796488,2.57321555 C52.8565629,2.57321555 52.5367287,3.08156334 52.4306451,3.55686064 C52.3942283,3.71581769 52.3736449,4.02743646 52.4448951,4.3233169 C52.8613129,6.04036777 58.4599951,6.95633807 59.0854135,10.0284584 C59.1503303,10.3385034 59.2785807,11.1647652 59.0980802,12.4348478 C58.7513292,14.8805829 56.5520731,15.7839626 53.8857324,15.7839626 C51.1117247,15.7839626 48.5198009,14.7971698 48.5198009,11.5283205 L48.5198009,11.5283205 L48.5245509,10.3967351 L52.4797285,10.3967351 L52.4828952,11.8179056 C52.4828952,12.6126908 53.0449801,13.1446461 53.9664826,13.1446461 C54.9513187,13.1446461 55.2838196,12.6504628 55.4057366,12.1594271 C55.4722368,11.8808589 55.5197369,11.4323167 55.3724865,11.0766306 C54.6140678,9.17858906 49.3732199,8.30825989 48.7319682,5.31325732 C48.5783844,4.57355621 48.5894678,3.99123832 48.6971347,3.33495031 C49.0850525,0.941151622 51.2336417,0.0818392715 53.8540657,0.0818392715 Z M66.4178504,0.464280482 L66.4178504,11.4244475 C66.4178504,11.6164551 66.4241838,11.8320701 66.4526838,11.9910271 C66.5334341,12.3545823 66.8469349,13.0659545 67.8887712,13.0659545 C68.9226907,13.0659545 69.2456916,12.3545823 69.3169418,11.9910271 C69.3395043,11.8706289 69.3495981,11.7201312 69.3518989,11.5714041 L69.3517752,0.464280482 L73.120119,0.464280482 L73.120119,11.0892213 C73.1280356,11.3614942 73.1011189,11.9217785 73.0884522,12.0618495 C72.8240348,14.8270726 70.6247787,15.7241569 67.8871878,15.7241569 C65.1464302,15.7241569 62.9455908,14.8270726 62.6843401,12.0618495 C62.6716734,11.9217785 62.6447566,11.3614942 62.6526733,11.0892213 L62.6526733,0.464280482 L66.4178504,0.464280482 Z M98.9918572,0.0645271179 C101.634448,0.0645271179 103.947704,0.950594615 104.221622,3.72368685 C104.270705,4.19583649 104.254872,4.69946278 104.254872,4.69946278 L104.254872,5.19364607 L100.497611,5.19364607 L100.497611,4.36423653 C100.500778,4.36581037 100.492861,4.01169813 100.448528,3.80080463 C100.385194,3.47344754 100.09861,2.72115578 98.9633571,2.72115578 C97.8771875,2.72115578 97.5589366,3.43252791 97.4797697,3.80080463 C97.4338529,3.99595981 97.4164362,4.26036361 97.4164362,4.4995861 L97.4164362,11.2733596 C97.4132695,11.4606457 97.4243529,11.6668177 97.4544363,11.8367916 C97.5193531,12.2333973 97.8946042,12.9101451 98.9728571,12.9101451 C100.052693,12.9101451 100.429528,12.2318234 100.499195,11.8367916 C100.526111,11.6668177 100.534028,11.4606457 100.532445,11.2733596 L100.532445,9.12350494 L99.0029406,9.12350494 L99.0029406,6.96105957 L104.286539,6.96105957 L104.286539,10.9365596 C104.283372,11.213554 104.277038,11.4181522 104.232705,11.9123355 C103.984121,14.6067361 101.632865,15.5683476 98.9918572,15.5683476 C96.3460999,15.5683476 93.9980101,14.6067361 93.7462594,11.9123355 C93.7035092,11.4181522 93.6971759,11.213554 93.6924259,10.9365596 L93.6955925,4.69946278 C93.6955925,4.43663281 93.7288426,3.9707785 93.7573427,3.72368685 C94.0882603,0.955316111 96.3460999,0.0645271179 98.9918572,0.0645271179 Z M22.5847291,0.470575811 L25.3349868,15.2819101 L21.327559,15.2819101 L19.3420535,1.84295744 L19.2581366,1.84295744 L17.2172143,15.2819101 L13.1939532,15.2819101 L15.9568775,0.470575811 L22.5847291,0.470575811 Z M34.7162627,0.470575811 L36.5561011,11.7927243 L36.635268,11.7927243 L38.4766898,0.470575811 L44.5535399,0.470575811 L44.8765408,15.2819101 L41.1525305,15.2819101 L41.0543636,1.96571635 L40.97678,1.96571635 L38.4861898,15.2819101 L34.7051793,15.2819101 L32.2130058,1.96571635 L32.1322556,1.96571635 L32.0388386,15.2819101 L28.3069116,15.2819101 L28.6362459,0.470575811 L34.7162627,0.470575811 Z M82.8101458,0.470575811 L86.2349052,12.0996215 L86.3172388,12.0996215 L86.1129882,0.470575811 L89.8021651,0.470575811 L89.8021651,15.1276746 L84.4979838,15.1276746 L80.8167236,3.09887549 L80.7375567,3.09887549 L80.9418073,15.1276746 L77.2763805,15.1276746 L77.2763805,0.470575811 L82.8101458,0.470575811 Z" id="Combined-Shape"></path>
                            </g>
                            <g id="Combined-Shape-5" transform="translate(251.000000, 2.000000)" fill="#4665B9">
                                <path d="M63.1787385,15.8669646 C66.4192571,16.3002509 69.2613257,14.4692668 69.2613257,14.4692668 C62.6324263,26.4754907 53.3731348,20.7200818 45.8897471,17.2103074 C38.8203738,13.9086347 34.0934502,23.5325604 26.6147318,22.2839504 C26.3906037,22.2342544 26.2583059,22.4516741 26.4232891,22.5526189 C35.2608462,27.969288 38.9262743,25.2655193 42.7317824,22.7714052 C51.9303725,16.7613048 57.1475763,24.8570809 63.0776319,25.6553216 C66.3150375,26.093267 69.1633319,24.2576239 69.1633319,24.2576239 C61.5850011,37.9830161 51.9008001,29.4989905 47.868051,27.6431585 C44.682008,26.1802348 42.9621363,24.3461447 35.8133842,27.7969052 C29.5673703,30.8205914 21.2979779,33.3286825 13.7149777,31.0566471 C13.7149777,31.0566471 13.6869616,31.0479503 13.654214,31.0303082 C14.5304926,28.6153971 15.8861562,25.4426231 18.2317189,25.4783421 C18.9165547,25.4808268 22.659805,25.7283747 23.0489163,25.6693607 C23.5002853,25.6103468 23.792897,25.2888764 23.8738321,24.9410049 C24.0559362,24.1318932 23.7244134,23.9439805 23.6886152,23.6815239 C23.6558676,23.4237263 23.9158561,23.3383114 24.1306456,23.1643757 C24.4839586,22.8801772 24.5166439,22.6689695 24.4388217,22.4313609 C24.3703381,22.2248122 23.8925095,22.1580333 23.7337521,22.0695125 C23.5749947,21.9779477 23.6200693,21.707664 23.8738321,21.6750511 C25.1516735,21.5057744 25.0831899,20.8302204 24.9384405,20.5910588 C24.415475,19.6452833 25.1003108,19.5179375 25.4411723,19.4573706 C25.4411723,19.4573706 25.8987671,19.4697946 26.2162819,19.4123958 C26.9400288,19.281944 26.6209576,18.4573023 26.6209576,18.4573023 L26.6123919,18.4059508 C26.5312118,17.9196711 25.8967588,14.127946 25.7322275,13.4131663 C25.5734701,12.7096584 25.9330089,12.4968978 26.5727078,12.7686724 C26.6349656,12.7966263 26.6893789,12.8338982 26.7485861,12.8789973 C26.7510764,12.8789973 26.7548119,12.8876941 26.7610377,12.8945273 C35.1113653,18.0163131 36.250683,17.6637827 43.189315,13.1181589 C52.1310917,7.2695702 57.0167726,15.0392169 63.1787385,15.8669646 Z M0.0198178223,15.0840674 C0.435388646,6.23042849 7.85963145,-0.396211982 16.6130783,0.0184383591 C16.6130783,0.0184383591 22.2769818,0.484337619 27.1439854,3.47230487 C36.8764362,9.44351827 38.72238,6.74440856 43.6407463,3.52349167 C51.718696,-1.75669994 55.852614,4.6400969 63.4216062,5.66041628 C63.7323021,5.67966777 64.0570297,5.68795638 64.4039509,5.68861872 C64.7475233,5.68936265 65.0458261,5.68693884 65.3094647,5.67999418 C67.6906566,5.43280686 69.5150885,4.26743961 69.5150885,4.26743961 C62.3678929,17.1976971 52.3459434,10.3738259 46.3427349,7.62036129 C46.0583712,7.48945474 45.7783137,7.37696873 45.5026573,7.28149954 C45.4781766,7.27326709 45.4544181,7.26519377 45.4307723,7.25722402 C41.581868,5.96112574 38.5968916,7.97863311 36.7379126,9.45445138 C32.3347296,12.9440368 29.5455801,12.9207419 25.7322898,11.7544407 C24.1369336,11.2699055 22.3625863,10.5788216 20.2146921,9.8784197 C13.5375429,7.6762692 10.830885,14.720666 10.830885,14.720666 L10.830885,14.720666 L5.83780935,26.708254 L5.74753554,26.9256736 C5.54052835,27.320135 5.10161085,27.3915729 4.7093867,27.0669964 C1.47976326,24.0557342 -0.204310262,19.8408989 0.0198178223,15.0840674 Z" id="Combined-Shape"></path>
                            </g>
                            <g id="path21-2" transform="translate(491.000000, 0.000000)" fill="#77B900">
                                <path d="M5.49168584,15.1234501 C5.49168584,15.1234501 10.3514931,8.04122517 20.0549111,7.30853707 L20.0549111,4.73911618 C9.30714417,5.5916793 1.59872116e-13,14.5827327 1.59872116e-13,14.5827327 C1.59872116e-13,14.5827327 5.27141373,29.6343005 20.0549111,31.0124367 L20.0549111,28.2813338 C9.20607814,26.933273 5.49168584,15.1234501 5.49168584,15.1234501 Z M20.0549111,22.8498434 L20.0549111,25.351008 C11.855606,23.9071752 9.5796769,15.488621 9.5796769,15.488621 C9.5796769,15.488621 13.5165008,11.1810123 20.0549111,10.4824523 L20.0549111,13.2269931 C20.0499442,13.2269931 20.0464889,13.2255 20.0423858,13.2255 C16.610676,12.8187355 13.929835,15.9851852 13.929835,15.9851852 C13.929835,15.9851852 15.4324362,21.3157844 20.0549111,22.8498434 L20.0549111,22.8498434 Z M20.0549111,0 L20.0549111,4.73911618 C20.3704185,4.71522649 20.6859259,4.69496292 21.0031609,4.68429788 C33.2222158,4.27753334 41.1837566,14.5827327 41.1837566,14.5827327 C41.1837566,14.5827327 32.039657,25.565162 22.5131045,25.565162 C21.6400064,25.565162 20.8226241,25.4851742 20.0549111,25.3507947 L20.0549111,28.2813338 C20.7114083,28.3636679 21.3920923,28.4120872 22.1023619,28.4120872 C30.9674501,28.4120872 37.3784481,23.9402369 43.5862342,18.6476052 C44.6154664,19.4617742 48.8291421,21.442485 49.6953298,22.3095526 C43.7929013,27.1905138 30.0369085,31.1250595 22.2381963,31.1250595 C21.4864638,31.1250595 20.7645328,31.080053 20.0549111,31.0124367 L20.0549111,35.1304211 L53.750496,35.1304211 L53.750496,0 L20.0549111,0 Z M20.0549111,10.4824523 L20.0549111,7.30875037 C20.3671792,7.287207 20.6818227,7.27056954 21.0031609,7.2605444 C29.7898582,6.98794604 35.5545087,14.7186053 35.5545087,14.7186053 C35.5545087,14.7186053 29.3281506,23.2598074 22.6521783,23.2598074 C21.6914032,23.2598074 20.8299665,23.1072974 20.0546951,22.8498434 L20.0546951,13.2269931 C23.4753913,13.6352508 24.1638496,15.1277162 26.2203704,18.5138656 L30.7942558,14.7045275 C30.7942558,14.7045275 27.4554058,10.379428 21.8270217,10.379428 C21.2152268,10.3792147 20.6297781,10.4216616 20.0549111,10.4824523 L20.0549111,10.4824523 Z" id="path21"></path>
                            </g>
                            <g id="capital-one-logo-(1)" transform="translate(0.000000, 2.000000)">
                                <path d="M60.0853421,22.6781392 C56.3053447,25.3183677 51.8399633,28.0813975 47.0422744,30.9876955 L46.8553514,31.0900299 C46.7930438,31.1309637 46.7722746,31.2128312 46.813813,31.2946988 C46.8553514,31.3560994 46.9384283,31.3765663 47.0215052,31.3356326 L47.1876589,31.253765 C51.2584252,29.1661425 55.9522681,26.6691823 60.6461109,24.1108214 C60.6668801,24.0903545 60.6876493,24.0903545 60.7291877,24.0698876 C60.4591879,23.6400829 60.2307266,23.1693445 60.0853421,22.6781392 L60.0853421,22.6781392 Z M84.8422476,2.92759302 C78.9022518,-3.53994336 40.666125,2.27265263 24.4038289,5.77249035 L24.029983,5.8543579 C23.9469061,5.87482479 23.9053677,5.93622545 23.9053677,6.018093 C23.9261369,6.09996055 23.9884445,6.14089432 24.0715214,6.14089432 L24.4453673,6.05902677 C37.9038193,3.70533474 65.9214918,0.430632773 71.9653336,6.32509631 C73.8137939,8.12618239 73.3568711,10.4389407 71.2384111,13.1610367 C72.380718,13.8978446 73.2114866,15.0439903 73.5853325,16.4766724 C81.8930189,11.0120135 87.479938,5.81342413 84.8422476,2.92759302 Z" id="Shape" fill="#DE4953"></path>
                                <g id="Group" transform="translate(0.000000, 12.915434)" fill="#003A6F">
                                    <path d="M62.4945711,8.06395359 C62.577648,10.3357781 64.0314931,12.1982648 65.942261,12.1982648 C69.6391814,12.1982648 71.1968726,7.73648339 71.0930266,4.74831785 C71.0099497,2.47649336 69.5145661,0.614006618 67.6245675,0.614006618 C64.4261082,0.614006618 62.390725,5.05532116 62.4945711,8.06395359 L62.4945711,8.06395359 Z M60.5422648,7.94115226 C60.3968803,4.05244368 63.4914935,0.102334436 67.9776442,0.102334436 C70.9684113,0.102334436 72.9414868,2.06715561 73.0453329,5.07578804 C73.1907174,9.1691655 70.3037964,12.9146059 65.6099535,12.9146059 C62.6191864,12.9146059 60.6461109,10.9497847 60.5422648,7.94115226 Z M18.1107564,6.9178079 C17.9446027,6.97920856 17.7369105,7.04060922 17.4876799,7.081543 C17.2384493,7.14294366 16.7607574,7.22481121 16.0961424,7.32714564 C15.6392197,7.40901319 15.3069122,7.49088074 15.1199893,7.63414895 C14.9330663,7.75695028 14.8292203,7.92068538 14.808451,8.10488736 C14.7669126,8.30955623 14.8292203,8.47329133 15.0161432,8.59609266 C15.2030662,8.71889398 15.4938352,8.78029464 15.9092195,8.78029464 C16.2207577,8.78029464 16.532296,8.73936087 16.8438342,8.63702643 C17.1553725,8.53469199 17.4046031,8.41189067 17.6122952,8.24815557 C17.7576797,8.12535425 17.8615258,7.96161915 17.9446027,7.77741717 C17.9653719,7.63414895 18.0276795,7.34761253 18.1107564,6.9178079 L18.1107564,6.9178079 Z M22.015369,4.52318209 C21.9945998,4.87111917 21.9322922,5.19858937 21.8492153,5.73072844 L21.1846004,9.37383437 C21.1222927,9.70130457 21.246908,9.94690722 21.5584463,10.1311092 L21.5376771,10.2743774 L17.7576797,10.2743774 L17.7161413,9.35336749 C17.1761417,9.68083768 16.5115268,9.94690722 15.9092195,10.1106423 C15.3069122,10.2539105 14.8292203,10.3357781 14.1022977,10.3357781 C12.876914,10.3357781 12.1915298,10.2129768 11.7138379,9.80363901 C11.2153767,9.37383437 10.9869153,9.08729795 11.0076845,8.49375822 C11.0284537,8.14582114 11.1946075,7.7160165 11.4646073,7.40901319 C11.7346071,7.10200988 12.0876837,6.89734101 12.4615296,6.71313903 C12.8561447,6.52893704 13.3130675,6.40613572 13.9776824,6.30380128 C14.6422973,6.20146684 15.576912,6.09913241 16.823065,5.99679797 C17.4669107,5.93539731 17.882295,5.7921291 18.069218,5.73072844 C18.3392178,5.628394 18.4222946,5.52605956 18.4638331,5.32139069 C18.5261407,4.95298672 18.4222946,4.72785096 17.9030642,4.62551652 C16.5530652,4.35944699 13.9984516,4.78925162 12.689991,5.11672182 L13.3961444,3.2133013 C15.1199893,2.96769866 16.7607574,2.80396356 18.4638331,2.80396356 C21.1638312,2.78349667 22.0361382,3.5407715 22.015369,4.52318209 L22.015369,4.52318209 Z M32.9399767,10.2743774 L34.2484373,2.98816554 L37.8622809,2.98816554 L36.5538203,10.2743774 L32.9399767,10.2743774 Z M34.4561294,1.30988079 C34.5599755,0.716341055 35.5153595,0.22513576 36.5953587,0.22513576 C37.6753579,0.22513576 38.4438189,0.716341055 38.3399728,1.30988079 C38.2361268,1.90342052 37.2599736,2.39462581 36.2007436,2.39462581 C35.1207444,2.39462581 34.3315141,1.90342052 34.4561294,1.30988079 Z M50.6976564,6.93827479 C50.5315027,6.99967545 50.3238105,7.06107611 50.0745799,7.10200988 C49.8253493,7.16341055 49.3476574,7.2452781 48.6622732,7.34761253 C48.2053505,7.42948008 47.873043,7.51134763 47.6861201,7.65461584 C47.5199663,7.77741717 47.4161203,7.94115226 47.3745818,8.12535425 C47.3330434,8.33002312 47.4161203,8.49375822 47.582274,8.61655954 C47.7691969,8.73936087 48.059966,8.80076153 48.4961195,8.80076153 C48.8076577,8.80076153 49.119196,8.75982775 49.4307342,8.65749332 C49.7422725,8.55515888 49.991503,8.43235756 50.1991952,8.26862246 C50.3445797,8.14582114 50.4484258,7.98208604 50.5107334,7.79788405 C50.5522719,7.65461584 50.6145795,7.36807942 50.6976564,6.93827479 Z M54.5814998,4.54364898 C54.5607306,4.89158606 54.4984229,5.21905626 54.3945769,5.75119532 L53.7507312,9.39430126 C53.6884235,9.72177146 53.8130388,9.9673741 54.124577,10.1515761 L54.1038078,10.2743774 L50.3238105,10.2743774 L50.3030413,9.35336749 C49.7422725,9.68083768 49.0776575,9.94690722 48.4961195,10.1106423 C47.8938122,10.2743774 47.4161203,10.3357781 46.6891977,10.3357781 C45.4638139,10.3357781 44.7784298,10.2129768 44.3007378,9.80363901 C43.8022767,9.37383437 43.5738153,9.08729795 43.5945845,8.49375822 C43.6153537,8.14582114 43.7815074,7.7160165 44.0515073,7.40901319 C44.3215071,7.10200988 44.6745837,6.89734101 45.0484296,6.71313903 C45.4430447,6.52893704 45.8999675,6.40613572 46.5645824,6.28333439 C47.2291973,6.18099996 48.163812,6.07866552 49.409965,5.97633108 C50.0538107,5.91493042 50.4484258,5.77166221 50.6353487,5.71026155 C50.9053486,5.60792711 51.0091946,5.50559268 51.0507331,5.28045692 C51.1130407,4.91205295 50.9884254,4.68691719 50.4899642,4.58458275 C49.119196,4.31851322 46.5853516,4.74831785 45.276891,5.07578804 L45.9830443,3.17236753 C47.7276585,2.92676488 49.3268881,2.76302978 51.0507331,2.76302978 C53.7299619,2.80396356 54.602269,3.56123839 54.5814998,4.54364898 L54.5814998,4.54364898 Z M10.5092233,7.65461584 C9.32537801,7.8797516 8.68153231,7.98208604 7.51845621,7.98208604 C5.79461128,7.98208604 4.42384302,7.14294366 4.48615067,5.58746023 C4.54845832,4.56411586 5.77384206,2.37415892 8.9307629,2.37415892 C9.92768528,2.37415892 10.6961463,2.53789402 11.7346071,3.13143375 L12.1915298,0.614006618 C10.7792231,0.0818675491 9.84460841,-5.02375919e-15 8.61922466,0.0204668873 C4.48615067,0.0614006618 0.519230401,1.90342052 0.0415384321,5.66932778 C-0.456922753,9.4966357 4.27845851,10.4585794 6.37614933,10.4381125 C7.58076386,10.4381125 8.84768604,10.3767118 10.0315314,10.2743774 L10.5092233,7.65461584 Z M39.8561256,2.94723177 L40.1053562,1.47361588 L43.8853535,0.654940393 L43.4907384,2.94723177 L45.3391987,2.94723177 L44.986122,4.42084765 L43.1999694,4.42084765 L42.1199702,10.2743774 C42.1199702,10.2743774 38.4853574,10.2539105 38.4645881,10.2743774 L39.5445874,4.44131454 L38.1738191,4.44131454 L38.4438189,2.96769866 L39.8561256,2.96769866 L39.8561256,2.94723177 Z M58.257651,10.2743774 L54.5607306,10.2743774 L56.4091908,0.122801324 L60.0022652,0.22513576 L58.257651,10.2743774 Z M28.163057,4.70738407 C27.685365,4.70738407 27.2699807,4.85065228 26.8753656,5.13718871 C26.5015197,5.42372513 26.2522891,5.83306287 26.1692122,6.38566883 C26.0653662,7.02014234 26.1276738,7.47041386 26.3769044,7.75695028 C26.626135,8.0434867 26.9999809,8.18675491 27.4984421,8.18675491 C27.8307495,8.18675491 28.163057,8.12535425 28.4122876,8.00255293 C28.7238258,7.83881783 28.931518,7.67508273 29.1184409,7.40901319 C29.3261331,7.12247677 29.4507484,6.81547346 29.513056,6.44706949 C29.6169021,5.87399665 29.5338252,5.44419202 29.2638254,5.15765559 C28.9938256,4.85065228 28.6407489,4.70738407 28.163057,4.70738407 L28.163057,4.70738407 Z M21.5792155,12.7918045 L23.3445988,3.02909932 L26.5222889,3.02909932 L26.2730583,4.27757944 C26.5430581,3.90917547 26.9792117,3.60217216 27.6022881,3.35656951 C28.2045954,3.11096687 28.9107488,2.92676488 29.6584405,2.92676488 C30.4892092,2.92676488 30.9876704,2.96769866 31.6107468,3.29516885 C32.2338233,3.62263905 32.6492076,4.07291057 32.8984382,4.68691719 C33.1268996,5.28045692 33.1892073,5.93539731 33.064592,6.67220525 C32.8568998,7.8797516 32.2545925,8.82122842 31.2784394,9.51710258 C30.3022862,10.2129768 29.4299792,10.3971787 28.2045954,10.3971787 C27.7684419,10.3971787 27.394596,10.356245 27.0830577,10.2743774 C26.7922887,10.1925099 26.5430581,10.1106423 26.3561352,9.98784099 C26.1899814,9.86503967 26.0030585,9.72177146 25.7538279,9.45570192 L25.1722899,12.7918045 L21.5792155,12.7918045 L21.5792155,12.7918045 Z M87.1683998,5.60792711 C87.1476306,5.01438738 86.8568615,4.62551652 86.2337851,4.62551652 C84.7591707,4.62551652 83.1807103,7.49088074 82.9107105,8.63702643 C85.3199396,8.63702643 87.2099382,7.20434432 87.1683998,5.60792711 L87.1683998,5.60792711 Z M87.479938,10.0901754 L87.7707071,10.2743774 C87.0437845,11.7275264 85.5691702,12.894139 83.8453252,12.894139 C82.4330185,12.894139 81.2699424,11.9731291 81.2076348,10.2334436 C81.1037887,7.12247677 84.0530174,4.21617878 86.4830157,4.21617878 C87.5214765,4.21617878 88.4976296,4.6664503 88.539168,5.77166221 C88.6222449,8.24815557 85.0914782,9.0054304 82.765326,9.06683106 C82.6822491,9.3329006 82.6614799,9.57850325 82.6822491,9.98784099 C82.7237876,11.0111854 83.346864,11.8912615 84.6553246,11.8912615 C85.7768623,11.8503277 86.8984,10.9702516 87.479938,10.0901754 Z" id="Shape"></path>
                                    <path d="M72.9830252,5.52605956 C73.2322558,5.48512579 73.6476401,5.44419202 73.8137939,5.44419202 C74.0837937,5.44419202 74.3330243,5.48512579 74.3330243,5.75119532 C74.3330243,5.91493042 74.0630245,7.02014234 74.0007168,7.26574498 L73.439948,9.72177146 C73.2114866,10.7246489 72.962256,11.7684602 72.7545638,12.6076026 L74.208409,12.6076026 L75.0184084,8.73936087 C77.5107143,6.20146684 78.4660983,5.36232447 79.0476363,5.36232447 C79.3176361,5.36232447 79.4837898,5.50559268 79.5045591,5.81259599 C79.5253283,6.26286751 79.2345593,7.28621187 79.1307132,7.57274829 L78.2999445,10.3971787 C78.1130216,11.0316522 77.9676371,11.6047251 77.9884063,12.0140628 C78.0091755,12.6280694 78.4037906,12.9146059 78.9645594,12.9146059 C80.0237895,12.9146059 80.7922505,11.8298608 81.4568654,10.7655827 L81.2699424,10.4176456 C80.9999426,10.8474503 80.3768661,11.7889271 79.878405,11.7889271 C79.7122512,11.7889271 79.5668667,11.6865926 79.5668667,11.4205231 C79.5460975,11.0930529 79.691482,10.6018476 79.7953281,10.2743774 L80.7091736,6.95874167 C80.9584042,6.03773175 81.0830195,5.4646589 81.0622503,5.13718871 C81.0414811,4.52318209 80.6676352,4.23664567 80.1068663,4.23664567 C79.1514824,4.23664567 77.8845602,4.91205295 75.2053313,7.96161915 L75.1637929,7.96161915 L75.4961004,6.48800327 C75.6830233,5.66932778 75.849177,4.8301854 76.0361,4.25711255 C75.1014853,4.58458275 73.7930246,4.95298672 72.962256,5.11672182 L72.9830252,5.52605956 L72.9830252,5.52605956 Z" id="Shape"></path>
                                </g>
                            </g>
                            <g id="Toyota_Symbol" transform="translate(954.000000, 0.000000)" fill="#FF0000">
                                <path d="M25.0013592,33.3429035 C22.2042422,31.5718404 20.1436067,25.4598803 20.1436067,18.1980529 C20.1436067,17.9315817 20.1453351,17.6689564 20.1512117,17.4063317 L20.1512117,17.4063317 L20.1545938,17.4101767 L20.1545938,17.4101767 C12.374797,16.1741949 6.75371345,12.7880633 6.60975641,8.78394073 L6.60975641,8.78394073 L6.58692643,8.83009739 L6.58692643,8.83009739 C4.68335552,11.221502 3.59680861,13.9864368 3.59680861,16.9325809 C3.59680861,25.6017693 13.0106598,32.7050385 24.951049,33.3332879 L24.951049,33.3332879 L25.0013592,33.3429035 L25.0013592,33.3429035 L25.0013592,33.3429035 L25.0013592,33.3429035 Z M0,17.5651034 C0,7.86485999 11.9414466,0 26.6730367,0 C41.4042017,0 53.3460713,7.86485999 53.3460713,17.5651034 C53.3460713,27.2653457 41.4039904,35.1304211 26.6730367,35.1304211 C11.9414466,35.1304211 0,27.2651321 0,17.5651034 L0,17.5651034 L0,17.5651034 L0,17.5651034 Z M26.6730367,2.5350046 C29.516871,2.5350046 31.9358118,6.89577602 32.8318967,12.9803847 L32.8318967,12.9803847 L32.8352788,12.9711962 L32.8352788,12.9711962 C38.3677897,12.1006233 42.241519,10.0923645 42.241519,7.75545092 C42.241519,4.61890966 35.2704976,2.07920375 26.6730367,2.07920375 C18.074941,2.07920375 11.1045518,4.6191232 11.1045518,7.75545092 C11.1045518,10.0923645 14.9776478,12.1006233 20.5107925,12.9711962 L20.5107925,12.9711962 L20.5141746,12.9803847 L20.5141746,12.9803847 C21.4102601,6.89598957 23.8298346,2.5350046 26.6730373,2.5350046 L26.6730373,2.5350046 L26.6730373,2.5350046 L26.6730373,2.5350046 L26.6730367,2.5350046 Z M28.3945998,33.3330743 C40.3349891,32.7050385 49.7501092,25.6015557 49.7501092,16.9323674 C49.7501092,13.9864368 48.6622932,11.221502 46.7589336,8.82988384 L46.7589336,8.82988384 L46.7356806,8.78372718 L46.7356806,8.78372718 C46.5917236,12.7878497 40.9721199,16.1739813 33.1914716,17.4099642 L33.1914716,17.4099642 L33.1948537,17.4061193 L33.1948537,17.4061193 C33.200135,17.6687439 33.2028813,17.9313692 33.2028813,18.1978404 C33.2028813,25.4596679 31.1407675,31.571628 28.34534,33.342691 L28.34534,33.342691 L28.3945945,33.3330813 L28.3945945,33.3330813 L28.3945945,33.3330813 L28.3945998,33.3330743 Z M26.6730367,13.4325536 C27.9470855,13.4325536 29.1856228,13.3776344 30.3706775,13.2720714 L30.3706775,13.2720714 L30.3689491,13.2739911 L30.3689491,13.2739911 C29.7792072,9.37350919 28.3468247,6.62075473 26.6730367,6.62075473 C24.9992467,6.62075473 23.5670753,9.37350919 22.97645,13.2739922 L22.97645,13.2739922 L22.9749137,13.2720724 L22.9749137,13.2720724 C24.1599684,13.3776355 25.3989282,13.4325536 26.6729791,13.4325536 L26.6729791,13.4325536 L26.6729791,13.4325536 L26.6729791,13.4325536 L26.6730367,13.4325536 Z M26.6730367,27.8767134 C28.8139986,27.8767134 30.5605068,23.3727699 30.6537296,17.723661 L30.6537296,17.723661 L30.6651372,17.7277216 L30.6651372,17.7277216 C29.3745975,17.8484563 28.0396665,17.9114952 26.67324,17.9114952 C25.3055422,17.9114952 23.9718808,17.8484563 22.6813412,17.7277216 L22.6813412,17.7277216 L22.6934017,17.723661 L22.6934017,17.723661 C22.7851441,23.3725563 24.5312293,27.8767134 26.6730383,27.8767134 L26.6730383,27.8767134 L26.6730383,27.8767134 L26.6730383,27.8767134 L26.6730367,27.8767134 Z" id="path4142"></path>
                            </g>
                        </g>
                        <g id="Group-20" transform="translate(10.395939, 0.000000)">
                            <g id="Combined-Shape-2" transform="translate(480.000000, 1.000000)" fill="#013791">
                                <path d="M20.2715071,0 C23.3770947,0.646151288 27.217286,1.71650917 31.8010045,3.17884275 C35.4667873,4.44335101 37.9412174,5.97599007 39.3461877,7.86466827 C40.9056002,9.61205857 41.6099356,12.2766313 41.6099356,15.7712425 C41.6099356,19.1207686 40.6217988,21.3640685 38.7888868,22.6146626 C37.0262308,23.9487563 34.6220534,23.8066016 31.9443696,22.5552835 L31.9443696,22.5552835 L31.9443696,9.82382614 C31.9443696,8.07726167 31.3738346,7.02743703 30.1816964,6.67354275 C29.681359,6.4720903 29.3369212,6.54167514 28.9799522,7.02743703 C28.6229819,7.37907374 28.5520519,7.93514794 28.5520519,8.77472555 L28.5520519,8.77472555 L28.5520519,40.4532121 L20.2715071,37.9410539 Z M39.9032342,25.5775664 C43.0247232,25.4440232 46.3735554,25.7765317 49.7224456,26.7630205 C52.6842531,27.6173721 54.3275421,28.6038609 54.4015567,29.8471599 C54.5526299,31.1654641 53.2091788,32.217375 50.2364974,33.2031834 L50.2364974,33.2031834 L48.7551743,33.7931825 L36.1883628,37.7302544 L30.9407214,39.3886539 L30.9407214,34.7307998 L42.1337691,31.1654641 L44.8814056,30.2450456 C45.9974191,29.9125371 46.5246979,29.5800317 46.3735808,29.191084 C46.2225076,28.858578 45.8487023,28.5935429 45.0324824,28.5377841 C45.0324824,28.5377841 43.6150523,28.0909924 42.2856592,28.4042053 C41.4141656,28.6038539 40.2023126,28.8585783 40.2023126,28.8585783 L40.2023126,28.8585783 L37.0785545,29.8471532 L30.9407214,31.75338 L30.9407214,26.9619858 C34.0208931,26.0994091 37.0154167,25.6333252 39.9032342,25.5775664 Z M18.1376642,22.3557225 L18.1376642,27.3467253 L11.7308313,29.5369662 L9.77447549,30.2347997 C9.20175685,30.4473793 8.69883114,30.7288518 8.33244653,30.930412 C7.96835699,31.2851807 8.11320845,31.6392249 8.69883114,31.9830142 L8.69883114,31.9830142 L11.5942902,32.3348782 L14.6262479,31.7712034 L16.4460661,31.0726455 L18.1376642,30.48843 L18.1376642,34.7809261 C13.7486449,35.4171683 9.45055862,35.1848134 5.21704567,34.0830927 C1.95823971,33.2452469 0.149031521,32.123023 0.00188392519,30.5895684 C-0.0595420615,29.5369697 1.3824869,28.3451241 4.13075698,27.2250804 L4.13075698,27.2250804 L5.93996624,26.5272469 L16.4460732,22.8907818 L18.1376642,22.3557225 Z" id="Combined-Shape"></path>
                            </g>
                            <g id="Group-5" transform="translate(253.000000, 0.000000)">
                                <mask id="mask-4" fill="white">
                                    <use xlink:href="#path-3"></use>
                                </mask>
                                <g id="a"></g>
                                <polygon id="Path" fill="#FBBC05" mask="url(#mask-4)" points="-1.93985714 33.8723068 -1.93985714 8.71002175 14.5489285 21.2911643"></polygon>
                                <mask id="mask-6" fill="white">
                                    <use xlink:href="#path-5"></use>
                                </mask>
                                <g id="a"></g>
                                <polygon id="Path" fill="#EA4335" mask="url(#mask-6)" points="-1.93985714 8.71002175 14.5489285 21.2911643 21.3384285 15.3877051 44.6167142 11.6133623 44.6167142 -1.93556039 -1.93985714 -1.93556039"></polygon>
                                <mask id="mask-8" fill="white">
                                    <use xlink:href="#path-7"></use>
                                </mask>
                                <g id="a"></g>
                                <polygon id="Path" fill="#34A853" mask="url(#mask-8)" points="-1.93985714 33.8723068 27.1579999 11.6133623 34.8204356 12.5811425 44.6167142 -1.93556039 44.6167142 44.517889 -1.93985714 44.517889"></polygon>
                                <mask id="mask-10" fill="white">
                                    <use xlink:href="#path-9"></use>
                                </mask>
                                <g id="a"></g>
                                <polygon id="Path" fill="#4285F4" mask="url(#mask-10)" points="44.6167142 44.517889 14.5489285 21.2911643 10.6692143 18.3878237 44.6167142 8.71002175"></polygon>
                            </g>
                            <g id="Path-2" transform="translate(0.000000, 9.000000)" fill="#000000">
                                <path d="M7.49009075,24.3806351 C5.46689354,24.2996282 3.81161336,23.7416582 2.51732145,22.7053285 C2.27031124,22.5073504 1.68171328,21.9137653 1.48424369,21.663412 C0.959390309,20.9982476 0.602559295,20.3508906 0.364556473,19.6326527 C-0.367813201,17.4217227 0.00911120977,14.5204883 1.44267115,11.3364279 C2.67010055,8.61047566 4.56407643,5.9068701 7.86840091,2.16239561 C8.35514613,1.61140897 9.80464221,0 9.81399603,0 C9.81746041,0 9.73847257,0.137921244 9.6390449,0.305870911 C8.77987897,1.75631357 8.04473779,3.46479116 7.6442556,4.94386556 C7.00092046,7.31715847 7.07852255,9.3538537 7.87151885,10.9331392 C8.41854426,12.0211458 9.3563516,12.9635495 10.4109085,13.4845077 C12.2570759,14.3961846 14.9599843,14.4716048 18.2608444,13.7051817 C18.4881076,13.6521082 29.7494173,10.63914 43.2861309,7.00954172 C56.8228446,3.37959424 67.9001957,0.412017894 67.9019279,0.414462068 C67.9057387,0.417604578 36.4522973,13.98277 20.1243337,21.0202451 C17.5385214,22.1344393 16.8470314,22.4158685 15.6313809,22.8460431 C12.5238331,23.9459213 9.74020476,24.4707204 7.49009075,24.3806351 Z" id="Path"></path>
                            </g>
                            <g id="Combined-Shape-3" transform="translate(720.000000, 0.000000)">
                                <path d="M273,0 L273,44.9003258 L273,44.9003258 L228,44.9003258 L228,44.9003258 L228,0 L228,0 L273,0 L273,0 Z M239.956745,12.5909237 C238.689577,12.5909237 237.784308,13.2639381 237.829488,14.0270434 C237.87491,14.5208363 238.237077,14.7002979 238.553795,14.7451033 C239.006322,14.7451033 239.504245,14.5208363 239.458822,13.9371926 C239.413642,13.5334906 239.096924,13.5334906 239.142078,13.2191327 C239.142078,12.9948923 239.458822,12.9050415 239.640027,12.9050415 C240.092285,12.8602361 240.318643,13.0396711 240.318643,13.4884452 L240.318643,13.4884452 L240.318643,14.4757908 C240.318643,14.7901487 240.22831,14.8349541 239.323309,15.2388961 C238.418039,15.6428648 237.557923,15.9121506 237.557923,17.2136142 C237.557923,18.6046618 238.463193,18.8291689 239.051475,18.8291689 C239.730629,18.8291689 240.22831,18.5150777 240.409272,18.0663303 L240.409272,18.0663303 L240.409272,18.7395848 L241.857375,18.7395848 L241.857375,14.2512838 C241.857375,13.4436398 241.63126,13.1295219 241.22394,12.8602361 C240.906926,12.6807745 240.545028,12.5909237 239.956745,12.5909237 Z M249.369806,11.4241163 L247.831074,11.4241163 L247.831074,15.553014 L247.826316,15.7286067 C247.747538,17.1872376 246.703333,18.5133452 245.658905,18.4700323 C244.889391,18.4700323 244.708456,17.8866286 244.618122,17.2584196 C244.48234,16.360658 244.48234,15.3285069 244.572673,14.2064784 C244.663276,13.4884452 244.844238,12.9050415 245.387341,12.9050415 C245.794688,12.9050415 245.839841,13.1743273 245.658905,13.3537889 C245.477674,13.578296 245.206405,13.8025364 245.342161,14.2963292 C245.477674,14.8349541 246.337521,14.9245383 246.745111,14.5208363 C247.061855,14.1616996 247.016675,13.578296 246.790291,13.2191327 C246.518726,12.7703853 246.066226,12.5909237 245.387341,12.5909237 C244.527493,12.5909237 242.898427,13.3537889 242.898427,15.7775211 C242.898427,18.3804215 244.572673,18.8291689 245.523123,18.8291689 C246.609328,18.8291689 247.559536,17.8866286 247.831074,17.1237633 L247.831074,17.1237633 L247.831074,18.7395848 L249.369806,18.7395848 L249.369806,14.2064784 L249.374141,14.0463473 C249.394574,13.6911092 249.488673,13.4603818 249.686524,13.2639381 C249.867756,13.1295219 250.093871,13.0844765 250.229654,13.1295219 C250.561615,13.2116651 250.589279,13.5955829 250.591584,14.0738565 L250.591584,14.0738565 L250.591794,18.7395848 L252.175599,18.7395848 L252.175599,14.3862067 L252.17102,14.2109637 C252.110235,13.0712984 251.44941,12.5053514 250.501191,12.5909237 C250.003511,12.6357291 249.596191,12.8602361 249.369806,13.1743273 L249.369806,13.1743273 L249.369806,11.4241163 Z M236.336204,2.89679521 L234.254343,2.89679521 C232.036994,2.89679521 230.905609,4.96136406 230.905609,6.89100997 C230.860429,8.82121595 231.448711,10.6162056 233.439944,10.8407127 C232.489763,11.1097585 231.629674,11.7830129 231.584494,12.8602361 C231.584494,14.1166275 232.218225,14.4757908 233.575726,15.2388961 C234.526176,15.732449 235.204792,16.0913456 235.249972,17.0789579 C235.249972,17.8418232 234.842894,18.3804215 233.983074,18.3804215 C233.304162,18.3804215 232.308559,17.9764794 231.901212,15.6428648 L231.901212,15.6428648 L231.584494,15.6428648 L231.584494,18.7395848 L233.983074,18.7395848 C235.476357,18.7395848 236.788705,17.7970178 236.788705,16.2710472 C236.788705,14.7002979 235.566959,14.2512838 234.61651,13.7126855 C233.620907,13.1743273 233.077777,12.9500869 233.077777,12.0523254 C233.077777,11.3793109 233.620907,10.9303235 234.344972,10.9753689 C235.023857,10.9753689 235.431177,11.4241163 235.657562,11.8278183 C235.883677,12.2317604 235.974306,12.5909237 236.10982,13.0844765 L236.10982,13.0844765 L236.426807,13.0844765 L236.426807,6.66676961 L233.892444,6.66676961 L233.892444,6.98088747 C234.028227,7.0256662 234.299792,7.0256662 234.480727,7.11551703 C234.707112,7.25017326 234.842894,7.51948572 234.842894,7.96823314 L234.842894,7.96823314 L234.842894,9.18011254 C234.842894,9.53900914 234.797741,10.0776074 234.571356,10.3469198 C234.435574,10.5263548 234.209189,10.6162056 233.892444,10.6162056 C233.304162,10.6162056 233.077777,10.1224128 232.987444,9.80829493 C232.851661,9.13504044 232.806239,8.1927402 232.806239,6.93608207 C232.806239,5.58957311 232.942264,4.46754454 233.213559,3.92921298 C233.485393,3.48019886 233.801842,3.166081 234.344972,3.2108864 C235.159639,3.2556918 235.747922,4.19825875 236.01946,5.45491688 L236.01946,5.45491688 L236.336204,5.45491688 L236.336204,2.89679521 Z M256.927301,12.5909237 L255.343577,12.5909237 C254.121832,12.5909237 253.352156,13.2639381 253.352156,14.3411346 C253.352156,15.1490453 253.940842,15.5079419 254.890969,16.0913456 C255.750736,16.5851651 256.112715,16.9443284 256.112715,17.527732 C256.112715,18.1111357 255.705556,18.4252269 255.162588,18.4252269 C254.302821,18.3804215 253.940842,17.6623616 253.714404,16.4953142 L253.714404,16.4953142 L253.397336,16.4953142 L253.397336,18.7395848 L255.207768,18.7395848 C256.158164,18.7395848 257.289549,18.1111357 257.289549,16.8096721 C257.289549,15.5977927 256.474962,15.3285069 255.434206,14.7451033 C254.619351,14.2963292 254.483541,13.9371926 254.528721,13.5334906 C254.574171,13.1295219 254.981598,12.8602361 255.434206,12.9050415 C256.158164,12.9500869 256.429782,13.5334906 256.610772,14.2064784 L256.610772,14.2064784 L256.927301,14.2064784 L256.927301,12.5909237 Z M240.318643,15.1042399 L240.318643,16.9443284 C240.318643,17.6175828 240.137707,18.1559144 239.77554,18.2905706 C239.504245,18.4252269 239.187258,18.3356427 239.187258,17.7970178 C239.142078,17.303225 239.142078,16.9443284 239.187258,16.5851651 C239.232707,16.1364177 239.323309,15.732449 239.82099,15.4183578 C239.82099,15.4183578 240.318643,15.1042399 240.318643,15.1042399 L240.318643,15.1042399 Z M239.77554,4.15345335 C239.232707,4.15345335 238.82536,4.3779604 238.418039,4.6920516 C237.784308,5.23067652 237.37723,6.21802219 237.37723,7.29497866 C237.37723,8.41698056 237.784308,9.35928081 238.418039,9.89814576 C238.82536,10.2122636 239.232707,10.436504 239.77554,10.436504 C240.318643,10.436504 240.771412,10.2122636 241.13331,9.89814576 C241.812222,9.35928081 242.17412,8.41698056 242.17412,7.29497866 C242.17412,6.21802219 241.812222,5.23067652 241.13331,4.6920516 C240.771412,4.3779604 240.318643,4.15345335 239.77554,4.15345335 Z M262.358066,4.15345335 C261.090872,4.15345335 260.185925,4.82644113 260.231105,5.63461854 C260.276285,6.12817136 260.638264,6.30760632 260.955332,6.30760632 C261.407671,6.35241172 261.905459,6.12817136 261.860278,5.49996231 C261.814829,5.09602029 261.498031,5.09602029 261.54348,4.82644113 C261.54348,4.60220077 261.860278,4.51234994 262.041268,4.46754454 C262.494145,4.46754454 262.720045,4.64727287 262.720045,5.05094819 L262.720045,5.05094819 L262.720045,6.03832053 C262.720045,6.39721712 262.629685,6.44252925 261.769918,6.80142584 C260.819522,7.20539453 259.959487,7.47441362 259.959487,8.77614385 C259.959487,10.1674582 260.909882,10.436504 261.452851,10.436504 C262.131897,10.436504 262.629685,10.1224128 262.810674,9.62885997 L262.810674,9.62885997 L262.810674,10.3018477 L264.304038,10.3018477 L264.304038,5.8588589 C264.304038,5.05094819 264.03242,4.6920516 263.625261,4.46754454 C263.308462,4.28810958 262.946484,4.15345335 262.358066,4.15345335 Z M250.410858,3.03145144 L248.826704,3.03145144 L248.826704,4.736857 L248.774873,4.63566294 C248.61907,4.37564704 248.323899,4.19825875 247.921676,4.19825875 C246.790291,4.19825875 245.885021,5.36506605 245.839841,7.16032243 C245.794688,8.37220183 246.202008,10.3916986 247.785894,10.3916986 C248.419356,10.3916986 248.781523,10.032802 248.917306,9.7184441 L248.917,9.719 L248.917306,10.3018477 L250.410858,10.3018477 L250.410858,3.03145144 Z M268.569336,4.15144973 L268.422421,4.15345335 C267.834004,4.19825875 267.381396,4.55739537 267.200406,4.96136406 L267.200406,4.96136406 L267.200406,4.28810958 L265.752222,4.28810958 L265.752222,10.3018477 L267.290767,10.3018477 L267.290767,5.76927477 C267.290767,5.32026065 267.381396,5.05094819 267.607565,4.82644113 C267.788823,4.6920516 268.014993,4.64727287 268.150802,4.6920516 C268.512781,4.78190243 268.512781,5.23067652 268.512781,5.76927477 L268.512781,10.3018477 L270.096774,10.3018477 L270.096774,5.94870973 C270.096774,4.6920516 269.417997,4.10864794 268.422421,4.15345335 Z M254.68043,4.14867643 L254.528721,4.15345335 C253.940842,4.19825875 253.487965,4.55739537 253.306976,4.96136406 L253.306976,4.96136406 L253.306976,4.28810958 L251.904241,4.28810958 L251.904241,10.3018477 L253.442785,10.3018477 L253.442785,5.76927477 L253.444707,5.62607397 C253.455621,5.26096659 253.518145,5.02600296 253.759584,4.82644113 C253.940842,4.6920516 254.121832,4.64727287 254.257372,4.6920516 C254.619351,4.78190243 254.619351,5.23067652 254.619351,5.76927477 L254.619351,10.3018477 L256.158164,10.3018477 L256.158164,5.72446937 L256.162489,5.5790384 C256.18288,5.25363262 256.276829,5.0228848 256.474962,4.82644113 C256.655952,4.6920516 256.836941,4.64727287 256.97275,4.6920516 C257.334729,4.78190243 257.379909,5.23067652 257.379909,5.76927477 L257.379909,5.76927477 L257.379909,10.3018477 L258.918722,10.3018477 L258.918722,5.94870973 L258.913675,5.76525479 C258.850026,4.63528175 258.189897,4.11088821 257.2441,4.15345335 C256.565323,4.19825875 256.158164,4.64727287 255.976905,5.00616946 C255.750736,4.3779604 255.252948,4.10864794 254.528721,4.15345335 Z M244.799058,3.03145144 L243.215172,3.03145144 L243.215172,10.3018477 L244.799058,10.3018477 L244.799058,3.03145144 Z M239.77554,4.46754454 C240.092285,4.46754454 240.22831,4.60220077 240.363823,4.82644113 C240.590477,5.27545525 240.545028,6.21802219 240.545028,7.29497866 L240.545028,7.29497866 L240.544368,7.79608492 C240.540739,8.68258796 240.51715,9.38378427 240.363823,9.7635162 C240.22831,9.98775656 240.092285,10.1224128 239.77554,10.1224128 C239.504245,10.1224128 239.323309,9.98775656 239.232707,9.7635162 C239.041151,9.38378427 239.01168,8.68258796 239.007147,7.79608492 L239.007147,7.79608492 L239.007147,6.80877211 C239.01168,5.93968331 239.041151,5.20637615 239.232707,4.82644113 C239.323309,4.60220077 239.504245,4.46754454 239.77554,4.46754454 Z M248.102638,4.55739537 C248.329023,4.55739537 248.419356,4.64727287 248.555139,4.78190243 C248.872126,5.23067652 248.872126,6.30760632 248.872126,7.16032243 C248.872126,8.05781727 248.917306,9.22489127 248.555139,9.7184441 C248.419356,9.89814576 248.283843,9.98775656 248.057458,9.98775656 C247.74074,9.98775656 247.559536,9.62885997 247.469176,9.04545631 C247.423754,8.50683139 247.423754,7.83357691 247.423754,7.11551703 C247.423754,5.903931 247.514356,4.55739537 248.102638,4.55739537 Z M262.720045,6.71157501 L262.720045,8.55163679 C262.720045,9.18011254 262.539325,9.7635162 262.222257,9.89814576 C261.950908,9.98775656 261.63384,9.89814576 261.58866,9.40435291 C261.54348,8.86599468 261.54348,8.55163679 261.58866,8.1927402 C261.63384,7.74372608 261.724469,7.34002409 262.222257,7.0256662 C262.222257,7.0256662 262.720045,6.71157501 262.720045,6.71157501 L262.720045,6.71157501 Z" id="Combined-Shape" fill="#64A8F0"></path>
                                <g id="Slack_Mark" fill-rule="nonzero">
                                    <g id="Group" transform="translate(0.000000, 23.064516)" fill="#E01E5A">
                                        <path d="M9.36774194,4.68387097 C9.36774194,7.20322581 7.30967742,9.26129032 4.79032258,9.26129032 C2.27096774,9.26129032 0.212903226,7.20322581 0.212903226,4.68387097 C0.212903226,2.16451613 2.27096774,0.106451613 4.79032258,0.106451613 L9.36774194,0.106451613 L9.36774194,4.68387097 Z" id="Path"></path>
                                        <path d="M11.6741935,4.68387097 C11.6741935,2.16451613 13.7322581,0.106451613 16.2516129,0.106451613 C18.7709677,0.106451613 20.8290323,2.16451613 20.8290323,4.68387097 L20.8290323,16.1451613 C20.8290323,18.6645161 18.7709677,20.7225806 16.2516129,20.7225806 C13.7322581,20.7225806 11.6741935,18.6645161 11.6741935,16.1451613 L11.6741935,4.68387097 Z" id="Path"></path>
                                    </g>
                                    <g id="Group" fill="#36C5F0">
                                        <path d="M16.2516129,9.36774194 C13.7322581,9.36774194 11.6741935,7.30967742 11.6741935,4.79032258 C11.6741935,2.27096774 13.7322581,0.212903226 16.2516129,0.212903226 C18.7709677,0.212903226 20.8290323,2.27096774 20.8290323,4.79032258 L20.8290323,9.36774194 L16.2516129,9.36774194 Z" id="Path"></path>
                                        <path d="M16.2516129,11.6741935 C18.7709677,11.6741935 20.8290323,13.7322581 20.8290323,16.2516129 C20.8290323,18.7709677 18.7709677,20.8290323 16.2516129,20.8290323 L4.79032258,20.8290323 C2.27096774,20.8290323 0.212903226,18.7709677 0.212903226,16.2516129 C0.212903226,13.7322581 2.27096774,11.6741935 4.79032258,11.6741935 L16.2516129,11.6741935 Z" id="Path"></path>
                                    </g>
                                    <g id="Group" transform="translate(23.064516, 0.000000)" fill="#2EB67D">
                                        <path d="M11.5677419,16.2516129 C11.5677419,13.7322581 13.6258065,11.6741935 16.1451613,11.6741935 C18.6645161,11.6741935 20.7225806,13.7322581 20.7225806,16.2516129 C20.7225806,18.7709677 18.6645161,20.8290323 16.1451613,20.8290323 L11.5677419,20.8290323 L11.5677419,16.2516129 Z" id="Path"></path>
                                        <path d="M9.26129032,16.2516129 C9.26129032,18.7709677 7.20322581,20.8290323 4.68387097,20.8290323 C2.16451613,20.8290323 0.106451613,18.7709677 0.106451613,16.2516129 L0.106451613,4.79032258 C0.106451613,2.27096774 2.16451613,0.212903226 4.68387097,0.212903226 C7.20322581,0.212903226 9.26129032,2.27096774 9.26129032,4.79032258 L9.26129032,16.2516129 Z" id="Path"></path>
                                    </g>
                                    <g id="Group" transform="translate(23.064516, 23.064516)" fill="#ECB22E">
                                        <path d="M4.68387097,11.5677419 C7.20322581,11.5677419 9.26129032,13.6258065 9.26129032,16.1451613 C9.26129032,18.6645161 7.20322581,20.7225806 4.68387097,20.7225806 C2.16451613,20.7225806 0.106451613,18.6645161 0.106451613,16.1451613 L0.106451613,11.5677419 L4.68387097,11.5677419 Z" id="Path"></path>
                                        <path d="M4.68387097,9.26129032 C2.16451613,9.26129032 0.106451613,7.20322581 0.106451613,4.68387097 C0.106451613,2.16451613 2.16451613,0.106451613 4.68387097,0.106451613 L16.1451613,0.106451613 C18.6645161,0.106451613 20.7225806,2.16451613 20.7225806,4.68387097 C20.7225806,7.20322581 18.6645161,9.26129032 16.1451613,9.26129032 L4.68387097,9.26129032 Z" id="Path"></path>
                                    </g>
                                </g>
                            </g>
                        </g>
                    </g>
                </g>
            </g>
        </g>
    </g>
</svg>