<?xml version="1.0" encoding="UTF-8"?>
<svg width="1440px" height="970px" viewBox="0 0 1440 970" version="1.1" xmlns="http://www.w3.org/2000/svg" xmlns:xlink="http://www.w3.org/1999/xlink">
    <!-- Generator: Sketch 63.1 (92452) - https://sketch.com -->
    <title>Group 3</title>
    <desc>Created with Sketch.</desc>
    <defs>
        <linearGradient x1="0%" y1="0%" x2="100%" y2="100%" id="linearGradient-1">
            <stop stop-color="#AEC5DA" offset="0%"></stop>
            <stop stop-color="#4E5F8D" offset="100%"></stop>
        </linearGradient>
    </defs>
    <g id="V3" stroke="none" stroke-width="1" fill="none" fill-rule="evenodd">
        <g id="Thank-You-Copy-4">
            <g id="Group-3" transform="translate(-275.000000, 0.000000)">
                <rect id="Rectangle" stroke="#979797" fill="#FFFFFF" x="274" y="0" width="1441" height="970"></rect>
                <g id="Group" transform="translate(0.000000, 402.000000)">
                    <circle id="Oval" fill="url(#linearGradient-1)" cx="274.5" cy="567.5" r="274.5"></circle>
                    <polygon id="Path-5" fill="#F1F1F1" points="275 568 1715 184 1715 568"></polygon>
                    <g id="Combined-Shape-8" transform="translate(1395.000000, 0.000000)" fill="#000000">
                        <path d="M152.458685,715.007307 C153.848059,715.007307 154.97437,716.124959 154.97437,717.503653 C154.97437,718.882348 153.848059,720 152.458685,720 C151.069311,720 149.943,718.882348 149.943,717.503653 C149.943,716.124959 151.069311,715.007307 152.458685,715.007307 Z M2.51568488,715.007307 C3.90505928,715.007307 5.03136977,716.124959 5.03136977,717.503653 C5.03136977,718.882348 3.90505928,720 2.51568488,720 C1.12631049,720 0,718.882348 0,717.503653 C0,716.124959 1.12631049,715.007307 2.51568488,715.007307 Z M32.2457625,715.007307 C33.6351369,715.007307 34.7614474,716.124959 34.7614474,717.503653 C34.7614474,718.882348 33.6351369,720 32.2457625,720 C30.8563881,720 29.7300776,718.882348 29.7300776,717.503653 C29.7300776,716.124959 30.8563881,715.007307 32.2457625,715.007307 Z M61.9758401,715.007307 C63.3652145,715.007307 64.491525,716.124959 64.491525,717.503653 C64.491525,718.882348 63.3652145,720 61.9758401,720 C60.5864657,720 59.4601552,718.882348 59.4601552,717.503653 C59.4601552,716.124959 60.5864657,715.007307 61.9758401,715.007307 Z M92.9985298,715.007307 C94.3879042,715.007307 95.5142147,716.124959 95.5142147,717.503653 C95.5142147,718.882348 94.3879042,720 92.9985298,720 C91.6091554,720 90.4828449,718.882348 90.4828449,717.503653 C90.4828449,716.124959 91.6091554,715.007307 92.9985298,715.007307 Z M122.728607,715.007307 C124.117982,715.007307 125.244292,716.124959 125.244292,717.503653 C125.244292,718.882348 124.117982,720 122.728607,720 C121.339233,720 120.212923,718.882348 120.212923,717.503653 C120.212923,716.124959 121.339233,715.007307 122.728607,715.007307 Z M2.51568488,683.741025 C3.90505928,683.741025 5.03136977,684.858677 5.03136977,686.237372 C5.03136977,687.616066 3.90505928,688.733718 2.51568488,688.733718 C1.12631049,688.733718 0,687.616066 0,686.237372 C0,684.858677 1.12631049,683.741025 2.51568488,683.741025 Z M32.2457625,683.741025 C33.6351369,683.741025 34.7614474,684.858677 34.7614474,686.237372 C34.7614474,687.616066 33.6351369,688.733718 32.2457625,688.733718 C30.8563881,688.733718 29.7300776,687.616066 29.7300776,686.237372 C29.7300776,684.858677 30.8563881,683.741025 32.2457625,683.741025 Z M61.9758401,683.741025 C63.3652145,683.741025 64.491525,684.858677 64.491525,686.237372 C64.491525,687.616066 63.3652145,688.733718 61.9758401,688.733718 C60.5864657,688.733718 59.4601552,687.616066 59.4601552,686.237372 C59.4601552,684.858677 60.5864657,683.741025 61.9758401,683.741025 Z M92.9985298,683.741025 C94.3879042,683.741025 95.5142147,684.858677 95.5142147,686.237372 C95.5142147,687.616066 94.3879042,688.733718 92.9985298,688.733718 C91.6091554,688.733718 90.4828449,687.616066 90.4828449,686.237372 C90.4828449,684.858677 91.6091554,683.741025 92.9985298,683.741025 Z M122.728607,683.741025 C124.117982,683.741025 125.244292,684.858677 125.244292,686.237372 C125.244292,687.616066 124.117982,688.733718 122.728607,688.733718 C121.339233,688.733718 120.212923,687.616066 120.212923,686.237372 C120.212923,684.858677 121.339233,683.741025 122.728607,683.741025 Z M152.458685,683.741025 C153.848059,683.741025 154.97437,684.858677 154.97437,686.237372 C154.97437,687.616066 153.848059,688.733718 152.458685,688.733718 C151.069311,688.733718 149.943,687.616066 149.943,686.237372 C149.943,684.858677 151.069311,683.741025 152.458685,683.741025 Z M2.51568488,652.474743 C3.90505928,652.474743 5.03136977,653.592395 5.03136977,654.97109 C5.03136977,656.349784 3.90505928,657.467436 2.51568488,657.467436 C1.12631049,657.467436 0,656.349784 0,654.97109 C0,653.592395 1.12631049,652.474743 2.51568488,652.474743 Z M32.2457625,652.474743 C33.6351369,652.474743 34.7614474,653.592395 34.7614474,654.97109 C34.7614474,656.349784 33.6351369,657.467436 32.2457625,657.467436 C30.8563881,657.467436 29.7300776,656.349784 29.7300776,654.97109 C29.7300776,653.592395 30.8563881,652.474743 32.2457625,652.474743 Z M61.9758401,652.474743 C63.3652145,652.474743 64.491525,653.592395 64.491525,654.97109 C64.491525,656.349784 63.3652145,657.467436 61.9758401,657.467436 C60.5864657,657.467436 59.4601552,656.349784 59.4601552,654.97109 C59.4601552,653.592395 60.5864657,652.474743 61.9758401,652.474743 Z M92.9985298,652.474743 C94.3879042,652.474743 95.5142147,653.592395 95.5142147,654.97109 C95.5142147,656.349784 94.3879042,657.467436 92.9985298,657.467436 C91.6091554,657.467436 90.4828449,656.349784 90.4828449,654.97109 C90.4828449,653.592395 91.6091554,652.474743 92.9985298,652.474743 Z M122.728607,652.474743 C124.117982,652.474743 125.244292,653.592395 125.244292,654.97109 C125.244292,656.349784 124.117982,657.467436 122.728607,657.467436 C121.339233,657.467436 120.212923,656.349784 120.212923,654.97109 C120.212923,653.592395 121.339233,652.474743 122.728607,652.474743 Z M152.458685,652.474743 C153.848059,652.474743 154.97437,653.592395 154.97437,654.97109 C154.97437,656.349784 153.848059,657.467436 152.458685,657.467436 C151.069311,657.467436 149.943,656.349784 149.943,654.97109 C149.943,653.592395 151.069311,652.474743 152.458685,652.474743 Z M2.51568488,621.208461 C3.90505928,621.208461 5.03136977,622.326114 5.03136977,623.704808 C5.03136977,625.083502 3.90505928,626.201154 2.51568488,626.201154 C1.12631049,626.201154 0,625.083502 0,623.704808 C0,622.326114 1.12631049,621.208461 2.51568488,621.208461 Z M32.2457625,621.208461 C33.6351369,621.208461 34.7614474,622.326114 34.7614474,623.704808 C34.7614474,625.083502 33.6351369,626.201154 32.2457625,626.201154 C30.8563881,626.201154 29.7300776,625.083502 29.7300776,623.704808 C29.7300776,622.326114 30.8563881,621.208461 32.2457625,621.208461 Z M61.9758401,621.208461 C63.3652145,621.208461 64.491525,622.326114 64.491525,623.704808 C64.491525,625.083502 63.3652145,626.201154 61.9758401,626.201154 C60.5864657,626.201154 59.4601552,625.083502 59.4601552,623.704808 C59.4601552,622.326114 60.5864657,621.208461 61.9758401,621.208461 Z M92.9985298,621.208461 C94.3879042,621.208461 95.5142147,622.326114 95.5142147,623.704808 C95.5142147,625.083502 94.3879042,626.201154 92.9985298,626.201154 C91.6091554,626.201154 90.4828449,625.083502 90.4828449,623.704808 C90.4828449,622.326114 91.6091554,621.208461 92.9985298,621.208461 Z M122.728607,621.208461 C124.117982,621.208461 125.244292,622.326114 125.244292,623.704808 C125.244292,625.083502 124.117982,626.201154 122.728607,626.201154 C121.339233,626.201154 120.212923,625.083502 120.212923,623.704808 C120.212923,622.326114 121.339233,621.208461 122.728607,621.208461 Z M152.458685,621.208461 C153.848059,621.208461 154.97437,622.326114 154.97437,623.704808 C154.97437,625.083502 153.848059,626.201154 152.458685,626.201154 C151.069311,626.201154 149.943,625.083502 149.943,623.704808 C149.943,622.326114 151.069311,621.208461 152.458685,621.208461 Z M2.51568488,589.942179 C3.90505928,589.942179 5.03136977,591.059832 5.03136977,592.438526 C5.03136977,593.81722 3.90505928,594.934873 2.51568488,594.934873 C1.12631049,594.934873 0,593.81722 0,592.438526 C0,591.059832 1.12631049,589.942179 2.51568488,589.942179 Z M32.2457625,589.942179 C33.6351369,589.942179 34.7614474,591.059832 34.7614474,592.438526 C34.7614474,593.81722 33.6351369,594.934873 32.2457625,594.934873 C30.8563881,594.934873 29.7300776,593.81722 29.7300776,592.438526 C29.7300776,591.059832 30.8563881,589.942179 32.2457625,589.942179 Z M61.9758401,589.942179 C63.3652145,589.942179 64.491525,591.059832 64.491525,592.438526 C64.491525,593.81722 63.3652145,594.934873 61.9758401,594.934873 C60.5864657,594.934873 59.4601552,593.81722 59.4601552,592.438526 C59.4601552,591.059832 60.5864657,589.942179 61.9758401,589.942179 Z M92.9985298,589.942179 C94.3879042,589.942179 95.5142147,591.059832 95.5142147,592.438526 C95.5142147,593.81722 94.3879042,594.934873 92.9985298,594.934873 C91.6091554,594.934873 90.4828449,593.81722 90.4828449,592.438526 C90.4828449,591.059832 91.6091554,589.942179 92.9985298,589.942179 Z M122.728607,589.942179 C124.117982,589.942179 125.244292,591.059832 125.244292,592.438526 C125.244292,593.81722 124.117982,594.934873 122.728607,594.934873 C121.339233,594.934873 120.212923,593.81722 120.212923,592.438526 C120.212923,591.059832 121.339233,589.942179 122.728607,589.942179 Z M152.458685,589.942179 C153.848059,589.942179 154.97437,591.059832 154.97437,592.438526 C154.97437,593.81722 153.848059,594.934873 152.458685,594.934873 C151.069311,594.934873 149.943,593.81722 149.943,592.438526 C149.943,591.059832 151.069311,589.942179 152.458685,589.942179 Z M2.51568488,558.675897 C3.90505928,558.675897 5.03136977,559.79355 5.03136977,561.172244 C5.03136977,562.550938 3.90505928,563.668591 2.51568488,563.668591 C1.12631049,563.668591 0,562.550938 0,561.172244 C0,559.79355 1.12631049,558.675897 2.51568488,558.675897 Z M32.2457625,558.675897 C33.6351369,558.675897 34.7614474,559.79355 34.7614474,561.172244 C34.7614474,562.550938 33.6351369,563.668591 32.2457625,563.668591 C30.8563881,563.668591 29.7300776,562.550938 29.7300776,561.172244 C29.7300776,559.79355 30.8563881,558.675897 32.2457625,558.675897 Z M61.9758401,558.675897 C63.3652145,558.675897 64.491525,559.79355 64.491525,561.172244 C64.491525,562.550938 63.3652145,563.668591 61.9758401,563.668591 C60.5864657,563.668591 59.4601552,562.550938 59.4601552,561.172244 C59.4601552,559.79355 60.5864657,558.675897 61.9758401,558.675897 Z M92.9985298,558.675897 C94.3879042,558.675897 95.5142147,559.79355 95.5142147,561.172244 C95.5142147,562.550938 94.3879042,563.668591 92.9985298,563.668591 C91.6091554,563.668591 90.4828449,562.550938 90.4828449,561.172244 C90.4828449,559.79355 91.6091554,558.675897 92.9985298,558.675897 Z M122.728607,558.675897 C124.117982,558.675897 125.244292,559.79355 125.244292,561.172244 C125.244292,562.550938 124.117982,563.668591 122.728607,563.668591 C121.339233,563.668591 120.212923,562.550938 120.212923,561.172244 C120.212923,559.79355 121.339233,558.675897 122.728607,558.675897 Z M152.458685,558.675897 C153.848059,558.675897 154.97437,559.79355 154.97437,561.172244 C154.97437,562.550938 153.848059,563.668591 152.458685,563.668591 C151.069311,563.668591 149.943,562.550938 149.943,561.172244 C149.943,559.79355 151.069311,558.675897 152.458685,558.675897 Z M152.4715,526.789253 C153.867952,526.789253 155,527.906905 155,529.2856 C155,530.664294 153.867952,531.781946 152.4715,531.781946 C151.075048,531.781946 149.943,530.664294 149.943,529.2856 C149.943,527.906905 151.075048,526.789253 152.4715,526.789253 Z M122.741422,526.789253 C124.137874,526.789253 125.269922,527.906905 125.269922,529.2856 C125.269922,530.664294 124.137874,531.781946 122.741422,531.781946 C121.344971,531.781946 120.212923,530.664294 120.212923,529.2856 C120.212923,527.906905 121.344971,526.789253 122.741422,526.789253 Z M93.0113448,526.789253 C94.4077968,526.789253 95.5398448,527.906905 95.5398448,529.2856 C95.5398448,530.664294 94.4077968,531.781946 93.0113448,531.781946 C91.6148929,531.781946 90.4828449,530.664294 90.4828449,529.2856 C90.4828449,527.906905 91.6148929,526.789253 93.0113448,526.789253 Z M2.52849993,526.789253 C3.92495189,526.789253 5.05699987,527.906905 5.05699987,529.2856 C5.05699987,530.664294 3.92495189,531.781946 2.52849993,531.781946 C1.13204798,531.781946 0,530.664294 0,529.2856 C0,527.906905 1.13204798,526.789253 2.52849993,526.789253 Z M61.9886552,526.789253 C63.3851071,526.789253 64.5171551,527.906905 64.5171551,529.2856 C64.5171551,530.664294 63.3851071,531.781946 61.9886552,531.781946 C60.5922032,531.781946 59.4601552,530.664294 59.4601552,529.2856 C59.4601552,527.906905 60.5922032,526.789253 61.9886552,526.789253 Z M32.2585775,526.789253 C33.6550295,526.789253 34.7870775,527.906905 34.7870775,529.2856 C34.7870775,530.664294 33.6550295,531.781946 32.2585775,531.781946 C30.8621256,531.781946 29.7300776,530.664294 29.7300776,529.2856 C29.7300776,527.906905 30.8621256,526.789253 32.2585775,526.789253 Z M32.2585775,495.522971 C33.6550295,495.522971 34.7870775,496.640624 34.7870775,498.019318 C34.7870775,499.398012 33.6550295,500.515664 32.2585775,500.515664 C30.8621256,500.515664 29.7300776,499.398012 29.7300776,498.019318 C29.7300776,496.640624 30.8621256,495.522971 32.2585775,495.522971 Z M61.9886552,495.522971 C63.3851071,495.522971 64.5171551,496.640624 64.5171551,498.019318 C64.5171551,499.398012 63.3851071,500.515664 61.9886552,500.515664 C60.5922032,500.515664 59.4601552,499.398012 59.4601552,498.019318 C59.4601552,496.640624 60.5922032,495.522971 61.9886552,495.522971 Z M2.52849993,495.522971 C3.92495189,495.522971 5.05699987,496.640624 5.05699987,498.019318 C5.05699987,499.398012 3.92495189,500.515664 2.52849993,500.515664 C1.13204798,500.515664 0,499.398012 0,498.019318 C0,496.640624 1.13204798,495.522971 2.52849993,495.522971 Z M93.0113448,495.522971 C94.4077968,495.522971 95.5398448,496.640624 95.5398448,498.019318 C95.5398448,499.398012 94.4077968,500.515664 93.0113448,500.515664 C91.6148929,500.515664 90.4828449,499.398012 90.4828449,498.019318 C90.4828449,496.640624 91.6148929,495.522971 93.0113448,495.522971 Z M122.741422,495.522971 C124.137874,495.522971 125.269922,496.640624 125.269922,498.019318 C125.269922,499.398012 124.137874,500.515664 122.741422,500.515664 C121.344971,500.515664 120.212923,499.398012 120.212923,498.019318 C120.212923,496.640624 121.344971,495.522971 122.741422,495.522971 Z M152.4715,495.522971 C153.867952,495.522971 155,496.640624 155,498.019318 C155,499.398012 153.867952,500.515664 152.4715,500.515664 C151.075048,500.515664 149.943,499.398012 149.943,498.019318 C149.943,496.640624 151.075048,495.522971 152.4715,495.522971 Z M32.2585775,464.256689 C33.6550295,464.256689 34.7870775,465.374342 34.7870775,466.753036 C34.7870775,468.13173 33.6550295,469.249383 32.2585775,469.249383 C30.8621256,469.249383 29.7300776,468.13173 29.7300776,466.753036 C29.7300776,465.374342 30.8621256,464.256689 32.2585775,464.256689 Z M61.9886552,464.256689 C63.3851071,464.256689 64.5171551,465.374342 64.5171551,466.753036 C64.5171551,468.13173 63.3851071,469.249383 61.9886552,469.249383 C60.5922032,469.249383 59.4601552,468.13173 59.4601552,466.753036 C59.4601552,465.374342 60.5922032,464.256689 61.9886552,464.256689 Z M93.0113448,464.256689 C94.4077968,464.256689 95.5398448,465.374342 95.5398448,466.753036 C95.5398448,468.13173 94.4077968,469.249383 93.0113448,469.249383 C91.6148929,469.249383 90.4828449,468.13173 90.4828449,466.753036 C90.4828449,465.374342 91.6148929,464.256689 93.0113448,464.256689 Z M122.741422,464.256689 C124.137874,464.256689 125.269922,465.374342 125.269922,466.753036 C125.269922,468.13173 124.137874,469.249383 122.741422,469.249383 C121.344971,469.249383 120.212923,468.13173 120.212923,466.753036 C120.212923,465.374342 121.344971,464.256689 122.741422,464.256689 Z M2.52849993,464.256689 C3.92495189,464.256689 5.05699987,465.374342 5.05699987,466.753036 C5.05699987,468.13173 3.92495189,469.249383 2.52849993,469.249383 C1.13204798,469.249383 0,468.13173 0,466.753036 C0,465.374342 1.13204798,464.256689 2.52849993,464.256689 Z M152.4715,464.256689 C153.867952,464.256689 155,465.374342 155,466.753036 C155,468.13173 153.867952,469.249383 152.4715,469.249383 C151.075048,469.249383 149.943,468.13173 149.943,466.753036 C149.943,465.374342 151.075048,464.256689 152.4715,464.256689 Z M61.9886552,432.990407 C63.3851071,432.990407 64.5171551,434.10806 64.5171551,435.486754 C64.5171551,436.865448 63.3851071,437.983101 61.9886552,437.983101 C60.5922032,437.983101 59.4601552,436.865448 59.4601552,435.486754 C59.4601552,434.10806 60.5922032,432.990407 61.9886552,432.990407 Z M32.2585775,432.990407 C33.6550295,432.990407 34.7870775,434.10806 34.7870775,435.486754 C34.7870775,436.865448 33.6550295,437.983101 32.2585775,437.983101 C30.8621256,437.983101 29.7300776,436.865448 29.7300776,435.486754 C29.7300776,434.10806 30.8621256,432.990407 32.2585775,432.990407 Z M93.0113448,432.990407 C94.4077968,432.990407 95.5398448,434.10806 95.5398448,435.486754 C95.5398448,436.865448 94.4077968,437.983101 93.0113448,437.983101 C91.6148929,437.983101 90.4828449,436.865448 90.4828449,435.486754 C90.4828449,434.10806 91.6148929,432.990407 93.0113448,432.990407 Z M122.741422,432.990407 C124.137874,432.990407 125.269922,434.10806 125.269922,435.486754 C125.269922,436.865448 124.137874,437.983101 122.741422,437.983101 C121.344971,437.983101 120.212923,436.865448 120.212923,435.486754 C120.212923,434.10806 121.344971,432.990407 122.741422,432.990407 Z M2.52849993,432.990407 C3.92495189,432.990407 5.05699987,434.10806 5.05699987,435.486754 C5.05699987,436.865448 3.92495189,437.983101 2.52849993,437.983101 C1.13204798,437.983101 0,436.865448 0,435.486754 C0,434.10806 1.13204798,432.990407 2.52849993,432.990407 Z M152.4715,432.990407 C153.867952,432.990407 155,434.10806 155,435.486754 C155,436.865448 153.867952,437.983101 152.4715,437.983101 C151.075048,437.983101 149.943,436.865448 149.943,435.486754 C149.943,434.10806 151.075048,432.990407 152.4715,432.990407 Z M61.9886552,401.724126 C63.3851071,401.724126 64.5171551,402.841778 64.5171551,404.220472 C64.5171551,405.599166 63.3851071,406.716819 61.9886552,406.716819 C60.5922032,406.716819 59.4601552,405.599166 59.4601552,404.220472 C59.4601552,402.841778 60.5922032,401.724126 61.9886552,401.724126 Z M32.2585775,401.724126 C33.6550295,401.724126 34.7870775,402.841778 34.7870775,404.220472 C34.7870775,405.599166 33.6550295,406.716819 32.2585775,406.716819 C30.8621256,406.716819 29.7300776,405.599166 29.7300776,404.220472 C29.7300776,402.841778 30.8621256,401.724126 32.2585775,401.724126 Z M93.0113448,401.724126 C94.4077968,401.724126 95.5398448,402.841778 95.5398448,404.220472 C95.5398448,405.599166 94.4077968,406.716819 93.0113448,406.716819 C91.6148929,406.716819 90.4828449,405.599166 90.4828449,404.220472 C90.4828449,402.841778 91.6148929,401.724126 93.0113448,401.724126 Z M2.52849993,401.724126 C3.92495189,401.724126 5.05699987,402.841778 5.05699987,404.220472 C5.05699987,405.599166 3.92495189,406.716819 2.52849993,406.716819 C1.13204798,406.716819 0,405.599166 0,404.220472 C0,402.841778 1.13204798,401.724126 2.52849993,401.724126 Z M122.741422,401.724126 C124.137874,401.724126 125.269922,402.841778 125.269922,404.220472 C125.269922,405.599166 124.137874,406.716819 122.741422,406.716819 C121.344971,406.716819 120.212923,405.599166 120.212923,404.220472 C120.212923,402.841778 121.344971,401.724126 122.741422,401.724126 Z M152.4715,401.724126 C153.867952,401.724126 155,402.841778 155,404.220472 C155,405.599166 153.867952,406.716819 152.4715,406.716819 C151.075048,406.716819 149.943,405.599166 149.943,404.220472 C149.943,402.841778 151.075048,401.724126 152.4715,401.724126 Z M61.9886552,370.457844 C63.3851071,370.457844 64.5171551,371.575496 64.5171551,372.95419 C64.5171551,374.332885 63.3851071,375.450537 61.9886552,375.450537 C60.5922032,375.450537 59.4601552,374.332885 59.4601552,372.95419 C59.4601552,371.575496 60.5922032,370.457844 61.9886552,370.457844 Z M32.2585775,370.457844 C33.6550295,370.457844 34.7870775,371.575496 34.7870775,372.95419 C34.7870775,374.332885 33.6550295,375.450537 32.2585775,375.450537 C30.8621256,375.450537 29.7300776,374.332885 29.7300776,372.95419 C29.7300776,371.575496 30.8621256,370.457844 32.2585775,370.457844 Z M2.52849993,370.457844 C3.92495189,370.457844 5.05699987,371.575496 5.05699987,372.95419 C5.05699987,374.332885 3.92495189,375.450537 2.52849993,375.450537 C1.13204798,375.450537 0,374.332885 0,372.95419 C0,371.575496 1.13204798,370.457844 2.52849993,370.457844 Z M122.741422,370.457844 C124.137874,370.457844 125.269922,371.575496 125.269922,372.95419 C125.269922,374.332885 124.137874,375.450537 122.741422,375.450537 C121.344971,375.450537 120.212923,374.332885 120.212923,372.95419 C120.212923,371.575496 121.344971,370.457844 122.741422,370.457844 Z M152.4715,370.457844 C153.867952,370.457844 155,371.575496 155,372.95419 C155,374.332885 153.867952,375.450537 152.4715,375.450537 C151.075048,375.450537 149.943,374.332885 149.943,372.95419 C149.943,371.575496 151.075048,370.457844 152.4715,370.457844 Z M93.0113448,370.457844 C94.4077968,370.457844 95.5398448,371.575496 95.5398448,372.95419 C95.5398448,374.332885 94.4077968,375.450537 93.0113448,375.450537 C91.6148929,375.450537 90.4828449,374.332885 90.4828449,372.95419 C90.4828449,371.575496 91.6148929,370.457844 93.0113448,370.457844 Z M152.458685,344.549463 C153.848059,344.549463 154.97437,345.667115 154.97437,347.04581 C154.97437,348.424504 153.848059,349.542156 152.458685,349.542156 C151.069311,349.542156 149.943,348.424504 149.943,347.04581 C149.943,345.667115 151.069311,344.549463 152.458685,344.549463 Z M2.51568488,344.549463 C3.90505928,344.549463 5.03136977,345.667115 5.03136977,347.04581 C5.03136977,348.424504 3.90505928,349.542156 2.51568488,349.542156 C1.12631049,349.542156 0,348.424504 0,347.04581 C0,345.667115 1.12631049,344.549463 2.51568488,344.549463 Z M32.2457625,344.549463 C33.6351369,344.549463 34.7614474,345.667115 34.7614474,347.04581 C34.7614474,348.424504 33.6351369,349.542156 32.2457625,349.542156 C30.8563881,349.542156 29.7300776,348.424504 29.7300776,347.04581 C29.7300776,345.667115 30.8563881,344.549463 32.2457625,344.549463 Z M61.9758401,344.549463 C63.3652145,344.549463 64.491525,345.667115 64.491525,347.04581 C64.491525,348.424504 63.3652145,349.542156 61.9758401,349.542156 C60.5864657,349.542156 59.4601552,348.424504 59.4601552,347.04581 C59.4601552,345.667115 60.5864657,344.549463 61.9758401,344.549463 Z M92.9985298,344.549463 C94.3879042,344.549463 95.5142147,345.667115 95.5142147,347.04581 C95.5142147,348.424504 94.3879042,349.542156 92.9985298,349.542156 C91.6091554,349.542156 90.4828449,348.424504 90.4828449,347.04581 C90.4828449,345.667115 91.6091554,344.549463 92.9985298,344.549463 Z M122.728607,344.549463 C124.117982,344.549463 125.244292,345.667115 125.244292,347.04581 C125.244292,348.424504 124.117982,349.542156 122.728607,349.542156 C121.339233,349.542156 120.212923,348.424504 120.212923,347.04581 C120.212923,345.667115 121.339233,344.549463 122.728607,344.549463 Z M2.51568488,313.283181 C3.90505928,313.283181 5.03136977,314.400834 5.03136977,315.779528 C5.03136977,317.158222 3.90505928,318.275874 2.51568488,318.275874 C1.12631049,318.275874 0,317.158222 0,315.779528 C0,314.400834 1.12631049,313.283181 2.51568488,313.283181 Z M32.2457625,313.283181 C33.6351369,313.283181 34.7614474,314.400834 34.7614474,315.779528 C34.7614474,317.158222 33.6351369,318.275874 32.2457625,318.275874 C30.8563881,318.275874 29.7300776,317.158222 29.7300776,315.779528 C29.7300776,314.400834 30.8563881,313.283181 32.2457625,313.283181 Z M61.9758401,313.283181 C63.3652145,313.283181 64.491525,314.400834 64.491525,315.779528 C64.491525,317.158222 63.3652145,318.275874 61.9758401,318.275874 C60.5864657,318.275874 59.4601552,317.158222 59.4601552,315.779528 C59.4601552,314.400834 60.5864657,313.283181 61.9758401,313.283181 Z M92.9985298,313.283181 C94.3879042,313.283181 95.5142147,314.400834 95.5142147,315.779528 C95.5142147,317.158222 94.3879042,318.275874 92.9985298,318.275874 C91.6091554,318.275874 90.4828449,317.158222 90.4828449,315.779528 C90.4828449,314.400834 91.6091554,313.283181 92.9985298,313.283181 Z M122.728607,313.283181 C124.117982,313.283181 125.244292,314.400834 125.244292,315.779528 C125.244292,317.158222 124.117982,318.275874 122.728607,318.275874 C121.339233,318.275874 120.212923,317.158222 120.212923,315.779528 C120.212923,314.400834 121.339233,313.283181 122.728607,313.283181 Z M152.458685,313.283181 C153.848059,313.283181 154.97437,314.400834 154.97437,315.779528 C154.97437,317.158222 153.848059,318.275874 152.458685,318.275874 C151.069311,318.275874 149.943,317.158222 149.943,315.779528 C149.943,314.400834 151.069311,313.283181 152.458685,313.283181 Z M2.51568488,282.016899 C3.90505928,282.016899 5.03136977,283.134552 5.03136977,284.513246 C5.03136977,285.89194 3.90505928,287.009593 2.51568488,287.009593 C1.12631049,287.009593 0,285.89194 0,284.513246 C0,283.134552 1.12631049,282.016899 2.51568488,282.016899 Z M32.2457625,282.016899 C33.6351369,282.016899 34.7614474,283.134552 34.7614474,284.513246 C34.7614474,285.89194 33.6351369,287.009593 32.2457625,287.009593 C30.8563881,287.009593 29.7300776,285.89194 29.7300776,284.513246 C29.7300776,283.134552 30.8563881,282.016899 32.2457625,282.016899 Z M61.9758401,282.016899 C63.3652145,282.016899 64.491525,283.134552 64.491525,284.513246 C64.491525,285.89194 63.3652145,287.009593 61.9758401,287.009593 C60.5864657,287.009593 59.4601552,285.89194 59.4601552,284.513246 C59.4601552,283.134552 60.5864657,282.016899 61.9758401,282.016899 Z M92.9985298,282.016899 C94.3879042,282.016899 95.5142147,283.134552 95.5142147,284.513246 C95.5142147,285.89194 94.3879042,287.009593 92.9985298,287.009593 C91.6091554,287.009593 90.4828449,285.89194 90.4828449,284.513246 C90.4828449,283.134552 91.6091554,282.016899 92.9985298,282.016899 Z M122.728607,282.016899 C124.117982,282.016899 125.244292,283.134552 125.244292,284.513246 C125.244292,285.89194 124.117982,287.009593 122.728607,287.009593 C121.339233,287.009593 120.212923,285.89194 120.212923,284.513246 C120.212923,283.134552 121.339233,282.016899 122.728607,282.016899 Z M152.458685,282.016899 C153.848059,282.016899 154.97437,283.134552 154.97437,284.513246 C154.97437,285.89194 153.848059,287.009593 152.458685,287.009593 C151.069311,287.009593 149.943,285.89194 149.943,284.513246 C149.943,283.134552 151.069311,282.016899 152.458685,282.016899 Z M2.51568488,250.750617 C3.90505928,250.750617 5.03136977,251.86827 5.03136977,253.246964 C5.03136977,254.625658 3.90505928,255.743311 2.51568488,255.743311 C1.12631049,255.743311 0,254.625658 0,253.246964 C0,251.86827 1.12631049,250.750617 2.51568488,250.750617 Z M32.2457625,250.750617 C33.6351369,250.750617 34.7614474,251.86827 34.7614474,253.246964 C34.7614474,254.625658 33.6351369,255.743311 32.2457625,255.743311 C30.8563881,255.743311 29.7300776,254.625658 29.7300776,253.246964 C29.7300776,251.86827 30.8563881,250.750617 32.2457625,250.750617 Z M61.9758401,250.750617 C63.3652145,250.750617 64.491525,251.86827 64.491525,253.246964 C64.491525,254.625658 63.3652145,255.743311 61.9758401,255.743311 C60.5864657,255.743311 59.4601552,254.625658 59.4601552,253.246964 C59.4601552,251.86827 60.5864657,250.750617 61.9758401,250.750617 Z M92.9985298,250.750617 C94.3879042,250.750617 95.5142147,251.86827 95.5142147,253.246964 C95.5142147,254.625658 94.3879042,255.743311 92.9985298,255.743311 C91.6091554,255.743311 90.4828449,254.625658 90.4828449,253.246964 C90.4828449,251.86827 91.6091554,250.750617 92.9985298,250.750617 Z M122.728607,250.750617 C124.117982,250.750617 125.244292,251.86827 125.244292,253.246964 C125.244292,254.625658 124.117982,255.743311 122.728607,255.743311 C121.339233,255.743311 120.212923,254.625658 120.212923,253.246964 C120.212923,251.86827 121.339233,250.750617 122.728607,250.750617 Z M152.458685,250.750617 C153.848059,250.750617 154.97437,251.86827 154.97437,253.246964 C154.97437,254.625658 153.848059,255.743311 152.458685,255.743311 C151.069311,255.743311 149.943,254.625658 149.943,253.246964 C149.943,251.86827 151.069311,250.750617 152.458685,250.750617 Z M2.51568488,219.484336 C3.90505928,219.484336 5.03136977,220.601988 5.03136977,221.980682 C5.03136977,223.359376 3.90505928,224.477029 2.51568488,224.477029 C1.12631049,224.477029 0,223.359376 0,221.980682 C0,220.601988 1.12631049,219.484336 2.51568488,219.484336 Z M32.2457625,219.484336 C33.6351369,219.484336 34.7614474,220.601988 34.7614474,221.980682 C34.7614474,223.359376 33.6351369,224.477029 32.2457625,224.477029 C30.8563881,224.477029 29.7300776,223.359376 29.7300776,221.980682 C29.7300776,220.601988 30.8563881,219.484336 32.2457625,219.484336 Z M61.9758401,219.484336 C63.3652145,219.484336 64.491525,220.601988 64.491525,221.980682 C64.491525,223.359376 63.3652145,224.477029 61.9758401,224.477029 C60.5864657,224.477029 59.4601552,223.359376 59.4601552,221.980682 C59.4601552,220.601988 60.5864657,219.484336 61.9758401,219.484336 Z M92.9985298,219.484336 C94.3879042,219.484336 95.5142147,220.601988 95.5142147,221.980682 C95.5142147,223.359376 94.3879042,224.477029 92.9985298,224.477029 C91.6091554,224.477029 90.4828449,223.359376 90.4828449,221.980682 C90.4828449,220.601988 91.6091554,219.484336 92.9985298,219.484336 Z M122.728607,219.484336 C124.117982,219.484336 125.244292,220.601988 125.244292,221.980682 C125.244292,223.359376 124.117982,224.477029 122.728607,224.477029 C121.339233,224.477029 120.212923,223.359376 120.212923,221.980682 C120.212923,220.601988 121.339233,219.484336 122.728607,219.484336 Z M152.458685,219.484336 C153.848059,219.484336 154.97437,220.601988 154.97437,221.980682 C154.97437,223.359376 153.848059,224.477029 152.458685,224.477029 C151.069311,224.477029 149.943,223.359376 149.943,221.980682 C149.943,220.601988 151.069311,219.484336 152.458685,219.484336 Z M2.51568488,188.218054 C3.90505928,188.218054 5.03136977,189.335706 5.03136977,190.7144 C5.03136977,192.093095 3.90505928,193.210747 2.51568488,193.210747 C1.12631049,193.210747 0,192.093095 0,190.7144 C0,189.335706 1.12631049,188.218054 2.51568488,188.218054 Z M32.2457625,188.218054 C33.6351369,188.218054 34.7614474,189.335706 34.7614474,190.7144 C34.7614474,192.093095 33.6351369,193.210747 32.2457625,193.210747 C30.8563881,193.210747 29.7300776,192.093095 29.7300776,190.7144 C29.7300776,189.335706 30.8563881,188.218054 32.2457625,188.218054 Z M61.9758401,188.218054 C63.3652145,188.218054 64.491525,189.335706 64.491525,190.7144 C64.491525,192.093095 63.3652145,193.210747 61.9758401,193.210747 C60.5864657,193.210747 59.4601552,192.093095 59.4601552,190.7144 C59.4601552,189.335706 60.5864657,188.218054 61.9758401,188.218054 Z M92.9985298,188.218054 C94.3879042,188.218054 95.5142147,189.335706 95.5142147,190.7144 C95.5142147,192.093095 94.3879042,193.210747 92.9985298,193.210747 C91.6091554,193.210747 90.4828449,192.093095 90.4828449,190.7144 C90.4828449,189.335706 91.6091554,188.218054 92.9985298,188.218054 Z M122.728607,188.218054 C124.117982,188.218054 125.244292,189.335706 125.244292,190.7144 C125.244292,192.093095 124.117982,193.210747 122.728607,193.210747 C121.339233,193.210747 120.212923,192.093095 120.212923,190.7144 C120.212923,189.335706 121.339233,188.218054 122.728607,188.218054 Z M152.458685,188.218054 C153.848059,188.218054 154.97437,189.335706 154.97437,190.7144 C154.97437,192.093095 153.848059,193.210747 152.458685,193.210747 C151.069311,193.210747 149.943,192.093095 149.943,190.7144 C149.943,189.335706 151.069311,188.218054 152.458685,188.218054 Z M152.4715,156.331409 C153.867952,156.331409 155,157.449062 155,158.827756 C155,160.20645 153.867952,161.324103 152.4715,161.324103 C151.075048,161.324103 149.943,160.20645 149.943,158.827756 C149.943,157.449062 151.075048,156.331409 152.4715,156.331409 Z M122.741422,156.331409 C124.137874,156.331409 125.269922,157.449062 125.269922,158.827756 C125.269922,160.20645 124.137874,161.324103 122.741422,161.324103 C121.344971,161.324103 120.212923,160.20645 120.212923,158.827756 C120.212923,157.449062 121.344971,156.331409 122.741422,156.331409 Z M93.0113448,156.331409 C94.4077968,156.331409 95.5398448,157.449062 95.5398448,158.827756 C95.5398448,160.20645 94.4077968,161.324103 93.0113448,161.324103 C91.6148929,161.324103 90.4828449,160.20645 90.4828449,158.827756 C90.4828449,157.449062 91.6148929,156.331409 93.0113448,156.331409 Z M2.52849993,156.331409 C3.92495189,156.331409 5.05699987,157.449062 5.05699987,158.827756 C5.05699987,160.20645 3.92495189,161.324103 2.52849993,161.324103 C1.13204798,161.324103 0,160.20645 0,158.827756 C0,157.449062 1.13204798,156.331409 2.52849993,156.331409 Z M61.9886552,156.331409 C63.3851071,156.331409 64.5171551,157.449062 64.5171551,158.827756 C64.5171551,160.20645 63.3851071,161.324103 61.9886552,161.324103 C60.5922032,161.324103 59.4601552,160.20645 59.4601552,158.827756 C59.4601552,157.449062 60.5922032,156.331409 61.9886552,156.331409 Z M32.2585775,156.331409 C33.6550295,156.331409 34.7870775,157.449062 34.7870775,158.827756 C34.7870775,160.20645 33.6550295,161.324103 32.2585775,161.324103 C30.8621256,161.324103 29.7300776,160.20645 29.7300776,158.827756 C29.7300776,157.449062 30.8621256,156.331409 32.2585775,156.331409 Z M32.2585775,125.065127 C33.6550295,125.065127 34.7870775,126.18278 34.7870775,127.561474 C34.7870775,128.940168 33.6550295,130.057821 32.2585775,130.057821 C30.8621256,130.057821 29.7300776,128.940168 29.7300776,127.561474 C29.7300776,126.18278 30.8621256,125.065127 32.2585775,125.065127 Z M61.9886552,125.065127 C63.3851071,125.065127 64.5171551,126.18278 64.5171551,127.561474 C64.5171551,128.940168 63.3851071,130.057821 61.9886552,130.057821 C60.5922032,130.057821 59.4601552,128.940168 59.4601552,127.561474 C59.4601552,126.18278 60.5922032,125.065127 61.9886552,125.065127 Z M2.52849993,125.065127 C3.92495189,125.065127 5.05699987,126.18278 5.05699987,127.561474 C5.05699987,128.940168 3.92495189,130.057821 2.52849993,130.057821 C1.13204798,130.057821 0,128.940168 0,127.561474 C0,126.18278 1.13204798,125.065127 2.52849993,125.065127 Z M93.0113448,125.065127 C94.4077968,125.065127 95.5398448,126.18278 95.5398448,127.561474 C95.5398448,128.940168 94.4077968,130.057821 93.0113448,130.057821 C91.6148929,130.057821 90.4828449,128.940168 90.4828449,127.561474 C90.4828449,126.18278 91.6148929,125.065127 93.0113448,125.065127 Z M122.741422,125.065127 C124.137874,125.065127 125.269922,126.18278 125.269922,127.561474 C125.269922,128.940168 124.137874,130.057821 122.741422,130.057821 C121.344971,130.057821 120.212923,128.940168 120.212923,127.561474 C120.212923,126.18278 121.344971,125.065127 122.741422,125.065127 Z M152.4715,125.065127 C153.867952,125.065127 155,126.18278 155,127.561474 C155,128.940168 153.867952,130.057821 152.4715,130.057821 C151.075048,130.057821 149.943,128.940168 149.943,127.561474 C149.943,126.18278 151.075048,125.065127 152.4715,125.065127 Z M32.2585775,93.7988455 C33.6550295,93.7988455 34.7870775,94.916498 34.7870775,96.2951922 C34.7870775,97.6738864 33.6550295,98.7915388 32.2585775,98.7915388 C30.8621256,98.7915388 29.7300776,97.6738864 29.7300776,96.2951922 C29.7300776,94.916498 30.8621256,93.7988455 32.2585775,93.7988455 Z M61.9886552,93.7988455 C63.3851071,93.7988455 64.5171551,94.916498 64.5171551,96.2951922 C64.5171551,97.6738864 63.3851071,98.7915388 61.9886552,98.7915388 C60.5922032,98.7915388 59.4601552,97.6738864 59.4601552,96.2951922 C59.4601552,94.916498 60.5922032,93.7988455 61.9886552,93.7988455 Z M93.0113448,93.7988455 C94.4077968,93.7988455 95.5398448,94.916498 95.5398448,96.2951922 C95.5398448,97.6738864 94.4077968,98.7915388 93.0113448,98.7915388 C91.6148929,98.7915388 90.4828449,97.6738864 90.4828449,96.2951922 C90.4828449,94.916498 91.6148929,93.7988455 93.0113448,93.7988455 Z M122.741422,93.7988455 C124.137874,93.7988455 125.269922,94.916498 125.269922,96.2951922 C125.269922,97.6738864 124.137874,98.7915388 122.741422,98.7915388 C121.344971,98.7915388 120.212923,97.6738864 120.212923,96.2951922 C120.212923,94.916498 121.344971,93.7988455 122.741422,93.7988455 Z M2.52849993,93.7988455 C3.92495189,93.7988455 5.05699987,94.916498 5.05699987,96.2951922 C5.05699987,97.6738864 3.92495189,98.7915388 2.52849993,98.7915388 C1.13204798,98.7915388 0,97.6738864 0,96.2951922 C0,94.916498 1.13204798,93.7988455 2.52849993,93.7988455 Z M152.4715,93.7988455 C153.867952,93.7988455 155,94.916498 155,96.2951922 C155,97.6738864 153.867952,98.7915388 152.4715,98.7915388 C151.075048,98.7915388 149.943,97.6738864 149.943,96.2951922 C149.943,94.916498 151.075048,93.7988455 152.4715,93.7988455 Z M61.9886552,62.5325637 C63.3851071,62.5325637 64.5171551,63.6502162 64.5171551,65.0289103 C64.5171551,66.4076045 63.3851071,67.525257 61.9886552,67.525257 C60.5922032,67.525257 59.4601552,66.4076045 59.4601552,65.0289103 C59.4601552,63.6502162 60.5922032,62.5325637 61.9886552,62.5325637 Z M32.2585775,62.5325637 C33.6550295,62.5325637 34.7870775,63.6502162 34.7870775,65.0289103 C34.7870775,66.4076045 33.6550295,67.525257 32.2585775,67.525257 C30.8621256,67.525257 29.7300776,66.4076045 29.7300776,65.0289103 C29.7300776,63.6502162 30.8621256,62.5325637 32.2585775,62.5325637 Z M93.0113448,62.5325637 C94.4077968,62.5325637 95.5398448,63.6502162 95.5398448,65.0289103 C95.5398448,66.4076045 94.4077968,67.525257 93.0113448,67.525257 C91.6148929,67.525257 90.4828449,66.4076045 90.4828449,65.0289103 C90.4828449,63.6502162 91.6148929,62.5325637 93.0113448,62.5325637 Z M122.741422,62.5325637 C124.137874,62.5325637 125.269922,63.6502162 125.269922,65.0289103 C125.269922,66.4076045 124.137874,67.525257 122.741422,67.525257 C121.344971,67.525257 120.212923,66.4076045 120.212923,65.0289103 C120.212923,63.6502162 121.344971,62.5325637 122.741422,62.5325637 Z M2.52849993,62.5325637 C3.92495189,62.5325637 5.05699987,63.6502162 5.05699987,65.0289103 C5.05699987,66.4076045 3.92495189,67.525257 2.52849993,67.525257 C1.13204798,67.525257 0,66.4076045 0,65.0289103 C0,63.6502162 1.13204798,62.5325637 2.52849993,62.5325637 Z M152.4715,62.5325637 C153.867952,62.5325637 155,63.6502162 155,65.0289103 C155,66.4076045 153.867952,67.525257 152.4715,67.525257 C151.075048,67.525257 149.943,66.4076045 149.943,65.0289103 C149.943,63.6502162 151.075048,62.5325637 152.4715,62.5325637 Z M61.9886552,31.2662818 C63.3851071,31.2662818 64.5171551,32.3839343 64.5171551,33.7626285 C64.5171551,35.1413227 63.3851071,36.2589752 61.9886552,36.2589752 C60.5922032,36.2589752 59.4601552,35.1413227 59.4601552,33.7626285 C59.4601552,32.3839343 60.5922032,31.2662818 61.9886552,31.2662818 Z M32.2585775,31.2662818 C33.6550295,31.2662818 34.7870775,32.3839343 34.7870775,33.7626285 C34.7870775,35.1413227 33.6550295,36.2589752 32.2585775,36.2589752 C30.8621256,36.2589752 29.7300776,35.1413227 29.7300776,33.7626285 C29.7300776,32.3839343 30.8621256,31.2662818 32.2585775,31.2662818 Z M93.0113448,31.2662818 C94.4077968,31.2662818 95.5398448,32.3839343 95.5398448,33.7626285 C95.5398448,35.1413227 94.4077968,36.2589752 93.0113448,36.2589752 C91.6148929,36.2589752 90.4828449,35.1413227 90.4828449,33.7626285 C90.4828449,32.3839343 91.6148929,31.2662818 93.0113448,31.2662818 Z M2.52849993,31.2662818 C3.92495189,31.2662818 5.05699987,32.3839343 5.05699987,33.7626285 C5.05699987,35.1413227 3.92495189,36.2589752 2.52849993,36.2589752 C1.13204798,36.2589752 0,35.1413227 0,33.7626285 C0,32.3839343 1.13204798,31.2662818 2.52849993,31.2662818 Z M122.741422,31.2662818 C124.137874,31.2662818 125.269922,32.3839343 125.269922,33.7626285 C125.269922,35.1413227 124.137874,36.2589752 122.741422,36.2589752 C121.344971,36.2589752 120.212923,35.1413227 120.212923,33.7626285 C120.212923,32.3839343 121.344971,31.2662818 122.741422,31.2662818 Z M152.4715,31.2662818 C153.867952,31.2662818 155,32.3839343 155,33.7626285 C155,35.1413227 153.867952,36.2589752 152.4715,36.2589752 C151.075048,36.2589752 149.943,35.1413227 149.943,33.7626285 C149.943,32.3839343 151.075048,31.2662818 152.4715,31.2662818 Z M61.9886552,0 C63.3851071,0 64.5171551,1.11765247 64.5171551,2.49634666 C64.5171551,3.87504084 63.3851071,4.99269331 61.9886552,4.99269331 C60.5922032,4.99269331 59.4601552,3.87504084 59.4601552,2.49634666 C59.4601552,1.11765247 60.5922032,0 61.9886552,0 Z M32.2585775,0 C33.6550295,0 34.7870775,1.11765247 34.7870775,2.49634666 C34.7870775,3.87504084 33.6550295,4.99269331 32.2585775,4.99269331 C30.8621256,4.99269331 29.7300776,3.87504084 29.7300776,2.49634666 C29.7300776,1.11765247 30.8621256,0 32.2585775,0 Z M2.52849993,0 C3.92495189,0 5.05699987,1.11765247 5.05699987,2.49634666 C5.05699987,3.87504084 3.92495189,4.99269331 2.52849993,4.99269331 C1.13204798,4.99269331 0,3.87504084 0,2.49634666 C0,1.11765247 1.13204798,0 2.52849993,0 Z M122.741422,0 C124.137874,0 125.269922,1.11765247 125.269922,2.49634666 C125.269922,3.87504084 124.137874,4.99269331 122.741422,4.99269331 C121.344971,4.99269331 120.212923,3.87504084 120.212923,2.49634666 C120.212923,1.11765247 121.344971,0 122.741422,0 Z M152.4715,0 C153.867952,0 155,1.11765247 155,2.49634666 C155,3.87504084 153.867952,4.99269331 152.4715,4.99269331 C151.075048,4.99269331 149.943,3.87504084 149.943,2.49634666 C149.943,1.11765247 151.075048,0 152.4715,0 Z M93.0113448,0 C94.4077968,0 95.5398448,1.11765247 95.5398448,2.49634666 C95.5398448,3.87504084 94.4077968,4.99269331 93.0113448,4.99269331 C91.6148929,4.99269331 90.4828449,3.87504084 90.4828449,2.49634666 C90.4828449,1.11765247 91.6148929,0 93.0113448,0 Z" id="Combined-Shape"></path>
                    </g>
                </g>
            </g>
        </g>
    </g>
</svg>