<?xml version="1.0" encoding="UTF-8"?>
<svg width="1440px" height="4500px" viewBox="0 0 1440 4500" version="1.1" xmlns="http://www.w3.org/2000/svg" xmlns:xlink="http://www.w3.org/1999/xlink">
    <!-- Generator: Sketch 63.1 (92452) - https://sketch.com -->
    <title>Rectangle + Gradient BG Copy + Oval + Combined Shape 8 Mask</title>
    <desc>Created with Sketch.</desc>
    <defs>
        <rect id="path-1" x="1.13686838e-13" y="0" width="1440" height="4500"></rect>
        <polygon id="path-3" points="4 0 1444 0 1444 664.744156 0 1226.5"></polygon>
        <linearGradient x1="100%" y1="0%" x2="-25.3520108%" y2="122.32069%" id="linearGradient-5">
            <stop stop-color="#D1D5DB" offset="0%"></stop>
            <stop stop-color="#A5ABB5" offset="100%"></stop>
        </linearGradient>
    </defs>
    <g id="V3" stroke="none" stroke-width="1" fill="none" fill-rule="evenodd">
        <g id="Intro-Copy-7" transform="translate(0.000000, -42.000000)">
            <g id="Rectangle-+-Gradient-BG-Copy-+-Oval-+-Combined-Shape-8-Mask" transform="translate(0.000000, 42.000000)">
                <mask id="mask-2" fill="white">
                    <use xlink:href="#path-1"></use>
                </mask>
                <use id="Mask" fill="#D8D8D8" xlink:href="#path-1"></use>
                <rect id="Rectangle" fill="#D3E3F0" mask="url(#mask-2)" x="1.13686838e-13" y="0" width="1440" height="4500"></rect>
                <g id="Group-11" mask="url(#mask-2)">
                    <g transform="translate(-2.000000, -42.000000)">
                        <mask id="mask-4" fill="white">
                            <use xlink:href="#path-3"></use>
                        </mask>
                        <use id="Mask" stroke="none" fill="#F0D3D3" fill-rule="evenodd" xlink:href="#path-3"></use>
                        <g id="Group-11" opacity="0.5" stroke="none" stroke-width="1" fill="none" fill-rule="evenodd" mask="url(#mask-4)" stroke-linecap="round" stroke-linejoin="round">
                            <g transform="translate(681.500000, 440.500000) scale(1, -1) translate(-681.500000, -440.500000) translate(-657.000000, -14.000000)" id="Group-3">
                                <g transform="translate(0.882895, 0.000000)">
                                    <path d="M0.955714286,130.949527 C0.955714286,362.766495 115.6946,737.577391 261.281306,737.577391 C406.868013,737.577391 357.91637,406.921697 717.336408,246.182535 C1076.75645,85.443373 1109.8285,750.125776 1342.14577,791.72608 C1574.46305,833.326384 1819.63275,624.257444 2022.51974,585.30073 C2225.40673,546.344017 2472.99751,499.768963 2580.53994,659.533127 C2688.08237,819.297291 2673.41488,866.943218 2673.41488,866.943218" id="Line" stroke="#FFFFFF" stroke-width="2" transform="translate(1337.522143, 498.946372) scale(-1, 1) translate(-1337.522143, -498.946372) "></path>
                                    <path d="M2.1730427e-13,149.11041 C3.03110891e-13,380.813591 114.764852,755.440511 260.384505,755.440511 C406.004158,755.440511 357.041437,424.94712 716.542814,264.286856 C1076.04419,103.626593 1109.12373,767.982737 1341.49358,809.562621 C1573.86343,851.142506 1819.08861,642.176187 2022.02152,603.238595 C2224.95442,564.301003 2472.60123,517.748811 2580.168,677.434555 C2687.73476,837.120299 2675.58767,871.722397 2675.58767,871.722397" id="Line" stroke="#FFFFFF" stroke-width="2" transform="translate(1338.000000, 510.416404) scale(-1, 1) translate(-1338.000000, -510.416404) "></path>
                                    <path d="M0.955714286,169.182965 C0.955714286,400.871696 115.751018,775.47525 261.409309,775.47525 C407.0676,775.47525 358.091888,445.002471 717.688653,284.352228 C1077.28542,123.701985 1110.37373,788.016694 1342.80524,829.593985 C1575.23675,871.171277 1820.527,662.21799 2023.51375,623.282827 C2226.5005,584.347664 2474.21302,537.798375 2581.80832,697.47416 C2689.40363,857.149944 2675.40295,877.457413 2675.40295,877.457413" id="Line" stroke="#FFFFFF" stroke-width="2" transform="translate(1338.477857, 523.320189) scale(-1, 1) translate(-1338.477857, -523.320189) "></path>
                                    <path d="M0.955714286,187.343849 C0.955714286,419.252348 115.751018,794.211235 261.409309,794.211235 C407.0676,794.211235 358.091888,463.424985 717.688653,302.622356 C1077.28542,141.819727 1110.37373,806.764575 1342.80524,848.381305 C1575.23675,889.998035 1820.527,680.846545 2023.51375,641.874449 C2226.5005,602.902354 2474.21302,556.30891 2581.80832,716.136156 C2689.40363,875.963402 2675.40295,875.545736 2675.40295,875.545736" id="Line" stroke="#FFFFFF" stroke-width="2" transform="translate(1338.477857, 531.444795) scale(-1, 1) translate(-1338.477857, -531.444795) "></path>
                                    <path d="M0.955714286,205.504732 C0.955714286,437.319438 115.751018,812.126676 261.409309,812.126676 C407.0676,812.126676 358.091888,481.474209 717.688653,320.736616 C1077.28542,159.999022 1110.37373,824.674939 1342.80524,866.274837 C1575.23675,907.874736 1820.527,698.807835 2023.51375,659.851502 C2226.5005,620.895168 2474.21302,574.320569 2581.80832,734.083174 C2689.40363,893.845779 2675.40295,866.274837 2675.40295,866.274837" id="Line" stroke="#FFFFFF" stroke-width="2" transform="translate(1338.477857, 538.613565) scale(-1, 1) translate(-1338.477857, -538.613565) "></path>
                                    <path d="M0.955714286,224.621451 C0.955714286,456.436158 115.751018,831.243395 261.409309,831.243395 C407.0676,831.243395 358.091888,500.590929 717.688653,339.853335 C1077.28542,179.115741 1110.37373,843.791658 1342.80524,885.391557 C1575.23675,926.991455 1820.527,717.924554 2023.51375,678.968221 C2226.5005,640.011887 2474.21302,593.437288 2581.80832,753.199893 C2689.40363,912.962498 2675.40295,867.281659 2675.40295,867.281659" id="Line" stroke="#FFFFFF" stroke-width="2" transform="translate(1338.477857, 557.730284) scale(-1, 1) translate(-1338.477857, -557.730284) "></path>
                                    <path d="M3.82285714,242.782334 C3.82285714,474.597041 118.550887,849.404279 264.123817,849.404279 C409.696748,849.404279 360.749737,518.751812 720.135767,358.014218 C1079.5218,197.276625 1112.59072,861.952542 1344.88601,903.55244 C1577.18131,945.152338 1822.32781,736.085437 2025.1956,697.129104 C2228.0634,658.172771 2475.63075,611.598171 2583.163,771.360777 C2690.69525,931.123382 2673.00423,882.995106 2673.00423,882.995106" id="Line" stroke="#FFFFFF" stroke-width="2" transform="translate(1338.955714, 575.891167) scale(-1, 1) translate(-1338.955714, -575.891167) "></path>
                                    <path d="M0.955714286,111.832808 C0.955714286,343.649776 115.6946,718.460671 261.281306,718.460671 C406.868013,718.460671 357.91637,387.804978 717.336408,227.065816 C1076.75645,66.3266538 1109.8285,731.009057 1342.14577,772.609361 C1574.46305,814.209665 1819.63275,605.140724 2022.51974,566.184011 C2225.40673,527.227297 2472.99751,480.652244 2580.53994,640.416408 C2688.08237,800.180572 2673.41488,847.826498 2673.41488,847.826498" id="Line" stroke="#FFFFFF" stroke-width="2" transform="translate(1337.522143, 479.829653) scale(-1, 1) translate(-1337.522143, -479.829653) "></path>
                                    <path d="M0.955714286,93.6719243 C0.955714286,325.488893 115.6946,700.299788 261.281306,700.299788 C406.868013,700.299788 357.91637,369.644095 717.336408,208.904933 C1076.75645,48.1657705 1109.8285,712.848174 1342.14577,754.448478 C1574.46305,796.048782 1819.63275,586.979841 2022.51974,548.023128 C2225.40673,509.066414 2472.99751,462.49136 2580.53994,622.255524 C2688.08237,782.019689 2673.41488,829.665615 2673.41488,829.665615" id="Line" stroke="#FFFFFF" stroke-width="2" transform="translate(1337.522143, 461.668770) scale(-1, 1) translate(-1337.522143, -461.668770) "></path>
                                    <path d="M0.955714286,75.511041 C0.955714286,307.32801 115.6946,682.138905 261.281306,682.138905 C406.868013,682.138905 357.91637,351.483212 717.336408,190.744049 C1076.75645,30.0048872 1109.8285,694.68729 1342.14577,736.287595 C1574.46305,777.887899 1819.63275,568.818958 2022.51974,529.862244 C2225.40673,490.905531 2472.99751,444.330477 2580.53994,604.094641 C2688.08237,763.858805 2673.41488,811.504732 2673.41488,811.504732" id="Line" stroke="#FFFFFF" stroke-width="2" transform="translate(1337.522143, 443.507886) scale(-1, 1) translate(-1337.522143, -443.507886) "></path>
                                    <path d="M0.955714286,56.3943218 C0.955714286,288.21129 115.6946,663.022186 261.281306,663.022186 C406.868013,663.022186 357.91637,332.366492 717.336408,171.62733 C1076.75645,10.888168 1109.8285,675.570571 1342.14577,717.170875 C1574.46305,758.771179 1819.63275,549.702239 2022.51974,510.745525 C2225.40673,471.788812 2472.99751,425.213758 2580.53994,584.977922 C2688.08237,744.742086 2673.41488,792.388013 2673.41488,792.388013" id="Line" stroke="#FFFFFF" stroke-width="2" transform="translate(1337.522143, 424.391167) scale(-1, 1) translate(-1337.522143, -424.391167) "></path>
                                    <path d="M0.955714286,38.2334385 C0.955714286,270.050407 115.6946,644.861302 261.281306,644.861302 C406.868013,644.861302 357.91637,314.205609 717.336408,153.466447 C1076.75645,-7.27271529 1109.8285,657.409688 1342.14577,699.009992 C1574.46305,740.610296 1819.63275,531.541355 2022.51974,492.584642 C2225.40673,453.627928 2472.99751,407.052874 2580.53994,566.817039 C2688.08237,726.581203 2673.41488,774.227129 2673.41488,774.227129" id="Line" stroke="#FFFFFF" stroke-width="2" transform="translate(1337.522143, 406.230284) scale(-1, 1) translate(-1337.522143, -406.230284) "></path>
                                    <path d="M0.955714286,18.1608833 C0.955714286,249.977852 115.6946,624.788747 261.281306,624.788747 C406.868013,624.788747 357.91637,294.133054 717.336408,133.393892 C1076.75645,-27.3452705 1109.8285,637.337133 1342.14577,678.937437 C1574.46305,720.537741 1819.63275,511.4688 2022.51974,472.512087 C2225.40673,433.555373 2472.99751,386.980319 2580.53994,546.744483 C2688.08237,706.508648 2673.41488,754.154574 2673.41488,754.154574" id="Line" stroke="#FFFFFF" stroke-width="2" transform="translate(1337.522143, 386.157729) scale(-1, 1) translate(-1337.522143, -386.157729) "></path>
                                    <path d="M2.1730427e-13,5.4332984e-14 C3.03110891e-13,231.948018 114.764852,606.970799 260.384505,606.970799 C406.004158,606.970799 357.041437,276.128181 716.542814,115.298151 C1076.04419,-45.531879 1109.12373,619.526278 1341.49358,661.150099 C1573.86343,702.773921 1819.08861,493.58679 2022.02152,454.608054 C2224.95442,415.629318 2472.60123,369.027935 2580.168,528.882415 C2687.73476,688.736896 2675.58767,737.905363 2675.58767,737.905363" id="Line" stroke="#FFFFFF" stroke-width="2" transform="translate(1338.000000, 368.952681) scale(-1, 1) translate(-1338.000000, -368.952681) "></path>
                                </g>
                            </g>
                        </g>
                    </g>
                </g>
                <circle id="Oval" fill="url(#linearGradient-5)" mask="url(#mask-2)" cx="1440" cy="598" r="178"></circle>
                <g id="Combined-Shape-8" mask="url(#mask-2)" fill="#5E6880">
                    <g transform="translate(1138.836806, -156.000000)" id="Combined-Shape">
                        <path d="M115.244912,541.220809 C116.293665,541.220809 117.143848,542.066809 117.143848,543.110404 C117.143848,544.153999 116.293665,545 115.244912,545 C114.196158,545 113.345975,544.153999 113.345975,543.110404 C113.345975,542.066809 114.196158,541.220809 115.244912,541.220809 Z M2.06213078,541.220809 C3.11088435,541.220809 3.96106711,542.066809 3.96106711,543.110404 C3.96106711,544.153999 3.11088435,545 2.06213078,545 C1.0133772,545 0.163194444,544.153999 0.163194444,543.110404 C0.163194444,542.066809 1.0133772,541.220809 2.06213078,541.220809 Z M24.5035442,541.220809 C25.5522978,541.220809 26.4024805,542.066809 26.4024805,543.110404 C26.4024805,544.153999 25.5522978,545 24.5035442,545 C23.4547906,545 22.6046079,544.153999 22.6046079,543.110404 C22.6046079,542.066809 23.4547906,541.220809 24.5035442,541.220809 Z M46.9449576,541.220809 C47.9937112,541.220809 48.843894,542.066809 48.843894,543.110404 C48.843894,544.153999 47.9937112,545 46.9449576,545 C45.896204,545 45.0460213,544.153999 45.0460213,543.110404 C45.0460213,542.066809 45.896204,541.220809 46.9449576,541.220809 Z M70.3620847,541.220809 C71.4108383,541.220809 72.261021,542.066809 72.261021,543.110404 C72.261021,544.153999 71.4108383,545 70.3620847,545 C69.3133311,545 68.4631483,544.153999 68.4631483,543.110404 C68.4631483,542.066809 69.3133311,541.220809 70.3620847,541.220809 Z M92.8034981,541.220809 C93.8522517,541.220809 94.7024344,542.066809 94.7024344,543.110404 C94.7024344,544.153999 93.8522517,545 92.8034981,545 C91.7547445,545 90.9045618,544.153999 90.9045618,543.110404 C90.9045618,542.066809 91.7547445,541.220809 92.8034981,541.220809 Z M2.06213078,517.55397 C3.11088435,517.55397 3.96106711,518.399971 3.96106711,519.443566 C3.96106711,520.487161 3.11088435,521.333162 2.06213078,521.333162 C1.0133772,521.333162 0.163194444,520.487161 0.163194444,519.443566 C0.163194444,518.399971 1.0133772,517.55397 2.06213078,517.55397 Z M24.5035442,517.55397 C25.5522978,517.55397 26.4024805,518.399971 26.4024805,519.443566 C26.4024805,520.487161 25.5522978,521.333162 24.5035442,521.333162 C23.4547906,521.333162 22.6046079,520.487161 22.6046079,519.443566 C22.6046079,518.399971 23.4547906,517.55397 24.5035442,517.55397 Z M46.9449576,517.55397 C47.9937112,517.55397 48.843894,518.399971 48.843894,519.443566 C48.843894,520.487161 47.9937112,521.333162 46.9449576,521.333162 C45.896204,521.333162 45.0460213,520.487161 45.0460213,519.443566 C45.0460213,518.399971 45.896204,517.55397 46.9449576,517.55397 Z M70.3620847,517.55397 C71.4108383,517.55397 72.261021,518.399971 72.261021,519.443566 C72.261021,520.487161 71.4108383,521.333162 70.3620847,521.333162 C69.3133311,521.333162 68.4631483,520.487161 68.4631483,519.443566 C68.4631483,518.399971 69.3133311,517.55397 70.3620847,517.55397 Z M92.8034981,517.55397 C93.8522517,517.55397 94.7024344,518.399971 94.7024344,519.443566 C94.7024344,520.487161 93.8522517,521.333162 92.8034981,521.333162 C91.7547445,521.333162 90.9045618,520.487161 90.9045618,519.443566 C90.9045618,518.399971 91.7547445,517.55397 92.8034981,517.55397 Z M115.244912,517.55397 C116.293665,517.55397 117.143848,518.399971 117.143848,519.443566 C117.143848,520.487161 116.293665,521.333162 115.244912,521.333162 C114.196158,521.333162 113.345975,520.487161 113.345975,519.443566 C113.345975,518.399971 114.196158,517.55397 115.244912,517.55397 Z M2.06213078,493.887132 C3.11088435,493.887132 3.96106711,494.733133 3.96106711,495.776728 C3.96106711,496.820322 3.11088435,497.666323 2.06213078,497.666323 C1.0133772,497.666323 0.163194444,496.820322 0.163194444,495.776728 C0.163194444,494.733133 1.0133772,493.887132 2.06213078,493.887132 Z M24.5035442,493.887132 C25.5522978,493.887132 26.4024805,494.733133 26.4024805,495.776728 C26.4024805,496.820322 25.5522978,497.666323 24.5035442,497.666323 C23.4547906,497.666323 22.6046079,496.820322 22.6046079,495.776728 C22.6046079,494.733133 23.4547906,493.887132 24.5035442,493.887132 Z M46.9449576,493.887132 C47.9937112,493.887132 48.843894,494.733133 48.843894,495.776728 C48.843894,496.820322 47.9937112,497.666323 46.9449576,497.666323 C45.896204,497.666323 45.0460213,496.820322 45.0460213,495.776728 C45.0460213,494.733133 45.896204,493.887132 46.9449576,493.887132 Z M70.3620847,493.887132 C71.4108383,493.887132 72.261021,494.733133 72.261021,495.776728 C72.261021,496.820322 71.4108383,497.666323 70.3620847,497.666323 C69.3133311,497.666323 68.4631483,496.820322 68.4631483,495.776728 C68.4631483,494.733133 69.3133311,493.887132 70.3620847,493.887132 Z M92.8034981,493.887132 C93.8522517,493.887132 94.7024344,494.733133 94.7024344,495.776728 C94.7024344,496.820322 93.8522517,497.666323 92.8034981,497.666323 C91.7547445,497.666323 90.9045618,496.820322 90.9045618,495.776728 C90.9045618,494.733133 91.7547445,493.887132 92.8034981,493.887132 Z M115.244912,493.887132 C116.293665,493.887132 117.143848,494.733133 117.143848,495.776728 C117.143848,496.820322 116.293665,497.666323 115.244912,497.666323 C114.196158,497.666323 113.345975,496.820322 113.345975,495.776728 C113.345975,494.733133 114.196158,493.887132 115.244912,493.887132 Z M2.06213078,470.220294 C3.11088435,470.220294 3.96106711,471.066294 3.96106711,472.109889 C3.96106711,473.153484 3.11088435,473.999485 2.06213078,473.999485 C1.0133772,473.999485 0.163194444,473.153484 0.163194444,472.109889 C0.163194444,471.066294 1.0133772,470.220294 2.06213078,470.220294 Z M24.5035442,470.220294 C25.5522978,470.220294 26.4024805,471.066294 26.4024805,472.109889 C26.4024805,473.153484 25.5522978,473.999485 24.5035442,473.999485 C23.4547906,473.999485 22.6046079,473.153484 22.6046079,472.109889 C22.6046079,471.066294 23.4547906,470.220294 24.5035442,470.220294 Z M46.9449576,470.220294 C47.9937112,470.220294 48.843894,471.066294 48.843894,472.109889 C48.843894,473.153484 47.9937112,473.999485 46.9449576,473.999485 C45.896204,473.999485 45.0460213,473.153484 45.0460213,472.109889 C45.0460213,471.066294 45.896204,470.220294 46.9449576,470.220294 Z M70.3620847,470.220294 C71.4108383,470.220294 72.261021,471.066294 72.261021,472.109889 C72.261021,473.153484 71.4108383,473.999485 70.3620847,473.999485 C69.3133311,473.999485 68.4631483,473.153484 68.4631483,472.109889 C68.4631483,471.066294 69.3133311,470.220294 70.3620847,470.220294 Z M92.8034981,470.220294 C93.8522517,470.220294 94.7024344,471.066294 94.7024344,472.109889 C94.7024344,473.153484 93.8522517,473.999485 92.8034981,473.999485 C91.7547445,473.999485 90.9045618,473.153484 90.9045618,472.109889 C90.9045618,471.066294 91.7547445,470.220294 92.8034981,470.220294 Z M115.244912,470.220294 C116.293665,470.220294 117.143848,471.066294 117.143848,472.109889 C117.143848,473.153484 116.293665,473.999485 115.244912,473.999485 C114.196158,473.999485 113.345975,473.153484 113.345975,472.109889 C113.345975,471.066294 114.196158,470.220294 115.244912,470.220294 Z M2.06213078,446.553455 C3.11088435,446.553455 3.96106711,447.399456 3.96106711,448.443051 C3.96106711,449.486646 3.11088435,450.332647 2.06213078,450.332647 C1.0133772,450.332647 0.163194444,449.486646 0.163194444,448.443051 C0.163194444,447.399456 1.0133772,446.553455 2.06213078,446.553455 Z M24.5035442,446.553455 C25.5522978,446.553455 26.4024805,447.399456 26.4024805,448.443051 C26.4024805,449.486646 25.5522978,450.332647 24.5035442,450.332647 C23.4547906,450.332647 22.6046079,449.486646 22.6046079,448.443051 C22.6046079,447.399456 23.4547906,446.553455 24.5035442,446.553455 Z M46.9449576,446.553455 C47.9937112,446.553455 48.843894,447.399456 48.843894,448.443051 C48.843894,449.486646 47.9937112,450.332647 46.9449576,450.332647 C45.896204,450.332647 45.0460213,449.486646 45.0460213,448.443051 C45.0460213,447.399456 45.896204,446.553455 46.9449576,446.553455 Z M70.3620847,446.553455 C71.4108383,446.553455 72.261021,447.399456 72.261021,448.443051 C72.261021,449.486646 71.4108383,450.332647 70.3620847,450.332647 C69.3133311,450.332647 68.4631483,449.486646 68.4631483,448.443051 C68.4631483,447.399456 69.3133311,446.553455 70.3620847,446.553455 Z M92.8034981,446.553455 C93.8522517,446.553455 94.7024344,447.399456 94.7024344,448.443051 C94.7024344,449.486646 93.8522517,450.332647 92.8034981,450.332647 C91.7547445,450.332647 90.9045618,449.486646 90.9045618,448.443051 C90.9045618,447.399456 91.7547445,446.553455 92.8034981,446.553455 Z M115.244912,446.553455 C116.293665,446.553455 117.143848,447.399456 117.143848,448.443051 C117.143848,449.486646 116.293665,450.332647 115.244912,450.332647 C114.196158,450.332647 113.345975,449.486646 113.345975,448.443051 C113.345975,447.399456 114.196158,446.553455 115.244912,446.553455 Z M2.06213078,422.886617 C3.11088435,422.886617 3.96106711,423.732618 3.96106711,424.776213 C3.96106711,425.819807 3.11088435,426.665808 2.06213078,426.665808 C1.0133772,426.665808 0.163194444,425.819807 0.163194444,424.776213 C0.163194444,423.732618 1.0133772,422.886617 2.06213078,422.886617 Z M24.5035442,422.886617 C25.5522978,422.886617 26.4024805,423.732618 26.4024805,424.776213 C26.4024805,425.819807 25.5522978,426.665808 24.5035442,426.665808 C23.4547906,426.665808 22.6046079,425.819807 22.6046079,424.776213 C22.6046079,423.732618 23.4547906,422.886617 24.5035442,422.886617 Z M46.9449576,422.886617 C47.9937112,422.886617 48.843894,423.732618 48.843894,424.776213 C48.843894,425.819807 47.9937112,426.665808 46.9449576,426.665808 C45.896204,426.665808 45.0460213,425.819807 45.0460213,424.776213 C45.0460213,423.732618 45.896204,422.886617 46.9449576,422.886617 Z M70.3620847,422.886617 C71.4108383,422.886617 72.261021,423.732618 72.261021,424.776213 C72.261021,425.819807 71.4108383,426.665808 70.3620847,426.665808 C69.3133311,426.665808 68.4631483,425.819807 68.4631483,424.776213 C68.4631483,423.732618 69.3133311,422.886617 70.3620847,422.886617 Z M92.8034981,422.886617 C93.8522517,422.886617 94.7024344,423.732618 94.7024344,424.776213 C94.7024344,425.819807 93.8522517,426.665808 92.8034981,426.665808 C91.7547445,426.665808 90.9045618,425.819807 90.9045618,424.776213 C90.9045618,423.732618 91.7547445,422.886617 92.8034981,422.886617 Z M115.244912,422.886617 C116.293665,422.886617 117.143848,423.732618 117.143848,424.776213 C117.143848,425.819807 116.293665,426.665808 115.244912,426.665808 C114.196158,426.665808 113.345975,425.819807 113.345975,424.776213 C113.345975,423.732618 114.196158,422.886617 115.244912,422.886617 Z M115.254585,398.750198 C116.308681,398.750198 117.163194,399.596199 117.163194,400.639794 C117.163194,401.683389 116.308681,402.52939 115.254585,402.52939 C114.200489,402.52939 113.345975,401.683389 113.345975,400.639794 C113.345975,399.596199 114.200489,398.750198 115.254585,398.750198 Z M92.8131714,398.750198 C93.8672674,398.750198 94.721781,399.596199 94.721781,400.639794 C94.721781,401.683389 93.8672674,402.52939 92.8131714,402.52939 C91.7590754,402.52939 90.9045618,401.683389 90.9045618,400.639794 C90.9045618,399.596199 91.7590754,398.750198 92.8131714,398.750198 Z M70.371758,398.750198 C71.425854,398.750198 72.2803676,399.596199 72.2803676,400.639794 C72.2803676,401.683389 71.425854,402.52939 70.371758,402.52939 C69.317662,402.52939 68.4631483,401.683389 68.4631483,400.639794 C68.4631483,399.596199 69.317662,398.750198 70.371758,398.750198 Z M2.07180407,398.750198 C3.12590006,398.750198 3.9804137,399.596199 3.9804137,400.639794 C3.9804137,401.683389 3.12590006,402.52939 2.07180407,402.52939 C1.01770808,402.52939 0.163194444,401.683389 0.163194444,400.639794 C0.163194444,399.596199 1.01770808,398.750198 2.07180407,398.750198 Z M46.9546309,398.750198 C48.0087269,398.750198 48.8632405,399.596199 48.8632405,400.639794 C48.8632405,401.683389 48.0087269,402.52939 46.9546309,402.52939 C45.9005349,402.52939 45.0460213,401.683389 45.0460213,400.639794 C45.0460213,399.596199 45.9005349,398.750198 46.9546309,398.750198 Z M24.5132175,398.750198 C25.5673135,398.750198 26.4218271,399.596199 26.4218271,400.639794 C26.4218271,401.683389 25.5673135,402.52939 24.5132175,402.52939 C23.4591215,402.52939 22.6046079,401.683389 22.6046079,400.639794 C22.6046079,399.596199 23.4591215,398.750198 24.5132175,398.750198 Z M24.5132175,375.08336 C25.5673135,375.08336 26.4218271,375.929361 26.4218271,376.972956 C26.4218271,378.016551 25.5673135,378.862551 24.5132175,378.862551 C23.4591215,378.862551 22.6046079,378.016551 22.6046079,376.972956 C22.6046079,375.929361 23.4591215,375.08336 24.5132175,375.08336 Z M46.9546309,375.08336 C48.0087269,375.08336 48.8632405,375.929361 48.8632405,376.972956 C48.8632405,378.016551 48.0087269,378.862551 46.9546309,378.862551 C45.9005349,378.862551 45.0460213,378.016551 45.0460213,376.972956 C45.0460213,375.929361 45.9005349,375.08336 46.9546309,375.08336 Z M2.07180407,375.08336 C3.12590006,375.08336 3.9804137,375.929361 3.9804137,376.972956 C3.9804137,378.016551 3.12590006,378.862551 2.07180407,378.862551 C1.01770808,378.862551 0.163194444,378.016551 0.163194444,376.972956 C0.163194444,375.929361 1.01770808,375.08336 2.07180407,375.08336 Z M70.371758,375.08336 C71.425854,375.08336 72.2803676,375.929361 72.2803676,376.972956 C72.2803676,378.016551 71.425854,378.862551 70.371758,378.862551 C69.317662,378.862551 68.4631483,378.016551 68.4631483,376.972956 C68.4631483,375.929361 69.317662,375.08336 70.371758,375.08336 Z M92.8131714,375.08336 C93.8672674,375.08336 94.721781,375.929361 94.721781,376.972956 C94.721781,378.016551 93.8672674,378.862551 92.8131714,378.862551 C91.7590754,378.862551 90.9045618,378.016551 90.9045618,376.972956 C90.9045618,375.929361 91.7590754,375.08336 92.8131714,375.08336 Z M115.254585,375.08336 C116.308681,375.08336 117.163194,375.929361 117.163194,376.972956 C117.163194,378.016551 116.308681,378.862551 115.254585,378.862551 C114.200489,378.862551 113.345975,378.016551 113.345975,376.972956 C113.345975,375.929361 114.200489,375.08336 115.254585,375.08336 Z M24.5132175,351.416522 C25.5673135,351.416522 26.4218271,352.262523 26.4218271,353.306117 C26.4218271,354.349712 25.5673135,355.195713 24.5132175,355.195713 C23.4591215,355.195713 22.6046079,354.349712 22.6046079,353.306117 C22.6046079,352.262523 23.4591215,351.416522 24.5132175,351.416522 Z M46.9546309,351.416522 C48.0087269,351.416522 48.8632405,352.262523 48.8632405,353.306117 C48.8632405,354.349712 48.0087269,355.195713 46.9546309,355.195713 C45.9005349,355.195713 45.0460213,354.349712 45.0460213,353.306117 C45.0460213,352.262523 45.9005349,351.416522 46.9546309,351.416522 Z M70.371758,351.416522 C71.425854,351.416522 72.2803676,352.262523 72.2803676,353.306117 C72.2803676,354.349712 71.425854,355.195713 70.371758,355.195713 C69.317662,355.195713 68.4631483,354.349712 68.4631483,353.306117 C68.4631483,352.262523 69.317662,351.416522 70.371758,351.416522 Z M92.8131714,351.416522 C93.8672674,351.416522 94.721781,352.262523 94.721781,353.306117 C94.721781,354.349712 93.8672674,355.195713 92.8131714,355.195713 C91.7590754,355.195713 90.9045618,354.349712 90.9045618,353.306117 C90.9045618,352.262523 91.7590754,351.416522 92.8131714,351.416522 Z M2.07180407,351.416522 C3.12590006,351.416522 3.9804137,352.262523 3.9804137,353.306117 C3.9804137,354.349712 3.12590006,355.195713 2.07180407,355.195713 C1.01770808,355.195713 0.163194444,354.349712 0.163194444,353.306117 C0.163194444,352.262523 1.01770808,351.416522 2.07180407,351.416522 Z M115.254585,351.416522 C116.308681,351.416522 117.163194,352.262523 117.163194,353.306117 C117.163194,354.349712 116.308681,355.195713 115.254585,355.195713 C114.200489,355.195713 113.345975,354.349712 113.345975,353.306117 C113.345975,352.262523 114.200489,351.416522 115.254585,351.416522 Z M46.9546309,327.749683 C48.0087269,327.749683 48.8632405,328.595684 48.8632405,329.639279 C48.8632405,330.682874 48.0087269,331.528875 46.9546309,331.528875 C45.9005349,331.528875 45.0460213,330.682874 45.0460213,329.639279 C45.0460213,328.595684 45.9005349,327.749683 46.9546309,327.749683 Z M24.5132175,327.749683 C25.5673135,327.749683 26.4218271,328.595684 26.4218271,329.639279 C26.4218271,330.682874 25.5673135,331.528875 24.5132175,331.528875 C23.4591215,331.528875 22.6046079,330.682874 22.6046079,329.639279 C22.6046079,328.595684 23.4591215,327.749683 24.5132175,327.749683 Z M70.371758,327.749683 C71.425854,327.749683 72.2803676,328.595684 72.2803676,329.639279 C72.2803676,330.682874 71.425854,331.528875 70.371758,331.528875 C69.317662,331.528875 68.4631483,330.682874 68.4631483,329.639279 C68.4631483,328.595684 69.317662,327.749683 70.371758,327.749683 Z M92.8131714,327.749683 C93.8672674,327.749683 94.721781,328.595684 94.721781,329.639279 C94.721781,330.682874 93.8672674,331.528875 92.8131714,331.528875 C91.7590754,331.528875 90.9045618,330.682874 90.9045618,329.639279 C90.9045618,328.595684 91.7590754,327.749683 92.8131714,327.749683 Z M2.07180407,327.749683 C3.12590006,327.749683 3.9804137,328.595684 3.9804137,329.639279 C3.9804137,330.682874 3.12590006,331.528875 2.07180407,331.528875 C1.01770808,331.528875 0.163194444,330.682874 0.163194444,329.639279 C0.163194444,328.595684 1.01770808,327.749683 2.07180407,327.749683 Z M115.254585,327.749683 C116.308681,327.749683 117.163194,328.595684 117.163194,329.639279 C117.163194,330.682874 116.308681,331.528875 115.254585,331.528875 C114.200489,331.528875 113.345975,330.682874 113.345975,329.639279 C113.345975,328.595684 114.200489,327.749683 115.254585,327.749683 Z M46.9546309,304.082845 C48.0087269,304.082845 48.8632405,304.928846 48.8632405,305.972441 C48.8632405,307.016036 48.0087269,307.862036 46.9546309,307.862036 C45.9005349,307.862036 45.0460213,307.016036 45.0460213,305.972441 C45.0460213,304.928846 45.9005349,304.082845 46.9546309,304.082845 Z M24.5132175,304.082845 C25.5673135,304.082845 26.4218271,304.928846 26.4218271,305.972441 C26.4218271,307.016036 25.5673135,307.862036 24.5132175,307.862036 C23.4591215,307.862036 22.6046079,307.016036 22.6046079,305.972441 C22.6046079,304.928846 23.4591215,304.082845 24.5132175,304.082845 Z M70.371758,304.082845 C71.425854,304.082845 72.2803676,304.928846 72.2803676,305.972441 C72.2803676,307.016036 71.425854,307.862036 70.371758,307.862036 C69.317662,307.862036 68.4631483,307.016036 68.4631483,305.972441 C68.4631483,304.928846 69.317662,304.082845 70.371758,304.082845 Z M2.07180407,304.082845 C3.12590006,304.082845 3.9804137,304.928846 3.9804137,305.972441 C3.9804137,307.016036 3.12590006,307.862036 2.07180407,307.862036 C1.01770808,307.862036 0.163194444,307.016036 0.163194444,305.972441 C0.163194444,304.928846 1.01770808,304.082845 2.07180407,304.082845 Z M92.8131714,304.082845 C93.8672674,304.082845 94.721781,304.928846 94.721781,305.972441 C94.721781,307.016036 93.8672674,307.862036 92.8131714,307.862036 C91.7590754,307.862036 90.9045618,307.016036 90.9045618,305.972441 C90.9045618,304.928846 91.7590754,304.082845 92.8131714,304.082845 Z M115.254585,304.082845 C116.308681,304.082845 117.163194,304.928846 117.163194,305.972441 C117.163194,307.016036 116.308681,307.862036 115.254585,307.862036 C114.200489,307.862036 113.345975,307.016036 113.345975,305.972441 C113.345975,304.928846 114.200489,304.082845 115.254585,304.082845 Z M46.9546309,280.416007 C48.0087269,280.416007 48.8632405,281.262007 48.8632405,282.305602 C48.8632405,283.349197 48.0087269,284.195198 46.9546309,284.195198 C45.9005349,284.195198 45.0460213,283.349197 45.0460213,282.305602 C45.0460213,281.262007 45.9005349,280.416007 46.9546309,280.416007 Z M24.5132175,280.416007 C25.5673135,280.416007 26.4218271,281.262007 26.4218271,282.305602 C26.4218271,283.349197 25.5673135,284.195198 24.5132175,284.195198 C23.4591215,284.195198 22.6046079,283.349197 22.6046079,282.305602 C22.6046079,281.262007 23.4591215,280.416007 24.5132175,280.416007 Z M2.07180407,280.416007 C3.12590006,280.416007 3.9804137,281.262007 3.9804137,282.305602 C3.9804137,283.349197 3.12590006,284.195198 2.07180407,284.195198 C1.01770808,284.195198 0.163194444,283.349197 0.163194444,282.305602 C0.163194444,281.262007 1.01770808,280.416007 2.07180407,280.416007 Z M92.8131714,280.416007 C93.8672674,280.416007 94.721781,281.262007 94.721781,282.305602 C94.721781,283.349197 93.8672674,284.195198 92.8131714,284.195198 C91.7590754,284.195198 90.9045618,283.349197 90.9045618,282.305602 C90.9045618,281.262007 91.7590754,280.416007 92.8131714,280.416007 Z M115.254585,280.416007 C116.308681,280.416007 117.163194,281.262007 117.163194,282.305602 C117.163194,283.349197 116.308681,284.195198 115.254585,284.195198 C114.200489,284.195198 113.345975,283.349197 113.345975,282.305602 C113.345975,281.262007 114.200489,280.416007 115.254585,280.416007 Z M70.371758,280.416007 C71.425854,280.416007 72.2803676,281.262007 72.2803676,282.305602 C72.2803676,283.349197 71.425854,284.195198 70.371758,284.195198 C69.317662,284.195198 68.4631483,283.349197 68.4631483,282.305602 C68.4631483,281.262007 69.317662,280.416007 70.371758,280.416007 Z M115.244912,260.804802 C116.293665,260.804802 117.143848,261.650803 117.143848,262.694398 C117.143848,263.737993 116.293665,264.583993 115.244912,264.583993 C114.196158,264.583993 113.345975,263.737993 113.345975,262.694398 C113.345975,261.650803 114.196158,260.804802 115.244912,260.804802 Z M2.06213078,260.804802 C3.11088435,260.804802 3.96106711,261.650803 3.96106711,262.694398 C3.96106711,263.737993 3.11088435,264.583993 2.06213078,264.583993 C1.0133772,264.583993 0.163194444,263.737993 0.163194444,262.694398 C0.163194444,261.650803 1.0133772,260.804802 2.06213078,260.804802 Z M24.5035442,260.804802 C25.5522978,260.804802 26.4024805,261.650803 26.4024805,262.694398 C26.4024805,263.737993 25.5522978,264.583993 24.5035442,264.583993 C23.4547906,264.583993 22.6046079,263.737993 22.6046079,262.694398 C22.6046079,261.650803 23.4547906,260.804802 24.5035442,260.804802 Z M46.9449576,260.804802 C47.9937112,260.804802 48.843894,261.650803 48.843894,262.694398 C48.843894,263.737993 47.9937112,264.583993 46.9449576,264.583993 C45.896204,264.583993 45.0460213,263.737993 45.0460213,262.694398 C45.0460213,261.650803 45.896204,260.804802 46.9449576,260.804802 Z M70.3620847,260.804802 C71.4108383,260.804802 72.261021,261.650803 72.261021,262.694398 C72.261021,263.737993 71.4108383,264.583993 70.3620847,264.583993 C69.3133311,264.583993 68.4631483,263.737993 68.4631483,262.694398 C68.4631483,261.650803 69.3133311,260.804802 70.3620847,260.804802 Z M92.8034981,260.804802 C93.8522517,260.804802 94.7024344,261.650803 94.7024344,262.694398 C94.7024344,263.737993 93.8522517,264.583993 92.8034981,264.583993 C91.7547445,264.583993 90.9045618,263.737993 90.9045618,262.694398 C90.9045618,261.650803 91.7547445,260.804802 92.8034981,260.804802 Z M2.06213078,237.137964 C3.11088435,237.137964 3.96106711,237.983964 3.96106711,239.027559 C3.96106711,240.071154 3.11088435,240.917155 2.06213078,240.917155 C1.0133772,240.917155 0.163194444,240.071154 0.163194444,239.027559 C0.163194444,237.983964 1.0133772,237.137964 2.06213078,237.137964 Z M24.5035442,237.137964 C25.5522978,237.137964 26.4024805,237.983964 26.4024805,239.027559 C26.4024805,240.071154 25.5522978,240.917155 24.5035442,240.917155 C23.4547906,240.917155 22.6046079,240.071154 22.6046079,239.027559 C22.6046079,237.983964 23.4547906,237.137964 24.5035442,237.137964 Z M46.9449576,237.137964 C47.9937112,237.137964 48.843894,237.983964 48.843894,239.027559 C48.843894,240.071154 47.9937112,240.917155 46.9449576,240.917155 C45.896204,240.917155 45.0460213,240.071154 45.0460213,239.027559 C45.0460213,237.983964 45.896204,237.137964 46.9449576,237.137964 Z M70.3620847,237.137964 C71.4108383,237.137964 72.261021,237.983964 72.261021,239.027559 C72.261021,240.071154 71.4108383,240.917155 70.3620847,240.917155 C69.3133311,240.917155 68.4631483,240.071154 68.4631483,239.027559 C68.4631483,237.983964 69.3133311,237.137964 70.3620847,237.137964 Z M92.8034981,237.137964 C93.8522517,237.137964 94.7024344,237.983964 94.7024344,239.027559 C94.7024344,240.071154 93.8522517,240.917155 92.8034981,240.917155 C91.7547445,240.917155 90.9045618,240.071154 90.9045618,239.027559 C90.9045618,237.983964 91.7547445,237.137964 92.8034981,237.137964 Z M115.244912,237.137964 C116.293665,237.137964 117.143848,237.983964 117.143848,239.027559 C117.143848,240.071154 116.293665,240.917155 115.244912,240.917155 C114.196158,240.917155 113.345975,240.071154 113.345975,239.027559 C113.345975,237.983964 114.196158,237.137964 115.244912,237.137964 Z M2.06213078,213.471125 C3.11088435,213.471125 3.96106711,214.317126 3.96106711,215.360721 C3.96106711,216.404316 3.11088435,217.250317 2.06213078,217.250317 C1.0133772,217.250317 0.163194444,216.404316 0.163194444,215.360721 C0.163194444,214.317126 1.0133772,213.471125 2.06213078,213.471125 Z M24.5035442,213.471125 C25.5522978,213.471125 26.4024805,214.317126 26.4024805,215.360721 C26.4024805,216.404316 25.5522978,217.250317 24.5035442,217.250317 C23.4547906,217.250317 22.6046079,216.404316 22.6046079,215.360721 C22.6046079,214.317126 23.4547906,213.471125 24.5035442,213.471125 Z M46.9449576,213.471125 C47.9937112,213.471125 48.843894,214.317126 48.843894,215.360721 C48.843894,216.404316 47.9937112,217.250317 46.9449576,217.250317 C45.896204,217.250317 45.0460213,216.404316 45.0460213,215.360721 C45.0460213,214.317126 45.896204,213.471125 46.9449576,213.471125 Z M70.3620847,213.471125 C71.4108383,213.471125 72.261021,214.317126 72.261021,215.360721 C72.261021,216.404316 71.4108383,217.250317 70.3620847,217.250317 C69.3133311,217.250317 68.4631483,216.404316 68.4631483,215.360721 C68.4631483,214.317126 69.3133311,213.471125 70.3620847,213.471125 Z M92.8034981,213.471125 C93.8522517,213.471125 94.7024344,214.317126 94.7024344,215.360721 C94.7024344,216.404316 93.8522517,217.250317 92.8034981,217.250317 C91.7547445,217.250317 90.9045618,216.404316 90.9045618,215.360721 C90.9045618,214.317126 91.7547445,213.471125 92.8034981,213.471125 Z M115.244912,213.471125 C116.293665,213.471125 117.143848,214.317126 117.143848,215.360721 C117.143848,216.404316 116.293665,217.250317 115.244912,217.250317 C114.196158,217.250317 113.345975,216.404316 113.345975,215.360721 C113.345975,214.317126 114.196158,213.471125 115.244912,213.471125 Z M2.06213078,189.804287 C3.11088435,189.804287 3.96106711,190.650288 3.96106711,191.693883 C3.96106711,192.737477 3.11088435,193.583478 2.06213078,193.583478 C1.0133772,193.583478 0.163194444,192.737477 0.163194444,191.693883 C0.163194444,190.650288 1.0133772,189.804287 2.06213078,189.804287 Z M24.5035442,189.804287 C25.5522978,189.804287 26.4024805,190.650288 26.4024805,191.693883 C26.4024805,192.737477 25.5522978,193.583478 24.5035442,193.583478 C23.4547906,193.583478 22.6046079,192.737477 22.6046079,191.693883 C22.6046079,190.650288 23.4547906,189.804287 24.5035442,189.804287 Z M46.9449576,189.804287 C47.9937112,189.804287 48.843894,190.650288 48.843894,191.693883 C48.843894,192.737477 47.9937112,193.583478 46.9449576,193.583478 C45.896204,193.583478 45.0460213,192.737477 45.0460213,191.693883 C45.0460213,190.650288 45.896204,189.804287 46.9449576,189.804287 Z M70.3620847,189.804287 C71.4108383,189.804287 72.261021,190.650288 72.261021,191.693883 C72.261021,192.737477 71.4108383,193.583478 70.3620847,193.583478 C69.3133311,193.583478 68.4631483,192.737477 68.4631483,191.693883 C68.4631483,190.650288 69.3133311,189.804287 70.3620847,189.804287 Z M92.8034981,189.804287 C93.8522517,189.804287 94.7024344,190.650288 94.7024344,191.693883 C94.7024344,192.737477 93.8522517,193.583478 92.8034981,193.583478 C91.7547445,193.583478 90.9045618,192.737477 90.9045618,191.693883 C90.9045618,190.650288 91.7547445,189.804287 92.8034981,189.804287 Z M115.244912,189.804287 C116.293665,189.804287 117.143848,190.650288 117.143848,191.693883 C117.143848,192.737477 116.293665,193.583478 115.244912,193.583478 C114.196158,193.583478 113.345975,192.737477 113.345975,191.693883 C113.345975,190.650288 114.196158,189.804287 115.244912,189.804287 Z M2.06213078,166.137449 C3.11088435,166.137449 3.96106711,166.983449 3.96106711,168.027044 C3.96106711,169.070639 3.11088435,169.91664 2.06213078,169.91664 C1.0133772,169.91664 0.163194444,169.070639 0.163194444,168.027044 C0.163194444,166.983449 1.0133772,166.137449 2.06213078,166.137449 Z M24.5035442,166.137449 C25.5522978,166.137449 26.4024805,166.983449 26.4024805,168.027044 C26.4024805,169.070639 25.5522978,169.91664 24.5035442,169.91664 C23.4547906,169.91664 22.6046079,169.070639 22.6046079,168.027044 C22.6046079,166.983449 23.4547906,166.137449 24.5035442,166.137449 Z M46.9449576,166.137449 C47.9937112,166.137449 48.843894,166.983449 48.843894,168.027044 C48.843894,169.070639 47.9937112,169.91664 46.9449576,169.91664 C45.896204,169.91664 45.0460213,169.070639 45.0460213,168.027044 C45.0460213,166.983449 45.896204,166.137449 46.9449576,166.137449 Z M70.3620847,166.137449 C71.4108383,166.137449 72.261021,166.983449 72.261021,168.027044 C72.261021,169.070639 71.4108383,169.91664 70.3620847,169.91664 C69.3133311,169.91664 68.4631483,169.070639 68.4631483,168.027044 C68.4631483,166.983449 69.3133311,166.137449 70.3620847,166.137449 Z M92.8034981,166.137449 C93.8522517,166.137449 94.7024344,166.983449 94.7024344,168.027044 C94.7024344,169.070639 93.8522517,169.91664 92.8034981,169.91664 C91.7547445,169.91664 90.9045618,169.070639 90.9045618,168.027044 C90.9045618,166.983449 91.7547445,166.137449 92.8034981,166.137449 Z M115.244912,166.137449 C116.293665,166.137449 117.143848,166.983449 117.143848,168.027044 C117.143848,169.070639 116.293665,169.91664 115.244912,169.91664 C114.196158,169.91664 113.345975,169.070639 113.345975,168.027044 C113.345975,166.983449 114.196158,166.137449 115.244912,166.137449 Z M2.06213078,142.47061 C3.11088435,142.47061 3.96106711,143.316611 3.96106711,144.360206 C3.96106711,145.403801 3.11088435,146.249802 2.06213078,146.249802 C1.0133772,146.249802 0.163194444,145.403801 0.163194444,144.360206 C0.163194444,143.316611 1.0133772,142.47061 2.06213078,142.47061 Z M24.5035442,142.47061 C25.5522978,142.47061 26.4024805,143.316611 26.4024805,144.360206 C26.4024805,145.403801 25.5522978,146.249802 24.5035442,146.249802 C23.4547906,146.249802 22.6046079,145.403801 22.6046079,144.360206 C22.6046079,143.316611 23.4547906,142.47061 24.5035442,142.47061 Z M46.9449576,142.47061 C47.9937112,142.47061 48.843894,143.316611 48.843894,144.360206 C48.843894,145.403801 47.9937112,146.249802 46.9449576,146.249802 C45.896204,146.249802 45.0460213,145.403801 45.0460213,144.360206 C45.0460213,143.316611 45.896204,142.47061 46.9449576,142.47061 Z M70.3620847,142.47061 C71.4108383,142.47061 72.261021,143.316611 72.261021,144.360206 C72.261021,145.403801 71.4108383,146.249802 70.3620847,146.249802 C69.3133311,146.249802 68.4631483,145.403801 68.4631483,144.360206 C68.4631483,143.316611 69.3133311,142.47061 70.3620847,142.47061 Z M92.8034981,142.47061 C93.8522517,142.47061 94.7024344,143.316611 94.7024344,144.360206 C94.7024344,145.403801 93.8522517,146.249802 92.8034981,146.249802 C91.7547445,146.249802 90.9045618,145.403801 90.9045618,144.360206 C90.9045618,143.316611 91.7547445,142.47061 92.8034981,142.47061 Z M115.244912,142.47061 C116.293665,142.47061 117.143848,143.316611 117.143848,144.360206 C117.143848,145.403801 116.293665,146.249802 115.244912,146.249802 C114.196158,146.249802 113.345975,145.403801 113.345975,144.360206 C113.345975,143.316611 114.196158,142.47061 115.244912,142.47061 Z M115.254585,118.334192 C116.308681,118.334192 117.163194,119.180193 117.163194,120.223787 C117.163194,121.267382 116.308681,122.113383 115.254585,122.113383 C114.200489,122.113383 113.345975,121.267382 113.345975,120.223787 C113.345975,119.180193 114.200489,118.334192 115.254585,118.334192 Z M92.8131714,118.334192 C93.8672674,118.334192 94.721781,119.180193 94.721781,120.223787 C94.721781,121.267382 93.8672674,122.113383 92.8131714,122.113383 C91.7590754,122.113383 90.9045618,121.267382 90.9045618,120.223787 C90.9045618,119.180193 91.7590754,118.334192 92.8131714,118.334192 Z M70.371758,118.334192 C71.425854,118.334192 72.2803676,119.180193 72.2803676,120.223787 C72.2803676,121.267382 71.425854,122.113383 70.371758,122.113383 C69.317662,122.113383 68.4631483,121.267382 68.4631483,120.223787 C68.4631483,119.180193 69.317662,118.334192 70.371758,118.334192 Z M2.07180407,118.334192 C3.12590006,118.334192 3.9804137,119.180193 3.9804137,120.223787 C3.9804137,121.267382 3.12590006,122.113383 2.07180407,122.113383 C1.01770808,122.113383 0.163194444,121.267382 0.163194444,120.223787 C0.163194444,119.180193 1.01770808,118.334192 2.07180407,118.334192 Z M46.9546309,118.334192 C48.0087269,118.334192 48.8632405,119.180193 48.8632405,120.223787 C48.8632405,121.267382 48.0087269,122.113383 46.9546309,122.113383 C45.9005349,122.113383 45.0460213,121.267382 45.0460213,120.223787 C45.0460213,119.180193 45.9005349,118.334192 46.9546309,118.334192 Z M24.5132175,118.334192 C25.5673135,118.334192 26.4218271,119.180193 26.4218271,120.223787 C26.4218271,121.267382 25.5673135,122.113383 24.5132175,122.113383 C23.4591215,122.113383 22.6046079,121.267382 22.6046079,120.223787 C22.6046079,119.180193 23.4591215,118.334192 24.5132175,118.334192 Z M24.5132175,94.6673534 C25.5673135,94.6673534 26.4218271,95.5133542 26.4218271,96.5569491 C26.4218271,97.600544 25.5673135,98.4465448 24.5132175,98.4465448 C23.4591215,98.4465448 22.6046079,97.600544 22.6046079,96.5569491 C22.6046079,95.5133542 23.4591215,94.6673534 24.5132175,94.6673534 Z M46.9546309,94.6673534 C48.0087269,94.6673534 48.8632405,95.5133542 48.8632405,96.5569491 C48.8632405,97.600544 48.0087269,98.4465448 46.9546309,98.4465448 C45.9005349,98.4465448 45.0460213,97.600544 45.0460213,96.5569491 C45.0460213,95.5133542 45.9005349,94.6673534 46.9546309,94.6673534 Z M2.07180407,94.6673534 C3.12590006,94.6673534 3.9804137,95.5133542 3.9804137,96.5569491 C3.9804137,97.600544 3.12590006,98.4465448 2.07180407,98.4465448 C1.01770808,98.4465448 0.163194444,97.600544 0.163194444,96.5569491 C0.163194444,95.5133542 1.01770808,94.6673534 2.07180407,94.6673534 Z M70.371758,94.6673534 C71.425854,94.6673534 72.2803676,95.5133542 72.2803676,96.5569491 C72.2803676,97.600544 71.425854,98.4465448 70.371758,98.4465448 C69.317662,98.4465448 68.4631483,97.600544 68.4631483,96.5569491 C68.4631483,95.5133542 69.317662,94.6673534 70.371758,94.6673534 Z M92.8131714,94.6673534 C93.8672674,94.6673534 94.721781,95.5133542 94.721781,96.5569491 C94.721781,97.600544 93.8672674,98.4465448 92.8131714,98.4465448 C91.7590754,98.4465448 90.9045618,97.600544 90.9045618,96.5569491 C90.9045618,95.5133542 91.7590754,94.6673534 92.8131714,94.6673534 Z M115.254585,94.6673534 C116.308681,94.6673534 117.163194,95.5133542 117.163194,96.5569491 C117.163194,97.600544 116.308681,98.4465448 115.254585,98.4465448 C114.200489,98.4465448 113.345975,97.600544 113.345975,96.5569491 C113.345975,95.5133542 114.200489,94.6673534 115.254585,94.6673534 Z M24.5132175,71.000515 C25.5673135,71.000515 26.4218271,71.8465158 26.4218271,72.8901108 C26.4218271,73.9337057 25.5673135,74.7797065 24.5132175,74.7797065 C23.4591215,74.7797065 22.6046079,73.9337057 22.6046079,72.8901108 C22.6046079,71.8465158 23.4591215,71.000515 24.5132175,71.000515 Z M46.9546309,71.000515 C48.0087269,71.000515 48.8632405,71.8465158 48.8632405,72.8901108 C48.8632405,73.9337057 48.0087269,74.7797065 46.9546309,74.7797065 C45.9005349,74.7797065 45.0460213,73.9337057 45.0460213,72.8901108 C45.0460213,71.8465158 45.9005349,71.000515 46.9546309,71.000515 Z M70.371758,71.000515 C71.425854,71.000515 72.2803676,71.8465158 72.2803676,72.8901108 C72.2803676,73.9337057 71.425854,74.7797065 70.371758,74.7797065 C69.317662,74.7797065 68.4631483,73.9337057 68.4631483,72.8901108 C68.4631483,71.8465158 69.317662,71.000515 70.371758,71.000515 Z M92.8131714,71.000515 C93.8672674,71.000515 94.721781,71.8465158 94.721781,72.8901108 C94.721781,73.9337057 93.8672674,74.7797065 92.8131714,74.7797065 C91.7590754,74.7797065 90.9045618,73.9337057 90.9045618,72.8901108 C90.9045618,71.8465158 91.7590754,71.000515 92.8131714,71.000515 Z M2.07180407,71.000515 C3.12590006,71.000515 3.9804137,71.8465158 3.9804137,72.8901108 C3.9804137,73.9337057 3.12590006,74.7797065 2.07180407,74.7797065 C1.01770808,74.7797065 0.163194444,73.9337057 0.163194444,72.8901108 C0.163194444,71.8465158 1.01770808,71.000515 2.07180407,71.000515 Z M115.254585,71.000515 C116.308681,71.000515 117.163194,71.8465158 117.163194,72.8901108 C117.163194,73.9337057 116.308681,74.7797065 115.254585,74.7797065 C114.200489,74.7797065 113.345975,73.9337057 113.345975,72.8901108 C113.345975,71.8465158 114.200489,71.000515 115.254585,71.000515 Z M46.9546309,47.3336767 C48.0087269,47.3336767 48.8632405,48.1796775 48.8632405,49.2232724 C48.8632405,50.2668673 48.0087269,51.1128681 46.9546309,51.1128681 C45.9005349,51.1128681 45.0460213,50.2668673 45.0460213,49.2232724 C45.0460213,48.1796775 45.9005349,47.3336767 46.9546309,47.3336767 Z M24.5132175,47.3336767 C25.5673135,47.3336767 26.4218271,48.1796775 26.4218271,49.2232724 C26.4218271,50.2668673 25.5673135,51.1128681 24.5132175,51.1128681 C23.4591215,51.1128681 22.6046079,50.2668673 22.6046079,49.2232724 C22.6046079,48.1796775 23.4591215,47.3336767 24.5132175,47.3336767 Z M70.371758,47.3336767 C71.425854,47.3336767 72.2803676,48.1796775 72.2803676,49.2232724 C72.2803676,50.2668673 71.425854,51.1128681 70.371758,51.1128681 C69.317662,51.1128681 68.4631483,50.2668673 68.4631483,49.2232724 C68.4631483,48.1796775 69.317662,47.3336767 70.371758,47.3336767 Z M92.8131714,47.3336767 C93.8672674,47.3336767 94.721781,48.1796775 94.721781,49.2232724 C94.721781,50.2668673 93.8672674,51.1128681 92.8131714,51.1128681 C91.7590754,51.1128681 90.9045618,50.2668673 90.9045618,49.2232724 C90.9045618,48.1796775 91.7590754,47.3336767 92.8131714,47.3336767 Z M2.07180407,47.3336767 C3.12590006,47.3336767 3.9804137,48.1796775 3.9804137,49.2232724 C3.9804137,50.2668673 3.12590006,51.1128681 2.07180407,51.1128681 C1.01770808,51.1128681 0.163194444,50.2668673 0.163194444,49.2232724 C0.163194444,48.1796775 1.01770808,47.3336767 2.07180407,47.3336767 Z M115.254585,47.3336767 C116.308681,47.3336767 117.163194,48.1796775 117.163194,49.2232724 C117.163194,50.2668673 116.308681,51.1128681 115.254585,51.1128681 C114.200489,51.1128681 113.345975,50.2668673 113.345975,49.2232724 C113.345975,48.1796775 114.200489,47.3336767 115.254585,47.3336767 Z M46.9546309,23.6668383 C48.0087269,23.6668383 48.8632405,24.5128392 48.8632405,25.5564341 C48.8632405,26.600029 48.0087269,27.4460298 46.9546309,27.4460298 C45.9005349,27.4460298 45.0460213,26.600029 45.0460213,25.5564341 C45.0460213,24.5128392 45.9005349,23.6668383 46.9546309,23.6668383 Z M24.5132175,23.6668383 C25.5673135,23.6668383 26.4218271,24.5128392 26.4218271,25.5564341 C26.4218271,26.600029 25.5673135,27.4460298 24.5132175,27.4460298 C23.4591215,27.4460298 22.6046079,26.600029 22.6046079,25.5564341 C22.6046079,24.5128392 23.4591215,23.6668383 24.5132175,23.6668383 Z M70.371758,23.6668383 C71.425854,23.6668383 72.2803676,24.5128392 72.2803676,25.5564341 C72.2803676,26.600029 71.425854,27.4460298 70.371758,27.4460298 C69.317662,27.4460298 68.4631483,26.600029 68.4631483,25.5564341 C68.4631483,24.5128392 69.317662,23.6668383 70.371758,23.6668383 Z M2.07180407,23.6668383 C3.12590006,23.6668383 3.9804137,24.5128392 3.9804137,25.5564341 C3.9804137,26.600029 3.12590006,27.4460298 2.07180407,27.4460298 C1.01770808,27.4460298 0.163194444,26.600029 0.163194444,25.5564341 C0.163194444,24.5128392 1.01770808,23.6668383 2.07180407,23.6668383 Z M92.8131714,23.6668383 C93.8672674,23.6668383 94.721781,24.5128392 94.721781,25.5564341 C94.721781,26.600029 93.8672674,27.4460298 92.8131714,27.4460298 C91.7590754,27.4460298 90.9045618,26.600029 90.9045618,25.5564341 C90.9045618,24.5128392 91.7590754,23.6668383 92.8131714,23.6668383 Z M115.254585,23.6668383 C116.308681,23.6668383 117.163194,24.5128392 117.163194,25.5564341 C117.163194,26.600029 116.308681,27.4460298 115.254585,27.4460298 C114.200489,27.4460298 113.345975,26.600029 113.345975,25.5564341 C113.345975,24.5128392 114.200489,23.6668383 115.254585,23.6668383 Z M46.9546309,0 C48.0087269,0 48.8632405,0.846000826 48.8632405,1.88959573 C48.8632405,2.93319064 48.0087269,3.77919146 46.9546309,3.77919146 C45.9005349,3.77919146 45.0460213,2.93319064 45.0460213,1.88959573 C45.0460213,0.846000826 45.9005349,0 46.9546309,0 Z M24.5132175,0 C25.5673135,0 26.4218271,0.846000826 26.4218271,1.88959573 C26.4218271,2.93319064 25.5673135,3.77919146 24.5132175,3.77919146 C23.4591215,3.77919146 22.6046079,2.93319064 22.6046079,1.88959573 C22.6046079,0.846000826 23.4591215,0 24.5132175,0 Z M2.07180407,0 C3.12590006,0 3.9804137,0.846000826 3.9804137,1.88959573 C3.9804137,2.93319064 3.12590006,3.77919146 2.07180407,3.77919146 C1.01770808,3.77919146 0.163194444,2.93319064 0.163194444,1.88959573 C0.163194444,0.846000826 1.01770808,0 2.07180407,0 Z M92.8131714,0 C93.8672674,0 94.721781,0.846000826 94.721781,1.88959573 C94.721781,2.93319064 93.8672674,3.77919146 92.8131714,3.77919146 C91.7590754,3.77919146 90.9045618,2.93319064 90.9045618,1.88959573 C90.9045618,0.846000826 91.7590754,0 92.8131714,0 Z M115.254585,0 C116.308681,0 117.163194,0.846000826 117.163194,1.88959573 C117.163194,2.93319064 116.308681,3.77919146 115.254585,3.77919146 C114.200489,3.77919146 113.345975,2.93319064 113.345975,1.88959573 C113.345975,0.846000826 114.200489,0 115.254585,0 Z M70.371758,0 C71.425854,0 72.2803676,0.846000826 72.2803676,1.88959573 C72.2803676,2.93319064 71.425854,3.77919146 70.371758,3.77919146 C69.317662,3.77919146 68.4631483,2.93319064 68.4631483,1.88959573 C68.4631483,0.846000826 69.317662,0 70.371758,0 Z"></path>
                    </g>
                </g>
            </g>
        </g>
    </g>
</svg>