<?xml version="1.0" encoding="UTF-8"?>
<svg width="1440px" height="1605px" viewBox="0 0 1440 1605" version="1.1" xmlns="http://www.w3.org/2000/svg" xmlns:xlink="http://www.w3.org/1999/xlink">
    <!-- Generator: Sketch 49.3 (51167) - http://www.bohemiancoding.com/sketch -->
    <title>Group 11</title>
    <desc>Created with Sketch.</desc>
    <defs>
        <linearGradient x1="100%" y1="100%" x2="0%" y2="100%" id="linearGradient-1">
            <stop stop-color="#9A21D3" offset="0%"></stop>
            <stop stop-color="#2196F3" offset="100%"></stop>
        </linearGradient>
    </defs>
    <g id="Page-1" stroke="none" stroke-width="1" fill="none" fill-rule="evenodd" opacity="0.5">
        <g id="Desktop-HD-Copy-3">
            <g id="Group-11" transform="translate(-681.000000, 0.000000)">
                <rect id="Rectangle-4" fill="#FFFFFF" x="681" y="0" width="1440" height="1605"></rect>
                <g id="Group-3" stroke="url(#linearGradient-1)" stroke-linecap="round" stroke-linejoin="round">
                    <path d="M1,137 C1,379.527984 121.055636,771.656874 273.388512,771.656874 C425.721388,771.656874 374.501433,425.72336 750.576212,257.557306 C1126.65099,89.3912517 1161.25553,784.785053 1404.33788,828.307483 C1647.42023,871.829914 1903.95056,653.101022 2116.23889,612.344328 C2328.52723,571.587634 2587.59082,522.860598 2700.11653,690.006605 C2812.64224,857.152612 2797.29509,907 2797.29509,907" id="Line" transform="translate(1399.500000, 522.000000) scale(-1, 1) translate(-1399.500000, -522.000000) "></path>
                    <path d="M0,156 C8.97827125e-14,398.408939 120.082805,790.345353 272.450155,790.345353 C424.817505,790.345353 373.585958,444.58164 749.745845,276.49813 C1125.90573,108.41462 1160.5181,803.467088 1403.65546,846.968155 C1646.79283,890.469223 1903.38121,671.847694 2115.71758,631.111005 C2328.05396,590.374317 2587.17618,541.671198 2699.72735,708.735162 C2812.27853,875.799125 2799.56856,912 2799.56856,912" id="Line" transform="translate(1400.000000, 534.000000) scale(-1, 1) translate(-1400.000000, -534.000000) "></path>
                    <path d="M1,177 C1,419.39382 121.114667,811.30579 273.522446,811.30579 C425.930224,811.30579 374.685084,465.563642 750.944779,297.490615 C1127.20447,129.417588 1161.82603,824.426706 1405.0279,867.925061 C1648.22978,911.423415 1904.88625,692.815521 2117.27896,652.081374 C2329.67167,611.347226 2588.86265,562.647145 2701.44369,729.700688 C2814.02472,896.754232 2799.37529,918 2799.37529,918" id="Line" transform="translate(1400.500000, 547.500000) scale(-1, 1) translate(-1400.500000, -547.500000) "></path>
                    <path d="M1,196 C1,438.623744 121.114667,830.907464 273.522446,830.907464 C425.930224,830.907464 374.685084,484.83736 750.944779,316.604907 C1127.20447,148.372454 1161.82603,844.040827 1405.0279,887.580441 C1648.22978,931.120056 1904.88625,712.304801 2117.27896,671.532015 C2329.67167,630.759228 2588.86265,582.012952 2701.44369,749.224956 C2814.02472,916.436959 2799.37529,915.999994 2799.37529,915.999994" id="Line" transform="translate(1400.500000, 556.000000) scale(-1, 1) translate(-1400.500000, -556.000000) "></path>
                    <path d="M1,215 C1,457.525617 121.114667,849.650681 273.522446,849.650681 C425.930224,849.650681 374.685084,503.720543 750.944779,335.556129 C1127.20447,167.391716 1161.82603,862.778732 1405.0279,906.300737 C1648.22978,949.822743 1904.88625,731.095986 2117.27896,690.33969 C2329.67167,649.583394 2588.86265,600.856833 2701.44369,768.001208 C2814.02472,935.145584 2799.37529,906.300737 2799.37529,906.300737" id="Line" transform="translate(1400.500000, 563.500000) scale(-1, 1) translate(-1400.500000, -563.500000) "></path>
                    <path d="M1,235 C1,477.525617 121.114667,869.650681 273.522446,869.650681 C425.930224,869.650681 374.685084,523.720543 750.944779,355.556129 C1127.20447,187.391716 1161.82603,882.778732 1405.0279,926.300737 C1648.22978,969.822743 1904.88625,751.095986 2117.27896,710.33969 C2329.67167,669.583394 2588.86265,620.856833 2701.44369,788.001208 C2814.02472,955.145584 2799.37529,907.354079 2799.37529,907.354079" id="Line" transform="translate(1400.500000, 583.500000) scale(-1, 1) translate(-1400.500000, -583.500000) "></path>
                    <path d="M4,254 C4,496.525617 124.044276,888.650681 276.362738,888.650681 C428.681201,888.650681 377.466093,542.720543 753.505287,374.556129 C1129.54448,206.391716 1164.14574,901.778732 1407.2051,945.300737 C1650.26445,988.822743 1906.77051,770.095986 2119.03875,729.33969 C2331.30699,688.583394 2590.34607,639.856833 2702.86114,807.001208 C2815.3762,974.145584 2796.86541,923.79356 2796.86541,923.79356" id="Line" transform="translate(1401.000000, 602.500000) scale(-1, 1) translate(-1401.000000, -602.500000) "></path>
                    <path d="M1,117 C1,359.527984 121.055636,751.656874 273.388512,751.656874 C425.721388,751.656874 374.501433,405.72336 750.576212,237.557306 C1126.65099,69.3912517 1161.25553,764.785053 1404.33788,808.307483 C1647.42023,851.829914 1903.95056,633.101022 2116.23889,592.344328 C2328.52723,551.587634 2587.59082,502.860598 2700.11653,670.006605 C2812.64224,837.152612 2797.29509,887 2797.29509,887" id="Line" transform="translate(1399.500000, 502.000000) scale(-1, 1) translate(-1399.500000, -502.000000) "></path>
                    <path d="M1,98 C1,340.527984 121.055636,732.656874 273.388512,732.656874 C425.721388,732.656874 374.501433,386.72336 750.576212,218.557306 C1126.65099,50.3912517 1161.25553,745.785053 1404.33788,789.307483 C1647.42023,832.829914 1903.95056,614.101022 2116.23889,573.344328 C2328.52723,532.587634 2587.59082,483.860598 2700.11653,651.006605 C2812.64224,818.152612 2797.29509,868 2797.29509,868" id="Line" transform="translate(1399.500000, 483.000000) scale(-1, 1) translate(-1399.500000, -483.000000) "></path>
                    <path d="M1,79 C1,321.527984 121.055636,713.656874 273.388512,713.656874 C425.721388,713.656874 374.501433,367.72336 750.576212,199.557306 C1126.65099,31.3912517 1161.25553,726.785053 1404.33788,770.307483 C1647.42023,813.829914 1903.95056,595.101022 2116.23889,554.344328 C2328.52723,513.587634 2587.59082,464.860598 2700.11653,632.006605 C2812.64224,799.152612 2797.29509,849 2797.29509,849" id="Line" transform="translate(1399.500000, 464.000000) scale(-1, 1) translate(-1399.500000, -464.000000) "></path>
                    <path d="M1,59 C1,301.527984 121.055636,693.656874 273.388512,693.656874 C425.721388,693.656874 374.501433,347.72336 750.576212,179.557306 C1126.65099,11.3912517 1161.25553,706.785053 1404.33788,750.307483 C1647.42023,793.829914 1903.95056,575.101022 2116.23889,534.344328 C2328.52723,493.587634 2587.59082,444.860598 2700.11653,612.006605 C2812.64224,779.152612 2797.29509,829 2797.29509,829" id="Line" transform="translate(1399.500000, 444.000000) scale(-1, 1) translate(-1399.500000, -444.000000) "></path>
                    <path d="M1,40 C1,282.527984 121.055636,674.656874 273.388512,674.656874 C425.721388,674.656874 374.501433,328.72336 750.576212,160.557306 C1126.65099,-7.60874834 1161.25553,687.785053 1404.33788,731.307483 C1647.42023,774.829914 1903.95056,556.101022 2116.23889,515.344328 C2328.52723,474.587634 2587.59082,425.860598 2700.11653,593.006605 C2812.64224,760.152612 2797.29509,810 2797.29509,810" id="Line" transform="translate(1399.500000, 425.000000) scale(-1, 1) translate(-1399.500000, -425.000000) "></path>
                    <path d="M1,19 C1,261.527984 121.055636,653.656874 273.388512,653.656874 C425.721388,653.656874 374.501433,307.72336 750.576212,139.557306 C1126.65099,-28.6087483 1161.25553,666.785053 1404.33788,710.307483 C1647.42023,753.829914 1903.95056,535.101022 2116.23889,494.344328 C2328.52723,453.587634 2587.59082,404.860598 2700.11653,572.006605 C2812.64224,739.152612 2797.29509,789 2797.29509,789" id="Line" transform="translate(1399.500000, 404.000000) scale(-1, 1) translate(-1399.500000, -404.000000) "></path>
                    <path d="M0,0 C8.97827125e-14,242.665088 120.082805,635.015654 272.450155,635.015654 C424.817505,635.015654 373.585958,288.886579 749.745845,120.625458 C1125.90573,-47.6356622 1160.5181,648.151254 1403.65546,691.698289 C1646.79283,735.245323 1903.38121,516.392781 2115.71758,475.613047 C2328.05396,434.833313 2587.17618,386.07873 2699.72735,553.319227 C2812.27853,720.559723 2799.56856,772 2799.56856,772" id="Line" transform="translate(1400.000000, 386.000000) scale(-1, 1) translate(-1400.000000, -386.000000) "></path>
                </g>
            </g>
        </g>
    </g>
</svg>