<svg width="316" height="23" viewBox="0 0 316 23" fill="none" xmlns="http://www.w3.org/2000/svg">
<path d="M6.53267 4.33256H4.50639L0.287642 20.0059H2.31392L6.53267 4.33256ZM11.1363 18.0371H13.5078V12.476H19.5738V18.0371H21.9517V4.9462H19.5738V10.4881H13.5078V4.9462H11.1363V18.0371ZM28.0552 18.2289C30.3436 18.2289 31.916 17.1103 32.3251 15.4036L30.1646 15.1607C29.8514 15.9917 29.0843 16.4263 28.0872 16.4263C26.5914 16.4263 25.6007 15.4419 25.5815 13.7608H32.421V13.0513C32.421 9.606 30.3499 8.09109 27.9338 8.09109C25.1213 8.09109 23.2867 10.1557 23.2867 13.1855C23.2867 16.2665 25.0957 18.2289 28.0552 18.2289ZM25.5879 12.2012C25.6582 10.9483 26.585 9.89364 27.9657 9.89364C29.2953 9.89364 30.1901 10.8652 30.2029 12.2012H25.5879ZM35.9724 4.9462H33.6585V18.0371H35.9724V4.9462ZM39.9458 4.9462H37.6319V18.0371H39.9458V4.9462ZM45.8879 18.2289C48.7643 18.2289 50.5925 16.2026 50.5925 13.1664C50.5925 10.1238 48.7643 8.09109 45.8879 8.09109C43.0115 8.09109 41.1834 10.1238 41.1834 13.1664C41.1834 16.2026 43.0115 18.2289 45.8879 18.2289ZM45.9007 16.3752C44.3091 16.3752 43.5293 14.9561 43.5293 13.16C43.5293 11.3638 44.3091 9.9256 45.9007 9.9256C47.4668 9.9256 48.2466 11.3638 48.2466 13.16C48.2466 14.9561 47.4668 16.3752 45.9007 16.3752Z" fill="white"/>
<path d="M133.533 4.33256H131.506L127.288 20.0059H129.314L133.533 4.33256ZM140.891 18.0371H143.231L145.858 8.85174H145.96L148.581 18.0371H150.92L154.615 4.9462H152.065L149.706 14.5726H149.591L147.066 4.9462H144.746L142.227 14.5662H142.106L139.747 4.9462H137.197L140.891 18.0371ZM158.782 18.2289C161.07 18.2289 162.643 17.1103 163.052 15.4036L160.891 15.1607C160.578 15.9917 159.811 16.4263 158.814 16.4263C157.318 16.4263 156.327 15.4419 156.308 13.7608H163.148V13.0513C163.148 9.606 161.077 8.09109 158.66 8.09109C155.848 8.09109 154.013 10.1557 154.013 13.1855C154.013 16.2665 155.822 18.2289 158.782 18.2289ZM156.314 12.2012C156.385 10.9483 157.312 9.89364 158.692 9.89364C160.022 9.89364 160.917 10.8652 160.929 12.2012H156.314ZM172.145 10.8141C171.825 9.15217 170.496 8.09109 168.195 8.09109C165.83 8.09109 164.219 9.25444 164.225 11.0698C164.219 12.5016 165.101 13.4476 166.987 13.8375L168.661 14.1891C169.563 14.3873 169.985 14.7516 169.985 15.3077C169.985 15.9789 169.256 16.4838 168.156 16.4838C167.095 16.4838 166.405 16.0236 166.207 15.1415L163.95 15.3588C164.238 17.1614 165.753 18.2289 168.163 18.2289C170.617 18.2289 172.35 16.9569 172.356 15.0968C172.35 13.6969 171.448 12.8404 169.595 12.4377L167.92 12.0797C166.923 11.856 166.526 11.5108 166.533 10.9419C166.526 10.2772 167.262 9.81694 168.227 9.81694C169.294 9.81694 169.857 10.3986 170.036 11.0442L172.145 10.8141ZM175.858 4.9462H173.544V18.0371H175.858V4.9462ZM181.864 18.2289C184.152 18.2289 185.725 17.1103 186.134 15.4036L183.973 15.1607C183.66 15.9917 182.893 16.4263 181.896 16.4263C180.4 16.4263 179.409 15.4419 179.39 13.7608H186.23V13.0513C186.23 9.606 184.159 8.09109 181.743 8.09109C178.93 8.09109 177.095 10.1557 177.095 13.1855C177.095 16.2665 178.904 18.2289 181.864 18.2289ZM179.397 12.2012C179.467 10.9483 180.394 9.89364 181.774 9.89364C183.104 9.89364 183.999 10.8652 184.012 12.2012H179.397ZM188.624 21.7189C190.427 21.7189 191.469 20.7921 192.025 19.226L195.969 8.23171L193.495 8.21893L191.226 15.6337H191.124L188.861 8.21893H186.406L189.967 18.2417L189.768 18.7722C189.34 19.8908 188.663 19.9675 187.653 19.6735L187.116 21.476C187.429 21.6039 187.991 21.7189 188.624 21.7189ZM200.702 18.0371H203.073V12.476H209.139V18.0371H211.517V4.9462H209.139V10.4881H203.073V4.9462H200.702V18.0371ZM216.099 18.2353C217.64 18.2353 218.56 17.513 218.982 16.6884H219.059V18.0371H221.283V11.4661C221.283 8.87092 219.168 8.09109 217.295 8.09109C215.23 8.09109 213.645 9.01154 213.133 10.8013L215.294 11.1081C215.524 10.437 216.176 9.86168 217.307 9.86168C218.381 9.86168 218.969 10.4114 218.969 11.3766V11.4149C218.969 12.0797 218.273 12.1117 216.54 12.2971C214.636 12.5016 212.814 13.0705 212.814 15.2821C212.814 17.2125 214.226 18.2353 216.099 18.2353ZM216.7 16.535C215.735 16.535 215.045 16.0939 215.045 15.2438C215.045 14.3553 215.818 13.9846 216.854 13.8375C217.461 13.7544 218.675 13.601 218.976 13.3581V14.5151C218.976 15.6081 218.094 16.535 216.7 16.535ZM222.89 18.0371H225.204V8.21893H222.89V18.0371ZM224.053 6.82546C224.788 6.82546 225.389 6.26296 225.389 5.57262C225.389 4.87589 224.788 4.31339 224.053 4.31339C223.312 4.31339 222.711 4.87589 222.711 5.57262C222.711 6.26296 223.312 6.82546 224.053 6.82546ZM229.177 12.2843C229.177 10.8652 230.034 10.0471 231.255 10.0471C232.45 10.0471 233.166 10.8333 233.166 12.1436V18.0371H235.48V11.7857C235.486 9.43342 234.144 8.09109 232.118 8.09109C230.647 8.09109 229.638 8.79421 229.19 9.88725H229.075V8.21893H226.863V18.0371H229.177V12.2843ZM241.459 18.2289C243.747 18.2289 245.32 17.1103 245.729 15.4036L243.568 15.1607C243.255 15.9917 242.488 16.4263 241.491 16.4263C239.995 16.4263 239.004 15.4419 238.985 13.7608H245.824V13.0513C245.824 9.606 243.753 8.09109 241.337 8.09109C238.525 8.09109 236.69 10.1557 236.69 13.1855C236.69 16.2665 238.499 18.2289 241.459 18.2289ZM238.991 12.2012C239.062 10.9483 239.989 9.89364 241.369 9.89364C242.699 9.89364 243.594 10.8652 243.606 12.2012H238.991ZM254.822 10.8141C254.502 9.15217 253.173 8.09109 250.872 8.09109C248.507 8.09109 246.896 9.25444 246.902 11.0698C246.896 12.5016 247.778 13.4476 249.664 13.8375L251.338 14.1891C252.24 14.3873 252.661 14.7516 252.661 15.3077C252.661 15.9789 251.933 16.4838 250.833 16.4838C249.772 16.4838 249.082 16.0236 248.884 15.1415L246.627 15.3588C246.915 17.1614 248.43 18.2289 250.84 18.2289C253.294 18.2289 255.027 16.9569 255.033 15.0968C255.027 13.6969 254.125 12.8404 252.272 12.4377L250.597 12.0797C249.6 11.856 249.203 11.5108 249.21 10.9419C249.203 10.2772 249.938 9.81694 250.904 9.81694C251.971 9.81694 252.534 10.3986 252.713 11.0442L254.822 10.8141ZM264.504 18.0371C268.493 18.0371 270.858 15.5698 270.858 11.4789C270.858 7.40075 268.493 4.9462 264.594 4.9462H260.068V18.0371H264.504ZM262.44 15.9853V6.99805H264.459C267.118 6.99805 268.506 8.481 268.506 11.4789C268.506 14.4895 267.118 15.9853 264.389 15.9853H262.44ZM276.635 18.2289C278.924 18.2289 280.496 17.1103 280.905 15.4036L278.745 15.1607C278.432 15.9917 277.664 16.4263 276.667 16.4263C275.172 16.4263 274.181 15.4419 274.162 13.7608H281.001V13.0513C281.001 9.606 278.93 8.09109 276.514 8.09109C273.701 8.09109 271.867 10.1557 271.867 13.1855C271.867 16.2665 273.676 18.2289 276.635 18.2289ZM274.168 12.2012C274.238 10.9483 275.165 9.89364 276.546 9.89364C277.875 9.89364 278.77 10.8652 278.783 12.2012H274.168ZM289.999 10.8141C289.679 9.15217 288.349 8.09109 286.048 8.09109C283.683 8.09109 282.072 9.25444 282.079 11.0698C282.072 12.5016 282.955 13.4476 284.84 13.8375L286.515 14.1891C287.416 14.3873 287.838 14.7516 287.838 15.3077C287.838 15.9789 287.109 16.4838 286.01 16.4838C284.949 16.4838 284.259 16.0236 284.06 15.1415L281.804 15.3588C282.092 17.1614 283.607 18.2289 286.016 18.2289C288.471 18.2289 290.203 16.9569 290.21 15.0968C290.203 13.6969 289.302 12.8404 287.448 12.4377L285.773 12.0797C284.776 11.856 284.38 11.5108 284.386 10.9419C284.38 10.2772 285.115 9.81694 286.08 9.81694C287.148 9.81694 287.71 10.3986 287.889 11.0442L289.999 10.8141ZM291.398 18.0371H293.712V8.21893H291.398V18.0371ZM292.561 6.82546C293.296 6.82546 293.897 6.26296 293.897 5.57262C293.897 4.87589 293.296 4.31339 292.561 4.31339C291.819 4.31339 291.219 4.87589 291.219 5.57262C291.219 6.26296 291.819 6.82546 292.561 6.82546ZM299.641 21.9235C302.294 21.9235 304.25 20.709 304.25 18.1969V8.21893H301.968V9.84251H301.84C301.488 9.13299 300.753 8.09109 299.021 8.09109C296.752 8.09109 294.968 9.86807 294.968 13.0961C294.968 16.2985 296.752 17.8965 299.014 17.8965C300.696 17.8965 301.482 16.9952 301.84 16.2729H301.955V18.133C301.955 19.5776 300.996 20.1721 299.679 20.1721C298.286 20.1721 297.672 19.5137 297.391 18.9384L295.307 19.4434C295.729 20.8176 297.142 21.9235 299.641 21.9235ZM299.66 16.0811C298.132 16.0811 297.327 14.8922 297.327 13.0833C297.327 11.2999 298.12 9.98952 299.66 9.98952C301.149 9.98952 301.968 11.2232 301.968 13.0833C301.968 14.9561 301.137 16.0811 299.66 16.0811ZM308.215 12.2843C308.215 10.8652 309.071 10.0471 310.292 10.0471C311.488 10.0471 312.204 10.8333 312.204 12.1436V18.0371H314.517V11.7857C314.524 9.43342 313.181 8.09109 311.155 8.09109C309.685 8.09109 308.675 8.79421 308.228 9.88725H308.113V8.21893H305.901V18.0371H308.215V12.2843Z" fill="white"/>
</svg>
