<?xml version="1.0" encoding="UTF-8"?>
<svg width="104px" height="104px" viewBox="0 0 104 104" version="1.1" xmlns="http://www.w3.org/2000/svg" xmlns:xlink="http://www.w3.org/1999/xlink">
    <!-- Generator: Sketch 40.1 (33804) - http://www.bohemiancoding.com/sketch -->
    <title>prototyping_h</title>
    <desc>Created with Sketch.</desc>
    <defs></defs>
    <g id="icons" stroke="none" stroke-width="1" fill="none" fill-rule="evenodd">
        <g id="prototyping_h" transform="translate(2.000000, 2.000000)">
            <ellipse id="Oval-43-Copy-14" stroke="#545B61" stroke-width="3" cx="50" cy="50" rx="50" ry="50"></ellipse>
            <path d="M44.5946683,16.4915 C44.3880042,16.5440886 44.2071731,16.6741763 44.103841,16.8826857 L40.0960332,23.8963495 C40.0960332,23.8963495 40.0702001,23.9221825 40.0702001,23.9489381 L18.6869212,61.4123468 C18.6352552,61.5166015 18.6094222,61.6476118 18.6094222,61.7776995 L18.5319231,67.9305703 C18.5060901,68.0874136 18.5060901,68.2184239 18.5319231,68.347589 L18.5060901,70.6421144 C18.5060901,71.4761517 18.6094222,72.2326901 18.9194184,72.8314625 C19.6694984,74.2919505 20.4186559,74.4229608 21.815484,74.5262928 C22.462232,74.6047145 23.1338904,74.3962051 23.8323044,74.0059421 C23.8839705,74.3445391 24.1939666,74.6314701 24.5297959,74.6314701 L79.5264415,74.6056371 C79.9139367,74.6056371 80.2497659,74.2670401 80.2765216,73.9016874 C80.6898498,74.0576081 81.0773451,74.2670401 81.4657629,74.5004598 C81.9058468,74.7357248 82.5516722,74.3703721 82.5775052,73.8749318 C82.5775052,72.0758467 83.1725872,70.1992627 83.6117484,68.295923 C84.0518323,66.4184163 84.3101625,64.4634105 83.3008296,62.6643255 C82.0866779,60.5524764 80.5606847,59.5625184 79.1121906,58.780147 C77.8712833,58.1278634 76.7337079,57.6075126 75.6477987,56.5640433 L77.2503683,55.6248287 C78.5946077,54.8166243 78.9830255,53.0442949 78.1037804,51.7406502 C78.07887,51.7406502 78.1037804,51.7406502 78.1037804,51.7406502 L78.1296134,51.7406502 L55.5580158,17.951988 C55.5321828,17.926155 55.5321828,17.926155 55.5321828,17.8993994 C54.9371008,16.9085187 53.7995255,16.3872453 52.7136162,16.517333 C52.3510314,16.5699217 52.0152022,16.7000093 51.679373,16.8826857 L48.6283093,18.6301047 L45.1113287,16.5966773 C44.9821636,16.5182556 44.8271655,16.4924226 44.6712448,16.4924226 L44.5946683,16.4924226 L44.5946683,16.4915 L44.5946683,16.4915 Z M52.9212029,17.977821 C53.102034,17.951988 53.2828652,17.977821 53.4387859,18.0304097 C53.7746151,18.1079087 54.0846113,18.3431737 54.2654424,18.6826933 C54.2654424,18.7085263 54.2912754,18.7085263 54.2912754,18.7085263 L75.0278063,49.7856445 L64.6337078,55.8600936 L48.5508102,22.0972645 C48.5508102,22.0714314 48.5249772,22.0714314 48.5249772,22.0446758 C48.137482,21.3665591 48.3441461,20.5325218 49.0167271,20.1413361 L52.40362,18.1604973 C52.5586181,18.0562427 52.7394492,18.003654 52.9212029,17.977821 L52.9212029,17.977821 L52.9212029,17.977821 Z M44.9830862,18.238919 L47.4399905,19.6468184 C46.8190755,20.5334444 46.6899105,21.7328344 47.2591594,22.7227925 L47.2591594,22.7753811 L50.3360561,29.1884273 L41.6478593,24.0781032 L44.9830862,18.238919 L44.9830862,18.238919 Z M40.9236123,25.3559149 L51.4468758,31.5346187 L51.4985418,31.6647064 L30.6845119,68.2175013 L25.7983815,71.1375547 L20.0062503,67.747894 L20.0579163,61.9862088 L40.9236123,25.3559149 L40.9236123,25.3559149 Z M41.4661056,30.2577297 C41.2594415,30.2835627 41.0786104,30.440406 40.9752783,30.6230823 L23.7806384,60.7609858 L22.0221481,61.1521715 C21.6088198,61.1780045 21.272068,61.6217788 21.3495671,62.0387975 C21.4528991,62.4558161 21.9178934,62.7159915 22.3321443,62.5859038 L23.7538828,62.2731398 L24.1939666,63.6810392 C24.2972987,64.0463918 24.73646,64.2798116 25.1248778,64.1506465 C25.4874627,64.0463918 25.6941268,63.6026175 25.5898721,63.2381875 L25.0215458,61.4907685 L42.2161857,31.352865 C42.5261819,30.8832577 42.0353546,30.153475 41.4661056,30.2577297 L41.4661056,30.2577297 L41.4661056,30.2577297 Z M46.2756596,33.0467728 C46.0689955,33.0993614 45.8881644,33.2552821 45.7839097,33.4379584 L28.5901924,63.6026175 L26.8317021,63.9670476 C26.4700399,64.0454692 26.1858767,64.4624879 26.2892088,64.8536736 C26.3667078,65.2190262 26.7809587,65.5050346 27.1684539,65.4017026 L28.5643594,65.0880159 L29.0293537,66.4959153 C29.1326857,66.887101 29.571847,67.1472764 29.9602648,67.0171887 C30.3228497,66.8861784 30.5553468,66.4174937 30.4252591,66.052141 L29.8569328,64.3314776 L47.0515727,34.1677411 C47.3357359,33.6981338 46.8965746,32.9951067 46.3531586,33.0467728 C46.3273256,33.0467728 46.3014926,33.0467728 46.2756596,33.0467728 L46.2756596,33.0467728 L46.2756596,33.0467728 Z M52.2735323,33.2811151 L64.7370399,59.5348401 C64.7619503,59.5874288 64.7887059,59.6390948 64.8145389,59.6916834 L37.1999675,59.6916834 L52.2735323,33.2811151 L52.2735323,33.2811151 Z M75.8295524,50.9841119 L76.888706,52.5479319 C76.888706,52.573765 76.9145391,52.573765 76.9145391,52.573765 C77.3546229,53.225126 77.1996248,53.9299983 76.5270438,54.321184 L74.2260602,55.6764947 C74.1734716,55.7023277 74.1476385,55.7290833 74.0959725,55.7549163 L73.8893084,55.859171 L73.1392283,56.3020227 L71.1224079,57.5014127 L70.1665863,58.0494417 C70.1407532,58.0743521 70.1149202,58.0743521 70.0890872,58.1011078 L67.9172687,59.3521638 C67.4264414,59.4305855 66.9614471,59.5090071 66.6763613,59.4305855 C66.3654425,59.3521638 66.2104444,59.2746648 66.0554463,58.9351451 L66.0554463,58.9093121 L65.2287898,57.1895713 L75.8295524,50.9841119 L75.8295524,50.9841119 Z M74.4068913,57.2670704 C75.7520533,58.6749697 77.1737918,59.4315081 78.4156218,60.1096247 C79.8115273,60.8394074 81.0007686,61.5691901 82.0350119,63.4199412 C82.7850919,64.6977529 82.6300938,66.1840739 82.215843,67.9564033 C81.8532581,69.4427243 81.4150195,71.0858887 81.2341884,72.8056294 C79.6823622,72.1016798 78.027204,71.6846611 76.6054655,71.2418094 C74.8469752,70.7214586 73.5285688,70.120841 72.7794113,68.8171963 C71.719335,66.9664452 71.6925794,65.5843789 71.7700785,63.9938032 C71.8226671,62.5600708 71.8734105,60.9427395 71.3567502,59.0661554 L71.8475775,58.7533914 L73.8911536,57.580757 L74.4068913,57.2670704 L74.4068913,57.2670704 Z M36.3982214,61.1512488 L70.3215844,61.1512488 C70.3990834,62.0904635 70.3474174,63.0019999 70.296674,63.940292 C70.2440853,65.2965253 70.2708409,66.7819237 70.969255,68.450921 C70.8133343,68.2165787 70.5291711,68.0855684 70.2450079,68.112324 C69.9091787,68.1649127 69.6240929,68.5035097 69.6240929,68.8679397 L69.6240929,73.1442265 L68.3056865,73.1442265 L68.3056865,70.6153587 C68.3056865,70.1983401 67.9431017,69.8329874 67.5297734,69.859743 C67.1671886,69.859743 66.8313594,70.2250957 66.8313594,70.6153587 L66.8313594,73.1442265 L61.6343102,73.1442265 L61.6343102,70.6153587 C61.6601432,70.172507 61.2209819,69.8071544 60.806731,69.859743 C60.4450688,69.885576 60.1609056,70.2509287 60.1867387,70.6153587 L60.1867387,73.1442265 L58.8415766,73.1442265 L58.8415766,68.8679397 C58.8415766,68.450921 58.4540814,68.0855684 58.0665861,68.112324 C57.7040013,68.1649127 57.3940051,68.5035097 57.3940051,68.8679397 L57.3940051,73.1442265 L56.1023543,73.1442265 L56.1023543,70.6153587 C56.1023543,70.172507 55.6881035,69.8071544 55.2747752,69.859743 C54.9121904,69.885576 54.6289498,70.2509287 54.6289498,70.6153587 L54.6289498,73.1442265 L49.4319006,73.1700595 L49.4319006,70.6144361 C49.4577336,70.1715844 49.0444053,69.7803988 48.6043215,69.8588204 C48.2684923,69.8846534 47.9575735,70.2500061 47.9843291,70.6144361 L47.9843291,73.1700595 L46.6659227,73.1700595 L46.6659227,68.8679397 C46.6659227,68.450921 46.2516718,68.0855684 45.8641766,68.112324 C45.5025143,68.1649127 45.1915955,68.5035097 45.1915955,68.8679397 L45.1915955,73.1700595 L43.8990221,73.1700595 L43.8990221,70.6144361 C43.9248552,70.1715844 43.4856939,69.7803988 43.0723656,69.8588204 C42.7097808,69.8846534 42.4256176,70.2500061 42.4256176,70.6144361 L42.4256176,73.1700595 L37.2285684,73.1700595 L37.2285684,70.6144361 C37.2544014,70.1715844 36.8410731,69.7803988 36.4268223,69.8588204 C36.0651601,69.8846534 35.7542413,70.2500061 35.7800743,70.6144361 L35.7800743,73.1700595 L34.4616679,73.1700595 L34.4616679,68.8679397 C34.4616679,68.450921 34.0483396,68.0597354 33.6340887,68.112324 C33.2724265,68.1649127 32.9882633,68.5035097 32.9882633,68.8679397 L32.9882633,73.1700595 L31.6956899,73.1700595 L31.6956899,70.6144361 C31.721523,70.1715844 31.2814391,69.7803988 30.8681108,69.8588204 L30.8164448,69.8588204 L31.5923579,69.3892131 C31.6956899,69.3366245 31.773189,69.2323698 31.824855,69.1281151 L36.3982214,61.1512488 L36.3982214,61.1512488 Z M71.0458314,68.660353 C71.1749965,68.947284 71.3299946,69.2332924 71.5108257,69.5460564 C71.7442455,69.9889081 72.0542416,70.3542608 72.3642378,70.6679474 L72.3642378,73.1451491 L71.0707418,73.1451491 L71.0707418,68.8688623 C71.0707418,68.7904407 71.0707418,68.712019 71.0458314,68.660353 L71.0458314,68.660353 L71.0458314,68.660353 Z M20.0053276,69.4685574 L24.3489647,71.9965025 L23.2888885,72.5961975 C22.2029792,73.2475585 21.4012331,73.2475585 20.8845728,72.9615501 C20.3669899,72.6487861 19.9536616,71.9448365 19.9794946,70.6679474 L20.0053276,69.4685574 L20.0053276,69.4685574 Z M30.3745157,70.1199184 C30.2711836,70.2509287 30.2195176,70.4326824 30.2453506,70.6153587 L30.2453506,73.1709821 L25.2540429,73.1709821 L25.9524569,72.7539634 C26.107455,72.7281304 26.2624531,72.6229531 26.3925408,72.4928654 L30.3745157,70.1199184 L30.3745157,70.1199184 Z M73.8376423,71.7363271 C74.5618894,72.1275128 75.3627129,72.4135212 76.1912146,72.6487861 C76.759541,72.8305399 77.3278673,72.9873832 77.8980389,73.1442265 L73.838565,73.1442265 L73.838565,71.7363271 L73.8376423,71.7363271 L73.8376423,71.7363271 Z" id="Shape" fill="#545B61"></path>
        </g>
    </g>
</svg>