<?xml version="1.0" encoding="UTF-8"?>
<svg width="1109px" height="29px" viewBox="0 0 1109 29" version="1.1" xmlns="http://www.w3.org/2000/svg" xmlns:xlink="http://www.w3.org/1999/xlink">
    <!-- Generator: Sketch 63.1 (92452) - https://sketch.com -->
    <title>Group 8</title>
    <desc>Created with Sketch.</desc>
    <g id="V3" stroke="none" stroke-width="1" fill="none" fill-rule="evenodd">
        <g id="Nike-Adapt" transform="translate(-167.000000, -123.000000)" fill="#FFFFFF">
            <g id="Group-22" transform="translate(166.000000, 122.000000)">
                <g id="Group-10">
                    <g id="Group-8">
                        <g id="gsx">
                            <g id="Group-6">
                                <path d="M166.613012,17.8363273 C166.559187,20.1091427 166.531026,21.4844379 166.528679,21.9495183 L166.528519,22.0072953 L165.303519,22.0072953 C165.303519,21.5931992 165.331739,20.1981125 165.388307,17.8096284 C165.568376,8.90786632 164.987366,7.76612619 160.403519,7.76612619 C158.926778,7.76612619 157.672743,8.10170302 156.373876,8.82630027 C154.722696,9.7474418 153.78531,10.5649285 149.391782,14.7191163 C148.378281,15.6774066 144.285806,19.7235176 143.77815,20.2167311 C143.068091,20.9065902 142.416419,21.5293225 141.794368,22.11057 L141.424462,22.4545455 L140.590909,21.5600452 C141.316542,20.8886239 142.077552,20.1641039 142.922979,19.3427282 C143.422005,18.8578991 147.523274,14.8030932 148.548589,13.8336336 C153.042762,9.58428349 153.993069,8.7555284 155.775461,7.7611874 C157.254601,6.93602171 158.714132,6.54545455 160.403519,6.54545455 C165.891947,6.54545455 166.805113,8.33991559 166.613012,17.8363273 Z M262.727273,6.95234509 C262.928104,6.95234509 263.090909,7.11515064 263.090909,7.31598146 L263.090909,11.8782858 C263.090909,12.0791167 262.928104,12.2419222 262.727273,12.2419222 L254.923242,12.2413451 L254.924242,22.0505495 C254.924242,22.2513803 254.761437,22.4141859 254.560606,22.4141859 L249.979545,22.4141859 C249.778715,22.4141859 249.615909,22.2513803 249.615909,22.0505495 L249.615242,12.2413451 L241.812879,12.2419222 C241.612048,12.2419222 241.449242,12.0791167 241.449242,11.8782858 L241.449242,7.31598146 C241.449242,7.11515064 241.612048,6.95234509 241.812879,6.95234509 L262.727273,6.95234509 Z M184.327273,6.95234509 C184.433732,6.95234509 184.529506,6.99809315 184.596008,7.07100262 C187.630472,7.64879967 189.182576,10.3039798 189.182576,14.6832655 C189.182576,19.0620752 187.630809,21.7171541 184.596283,22.294702 C184.530342,22.3680374 184.434197,22.4141859 184.327273,22.4141859 L169.946212,22.4141859 C169.745381,22.4141859 169.582576,22.2513803 169.582576,22.0505495 L169.582576,7.31598146 C169.582576,7.11515064 169.745381,6.95234509 169.946212,6.95234509 L184.327273,6.95234509 Z M203.126124,6.54545455 C207.588079,6.58775515 210.68756,7.75910127 212.251758,10.2388062 C213.15354,11.6683895 213.595565,13.675762 213.753325,16.2317976 C213.841338,17.6577919 213.835696,19.0095541 213.771954,20.8777092 C213.769864,20.9389603 213.746074,21.6131702 213.740689,21.7817347 C213.733403,22.0098342 213.729175,22.1824027 213.727775,22.3185409 L213.727252,22.4141122 L210.460585,22.4141122 C210.460585,22.2226538 210.465551,21.9951473 210.475676,21.6781765 C210.481266,21.5031853 210.505248,20.8235614 210.507174,20.7671004 C210.567651,18.99464 210.572931,17.7295949 210.492819,16.4316177 C210.36598,14.3765634 210.024109,12.8240239 209.486079,11.9710908 C208.633457,10.6194406 206.567626,9.83656478 203.116865,9.80064857 C199.549258,9.86500225 197.395978,10.659963 196.513071,11.9987697 C195.858217,12.9917646 195.482204,14.664104 195.358183,16.9327743 C195.297468,18.0434 195.296094,19.0347391 195.329899,20.8057267 C195.345975,21.6479156 195.350915,21.936821 195.351998,22.2517797 L195.352252,22.4141122 L192.085585,22.4141122 L192.084992,22.1896019 C192.083407,21.9182203 192.07817,21.6192655 192.063823,20.8676307 C192.028565,19.0205196 192.030022,17.9690552 192.096352,16.7557178 C192.249168,13.9603131 192.734702,11.8008785 193.783099,10.2111273 C195.335883,7.85654454 198.343095,6.69518441 202.672671,6.55570974 L203.082439,6.54562257 L203.126124,6.54545455 Z M232.714773,6.74889982 C232.864991,6.74889982 232.993935,6.83998624 233.049386,6.96994081 C234.680026,7.07169796 235.982514,7.6082903 236.957576,8.57990728 C238.465268,10.0822724 238.581244,11.5846375 238.590166,12.4469417 L238.590166,12.8506838 C238.581244,13.712988 238.465268,15.2153531 236.957576,16.7177182 C235.996791,17.6751077 234.718101,18.2101195 233.121503,18.3227536 L233.049833,18.326633 C232.99463,18.4571476 232.865396,18.5487257 232.714773,18.5487257 L220.623909,18.5478998 L220.624242,21.8471042 C220.624242,22.0479351 220.461437,22.2107406 220.260606,22.2107406 L216.904545,22.2107406 C216.703715,22.2107406 216.540909,22.0479351 216.540909,21.8471042 L216.540909,7.11253618 C216.540909,6.91170536 216.703715,6.74889982 216.904545,6.74889982 L232.714773,6.74889982 Z M171.623576,8.98634509 L171.623576,20.3793451 L183.261742,20.3797331 C185.814521,20.3797331 187.07544,18.7417798 187.138424,14.9843193 L187.140909,14.6832655 C187.140909,10.7120935 185.881699,8.98679783 183.261742,8.98679783 L171.623576,8.98634509 Z M208.055864,15.4969729 C208.457526,15.4969729 208.783137,15.822584 208.783137,16.2242457 L208.783137,18.0248246 C208.783137,18.4264862 208.457526,18.7520973 208.055864,18.7520973 L197.668743,18.7520973 C197.267081,18.7520973 196.94147,18.4264862 196.94147,18.0248246 L196.94147,16.2242457 C196.94147,15.822584 197.267081,15.4969729 197.668743,15.4969729 L208.055864,15.4969729 Z M162.036852,16.1073824 C162.375126,16.1073824 162.649352,16.3806391 162.649352,16.7177182 C162.649352,17.0210895 162.427229,17.2727645 162.136203,17.3200658 L162.036852,17.328054 L151.011852,17.328054 C150.673578,17.328054 150.399352,17.0547974 150.399352,16.7177182 C150.399352,16.414347 150.621475,16.162672 150.912501,16.1153707 L151.011852,16.1073824 L162.036852,16.1073824 Z M232.943666,10.7349182 L232.918085,10.7557019 C232.860049,10.7949108 232.790084,10.8178053 232.714773,10.8178053 L220.623909,10.8168998 L220.623909,14.4788998 L232.714773,14.4798202 C232.801452,14.4798202 232.881048,14.5101479 232.943528,14.560771 C233.986273,14.2364191 234.507576,13.5984543 234.507576,12.6488128 C234.507576,11.6991712 233.986273,11.0612064 232.943666,10.7349182 Z" id="Combined-Shape" fill-rule="nonzero"></path>
                                <g id="Group-5" transform="translate(0.530303, 0.060606)">
                                    <polygon id="Close" stroke="#FFFFFF" stroke-width="2" stroke-linejoin="round" points="106.133939 7.54545455 111.801818 13.2133333 117.469697 7.54545455 118.012727 8.08848485 112.344848 13.7563636 118.012727 19.4242424 117.469697 19.9672727 111.801818 14.2993939 106.133939 19.9672727 105.590909 19.4242424 111.258788 13.7563636 105.590909 8.08848485"></polygon>
                                    <path d="M9.73552553,28.9696791 C7.23267221,28.8766843 5.18496106,28.2361428 3.58382065,27.0464511 C3.27824969,26.8191751 2.55010794,26.137748 2.3058226,25.8503461 C1.65653788,25.0867468 1.21510998,24.3435904 0.920681863,23.5190635 C0.0146832481,20.9809477 0.480968249,17.6503723 2.25439411,13.9951168 C3.77282036,10.8657628 6.11581678,7.76206252 10.2035248,3.46345966 C10.8056667,2.83093492 12.5988069,0.981060606 12.6103783,0.981060606 C12.614664,0.981060606 12.5169498,1.13939221 12.39395,1.33219601 C11.3310945,2.99728332 10.4216673,4.95859102 9.92623952,6.65654717 C9.1303836,9.38105329 9.22638345,11.7191501 10.2073819,13.5321472 C10.8840952,14.7811631 12.0442363,15.8630289 13.3488057,16.4610815 C15.6326594,17.5076734 18.9763685,17.5942548 23.0597909,16.714412 C23.3409333,16.6534844 37.2720549,13.1946403 54.0180292,9.02791368 C70.7640036,4.86078618 84.4675541,1.45405122 84.469697,1.4568571 C84.4744112,1.46046465 45.5640422,17.0330794 25.3650731,25.1119997 C22.1662208,26.3910785 21.3107935,26.7141552 19.8069387,27.2079895 C15.9626589,28.4706339 12.5190927,29.0730957 9.73552553,28.9696791 Z" id="Path-Copy"></path>
                                </g>
                            </g>
                        </g>
                        <g id="Group-2" transform="translate(923.000000, 0.000000)">
                            <text id="New-York,-NY" font-family="CircularStd-Medium, Circular Std" font-size="24" font-weight="400">
                                <tspan x="0.216" y="24">New York, NY</tspan>
                            </text>
                            <path d="M180,26 C181.73,23.69 187,15.6 187,11 C187,6.02943725 182.970563,2 178,2 C173.029437,2 169,6.02943725 169,11 C169,15.6 174.27,23.69 176,26 C177,27.3333333 177.666667,28 178,28 C178.333333,28 179,27.3333333 180,26 Z M174,11 C174,8.790861 175.790861,7 178,7 C180.209139,7 182,8.790861 182,11 C182,13.209139 180.209139,15 178,15 C175.790861,15 174,13.209139 174,11 Z" id="Shape" fill-rule="nonzero"></path>
                        </g>
                    </g>
                </g>
            </g>
        </g>
    </g>
</svg>