<?xml version="1.0" encoding="UTF-8"?>
<svg width="1110px" height="48px" viewBox="0 0 1110 48" version="1.1" xmlns="http://www.w3.org/2000/svg" xmlns:xlink="http://www.w3.org/1999/xlink">
    <!-- Generator: Sketch 63.1 (92452) - https://sketch.com -->
    <title>Group 17</title>
    <desc>Created with Sketch.</desc>
    <g id="V3" stroke="none" stroke-width="1" fill="none" fill-rule="evenodd">
        <g id="Capital-One-Apex" transform="translate(-165.000000, -121.000000)">
            <g id="Group-52" transform="translate(165.000000, 120.000000)">
                <g id="Group-17">
                    <g id="Group-15">
                        <g id="apex">
                            <g id="Group-7">
                                <g id="Group-6" transform="translate(0.000000, 5.555556)">
                                    <g id="capital-one-logo-(1)">
                                        <path d="M75.3681601,28.509514 C70.6267134,31.8286413 65.0255539,35.3021466 59.007564,38.9557595 L58.7730968,39.0844079 C58.6949411,39.1358672 58.6688892,39.2387859 58.720993,39.3417045 C58.7730968,39.4188936 58.8773044,39.4446232 58.9815121,39.3931639 L59.1899273,39.2902452 C64.2961006,36.665819 70.183831,33.5267994 76.0715615,30.3105908 C76.0976134,30.2848612 76.1236653,30.2848612 76.1757691,30.2591315 C75.8370943,29.7188085 75.5505234,29.1270261 75.3681601,28.509514 L75.3681601,28.509514 Z M106.42203,3.68038371 C98.9711856,-4.4501916 51.0096292,2.85703431 30.6109879,7.25680766 L30.1420536,7.35972634 C30.037846,7.38545601 29.9857422,7.46264501 29.9857422,7.56556369 C30.0117941,7.66848236 30.0899498,7.7199417 30.1941575,7.7199417 L30.6630917,7.61702302 C47.5447259,4.65811112 82.6887453,0.541364128 90.2698495,7.95150872 C92.588469,10.2157196 92.0153271,13.1231721 89.3580328,16.5452181 C90.7908876,17.4714861 91.8329638,18.9123476 92.3018981,20.7134244 C102.72266,13.8436029 109.730622,7.308267 106.42203,3.68038371 Z" id="Shape" fill="#A12830"></path>
                                        <g id="Group" transform="translate(0.000000, 16.236462)" fill="#003A6F">
                                            <path d="M78.390181,10.1374895 C78.4943886,12.9934827 80.3180219,15.3348826 82.7147972,15.3348826 C87.3520362,15.3348826 89.305929,9.72581477 89.1756695,5.96928314 C89.0714619,3.11328991 87.1957248,0.771890061 84.8250014,0.771890061 C80.8130081,0.771890061 78.2599215,6.35522817 78.390181,10.1374895 L78.390181,10.1374895 Z M75.941302,9.98311146 C75.7589386,5.09447441 79.6406724,0.128648344 85.2678838,0.128648344 C89.0193581,0.128648344 91.494289,2.59869654 91.6245485,6.38095784 C91.8069119,11.5268916 88.1856971,16.235421 82.2979667,16.235421 C78.5464924,16.235421 76.0715615,13.7653728 75.941302,9.98311146 Z M22.7172608,8.69662803 C22.5088456,8.77381703 22.2483265,8.85100604 21.9357037,8.90246538 C21.6230808,8.97965438 21.023887,9.08257306 20.1902261,9.2112214 C19.6170842,9.31414007 19.2002537,9.41705875 18.9657866,9.59716643 C18.7313194,9.75154444 18.6010599,9.95738179 18.575008,10.1889488 C18.5229042,10.4462455 18.6010599,10.6520828 18.835527,10.8064609 C19.0699942,10.9608389 19.4347208,11.0380279 19.9557589,11.0380279 C20.3465375,11.0380279 20.7373161,10.9865685 21.1280946,10.8579202 C21.5188732,10.7292719 21.8314961,10.5748938 22.0920151,10.3690565 C22.2743784,10.2146785 22.404638,10.0088411 22.5088456,9.77727411 C22.5348975,9.59716643 22.6130532,9.23695107 22.7172608,8.69662803 L22.7172608,8.69662803 Z M27.6150189,5.68625679 C27.588967,6.12366115 27.5108113,6.53533585 27.4066037,7.20430724 L26.5729427,11.7841883 C26.494787,12.195863 26.6510984,12.504619 27.041877,12.736186 L27.0158251,12.9162937 L22.2743784,12.9162937 L22.2222746,11.7584586 C21.5449251,12.1701333 20.7112642,12.504619 19.9557589,12.7104563 C19.2002537,12.890564 18.6010599,12.9934827 17.6892432,12.9934827 C16.1521809,12.9934827 15.292468,12.8391047 14.6932742,12.3245113 C14.0680285,11.7841883 13.7814575,11.4239729 13.8075094,10.6778125 C13.8335614,10.2404081 14.0419766,9.70008511 14.3806514,9.31414007 C14.7193261,8.92819504 15.1622085,8.67089836 15.6311428,8.43933134 C16.126129,8.20776432 16.6992709,8.05338631 17.5329318,7.92473796 C18.3665928,7.79608962 19.5389285,7.66744128 21.1020427,7.53879293 C21.9096518,7.46160393 22.4306899,7.28149625 22.665157,7.20430724 C23.0038318,7.0756589 23.1080394,6.94701055 23.1601432,6.68971387 C23.2382989,6.22657983 23.1080394,5.94355347 22.4567418,5.81490513 C20.763368,5.48041944 17.5589837,6.02074248 15.9177137,6.43241718 L16.8034785,4.03955799 C18.9657866,3.73080196 21.023887,3.52496461 23.1601432,3.52496461 C26.5468908,3.49923495 27.6410708,4.45123269 27.6150189,5.68625679 L27.6150189,5.68625679 Z M41.3183207,12.9162937 L42.9595907,3.75653163 L47.4926221,3.75653163 L45.8513521,12.9162937 L41.3183207,12.9162937 Z M43.2201098,1.6466988 C43.3503693,0.900538405 44.5487569,0.283026356 45.9034559,0.283026356 C47.258155,0.283026356 48.2220755,0.900538405 48.0918159,1.6466988 C47.9615564,2.39285919 46.7371169,3.01037124 45.4084698,3.01037124 C44.0537707,3.01037124 43.0637983,2.39285919 43.2201098,1.6466988 Z M63.5926992,8.72235769 C63.3842839,8.7995467 63.1237649,8.87673571 62.811142,8.92819504 C62.4985192,9.00538405 61.8993254,9.10830272 61.0396125,9.23695107 C60.4664706,9.33986974 60.0496401,9.44278842 59.815173,9.6228961 C59.6067578,9.77727411 59.4764982,9.98311146 59.4243944,10.2146785 C59.3722906,10.4719752 59.4764982,10.6778125 59.6849135,10.8321905 C59.9193806,10.9865685 60.2841073,11.0637575 60.8311973,11.0637575 C61.2219759,11.0637575 61.6127544,11.0122982 62.003533,10.8836499 C62.3943116,10.7550015 62.7069344,10.6006235 62.9674535,10.3947862 C63.1498168,10.2404081 63.2800763,10.0345708 63.358232,9.80300378 C63.4103358,9.6228961 63.4884916,9.26268074 63.5926992,8.72235769 Z M68.4644053,5.71198645 C68.4383534,6.14939082 68.3601977,6.56106552 68.2299382,7.23003691 L67.4223292,11.8099179 C67.3441734,12.2215926 67.5004849,12.5303487 67.8912634,12.7619157 L67.8652115,12.9162937 L63.1237649,12.9162937 L63.097713,11.7584586 C62.3943116,12.1701333 61.5606506,12.504619 60.8311973,12.7104563 C60.0756921,12.9162937 59.4764982,12.9934827 58.5646816,12.9934827 C57.0276192,12.9934827 56.1679064,12.8391047 55.5687126,12.3245113 C54.9434668,11.7841883 54.6568959,11.4239729 54.6829478,10.6778125 C54.7089997,10.2404081 54.9174149,9.70008511 55.2560897,9.31414007 C55.5947645,8.92819504 56.0376468,8.67089836 56.5065811,8.43933134 C57.0015673,8.20776432 57.5747092,8.05338631 58.4083702,7.8990083 C59.2420311,7.77035995 60.4143668,7.64171161 61.9774811,7.51306326 C62.7850901,7.43587426 63.2800763,7.25576658 63.5145435,7.17857757 C63.8532182,7.04992923 63.9834777,6.92128088 64.0355816,6.63825453 C64.1137373,6.17512049 63.9574258,5.89209414 63.3321801,5.76344579 C61.6127544,5.4289601 58.4344221,5.96928314 56.7931521,6.38095784 L57.6789168,3.98809865 C59.8672768,3.67934263 61.8732735,3.47350528 64.0355816,3.47350528 C67.3962773,3.52496461 68.4904572,4.47696236 68.4644053,5.71198645 L68.4644053,5.71198645 Z M13.1822637,9.6228961 C11.6973052,9.90592246 10.8896961,10.0345708 9.43078947,10.0345708 C7.26848139,10.0345708 5.54905568,8.97965438 5.6272114,7.02419956 C5.70536711,5.73771612 7.24242948,2.98464157 11.202319,2.98464157 C12.4528104,2.98464157 13.4167309,3.19047892 14.7193261,3.93663931 L15.292468,0.771890061 C13.5209385,0.102918675 12.3486028,-6.32133235e-15 10.8115404,0.0257296687 C5.6272114,0.0771890061 0.651297615,2.39285919 0.0521038092,7.12711823 C-0.573141902,11.9385663 5.36669235,13.1478607 7.99793472,13.122131 C9.50894519,13.122131 11.0981114,13.044942 12.5830699,12.9162937 L13.1822637,9.6228961 Z M49.993605,3.70507229 L50.3062278,1.85253615 L55.0476745,0.823349399 L54.5526883,3.70507229 L56.8713078,3.70507229 L56.4284254,5.55760844 L54.1879616,5.55760844 L52.8332626,12.9162937 C52.8332626,12.9162937 48.2741793,12.890564 48.2481274,12.9162937 L49.6028264,5.58333811 L47.8834007,5.58333811 L48.2220755,3.73080196 L49.993605,3.73080196 L49.993605,3.70507229 Z M73.0755925,12.9162937 L68.4383534,12.9162937 L70.7569729,0.154378012 L75.2639524,0.283026356 L73.0755925,12.9162937 Z M35.3263827,5.9178238 C34.7271889,5.9178238 34.2061508,6.09793149 33.7111646,6.45814685 C33.2422303,6.81836221 32.9296074,7.33295558 32.8253998,8.02765664 C32.6951403,8.82527637 32.773296,9.39132908 33.0859189,9.75154444 C33.3985417,10.1117598 33.867476,10.2918675 34.4927217,10.2918675 C34.9095522,10.2918675 35.3263827,10.2146785 35.6390055,10.0603005 C36.0297841,9.85446312 36.2903031,9.64862577 36.5247703,9.31414007 C36.7852893,8.95392471 36.9416008,8.56797968 37.0197565,8.10484565 C37.150016,7.38441492 37.0458084,6.84409188 36.7071336,6.48387652 C36.3684588,6.09793149 35.9255765,5.9178238 35.3263827,5.9178238 L35.3263827,5.9178238 Z M27.0679289,16.0810429 L29.2823408,3.80799097 L33.2682822,3.80799097 L32.9556593,5.37750076 C33.2943341,4.91436672 33.8414241,4.52842169 34.6229812,4.21966567 C35.3784865,3.91090964 36.2642512,3.67934263 37.2021198,3.67934263 C38.244196,3.67934263 38.8694417,3.73080196 39.6509988,4.14247666 C40.432556,4.55415136 40.9535941,5.12020407 41.2662169,5.89209414 C41.5527879,6.63825453 41.6309436,7.46160393 41.4746322,8.387872 C41.2141131,9.90592246 40.4586079,11.0894872 39.2341684,11.964296 C38.0097288,12.8391047 36.9155488,13.0706717 35.3784865,13.0706717 C34.8313965,13.0706717 34.3624622,13.0192124 33.9716836,12.9162937 C33.606957,12.813375 33.2943341,12.7104563 33.059867,12.5560783 C32.8514517,12.4017003 32.6169846,12.2215926 32.3043617,11.8871069 L31.5749084,16.0810429 L27.0679289,16.0810429 L27.0679289,16.0810429 Z M109.339844,7.04992923 C109.313792,6.30376884 108.949065,5.81490513 108.167508,5.81490513 C106.317823,5.81490513 104.337878,9.41705875 103.999203,10.8579202 C107.021224,10.8579202 109.391947,9.05684339 109.339844,7.04992923 L109.339844,7.04992923 Z M109.730622,12.6847267 L110.095349,12.9162937 C109.183532,14.7431002 107.333847,16.2096913 105.171539,16.2096913 C103.400009,16.2096913 101.941103,15.0518562 101.862947,12.8648344 C101.732688,8.95392471 105.432058,5.30031176 108.480131,5.30031176 C109.782726,5.30031176 111.007166,5.86636447 111.059269,7.25576658 C111.163477,10.3690565 106.734653,11.3210542 103.81684,11.3982432 C103.712632,11.7327289 103.68658,12.041485 103.712632,12.5560783 C103.764736,13.8425618 104.546293,14.9489375 106.187563,14.9489375 C107.594366,14.8974782 109.001169,13.7911024 109.730622,12.6847267 Z" id="Shape"></path>
                                            <path d="M91.5463928,6.94701055 C91.8590157,6.89555122 92.3800538,6.84409188 92.588469,6.84409188 C92.9271438,6.84409188 93.2397666,6.89555122 93.2397666,7.23003691 C93.2397666,7.43587426 92.9010919,8.82527637 92.8229362,9.13403239 L92.1195347,12.2215926 C91.8329638,13.4823464 91.5203409,14.7945595 91.2598219,15.8494759 L93.0834552,15.8494759 L94.0994795,10.9865685 C97.225708,7.79608962 98.4240957,6.7411732 99.153549,6.7411732 C99.4922237,6.7411732 99.700639,6.92128088 99.7266909,7.30722591 C99.7527428,7.87327863 99.3880161,9.15976206 99.2577566,9.51997742 L98.2156804,13.0706717 C97.9812133,13.8682914 97.7988499,14.5887222 97.8249018,15.1033155 C97.8509538,15.8752056 98.3459399,16.235421 99.0493414,16.235421 C100.377988,16.235421 101.341909,14.8717485 102.17557,13.5338057 L101.941103,13.0964014 C101.602428,13.6367244 100.820871,14.8202892 100.195625,14.8202892 C99.9872099,14.8202892 99.8048466,14.6916408 99.8048466,14.3571551 C99.7787947,13.9454804 99.961158,13.3279684 100.091418,12.9162937 L101.237701,8.74808736 C101.550324,7.59025227 101.706636,6.86982155 101.680584,6.45814685 C101.654532,5.68625679 101.185598,5.32604142 100.482196,5.32604142 C99.2838085,5.32604142 97.6946423,6.17512049 94.3339466,10.0088411 L94.2818428,10.0088411 L94.6986733,8.15630498 C94.9331404,7.12711823 95.1415557,6.07220182 95.3760228,5.35177109 C94.2036871,5.76344579 92.5624171,6.22657983 91.5203409,6.43241718 L91.5463928,6.94701055 L91.5463928,6.94701055 Z" id="Shape"></path>
                                        </g>
                                    </g>
                                    <g id="Group-5" transform="translate(138.888889, 13.333333)" fill="#004977" stroke="#004977" stroke-linejoin="round" stroke-width="2">
                                        <polygon id="Close" points="0.568888889 0 6.50666667 5.93777778 12.4444444 0 13.0133333 0.568888889 7.07555556 6.50666667 13.0133333 12.4444444 12.4444444 13.0133333 6.50666667 7.07555556 0.568888889 13.0133333 0 12.4444444 5.93777778 6.50666667 0 0.568888889"></polygon>
                                    </g>
                                </g>
                                <g id="Group-8" transform="translate(180.000000, 0.555556)">
                                    <polygon id="Triangle" fill="#C13D3A" points="41.1111111 23.8888889 55.5555556 48.3333333 26.6666667 48.3333333"></polygon>
                                    <polygon id="Path-2" fill="#004977" points="0 48.3333333 12.9335387 48.3333333 28.9874526 21.612709 34.9230344 31.0401249 41.1111111 21.612709 28.9874526 0.555555556"></polygon>
                                </g>
                            </g>
                        </g>
                    </g>
                    <g id="Group-2" transform="translate(949.000000, 10.000000)" fill="#004977">
                        <text id="Mclean,-VA" font-family="CircularStd-Medium, Circular Std" font-size="24" font-weight="400">
                            <tspan x="0.088" y="24">Mclean, VA</tspan>
                        </text>
                        <path d="M154,26 C155.73,23.69 161,15.6 161,11 C161,6.02943725 156.970563,2 152,2 C147.029437,2 143,6.02943725 143,11 C143,15.6 148.27,23.69 150,26 C151,27.3333333 151.666667,28 152,28 C152.333333,28 153,27.3333333 154,26 Z M148,11 C148,8.790861 149.790861,7 152,7 C154.209139,7 156,8.790861 156,11 C156,13.209139 154.209139,15 152,15 C149.790861,15 148,13.209139 148,11 Z" id="Shape" fill-rule="nonzero"></path>
                    </g>
                </g>
            </g>
        </g>
    </g>
</svg>