<?xml version="1.0" encoding="UTF-8"?>
<svg width="1109px" height="64px" viewBox="0 0 1109 64" version="1.1" xmlns="http://www.w3.org/2000/svg" xmlns:xlink="http://www.w3.org/1999/xlink">
    <!-- Generator: Sketch 63.1 (92452) - https://sketch.com -->
    <title>Group 8</title>
    <desc>Created with Sketch.</desc>
    <defs>
        <linearGradient x1="12.1270876%" y1="0%" x2="89.3878275%" y2="100.999999%" id="linearGradient-1">
            <stop stop-color="#23A4AE" offset="0%"></stop>
            <stop stop-color="#52C491" offset="59.3027457%"></stop>
            <stop stop-color="#6DD780" offset="100%"></stop>
        </linearGradient>
        <path d="M34.7640113,12.3737374 C39.8679273,12.3737374 44.7112085,14.2970333 48.4074819,17.792869 L48.4074819,17.792869 L46.3127116,19.9624407 C43.1829417,17.0071322 39.0827923,15.3791539 34.7640113,15.3791539 C25.5394829,15.3791539 18.0338509,22.8079379 18.0338509,31.9393292 C18.0338509,41.0707206 25.5394829,48.5005707 34.7640113,48.5005707 C39.38543,48.5005707 43.6815939,46.6796231 46.856598,43.3746244 L46.856598,43.3746244 L49.0547605,45.4429139 C45.301406,49.3502752 40.2201071,51.5027888 34.7640113,51.5027888 C23.8636667,51.5027888 14.9999342,42.7232199 14.9999342,31.9382631 C14.9999342,21.1501079 23.8690517,12.3737374 34.7640113,12.3737374 Z M34.7397913,16.6642265 C38.7392739,16.6642265 42.5329954,18.1710836 45.425158,20.9080828 L45.425158,20.9080828 L44.107339,22.2735673 C41.572551,19.8722442 38.2472069,18.5509804 34.7397913,18.5509804 C27.2559058,18.5509804 21.1683535,24.5790788 21.1683535,31.9874019 C21.1683535,39.3957251 27.2559058,45.4238234 34.7397913,45.4238234 C38.4888409,45.4238234 41.9739206,43.9464469 44.5520268,41.2643887 L44.5520268,41.2643887 L45.9361767,42.564882 C42.9946043,45.6254971 39.0154271,47.3105774 34.7397913,47.3105774 C26.2067946,47.3105774 19.2623553,40.4369238 19.2623553,31.9874019 C19.2623553,23.5392201 26.2040872,16.6642265 34.7397913,16.6642265 Z M34.8023228,19.7288616 C38.0098956,19.7288616 41.0536718,20.9375633 43.376607,23.1345328 L43.376607,23.1345328 L42.0601417,24.4980073 C40.0932274,22.6407339 37.516475,21.6176255 34.8023228,21.6176255 C29.0051373,21.6176255 24.288198,26.2862694 24.288198,32.0249226 C24.288198,37.7635757 29.0051373,42.4328897 34.8023228,42.4328897 C37.7066687,42.4328897 40.4066071,41.2885091 42.4019489,39.2114718 L42.4019489,39.2114718 L43.7833914,40.5112951 C41.4245834,42.9668893 38.2312243,44.3196436 34.8023228,44.3196436 C27.9519651,44.3196436 22.381523,38.8020944 22.381523,32.0242526 C22.381523,25.2444007 27.9553493,19.7288616 34.8023228,19.7288616 Z" id="path-2"></path>
        <filter x="-1.5%" y="-1.3%" width="102.9%" height="102.6%" filterUnits="objectBoundingBox" id="filter-3">
            <feGaussianBlur stdDeviation="0.5" in="SourceAlpha" result="shadowBlurInner1"></feGaussianBlur>
            <feOffset dx="0" dy="0" in="shadowBlurInner1" result="shadowOffsetInner1"></feOffset>
            <feComposite in="shadowOffsetInner1" in2="SourceAlpha" operator="arithmetic" k2="-1" k3="1" result="shadowInnerInner1"></feComposite>
            <feColorMatrix values="0 0 0 0 0   0 0 0 0 0   0 0 0 0 0  0 0 0 0.5 0" type="matrix" in="shadowInnerInner1"></feColorMatrix>
        </filter>
    </defs>
    <g id="V3" stroke="none" stroke-width="1" fill="none" fill-rule="evenodd">
        <g id="Channels-for-Slack" transform="translate(-166.000000, -120.000000)">
            <g id="Group-6-Copy" transform="translate(165.000000, 120.000000)">
                <g id="Group-8" transform="translate(1.000000, 0.000000)">
                    <g id="Group-2" transform="translate(990.000000, 17.000000)" fill="#D0FAE8">
                        <text id="Remote" font-family="CircularStd-Medium, Circular Std" font-size="24" font-weight="400">
                            <tspan x="0.712" y="24">Remote</tspan>
                        </text>
                        <path d="M112,26 C113.73,23.69 119,15.6 119,11 C119,6.02943725 114.970563,2 110,2 C105.029437,2 101,6.02943725 101,11 C101,15.6 106.27,23.69 108,26 C109,27.3333333 109.666667,28 110,28 C110.333333,28 111,27.3333333 112,26 Z M106,11 C106,8.790861 107.790861,7 110,7 C112.209139,7 114,8.790861 114,11 C114,13.209139 112.209139,15 110,15 C107.790861,15 106,13.209139 106,11 Z" id="Shape" fill-rule="nonzero"></path>
                    </g>
                    <g id="Group-6">
                        <g id="Group-9">
                            <g id="Group" transform="translate(110.037879, 0.000000)">
                                <rect id="Rectangle-13" stroke-opacity="0.295912591" stroke="#979797" stroke-width="0.5" fill="#372C47" x="0.25" y="0.25" width="63.7854324" height="63.1363636" rx="15.5555556"></rect>
                                <g id="Combined-Shape" fill-rule="nonzero">
                                    <use fill-opacity="0.199999988" fill="#FFFFFF" xlink:href="#path-2"></use>
                                    <use fill-opacity="0.75" fill="url(#linearGradient-1)" xlink:href="#path-2"></use>
                                    <use fill="black" fill-opacity="1" filter="url(#filter-3)" xlink:href="#path-2"></use>
                                </g>
                            </g>
                            <g id="Slack_Mark" fill-rule="nonzero">
                                <g id="Group" transform="translate(0.000000, 32.802867)" fill="#E01E5A">
                                    <path d="M13.3230108,6.66150538 C13.3230108,10.2445878 10.3959857,13.1716129 6.81290323,13.1716129 C3.22982079,13.1716129 0.302795699,10.2445878 0.302795699,6.66150538 C0.302795699,3.07842294 3.22982079,0.151397849 6.81290323,0.151397849 L13.3230108,0.151397849 L13.3230108,6.66150538 Z" id="Path"></path>
                                    <path d="M16.6032975,6.66150538 C16.6032975,3.07842294 19.5303226,0.151397849 23.113405,0.151397849 C26.6964875,0.151397849 29.6235125,3.07842294 29.6235125,6.66150538 L29.6235125,22.9620072 C29.6235125,26.5450896 26.6964875,29.4721147 23.113405,29.4721147 C19.5303226,29.4721147 16.6032975,26.5450896 16.6032975,22.9620072 L16.6032975,6.66150538 Z" id="Path"></path>
                                </g>
                                <g id="Group" fill="#36C5F0">
                                    <path d="M23.113405,13.3230108 C19.5303226,13.3230108 16.6032975,10.3959857 16.6032975,6.81290323 C16.6032975,3.22982079 19.5303226,0.302795699 23.113405,0.302795699 C26.6964875,0.302795699 29.6235125,3.22982079 29.6235125,6.81290323 L29.6235125,13.3230108 L23.113405,13.3230108 Z" id="Path"></path>
                                    <path d="M23.113405,16.6032975 C26.6964875,16.6032975 29.6235125,19.5303226 29.6235125,23.113405 C29.6235125,26.6964875 26.6964875,29.6235125 23.113405,29.6235125 L6.81290323,29.6235125 C3.22982079,29.6235125 0.302795699,26.6964875 0.302795699,23.113405 C0.302795699,19.5303226 3.22982079,16.6032975 6.81290323,16.6032975 L23.113405,16.6032975 Z" id="Path"></path>
                                </g>
                                <g id="Group" transform="translate(32.802867, 0.000000)" fill="#2EB67D">
                                    <path d="M16.4518996,23.113405 C16.4518996,19.5303226 19.3789247,16.6032975 22.9620072,16.6032975 C26.5450896,16.6032975 29.4721147,19.5303226 29.4721147,23.113405 C29.4721147,26.6964875 26.5450896,29.6235125 22.9620072,29.6235125 L16.4518996,29.6235125 L16.4518996,23.113405 Z" id="Path"></path>
                                    <path d="M13.1716129,23.113405 C13.1716129,26.6964875 10.2445878,29.6235125 6.66150538,29.6235125 C3.07842294,29.6235125 0.151397849,26.6964875 0.151397849,23.113405 L0.151397849,6.81290323 C0.151397849,3.22982079 3.07842294,0.302795699 6.66150538,0.302795699 C10.2445878,0.302795699 13.1716129,3.22982079 13.1716129,6.81290323 L13.1716129,23.113405 Z" id="Path"></path>
                                </g>
                                <g id="Group" transform="translate(32.802867, 32.802867)" fill="#ECB22E">
                                    <path d="M6.66150538,16.4518996 C10.2445878,16.4518996 13.1716129,19.3789247 13.1716129,22.9620072 C13.1716129,26.5450896 10.2445878,29.4721147 6.66150538,29.4721147 C3.07842294,29.4721147 0.151397849,26.5450896 0.151397849,22.9620072 L0.151397849,16.4518996 L6.66150538,16.4518996 Z" id="Path"></path>
                                    <path d="M6.66150538,13.1716129 C3.07842294,13.1716129 0.151397849,10.2445878 0.151397849,6.66150538 C0.151397849,3.07842294 3.07842294,0.151397849 6.66150538,0.151397849 L22.9620072,0.151397849 C26.5450896,0.151397849 29.4721147,3.07842294 29.4721147,6.66150538 C29.4721147,10.2445878 26.5450896,13.1716129 22.9620072,13.1716129 L6.66150538,13.1716129 Z" id="Path"></path>
                                </g>
                            </g>
                            <g id="Group-5" transform="translate(81.326941, 26.363636)" fill="#D0FAE8" stroke="#D0FAE8" stroke-linejoin="round" stroke-width="2">
                                <polygon id="Close" points="0.47020202 0 5.37793561 4.85818182 10.2856692 0 10.7558712 0.465454545 5.84813763 5.32363636 10.7558712 10.1818182 10.2856692 10.6472727 5.37793561 5.78909091 0.47020202 10.6472727 0 10.1818182 4.90773359 5.32363636 0 0.465454545"></polygon>
                            </g>
                        </g>
                    </g>
                </g>
            </g>
        </g>
    </g>
</svg>