<?xml version="1.0" encoding="UTF-8"?>
<svg width="1110px" height="64px" viewBox="0 0 1110 64" version="1.1" xmlns="http://www.w3.org/2000/svg" xmlns:xlink="http://www.w3.org/1999/xlink">
    <!-- Generator: Sketch 63.1 (92452) - https://sketch.com -->
    <title>Group 8</title>
    <desc>Created with Sketch.</desc>
    <defs>
        <radialGradient cx="50%" cy="50%" fx="50%" fy="50%" r="88.3453588%" gradientTransform="translate(0.500000,0.500000),scale(1.000000,0.655847),rotate(90.000000),scale(1.000000,0.997347),translate(-0.500000,-0.500000)" id="radialGradient-1">
            <stop stop-color="#00FFA5" offset="0%"></stop>
            <stop stop-color="#4E00FF" offset="100%"></stop>
        </radialGradient>
    </defs>
    <g id="V3" stroke="none" stroke-width="1" fill="none" fill-rule="evenodd">
        <g id="Capital-One-Elements" transform="translate(-165.000000, -120.000000)">
            <g id="Group-9" transform="translate(165.000000, 120.000000)">
                <g id="Group-8">
                    <g id="Group-2" transform="translate(949.000000, 17.000000)" fill="#1E1689">
                        <text id="Mclean,-VA" font-family="CircularStd-Medium, Circular Std" font-size="24" font-weight="400">
                            <tspan x="0.088" y="24">Mclean, VA</tspan>
                        </text>
                        <path d="M154,26 C155.73,23.69 161,15.6 161,11 C161,6.02943725 156.970563,2 152,2 C147.029437,2 143,6.02943725 143,11 C143,15.6 148.27,23.69 150,26 C151,27.3333333 151.666667,28 152,28 C152.333333,28 153,27.3333333 154,26 Z M148,11 C148,8.790861 149.790861,7 152,7 C154.209139,7 156,8.790861 156,11 C156,13.209139 154.209139,15 152,15 C149.790861,15 148,13.209139 148,11 Z" id="Shape" fill-rule="nonzero"></path>
                    </g>
                    <g id="Group-15">
                        <g id="Group-11">
                            <g id="Group-27-Copy-9" transform="translate(162.133333, 0.000000)" stroke-width="0.5">
                                <polygon id="E" stroke="#4E00FF" fill="#4E00FF" points="29.4092436 32.8761905 29.4092436 38.247619 36.9642005 38.247619 36.9642005 40.0761905 27.1885442 40.0761905 27.1885442 24.0761905 36.9184129 24.0761905 36.9184129 25.9047619 29.4092436 25.9047619 29.4092436 31.047619 35.9568729 31.047619 35.9568729 32.8761905"></polygon>
                                <g id="Group-44-Copy-2" stroke="url(#radialGradient-1)">
                                    <path d="M14.5107399,6.90061512 C14.5107399,6.03502929 15.2094491,5.33333333 16.0816469,5.33333333 L47.9183531,5.33333333 C48.7859411,5.33333333 49.4892601,6.02716984 49.4892601,6.90061512 L49.4892601,57.0993849 C49.4892601,57.9649707 48.7905509,58.6666667 47.9183531,58.6666667 L16.0816469,58.6666667 C15.2140589,58.6666667 14.5107399,57.9728302 14.5107399,57.0993849 L14.5107399,6.90061512 Z" id="Rectangle-12" transform="translate(32.000000, 32.000000) rotate(-95.000000) translate(-32.000000, -32.000000) "></path>
                                    <path d="M14.5107399,6.90061512 C14.5107399,6.03502929 15.2094491,5.33333333 16.0816469,5.33333333 L47.9183531,5.33333333 C48.7859411,5.33333333 49.4892601,6.02716984 49.4892601,6.90061512 L49.4892601,57.0993849 C49.4892601,57.9649707 48.7905509,58.6666667 47.9183531,58.6666667 L16.0816469,58.6666667 C15.2140589,58.6666667 14.5107399,57.9728302 14.5107399,57.0993849 L14.5107399,6.90061512 Z" id="Rectangle-12" transform="translate(32.000000, 32.000000) rotate(-75.000000) translate(-32.000000, -32.000000) "></path>
                                    <path d="M14.5107399,6.90061512 C14.5107399,6.03502929 15.2094491,5.33333333 16.0816469,5.33333333 L47.9183531,5.33333333 C48.7859411,5.33333333 49.4892601,6.02716984 49.4892601,6.90061512 L49.4892601,57.0993849 C49.4892601,57.9649707 48.7905509,58.6666667 47.9183531,58.6666667 L16.0816469,58.6666667 C15.2140589,58.6666667 14.5107399,57.9728302 14.5107399,57.0993849 L14.5107399,6.90061512 Z" id="Rectangle-12" transform="translate(32.000000, 32.000000) rotate(-55.000000) translate(-32.000000, -32.000000) "></path>
                                    <path d="M14.5107399,6.90061512 C14.5107399,6.03502929 15.2094491,5.33333333 16.0816469,5.33333333 L47.9183531,5.33333333 C48.7859411,5.33333333 49.4892601,6.02716984 49.4892601,6.90061512 L49.4892601,57.0993849 C49.4892601,57.9649707 48.7905509,58.6666667 47.9183531,58.6666667 L16.0816469,58.6666667 C15.2140589,58.6666667 14.5107399,57.9728302 14.5107399,57.0993849 L14.5107399,6.90061512 Z" id="Rectangle-12" transform="translate(32.000000, 32.000000) rotate(-35.000000) translate(-32.000000, -32.000000) "></path>
                                    <path d="M14.5107399,6.90061512 C14.5107399,6.03502929 15.2094491,5.33333333 16.0816469,5.33333333 L47.9183531,5.33333333 C48.7859411,5.33333333 49.4892601,6.02716984 49.4892601,6.90061512 L49.4892601,57.0993849 C49.4892601,57.9649707 48.7905509,58.6666667 47.9183531,58.6666667 L16.0816469,58.6666667 C15.2140589,58.6666667 14.5107399,57.9728302 14.5107399,57.0993849 L14.5107399,6.90061512 Z" id="Rectangle-12" transform="translate(32.000000, 32.000000) rotate(-15.000000) translate(-32.000000, -32.000000) "></path>
                                    <path d="M14.5107399,6.90061512 C14.5107399,6.03502929 15.2094491,5.33333333 16.0816469,5.33333333 L47.9183531,5.33333333 C48.7859411,5.33333333 49.4892601,6.02716984 49.4892601,6.90061512 L49.4892601,57.0993849 C49.4892601,57.9649707 48.7905509,58.6666667 47.9183531,58.6666667 L16.0816469,58.6666667 C15.2140589,58.6666667 14.5107399,57.9728302 14.5107399,57.0993849 L14.5107399,6.90061512 Z" id="Rectangle-12" transform="translate(32.000000, 32.000000) rotate(5.000000) translate(-32.000000, -32.000000) "></path>
                                    <path d="M14.5107399,6.90061512 C14.5107399,6.03502929 15.2094491,5.33333333 16.0816469,5.33333333 L47.9183531,5.33333333 C48.7859411,5.33333333 49.4892601,6.02716984 49.4892601,6.90061512 L49.4892601,57.0993849 C49.4892601,57.9649707 48.7905509,58.6666667 47.9183531,58.6666667 L16.0816469,58.6666667 C15.2140589,58.6666667 14.5107399,57.9728302 14.5107399,57.0993849 L14.5107399,6.90061512 Z" id="Rectangle-12" transform="translate(32.000000, 32.000000) rotate(25.000000) translate(-32.000000, -32.000000) "></path>
                                    <path d="M14.5107399,6.90061512 C14.5107399,6.03502929 15.2094491,5.33333333 16.0816469,5.33333333 L47.9183531,5.33333333 C48.7859411,5.33333333 49.4892601,6.02716984 49.4892601,6.90061512 L49.4892601,57.0993849 C49.4892601,57.9649707 48.7905509,58.6666667 47.9183531,58.6666667 L16.0816469,58.6666667 C15.2140589,58.6666667 14.5107399,57.9728302 14.5107399,57.0993849 L14.5107399,6.90061512 Z" id="Rectangle-12" transform="translate(32.000000, 32.000000) rotate(45.000000) translate(-32.000000, -32.000000) "></path>
                                    <path d="M14.5107399,6.90061512 C14.5107399,6.03502929 15.2094491,5.33333333 16.0816469,5.33333333 L47.9183531,5.33333333 C48.7859411,5.33333333 49.4892601,6.02716984 49.4892601,6.90061512 L49.4892601,57.0993849 C49.4892601,57.9649707 48.7905509,58.6666667 47.9183531,58.6666667 L16.0816469,58.6666667 C15.2140589,58.6666667 14.5107399,57.9728302 14.5107399,57.0993849 L14.5107399,6.90061512 Z" id="Rectangle-12" transform="translate(32.000000, 32.000000) rotate(65.000000) translate(-32.000000, -32.000000) "></path>
                                    <path d="M14.5107399,6.90061512 C14.5107399,6.03502929 15.2094491,5.33333333 16.0816469,5.33333333 L47.9183531,5.33333333 C48.7859411,5.33333333 49.4892601,6.02716984 49.4892601,6.90061512 L49.4892601,57.0993849 C49.4892601,57.9649707 48.7905509,58.6666667 47.9183531,58.6666667 L16.0816469,58.6666667 C15.2140589,58.6666667 14.5107399,57.9728302 14.5107399,57.0993849 L14.5107399,6.90061512 Z" id="Rectangle-12" transform="translate(32.000000, 32.000000) rotate(85.000000) translate(-32.000000, -32.000000) "></path>
                                </g>
                            </g>
                            <g id="capital-one-logo-(1)" transform="translate(0.000000, 12.800000)">
                                <path d="M72.3534337,27.3691335 C67.8016449,30.5554956 62.4245318,33.8900607 56.6472614,37.3975291 L56.4221729,37.5210315 C56.3471435,37.5704325 56.3221336,37.6692344 56.3721533,37.7680364 C56.4221729,37.8421378 56.5222123,37.8668383 56.6222516,37.8174373 L56.8223302,37.7186354 C61.7242566,35.1991862 67.3764778,32.1857274 73.028699,29.0981672 C73.0537089,29.0734667 73.0787187,29.0734667 73.1287383,29.0487662 C72.8036106,28.5300561 72.5285025,27.961945 72.3534337,27.3691335 L72.3534337,27.3691335 Z M102.165149,3.53316836 C95.0123382,-4.27218394 48.9692441,2.74275294 29.3865484,6.96653536 L28.9363715,7.06533728 C28.8363322,7.09003777 28.7863125,7.16413921 28.7863125,7.26294114 C28.8113224,7.36174307 28.8863518,7.41114403 28.9863912,7.41114403 L29.4365681,7.3123421 C45.6429369,4.47178668 79.3811955,0.519709563 86.6590555,7.63344837 C88.8849303,9.80709078 88.334714,12.5982452 85.7837115,15.8834093 C87.1592521,16.7726267 88.1596452,18.1558537 88.6098221,19.8848874 C98.6137535,13.2898587 105.341397,7.01593632 102.165149,3.53316836 Z" id="Shape" fill="#A12830"></path>
                                <g id="Group" transform="translate(0.000000, 15.587004)" fill="#003A6F">
                                    <path d="M75.2545738,9.73198989 C75.3546131,12.4737434 77.1053011,14.7214873 79.4062053,14.7214873 C83.8579547,14.7214873 85.7336919,9.33678218 85.6086427,5.73051182 C85.5086034,2.98875832 83.7078958,0.741014459 81.4320014,0.741014459 C77.5804878,0.741014459 75.1295246,6.10101905 75.2545738,9.73198989 L75.2545738,9.73198989 Z M72.9036499,9.583787 C72.7285811,4.89069543 76.4550455,0.12350241 81.8571685,0.12350241 C85.4585838,0.12350241 87.8345175,2.49474868 87.9595666,6.12571953 C88.1346354,11.0658159 84.6582693,15.5860041 79.006048,15.5860041 C75.4046327,15.5860041 73.028699,13.2147579 72.9036499,9.583787 Z M21.8085704,8.3487629 C21.6084918,8.42286435 21.3583935,8.4969658 21.0582755,8.54636676 C20.7581576,8.62046821 20.1829315,8.71927013 19.382617,8.84277254 C18.8324008,8.94157447 18.4322436,9.0403764 18.2071551,9.21327977 C17.9820666,9.36148267 17.8570175,9.55908652 17.8320077,9.78139086 C17.781988,10.0283957 17.8570175,10.2259995 18.082106,10.3742024 C18.3071944,10.5224053 18.657332,10.5965068 19.1575286,10.5965068 C19.532676,10.5965068 19.9078234,10.5471058 20.2829709,10.4236034 C20.6581183,10.300101 20.9582362,10.1518981 21.2083345,9.95429423 C21.3834033,9.80609134 21.5084525,9.60848748 21.6084918,9.38618315 C21.6335016,9.21327977 21.7085311,8.86747303 21.8085704,8.3487629 L21.8085704,8.3487629 Z M26.5104181,5.45880651 C26.4854083,5.87871471 26.4103788,6.27392242 26.3103395,6.91613495 L25.510025,11.3128207 C25.4349955,11.7080285 25.5850545,12.0044342 25.9602019,12.2267386 L25.9351921,12.3996419 L21.3834033,12.3996419 L21.3333837,11.2881203 C20.6831281,11.683328 19.8828136,12.0044342 19.1575286,12.2020381 C18.4322436,12.3749415 17.8570175,12.4737434 16.9816735,12.4737434 C15.5060936,12.4737434 14.6807693,12.3255405 14.1055432,11.8315309 C13.5053074,11.3128207 13.2301992,10.967014 13.2552091,10.2507 C13.2802189,9.83079182 13.4802975,9.3120817 13.8054253,8.94157447 C14.1305531,8.57106724 14.5557201,8.32406242 15.0058971,8.10175808 C15.4810838,7.87945375 16.0313,7.73125086 16.8316145,7.60774845 C17.631929,7.48424604 18.7573713,7.36074363 20.257961,7.23724122 C21.0332657,7.16313977 21.5334623,6.9902364 21.7585507,6.91613495 C22.0836785,6.79263254 22.1837178,6.66913013 22.2337375,6.42212531 C22.308767,5.97751664 22.1837178,5.70581133 21.5584721,5.58230892 C19.9328333,5.26120266 16.8566244,5.77991278 15.2810052,6.17512049 L16.1313393,3.87797567 C18.2071551,3.58156989 20.1829315,3.38396603 22.2337375,3.38396603 C25.4850152,3.35926555 26.535428,4.27318338 26.5104181,5.45880651 L26.5104181,5.45880651 Z M39.6655879,12.3996419 L41.2412071,3.60627037 L45.5929172,3.60627037 L44.017298,12.3996419 L39.6655879,12.3996419 Z M41.4913054,1.58083085 C41.6163545,0.864516869 42.7668066,0.271705302 44.0673177,0.271705302 C45.3678288,0.271705302 46.2931924,0.864516869 46.1681433,1.58083085 C46.0430941,2.29714482 44.8676322,2.88995639 43.592131,2.88995639 C42.2916199,2.88995639 41.3412464,2.29714482 41.4913054,1.58083085 Z M61.0489912,8.37346339 C60.8489126,8.44756483 60.5988143,8.52166628 60.2986964,8.57106724 C59.9985784,8.64516869 59.4233524,8.74397062 58.598028,8.86747303 C58.0478118,8.96627495 57.6476545,9.06507688 57.4225661,9.23798026 C57.2224875,9.38618315 57.0974383,9.583787 57.0474187,9.80609134 C56.997399,10.0530962 57.0974383,10.2507 57.2975169,10.3989029 C57.5226054,10.5471058 57.872743,10.6212072 58.3979494,10.6212072 C58.7730968,10.6212072 59.1482442,10.5718063 59.5233917,10.4483039 C59.8985391,10.3248015 60.198657,10.1765986 60.4487553,9.97899471 C60.6238241,9.83079182 60.7488733,9.63318797 60.8239028,9.41088363 C60.8739224,9.23798026 60.9489519,8.89217351 61.0489912,8.37346339 Z M65.7258291,5.483507 C65.7008193,5.90341519 65.6257898,6.2986229 65.5007407,6.94083543 L64.725436,11.3375212 C64.6504065,11.7327289 64.8004655,12.0291347 65.1756129,12.2514391 L65.1506031,12.3996419 L60.5988143,12.3996419 L60.5738045,11.2881203 C59.8985391,11.683328 59.0982246,12.0044342 58.3979494,12.2020381 C57.6726644,12.3996419 57.0974383,12.4737434 56.2220943,12.4737434 C54.7465144,12.4737434 53.9211901,12.3255405 53.3459641,11.8315309 C52.7457282,11.3128207 52.4706201,10.967014 52.4956299,10.2507 C52.5206397,9.83079182 52.7207183,9.3120817 53.0458461,8.94157447 C53.3709739,8.57106724 53.796141,8.32406242 54.2463179,8.10175808 C54.7215046,7.87945375 55.2717208,7.73125086 56.0720354,7.58304796 C56.8723499,7.45954555 57.9977921,7.33604314 59.4983818,7.21254073 C60.2736865,7.13843929 60.7488733,6.96553591 60.9739617,6.89143447 C61.2990895,6.76793206 61.4241386,6.64442965 61.4741583,6.37272435 C61.5491878,5.92811567 61.3991288,5.65641037 60.7988929,5.53290796 C59.1482442,5.21180169 56.0970452,5.73051182 54.521426,6.12571953 L55.3717602,3.8285747 C57.4725857,3.53216892 59.3983425,3.33456507 61.4741583,3.33456507 C64.7004262,3.38396603 65.750839,4.29788386 65.7258291,5.483507 L65.7258291,5.483507 Z M12.6549732,9.23798026 C11.229413,9.50968556 10.4541083,9.63318797 9.05355789,9.63318797 C6.97774213,9.63318797 5.32709346,8.62046821 5.40212294,6.74323158 C5.47715243,5.50820748 6.9527323,2.86525591 10.7542262,2.86525591 C11.954698,2.86525591 12.8800616,3.06285976 14.1305531,3.77917374 L14.6807693,0.741014459 C12.980101,0.0988019279 11.8546587,-6.0888794e-15 10.3790788,0.024700482 C5.40212294,0.0741014459 0.625245711,2.29714482 0.0500196569,6.8420335 C-0.550216226,11.4610236 5.15202466,12.6219463 7.67801733,12.5972458 C9.12858738,12.5972458 10.6541869,12.5231444 12.0797471,12.3996419 L12.6549732,9.23798026 Z M47.9938608,3.5568694 L48.2939787,1.7784347 L52.8457675,0.790415423 L52.3705807,3.5568694 L54.5964555,3.5568694 L54.1712884,5.3353041 L52.0204431,5.3353041 L50.7199321,12.3996419 C50.7199321,12.3996419 46.3432121,12.3749415 46.3182023,12.3996419 L47.6187133,5.36000459 L45.9680647,5.36000459 L46.2931924,3.58156989 L47.9938608,3.58156989 L47.9938608,3.5568694 Z M70.1525688,12.3996419 L65.7008193,12.3996419 L67.926694,0.148202892 L72.2533943,0.271705302 L70.1525688,12.3996419 Z M33.9133274,5.68111085 C33.3381013,5.68111085 32.8379047,5.85401423 32.362718,6.19982097 C31.9125411,6.54562772 31.6124231,7.03963736 31.5123838,7.70655037 C31.3873347,8.47226531 31.4623642,9.01567592 31.7624821,9.36148267 C32.0626001,9.70728941 32.512777,9.88019279 33.1130128,9.88019279 C33.5131701,9.88019279 33.9133274,9.80609134 34.2134453,9.65788845 C34.5885927,9.46028459 34.838691,9.26268074 35.0637795,8.94157447 C35.3138777,8.59576772 35.4639367,8.22526049 35.5389662,7.78065182 C35.6640153,7.08903832 35.563976,6.5703282 35.2388483,6.22452146 C34.9137205,5.85401423 34.4885534,5.68111085 33.9133274,5.68111085 L33.9133274,5.68111085 Z M25.9852117,15.4378012 L28.1110472,3.65567133 L31.9375509,3.65567133 L31.637433,5.16240073 C31.9625607,4.71779206 32.4877671,4.34728483 33.238062,4.05087904 C33.963347,3.75447326 34.8136812,3.53216892 35.714035,3.53216892 C36.7144281,3.53216892 37.314664,3.58156989 38.0649589,3.9767776 C38.8152537,4.37198531 39.3154503,4.91539591 39.6155682,5.65641037 C39.8906764,6.37272435 39.9657058,7.16313977 39.8156469,8.05235712 C39.5655486,9.50968556 38.8402636,10.6459077 37.6648016,11.4857241 C36.4893397,12.3255405 35.4389269,12.5478448 33.963347,12.5478448 C33.4381406,12.5478448 32.9879637,12.4984439 32.6128163,12.3996419 C32.2626787,12.30084 31.9625607,12.2020381 31.7374723,12.0538352 C31.5373937,11.9056323 31.3123052,11.7327289 31.0121873,11.4116227 L30.3119121,15.4378012 L25.9852117,15.4378012 L25.9852117,15.4378012 Z M104.96625,6.76793206 C104.94124,6.05161808 104.591103,5.58230892 103.840808,5.58230892 C102.06511,5.58230892 100.164363,9.0403764 99.8392351,10.4236034 C102.740375,10.4236034 105.01627,8.69456965 104.96625,6.76793206 L104.96625,6.76793206 Z M105.341397,12.1773376 L105.691535,12.3996419 C104.816191,14.1533762 103.040493,15.5613036 100.964677,15.5613036 C99.2640091,15.5613036 97.8634587,14.449782 97.7884292,12.350241 C97.66338,8.59576772 101.214776,5.08829929 104.140926,5.08829929 C105.391417,5.08829929 106.566879,5.63170989 106.616899,6.96553591 C106.716938,9.95429423 102.465267,10.8682121 99.6641663,10.9423135 C99.564127,11.2634198 99.5391172,11.5598256 99.564127,12.0538352 C99.6141467,13.2888593 100.364442,14.35098 101.940061,14.35098 C103.290591,14.3015791 104.641122,13.2394583 105.341397,12.1773376 Z" id="Shape"></path>
                                    <path d="M87.8845371,6.66913013 C88.1846551,6.61972917 88.6848516,6.5703282 88.8849303,6.5703282 C89.210058,6.5703282 89.510176,6.61972917 89.510176,6.94083543 C89.510176,7.13843929 89.1850482,8.47226531 89.1100187,8.7686711 L88.4347533,11.7327289 C88.1596452,12.9430526 87.8595273,14.2027771 87.609429,15.2154969 L89.360117,15.2154969 L90.3355003,10.5471058 C93.3366797,7.48424604 94.4871318,6.47152628 95.187407,6.47152628 C95.5125348,6.47152628 95.7126134,6.64442965 95.7376232,7.01493688 C95.7626331,7.55834748 95.4124955,8.79337158 95.2874463,9.13917833 L94.2870532,12.5478448 C94.0619647,13.3135598 93.8868959,14.0051733 93.9119058,14.4991829 C93.9369156,15.2401974 94.4121023,15.5860041 95.0873677,15.5860041 C96.362869,15.5860041 97.2882326,14.2768786 98.0885471,12.9924535 L97.8634587,12.5725453 C97.5383309,13.0912554 96.788036,14.2274776 96.1878002,14.2274776 C95.9877215,14.2274776 95.8126527,14.1039752 95.8126527,13.7828689 C95.7876429,13.3876612 95.9627117,12.7948497 96.0877608,12.3996419 L97.1881933,8.39816387 C97.4883112,7.28664218 97.6383702,6.59502868 97.6133604,6.19982097 C97.5883506,5.45880651 97.1381736,5.11299977 96.4629083,5.11299977 C95.3124562,5.11299977 93.7868566,5.92811567 90.5605888,9.60848748 L90.5105691,9.60848748 L90.9107264,7.83005278 C91.1358148,6.8420335 91.3358934,5.82931374 91.5609819,5.13770025 C90.4355396,5.53290796 88.8599204,5.97751664 87.8595273,6.17512049 L87.8845371,6.66913013 L87.8845371,6.66913013 Z" id="Shape"></path>
                                </g>
                            </g>
                            <g id="Group-5" transform="translate(128.000000, 24.533333)" fill="#1E1689" stroke="#1E1689" stroke-width="2">
                                <polygon id="Close" points="0.546133333 0 6.2464 5.70026667 11.9466667 0 12.4928 0.546133333 6.79253333 6.2464 12.4928 11.9466667 11.9466667 12.4928 6.2464 6.79253333 0.546133333 12.4928 0 11.9466667 5.70026667 6.2464 0 0.546133333"></polygon>
                            </g>
                        </g>
                    </g>
                </g>
            </g>
        </g>
    </g>
</svg>