<?xml version="1.0" encoding="UTF-8"?>
<svg width="1111px" height="75px" viewBox="0 0 1111 75" version="1.1" xmlns="http://www.w3.org/2000/svg" xmlns:xlink="http://www.w3.org/1999/xlink">
    <!-- Generator: Sketch 63.1 (92452) - https://sketch.com -->
    <title>Group 2</title>
    <desc>Created with Sketch.</desc>
    <g id="V3" stroke="none" stroke-width="1" fill="none" fill-rule="evenodd">
        <g id="Thank-You-Copy-4" transform="translate(-167.000000, -117.000000)">
            <g id="Group-2" transform="translate(167.000000, 117.000000)">
                <g id="Group-2-Copy-8" transform="translate(949.000000, 23.000000)">
                    <text id="Back-to-Top" font-family="CircularStd-Book, Circular Std" font-size="24" font-weight="300" fill="#4A4A4A">
                        <tspan x="0.904" y="24">Back to Top</tspan>
                    </text>
                    <path d="M147.175685,12.0267286 L153.942315,18.6377807 C153.997902,18.6920888 154.016548,18.8112163 153.983963,18.9038595 C153.951378,18.9965027 153.879901,19.0275794 153.824315,18.9732714 L147.057685,12.3622193 C147.002098,12.3079112 146.983452,12.1887837 147.016037,12.0961405 C147.048622,12.0034973 147.120099,11.9724206 147.175685,12.0267286 Z M160.824315,12.0267286 C160.879901,11.9724206 160.951378,12.0034973 160.983963,12.0961405 C161.016548,12.1887837 160.997902,12.3079112 160.942315,12.3622193 L160.942315,12.3622193 L154.175685,18.9732714 C154.120099,19.0275794 154.048622,18.9965027 154.016037,18.9038595 C153.983452,18.8112163 154.002098,18.6920888 154.057685,18.6377807 L154.057685,18.6377807 Z" id="Combined-Shape" stroke="#111111" stroke-width="2" fill="#111111" fill-rule="nonzero" transform="translate(154.000000, 15.500000) scale(1, -1) translate(-154.000000, -15.500000) "></path>
                </g>
                <path d="M32.5628813,58.2236842 L36.8437209,69.9882815 L40.8919062,58.2236842 L43.9396779,58.2236842 L48.8486842,75 L45.6380545,75 L42.2180359,62.8118772 L38.1233197,75 L35.6339184,75 L31.3530788,63.0236399 L28.4216343,75 L25.1644737,75 L29.4918442,58.2236842 L32.5628813,58.2236842 Z M17.4084525,46.8179837 L19.5706582,48.9896313 L14.3944688,60.2427145 L25.4348221,54.8794029 L27.5806474,57.0345987 L19.3577137,72.2361321 L17.0972259,69.9657732 L23.1743343,59.0252757 L11.8063741,64.6518173 L10.0536771,62.8914665 L15.3772896,51.4903165 L4.97576979,57.791385 L2.68252133,55.4881223 L17.4084525,46.8179837 Z M57.5915475,46.8179837 L72.3174787,55.4881223 L70.0242302,57.791385 L59.6227104,51.4903165 L64.9463229,62.8914665 L63.1936259,64.6518173 L51.8256657,59.0252757 L57.9027741,69.9657732 L55.6422863,72.2361321 L47.4193526,57.0345987 L49.5651779,54.8794029 L60.6055312,60.2427145 L55.4293418,48.9896313 L57.5915475,46.8179837 Z M1.45023963e-15,26.1513158 L16.7763158,31.0603221 L16.7763158,34.1080938 L5.01171846,38.1562791 L16.7763158,42.4371187 L16.7763158,45.5081558 L0,49.8355263 L1.99443564e-16,46.5783657 L11.9763601,43.6469212 L6.41068599e-16,39.3660816 L7.93500466e-16,36.8766803 L12.1881228,32.7819641 L1.25364526e-15,29.3619455 L1.45023963e-15,26.1513158 Z M75,26.1513158 L75,29.3619455 L62.8118772,32.7819641 L75,36.8766803 L75,39.3660816 L63.0236399,43.6469212 L75,46.5783657 L75,49.8355263 L58.2236842,45.5081558 L58.2236842,42.4371187 L69.9882815,38.1562791 L58.2236842,34.1080938 L58.2236842,31.0603221 L75,26.1513158 Z M19.3577137,2.52469873 L27.5806474,17.7262322 L25.4348221,19.8814279 L14.3944688,14.5181163 L19.5706582,25.7711995 L17.4084525,27.9428472 L2.68252133,19.2727085 L4.97576979,16.9694459 L15.3772896,23.2705144 L10.0536771,11.8693643 L11.8063741,10.1090136 L23.1743343,15.7355552 L17.0972259,4.79505762 L19.3577137,2.52469873 Z M55.6422863,2.52469873 L57.9027741,4.79505762 L51.8256657,15.7355552 L63.1936259,10.1090136 L64.9463229,11.8693643 L59.6227104,23.2705144 L70.0242302,16.9694459 L72.3174787,19.2727085 L57.5915475,27.9428472 L55.4293418,25.7711995 L60.6055312,14.5181163 L49.5651779,19.8814279 L47.4193526,17.7262322 L55.6422863,2.52469873 Z M28.4216343,0 L31.3530788,11.9763601 L35.6339184,0 L38.1233197,0 L42.2180359,12.1881228 L45.6380545,0 L48.8486842,0 L43.9396779,16.7763158 L40.8919062,16.7763158 L36.8437209,5.01171846 L32.5628813,16.7763158 L29.4918442,16.7763158 L25.1644737,0 L28.4216343,0 Z" id="Combined-Shape" fill="#111111" fill-rule="nonzero"></path>
            </g>
        </g>
    </g>
</svg>