<?xml version="1.0" encoding="UTF-8"?>
<svg width="1110px" height="75px" viewBox="0 0 1110 75" version="1.1" xmlns="http://www.w3.org/2000/svg" xmlns:xlink="http://www.w3.org/1999/xlink">
    <!-- Generator: Sketch 63.1 (92452) - https://sketch.com -->
    <title>Group 6</title>
    <desc>Created with Sketch.</desc>
    <g id="V3" stroke="none" stroke-width="1" fill="none" fill-rule="evenodd">
        <g id="Other-Projects" transform="translate(-165.000000, -120.000000)">
            <g id="Group-35" transform="translate(165.000000, 120.000000)">
                <g id="Group-7">
                    <g id="Group-6">
                        <g id="Group-2" transform="translate(986.000000, 23.000000)">
                            <text id="All-Over" font-family="CircularStd-Medium, Circular Std" font-size="24" font-weight="400" fill="#A8849B">
                                <tspan x="0.384" y="24">All Over</tspan>
                            </text>
                            <path d="M117,26 C118.73,23.69 124,15.6 124,11 C124,6.02943725 119.970563,2 115,2 C110.029437,2 106,6.02943725 106,11 C106,15.6 111.27,23.69 113,26 C114,27.3333333 114.666667,28 115,28 C115.333333,28 116,27.3333333 117,26 Z M111,11 C111,8.790861 112.790861,7 115,7 C117.209139,7 119,8.790861 119,11 C119,13.209139 117.209139,15 115,15 C112.790861,15 111,13.209139 111,11 Z" id="Shape" fill="#A9859C" fill-rule="nonzero"></path>
                        </g>
                        <path d="M32.997053,58.5 L37.3349705,70.0708275 L41.4371316,58.5 L44.5255403,58.5 L49.5,75 L46.2465619,75 L42.780943,63.0126227 L38.6316306,75 L36.1090373,75 L31.7711198,63.2208976 L28.8005894,75 L25.5,75 L29.8850688,58.5 L32.997053,58.5 Z M17.1405652,46.9422235 L19.3316003,49.1428264 L14.0863951,60.5459507 L25.2739531,55.1111283 L27.4483894,57.29506 L19.1158165,72.6992805 L16.8251889,70.3986502 L22.9833254,59.3122794 L11.4637924,65.0138415 L9.68772611,63.2300194 L15.0823201,51.676854 L4.54211339,58.0619368 L2.21828828,55.727964 L17.1405652,46.9422235 Z M57.8594348,46.9422235 L72.7817117,55.727964 L70.4578866,58.0619368 L59.9176799,51.676854 L65.3122739,63.2300194 L63.5362076,65.0138415 L52.0166746,59.3122794 L58.1748111,70.3986502 L55.8841835,72.6992805 L47.5516106,57.29506 L49.7260469,55.1111283 L60.9136049,60.5459507 L55.6683997,49.1428264 L57.8594348,46.9422235 Z M3.245933e-15,25.5 L16.5,30.4744597 L16.5,33.5628684 L4.92917251,37.6650295 L16.5,42.002947 L16.5,45.1149312 L1.77635684e-15,49.5 L1.97845965e-15,46.1994106 L11.7791024,43.2288802 L2.42597302e-15,38.8909627 L2.58043731e-15,36.3683694 L11.9873773,32.219057 L3.04671737e-15,28.7534381 L3.245933e-15,25.5 Z M75,25.5 L75,28.7534381 L63.0126227,32.219057 L75,36.3683694 L75,38.8909627 L63.2208976,43.2288802 L75,46.1994106 L75,49.5 L58.5,45.1149312 L58.5,42.002947 L70.0708275,37.6650295 L58.5,33.5628684 L58.5,30.4744597 L75,25.5 Z M19.1158165,2.05836138 L27.4483894,17.4625819 L25.2739531,19.6465136 L14.0863951,14.2116912 L19.3316003,25.6148155 L17.1405652,27.8154185 L2.21828828,19.029678 L4.54211339,16.6957051 L15.0823201,23.0807879 L9.68772611,11.5276225 L11.4637924,9.74380042 L22.9833254,15.4453626 L16.8251889,4.35899172 L19.1158165,2.05836138 Z M55.8841835,2.05836138 L58.1748111,4.35899172 L52.0166746,15.4453626 L63.5362076,9.74380042 L65.3122739,11.5276225 L59.9176799,23.0807879 L70.4578866,16.6957051 L72.7817117,19.029678 L57.8594348,27.8154185 L55.6683997,25.6148155 L60.9136049,14.2116912 L49.7260469,19.6465136 L47.5516106,17.4625819 L55.8841835,2.05836138 Z M28.8005894,0 L31.7711198,11.7791024 L36.1090373,0 L38.6316306,0 L42.780943,11.9873773 L46.2465619,0 L49.5,0 L44.5255403,16.5 L41.4371316,16.5 L37.3349705,4.92917251 L32.997053,16.5 L29.8850688,16.5 L25.5,0 L28.8005894,0 Z" id="Combined-Shape" fill="#A9859C" fill-rule="nonzero"></path>
                    </g>
                </g>
            </g>
        </g>
    </g>
</svg>