<?xml version="1.0" encoding="UTF-8"?>
<svg width="1110px" height="50px" viewBox="0 0 1110 50" version="1.1" xmlns="http://www.w3.org/2000/svg" xmlns:xlink="http://www.w3.org/1999/xlink">
    <!-- Generator: Sketch 63.1 (92452) - https://sketch.com -->
    <title>Group 8</title>
    <desc>Created with Sketch.</desc>
    <g id="V3" stroke="none" stroke-width="1" fill="none" fill-rule="evenodd">
        <g id="Zodiac-Copy" transform="translate(-165.000000, -107.000000)" fill="#111111">
            <g id="Group-22" transform="translate(165.000000, 106.000000)">
                <g id="Group-8">
                    <g id="Group-2" transform="translate(923.000000, 11.000000)">
                        <text id="New-York,-NY" font-family="CircularStd-Medium, Circular Std" font-size="24" font-weight="400">
                            <tspan x="0.216" y="24">New York, NY</tspan>
                        </text>
                        <path d="M180,26 C181.73,23.69 187,15.6 187,11 C187,6.02943725 182.970563,2 178,2 C173.029437,2 169,6.02943725 169,11 C169,15.6 174.27,23.69 176,26 C177,27.3333333 177.666667,28 178,28 C178.333333,28 179,27.3333333 180,26 Z M174,11 C174,8.790861 175.790861,7 178,7 C180.209139,7 182,8.790861 182,11 C182,13.209139 180.209139,15 178,15 C175.790861,15 174,13.209139 174,11 Z" id="Shape" fill-rule="nonzero"></path>
                    </g>
                    <g id="gsx">
                        <g id="Group-6">
                            <path d="M7.30787074,38.0743568 C5.33389416,38.0010128 3.71888388,37.4958237 2.45607969,36.5575253 C2.21507878,36.3782749 1.64080032,35.8408397 1.4481348,35.6141686 C0.936050123,35.0119251 0.587900145,34.4258047 0.35568749,33.7755082 C-0.358864989,31.7737205 0.00888955095,29.1469274 1.40757364,26.2640622 C2.60514196,23.7959705 4.45304092,21.3481116 7.67697732,17.9578445 C8.15188093,17.4589783 9.56611346,16 9.57523972,16 C9.57861982,16 9.50155361,16.1248746 9.40454483,16.2769372 C8.5662808,17.5901757 7.84902425,19.1370404 7.45828505,20.4762022 C6.83060106,22.6249942 6.90631523,24.4690289 7.6800194,25.8989225 C8.2137367,26.8840094 9.12872892,27.7372667 10.1576304,28.208945 C11.958884,29.0343821 14.5960356,29.102668 17.8165919,28.4087444 C18.0383263,28.3606914 29.0256692,25.632734 42.2330597,22.3464764 C55.4404502,19.0599026 66.24831,16.3730432 66.25,16.3752562 C66.2537181,16.3781014 35.5654806,28.6600744 19.634746,35.0318418 C17.1118417,36.0406391 16.4371744,36.2954466 15.2510984,36.684929 C12.2191515,37.6807647 9.50324366,38.1559205 7.30787074,38.0743568 Z" id="Path-Copy"></path>
                            <g id="Group-5" transform="translate(82.916667, 0.083333)">
                                <polygon id="Close" stroke="#111111" points="0.426666667 23 4.88 27.4533333 9.33333333 23 9.76 23.4266667 5.30666667 27.88 9.76 32.3333333 9.33333333 32.76 4.88 28.3066667 0.426666667 32.76 0 32.3333333 4.45333333 27.88 0 23.4266667"></polygon>
                                <path d="M40.6305238,39.9166667 C40.014739,40.8961258 38.274672,44.1749607 40.5528715,45.8154871 C41.4332995,46.4354085 42.9695701,46.5028768 44.8790328,46.0240925 L44.9370093,46.0094167 L68.0833333,40.0109813 L44.6593493,49.7090026 C42.1330093,50.7545834 38.1813351,51.9554133 36.5322158,49.3531705 C35.6083267,47.911686 36.1907768,45.6691095 37.5477077,43.6213648 C38.4123652,42.3184767 39.5206159,41.1109933 40.6305238,39.9166667 Z M56.7076703,20.5445815 L56.7861483,20.622534 L56.7861483,21.2202331 L56.7076703,21.2981856 L55.7920686,21.3501413 C55.0071741,21.402097 54.7717785,21.5320051 54.6148608,21.713983 C54.5362681,21.7919735 54.4577519,21.9738373 54.4055608,22.4675111 C54.3549846,22.9442351 54.2312852,25.1167262 54.2228143,28.1428536 L54.2223562,30.6791285 C54.2223562,33.3816972 54.1439548,34.4210765 53.6468767,35.5125255 C52.7572939,37.46149 50.9260904,38.9166667 47.1065744,38.9166667 C41.4296063,38.9166667 40.3047045,36.2920885 40.3047045,33.4336528 L40.3047045,23.5070045 C40.3047045,22.2336916 40.2523986,21.9218816 40.1215,21.7399038 C40.0168882,21.5840748 39.7553205,21.402097 38.7349922,21.3501413 L37.7932184,21.2981856 L37.7147021,21.2202331 L37.7147021,20.622534 L37.7932184,20.5445815 C38.8919099,20.5705783 40.0952896,20.622534 41.324918,20.622534 C42.475992,20.622534 43.67941,20.5705783 44.778178,20.5445815 L44.8566943,20.622534 L44.8566943,21.2202331 L44.778178,21.2981856 L43.8364042,21.3501413 C42.8161141,21.402097 42.5545082,21.5840748 42.4498964,21.7399038 C42.3204204,21.9200619 42.2677481,22.2274684 42.2667076,23.4690927 L42.2666919,32.7580012 C42.2666919,35.6164368 43.4701099,37.7472652 47.4204863,37.7472652 C50.3766682,37.7472652 51.8940746,36.7338067 52.6788542,35.1486838 C53.1759706,34.1612602 53.2805824,32.9918206 53.2805824,30.8609923 L53.2805824,28.4703096 C53.2805824,25.2740671 53.1497603,22.961261 53.0974544,22.4675111 C53.045072,21.9738373 52.9666705,21.7919735 52.8881543,21.713983 C52.7312749,21.5320051 52.4957645,21.402097 51.7109849,21.3501413 L50.7952683,21.2981856 L50.7167904,21.2202331 L50.7167904,20.622534 L50.7951918,20.5445815 C51.4165583,20.5703046 52.3963983,20.621443 53.7094688,20.6225168 L53.7514884,20.622534 C55.0856521,20.622534 56.0797701,20.5705783 56.7076703,20.5445815 Z M60.3443644,26.3654781 C61.4692662,26.3654781 62.9343668,26.5993356 63.8499303,27.0670506 L63.9284465,27.1450411 C63.7453568,27.794658 63.7453568,28.106468 63.6668405,29.7436225 L63.5883626,29.821575 L63.1174565,29.821575 L63.0390551,29.7436225 L62.8819461,28.4442748 C62.8559653,28.2363761 61.9663443,27.1450411 60.1351408,27.1450411 C58.8531683,27.1450411 57.4928708,27.8986453 57.4928708,29.4577333 C57.4928708,30.6790905 58.2515549,31.1987991 59.8211525,31.5106852 L61.5739545,31.848416 C63.2221448,32.16034 64.5563467,32.472112 64.5563467,34.65501 C64.5563467,36.7078478 62.9081564,38.8386762 59.0624684,38.8386762 C57.8067444,38.8386762 56.8388751,38.5788218 55.9754644,38.2670498 L55.897063,38.1890593 C55.9492541,37.5913982 56.0539806,36.4999492 56.0801527,35.278592 L56.1586689,35.2007155 L56.6817661,35.2007155 L56.7603588,35.278592 L56.8126647,36.5779397 C57.2312649,37.1756008 58.2776505,38.0591512 59.8996687,38.0591512 C61.0769529,38.0591512 62.8559653,37.4354552 62.8559653,35.434535 C62.8559653,33.8494502 61.8617326,33.6155167 60.1874467,33.3556623 C58.2776505,33.0697731 55.7923747,32.472112 55.7923747,30.133385 C55.7923747,27.6127941 58.3038608,26.3654781 60.3443644,26.3654781 Z M66.8586476,36.0062373 C67.6173317,36.0062373 68.2190216,36.681889 68.2190216,37.3834235 C68.2190216,38.1370657 67.5649493,38.708806 66.8586476,38.708806 C66.1784415,38.708806 65.4982353,38.1370657 65.4982353,37.3834235 C65.4982353,36.681889 66.1261356,36.0062373 66.8586476,36.0062373 Z M38.9577992,0.916666667 L39.036392,0.994657173 L39.036392,1.59231834 L38.9577992,1.67027084 L38.0159871,1.7222265 C36.9956971,1.77429619 36.7340911,1.95616001 36.6295176,2.111989 C36.5076221,2.28154953 36.4538934,2.56382845 36.4471285,3.63160125 L36.4463896,15.4688514 C36.4463896,17.2878697 36.3154909,18.9769799 35.6614951,20.6400552 C35.0074994,22.3031686 33.5687239,23.8882534 31.6327173,23.8882534 C31.4496276,23.8882534 31.2664231,23.8622565 31.0833333,23.8362977 C31.1095054,23.5764814 31.1618113,23.2645574 31.1618113,22.9008297 C31.1618113,22.5110292 31.1095054,22.0433142 31.0833333,21.8093807 L31.2925951,21.7054694 C31.6589277,22.1471875 32.0775278,22.4070419 32.6531222,22.4070419 C33.778024,22.4070419 34.4842874,21.8093807 34.4842874,18.2233757 L34.4842874,3.87908968 C34.4842874,2.60577684 34.4320198,2.29396684 34.3011977,2.111989 C34.1965094,1.95616001 33.9349034,1.77429619 32.9146134,1.7222265 L31.9728013,1.67027084 L31.8943998,1.59231834 L31.8943998,0.994657173 L31.9728013,0.916666667 C33.0716076,0.942701509 34.2750256,0.994657173 35.4784054,0.994657173 C36.6556897,0.994657173 37.8591077,0.942701509 38.9577992,0.916666667 Z M44.9983066,6.73756335 C48.3991842,6.73756335 50.8583644,8.86839169 50.8583644,12.8443112 C50.8583644,16.5862592 48.0066796,19.2107614 44.8151021,19.2107614 C40.236902,19.2107614 38.8503942,15.4168577 38.8503942,13.0522099 C38.8503942,9.36217953 41.3880142,6.73756335 44.9983066,6.73756335 Z M54.4815516,6.73748734 L54.717062,6.89346835 C54.6692431,7.34507848 54.6432231,8.36188178 54.6391263,9.70541402 L54.6385841,16.4929138 C54.6390432,17.3600071 54.647729,17.7920335 54.8217503,17.9894422 C54.978668,18.171382 55.2926564,18.2752934 55.9466522,18.327249 L56.6529538,18.3793187 L56.7314701,18.4571572 L56.7314701,18.8989894 L56.6529538,18.9769799 C55.6588741,18.950945 54.6647561,18.8989894 53.8014603,18.8989894 C52.9118775,18.8989894 51.9178744,18.950945 50.9236798,18.9769799 L50.8451636,18.8989894 L50.8451636,18.4571572 L50.9236798,18.3793187 L51.630058,18.327249 C52.2840921,18.2752934 52.5980805,18.171382 52.7549599,17.9894422 C52.9206104,17.8014651 52.9364174,17.4007527 52.9379293,16.6142213 L52.9380879,10.0393515 C52.9380114,9.31299838 52.9345294,8.81229325 52.7811702,8.63453419 C52.6503864,8.47855318 52.4933539,8.40067669 52.1271744,8.37467986 L50.9236798,8.32272419 L50.8451636,8.24473369 L50.8451636,7.80301553 L50.9236798,7.72506303 C51.7607654,7.64707252 53.4612615,7.15328468 54.4815516,6.73748734 Z M65.0662813,6.73756335 C68.336375,6.73756335 69.0950591,9.15424286 69.0950591,11.0511757 L69.0950591,16.8980312 C69.0950591,18.0414359 69.2781489,18.2232997 70.429261,18.327287 L71.0048554,18.3792427 L71.0833333,18.4572332 L71.0833333,18.8989514 L71.0048554,18.9769039 C70.4554331,18.950907 69.8014373,18.8989514 69.1734605,18.8989514 C68.5456751,18.8989514 67.7869528,18.950907 67.4207733,18.9769039 L67.2637408,18.8209609 C67.3945629,17.080009 67.3945629,15.1830002 67.3945629,12.7402859 C67.3945629,10.1936602 67.2376453,8.14078435 64.0982589,8.14078435 C62.3977627,8.14078435 61.142077,9.57004019 61.0374652,9.80385968 C60.9338238,10.0354539 60.8558337,10.7508978 60.8542842,12.5301751 L60.8542607,14.1954625 C60.8542607,16.6642117 60.9065666,17.4697715 61.0374652,17.8335372 C61.142077,18.1454232 61.403683,18.2493345 62.3716671,18.327287 L62.9994526,18.3792427 L63.0779688,18.4572332 L63.0779688,18.8989514 L62.9994526,18.9769039 C62.0838508,18.950907 61.1158667,18.8989514 60.121787,18.8989514 C59.1275925,18.8989514 58.1335893,18.950907 57.2439683,18.9769039 L57.1655668,18.8989514 L57.1655668,18.4572332 L57.2439683,18.3792427 L57.845773,18.327287 C58.4997687,18.2753694 58.8137954,18.171344 58.9706748,17.9894802 C59.1312392,17.8071515 59.1509912,17.4250415 59.1534411,16.6853419 L59.1537645,9.96497165 C59.1532671,9.27879202 59.144964,8.80621212 58.9968851,8.6345722 C58.866063,8.47859118 58.7090688,8.40063869 58.3428893,8.37460384 L57.2439683,8.32264818 L57.1655668,8.24469568 L57.1655668,7.80297752 L57.2439683,7.72498701 C57.9765951,7.64703452 59.6769765,7.15336069 60.6973813,6.73756335 L60.8542607,6.89350636 L60.8542607,9.02433469 C61.4298933,8.60853735 62.6594835,7.54312319 63.0256629,7.12732585 L63.0555083,7.11489754 C63.5427527,6.91220584 64.0407109,6.73756335 65.0662813,6.73756335 Z M44.68428,7.51712635 C42.3820939,7.51712635 40.8124964,9.12824602 40.8124964,12.3505234 C40.8124964,15.988598 42.2774821,18.4312364 44.8151021,18.4312364 C46.9865043,18.4312364 48.8962623,17.2098412 48.8962623,13.0781307 C48.8962623,10.2456159 47.7451884,7.51712635 44.68428,7.51712635 Z M53.7752882,1.28050834 C54.4815516,1.28050834 55.0571842,1.85213466 55.0571842,2.55382118 C55.0571842,3.25539367 54.4815516,3.82713401 53.7752882,3.82713401 C53.0689865,3.82713401 52.4933539,3.25539367 52.4933539,2.55382118 C52.4933539,1.85213466 53.0689865,1.28050834 53.7752882,1.28050834 Z" id="Combined-Shape"></path>
                            </g>
                        </g>
                    </g>
                </g>
            </g>
        </g>
    </g>
</svg>