<?xml version="1.0" encoding="UTF-8"?>
<svg width="1110px" height="63px" viewBox="0 0 1110 63" version="1.1" xmlns="http://www.w3.org/2000/svg" xmlns:xlink="http://www.w3.org/1999/xlink">
    <!-- Generator: Sketch 63.1 (92452) - https://sketch.com -->
    <title>Group 9</title>
    <desc>Created with Sketch.</desc>
    <defs>
        <ellipse id="path-1" cx="21.5693955" cy="21.7244913" rx="21.5693955" ry="21.7244913"></ellipse>
    </defs>
    <g id="V3" stroke="none" stroke-width="1" fill="none" fill-rule="evenodd">
        <g id="Simon-Annuities" transform="translate(-165.000000, -120.000000)">
            <g id="Group-34" transform="translate(165.000000, 120.000000)">
                <g id="Group-11">
                    <g id="Group-9">
                        <g id="Group-2" transform="translate(923.000000, 17.000000)" fill="#FFFFFF">
                            <text id="New-York,-NY" font-family="CircularStd-Medium, Circular Std" font-size="24" font-weight="400">
                                <tspan x="0.216" y="24">New York, NY</tspan>
                            </text>
                            <path d="M180,26 C181.73,23.69 187,15.6 187,11 C187,6.02943725 182.970563,2 178,2 C173.029437,2 169,6.02943725 169,11 C169,15.6 174.27,23.69 176,26 C177,27.3333333 177.666667,28 178,28 C178.333333,28 179,27.3333333 180,26 Z M174,11 C174,8.790861 175.790861,7 178,7 C180.209139,7 182,8.790861 182,11 C182,13.209139 180.209139,15 178,15 C175.790861,15 174,13.209139 174,11 Z" id="Shape" fill-rule="nonzero"></path>
                        </g>
                        <g id="Group-8">
                            <path d="M49.2968331,7.42028986 L49.2968331,56.7171229 L49.2968331,56.7171229 L6.88711568e-13,56.7171229 L6.88711568e-13,56.7171229 L6.88711568e-13,7.42028986 L6.88711568e-13,7.42028986 L49.2968331,7.42028986 L49.2968331,7.42028986 Z M13.3279758,21.2695335 C11.9674001,21.2695335 10.9953995,21.9805949 11.04391,22.7868402 C11.0926804,23.3085482 11.4815442,23.4981552 11.8216087,23.5454936 C12.3074935,23.5454936 12.8421199,23.3085482 12.7933495,22.6919099 C12.7448389,22.2653858 12.4047744,22.2653858 12.4532561,21.9332566 C12.4532561,21.6963394 12.7933495,21.6014091 12.9879113,21.6014091 C13.4735074,21.5540708 13.7165508,21.7436496 13.7165508,22.2177939 L13.7165508,22.2177939 L13.7165508,23.2609563 C13.7165508,23.5930855 13.6195587,23.6404239 12.6478468,24.0672016 C11.6758461,24.4940075 10.7523271,24.7785166 10.7523271,26.1535547 C10.7523271,27.6232412 11.7243278,27.8604402 12.3559752,27.8604402 C13.0851922,27.8604402 13.6195587,27.5285927 13.8138606,27.0544766 L13.8138606,27.0544766 L13.8138606,27.7657916 L15.3687094,27.7657916 L15.3687094,23.0237574 C15.3687094,22.1704555 15.1259258,21.8385799 14.6885804,21.5540708 C14.3481982,21.3644638 13.9596232,21.2695335 13.3279758,21.2695335 Z M23.4349116,20.0367641 L21.782753,20.0367641 L21.782753,24.3990772 L21.7780138,24.5777463 C21.6963813,26.1215325 20.5735438,27.52683 19.4504654,27.4810008 C18.6242273,27.4810008 18.4299542,26.8646161 18.3329621,26.200893 C18.1871706,25.2523791 18.1871706,24.1618783 18.2841628,22.976419 C18.3814437,22.2177939 18.5757457,21.6014091 19.1588825,21.6014091 C19.5962568,21.6014091 19.6447385,21.8859182 19.4504654,22.0755252 C19.2558747,22.3127241 18.9646094,22.5496413 19.110372,23.0713493 C19.2558747,23.6404239 20.179105,23.7350724 20.6167391,23.3085482 C20.9568325,22.9291089 20.908322,22.3127241 20.6652497,21.9332566 C20.3736668,21.4591405 19.8878108,21.2695335 19.1588825,21.2695335 C18.2356523,21.2695335 16.4865015,22.0755252 16.4865015,24.6362761 C16.4865015,27.3863241 18.2841628,27.8604402 19.304674,27.8604402 C20.4709477,27.8604402 21.491199,26.8646161 21.782753,26.0586244 L21.782753,26.0586244 L21.782753,27.7657916 L23.4349116,27.7657916 L23.4349116,22.976419 L23.4395658,22.8072354 C23.4615053,22.4319149 23.5625404,22.188144 23.7749761,21.9805949 C23.9695668,21.8385799 24.2123504,21.7909879 24.3581418,21.8385799 C24.7170664,21.9259738 24.744676,22.3366769 24.7467998,22.8469153 L24.7467998,22.8469153 L24.7469768,27.7657916 L26.4475303,27.7657916 L26.4475303,23.1663078 L26.4430494,22.9893771 C26.3805717,21.7797864 25.6701256,21.1789182 24.6496958,21.2695335 C24.1153294,21.3168719 23.6779839,21.5540708 23.4349116,21.8859182 L23.4349116,21.8859182 L23.4349116,20.0367641 Z M9.44055067,11.0273752 L7.20522635,11.0273752 C4.82442822,11.0273752 3.60964396,13.2086586 3.60964396,15.2473915 C3.56113344,17.2867162 4.19278083,19.1831805 6.33079536,19.4203794 C5.31057293,19.7046349 4.38708279,20.4159499 4.33857227,21.5540708 C4.33857227,22.8814887 5.01901893,23.2609563 6.4765868,24.0672016 C7.49709798,24.588656 8.22573753,24.9678418 8.27424805,26.011286 C8.27424805,26.8172777 7.83716249,27.3863241 6.91396111,27.3863241 C6.18500392,27.3863241 5.1160111,26.9595463 4.67863679,24.4940075 L4.67863679,24.4940075 L4.33857227,24.4940075 L4.33857227,27.7657916 L6.91396111,27.7657916 C8.51732041,27.7657916 9.92640662,26.7699394 9.92640662,25.1577024 C9.92640662,23.4981552 8.61460132,23.0237574 7.59409014,22.454711 C6.52509732,21.8859182 5.94193157,21.6490011 5.94193157,20.7004872 C5.94193157,19.9894258 6.52509732,19.5150561 7.30253614,19.562648 C8.03146445,19.562648 8.46880989,20.0367641 8.71188224,20.4632882 C8.95466584,20.890066 9.05197563,21.2695335 9.19747832,21.7909879 L9.19747832,21.7909879 L9.53783159,21.7909879 L9.53783159,15.0104743 L6.81665131,15.0104743 L6.81665131,15.34235 C6.96244275,15.3896601 7.25402562,15.3896601 7.4482987,15.4845904 C7.69137106,15.6268591 7.83716249,15.9113963 7.83716249,16.3855124 L7.83716249,16.3855124 L7.83716249,17.6659019 C7.83716249,18.0450877 7.78868085,18.6141341 7.5456085,18.8986714 C7.39981706,19.0882502 7.15674471,19.1831805 6.81665131,19.1831805 C6.18500392,19.1831805 5.94193157,18.6614724 5.8449394,18.3295968 C5.69914797,17.6182818 5.65037757,16.6227113 5.65037757,15.2950116 C5.65037757,13.8723816 5.79642888,12.6869224 6.08772301,12.1181578 C6.37959463,11.6437599 6.7193704,11.3118843 7.30253614,11.3592226 C8.17725589,11.406561 8.80890328,12.4024133 9.10045728,13.730113 L9.10045728,13.730113 L9.44055067,13.730113 L9.44055067,11.0273752 Z M31.5495001,21.2695335 L29.8490331,21.2695335 C28.5372278,21.2695335 27.7108165,21.9805949 27.7108165,23.1186877 C27.7108165,23.9722713 28.342897,24.3514571 29.3630617,24.9678418 C30.2862053,25.489578 30.674867,25.8690456 30.674867,26.4854303 C30.674867,27.101815 30.2376948,27.4336624 29.6547023,27.4336624 C28.7315587,27.3863241 28.342897,26.6276707 28.0997669,25.3946477 L28.0997669,25.3946477 L27.759327,25.3946477 L27.759327,27.7657916 L29.7032128,27.7657916 C30.7236662,27.7657916 31.9384505,27.101815 31.9384505,25.7267769 C31.9384505,24.4463874 31.0638174,24.1618783 29.9463429,23.5454936 C29.071421,23.0713493 28.9256007,22.6919099 28.9741112,22.2653858 C29.0229105,21.8385799 29.4603715,21.5540708 29.9463429,21.6014091 C30.7236662,21.6490011 31.0153069,22.2653858 31.2096377,22.976419 L31.2096377,22.976419 L31.5495001,22.976419 L31.5495001,21.2695335 Z M13.7165508,23.924933 L13.7165508,25.8690456 C13.7165508,26.5803606 13.5222778,27.1491251 13.133414,27.2913938 C12.8421199,27.4336624 12.5017666,27.3390139 12.5017666,26.7699394 C12.4532561,26.2482313 12.4532561,25.8690456 12.5017666,25.489578 C12.5505659,25.0154619 12.6478468,24.588656 13.1822133,24.2568086 C13.1822133,24.2568086 13.7165508,23.924933 13.7165508,23.924933 L13.7165508,23.924933 Z M13.133414,12.3550749 C12.5505659,12.3550749 12.1131915,12.5922738 11.6758461,12.9241213 C10.9953995,13.4931958 10.5583139,14.5363583 10.5583139,15.6741974 C10.5583139,16.8596285 10.9953995,17.855199 11.6758461,18.4245271 C12.1131915,18.7564027 12.5505659,18.9933199 13.133414,18.9933199 C13.7165508,18.9933199 14.2026956,18.7564027 14.5912706,18.4245271 C15.3202278,17.855199 15.7088028,16.8596285 15.7088028,15.6741974 C15.7088028,14.5363583 15.3202278,13.4931958 14.5912706,12.9241213 C14.2026956,12.5922738 13.7165508,12.3550749 13.133414,12.3550749 Z M37.3805887,12.3550749 C36.0199841,12.3550749 35.04833,13.0661081 35.0968405,13.9199736 C35.145351,14.441428 35.5340127,14.6310068 35.8744526,14.6310068 C36.3601353,14.6783451 36.8946173,14.441428 36.8461067,13.7777049 C36.7973075,13.3509272 36.4571563,13.3509272 36.5059556,13.0661081 C36.5059556,12.829191 36.8461067,12.7342607 37.0404376,12.6869224 C37.5266978,12.6869224 37.7692504,12.8768111 37.7692504,13.3033071 L37.7692504,13.3033071 L37.7692504,14.3464977 C37.7692504,14.7256835 37.6722293,14.7735572 36.7490857,15.152743 C35.7286323,15.5795489 34.8051999,15.8637762 34.8051999,17.239096 C34.8051999,18.7090644 35.8256533,18.9933199 36.4086458,18.9933199 C37.1377474,18.9933199 37.6722293,18.6614724 37.8665602,18.140018 L37.8665602,18.140018 L37.8665602,18.8510512 L39.4700061,18.8510512 L39.4700061,14.1568907 C39.4700061,13.3033071 39.1783655,12.9241213 38.7411933,12.6869224 C38.4010421,12.4973436 38.0123805,12.3550749 37.3805887,12.3550749 Z M24.5527037,11.1696438 L22.8517747,11.1696438 L22.8517747,12.9714596 L22.8023269,12.8748874 C22.6367409,12.5945444 22.3173043,12.4024133 21.8800339,12.4024133 C20.6652497,12.4024133 19.693249,13.6351827 19.6447385,15.5319288 C19.5962568,16.8123183 20.0336023,18.9459815 21.7342425,18.9459815 C22.4144004,18.9459815 22.8032642,18.5667958 22.9490556,18.2346665 L22.9490556,18.2346665 L22.9490556,18.8510512 L24.5527037,18.8510512 L24.5527037,11.1696438 Z M44.0355939,12.3527381 L43.891971,12.3550749 C43.2601792,12.4024133 42.7742077,12.7818526 42.5798769,13.2086586 L42.5798769,13.2086586 L42.5798769,12.4973436 L41.0249415,12.4973436 L41.0249415,18.8510512 L42.6768979,18.8510512 L42.6768979,14.0622422 C42.6768979,13.5878443 42.7742077,13.3033071 43.0170491,13.0661081 C43.2116687,12.9241213 43.45451,12.8768111 43.6003303,12.9241213 C43.988992,13.0190516 43.988992,13.4931958 43.988992,14.0622422 L43.988992,18.8510512 L45.6897477,18.8510512 L45.6897477,14.251821 C45.6897477,12.9241213 44.9609349,12.3077366 43.891971,12.3550749 Z M29.1370034,12.350028 L28.9741112,12.3550749 C28.342897,12.4024133 27.8566368,12.7818526 27.6623059,13.2086586 L27.6623059,13.2086586 L27.6623059,12.4973436 L26.1561698,12.4973436 L26.1561698,18.8510512 L27.8081263,18.8510512 L27.8081263,14.0622422 L27.8101899,13.9109459 C27.821908,13.5251983 27.8890413,13.2769516 28.1482774,13.0661081 C28.342897,12.9241213 28.5372278,12.8768111 28.6827594,12.9241213 C29.041524,13.0117492 29.0691213,13.4224944 29.0712441,13.9327379 L29.0712441,13.9327379 L29.071421,18.8510512 L30.7236662,18.8510512 L30.7236662,14.0149038 L30.72831,13.8612514 C30.7502045,13.5174497 30.8510785,13.2736572 31.0638174,13.0661081 C31.2581482,12.9241213 31.452479,12.8768111 31.5982994,12.9241213 C31.986961,13.0190516 32.0354715,13.4931958 32.0354715,14.0622422 L32.0354715,14.0622422 L32.0354715,18.8510512 L33.6877167,18.8510512 L33.6877167,14.251821 L33.6832341,14.0751755 C33.6207326,12.8694576 32.9100259,12.3098883 31.8896512,12.3550749 C31.1608384,12.4024133 30.7236662,12.8768111 30.5290467,13.2559969 C30.2862053,12.5922738 29.7517233,12.3077366 28.9741112,12.3550749 Z M18.5272351,11.1696438 L16.8265949,11.1696438 L16.8265949,18.8510512 L18.5272351,18.8510512 L18.5272351,11.1696438 Z M13.133414,12.6869224 C13.4735074,12.6869224 13.6195587,12.829191 13.7650614,13.0661081 C14.0084225,13.540506 13.9596232,14.5363583 13.9596232,15.6741974 C13.9596232,16.8596285 13.9596232,17.8081424 13.7650614,18.2822867 C13.6195587,18.5192038 13.4735074,18.6614724 13.133414,18.6614724 C12.8421199,18.6614724 12.6478468,18.5192038 12.5505659,18.2822867 C12.3248558,17.8420099 12.3087337,16.9927102 12.3075821,15.9245055 L12.3075821,15.9245055 L12.3075821,15.4326863 C12.3087337,14.3967541 12.3248558,13.5066204 12.5505659,13.0661081 C12.6478468,12.829191 12.8421199,12.6869224 13.133414,12.6869224 Z M22.0743359,12.7818526 C22.3174082,12.7818526 22.4144004,12.8768111 22.5601918,13.0190516 C22.9005451,13.4931958 22.9005451,14.6310068 22.9005451,15.5319288 C22.9005451,16.4801609 22.9490556,17.7132121 22.5601918,18.2346665 C22.4144004,18.4245271 22.2688977,18.5192038 22.0258254,18.5192038 C21.6857608,18.5192038 21.491199,18.140018 21.394178,17.5236333 C21.3523748,17.0358551 21.3464029,16.4435738 21.3455498,15.8065526 L21.3455498,15.8065526 L21.3459952,15.3169436 C21.3548769,14.0834908 21.4701514,12.7818526 22.0743359,12.7818526 Z M37.7692504,15.0578127 L37.7692504,17.0018971 C37.7692504,17.6659019 37.5752083,18.2822867 37.2347684,18.4245271 C36.9434165,18.5192038 36.6029766,18.4245271 36.5544661,17.9028191 C36.5059556,17.3340263 36.5059556,17.0018971 36.5544661,16.6227113 C36.6029766,16.1483135 36.7002864,15.7217893 37.2347684,15.3896601 C37.2347684,15.3896601 37.7692504,15.0578127 37.7692504,15.0578127 L37.7692504,15.0578127 Z" id="Combined-Shape" fill="#FFFFFF"></path>
                            <polygon id="Close" stroke="#FFFFFF" stroke-width="2" fill="#FFFFFF" points="70.9191913 26.8985507 75.3701342 31.3045539 79.8210771 26.8985507 80.2475148 27.3206828 75.7965718 31.726686 80.2475148 36.1326892 79.8210771 36.5548213 75.3701342 32.148818 70.9191913 36.5548213 70.4927536 36.1326892 74.9436965 31.726686 70.4927536 27.3206828"></polygon>
                            <g id="Group" transform="translate(91.826087, -0.000000)">
                                <rect id="Rectangle-7" fill="#2F66A5" opacity="0.122339221" x="0" y="12.5519283" width="53.6838288" height="8.68979652" rx="4.34489826"></rect>
                                <rect id="Rectangle-7" fill="#2F66A5" opacity="0.122339221" x="5.7518388" y="24.1383237" width="65.1875063" height="10.6208624" rx="5.3104312"></rect>
                                <g id="Rectangle-6-+-Line-5-+-Line-5-Mask" transform="translate(12.462317, 7.724264)">
                                    <mask id="mask-2" fill="white">
                                        <use xlink:href="#path-1"></use>
                                    </mask>
                                    <ellipse stroke="#2F66A5" stroke-width="1.6" cx="21.5693955" cy="21.7244913" rx="22.3693955" ry="22.5244913"></ellipse>
                                    <path d="M30.8351134,30.7315213 L12.3036776,30.7315213 L12.3036776,46.5111144 L30.8351134,46.5111144 L30.8351134,30.7315213 Z" id="Rectangle-6" stroke="#4A4A4A" stroke-width="1.6" fill="#FFFFFF" mask="url(#mask-2)"></path>
                                    <line x1="11.9829975" y1="32.3453537" x2="3.8345592" y2="44.4145155" id="Line-5" stroke="#4A4A4A" stroke-width="1.6" stroke-linecap="square" mask="url(#mask-2)"></line>
                                    <line x1="30.6764736" y1="31.8625872" x2="39.3042318" y2="44.4145155" id="Line-5" stroke="#4A4A4A" stroke-width="1.6" stroke-linecap="square" mask="url(#mask-2)"></line>
                                </g>
                                <g id="Group-2" transform="translate(16.296877, 0.000000)">
                                    <g id="Rectangle-6" transform="translate(26.841914, 43.448983)"></g>
                                    <g id="Group-5" transform="translate(14.379597, 36.690252)">
                                        <g id="Group-3" transform="translate(0.000000, 2.896599)"></g>
                                        <path d="M0.0117834131,21.2694421 L2.5479986,5.05355227 C2.61627183,4.61703129 3.02548839,4.3185075 3.46200938,4.38678072 C3.80555429,4.44051221 4.07504944,4.71000736 4.12878093,5.05355227 L6.71047859,21.5602451 L6.71047859,21.5602451 L4.02042732,25.9482526 C3.78950573,26.3249315 3.29694818,26.4430912 2.92026924,26.2121696 C2.81271887,26.1462363 2.72228555,26.0558029 2.65635221,25.9482526 L0.12013702,21.8111822 C0.0208336093,21.6491987 -0.0175761825,21.4571596 0.0117834131,21.2694421 Z" id="Rectangle-5" fill="#4A90E2"></path>
                                        <polygon id="Rectangle-5" fill="#4A90E2" points="0 2.89659884 6.71047859 2.89659884 4.69733502 6.75873062 2.01314358 6.75873062"></polygon>
                                    </g>
                                    <g id="face">
                                        <rect id="Rectangle-3" stroke="#4A4A4A" stroke-width="1.6" fill="#FFFFFF" x="0.8" y="0.8" width="34.8283124" height="34.2369903" rx="3.2"></rect>
                                        <path d="M9.58639799,21.7244913 C11.234125,24.852507 14.0301578,26.4165149 17.9744962,26.4165149 C23.8910039,26.4165149 26.3625945,21.7244913 26.3625945,21.7244913" id="Line-2" stroke="#4A4A4A" stroke-width="1.6" stroke-linecap="square"></path>
                                        <rect id="Rectangle-4" fill="#4A4A4A" x="11.5036776" y="8.68979652" width="2.8759194" height="7.72426357" rx="1.4379597"></rect>
                                        <rect id="Rectangle-4" fill="#4A4A4A" x="22.0487154" y="8.68979652" width="2.8759194" height="7.72426357" rx="1.4379597"></rect>
                                    </g>
                                </g>
                                <path d="M12.4623174,29.9315213 C12.4623174,34.7689532 14.0321171,39.2371023 16.6866256,42.8473896 C20.6159974,48.1915658 26.9221611,51.6560126 34.0317129,51.6560126 C41.1412647,51.6560126 47.4474283,48.1915658 51.3768001,42.8473896 C54.0313086,39.2371023 55.6011084,34.7689532 55.6011084,29.9315213 L55.6011084,29.9315213 L57.518388,29.9315213 C57.518388,35.0654608 55.8882551,39.9563357 52.917585,43.9966214 C48.5162219,49.9827335 41.570342,53.5870785 34.0317129,53.5870785 C26.4930837,53.5870785 19.5472039,49.9827335 15.1458408,43.9966214 C12.1751706,39.9563357 10.5450378,35.0654608 10.5450378,29.9315213 L10.5450378,29.9315213 Z" id="bottom-half-circle-border" fill="#2F66A5" fill-rule="nonzero"></path>
                                <g id="Group-5" transform="translate(30.676474, 36.690252)">
                                    <g id="Group-3" transform="translate(0.000000, 2.896599)"></g>
                                    <path d="M0.0117834131,21.2694421 L2.5479986,5.05355227 C2.61627183,4.61703129 3.02548839,4.3185075 3.46200938,4.38678072 C3.80555429,4.44051221 4.07504944,4.71000736 4.12878093,5.05355227 L6.71047859,21.5602451 L6.71047859,21.5602451 L4.02042732,25.9482526 C3.78950573,26.3249315 3.29694818,26.4430912 2.92026924,26.2121696 C2.81271887,26.1462363 2.72228555,26.0558029 2.65635221,25.9482526 L0.12013702,21.8111822 C0.0208336093,21.6491987 -0.0175761825,21.4571596 0.0117834131,21.2694421 Z" id="Rectangle-5" fill="#4A90E2"></path>
                                    <polygon id="Rectangle-5" fill="#4A90E2" points="0 2.89659884 6.71047859 2.89659884 4.69733502 6.75873062 2.01314358 6.75873062"></polygon>
                                </g>
                            </g>
                        </g>
                    </g>
                </g>
            </g>
        </g>
    </g>
</svg>