<?xml version="1.0" encoding="UTF-8"?>
<svg width="1098px" height="50px" viewBox="0 0 1098 50" version="1.1" xmlns="http://www.w3.org/2000/svg" xmlns:xlink="http://www.w3.org/1999/xlink">
    <!-- Generator: Sketch 64 (93537) - https://sketch.com -->
    <title>Group 8</title>
    <desc>Created with Sketch.</desc>
    <g id="V3" stroke="none" stroke-width="1" fill="none" fill-rule="evenodd">
        <g id="Spotify-Home-Copy" transform="translate(-167.000000, -127.000000)" fill="#111111">
            <g id="Group-22" transform="translate(165.000000, 127.000000)">
                <g id="Group-8" transform="translate(2.000000, 0.000000)">
                    <text id="New-York,-NY" font-family="CircularStd-Medium, Circular Std" font-size="24" font-weight="400">
                        <tspan x="911.216" y="34">New York, NY</tspan>
                    </text>
                    <path d="M1091,36 C1092.73,33.69 1098,25.6 1098,21 C1098,16.0294373 1093.97056,12 1089,12 C1084.02944,12 1080,16.0294373 1080,21 C1080,25.6 1085.27,33.69 1087,36 C1088,37.3333333 1088.66667,38 1089,38 C1089.33333,38 1090,37.3333333 1091,36 Z M1085,21 C1085,18.790861 1086.79086,17 1089,17 C1091.20914,17 1093,18.790861 1093,21 C1093,23.209139 1091.20914,25 1089,25 C1086.79086,25 1085,23.209139 1085,21 Z" id="Shape" fill-rule="nonzero"></path>
                    <g id="gsx">
                        <g id="Group-6">
                            <g id="noun_Home_2534630" transform="translate(96.733333, 3.000000)" fill-rule="nonzero" stroke="#111111">
                                <g id="Group" transform="translate(0.000000, 0.389779)">
                                    <path d="M24.9822947,0 C23.4392463,0 21.8881333,0.441090492 20.6445055,1.39871572 L0.513622191,16.8908203 C0.156698435,17.1239126 -0.0392216183,17.5375866 0.00657894015,17.9614132 C0.0523794986,18.3852397 0.33215133,18.7475083 0.730631513,18.8989684 C1.1291117,19.0504285 1.57887839,18.9654533 1.89463265,18.6790518 L22.0255159,3.18694722 C22.8088897,2.58373318 23.8808206,2.26627358 24.9822947,2.26627358 C26.0837853,2.26627358 27.1804555,2.58916657 27.9567788,3.18694722 L42.3334518,14.2350309 L42.3334518,40.7929244 L32.4007997,40.7929244 L32.4007997,26.593304 C32.4007371,25.9675158 31.8934511,25.4602298 31.2676629,25.4601672 L18.7500424,25.4601672 C18.1242541,25.4602298 17.6169682,25.9675158 17.6169056,26.593304 L17.6169056,40.7929244 L7.66654817,40.7929244 L7.66654817,22.8043779 C7.6723275,22.3957281 7.45762574,22.0156225 7.10465641,21.809611 C6.75168707,21.6035995 6.3151357,21.6035995 5.96216636,21.809611 C5.60919703,22.0156225 5.39449527,22.3957281 5.4002746,22.8043779 L5.4002746,41.9260612 C5.40033716,42.5518495 5.90762314,43.059198 6.53341138,43.059198 L18.7500424,43.059198 C19.3758306,43.059198 19.8831166,42.5518495 19.8831792,41.9260612 L19.8831792,27.7264408 L30.1345261,27.7264408 L30.1345261,41.9260612 C30.1345886,42.5518495 30.6418746,43.059198 31.2676629,43.059198 L43.4665886,43.059198 C44.0923769,43.059198 44.5996628,42.5518495 44.5997254,41.9260612 L44.5997254,15.9878519 L48.1053673,18.6790518 C48.4211216,18.9654533 48.8708883,19.0504285 49.2693685,18.8989684 C49.6678487,18.7475083 49.9476205,18.3852397 49.9934211,17.9614132 C50.0392216,17.5375866 49.8433016,17.1239126 49.4863778,16.8908203 L44.5997254,13.1373047 L44.5997254,2.33709463 C44.6067551,2.01075557 44.4727286,1.6972331 44.2319699,1.4768202 C43.9912112,1.2564073 43.6671039,1.15051146 43.3426518,1.18625258 C42.7588641,1.25040518 42.3208206,1.74992852 42.3334518,2.33709463 L42.3334518,11.3844837 L29.3377893,1.39871572 C28.0870839,0.435657101 26.5253551,0 24.9822947,0 Z" id="Shape"></path>
                                </g>
                            </g>
                            <path d="M24.9998507,0 C11.1931075,0 0,11.1930763 0,25.0001493 C0,38.8078193 11.1931075,50 24.9998507,50 C38.8080866,50 50,38.8078193 50,25.0001493 C50,11.1939719 38.8080866,0.00119415105 24.9995522,0.00119415105 L24.9998507,0 Z M36.0425582,35.5234562 C35.5908213,36.262434 34.6210927,36.4967441 33.8802442,36.0431439 C27.9588768,32.4353701 20.5046155,31.618289 11.7258615,33.6189362 C10.8799089,33.8111906 10.0366667,33.282491 9.84392558,32.4383741 C9.65028103,31.5942572 10.1782109,30.7531442 11.0262716,30.5608898 C20.6332099,28.3706918 28.8737946,29.3142403 35.5215549,33.3666023 C36.2624035,33.8202025 36.4973067,34.7844784 36.0425582,35.5234562 L36.0425582,35.5234562 Z M39.9077027,29.407847 C39.3435701,30.3776708 38.1436691,30.683599 37.2273267,30.0875122 C30.5084777,25.722832 20.2666355,24.4590649 12.3195295,27.0080456 C11.2888682,27.3369973 10.2003012,26.7232486 9.88749122,25.6360998 C9.57706905,24.5470586 10.1582152,23.3990396 11.1870856,23.0678802 C20.2648446,20.1574627 31.5501828,21.5672553 39.2659646,26.5772231 C40.182307,27.1733099 40.4718353,28.4411771 39.9077027,29.4081624 L39.9077027,29.407847 Z M39.6339459,22.236512 C31.6444972,17.679459 18.4629427,17.2604524 10.8349284,19.4836893 C9.61001771,19.8404419 8.31465543,19.1763988 7.94345243,18.00011 C7.57224944,16.8232527 8.26314879,15.5801617 9.48894751,15.2225563 C18.2453716,12.6698561 32.8019164,13.163056 42.000291,18.4068933 C43.1044275,19.0348348 43.465566,20.4012968 42.8113725,21.45791 C42.1601392,22.5159445 40.7333462,22.8647377 39.63513,22.236512 L39.6339459,22.236512 Z" id="Shape" fill-rule="nonzero"></path>
                            <g id="Group-5" transform="translate(67.266667, 19.453333)" stroke="#111111" stroke-width="1.5">
                                <polygon id="Close" points="1.17024 -6.21724894e-15 5.73045333 4.56021333 10.2906667 -6.21724894e-15 10.7275733 0.436906667 6.16736 4.99712 10.7275733 9.55733333 10.2906667 9.99424 5.73045333 5.43402667 1.17024 9.99424 0.733333333 9.55733333 5.29354667 4.99712 0.733333333 0.436906667"></polygon>
                            </g>
                        </g>
                    </g>
                </g>
            </g>
        </g>
    </g>
</svg>