<svg width="105" height="105" viewBox="0 0 105 105" fill="none" xmlns="http://www.w3.org/2000/svg">
<path fill-rule="evenodd" clip-rule="evenodd" d="M53.9854 7.00732L52.4618 7.03804L51.3031 4.74879L50.8128 4.75868L50.8594 7.07035L49.4759 7.09825L49.3507 0.889999L51.8112 0.840385C53.0371 0.815666 53.8421 1.64039 53.8644 2.74369C53.8813 3.58429 53.4301 4.23287 52.6738 4.51967L53.9854 7.00732ZM50.7584 2.06172L50.7887 3.56781L51.6031 3.55139C52.1722 3.53992 52.4724 3.21851 52.4635 2.78069C52.4542 2.3166 52.1419 2.03383 51.5727 2.0453L50.7584 2.06172ZM41.6964 4.83259L41.3685 3.28165L42.1568 3.115C42.6709 3.00631 43.0839 3.22338 43.1871 3.7118C43.2867 4.18308 42.9988 4.55725 42.4847 4.66594L41.6964 4.83259ZM42.8681 5.80231C44.102 5.54146 44.7819 4.56523 44.5392 3.41702C44.3 2.28595 43.2797 1.65125 42.0458 1.91209L39.7579 2.39575L41.0422 8.47099L42.3961 8.18479L41.9342 5.99975L42.8681 5.80231ZM28.5127 5.63463L32.5259 13.271L31.5491 13.7844L27.5358 6.148L28.5127 5.63463ZM19.5779 14.66C18.9822 14.2232 17.9174 13.954 16.7932 15.0212C15.9293 15.8413 15.7466 17.1499 16.5546 18.001C17.1878 18.668 18.1339 18.7359 19.0348 18.1584L19.7594 17.6879C20.1122 17.4616 20.4532 17.4519 20.6703 17.6806C20.9356 17.9601 20.8751 18.3797 20.4813 18.7536C19.8652 19.3385 19.242 19.2418 18.8119 18.8651L18.102 19.9617C18.7685 20.5366 20.0678 20.8368 21.3128 19.6549C22.3862 18.6359 22.2956 17.3573 21.6263 16.6523C21.0172 16.0107 20.048 15.8802 19.0398 16.5355L18.3278 16.994C17.9623 17.2323 17.6782 17.2001 17.4732 16.9842C17.238 16.7364 17.2563 16.2723 17.631 15.9165C18.1773 15.398 18.6864 15.5908 18.9172 15.7703L19.5779 14.66ZM51.8437 20.0121L47.5629 31.7767H44.4919L40.1645 15.0004H43.4216L46.3531 26.9768L50.6339 15.0004H53.1233L57.218 27.1885L60.6381 15.0004H63.8487L58.9397 31.7767H55.8919L51.8437 20.0121ZM34.5707 40.7716L29.3945 29.5185L40.4348 34.8818L42.5807 32.7266L34.3577 17.5251L32.0972 19.7955L38.1743 30.7359L26.8064 25.1094L25.0537 26.8698L30.3773 38.2709L19.9758 31.9698L17.6825 34.2731L32.4085 42.9432L34.5707 40.7716ZM34.5707 63.99L29.3945 75.2431L40.4348 69.8798L42.5807 72.035L34.3577 87.2365L32.0972 84.9662L38.1743 74.0257L26.8064 79.6522L25.0537 77.8919L30.3773 66.4907L19.9758 72.7918L17.6825 70.4885L32.4085 61.8184L34.5707 63.99ZM47.5629 73.2241L51.8437 84.9887L55.8919 73.2241H58.9397L63.8487 90.0004H60.6381L57.218 77.8123L53.1233 90.0004H50.6339L46.3531 78.024L43.4216 90.0004H40.1645L44.4919 73.2241H47.5629ZM20.0117 52.1698L31.7763 56.4507V59.5217L15 63.8491V60.5919L26.9764 57.6605L15 53.3796V50.8902L27.1881 46.7955L15 43.3755V40.1649L31.7763 45.0739V48.1216L20.0117 52.1698ZM69.4293 40.7716L74.6055 29.5185L63.5652 34.8819L61.4194 32.7267L69.6423 17.5251L71.9028 19.7955L65.8257 30.736L77.1936 25.1094L78.9463 26.8698L73.6227 38.2709L84.0242 31.9699L86.3175 34.2731L71.5916 42.9433L69.4293 40.7716ZM74.6055 75.244L69.4293 63.9909L71.5916 61.8192L86.3175 70.4894L84.0242 72.7926L73.6227 66.4916L78.9463 77.8927L77.1936 79.6531L65.8257 74.0265L71.9028 84.967L69.6423 87.2374L61.4194 72.0359L63.5652 69.8807L74.6055 75.244ZM72.2237 56.4516L83.9883 52.1708L72.2237 48.1226V45.0748L89 40.1658V43.3764L76.8119 46.7964L89 50.8912V53.3806L77.0237 57.6614L89 60.5928V63.85L72.2237 59.5226V56.4516ZM45.5374 103.634L44.7532 99.5203L43.2604 103.35L41.8525 103.174L44.2985 97.2218L45.7151 97.3985L46.5178 101.647L48.3484 97.7271L49.7911 97.907L50.6997 104.278L49.2396 104.096L48.7151 100.023L46.9453 103.81L45.5374 103.634ZM35.1545 94.4797L34.7008 95.7126L37.1009 96.5958L36.6895 97.7136L34.5196 96.9151L34.0992 98.0576L36.2691 98.8561L35.8608 99.9657L33.4689 99.0855L33.0183 100.31L36.7087 101.668L38.8532 95.8408L35.1545 94.4797ZM25.9979 96.9211C24.6689 96.1231 24.6438 95.0251 24.9054 94.3343L26.152 94.6742C26.0407 94.9445 25.9909 95.4867 26.6367 95.8745C27.0797 96.1405 27.5318 96.034 27.7076 95.7412C27.8609 95.4859 27.816 95.2035 27.4887 94.915L26.8565 94.3515C25.9556 93.5551 25.8223 92.5863 26.2777 91.8279C26.7781 90.9945 27.9859 90.5654 29.2548 91.3273C30.7265 92.2111 30.7846 93.5434 30.4088 94.3393L29.1622 93.9483C29.4103 93.4332 29.3369 92.8068 28.6086 92.3695C28.1431 92.09 27.7225 92.1439 27.5241 92.4742C27.3618 92.7445 27.4623 93.0705 27.7746 93.35L28.4218 93.9225C29.2191 94.6362 29.4065 95.5661 28.9331 96.3544C28.3289 97.3606 27.0191 97.5343 25.9979 96.9211ZM20.8252 85.0762L19.9509 86.0684L21.9618 87.8401L18.7311 91.507L19.7694 92.4217L23.8743 87.7626L20.8252 85.0762ZM14.699 79.9742L15.731 79.1614L18.1695 82.2576L13.2912 86.0995L10.8582 83.0102L11.8834 82.2028L13.4602 84.205L14.3891 83.4735L12.9586 81.657L13.9149 80.9038L15.3455 82.7203L16.2813 81.9833L14.699 79.9742ZM10.1719 75.1008L12.4806 73.9217L11.8512 72.6893L9.54247 73.8685L5.32926 73.5717L6.0304 74.9444L8.66731 75.0432L7.19364 77.2219L7.93063 78.6648L10.1719 75.1008ZM1.06893 57.3631L7.21514 56.4786L7.41347 57.857L4.96886 58.2088L5.32187 60.662L7.76649 60.3103L7.96357 61.68L1.81737 62.5644L1.62028 61.1947L4.03022 60.8479L3.6772 58.3946L1.26726 58.7414L1.06893 57.3631ZM7.32506 47.8057L7.43364 46.3032L1.07362 48.1618L0.958099 49.7603L6.98291 52.5403L7.0877 51.0902L5.86201 50.5538L6.03498 48.1603L7.32506 47.8057ZM2.5517 49.094L4.74552 48.5062L4.63694 50.0086L2.5517 49.094ZM2.58746 39.3571L8.60871 40.8745L8.26627 42.2333L2.24502 40.7159L2.58746 39.3571ZM12.1599 31.4834L6.49417 28.9423L5.9279 30.2049L9.37211 31.7496L4.97454 32.3306L4.28641 33.8649L9.95218 36.406L10.5149 35.1513L6.79097 33.4812L11.5614 32.8179L12.1599 31.4834ZM15.6303 23.7308L16.697 24.4976L14.3968 27.6978L9.35463 24.0737L11.6498 20.8805L12.7094 21.6422L11.2219 23.7116L12.182 24.4017L13.5315 22.5243L14.52 23.2348L13.1705 25.1122L14.1377 25.8074L15.6303 23.7308ZM59.6445 4.41962C59.887 3.1463 60.9088 2.74353 61.7605 2.90572C62.6036 3.06628 63.4059 3.81638 63.1634 5.0897C62.9209 6.36302 61.9008 6.75719 61.0577 6.59664C60.2059 6.43444 59.4021 5.69295 59.6445 4.41962ZM58.2319 4.15954C57.8649 6.08673 59.0814 7.61112 60.8021 7.93879C62.5142 8.26481 64.2057 7.29418 64.5727 5.36699C64.9413 3.43119 63.7249 1.90681 62.0128 1.58078C60.2921 1.25311 58.6005 2.22375 58.2319 4.15954ZM71.3236 5.7604L69.8889 9.06173L70.6279 9.38287C71.5035 9.76335 72.4383 9.56798 72.9339 8.42737C73.4296 7.28676 72.9381 6.46202 72.0626 6.08154L71.3236 5.7604ZM74.2593 9.00332C73.4948 10.7624 71.875 11.3476 70.156 10.6007L68.0997 9.70705L70.5746 4.01204L72.6389 4.90913C74.3498 5.65264 75.0237 7.24422 74.2593 9.00332ZM78.7442 15.542C79.8575 16.334 81.2268 16.2977 82.1304 15.0273L84.4301 11.7944L83.3025 10.9923L81.0688 14.1325C80.6322 14.7462 80.0714 14.8094 79.5361 14.4287C79.0009 14.048 78.8766 13.4974 79.3132 12.8836L81.5468 9.74346L80.4192 8.94137L78.1196 12.1743C77.216 13.4447 77.6309 14.7501 78.7442 15.542ZM89.5154 22.5628C88.7476 22.996 87.2235 23.2803 85.9183 21.8629C84.7081 20.5485 84.6823 18.6198 86.1061 17.3087C87.53 15.9976 89.4931 16.1902 90.6677 17.4658C91.9313 18.8382 91.6063 20.2565 91.0856 21.0098L89.8988 20.3287C90.1493 19.9671 90.4171 19.1848 89.6755 18.3794C89.1119 17.7674 88.039 17.4814 87.0791 18.3653C86.2222 19.1544 86.3074 20.2426 86.9363 20.9255C87.666 21.718 88.485 21.5472 88.8966 21.3349L89.5154 22.5628ZM96.9419 28.6863L98.0744 28.0035L95.3837 23.5408L94.2512 24.2236L95.237 25.8587L91.0518 28.3821L91.7663 29.5671L95.9515 27.0437L96.9419 28.6863ZM101.347 40.139L97.8345 40.9245L98.0103 41.7108C98.2186 42.6424 98.9272 43.2827 100.141 43.0113C101.355 42.7399 101.731 41.8569 101.523 40.9253L101.347 40.139ZM100.456 44.4216C98.5844 44.8402 97.1573 43.8759 96.7483 42.0469L96.259 39.8588L102.319 38.5038L102.81 40.7004C103.217 42.5209 102.328 44.0031 100.456 44.4216ZM97.9829 53.4368L99.2964 53.4126L99.2494 50.8557L100.44 50.8338L100.483 53.1456L101.7 53.1232L101.657 50.8114L102.84 50.7897L102.886 53.3379L104.191 53.3139L104.119 49.3822L97.9105 49.4963L97.9829 53.4368ZM103.577 61.0851C103.315 62.613 102.301 63.0345 101.562 63.0411L101.427 61.7561C101.719 61.7618 102.242 61.6116 102.37 60.8693C102.457 60.36 102.194 59.9772 101.857 59.9195C101.564 59.8691 101.317 60.0134 101.167 60.4231L100.871 61.2165C100.455 62.3448 99.6005 62.8203 98.7286 62.6709C97.7705 62.5066 96.9327 61.5366 97.1828 60.0777C97.4728 58.3858 98.6934 57.8487 99.5715 57.9103L99.659 59.2138C99.089 59.1694 98.5319 59.4649 98.3883 60.3022C98.2966 60.8374 98.4993 61.2098 98.8791 61.2749C99.1899 61.3282 99.4572 61.1163 99.6045 60.7239L99.9034 59.9133C100.28 58.9114 101.078 58.3997 101.985 58.5551C103.141 58.7534 103.778 59.9111 103.577 61.0851ZM95.3241 67.7213L101.196 69.7398L101.652 68.4146L95.7796 66.3961L95.3241 67.7213ZM93.71 78.6905L90.8172 77.0627L91.367 76.0857L91.9595 76.3186C91.7491 75.8888 91.7163 75.197 92.1501 74.4261C92.9962 72.9224 94.7987 72.3087 96.5084 73.2707C98.2105 74.2285 98.6067 76.1498 97.7477 77.6763C96.8759 79.2258 95.5562 79.4279 94.6674 79.2393L94.9157 77.8515C95.2988 77.9565 96.1113 77.9413 96.6181 77.0407C97.0304 76.3079 97.0272 75.1706 95.8213 74.492C94.6916 73.8563 93.683 74.2736 93.1891 75.1514C92.6866 76.0444 93.0562 76.7448 93.3229 76.9853L94.2377 75.3596L95.2605 75.9351L93.71 78.6905ZM84.4896 84.8617L89.0989 89.0225L90.0261 87.9954L87.2241 85.466L91.5871 86.2661L92.7139 85.0179L88.1046 80.857L87.1833 81.8777L90.2128 84.6125L85.4696 83.776L84.4896 84.8617ZM78.8022 91.1703L78.0231 90.1125L81.1963 87.7751L84.879 92.7747L81.7129 95.1069L80.9389 94.0562L82.9909 92.5447L82.2897 91.5927L80.4281 92.964L79.7061 91.9838L81.5677 90.6126L80.8613 89.6535L78.8022 91.1703ZM71.3926 93.8048L70.0182 94.4631L72.2415 96.1853C71.6716 96.7593 71.5292 97.5364 71.8924 98.2947C72.3691 99.2899 73.4432 99.7077 74.549 99.178L76.7685 98.1149L74.0861 92.5147L72.8381 93.1124L73.8369 95.1977L73.3946 95.4096L71.3926 93.8048ZM74.3515 96.272L75.0022 97.6305L74.2676 97.9824C73.7542 98.2283 73.3529 98.1001 73.1524 97.6814C72.9632 97.2865 73.1035 96.8697 73.6169 96.6238L74.3515 96.272ZM60.9779 104.426L59.5085 95.9253L60.5959 95.7374L62.0653 104.238L60.9779 104.426Z" fill="white"/>
</svg>
