<?xml version="1.0" encoding="UTF-8"?>
<svg width="74px" height="75px" viewBox="0 0 74 75" version="1.1" xmlns="http://www.w3.org/2000/svg" xmlns:xlink="http://www.w3.org/1999/xlink">
    <!-- Generator: Sketch 63.1 (92452) - https://sketch.com -->
    <title>Combined Shape</title>
    <desc>Created with Sketch.</desc>
    <g id="V3" stroke="none" stroke-width="1" fill="none" fill-rule="evenodd">
        <g id="Intro-Copy-7" transform="translate(-166.000000, -139.000000)" fill="#5E6880" fill-rule="nonzero">
            <g id="Combined-Shape-7" transform="translate(166.000000, 139.000000)">
                <path d="M32.5628813,58.2236842 L36.8437209,69.9882815 L40.8919062,58.2236842 L43.9396779,58.2236842 L48.8486842,75 L45.6380545,75 L42.2180359,62.8118772 L38.1233197,75 L35.6339184,75 L31.3530788,63.0236399 L28.4216343,75 L25.1644737,75 L29.4918442,58.2236842 L32.5628813,58.2236842 Z M17.4084525,46.8179837 L19.5706582,48.9896313 L14.3944688,60.2427145 L25.4348221,54.8794029 L27.5806474,57.0345987 L19.3577137,72.2361321 L17.0972259,69.9657732 L23.1743343,59.0252757 L11.8063741,64.6518173 L10.0536771,62.8914665 L15.3772896,51.4903165 L4.97576979,57.791385 L2.68252133,55.4881223 L17.4084525,46.8179837 Z M56.5915475,46.8179837 L71.3174787,55.4881223 L69.0242302,57.791385 L58.6227104,51.4903165 L63.9463229,62.8914665 L62.1936259,64.6518173 L50.8256657,59.0252757 L56.9027741,69.9657732 L54.6422863,72.2361321 L46.4193526,57.0345987 L48.5651779,54.8794029 L59.6055312,60.2427145 L54.4293418,48.9896313 L56.5915475,46.8179837 Z M2.70817709e-10,25.1644737 L16.7763158,30.07348 L16.7763158,33.1212517 L5.01171846,37.169437 L16.7763158,41.4502766 L16.7763158,44.5213137 L2.70816258e-10,48.8486842 L2.70816458e-10,45.5915236 L11.9763601,42.6600791 L2.70816899e-10,38.3792395 L2.70817052e-10,35.8898382 L12.1881228,31.795122 L2.70817512e-10,28.3751034 L2.70817709e-10,25.1644737 Z M74,25.1644737 L74,28.3751034 L61.8118772,31.795122 L74,35.8898382 L74,38.3792395 L62.0236399,42.6600791 L74,45.5915236 L74,48.8486842 L57.2236842,44.5213137 L57.2236842,41.4502766 L68.9882815,37.169437 L57.2236842,33.1212517 L57.2236842,30.07348 L74,25.1644737 Z M19.3577137,2.52469873 L27.5806474,17.7262322 L25.4348221,19.8814279 L14.3944688,14.5181163 L19.5706582,25.7711995 L17.4084525,27.9428472 L2.68252133,19.2727085 L4.97576979,16.9694459 L15.3772896,23.2705144 L10.0536771,11.8693643 L11.8063741,10.1090136 L23.1743343,15.7355552 L17.0972259,4.79505762 L19.3577137,2.52469873 Z M54.6422863,2.52469874 L56.9027741,4.79505763 L50.8256657,15.7355552 L62.1936259,10.1090136 L63.9463229,11.8693643 L58.6227104,23.2705144 L69.0242302,16.9694459 L71.3174787,19.2727085 L56.5915475,27.9428472 L54.4293418,25.7711995 L59.6055312,14.5181164 L48.5651779,19.8814279 L46.4193526,17.7262322 L54.6422863,2.52469874 Z M28.4216343,1.8189894e-12 L31.3530788,11.9763601 L35.6339184,1.8189894e-12 L38.1233197,1.8189894e-12 L42.2180359,12.1881228 L45.6380545,1.8189894e-12 L48.8486842,1.8189894e-12 L43.9396779,16.7763158 L40.8919062,16.7763158 L36.8437209,5.01171846 L32.5628813,16.7763158 L29.4918442,16.7763158 L25.1644737,1.8189894e-12 L28.4216343,1.8189894e-12 Z" id="Combined-Shape"></path>
            </g>
        </g>
    </g>
</svg>