<?xml version="1.0" encoding="UTF-8"?>
<svg width="292px" height="294px" viewBox="0 0 292 294" version="1.1" xmlns="http://www.w3.org/2000/svg" xmlns:xlink="http://www.w3.org/1999/xlink">
    <!-- Generator: Sketch 63.1 (92452) - https://sketch.com -->
    <title>Combined Shape</title>
    <desc>Created with Sketch.</desc>
    <g id="V3" stroke="none" stroke-width="1" fill="none" fill-rule="evenodd">
        <path d="M128.551081,228 L145.360511,274.28331 L161.256385,228 L173.223969,228 L192.5,294 L179.892927,294 L166.463654,246.050491 L150.385069,294 L140.61002,294 L123.800589,246.88359 L112.289784,294 L99.5,294 L116.492141,228 L128.551081,228 Z M68.7411338,183.526496 L77.2169801,192.039355 L56.9263177,236.151441 L100.204503,215.127259 L108.616138,223.575627 L76.3822376,283.165638 L67.5211256,274.265831 L91.3433906,231.379081 L46.7809865,253.435124 L39.9104142,246.534549 L60.7789751,201.842041 L20.0050176,226.542229 L11.0154836,217.51344 L68.7411338,183.526496 Z M223.258866,183.526496 L280.984516,217.51344 L271.994982,226.542229 L231.221025,201.842041 L252.089586,246.534549 L245.219013,253.435124 L200.656609,231.379081 L224.478874,274.265831 L215.617762,283.165638 L183.383862,223.575627 L191.795497,215.127259 L235.073682,236.151441 L214.78302,192.039355 L223.258866,183.526496 Z M5.69460762e-15,98.5 L66,117.776031 L66,129.743615 L19.71669,145.639489 L66,162.448919 L66,174.507859 L0,191.5 L7.83148395e-16,178.710216 L47.1164095,167.199411 L2.5172627e-15,150.38998 L3.11581183e-15,140.614931 L47.9495091,124.536346 L4.92264706e-15,111.107073 L5.69460762e-15,98.5 Z M292,98.5 L292,111.107073 L244.050491,124.536346 L292,140.614931 L292,150.38998 L244.88359,167.199411 L292,178.710216 L292,191.5 L226,174.507859 L226,162.448919 L272.28331,145.639489 L226,129.743615 L226,117.776031 L292,98.5 Z M76.3822376,9.89681902 L108.616138,69.4868301 L100.204503,77.9351975 L56.9263177,56.9110161 L77.2169801,101.023102 L68.7411338,109.535961 L11.0154836,75.5490174 L20.0050176,66.5202278 L60.7789751,91.2204164 L39.9104142,46.5279081 L46.7809865,39.6273332 L91.3433906,61.6833763 L67.5211256,18.7966259 L76.3822376,9.89681902 Z M215.617762,9.89681902 L224.478874,18.7966259 L200.656609,61.6833763 L245.219013,39.6273332 L252.089586,46.5279081 L231.221025,91.2204164 L271.994982,66.5202278 L280.984516,75.5490174 L223.258866,109.535961 L214.78302,101.023102 L235.073682,56.9110161 L191.795497,77.9351975 L183.383862,69.4868301 L215.617762,9.89681902 Z M112.289784,0 L123.800589,47.1164095 L140.61002,0 L150.385069,0 L166.463654,47.9495091 L179.892927,0 L192.5,0 L173.223969,66 L161.256385,66 L145.360511,19.71669 L128.551081,66 L116.492141,66 L99.5,0 L112.289784,0 Z" id="Combined-Shape" fill="#111111" fill-rule="nonzero"></path>
    </g>
</svg>