<?xml version="1.0" encoding="UTF-8"?>
<svg width="1110px" height="26px" viewBox="0 0 1110 26" version="1.1" xmlns="http://www.w3.org/2000/svg" xmlns:xlink="http://www.w3.org/1999/xlink">
    <!-- Generator: Sketch 63.1 (92452) - https://sketch.com -->
    <title>Group 15</title>
    <desc>Created with Sketch.</desc>
    <g id="V3" stroke="none" stroke-width="1" fill="none" fill-rule="evenodd">
        <g id="Zodiac" transform="translate(-165.000000, -122.000000)">
            <g id="Group-22" transform="translate(165.000000, 120.000000)">
                <g id="Group-15">
                    <g id="Group-2" transform="translate(923.000000, 0.000000)" fill="#C8DDF2">
                        <text id="New-York,-NY" font-family="CircularStd-Medium, Circular Std" font-size="24" font-weight="400">
                            <tspan x="0.216" y="24">New York, NY</tspan>
                        </text>
                        <path d="M180,26 C181.73,23.69 187,15.6 187,11 C187,6.02943725 182.970563,2 178,2 C173.029437,2 169,6.02943725 169,11 C169,15.6 174.27,23.69 176,26 C177,27.3333333 177.666667,28 178,28 C178.333333,28 179,27.3333333 180,26 Z M174,11 C174,8.790861 175.790861,7 178,7 C180.209139,7 182,8.790861 182,11 C182,13.209139 180.209139,15 178,15 C175.790861,15 174,13.209139 174,11 Z" id="Shape" fill-rule="nonzero"></path>
                    </g>
                    <g id="gsx" transform="translate(0.000000, 3.000000)">
                        <g id="Group-6">
                            <path d="M126.379151,24.5838668 L110,24.5838668 L110.064106,24.0717029 L116.602945,12.2919334 C117.244011,11.1182186 117.895752,10.0245463 118.558187,9.01088348 C119.220621,7.99722071 119.89373,7.03158803 120.577534,6.11395647 L113.68611,6.11395647 L114.391279,0.448143406 L130.161421,0.448143406 L130.065261,1.12035851 L122.596881,14.2765685 C122.468668,14.5113115 122.303062,14.7887308 122.100058,15.1088348 C121.897054,15.4289389 121.678026,15.802388 121.442969,16.2291933 L119.744153,19.078105 C120.406587,19.0354245 120.935459,18.9980795 121.330783,18.9660691 C121.726107,18.9340587 121.977187,18.9180538 122.084031,18.9180538 L127.116373,18.9180538 L126.379151,24.5838668 Z M135.872221,25 C134.718302,25 133.660554,24.7812655 132.69896,24.34379 C131.737362,23.9063145 130.914673,23.271451 130.230869,22.4391805 C129.547066,21.6069142 129.012852,20.5719225 128.628213,19.3341869 C128.243573,18.0964513 128.051256,16.6773448 128.051256,15.0768246 C128.051256,12.7720755 128.345074,10.6914305 128.932717,8.83482714 C129.520361,6.97822375 130.310997,5.39373255 131.304649,4.08130602 C132.298301,2.76887948 133.44686,1.7605669 134.750361,1.05633803 C136.053862,0.352109155 137.421448,0 138.853162,0 C140.049818,0 141.123588,0.229404449 142.074502,0.68822023 C143.025416,1.14703601 143.826737,1.79790445 144.478487,2.64084507 C145.130237,3.48378569 145.627056,4.50276825 145.968958,5.6978233 C146.310859,6.89287836 146.481808,8.21595519 146.481808,9.66709347 C146.481808,11.8011204 146.220043,13.7964056 145.696506,15.653009 C145.172969,17.5096124 144.441096,19.1314485 143.500866,20.5185659 C142.560636,21.9056834 141.44413,22.9993558 140.151314,23.7996159 C138.858498,24.599876 137.432148,25 135.872221,25 Z M139.814756,9.82714469 C139.814756,7.33033323 139.259174,6.08194622 138.147993,6.08194622 C137.656512,6.08194622 137.202428,6.33269062 136.785735,6.83418694 C136.369042,7.33568326 136.011119,8.00255666 135.711955,8.83482714 C135.412791,9.66709763 135.172395,10.6167307 134.990759,11.6837388 C134.809124,12.7507522 134.718308,13.8497596 134.718308,14.9807939 C134.718308,17.6056469 135.295258,18.9180538 136.449177,18.9180538 C136.919292,18.9180538 137.357347,18.6726444 137.763356,18.1818182 C138.169364,17.690992 138.527287,17.0294536 138.837135,16.1971831 C139.146984,15.3649126 139.38738,14.3992799 139.558331,13.3002561 C139.729282,12.2012322 139.814756,11.04354 139.814756,9.82714469 Z M145.140918,24.5838668 L148.089807,0.448143406 L153.634999,0.448143406 C155.259032,0.448143406 156.669356,0.68821783 157.866012,1.16837388 C159.062668,1.64852993 160.056306,2.3154076 160.846954,3.16901408 C161.637601,4.02262484 162.225236,5.04694238 162.609876,6.24199744 C162.994515,7.4370525 163.186832,8.73878937 163.186832,10.1472471 C163.186832,13.6683915 162.438933,16.6986642 160.943113,19.2381562 C159.831932,21.1160999 158.50174,22.4765216 156.952498,23.3194622 C155.403255,24.1624028 153.46406,24.5838668 151.134854,24.5838668 L145.140918,24.5838668 Z M152.288767,18.7580026 C152.929833,18.7366624 153.517468,18.5232628 154.051689,18.1177977 C154.585911,17.7123326 155.039992,17.1681639 155.413947,16.4852753 C155.787903,15.8023901 156.076378,14.9914686 156.279382,14.0524968 C156.482386,13.113525 156.583887,12.0892074 156.583887,10.9795134 C156.583887,9.50703489 156.359517,8.38668758 155.910771,7.6184379 C155.462025,6.85018822 154.820969,6.46606914 153.987583,6.46606914 L153.795264,6.46606914 L152.288767,18.7580026 Z M168.480941,24.5838668 L162.070315,24.5838668 L165.019203,0.448143406 L171.42983,0.448143406 L168.480941,24.5838668 Z M186.692463,24.5838668 L179.961305,24.5838668 L179.961305,21.5108835 L175.602079,21.5108835 L174.736644,24.5838668 L168.101646,24.5838668 L176.755992,0.448143406 L184.641063,0.448143406 L186.692463,24.5838668 Z M179.865146,16.3572343 L179.782342,6.33536065 C179.705771,6.83507519 179.642555,7.17740696 179.592694,7.36235595 C179.517903,7.63977945 179.45914,7.88518886 179.416402,8.09859155 L177.108576,16.3572343 L179.865146,16.3572343 Z M199.519059,24.1357234 C198.044607,24.7119107 196.730442,25 195.576523,25 C194.273023,25 193.103095,24.7652606 192.066705,24.2957746 C191.030315,23.8262887 190.148863,23.1594153 189.422322,22.2951344 C188.69578,21.4308536 188.134856,20.395866 187.739532,19.1901408 C187.344208,17.9844157 187.146549,16.6453339 187.146549,15.1728553 C187.146549,12.9748076 187.451051,10.9475125 188.060063,9.09090909 C188.669076,7.2343057 189.518476,5.63380954 190.608288,4.2893726 C191.6981,2.94493566 192.985554,1.89394318 194.47069,1.13636364 C195.955826,0.378784091 197.574493,0 199.32674,0 C200.395183,0 201.452926,0.202729513 202.5,0.608194622 L201.666619,7.49039693 C200.833233,6.53008483 199.903701,6.04993598 198.877996,6.04993598 C198.130086,6.04993598 197.446292,6.24733051 196.826595,6.64212548 C196.206898,7.03692045 195.672685,7.59709411 195.223939,8.32266325 C194.775193,9.04823239 194.427954,9.90716533 194.182212,10.8994878 C193.93647,11.8918103 193.813601,12.9748127 193.813601,14.1485275 C193.813601,15.6423464 194.102076,16.7786986 194.679035,17.5576184 C195.255995,18.3365383 196.100052,18.7259923 197.211233,18.7259923 C198.322414,18.7259923 199.508368,18.2031636 200.769131,17.1574904 L199.519059,24.1357234 Z" id="ZODIAC" fill="#C8DDF2" fill-rule="nonzero"></path>
                            <path d="M7.30787074,22.0743568 C5.33389416,22.0010128 3.71888388,21.4958237 2.45607969,20.5575253 C2.21507878,20.3782749 1.64080032,19.8408397 1.4481348,19.6141686 C0.936050123,19.0119251 0.587900145,18.4258047 0.35568749,17.7755082 C-0.358864989,15.7737205 0.00888955095,13.1469274 1.40757364,10.2640622 C2.60514196,7.79597049 4.45304092,5.34811163 7.67697732,1.9578445 C8.15188093,1.45897826 9.56611346,-3.8191672e-13 9.57523972,-3.8191672e-13 C9.57861982,-3.8191672e-13 9.50155361,0.124874629 9.40454483,0.276937151 C8.5662808,1.59017565 7.84902425,3.13704036 7.45828505,4.4762022 C6.83060106,6.62499423 6.90631523,8.46902893 7.6800194,9.89892247 C8.2137367,10.8840094 9.12872892,11.7372667 10.1576304,12.208945 C11.958884,13.0343821 14.5960356,13.102668 17.8165919,12.4087444 C18.0383263,12.3606914 29.0256692,9.63273402 42.2330597,6.34647638 C55.4404502,3.05990261 66.24831,0.373043195 66.25,0.375256163 C66.2537181,0.378101407 35.5654806,12.6600744 19.634746,19.0318418 C17.1118417,20.0406391 16.4371744,20.2954466 15.2510984,20.684929 C12.2191515,21.6807647 9.50324366,22.1559205 7.30787074,22.0743568 Z" id="Path-Copy" fill="#C8DDF2"></path>
                            <g id="Group-5" transform="translate(82.916667, 7.083333)" stroke="#C8DDF2">
                                <polygon id="Close" points="0.426666667 0 4.88 4.45333333 9.33333333 0 9.76 0.426666667 5.30666667 4.88 9.76 9.33333333 9.33333333 9.76 4.88 5.30666667 0.426666667 9.76 0 9.33333333 4.45333333 4.88 0 0.426666667"></polygon>
                            </g>
                        </g>
                    </g>
                </g>
            </g>
        </g>
    </g>
</svg>