<svg width="440" height="365" viewBox="0 0 440 365" fill="none" xmlns="http://www.w3.org/2000/svg">
<rect width="440" height="365" rx="8" fill="#8C78A4"/>
<path d="M46.5327 302.295H44.5064L40.2876 317.969H42.3139L46.5327 302.295ZM51.1363 316H53.5078V311.577H56.0135C59.0369 311.577 60.6605 309.761 60.6605 307.243C60.6605 304.744 59.0561 302.909 56.0454 302.909H51.1363V316ZM53.5078 309.627V304.891H55.6811C57.4581 304.891 58.2443 305.849 58.2443 307.243C58.2443 308.636 57.4581 309.627 55.6939 309.627H53.5078ZM61.8981 316H64.212V310.228C64.212 308.982 65.1516 308.099 66.4236 308.099C66.8135 308.099 67.2993 308.17 67.4975 308.234V306.105C67.2866 306.067 66.9222 306.041 66.6665 306.041C65.5415 306.041 64.6019 306.68 64.2439 307.818H64.1417V306.182H61.8981V316ZM72.1932 316.192C75.0696 316.192 76.8977 314.165 76.8977 311.129C76.8977 308.087 75.0696 306.054 72.1932 306.054C69.3167 306.054 67.4886 308.087 67.4886 311.129C67.4886 314.165 69.3167 316.192 72.1932 316.192ZM72.2059 314.338C70.6143 314.338 69.8345 312.919 69.8345 311.123C69.8345 309.327 70.6143 307.888 72.2059 307.888C73.772 307.888 74.5518 309.327 74.5518 311.123C74.5518 312.919 73.772 314.338 72.2059 314.338ZM78.1417 306.182V316.531C78.1417 317.355 77.7901 317.796 76.9016 317.796C76.7865 317.796 76.6971 317.79 76.5692 317.783V319.669C76.7354 319.682 76.876 319.682 77.0422 319.682C79.2091 319.682 80.4556 318.685 80.4556 316.562V306.182H78.1417ZM79.2922 304.788C80.0273 304.788 80.6282 304.226 80.6282 303.536C80.6282 302.839 80.0273 302.276 79.2922 302.276C78.5507 302.276 77.9499 302.839 77.9499 303.536C77.9499 304.226 78.5507 304.788 79.2922 304.788ZM86.4616 316.192C88.75 316.192 90.3224 315.073 90.7315 313.366L88.571 313.124C88.2578 313.955 87.4907 314.389 86.4936 314.389C84.9978 314.389 84.0071 313.405 83.9879 311.724H90.8274V311.014C90.8274 307.569 88.7563 306.054 86.3402 306.054C83.5277 306.054 81.6931 308.119 81.6931 311.148C81.6931 314.229 83.5021 316.192 86.4616 316.192ZM83.9943 310.164C84.0646 308.911 84.9914 307.857 86.3721 307.857C87.7017 307.857 88.5965 308.828 88.6093 310.164H83.9943ZM96.3476 316.192C98.8149 316.192 100.387 314.728 100.554 312.644H98.3419C98.1438 313.699 97.3831 314.306 96.3668 314.306C94.9222 314.306 93.9889 313.098 93.9889 311.091C93.9889 309.109 94.9414 307.92 96.3668 307.92C97.479 307.92 98.1629 308.636 98.3419 309.582H100.554C100.394 307.454 98.7318 306.054 96.3348 306.054C93.4584 306.054 91.6431 308.131 91.6431 311.129C91.6431 314.102 93.4137 316.192 96.3476 316.192ZM106.636 306.182H104.7V303.83H102.386V306.182H100.992V307.972H102.386V313.43C102.373 315.278 103.715 316.185 105.454 316.134C106.112 316.115 106.566 315.987 106.815 315.904L106.425 314.095C106.298 314.127 106.035 314.185 105.748 314.185C105.166 314.185 104.7 313.98 104.7 313.047V307.972H106.636V306.182ZM109.277 316.141C110.031 316.141 110.677 315.514 110.683 314.734C110.677 313.967 110.031 313.341 109.277 313.341C108.497 313.341 107.864 313.967 107.871 314.734C107.864 315.514 108.497 316.141 109.277 316.141ZM109.277 309.129C110.031 309.129 110.677 308.502 110.683 307.722C110.677 306.955 110.031 306.329 109.277 306.329C108.497 306.329 107.864 306.955 107.871 307.722C107.864 308.502 108.497 309.129 109.277 309.129ZM120.91 316.249C124.068 316.256 125.954 313.763 125.954 309.467C125.954 305.197 124.055 302.73 120.91 302.73C117.765 302.73 115.873 305.191 115.867 309.467C115.867 313.756 117.753 316.249 120.91 316.249ZM120.91 314.249C119.28 314.249 118.258 312.612 118.264 309.467C118.27 306.348 119.287 304.705 120.91 304.705C122.54 304.705 123.557 306.348 123.563 309.467C123.563 312.612 122.547 314.249 120.91 314.249ZM128.299 316.141C129.053 316.141 129.698 315.514 129.705 314.734C129.698 313.967 129.053 313.341 128.299 313.341C127.519 313.341 126.886 313.967 126.892 314.734C126.886 315.514 127.519 316.141 128.299 316.141ZM135.741 316.179C138.509 316.179 140.439 314.3 140.439 311.698C140.439 309.18 138.688 307.364 136.31 307.364C135.249 307.364 134.309 307.786 133.824 308.362H133.747L134.124 304.891H139.755V302.909H132.162L131.478 309.659L133.619 310.011C134.06 309.525 134.891 309.199 135.677 309.205C137.115 309.212 138.151 310.273 138.145 311.756C138.151 313.219 137.141 314.261 135.741 314.261C134.559 314.261 133.606 313.513 133.523 312.44H131.222C131.286 314.613 133.184 316.179 135.741 316.179ZM147.069 319.682C148.872 319.682 149.914 318.755 150.47 317.189L154.414 306.195L151.94 306.182L149.671 313.597H149.569L147.306 306.182H144.851L148.412 316.205L148.213 316.735C147.785 317.854 147.108 317.93 146.098 317.636L145.561 319.439C145.874 319.567 146.437 319.682 147.069 319.682ZM159.312 316.192C161.601 316.192 163.173 315.073 163.582 313.366L161.422 313.124C161.109 313.955 160.342 314.389 159.344 314.389C157.849 314.389 156.858 313.405 156.839 311.724H163.678V311.014C163.678 307.569 161.607 306.054 159.191 306.054C156.378 306.054 154.544 308.119 154.544 311.148C154.544 314.229 156.353 316.192 159.312 316.192ZM156.845 310.164C156.915 308.911 157.842 307.857 159.223 307.857C160.552 307.857 161.447 308.828 161.46 310.164H156.845ZM167.741 316.198C169.281 316.198 170.202 315.476 170.624 314.651H170.701V316H172.925V309.429C172.925 306.834 170.809 306.054 168.936 306.054C166.872 306.054 165.286 306.974 164.775 308.764L166.936 309.071C167.166 308.4 167.818 307.825 168.949 307.825C170.023 307.825 170.611 308.374 170.611 309.339V309.378C170.611 310.043 169.914 310.075 168.182 310.26C166.277 310.464 164.455 311.033 164.455 313.245C164.455 315.175 165.868 316.198 167.741 316.198ZM168.342 314.498C167.377 314.498 166.686 314.057 166.686 313.207C166.686 312.318 167.46 311.947 168.495 311.8C169.103 311.717 170.317 311.564 170.617 311.321V312.478C170.617 313.571 169.735 314.498 168.342 314.498ZM174.532 316H176.846V310.228C176.846 308.982 177.785 308.099 179.057 308.099C179.447 308.099 179.933 308.17 180.131 308.234V306.105C179.92 306.067 179.556 306.041 179.3 306.041C178.175 306.041 177.235 306.68 176.878 307.818H176.775V306.182H174.532V316Z" fill="white" fill-opacity="0.5"/>
<path d="M203.533 302.295H201.506L197.288 317.969H199.314L203.533 302.295ZM207.561 304.897H211.607V316H213.96V304.897H218.006V302.909H207.561V304.897ZM222.12 316.192C224.408 316.192 225.98 315.073 226.39 313.366L224.229 313.124C223.916 313.955 223.149 314.389 222.152 314.389C220.656 314.389 219.665 313.405 219.646 311.724H226.485V311.014C226.485 307.569 224.414 306.054 221.998 306.054C219.186 306.054 217.351 308.119 217.351 311.148C217.351 314.229 219.16 316.192 222.12 316.192ZM219.652 310.164C219.723 308.911 220.649 307.857 222.03 307.857C223.36 307.857 224.255 308.828 224.267 310.164H219.652ZM230.548 316.198C232.089 316.198 233.009 315.476 233.431 314.651H233.508V316H235.732V309.429C235.732 306.834 233.616 306.054 231.744 306.054C229.679 306.054 228.094 306.974 227.582 308.764L229.743 309.071C229.973 308.4 230.625 307.825 231.756 307.825C232.83 307.825 233.418 308.374 233.418 309.339V309.378C233.418 310.043 232.722 310.075 230.989 310.26C229.084 310.464 227.263 311.033 227.263 313.245C227.263 315.175 228.675 316.198 230.548 316.198ZM231.149 314.498C230.184 314.498 229.494 314.057 229.494 313.207C229.494 312.318 230.267 311.947 231.303 311.8C231.91 311.717 233.124 311.564 233.425 311.321V312.478C233.425 313.571 232.543 314.498 231.149 314.498ZM237.339 316H239.653V310.03C239.653 308.822 240.458 308.004 241.455 308.004C242.433 308.004 243.105 308.662 243.105 309.672V316H245.374V309.876C245.374 308.771 246.032 308.004 247.151 308.004C248.084 308.004 248.825 308.553 248.825 309.768V316H251.146V309.41C251.146 307.217 249.88 306.054 248.078 306.054C246.652 306.054 245.565 306.757 245.131 307.85H245.029C244.651 306.738 243.699 306.054 242.376 306.054C241.059 306.054 240.075 306.732 239.666 307.85H239.551V306.182H237.339V316ZM263.735 306.508H266.017C265.972 304.296 264.086 302.73 261.299 302.73C258.551 302.73 256.486 304.277 256.492 306.591C256.492 308.47 257.828 309.55 259.983 310.107L261.472 310.49C262.885 310.848 263.818 311.289 263.824 312.305C263.818 313.424 262.757 314.172 261.21 314.172C259.727 314.172 258.576 313.507 258.48 312.133H256.147C256.243 314.734 258.18 316.198 261.229 316.198C264.367 316.198 266.189 314.632 266.196 312.325C266.189 310.055 264.316 309.02 262.348 308.553L261.12 308.246C260.046 307.991 258.883 307.537 258.896 306.444C258.902 305.46 259.784 304.737 261.267 304.737C262.68 304.737 263.613 305.396 263.735 306.508ZM267.488 316H269.801V306.182H267.488V316ZM268.651 304.788C269.386 304.788 269.987 304.226 269.987 303.536C269.987 302.839 269.386 302.276 268.651 302.276C267.909 302.276 267.309 302.839 267.309 303.536C267.309 304.226 267.909 304.788 268.651 304.788ZM271.333 316H279.393V314.082H274.408V313.999L279.227 307.761V306.182H271.499V308.099H276.396V308.183L271.333 314.53V316ZM284.914 316.192C287.202 316.192 288.774 315.073 289.184 313.366L287.023 313.124C286.71 313.955 285.943 314.389 284.946 314.389C283.45 314.389 282.459 313.405 282.44 311.724H289.279V311.014C289.279 307.569 287.208 306.054 284.792 306.054C281.98 306.054 280.145 308.119 280.145 311.148C280.145 314.229 281.954 316.192 284.914 316.192ZM282.446 310.164C282.517 308.911 283.443 307.857 284.824 307.857C286.154 307.857 287.049 308.828 287.061 310.164H282.446ZM291.942 316.141C292.697 316.141 293.342 315.514 293.349 314.734C293.342 313.967 292.697 313.341 291.942 313.341C291.163 313.341 290.53 313.967 290.536 314.734C290.53 315.514 291.163 316.141 291.942 316.141ZM291.942 309.129C292.697 309.129 293.342 308.502 293.349 307.722C293.342 306.955 292.697 306.329 291.942 306.329C291.163 306.329 290.53 306.955 290.536 307.722C290.53 308.502 291.163 309.129 291.942 309.129ZM298.865 316H301.236V310.439H306.676V308.451H301.236V304.897H307.251V302.909H298.865V316ZM308.449 316H310.763V310.228C310.763 308.982 311.702 308.099 312.974 308.099C313.364 308.099 313.85 308.17 314.048 308.234V306.105C313.837 306.067 313.473 306.041 313.217 306.041C312.092 306.041 311.153 306.68 310.795 307.818H310.692V306.182H308.449V316ZM318.808 316.192C321.096 316.192 322.669 315.073 323.078 313.366L320.917 313.124C320.604 313.955 319.837 314.389 318.84 314.389C317.344 314.389 316.353 313.405 316.334 311.724H323.174V311.014C323.174 307.569 321.103 306.054 318.686 306.054C315.874 306.054 314.039 308.119 314.039 311.148C314.039 314.229 315.848 316.192 318.808 316.192ZM316.34 310.164C316.411 308.911 317.338 307.857 318.718 307.857C320.048 307.857 320.943 308.828 320.956 310.164H316.34ZM328.758 316.192C331.046 316.192 332.618 315.073 333.028 313.366L330.867 313.124C330.554 313.955 329.787 314.389 328.79 314.389C327.294 314.389 326.303 313.405 326.284 311.724H333.123V311.014C333.123 307.569 331.052 306.054 328.636 306.054C325.824 306.054 323.989 308.119 323.989 311.148C323.989 314.229 325.798 316.192 328.758 316.192ZM326.29 310.164C326.361 308.911 327.288 307.857 328.668 307.857C329.998 307.857 330.893 308.828 330.905 310.164H326.29ZM336.675 302.909H334.361V316H336.675V302.909ZM341.16 316.198C342.7 316.198 343.621 315.476 344.042 314.651H344.119V316H346.344V309.429C346.344 306.834 344.228 306.054 342.355 306.054C340.29 306.054 338.705 306.974 338.194 308.764L340.354 309.071C340.584 308.4 341.236 307.825 342.368 307.825C343.442 307.825 344.03 308.374 344.03 309.339V309.378C344.03 310.043 343.333 310.075 341.601 310.26C339.696 310.464 337.874 311.033 337.874 313.245C337.874 315.175 339.287 316.198 341.16 316.198ZM341.761 314.498C340.795 314.498 340.105 314.057 340.105 313.207C340.105 312.318 340.878 311.947 341.914 311.8C342.521 311.717 343.736 311.564 344.036 311.321V312.478C344.036 313.571 343.154 314.498 341.761 314.498ZM350.264 310.247C350.264 308.828 351.121 308.01 352.342 308.01C353.537 308.01 354.253 308.796 354.253 310.107V316H356.567V309.749C356.573 307.396 355.231 306.054 353.205 306.054C351.734 306.054 350.724 306.757 350.277 307.85H350.162V306.182H347.95V316H350.264V310.247ZM362.482 316.192C364.949 316.192 366.522 314.728 366.688 312.644H364.476C364.278 313.699 363.517 314.306 362.501 314.306C361.056 314.306 360.123 313.098 360.123 311.091C360.123 309.109 361.076 307.92 362.501 307.92C363.613 307.92 364.297 308.636 364.476 309.582H366.688C366.528 307.454 364.866 306.054 362.469 306.054C359.593 306.054 357.777 308.131 357.777 311.129C357.777 314.102 359.548 316.192 362.482 316.192ZM372.214 316.192C374.503 316.192 376.075 315.073 376.484 313.366L374.324 313.124C374.011 313.955 373.243 314.389 372.246 314.389C370.751 314.389 369.76 313.405 369.741 311.724H376.58V311.014C376.58 307.569 374.509 306.054 372.093 306.054C369.28 306.054 367.446 308.119 367.446 311.148C367.446 314.229 369.255 316.192 372.214 316.192ZM369.747 310.164C369.817 308.911 370.744 307.857 372.125 307.857C373.454 307.857 374.349 308.828 374.362 310.164H369.747Z" fill="white" fill-opacity="0.5"/>
<path d="M46.2548 66.144C46.2548 67.8652 44.8486 69.2714 43.1274 69.2714C41.4061 69.2714 40 67.8652 40 66.144C40 64.4227 41.4061 63.0166 43.1274 63.0166H46.2548V66.144Z" fill="#E01E5A"/>
<path d="M47.8311 66.145C47.8311 64.4237 49.2372 63.0176 50.9584 63.0176C52.6797 63.0176 54.0858 64.4237 54.0858 66.145V73.9755C54.0858 75.6968 52.6797 77.1029 50.9584 77.1029C49.2372 77.1029 47.8311 75.6968 47.8311 73.9755V66.145Z" fill="#E01E5A"/>
<path d="M50.9584 53.5868C49.2372 53.5868 47.8311 52.1807 47.8311 50.4594C47.8311 48.7381 49.2372 47.332 50.9584 47.332C52.6797 47.332 54.0858 48.7381 54.0858 50.4594V53.5868H50.9584Z" fill="#36C5F0"/>
<path d="M50.9579 55.1631C52.6792 55.1631 54.0853 56.5692 54.0853 58.2905C54.0853 60.0117 52.6792 61.4178 50.9579 61.4178H43.1274C41.4061 61.4178 40 60.0117 40 58.2905C40 56.5692 41.4061 55.1631 43.1274 55.1631H50.9579Z" fill="#36C5F0"/>
<path d="M63.5166 58.2895C63.5166 56.5682 64.9227 55.1621 66.644 55.1621C68.3652 55.1621 69.7714 56.5682 69.7714 58.2895C69.7714 60.0108 68.3652 61.4169 66.644 61.4169H63.5166V58.2895Z" fill="#2EB67D"/>
<path d="M61.9403 58.29C61.9403 60.0112 60.5342 61.4174 58.8129 61.4174C57.0917 61.4174 55.6855 60.0112 55.6855 58.29V50.4594C55.6855 48.7381 57.0917 47.332 58.8129 47.332C60.5342 47.332 61.9403 48.7381 61.9403 50.4594V58.29Z" fill="#2EB67D"/>
<path d="M58.8129 70.8477C60.5342 70.8477 61.9403 72.2538 61.9403 73.975C61.9403 75.6963 60.5342 77.1024 58.8129 77.1024C57.0917 77.1024 55.6855 75.6963 55.6855 73.975V70.8477H58.8129Z" fill="#ECB22E"/>
<path d="M58.8129 69.2723C57.0917 69.2723 55.6855 67.8662 55.6855 66.145C55.6855 64.4237 57.0917 63.0176 58.8129 63.0176H66.6435C68.3648 63.0176 69.7709 64.4237 69.7709 66.145C69.7709 67.8662 68.3648 69.2723 66.6435 69.2723H58.8129Z" fill="#ECB22E"/>
<path d="M56.8111 142.016H61.375C61.2855 137.592 57.5142 134.46 51.9403 134.46C46.4432 134.46 42.3139 137.554 42.3267 142.182C42.3267 145.94 44.9986 148.101 49.3068 149.213L52.2855 149.98C55.1108 150.696 56.9773 151.578 56.9901 153.611C56.9773 155.848 54.8551 157.344 51.7614 157.344C48.7955 157.344 46.4943 156.014 46.3026 153.266H41.6364C41.8281 158.469 45.7017 161.396 51.7997 161.396C58.0767 161.396 61.7202 158.264 61.733 153.649C61.7202 149.111 57.9744 147.04 54.0369 146.107L51.5824 145.493C49.4347 144.982 47.108 144.074 47.1335 141.888C47.1463 139.919 48.9105 138.474 51.8764 138.474C54.7017 138.474 56.5682 139.791 56.8111 142.016ZM68.9446 134.818H64.3167V161H68.9446V134.818ZM77.914 161.396C80.995 161.396 82.8359 159.952 83.6797 158.303H83.8331V161H88.2819V147.858C88.2819 142.668 84.0504 141.108 80.3047 141.108C76.1754 141.108 73.0049 142.949 71.9822 146.528L76.3032 147.142C76.7635 145.8 78.0674 144.649 80.3302 144.649C82.478 144.649 83.6541 145.749 83.6541 147.679V147.756C83.6541 149.085 82.2606 149.149 78.7961 149.52C74.9865 149.929 71.343 151.067 71.343 155.49C71.343 159.351 74.1683 161.396 77.914 161.396ZM79.1157 157.996C77.1853 157.996 75.8047 157.114 75.8047 155.413C75.8047 153.636 77.3515 152.895 79.4226 152.601C80.637 152.435 83.066 152.128 83.6669 151.642V153.956C83.6669 156.142 81.9027 157.996 79.1157 157.996ZM100.061 161.384C104.995 161.384 108.14 158.456 108.473 154.288H104.049C103.653 156.398 102.132 157.612 100.099 157.612C97.2098 157.612 95.3434 155.196 95.3434 151.182C95.3434 147.219 97.2482 144.841 100.099 144.841C102.323 144.841 103.691 146.273 104.049 148.165H108.473C108.153 143.908 104.829 141.108 100.035 141.108C94.2823 141.108 90.6516 145.263 90.6516 151.259C90.6516 157.203 94.1928 161.384 100.061 161.384ZM110.833 161H115.461V154.403L117.148 152.601L123.157 161H128.692L120.638 149.839L128.245 141.364H122.837L115.78 149.251H115.461V134.818H110.833V161Z" fill="white" fill-opacity="0.5"/>
<path d="M64.9929 187.652C64.1875 181.835 59.7131 178.46 53.9091 178.46C47.0696 178.46 41.9176 183.446 41.9176 191.909C41.9176 200.359 47.0057 205.358 53.9091 205.358C60.1349 205.358 64.2642 201.331 64.9929 196.332L60.2116 196.307C59.6108 199.375 57.1051 201.101 53.973 201.101C49.7287 201.101 46.6861 197.918 46.6861 191.909C46.6861 186.003 49.7031 182.717 53.9858 182.717C57.169 182.717 59.6619 184.52 60.2116 187.652H64.9929ZM72.3196 193.494C72.3196 190.656 74.0838 189.02 76.5639 189.02C78.9929 189.02 80.4247 190.567 80.4247 193.213V205H85.0525V192.497C85.0525 187.754 82.3679 185.108 78.2898 185.108C75.2727 185.108 73.3551 186.476 72.4474 188.7H72.2173V178.818H67.6917V205H72.3196V193.494ZM93.9804 205.396C97.0614 205.396 98.9023 203.952 99.7461 202.303H99.8995V205H104.348V191.858C104.348 186.668 100.117 185.108 96.3711 185.108C92.2418 185.108 89.0713 186.949 88.0486 190.528L92.3696 191.142C92.8299 189.8 94.1338 188.649 96.3966 188.649C98.5444 188.649 99.7205 189.749 99.7205 191.679V191.756C99.7205 193.085 98.327 193.149 94.8625 193.52C91.0529 193.929 87.4094 195.067 87.4094 199.49C87.4094 203.351 90.2347 205.396 93.9804 205.396ZM95.1821 201.996C93.2517 201.996 91.8711 201.114 91.8711 199.413C91.8711 197.636 93.4179 196.895 95.489 196.601C96.7035 196.435 99.1324 196.128 99.7333 195.642V197.956C99.7333 200.142 97.9691 201.996 95.1821 201.996ZM112.19 193.494C112.19 190.656 113.903 189.02 116.344 189.02C118.735 189.02 120.167 190.592 120.167 193.213V205H124.795V192.497C124.807 187.793 122.123 185.108 118.07 185.108C115.13 185.108 113.11 186.514 112.215 188.7H111.985V185.364H107.562V205H112.19V193.494ZM132.687 193.494C132.687 190.656 134.4 189.02 136.842 189.02C139.233 189.02 140.664 190.592 140.664 193.213V205H145.292V192.497C145.305 187.793 142.62 185.108 138.568 185.108C135.627 185.108 133.608 186.514 132.713 188.7H132.483V185.364H128.059V205H132.687V193.494ZM157.25 205.384C161.827 205.384 164.972 203.146 165.79 199.733L161.469 199.247C160.842 200.909 159.308 201.778 157.314 201.778C154.322 201.778 152.341 199.81 152.302 196.447H165.981V195.028C165.981 188.138 161.839 185.108 157.007 185.108C151.382 185.108 147.713 189.237 147.713 195.297C147.713 201.459 151.331 205.384 157.25 205.384ZM152.315 193.328C152.456 190.822 154.31 188.713 157.071 188.713C159.73 188.713 161.52 190.656 161.545 193.328H152.315ZM173.084 178.818H168.457V205H173.084V178.818ZM191.923 190.554C191.284 187.23 188.625 185.108 184.023 185.108C179.293 185.108 176.071 187.435 176.084 191.065C176.071 193.929 177.835 195.821 181.606 196.601L184.956 197.304C186.758 197.7 187.602 198.429 187.602 199.541C187.602 200.884 186.145 201.893 183.946 201.893C181.824 201.893 180.443 200.973 180.047 199.209L175.534 199.643C176.109 203.249 179.139 205.384 183.959 205.384C188.868 205.384 192.332 202.839 192.345 199.119C192.332 196.32 190.53 194.607 186.822 193.801L183.473 193.085C181.479 192.638 180.686 191.947 180.699 190.81C180.686 189.48 182.156 188.56 184.087 188.56C186.221 188.56 187.346 189.723 187.704 191.014L191.923 190.554ZM212.157 185.364H208.079V183.817C208.079 182.283 208.718 181.426 210.444 181.426C211.172 181.426 211.786 181.592 212.17 181.707L213.103 178.128C212.502 177.923 211.185 177.591 209.587 177.591C206.174 177.591 203.451 179.547 203.451 183.51V185.364H200.549V188.943H203.451V205H208.079V188.943H212.157V185.364ZM222.168 205.384C227.921 205.384 231.577 201.331 231.577 195.259C231.577 189.173 227.921 185.108 222.168 185.108C216.415 185.108 212.759 189.173 212.759 195.259C212.759 201.331 216.415 205.384 222.168 205.384ZM222.194 201.676C219.011 201.676 217.451 198.838 217.451 195.246C217.451 191.653 219.011 188.777 222.194 188.777C225.326 188.777 226.886 191.653 226.886 195.246C226.886 198.838 225.326 201.676 222.194 201.676ZM234.065 205H238.693V193.456C238.693 190.963 240.572 189.199 243.116 189.199C243.896 189.199 244.868 189.339 245.264 189.467V185.21C244.842 185.134 244.113 185.082 243.602 185.082C241.352 185.082 239.473 186.361 238.757 188.636H238.552V185.364H234.065V205ZM56.8111 230.016H61.375C61.2855 225.592 57.5142 222.46 51.9403 222.46C46.4432 222.46 42.3139 225.554 42.3267 230.182C42.3267 233.94 44.9986 236.101 49.3068 237.213L52.2855 237.98C55.1108 238.696 56.9773 239.578 56.9901 241.611C56.9773 243.848 54.8551 245.344 51.7614 245.344C48.7955 245.344 46.4943 244.014 46.3026 241.266H41.6364C41.8281 246.469 45.7017 249.396 51.7997 249.396C58.0767 249.396 61.7202 246.264 61.733 241.649C61.7202 237.111 57.9744 235.04 54.0369 234.107L51.5824 233.493C49.4347 232.982 47.108 232.074 47.1335 229.888C47.1463 227.919 48.9105 226.474 51.8764 226.474C54.7017 226.474 56.5682 227.791 56.8111 230.016ZM68.9446 222.818H64.3167V249H68.9446V222.818ZM77.914 249.396C80.995 249.396 82.8359 247.952 83.6797 246.303H83.8331V249H88.2819V235.858C88.2819 230.668 84.0504 229.108 80.3047 229.108C76.1754 229.108 73.0049 230.949 71.9822 234.528L76.3032 235.142C76.7635 233.8 78.0674 232.649 80.3302 232.649C82.478 232.649 83.6541 233.749 83.6541 235.679V235.756C83.6541 237.085 82.2606 237.149 78.7961 237.52C74.9865 237.929 71.343 239.067 71.343 243.49C71.343 247.351 74.1683 249.396 77.914 249.396ZM79.1157 245.996C77.1853 245.996 75.8047 245.114 75.8047 243.413C75.8047 241.636 77.3515 240.895 79.4226 240.601C80.637 240.435 83.066 240.128 83.6669 239.642V241.956C83.6669 244.142 81.9027 245.996 79.1157 245.996ZM100.061 249.384C104.995 249.384 108.14 246.456 108.473 242.288H104.049C103.653 244.398 102.132 245.612 100.099 245.612C97.2098 245.612 95.3434 243.196 95.3434 239.182C95.3434 235.219 97.2482 232.841 100.099 232.841C102.323 232.841 103.691 234.273 104.049 236.165H108.473C108.153 231.908 104.829 229.108 100.035 229.108C94.2823 229.108 90.6516 233.263 90.6516 239.259C90.6516 245.203 94.1928 249.384 100.061 249.384ZM110.833 249H115.461V242.403L117.148 240.601L123.157 249H128.692L120.638 237.839L128.245 229.364H122.837L115.78 237.251H115.461V222.818H110.833V249Z" fill="white"/>
</svg>
