<svg width="85" height="31" viewBox="0 0 85 31" fill="none" xmlns="http://www.w3.org/2000/svg">
<rect x="55.2295" width="29.7707" height="29.7707" rx="7.38615" fill="#372C47"/>
<rect x="55.3482" y="0.118706" width="29.5333" height="29.5333" rx="7.26745" stroke="#979797" stroke-opacity="0.295913" stroke-width="0.237412"/>
<g filter="url(#filter0_bi)">
<path fill-rule="evenodd" clip-rule="evenodd" d="M76.6778 9.33925C75.2284 7.95668 73.3296 7.19507 71.3295 7.19507C67.0576 7.19507 63.5818 10.6704 63.5818 14.9423C63.5818 19.2142 67.0576 22.6901 71.3295 22.6901C73.4697 22.6901 75.4593 21.8382 76.9296 20.2921L77.9476 21.2597C76.2094 23.0876 73.8563 24.0946 71.3295 24.0946C66.2816 24.0946 62.1768 19.9873 62.1768 14.9418C62.1768 9.89487 66.2841 5.78906 71.3295 5.78906C73.6932 5.78906 75.9361 6.68883 77.6479 8.32427L76.6778 9.33925ZM71.3179 21.2505C67.8521 21.2505 65.033 18.4304 65.033 14.9646C65.033 11.4988 67.8521 8.67873 71.3179 8.67873C72.9422 8.67873 74.4822 9.29685 75.656 10.4202L76.2663 9.78144C74.927 8.501 73.1701 7.79606 71.3179 7.79606C67.365 7.79606 64.1503 11.0124 64.1503 14.9646C64.1503 18.9175 67.3663 22.1332 71.3179 22.1332C73.298 22.1332 75.1407 21.3449 76.503 19.913L75.862 19.3046C74.6681 20.5594 73.0541 21.2505 71.3179 21.2505ZM71.3456 10.1135C72.6025 10.1135 73.7958 10.5922 74.7067 11.4611L75.3163 10.8232C74.2406 9.79539 72.831 9.22993 71.3456 9.22993C68.1747 9.22993 65.5935 11.8102 65.5935 14.982C65.5935 18.1529 68.1732 20.7341 71.3456 20.7341C72.9335 20.7341 74.4123 20.1013 75.5047 18.9525L74.865 18.3444C73.9409 19.3161 72.6906 19.8515 71.3456 19.8515C68.6609 19.8515 66.4765 17.667 66.4765 14.9823C66.4765 12.2977 68.6609 10.1135 71.3456 10.1135Z" fill="white" fill-opacity="0.2"/>
<path fill-rule="evenodd" clip-rule="evenodd" d="M76.6778 9.33925C75.2284 7.95668 73.3296 7.19507 71.3295 7.19507C67.0576 7.19507 63.5818 10.6704 63.5818 14.9423C63.5818 19.2142 67.0576 22.6901 71.3295 22.6901C73.4697 22.6901 75.4593 21.8382 76.9296 20.2921L77.9476 21.2597C76.2094 23.0876 73.8563 24.0946 71.3295 24.0946C66.2816 24.0946 62.1768 19.9873 62.1768 14.9418C62.1768 9.89487 66.2841 5.78906 71.3295 5.78906C73.6932 5.78906 75.9361 6.68883 77.6479 8.32427L76.6778 9.33925ZM71.3179 21.2505C67.8521 21.2505 65.033 18.4304 65.033 14.9646C65.033 11.4988 67.8521 8.67873 71.3179 8.67873C72.9422 8.67873 74.4822 9.29685 75.656 10.4202L76.2663 9.78144C74.927 8.501 73.1701 7.79606 71.3179 7.79606C67.365 7.79606 64.1503 11.0124 64.1503 14.9646C64.1503 18.9175 67.3663 22.1332 71.3179 22.1332C73.298 22.1332 75.1407 21.3449 76.503 19.913L75.862 19.3046C74.6681 20.5594 73.0541 21.2505 71.3179 21.2505ZM71.3456 10.1135C72.6025 10.1135 73.7958 10.5922 74.7067 11.4611L75.3163 10.8232C74.2406 9.79539 72.831 9.22993 71.3456 9.22993C68.1747 9.22993 65.5935 11.8102 65.5935 14.982C65.5935 18.1529 68.1732 20.7341 71.3456 20.7341C72.9335 20.7341 74.4123 20.1013 75.5047 18.9525L74.865 18.3444C73.9409 19.3161 72.6906 19.8515 71.3456 19.8515C68.6609 19.8515 66.4765 17.667 66.4765 14.9823C66.4765 12.2977 68.6609 10.1135 71.3456 10.1135Z" fill="url(#paint0_linear)" fill-opacity="0.75"/>
</g>
<path d="M6.25476 19.144C6.25476 20.8652 4.84865 22.2714 3.12738 22.2714C1.40611 22.2714 0 20.8652 0 19.144C0 17.4227 1.40611 16.0166 3.12738 16.0166H6.25476V19.144Z" fill="#E01E5A"/>
<path d="M7.83105 19.145C7.83105 17.4237 9.23716 16.0176 10.9584 16.0176C12.6797 16.0176 14.0858 17.4237 14.0858 19.145V26.9755C14.0858 28.6968 12.6797 30.1029 10.9584 30.1029C9.23716 30.1029 7.83105 28.6968 7.83105 26.9755V19.145Z" fill="#E01E5A"/>
<path d="M10.9584 6.58679C9.23716 6.58679 7.83105 5.18068 7.83105 3.45941C7.83105 1.73814 9.23716 0.332031 10.9584 0.332031C12.6797 0.332031 14.0858 1.73814 14.0858 3.45941V6.58679H10.9584Z" fill="#36C5F0"/>
<path d="M10.9579 8.16309C12.6792 8.16309 14.0853 9.56919 14.0853 11.2905C14.0853 13.0117 12.6792 14.4178 10.9579 14.4178H3.12738C1.40611 14.4178 0 13.0117 0 11.2905C0 9.56919 1.40611 8.16309 3.12738 8.16309H10.9579Z" fill="#36C5F0"/>
<path d="M23.5166 11.29C23.5166 9.56871 24.9227 8.1626 26.644 8.1626C28.3652 8.1626 29.7714 9.56871 29.7714 11.29C29.7714 13.0112 28.3652 14.4174 26.644 14.4174H23.5166V11.29Z" fill="#2EB67D"/>
<path d="M21.9403 11.29C21.9403 13.0112 20.5342 14.4174 18.8129 14.4174C17.0917 14.4174 15.6855 13.0112 15.6855 11.29V3.45941C15.6855 1.73814 17.0917 0.332031 18.8129 0.332031C20.5342 0.332031 21.9403 1.73814 21.9403 3.45941V11.29Z" fill="#2EB67D"/>
<path d="M18.8129 23.8477C20.5342 23.8477 21.9403 25.2538 21.9403 26.975C21.9403 28.6963 20.5342 30.1024 18.8129 30.1024C17.0917 30.1024 15.6855 28.6963 15.6855 26.975V23.8477H18.8129Z" fill="#ECB22E"/>
<path d="M18.8129 22.2723C17.0917 22.2723 15.6855 20.8662 15.6855 19.145C15.6855 17.4237 17.0917 16.0176 18.8129 16.0176H26.6435C28.3648 16.0176 29.7709 17.4237 29.7709 19.145C29.7709 20.8662 28.3648 22.2723 26.6435 22.2723H18.8129Z" fill="#ECB22E"/>
<path fill-rule="evenodd" clip-rule="evenodd" d="M39.5788 11.8608L42.5009 14.7535L45.4231 11.8608L45.703 12.138L42.7809 15.0306L45.703 17.9232L45.4231 18.2004L42.5009 15.3077L39.5788 18.2004L39.2988 17.9232L42.221 15.0306L39.2988 12.138L39.5788 11.8608Z" fill="white" stroke="white" stroke-width="1.19083" stroke-linejoin="round"/>
<defs>
<filter id="filter0_bi" x="57.1573" y="0.769651" width="25.8097" height="28.3444" filterUnits="userSpaceOnUse" color-interpolation-filters="sRGB">
<feFlood flood-opacity="0" result="BackgroundImageFix"/>
<feGaussianBlur in="BackgroundImage" stdDeviation="2.50971"/>
<feComposite in2="SourceAlpha" operator="in" result="effect1_backgroundBlur"/>
<feBlend mode="normal" in="SourceGraphic" in2="effect1_backgroundBlur" result="shape"/>
<feColorMatrix in="SourceAlpha" type="matrix" values="0 0 0 0 0 0 0 0 0 0 0 0 0 0 0 0 0 0 127 0" result="hardAlpha"/>
<feOffset/>
<feGaussianBlur stdDeviation="0.237412"/>
<feComposite in2="hardAlpha" operator="arithmetic" k2="-1" k3="1"/>
<feColorMatrix type="matrix" values="0 0 0 0 0 0 0 0 0 0 0 0 0 0 0 0 0 0 0.5 0"/>
<feBlend mode="normal" in2="shape" result="effect2_innerShadow"/>
</filter>
<linearGradient id="paint0_linear" x1="54.2125" y1="15.1249" x2="72.6518" y2="30.8552" gradientUnits="userSpaceOnUse">
<stop stop-color="#23A4AE"/>
<stop offset="0.593027" stop-color="#52C491"/>
<stop offset="1" stop-color="#6DD780"/>
</linearGradient>
</defs>
</svg>
