<svg width="440" height="365" viewBox="0 0 440 365" fill="none" xmlns="http://www.w3.org/2000/svg">
<rect width="440" height="365" rx="8" fill="#8C78A4"/>
<path d="M46.5327 302.295H44.5064L40.2876 317.969H42.3139L46.5327 302.295ZM51.1363 316H53.5078V311.577H56.0135C59.0369 311.577 60.6605 309.761 60.6605 307.243C60.6605 304.744 59.0561 302.909 56.0454 302.909H51.1363V316ZM53.5078 309.627V304.891H55.6811C57.4581 304.891 58.2443 305.849 58.2443 307.243C58.2443 308.636 57.4581 309.627 55.6939 309.627H53.5078ZM61.8981 316H64.212V310.228C64.212 308.982 65.1516 308.099 66.4236 308.099C66.8135 308.099 67.2993 308.17 67.4975 308.234V306.105C67.2866 306.067 66.9222 306.041 66.6665 306.041C65.5415 306.041 64.6019 306.68 64.2439 307.818H64.1417V306.182H61.8981V316ZM72.1932 316.192C75.0696 316.192 76.8977 314.165 76.8977 311.129C76.8977 308.087 75.0696 306.054 72.1932 306.054C69.3167 306.054 67.4886 308.087 67.4886 311.129C67.4886 314.165 69.3167 316.192 72.1932 316.192ZM72.2059 314.338C70.6143 314.338 69.8345 312.919 69.8345 311.123C69.8345 309.327 70.6143 307.888 72.2059 307.888C73.772 307.888 74.5518 309.327 74.5518 311.123C74.5518 312.919 73.772 314.338 72.2059 314.338ZM78.1417 306.182V316.531C78.1417 317.355 77.7901 317.796 76.9016 317.796C76.7865 317.796 76.6971 317.79 76.5692 317.783V319.669C76.7354 319.682 76.876 319.682 77.0422 319.682C79.2091 319.682 80.4556 318.685 80.4556 316.562V306.182H78.1417ZM79.2922 304.788C80.0273 304.788 80.6282 304.226 80.6282 303.536C80.6282 302.839 80.0273 302.276 79.2922 302.276C78.5507 302.276 77.9499 302.839 77.9499 303.536C77.9499 304.226 78.5507 304.788 79.2922 304.788ZM86.4616 316.192C88.75 316.192 90.3224 315.073 90.7315 313.366L88.571 313.124C88.2578 313.955 87.4907 314.389 86.4936 314.389C84.9978 314.389 84.0071 313.405 83.9879 311.724H90.8274V311.014C90.8274 307.569 88.7563 306.054 86.3402 306.054C83.5277 306.054 81.6931 308.119 81.6931 311.148C81.6931 314.229 83.5021 316.192 86.4616 316.192ZM83.9943 310.164C84.0646 308.911 84.9914 307.857 86.3721 307.857C87.7017 307.857 88.5965 308.828 88.6093 310.164H83.9943ZM96.3476 316.192C98.8149 316.192 100.387 314.728 100.554 312.644H98.3419C98.1438 313.699 97.3831 314.306 96.3668 314.306C94.9222 314.306 93.9889 313.098 93.9889 311.091C93.9889 309.109 94.9414 307.92 96.3668 307.92C97.479 307.92 98.1629 308.636 98.3419 309.582H100.554C100.394 307.454 98.7318 306.054 96.3348 306.054C93.4584 306.054 91.6431 308.131 91.6431 311.129C91.6431 314.102 93.4137 316.192 96.3476 316.192ZM106.636 306.182H104.7V303.83H102.386V306.182H100.992V307.972H102.386V313.43C102.373 315.278 103.715 316.185 105.454 316.134C106.112 316.115 106.566 315.987 106.815 315.904L106.425 314.095C106.298 314.127 106.035 314.185 105.748 314.185C105.166 314.185 104.7 313.98 104.7 313.047V307.972H106.636V306.182ZM109.277 316.141C110.031 316.141 110.677 315.514 110.683 314.734C110.677 313.967 110.031 313.341 109.277 313.341C108.497 313.341 107.864 313.967 107.871 314.734C107.864 315.514 108.497 316.141 109.277 316.141ZM109.277 309.129C110.031 309.129 110.677 308.502 110.683 307.722C110.677 306.955 110.031 306.329 109.277 306.329C108.497 306.329 107.864 306.955 107.871 307.722C107.864 308.502 108.497 309.129 109.277 309.129ZM121.396 302.909H119.14L115.886 304.999V307.173L118.948 305.217H119.025V316H121.396V302.909ZM129.209 319.682C131.011 319.682 132.053 318.755 132.609 317.189L136.553 306.195L134.079 306.182L131.81 313.597H131.708L129.445 306.182H126.99L130.551 316.205L130.353 316.735C129.924 317.854 129.247 317.93 128.237 317.636L127.7 319.439C128.013 319.567 128.576 319.682 129.209 319.682ZM141.452 316.192C143.74 316.192 145.312 315.073 145.721 313.366L143.561 313.124C143.248 313.955 142.481 314.389 141.484 314.389C139.988 314.389 138.997 313.405 138.978 311.724H145.817V311.014C145.817 307.569 143.746 306.054 141.33 306.054C138.518 306.054 136.683 308.119 136.683 311.148C136.683 314.229 138.492 316.192 141.452 316.192ZM138.984 310.164C139.055 308.911 139.981 307.857 141.362 307.857C142.692 307.857 143.587 308.828 143.599 310.164H138.984ZM149.88 316.198C151.421 316.198 152.341 315.476 152.763 314.651H152.84V316H155.064V309.429C155.064 306.834 152.948 306.054 151.076 306.054C149.011 306.054 147.426 306.974 146.914 308.764L149.075 309.071C149.305 308.4 149.957 307.825 151.088 307.825C152.162 307.825 152.75 308.374 152.75 309.339V309.378C152.75 310.043 152.054 310.075 150.321 310.26C148.416 310.464 146.595 311.033 146.595 313.245C146.595 315.175 148.007 316.198 149.88 316.198ZM150.481 314.498C149.516 314.498 148.826 314.057 148.826 313.207C148.826 312.318 149.599 311.947 150.634 311.8C151.242 311.717 152.456 311.564 152.757 311.321V312.478C152.757 313.571 151.875 314.498 150.481 314.498ZM156.671 316H158.985V310.228C158.985 308.982 159.924 308.099 161.196 308.099C161.586 308.099 162.072 308.17 162.27 308.234V306.105C162.059 306.067 161.695 306.041 161.439 306.041C160.314 306.041 159.375 306.68 159.017 307.818H158.914V306.182H156.671V316Z" fill="white" fill-opacity="0.5"/>
<path d="M185.533 302.295H183.506L179.288 317.969H181.314L185.533 302.295ZM189.561 304.897H193.607V316H195.96V304.897H200.006V302.909H189.561V304.897ZM204.12 316.192C206.408 316.192 207.98 315.073 208.39 313.366L206.229 313.124C205.916 313.955 205.149 314.389 204.152 314.389C202.656 314.389 201.665 313.405 201.646 311.724H208.485V311.014C208.485 307.569 206.414 306.054 203.998 306.054C201.186 306.054 199.351 308.119 199.351 311.148C199.351 314.229 201.16 316.192 204.12 316.192ZM201.652 310.164C201.723 308.911 202.649 307.857 204.03 307.857C205.36 307.857 206.255 308.828 206.267 310.164H201.652ZM212.548 316.198C214.089 316.198 215.009 315.476 215.431 314.651H215.508V316H217.732V309.429C217.732 306.834 215.616 306.054 213.744 306.054C211.679 306.054 210.094 306.974 209.582 308.764L211.743 309.071C211.973 308.4 212.625 307.825 213.756 307.825C214.83 307.825 215.418 308.374 215.418 309.339V309.378C215.418 310.043 214.722 310.075 212.989 310.26C211.084 310.464 209.263 311.033 209.263 313.245C209.263 315.175 210.675 316.198 212.548 316.198ZM213.149 314.498C212.184 314.498 211.494 314.057 211.494 313.207C211.494 312.318 212.267 311.947 213.303 311.8C213.91 311.717 215.124 311.564 215.425 311.321V312.478C215.425 313.571 214.543 314.498 213.149 314.498ZM219.339 316H221.653V310.03C221.653 308.822 222.458 308.004 223.455 308.004C224.433 308.004 225.105 308.662 225.105 309.672V316H227.374V309.876C227.374 308.771 228.032 308.004 229.151 308.004C230.084 308.004 230.825 308.553 230.825 309.768V316H233.146V309.41C233.146 307.217 231.88 306.054 230.078 306.054C228.652 306.054 227.565 306.757 227.131 307.85H227.029C226.651 306.738 225.699 306.054 224.376 306.054C223.059 306.054 222.075 306.732 221.666 307.85H221.551V306.182H219.339V316ZM245.735 306.508H248.017C247.972 304.296 246.086 302.73 243.299 302.73C240.551 302.73 238.486 304.277 238.492 306.591C238.492 308.47 239.828 309.55 241.983 310.107L243.472 310.49C244.885 310.848 245.818 311.289 245.824 312.305C245.818 313.424 244.757 314.172 243.21 314.172C241.727 314.172 240.576 313.507 240.48 312.133H238.147C238.243 314.734 240.18 316.198 243.229 316.198C246.367 316.198 248.189 314.632 248.196 312.325C248.189 310.055 246.316 309.02 244.348 308.553L243.12 308.246C242.046 307.991 240.883 307.537 240.896 306.444C240.902 305.46 241.784 304.737 243.267 304.737C244.68 304.737 245.613 305.396 245.735 306.508ZM249.488 316H251.801V306.182H249.488V316ZM250.651 304.788C251.386 304.788 251.987 304.226 251.987 303.536C251.987 302.839 251.386 302.276 250.651 302.276C249.909 302.276 249.309 302.839 249.309 303.536C249.309 304.226 249.909 304.788 250.651 304.788ZM253.333 316H261.393V314.082H256.408V313.999L261.227 307.761V306.182H253.499V308.099H258.396V308.183L253.333 314.53V316ZM266.914 316.192C269.202 316.192 270.774 315.073 271.184 313.366L269.023 313.124C268.71 313.955 267.943 314.389 266.946 314.389C265.45 314.389 264.459 313.405 264.44 311.724H271.279V311.014C271.279 307.569 269.208 306.054 266.792 306.054C263.98 306.054 262.145 308.119 262.145 311.148C262.145 314.229 263.954 316.192 266.914 316.192ZM264.446 310.164C264.517 308.911 265.443 307.857 266.824 307.857C268.154 307.857 269.049 308.828 269.061 310.164H264.446ZM273.942 316.141C274.697 316.141 275.342 315.514 275.349 314.734C275.342 313.967 274.697 313.341 273.942 313.341C273.163 313.341 272.53 313.967 272.536 314.734C272.53 315.514 273.163 316.141 273.942 316.141ZM273.942 309.129C274.697 309.129 275.342 308.502 275.349 307.722C275.342 306.955 274.697 306.329 273.942 306.329C273.163 306.329 272.53 306.955 272.536 307.722C272.53 308.502 273.163 309.129 273.942 309.129ZM286.062 302.909H283.805L280.552 304.999V307.173L283.613 305.217H283.69V316H286.062V302.909ZM293.504 316.249C296.662 316.256 298.547 313.763 298.547 309.467C298.547 305.197 296.649 302.73 293.504 302.73C290.359 302.73 288.467 305.191 288.461 309.467C288.461 313.756 290.346 316.249 293.504 316.249ZM293.504 314.249C291.874 314.249 290.851 312.612 290.858 309.467C290.864 306.348 291.881 304.705 293.504 304.705C295.134 304.705 296.15 306.348 296.157 309.467C296.157 312.612 295.141 314.249 293.504 314.249Z" fill="white" fill-opacity="0.5"/>
<rect x="95.2285" y="47" width="29.7707" height="29.7707" rx="7.38615" fill="#372C47"/>
<rect x="95.3472" y="47.1187" width="29.5333" height="29.5333" rx="7.26745" stroke="#979797" stroke-opacity="0.295913" stroke-width="0.237412"/>
<g filter="url(#filter0_bi)">
<path fill-rule="evenodd" clip-rule="evenodd" d="M116.677 56.339C115.227 54.9564 113.329 54.1948 111.329 54.1948C107.057 54.1948 103.581 57.6702 103.581 61.9421C103.581 66.214 107.057 69.6899 111.329 69.6899C113.469 69.6899 115.458 68.838 116.929 67.2918L117.947 68.2594C116.208 70.0874 113.855 71.0944 111.329 71.0944C106.281 71.0944 102.176 66.9871 102.176 61.9416C102.176 56.8946 106.283 52.7888 111.329 52.7888C113.692 52.7888 115.935 53.6886 117.647 55.324L116.677 56.339ZM111.317 68.2503C107.851 68.2503 105.032 65.4302 105.032 61.9644C105.032 58.4986 107.851 55.6785 111.317 55.6785C112.941 55.6785 114.481 56.2966 115.655 57.42L116.265 56.7812C114.926 55.5008 113.169 54.7958 111.317 54.7958C107.364 54.7958 104.149 58.0121 104.149 61.9644C104.149 65.9173 107.365 69.1329 111.317 69.1329C113.297 69.1329 115.14 68.3446 116.502 66.9128L115.861 66.3044C114.667 67.5591 113.053 68.2503 111.317 68.2503ZM111.345 57.1133C112.602 57.1133 113.795 57.5919 114.706 58.4608L115.315 57.8229C114.24 56.7952 112.83 56.2297 111.345 56.2297C108.174 56.2297 105.592 58.81 105.592 61.9818C105.592 65.1526 108.172 67.7339 111.345 67.7339C112.933 67.7339 114.411 67.101 115.504 65.9522L114.864 65.3441C113.94 66.3158 112.69 66.8512 111.345 66.8512C108.66 66.8512 106.475 64.6668 106.475 61.9821C106.475 59.2974 108.66 57.1133 111.345 57.1133Z" fill="white" fill-opacity="0.2"/>
<path fill-rule="evenodd" clip-rule="evenodd" d="M116.677 56.339C115.227 54.9564 113.329 54.1948 111.329 54.1948C107.057 54.1948 103.581 57.6702 103.581 61.9421C103.581 66.214 107.057 69.6899 111.329 69.6899C113.469 69.6899 115.458 68.838 116.929 67.2918L117.947 68.2594C116.208 70.0874 113.855 71.0944 111.329 71.0944C106.281 71.0944 102.176 66.9871 102.176 61.9416C102.176 56.8946 106.283 52.7888 111.329 52.7888C113.692 52.7888 115.935 53.6886 117.647 55.324L116.677 56.339ZM111.317 68.2503C107.851 68.2503 105.032 65.4302 105.032 61.9644C105.032 58.4986 107.851 55.6785 111.317 55.6785C112.941 55.6785 114.481 56.2966 115.655 57.42L116.265 56.7812C114.926 55.5008 113.169 54.7958 111.317 54.7958C107.364 54.7958 104.149 58.0121 104.149 61.9644C104.149 65.9173 107.365 69.1329 111.317 69.1329C113.297 69.1329 115.14 68.3446 116.502 66.9128L115.861 66.3044C114.667 67.5591 113.053 68.2503 111.317 68.2503ZM111.345 57.1133C112.602 57.1133 113.795 57.5919 114.706 58.4608L115.315 57.8229C114.24 56.7952 112.83 56.2297 111.345 56.2297C108.174 56.2297 105.592 58.81 105.592 61.9818C105.592 65.1526 108.172 67.7339 111.345 67.7339C112.933 67.7339 114.411 67.101 115.504 65.9522L114.864 65.3441C113.94 66.3158 112.69 66.8512 111.345 66.8512C108.66 66.8512 106.475 64.6668 106.475 61.9821C106.475 59.2974 108.66 57.1133 111.345 57.1133Z" fill="url(#paint0_linear)" fill-opacity="0.75"/>
</g>
<path d="M46.2548 66.1437C46.2548 67.865 44.8486 69.2711 43.1274 69.2711C41.4061 69.2711 40 67.865 40 66.1437C40 64.4225 41.4061 63.0164 43.1274 63.0164H46.2548V66.1437Z" fill="#E01E5A"/>
<path d="M47.8301 66.1447C47.8301 64.4234 49.2362 63.0173 50.9575 63.0173C52.6787 63.0173 54.0848 64.4234 54.0848 66.1447V73.9753C54.0848 75.6965 52.6787 77.1027 50.9575 77.1027C49.2362 77.1027 47.8301 75.6965 47.8301 73.9753V66.1447Z" fill="#E01E5A"/>
<path d="M50.9575 53.5865C49.2362 53.5865 47.8301 52.1804 47.8301 50.4592C47.8301 48.7379 49.2362 47.3318 50.9575 47.3318C52.6787 47.3318 54.0848 48.7379 54.0848 50.4592V53.5865H50.9575Z" fill="#36C5F0"/>
<path d="M50.9579 55.1628C52.6792 55.1628 54.0853 56.5689 54.0853 58.2902C54.0853 60.0115 52.6792 61.4176 50.9579 61.4176H43.1274C41.4061 61.4176 40 60.0115 40 58.2902C40 56.5689 41.4061 55.1628 43.1274 55.1628H50.9579Z" fill="#36C5F0"/>
<path d="M63.5176 58.2895C63.5176 56.5682 64.9237 55.1621 66.645 55.1621C68.3662 55.1621 69.7723 56.5682 69.7723 58.2895C69.7723 60.0108 68.3662 61.4169 66.645 61.4169H63.5176V58.2895Z" fill="#2EB67D"/>
<path d="M61.9403 58.2897C61.9403 60.011 60.5342 61.4171 58.8129 61.4171C57.0917 61.4171 55.6855 60.011 55.6855 58.2897V50.4592C55.6855 48.7379 57.0917 47.3318 58.8129 47.3318C60.5342 47.3318 61.9403 48.7379 61.9403 50.4592V58.2897Z" fill="#2EB67D"/>
<path d="M58.8129 70.8477C60.5342 70.8477 61.9403 72.2538 61.9403 73.975C61.9403 75.6963 60.5342 77.1024 58.8129 77.1024C57.0917 77.1024 55.6855 75.6963 55.6855 73.975V70.8477H58.8129Z" fill="#ECB22E"/>
<path d="M58.8129 69.2721C57.0917 69.2721 55.6855 67.866 55.6855 66.1447C55.6855 64.4234 57.0917 63.0173 58.8129 63.0173H66.6435C68.3648 63.0173 69.7709 64.4234 69.7709 66.1447C69.7709 67.866 68.3648 69.2721 66.6435 69.2721H58.8129Z" fill="#ECB22E"/>
<path fill-rule="evenodd" clip-rule="evenodd" d="M79.5788 58.8606L82.5009 61.7532L85.4231 58.8606L85.703 59.1377L82.7809 62.0304L85.703 64.923L85.4231 65.2001L82.5009 62.3075L79.5788 65.2001L79.2988 64.923L82.221 62.0304L79.2988 59.1377L79.5788 58.8606Z" fill="white" stroke="white" stroke-width="1.19083" stroke-linejoin="round"/>
<path d="M56.8111 142.016H61.375C61.2855 137.592 57.5142 134.46 51.9403 134.46C46.4432 134.46 42.3139 137.554 42.3267 142.182C42.3267 145.94 44.9986 148.101 49.3068 149.213L52.2855 149.98C55.1108 150.696 56.9773 151.578 56.9901 153.611C56.9773 155.848 54.8551 157.344 51.7614 157.344C48.7955 157.344 46.4943 156.014 46.3026 153.266H41.6364C41.8281 158.469 45.7017 161.396 51.7997 161.396C58.0767 161.396 61.7202 158.264 61.733 153.649C61.7202 149.111 57.9744 147.04 54.0369 146.107L51.5824 145.493C49.4347 144.982 47.108 144.074 47.1335 141.888C47.1463 139.919 48.9105 138.474 51.8764 138.474C54.7017 138.474 56.5682 139.791 56.8111 142.016ZM68.9446 134.818H64.3167V161H68.9446V134.818ZM77.914 161.396C80.995 161.396 82.8359 159.952 83.6797 158.303H83.8331V161H88.2819V147.858C88.2819 142.668 84.0504 141.108 80.3047 141.108C76.1754 141.108 73.0049 142.949 71.9822 146.528L76.3032 147.142C76.7635 145.8 78.0674 144.649 80.3302 144.649C82.478 144.649 83.6541 145.749 83.6541 147.679V147.756C83.6541 149.085 82.2606 149.149 78.7961 149.52C74.9865 149.929 71.343 151.067 71.343 155.49C71.343 159.351 74.1683 161.396 77.914 161.396ZM79.1157 157.996C77.1853 157.996 75.8047 157.114 75.8047 155.413C75.8047 153.636 77.3515 152.895 79.4226 152.601C80.637 152.435 83.066 152.128 83.6669 151.642V153.956C83.6669 156.142 81.9027 157.996 79.1157 157.996ZM100.061 161.384C104.995 161.384 108.14 158.456 108.473 154.288H104.049C103.653 156.398 102.132 157.612 100.099 157.612C97.2098 157.612 95.3434 155.196 95.3434 151.182C95.3434 147.219 97.2482 144.841 100.099 144.841C102.323 144.841 103.691 146.273 104.049 148.165H108.473C108.153 143.908 104.829 141.108 100.035 141.108C94.2823 141.108 90.6516 145.263 90.6516 151.259C90.6516 157.203 94.1928 161.384 100.061 161.384ZM110.833 161H115.461V154.403L117.148 152.601L123.157 161H128.692L120.638 149.839L128.245 141.364H122.837L115.78 149.251H115.461V134.818H110.833V161Z" fill="white" fill-opacity="0.5"/>
<path d="M64.9929 187.652C64.1875 181.835 59.7131 178.46 53.9091 178.46C47.0696 178.46 41.9176 183.446 41.9176 191.909C41.9176 200.359 47.0057 205.358 53.9091 205.358C60.1349 205.358 64.2642 201.331 64.9929 196.332L60.2116 196.307C59.6108 199.375 57.1051 201.101 53.973 201.101C49.7287 201.101 46.6861 197.918 46.6861 191.909C46.6861 186.003 49.7031 182.717 53.9858 182.717C57.169 182.717 59.6619 184.52 60.2116 187.652H64.9929ZM72.3196 193.494C72.3196 190.656 74.0838 189.02 76.5639 189.02C78.9929 189.02 80.4247 190.567 80.4247 193.213V205H85.0525V192.497C85.0525 187.754 82.3679 185.108 78.2898 185.108C75.2727 185.108 73.3551 186.476 72.4474 188.7H72.2173V178.818H67.6917V205H72.3196V193.494ZM93.9804 205.396C97.0614 205.396 98.9023 203.952 99.7461 202.303H99.8995V205H104.348V191.858C104.348 186.668 100.117 185.108 96.3711 185.108C92.2418 185.108 89.0713 186.949 88.0486 190.528L92.3696 191.142C92.8299 189.8 94.1338 188.649 96.3966 188.649C98.5444 188.649 99.7205 189.749 99.7205 191.679V191.756C99.7205 193.085 98.327 193.149 94.8625 193.52C91.0529 193.929 87.4094 195.067 87.4094 199.49C87.4094 203.351 90.2347 205.396 93.9804 205.396ZM95.1821 201.996C93.2517 201.996 91.8711 201.114 91.8711 199.413C91.8711 197.636 93.4179 196.895 95.489 196.601C96.7035 196.435 99.1324 196.128 99.7333 195.642V197.956C99.7333 200.142 97.9691 201.996 95.1821 201.996ZM112.19 193.494C112.19 190.656 113.903 189.02 116.344 189.02C118.735 189.02 120.167 190.592 120.167 193.213V205H124.795V192.497C124.807 187.793 122.123 185.108 118.07 185.108C115.13 185.108 113.11 186.514 112.215 188.7H111.985V185.364H107.562V205H112.19V193.494ZM132.687 193.494C132.687 190.656 134.4 189.02 136.842 189.02C139.233 189.02 140.664 190.592 140.664 193.213V205H145.292V192.497C145.305 187.793 142.62 185.108 138.568 185.108C135.627 185.108 133.608 186.514 132.713 188.7H132.483V185.364H128.059V205H132.687V193.494ZM157.25 205.384C161.827 205.384 164.972 203.146 165.79 199.733L161.469 199.247C160.842 200.909 159.308 201.778 157.314 201.778C154.322 201.778 152.341 199.81 152.302 196.447H165.981V195.028C165.981 188.138 161.839 185.108 157.007 185.108C151.382 185.108 147.713 189.237 147.713 195.297C147.713 201.459 151.331 205.384 157.25 205.384ZM152.315 193.328C152.456 190.822 154.31 188.713 157.071 188.713C159.73 188.713 161.52 190.656 161.545 193.328H152.315ZM173.084 178.818H168.457V205H173.084V178.818ZM191.923 190.554C191.284 187.23 188.625 185.108 184.023 185.108C179.293 185.108 176.071 187.435 176.084 191.065C176.071 193.929 177.835 195.821 181.606 196.601L184.956 197.304C186.758 197.7 187.602 198.429 187.602 199.541C187.602 200.884 186.145 201.893 183.946 201.893C181.824 201.893 180.443 200.973 180.047 199.209L175.534 199.643C176.109 203.249 179.139 205.384 183.959 205.384C188.868 205.384 192.332 202.839 192.345 199.119C192.332 196.32 190.53 194.607 186.822 193.801L183.473 193.085C181.479 192.638 180.686 191.947 180.699 190.81C180.686 189.48 182.156 188.56 184.087 188.56C186.221 188.56 187.346 189.723 187.704 191.014L191.923 190.554ZM212.157 185.364H208.079V183.817C208.079 182.283 208.718 181.426 210.444 181.426C211.172 181.426 211.786 181.592 212.17 181.707L213.103 178.128C212.502 177.923 211.185 177.591 209.587 177.591C206.174 177.591 203.451 179.547 203.451 183.51V185.364H200.549V188.943H203.451V205H208.079V188.943H212.157V185.364ZM222.168 205.384C227.921 205.384 231.577 201.331 231.577 195.259C231.577 189.173 227.921 185.108 222.168 185.108C216.415 185.108 212.759 189.173 212.759 195.259C212.759 201.331 216.415 205.384 222.168 205.384ZM222.194 201.676C219.011 201.676 217.451 198.838 217.451 195.246C217.451 191.653 219.011 188.777 222.194 188.777C225.326 188.777 226.886 191.653 226.886 195.246C226.886 198.838 225.326 201.676 222.194 201.676ZM234.065 205H238.693V193.456C238.693 190.963 240.572 189.199 243.116 189.199C243.896 189.199 244.868 189.339 245.264 189.467V185.21C244.842 185.134 244.113 185.082 243.602 185.082C241.352 185.082 239.473 186.361 238.757 188.636H238.552V185.364H234.065V205ZM56.8111 230.016H61.375C61.2855 225.592 57.5142 222.46 51.9403 222.46C46.4432 222.46 42.3139 225.554 42.3267 230.182C42.3267 233.94 44.9986 236.101 49.3068 237.213L52.2855 237.98C55.1108 238.696 56.9773 239.578 56.9901 241.611C56.9773 243.848 54.8551 245.344 51.7614 245.344C48.7955 245.344 46.4943 244.014 46.3026 241.266H41.6364C41.8281 246.469 45.7017 249.396 51.7997 249.396C58.0767 249.396 61.7202 246.264 61.733 241.649C61.7202 237.111 57.9744 235.04 54.0369 234.107L51.5824 233.493C49.4347 232.982 47.108 232.074 47.1335 229.888C47.1463 227.919 48.9105 226.474 51.8764 226.474C54.7017 226.474 56.5682 227.791 56.8111 230.016ZM68.9446 222.818H64.3167V249H68.9446V222.818ZM77.914 249.396C80.995 249.396 82.8359 247.952 83.6797 246.303H83.8331V249H88.2819V235.858C88.2819 230.668 84.0504 229.108 80.3047 229.108C76.1754 229.108 73.0049 230.949 71.9822 234.528L76.3032 235.142C76.7635 233.8 78.0674 232.649 80.3302 232.649C82.478 232.649 83.6541 233.749 83.6541 235.679V235.756C83.6541 237.085 82.2606 237.149 78.7961 237.52C74.9865 237.929 71.343 239.067 71.343 243.49C71.343 247.351 74.1683 249.396 77.914 249.396ZM79.1157 245.996C77.1853 245.996 75.8047 245.114 75.8047 243.413C75.8047 241.636 77.3515 240.895 79.4226 240.601C80.637 240.435 83.066 240.128 83.6669 239.642V241.956C83.6669 244.142 81.9027 245.996 79.1157 245.996ZM100.061 249.384C104.995 249.384 108.14 246.456 108.473 242.288H104.049C103.653 244.398 102.132 245.612 100.099 245.612C97.2098 245.612 95.3434 243.196 95.3434 239.182C95.3434 235.219 97.2482 232.841 100.099 232.841C102.323 232.841 103.691 234.273 104.049 236.165H108.473C108.153 231.908 104.829 229.108 100.035 229.108C94.2823 229.108 90.6516 233.263 90.6516 239.259C90.6516 245.203 94.1928 249.384 100.061 249.384ZM110.833 249H115.461V242.403L117.148 240.601L123.157 249H128.692L120.638 237.839L128.245 229.364H122.837L115.78 237.251H115.461V222.818H110.833V249Z" fill="white"/>
<defs>
<filter id="filter0_bi" x="97.1564" y="47.7694" width="25.8097" height="28.3444" filterUnits="userSpaceOnUse" color-interpolation-filters="sRGB">
<feFlood flood-opacity="0" result="BackgroundImageFix"/>
<feGaussianBlur in="BackgroundImage" stdDeviation="2.50971"/>
<feComposite in2="SourceAlpha" operator="in" result="effect1_backgroundBlur"/>
<feBlend mode="normal" in="SourceGraphic" in2="effect1_backgroundBlur" result="shape"/>
<feColorMatrix in="SourceAlpha" type="matrix" values="0 0 0 0 0 0 0 0 0 0 0 0 0 0 0 0 0 0 127 0" result="hardAlpha"/>
<feOffset/>
<feGaussianBlur stdDeviation="0.237412"/>
<feComposite in2="hardAlpha" operator="arithmetic" k2="-1" k3="1"/>
<feColorMatrix type="matrix" values="0 0 0 0 0 0 0 0 0 0 0 0 0 0 0 0 0 0 0.5 0"/>
<feBlend mode="normal" in2="shape" result="effect2_innerShadow"/>
</filter>
<linearGradient id="paint0_linear" x1="94.2115" y1="62.1247" x2="112.651" y2="77.855" gradientUnits="userSpaceOnUse">
<stop stop-color="#23A4AE"/>
<stop offset="0.593027" stop-color="#52C491"/>
<stop offset="1" stop-color="#6DD780"/>
</linearGradient>
</defs>
</svg>
