<svg width="30" height="31" viewBox="0 0 30 31" fill="none" xmlns="http://www.w3.org/2000/svg">
<path d="M6.25476 19.144C6.25476 20.8652 4.84865 22.2714 3.12738 22.2714C1.40611 22.2714 0 20.8652 0 19.144C0 17.4227 1.40611 16.0166 3.12738 16.0166H6.25476V19.144Z" fill="#E01E5A"/>
<path d="M7.83105 19.145C7.83105 17.4237 9.23716 16.0176 10.9584 16.0176C12.6797 16.0176 14.0858 17.4237 14.0858 19.145V26.9755C14.0858 28.6968 12.6797 30.1029 10.9584 30.1029C9.23716 30.1029 7.83105 28.6968 7.83105 26.9755V19.145Z" fill="#E01E5A"/>
<path d="M10.9584 6.58679C9.23716 6.58679 7.83105 5.18068 7.83105 3.45941C7.83105 1.73814 9.23716 0.332031 10.9584 0.332031C12.6797 0.332031 14.0858 1.73814 14.0858 3.45941V6.58679H10.9584Z" fill="#36C5F0"/>
<path d="M10.9579 8.16309C12.6792 8.16309 14.0853 9.56919 14.0853 11.2905C14.0853 13.0117 12.6792 14.4178 10.9579 14.4178H3.12738C1.40611 14.4178 0 13.0117 0 11.2905C0 9.56919 1.40611 8.16309 3.12738 8.16309H10.9579Z" fill="#36C5F0"/>
<path d="M23.5166 11.2895C23.5166 9.56822 24.9227 8.16211 26.644 8.16211C28.3652 8.16211 29.7714 9.56822 29.7714 11.2895C29.7714 13.0108 28.3652 14.4169 26.644 14.4169H23.5166V11.2895Z" fill="#2EB67D"/>
<path d="M21.9403 11.29C21.9403 13.0112 20.5342 14.4174 18.8129 14.4174C17.0917 14.4174 15.6855 13.0112 15.6855 11.29V3.45941C15.6855 1.73814 17.0917 0.332031 18.8129 0.332031C20.5342 0.332031 21.9403 1.73814 21.9403 3.45941V11.29Z" fill="#2EB67D"/>
<path d="M18.8129 23.8477C20.5342 23.8477 21.9403 25.2538 21.9403 26.975C21.9403 28.6963 20.5342 30.1024 18.8129 30.1024C17.0917 30.1024 15.6855 28.6963 15.6855 26.975V23.8477H18.8129Z" fill="#ECB22E"/>
<path d="M18.8129 22.2723C17.0917 22.2723 15.6855 20.8662 15.6855 19.145C15.6855 17.4237 17.0917 16.0176 18.8129 16.0176H26.6435C28.3648 16.0176 29.7709 17.4237 29.7709 19.145C29.7709 20.8662 28.3648 22.2723 26.6435 22.2723H18.8129Z" fill="#ECB22E"/>
</svg>
