<svg width="497" height="81" viewBox="0 0 497 81" fill="none" xmlns="http://www.w3.org/2000/svg">
<path d="M0.5 30.3604C0.5 31.1888 1.17157 31.8604 2 31.8604H27.2583C28.0868 31.8604 28.7583 31.1888 28.7583 30.3604V5.10205C28.7583 4.27362 28.0868 3.60205 27.2583 3.60205H2C1.17157 3.60205 0.5 4.27362 0.5 5.10205V30.3604Z" fill="#64A8F0" stroke="white"/>
<path fill-rule="evenodd" clip-rule="evenodd" d="M6.21971 7.59114V6.09668H4.98371C3.66726 6.09668 2.99556 7.30281 2.99556 8.43011C2.96873 9.55774 3.318 10.6064 4.5002 10.7375C3.93607 10.8947 3.42543 11.288 3.39861 11.9173C3.39861 12.6513 3.77486 12.8612 4.58081 13.307C5.1451 13.5953 5.54799 13.805 5.57482 14.3819C5.57482 14.8276 5.33313 15.1422 4.82265 15.1422C4.41958 15.1422 3.82849 14.9063 3.58665 13.543H3.39861V15.3521H4.82265C5.70922 15.3521 6.48836 14.8014 6.48836 13.9099C6.48836 13.0996 5.92269 12.8003 5.40182 12.5247C5.33286 12.4882 5.26469 12.4521 5.19873 12.4153C5.15782 12.3936 5.11821 12.3727 5.0799 12.3525C4.56455 12.0808 4.28518 11.9335 4.28518 11.4454C4.28518 11.0522 4.60763 10.7899 5.03751 10.8162C5.44057 10.8162 5.6824 11.0784 5.8168 11.3142C5.94275 11.5356 5.99789 11.734 6.07067 11.9957C6.07546 12.013 6.08033 12.0305 6.08531 12.0483H6.27351V8.29911H4.76885V8.48261C4.79991 8.4927 4.84295 8.49889 4.89026 8.5057C4.96573 8.51657 5.05209 8.529 5.11811 8.56127C5.25252 8.63993 5.33313 8.79726 5.33313 9.05942V9.76741C5.33313 9.97707 5.30632 10.2917 5.17192 10.4491C5.09131 10.5539 4.9569 10.6064 4.76885 10.6064C4.41958 10.6064 4.28518 10.3179 4.23155 10.1344C4.15093 9.74108 4.12396 9.19058 4.12396 8.45644C4.12396 7.66981 4.20472 7.01431 4.36579 6.69982C4.52718 6.43751 4.71506 6.254 5.03751 6.28017C5.52118 6.30635 5.87045 6.857 6.03166 7.59114H6.21971ZM11.2441 6.17611H10.3037V10.4235H11.2441V6.17611ZM19.627 10.4231V7.87999C19.627 7.14585 19.2238 6.80503 18.6327 6.8312C18.2297 6.85738 17.988 7.11969 17.8804 7.32936C17.7461 6.96236 17.4506 6.80503 17.0206 6.8312C16.6716 6.85738 16.4027 7.06719 16.2953 7.30319V6.90987H15.4624V10.4231H16.3759V7.77517C16.3759 7.51285 16.4027 7.35552 16.564 7.22436C16.6716 7.14585 16.779 7.11969 16.8595 7.14585C17.0744 7.19834 17.0744 7.46052 17.0744 7.77517V10.4231H17.988V7.74899C17.988 7.51285 18.0417 7.35552 18.1761 7.22436C18.2835 7.14585 18.391 7.11969 18.4716 7.14585C18.6865 7.19834 18.7134 7.46052 18.7134 7.77517V10.4231H19.627ZM23.684 10.4237H24.5974V7.77578C24.5974 7.51346 24.6512 7.35613 24.7855 7.22497C24.8931 7.14646 25.0274 7.1203 25.108 7.14646C25.3229 7.19895 25.3229 7.46113 25.3229 7.77578V10.4237H26.2634V7.8806C26.2634 7.14646 25.8604 6.80564 25.2693 6.83181C24.9199 6.85799 24.6512 7.06779 24.5438 7.30379V6.91048H23.684V10.4237ZM8.26158 6.83132C8.58402 6.83132 8.85283 6.96247 9.06769 7.14597C9.47076 7.46063 9.68562 8.03744 9.68562 8.6666C9.68562 9.32208 9.47076 9.87257 9.06769 10.1874C8.85283 10.3709 8.58402 10.5019 8.26158 10.5019C7.9393 10.5019 7.69745 10.3709 7.45563 10.1874C7.07938 9.87257 6.83769 9.32208 6.83769 8.6666C6.83769 8.03744 7.07938 7.46063 7.45563 7.14597C7.69745 6.96247 7.9393 6.83132 8.26158 6.83132ZM8.71837 8.66688C8.71837 9.32235 8.71837 9.84683 8.61079 10.109C8.53033 10.24 8.44957 10.3187 8.26152 10.3187C8.10045 10.3187 7.99303 10.24 7.93924 10.109C7.80484 9.84683 7.80484 9.32235 7.80484 8.66688C7.80484 8.03772 7.80484 7.48707 7.93924 7.22475C7.99303 7.09375 8.10045 7.01509 8.26152 7.01509C8.44957 7.01509 8.53033 7.09375 8.61079 7.22475C8.72559 7.44855 8.72281 7.88221 8.71952 8.39545V8.39546V8.39547V8.39547V8.39548V8.39549V8.3955V8.39551V8.39552V8.39553V8.39554C8.71895 8.48385 8.71837 8.57452 8.71837 8.66688ZM18.4446 12.7044V11.7606H17.5043C16.779 11.7606 16.322 12.1538 16.322 12.7831C16.322 13.2536 16.6693 13.4634 17.2303 13.8023L17.2356 13.8056C17.7461 14.0941 17.961 14.3039 17.961 14.6447C17.961 14.9855 17.7192 15.169 17.3969 15.169C16.8864 15.1429 16.6715 14.7234 16.5371 14.0416H16.3489V15.3527H17.4237C17.988 15.3527 18.6597 14.9855 18.6597 14.2252C18.6597 13.6038 18.2871 13.4067 17.7782 13.1373L17.7782 13.1372C17.7073 13.0997 17.6337 13.0608 17.5581 13.0191C17.0744 12.7569 16.9937 12.5471 17.0206 12.3113C17.0475 12.0753 17.2894 11.918 17.5581 11.9441C17.988 11.9704 18.1492 12.3113 18.2567 12.7044H18.4446ZM14.5758 10.4235V6.17611H13.6353V7.17241C13.5548 6.98892 13.3666 6.85776 13.098 6.85776C12.4263 6.85776 11.8888 7.53941 11.862 8.58821C11.8352 9.29619 12.077 10.476 13.0173 10.476C13.3934 10.476 13.6085 10.2663 13.6891 10.0827V10.4235H14.5758ZM13.6623 8.58772C13.6623 8.08956 13.6623 7.46042 13.4741 7.19824L13.4737 7.19792C13.3933 7.11945 13.3396 7.06708 13.2054 7.06708C12.8561 7.06708 12.8024 7.85373 12.8024 8.56154C12.8024 8.98104 12.8024 9.37435 12.8293 9.68902C12.883 10.0298 12.9905 10.2395 13.1786 10.2395C13.313 10.2395 13.3934 10.1872 13.4741 10.0822C13.668 9.82209 13.6652 9.24185 13.6628 8.74583V8.74578V8.74574V8.7457V8.74565L13.6628 8.74501V8.74499C13.6625 8.69141 13.6623 8.63882 13.6623 8.58772ZM22.4212 7.01514C22.6629 7.1463 22.8242 7.35597 22.8242 7.82795V10.4236H21.9376V10.0304C21.8301 10.3187 21.5346 10.5022 21.1314 10.5022C20.8091 10.5022 20.2448 10.345 20.2448 9.53224C20.2448 8.82135 20.691 8.63766 21.2101 8.42396C21.2463 8.40905 21.2829 8.39399 21.3197 8.3786C21.8301 8.16893 21.8838 8.14246 21.8838 7.93279V7.35597C21.8838 7.12014 21.7496 7.01514 21.4808 7.01514C21.3733 7.04132 21.1852 7.09381 21.1852 7.22481C21.1721 7.30134 21.2098 7.34068 21.2551 7.38798C21.303 7.43802 21.3594 7.49697 21.3733 7.61828C21.4001 7.98529 21.1046 8.11629 20.836 8.09011C20.6478 8.09011 20.4329 7.98529 20.4061 7.69695C20.3792 7.22481 20.9165 6.83165 21.6688 6.83165C22.0182 6.83165 22.2331 6.91032 22.4212 7.01514ZM21.5882 8.50982L21.8838 8.32633V9.40129C21.8838 9.76845 21.7765 10.1093 21.5882 10.1879C21.4271 10.2403 21.2389 10.1879 21.2121 9.89945C21.1852 9.58494 21.1852 9.40129 21.2121 9.19163C21.2389 8.92931 21.2927 8.69347 21.5882 8.50982ZM9.12147 11.918C9.3633 12.0753 9.49755 12.2588 9.49755 12.7306V15.3527H8.6378V14.9594C8.53036 15.2215 8.23489 15.405 7.83167 15.405C7.48241 15.405 6.94495 15.2739 6.94495 14.4612C6.94495 13.7583 7.3814 13.5708 7.87199 13.36L7.87205 13.36L7.87247 13.3598C7.91238 13.3426 7.95265 13.3253 7.99306 13.3076C8.53036 13.0716 8.584 13.0454 8.584 12.8618V12.285C8.584 12.0228 8.44961 11.918 8.1811 11.9441C8.07352 11.9441 7.88547 11.9966 7.88547 12.1276C7.87194 12.2203 7.91311 12.2662 7.96066 12.3192C8.00736 12.3713 8.06023 12.4303 8.07352 12.5471C8.10048 12.8881 7.80487 13.0191 7.5362 13.0191C7.34816 12.9929 7.13314 12.8881 7.10618 12.5996C7.07935 12.1538 7.61682 11.7606 8.36914 11.7606C8.7184 11.7606 8.93326 11.8131 9.12147 11.918ZM8.28858 13.4129L8.58404 13.2294V14.3044C8.58404 14.6977 8.47662 15.0122 8.2616 15.0908C8.10053 15.1695 7.91233 15.1172 7.91233 14.8025C7.88551 14.514 7.88551 14.3044 7.91233 14.0945C7.93932 13.8324 7.99311 13.5964 8.28858 13.4129ZM15.6236 12.8099C15.6236 12.0758 15.2206 11.7086 14.6295 11.7611C14.334 11.7873 14.0922 11.9185 13.9578 12.102V11.0795H13.0442V13.4916C13.0442 14.3831 12.3995 15.222 11.7546 15.1957C11.2977 15.1957 11.1903 14.8549 11.1367 14.4879C11.0561 13.9634 11.0561 13.3604 11.1097 12.7049C11.1635 12.2855 11.2709 11.9446 11.5934 11.9446C11.8352 11.9446 11.862 12.102 11.7546 12.2068C11.7413 12.2231 11.7271 12.2393 11.7127 12.2559C11.6108 12.3729 11.4959 12.5047 11.5666 12.7574C11.647 13.0721 12.1575 13.1244 12.3995 12.8886C12.5875 12.6788 12.5607 12.338 12.4263 12.1281C12.2651 11.866 11.9964 11.7611 11.5934 11.7611C11.0829 11.7611 10.1157 12.2068 10.1157 13.6228C10.1157 15.1434 11.1097 15.4055 11.674 15.4055C12.3189 15.4055 12.883 14.8549 13.0442 14.4092V15.3532H13.9578V12.7049C13.9578 12.4428 14.0116 12.2855 14.1458 12.1543C14.2534 12.0758 14.3877 12.0495 14.4683 12.0758C14.6833 12.1281 14.6833 12.3903 14.6833 12.7049V15.3532H15.6236V12.8099Z" fill="white"/>
<path fill-rule="evenodd" clip-rule="evenodd" d="M40.2143 14.8726L42.6754 17.3088L45.1365 14.8726L45.3723 15.106L42.9112 17.5422L45.3723 19.9785L45.1365 20.2119L42.6754 17.7757L40.2143 20.2119L39.9785 19.9785L42.4396 17.5422L39.9785 15.106L40.2143 14.8726Z" fill="white" stroke="white" stroke-width="1.10589"/>
<rect opacity="0.122339" x="51.7744" y="6.94092" width="29.6841" height="4.80496" rx="1.99059" fill="#2F66A5"/>
<rect opacity="0.122339" x="54.9551" y="13.3472" width="36.045" height="5.87273" rx="2.43295" fill="#2F66A5"/>
<path d="M70.5917 28.7372C77.4259 28.7372 82.9607 23.158 82.9607 16.2824C82.9607 9.40684 77.4259 3.82767 70.5917 3.82767C63.7575 3.82767 58.2227 9.40684 58.2227 16.2824C58.2227 23.158 63.7575 28.7372 70.5917 28.7372Z" fill="#E6ECF4" stroke="#2F66A5" stroke-width="0.884709"/>
<mask id="mask0" mask-type="alpha" maskUnits="userSpaceOnUse" x="57" y="3" width="27" height="27">
<path d="M70.5917 28.7372C77.4259 28.7372 82.9607 23.158 82.9607 16.2824C82.9607 9.40684 77.4259 3.82767 70.5917 3.82767C63.7575 3.82767 58.2227 9.40684 58.2227 16.2824C58.2227 23.158 63.7575 28.7372 70.5917 28.7372Z" fill="white" stroke="white" stroke-width="0.884709"/>
</mask>
<g mask="url(#mask0)">
<path d="M65.4687 21.2627H75.7155V29.9879H65.4687V21.2627Z" fill="white" stroke="#4A4A4A" stroke-width="0.884709"/>
<path d="M65.2908 22.1553L60.7852 28.8288" stroke="#4A4A4A" stroke-width="0.884709" stroke-linecap="square"/>
<path d="M75.627 21.8887L80.3976 28.8292" stroke="#4A4A4A" stroke-width="0.884709" stroke-linecap="square"/>
</g>
<path fill-rule="evenodd" clip-rule="evenodd" d="M68.8041 32.3465C68.7492 32.2569 68.728 32.1507 68.7442 32.0469L70.1466 23.0805C70.2246 22.5818 70.9427 22.5818 71.0207 23.0805L72.4482 32.2077L70.9608 34.634C70.7882 34.9156 70.3791 34.9156 70.2065 34.634L68.8041 32.3465Z" fill="#4A90E2"/>
<path fill-rule="evenodd" clip-rule="evenodd" d="M68.7373 21.8867H72.4478L71.3347 24.0223H69.8505L68.7373 21.8867Z" fill="#4A90E2"/>
<rect x="61.2285" y="0.442354" width="19.2581" height="18.9311" rx="1.32706" fill="white" stroke="#4A4A4A" stroke-width="0.884709"/>
<path d="M66.0869 12.0117C66.0869 12.0117 67.4536 14.6061 70.7251 14.6061C73.9965 14.6061 75.3632 12.0117 75.3632 12.0117" stroke="#4A4A4A" stroke-width="0.884709" stroke-linecap="square"/>
<rect x="67.1475" y="4.80371" width="1.59022" height="4.27108" rx="0.79511" fill="#4A4A4A"/>
<rect x="72.9775" y="4.80371" width="1.59022" height="4.27108" rx="0.79511" fill="#4A4A4A"/>
<path fill-rule="evenodd" clip-rule="evenodd" d="M58.6656 16.5508H57.6055C57.6055 19.3896 58.5068 22.0939 60.1495 24.328C62.5832 27.638 66.4238 29.631 70.5923 29.631C74.7607 29.631 78.6014 27.638 81.0351 24.328C82.6777 22.0939 83.5791 19.3896 83.5791 16.5508H82.5189C82.5188 19.2255 81.6508 21.696 80.1831 23.6922C78.0104 26.6472 74.5234 28.5629 70.5922 28.5629C66.6611 28.5629 63.1741 26.6472 61.0014 23.6922C59.5337 21.696 58.6657 19.2255 58.6656 16.5508Z" fill="#2F66A5"/>
<path fill-rule="evenodd" clip-rule="evenodd" d="M68.8032 32.3475C68.7483 32.2579 68.727 32.1517 68.7432 32.0479L70.1456 23.0814C70.2236 22.5828 70.9417 22.5828 71.0197 23.0814L72.4472 32.2087L70.9598 34.635C70.7872 34.9166 70.3781 34.9166 70.2055 34.635L68.8032 32.3475Z" fill="#4A90E2"/>
<path fill-rule="evenodd" clip-rule="evenodd" d="M68.7363 21.8877H72.4468L71.3337 24.0232H69.8495L68.7363 21.8877Z" fill="#4A90E2"/>
<path d="M7.53267 63.0635H5.50639L1.28764 78.7368H3.31392L7.53267 63.0635ZM12.1363 76.7681H14.5078V72.3448H17.0135C20.0369 72.3448 21.6605 70.5294 21.6605 68.011C21.6605 65.5117 20.0561 63.6772 17.0454 63.6772H12.1363V76.7681ZM14.5078 70.3952V65.6587H16.6811C18.4581 65.6587 19.2443 66.6175 19.2443 68.011C19.2443 69.4044 18.4581 70.3952 16.6939 70.3952H14.5078ZM22.8981 76.7681H25.212V70.996C25.212 69.7496 26.1516 68.8675 27.4236 68.8675C27.8135 68.8675 28.2993 68.9378 28.4975 69.0017V66.8732C28.2866 66.8348 27.9222 66.8093 27.6665 66.8093C26.5415 66.8093 25.6019 67.4485 25.2439 68.5862H25.1417V66.9499H22.8981V76.7681ZM33.1932 76.9598C36.0696 76.9598 37.8977 74.9335 37.8977 71.8973C37.8977 68.8547 36.0696 66.822 33.1932 66.822C30.3167 66.822 28.4886 68.8547 28.4886 71.8973C28.4886 74.9335 30.3167 76.9598 33.1932 76.9598ZM33.2059 75.1061C31.6143 75.1061 30.8345 73.6871 30.8345 71.8909C30.8345 70.0948 31.6143 68.6566 33.2059 68.6566C34.772 68.6566 35.5518 70.0948 35.5518 71.8909C35.5518 73.6871 34.772 75.1061 33.2059 75.1061ZM39.1417 66.9499V77.2986C39.1417 78.1232 38.7901 78.5642 37.9016 78.5642C37.7865 78.5642 37.6971 78.5578 37.5692 78.5514V80.4371C37.7354 80.4499 37.876 80.4499 38.0422 80.4499C40.2091 80.4499 41.4556 79.4527 41.4556 77.3306V66.9499H39.1417ZM40.2922 65.5564C41.0273 65.5564 41.6282 64.9939 41.6282 64.3036C41.6282 63.6068 41.0273 63.0443 40.2922 63.0443C39.5507 63.0443 38.9499 63.6068 38.9499 64.3036C38.9499 64.9939 39.5507 65.5564 40.2922 65.5564ZM47.4616 76.9598C49.75 76.9598 51.3224 75.8412 51.7315 74.1345L49.571 73.8916C49.2578 74.7226 48.4907 75.1573 47.4936 75.1573C45.9978 75.1573 45.0071 74.1729 44.9879 72.4918H51.8274V71.7823C51.8274 68.337 49.7563 66.822 47.3402 66.822C44.5277 66.822 42.6931 68.8867 42.6931 71.9165C42.6931 74.9975 44.5021 76.9598 47.4616 76.9598ZM44.9943 70.9321C45.0646 69.6793 45.9914 68.6246 47.3721 68.6246C48.7017 68.6246 49.5965 69.5962 49.6093 70.9321H44.9943ZM57.3476 76.9598C59.8149 76.9598 61.3874 75.496 61.5536 73.4122H59.3419C59.1438 74.4669 58.3831 75.0742 57.3668 75.0742C55.9222 75.0742 54.9889 73.8661 54.9889 71.859C54.9889 69.8774 55.9414 68.6885 57.3668 68.6885C58.479 68.6885 59.1629 69.4044 59.3419 70.3505H61.5536C61.3938 68.2219 59.7318 66.822 57.3348 66.822C54.4584 66.822 52.6431 68.8995 52.6431 71.8973C52.6431 74.8696 54.4137 76.9598 57.3476 76.9598ZM67.6363 66.9499H65.6995V64.5976H63.3856V66.9499H61.9921V68.7397H63.3856V74.1985C63.3728 76.0458 64.7151 76.9534 66.4538 76.9023C67.1122 76.8831 67.566 76.7553 67.8153 76.6722L67.4254 74.8632C67.2975 74.8952 67.0355 74.9527 66.7478 74.9527C66.1661 74.9527 65.6995 74.7482 65.6995 73.8149V68.7397H67.6363V66.9499ZM76.4708 69.5451C76.1512 67.8831 74.8217 66.822 72.5205 66.822C70.1555 66.822 68.5447 67.9854 68.5511 69.8007C68.5447 71.2326 69.4268 72.1786 71.3124 72.5685L72.9871 72.9201C73.8884 73.1182 74.3103 73.4826 74.3103 74.0387C74.3103 74.7098 73.5816 75.2148 72.4822 75.2148C71.4211 75.2148 70.7308 74.7546 70.5326 73.8725L68.2762 74.0898C68.5639 75.8924 70.0788 76.9598 72.4886 76.9598C74.9431 76.9598 76.6754 75.6878 76.6818 73.8277C76.6754 72.4279 75.7741 71.5713 73.9204 71.1686L72.2457 70.8107C71.2485 70.587 70.8522 70.2418 70.8586 69.6729C70.8522 69.0081 71.5873 68.5479 72.5525 68.5479C73.62 68.5479 74.1825 69.1296 74.3614 69.7752L76.4708 69.5451Z" fill="white"/>
<path d="M104.533 63.0635H102.506L98.2876 78.7368H100.314L104.533 63.0635ZM117.906 67.8576H120.322C119.92 65.288 117.695 63.4982 114.8 63.4982C111.374 63.4982 108.804 66.0166 108.804 70.2354C108.804 74.3774 111.259 76.947 114.87 76.947C118.111 76.947 120.431 74.8632 120.431 71.4882V69.9158H115.119V71.7695H118.136C118.098 73.636 116.852 74.8185 114.883 74.8185C112.69 74.8185 111.188 73.1757 111.188 70.2098C111.188 67.2631 112.716 65.6267 114.832 65.6267C116.41 65.6267 117.484 66.4705 117.906 67.8576ZM126.185 76.9598C129.061 76.9598 130.889 74.9335 130.889 71.8973C130.889 68.8547 129.061 66.822 126.185 66.822C123.308 66.822 121.48 68.8547 121.48 71.8973C121.48 74.9335 123.308 76.9598 126.185 76.9598ZM126.197 75.1061C124.606 75.1061 123.826 73.6871 123.826 71.8909C123.826 70.0948 124.606 68.6566 126.197 68.6566C127.763 68.6566 128.543 70.0948 128.543 71.8909C128.543 73.6871 127.763 75.1061 126.197 75.1061ZM134.447 63.6772H132.133V76.7681H134.447V63.6772ZM139.75 76.9407C141.437 76.9407 142.198 75.9371 142.562 75.2212H142.703V76.7681H144.979V63.6772H142.658V68.5735H142.562C142.211 67.8639 141.489 66.822 139.756 66.822C137.487 66.822 135.704 68.599 135.704 71.8718C135.704 75.1061 137.436 76.9407 139.75 76.9407ZM140.396 75.0422C138.868 75.0422 138.062 73.6999 138.062 71.859C138.062 70.0309 138.855 68.7205 140.396 68.7205C141.885 68.7205 142.703 69.9541 142.703 71.859C142.703 73.7638 141.872 75.0422 140.396 75.0422ZM146.724 76.7681H149.038V70.7979C149.038 69.5898 149.844 68.7716 150.841 68.7716C151.819 68.7716 152.49 69.43 152.49 70.4399V76.7681H154.759V70.6445C154.759 69.5387 155.418 68.7716 156.536 68.7716C157.469 68.7716 158.211 69.3213 158.211 70.5358V76.7681H160.531V70.1779C160.531 67.9854 159.266 66.822 157.463 66.822C156.038 66.822 154.951 67.5252 154.516 68.6182H154.414C154.037 67.506 153.084 66.822 151.761 66.822C150.445 66.822 149.46 67.4996 149.051 68.6182H148.936V66.9499H146.724V76.7681ZM164.984 76.9662C166.524 76.9662 167.445 76.2439 167.867 75.4193H167.943V76.7681H170.168V70.197C170.168 67.6019 168.052 66.822 166.179 66.822C164.115 66.822 162.529 67.7425 162.018 69.5323L164.179 69.8391C164.409 69.1679 165.061 68.5926 166.192 68.5926C167.266 68.5926 167.854 69.1424 167.854 70.1076V70.1459C167.854 70.8107 167.157 70.8426 165.425 71.028C163.52 71.2326 161.698 71.8014 161.698 74.0131C161.698 75.9435 163.111 76.9662 164.984 76.9662ZM165.585 75.2659C164.62 75.2659 163.929 74.8249 163.929 73.9747C163.929 73.0862 164.703 72.7155 165.738 72.5685C166.345 72.4854 167.56 72.332 167.86 72.0891V73.246C167.86 74.3391 166.978 75.2659 165.585 75.2659ZM174.089 71.0152C174.089 69.5962 174.945 68.778 176.166 68.778C177.361 68.778 178.077 69.5642 178.077 70.8746V76.7681H180.391V70.5166C180.397 68.1644 179.055 66.822 177.029 66.822C175.559 66.822 174.549 67.5252 174.101 68.6182H173.986V66.9499H171.775V76.7681H174.089V71.0152ZM192.985 67.2759H195.267C195.222 65.0642 193.336 63.4982 190.549 63.4982C187.801 63.4982 185.736 65.0451 185.743 67.359C185.743 69.2382 187.079 70.3185 189.233 70.8746L190.722 71.2581C192.135 71.6161 193.068 72.0571 193.074 73.0735C193.068 74.1921 192.007 74.9399 190.46 74.9399C188.977 74.9399 187.826 74.2752 187.731 72.9009H185.397C185.493 75.5024 187.43 76.9662 190.479 76.9662C193.618 76.9662 195.439 75.4002 195.446 73.0926C195.439 70.8235 193.567 69.788 191.598 69.3213L190.37 69.0145C189.297 68.7588 188.133 68.305 188.146 67.212C188.152 66.2276 189.035 65.5053 190.518 65.5053C191.93 65.5053 192.863 66.1637 192.985 67.2759ZM199.563 76.9662C201.103 76.9662 202.024 76.2439 202.446 75.4193H202.522V76.7681H204.747V70.197C204.747 67.6019 202.631 66.822 200.758 66.822C198.694 66.822 197.108 67.7425 196.597 69.5323L198.758 69.8391C198.988 69.1679 199.64 68.5926 200.771 68.5926C201.845 68.5926 202.433 69.1424 202.433 70.1076V70.1459C202.433 70.8107 201.736 70.8426 200.004 71.028C198.099 71.2326 196.277 71.8014 196.277 74.0131C196.277 75.9435 197.69 76.9662 199.563 76.9662ZM200.164 75.2659C199.199 75.2659 198.508 74.8249 198.508 73.9747C198.508 73.0862 199.282 72.7155 200.317 72.5685C200.924 72.4854 202.139 72.332 202.439 72.0891V73.246C202.439 74.3391 201.557 75.2659 200.164 75.2659ZM210.636 76.9598C213.104 76.9598 214.676 75.496 214.842 73.4122H212.631C212.432 74.4669 211.672 75.0742 210.655 75.0742C209.211 75.0742 208.278 73.8661 208.278 71.859C208.278 69.8774 209.23 68.6885 210.655 68.6885C211.768 68.6885 212.452 69.4044 212.631 70.3505H214.842C214.682 68.2219 213.021 66.822 210.623 66.822C207.747 66.822 205.932 68.8995 205.932 71.8973C205.932 74.8696 207.702 76.9598 210.636 76.9598ZM218.336 71.0152C218.336 69.5962 219.218 68.778 220.458 68.778C221.673 68.778 222.389 69.5514 222.389 70.8746V76.7681H224.703V70.5166C224.703 68.1452 223.36 66.822 221.321 66.822C219.813 66.822 218.854 67.506 218.4 68.6182H218.285V63.6772H216.022V76.7681H218.336V71.0152ZM234.101 69.5451C233.782 67.8831 232.452 66.822 230.151 66.822C227.786 66.822 226.175 67.9854 226.182 69.8007C226.175 71.2326 227.057 72.1786 228.943 72.5685L230.618 72.9201C231.519 73.1182 231.941 73.4826 231.941 74.0387C231.941 74.7098 231.212 75.2148 230.113 75.2148C229.052 75.2148 228.361 74.7546 228.163 73.8725L225.907 74.0898C226.194 75.8924 227.709 76.9598 230.119 76.9598C232.574 76.9598 234.306 75.6878 234.312 73.8277C234.306 72.4279 233.405 71.5713 231.551 71.1686L229.876 70.8107C228.879 70.587 228.483 70.2418 228.489 69.6729C228.483 69.0081 229.218 68.5479 230.183 68.5479C231.25 68.5479 231.813 69.1296 231.992 69.7752L234.101 69.5451Z" fill="white"/>
<path d="M474.475 63.0635H472.448L468.23 78.7368H470.256L474.475 63.0635ZM480.044 77.0174C483.202 77.0237 485.088 74.5309 485.088 70.2354C485.088 65.9655 483.189 63.4982 480.044 63.4982C476.9 63.4982 475.007 65.9591 475.001 70.2354C475.001 74.5245 476.887 77.0174 480.044 77.0174ZM480.044 75.0166C478.414 75.0166 477.392 73.3803 477.398 70.2354C477.404 67.1161 478.421 65.4733 480.044 65.4733C481.674 65.4733 482.691 67.1161 482.697 70.2354C482.697 73.3803 481.681 75.0166 480.044 75.0166ZM491.036 63.4982C488.198 63.479 486.312 65.4286 486.312 67.9854C486.319 70.4527 488.077 72.2361 490.371 72.2361C491.784 72.2361 493.011 71.5522 493.644 70.4272H493.734C493.727 73.2269 492.711 74.8952 490.902 74.8952C489.771 74.8952 489.01 74.2432 488.773 73.2013H486.44C486.709 75.3682 488.422 76.947 490.902 76.947C494.04 76.947 496.041 74.3263 496.035 69.8199C496.028 65.0514 493.548 63.511 491.036 63.4982ZM491.043 65.4158C492.442 65.4158 493.472 66.5791 493.472 67.9151C493.478 69.2702 492.398 70.4335 491.017 70.4335C489.624 70.4335 488.62 69.3341 488.614 67.9343C488.614 66.528 489.656 65.4158 491.043 65.4158Z" fill="white"/>
</svg>
