<?xml version="1.0" encoding="UTF-8" standalone="no"?>
<svg width="104px" height="130px" viewBox="0 0 104 130" version="1.1" xmlns="http://www.w3.org/2000/svg" xmlns:xlink="http://www.w3.org/1999/xlink" xmlns:sketch="http://www.bohemiancoding.com/sketch/ns">
    <!-- Generator: Sketch 3.3.3 (12081) - http://www.bohemiancoding.com/sketch -->
    <title>systems_analysis_s</title>
    <desc>Created with Sketch.</desc>
    <defs></defs>
    <g id="icons" stroke="none" stroke-width="1" fill="none" fill-rule="evenodd" sketch:type="MSPage">
        <g id="systems_analysis_s" sketch:type="MSLayerGroup" transform="translate(1.000000, 2.000000)">
            <g id="Group" transform="translate(16.000000, 15.000000)" stroke="#0099CA" fill="#0099CA" sketch:type="MSShapeGroup">
                <g id="Shape">
                    <path d="M18.3174713,25.1799886 C15.6357471,25.1799886 13.1487356,23.616375 11.9804598,21.1967273 C11.1621839,19.4999886 11.051954,17.5862159 11.6690805,15.8071818 C12.2862069,14.0281477 13.5582759,12.5984659 15.2495402,11.7795455 C16.2142529,11.3099773 17.2441379,11.0727727 18.3094253,11.0727727 C20.9903448,11.0727727 23.4757471,12.6371932 24.6408046,15.0584545 C25.4590805,16.7527727 25.5701149,18.6657386 24.9521839,20.4447727 C24.3342529,22.2246136 23.0629885,23.6551023 21.3717241,24.4748295 C20.4086207,24.9435909 19.3803448,25.1799886 18.3174713,25.1799886 L18.3174713,25.1799886 Z M18.3094253,11.8803977 C17.3672414,11.8803977 16.4548276,12.0909773 15.5995402,12.5064886 C14.1013793,13.2318182 12.9749425,14.4985227 12.4286207,16.072625 C11.8814943,17.6483409 11.9796552,19.3426591 12.7045977,20.8457614 C13.7393103,22.9886705 15.9422989,24.3731705 18.3174713,24.3731705 C19.258046,24.3731705 20.168046,24.1633977 21.0217241,23.7486932 C22.5190805,23.0233636 23.6455172,21.7558523 24.1918391,20.1801364 C24.7389655,18.6044205 24.6408046,16.9101023 23.9158621,15.4094205 C22.8843678,13.2657045 20.6837931,11.8803977 18.3094253,11.8803977 L18.3094253,11.8803977 Z"></path>
                    <path d="M12.9926437,36.1898295 C12.9395402,36.1898295 12.8856322,36.1793409 12.8341379,36.1575568 L9.40252874,34.6859205 C9.23758621,34.6149205 9.13942529,34.4430682 9.16195402,34.2647614 C9.46850575,31.8112273 9.61655172,30.6300455 9.73241379,30.0515568 C8.48045977,29.1479205 7.37977011,28.0458068 6.45528736,26.7686136 L2.14666667,27.2623864 C1.96804598,27.2825568 1.79505747,27.1808977 1.72747126,27.0114659 L0.337931034,23.5405341 C0.271149425,23.3727159 0.322643678,23.1806932 0.466666667,23.0701591 L3.83873563,20.474625 C3.59091954,18.9432841 3.58689655,17.3925795 3.82666667,15.8572045 L0.456206897,13.1301591 C0.316206897,13.0163977 0.267931034,12.8235682 0.338735632,12.6581705 L1.80471264,9.21789773 C1.87551724,9.05169318 2.04770115,8.954875 2.22551724,8.97585227 L6.42229885,9.514 C7.35885057,8.21421591 8.50781609,7.07821591 9.84344828,6.13343182 L9.21747126,1.96540909 C9.19011494,1.78064773 9.29229885,1.60072727 9.46609195,1.53134091 L12.9314943,0.136352273 C13.0964368,0.0693863636 13.2871264,0.120215909 13.3981609,0.261409091 L16.013908,3.60567045 C17.5329885,3.36604545 19.0681609,3.36523864 20.5856322,3.60567045 L23.2987356,0.251727273 C23.4121839,0.112147727 23.6036782,0.0653522727 23.7686207,0.134738636 L27.2010345,1.60476136 C27.365977,1.67495455 27.4641379,1.846 27.4424138,2.02430682 L26.9363218,6.23347727 C28.1713793,7.13146591 29.2567816,8.22631818 30.1691954,9.49221591 L34.444023,9.04443182 C34.6137931,9.02345455 34.7916092,9.12753409 34.8591954,9.29535227 L36.2503448,12.7662841 C36.3171264,12.9324886 36.2664368,13.1228977 36.1256322,13.2342386 L32.7978161,15.8563977 C33.0327586,17.3675682 33.0295402,18.9005227 32.7881609,20.421375 L34.7208046,21.9938636 C34.8929885,22.13425 34.9195402,22.3883977 34.7795402,22.5610568 C34.6403448,22.7337159 34.3868966,22.7603409 34.213908,22.6199545 L32.1573563,20.9466136 C32.1308046,20.9312841 32.1058621,20.9135341 32.0833333,20.8925568 C31.9835632,20.7989659 31.9304598,20.6634205 31.9545977,20.5286818 C32.2337931,18.9376364 32.2378161,17.3304545 31.9650575,15.7515114 C31.9393103,15.6014432 31.9996552,15.4497614 32.1211494,15.3585909 C32.1316092,15.3505227 32.1428736,15.3432614 32.1541379,15.3368068 L35.3910345,12.7864545 L34.225977,9.87868182 L30.0187356,10.3192045 C29.8747126,10.3353409 29.7306897,10.2691818 29.6478161,10.1497727 C28.7144828,8.81045455 27.5816092,7.66880682 26.2781609,6.75468182 C26.1566667,6.66915909 26.0914943,6.52393182 26.1091954,6.37628409 L26.6072414,2.22923864 L23.7316092,0.997227273 L21.0828736,4.27210227 C20.9943678,4.40038636 20.8398851,4.46735227 20.6837931,4.44072727 C19.0995402,4.16318182 17.4927586,4.16398864 15.906092,4.44153409 C15.7781609,4.46251136 15.6478161,4.42378409 15.5544828,4.33261364 C15.5231034,4.30114773 15.4973563,4.26564773 15.478046,4.22772727 L12.9516092,0.998034091 L10.0614943,2.16146591 L10.6770115,6.26252273 C10.6995402,6.41581818 10.6335632,6.56830682 10.5056322,6.65544318 C9.09356322,7.62039773 7.89390805,8.80480682 6.94126437,10.1763977 C6.85597701,10.2998409 6.71195402,10.366 6.55988506,10.3458295 L2.42505747,9.81575 L1.19804598,12.6952841 L4.5145977,15.3779545 C4.62804598,15.4699318 4.68275862,15.6159659 4.65862069,15.7611932 C4.38264368,17.3603068 4.38747126,18.9803977 4.67310345,20.5762841 C4.69965517,20.7247386 4.64091954,20.8756136 4.52183908,20.9675909 L1.19885057,23.5243977 L2.35988506,26.4265227 L6.59931034,25.9408182 C6.74735632,25.9214545 6.88977011,25.9892273 6.97425287,26.1094432 C7.91885057,27.45925 9.06781609,28.6097727 10.3873563,29.5279318 C10.5193103,29.6199091 10.5844828,29.7812727 10.5522989,29.9394091 C10.5490805,29.9563523 10.5442529,29.9724886 10.5386207,29.988625 C10.4798851,30.2831136 10.1926437,32.5115455 9.99712644,34.0630568 L12.8703448,35.2950682 C13.9267816,33.9807614 15.3670115,32.1847841 15.5078161,31.9935682 C15.5255172,31.9645227 15.5472414,31.9387045 15.5729885,31.9145 C15.6647126,31.8281705 15.7910345,31.7894432 15.9173563,31.8112273 C17.5152874,32.0903864 19.1277011,32.0911932 20.7095402,31.8120341 C20.8567816,31.7854091 21.008046,31.8451136 21.0989655,31.9653295 L22.5762069,33.9121818 C22.7105747,34.0896818 22.6767816,34.3422159 22.4997701,34.4777614 C22.3235632,34.6133068 22.0701149,34.5778068 21.9357471,34.4011136 L20.6049425,32.6478977 C19.0842529,32.8883295 17.5394253,32.8875227 16.0066667,32.6438636 C15.6856322,33.0803523 14.9542529,33.9888295 13.3048276,36.0389545 C13.2275862,36.1373864 13.1109195,36.1898295 12.9926437,36.1898295 L12.9926437,36.1898295 Z"></path>
                </g>
                <g transform="translate(18.505747, 19.363636)" id="Shape">
                    <path d="M25.7414943,35.0514091 C23.2263218,35.0514091 20.8616092,34.0687045 19.0826437,32.2856364 C17.3044828,30.5025682 16.3244828,28.1313295 16.3244828,25.6100227 C16.3244828,23.0879091 17.3036782,20.7174773 19.0826437,18.9344091 C20.8608046,17.1505341 23.2255172,16.1686364 25.7398851,16.1686364 C28.2550575,16.1686364 30.6197701,17.1505341 32.3987356,18.9344091 C34.1768966,20.7174773 35.156092,23.0879091 35.1552874,25.6100227 C35.1552874,28.1329432 34.1752874,30.503375 32.3971264,32.2856364 C30.6205747,34.0695114 28.2566667,35.0514091 25.7414943,35.0514091 L25.7414943,35.0514091 Z M25.7398851,16.9754545 C23.4403448,16.9754545 21.2775862,17.8734432 19.6514943,19.5048295 C18.0254023,21.1362159 17.1290805,23.3033295 17.1290805,25.6100227 C17.1290805,27.9159091 18.0245977,30.0846364 19.6514943,31.7152159 C21.2783908,33.3457955 23.4411494,34.2445909 25.7414943,34.2445909 C28.0410345,34.2445909 30.2029885,33.3466023 31.8282759,31.7152159 C33.4543678,30.0846364 34.3506897,27.9167159 34.3506897,25.6100227 C34.3514943,23.3033295 33.455977,21.1346023 31.8298851,19.5048295 C30.2029885,17.8734432 28.0402299,16.9754545 25.7398851,16.9754545 L25.7398851,16.9754545 Z"></path>
                    <path d="M26.7858621,51.0675568 C26.7770115,51.0675568 26.7681609,51.0675568 26.7585057,51.06675 L21.6951724,50.7182045 C21.5157471,50.7052955 21.3668966,50.5753977 21.3290805,50.3995114 C20.5864368,46.9140568 20.2573563,45.3673864 20.168046,44.6517386 C18.1106897,44.0482386 16.1675862,43.1066818 14.3854023,41.8504659 L9.00103448,44.4532614 C8.83931034,44.5323295 8.64218391,44.4927955 8.52310345,44.3548295 L5.19045977,40.5200227 C5.07218391,40.3836705 5.05850575,40.1851932 5.15747126,40.0335114 L8.37425287,35.1159545 C7.34597701,33.228 6.63551724,31.1996591 6.26218391,29.0785341 L0.64045977,27.0631023 C0.470689655,27.0025909 0.362068966,26.8355795 0.374137931,26.6556591 L0.724942529,21.5815795 C0.737816092,21.4008523 0.867356322,21.2515909 1.04356322,21.2144773 L6.7562069,20.0034432 C7.38218391,17.8669886 8.36942529,15.8539773 9.6954023,14.0160455 L6.99356322,8.86773864 C6.90666667,8.70234091 6.94448276,8.49821591 7.08528736,8.37557955 L10.9103448,5.03454545 C11.0455172,4.91675 11.2410345,4.90222727 11.3922989,4.99904545 L16.3172414,8.165 C18.1887356,7.14760227 20.1978161,6.44567045 22.2970115,6.07614773 L24.3133333,0.474409091 C24.3744828,0.304977273 24.5225287,0.202511364 24.7196552,0.208965909 L29.7829885,0.557511364 C29.9616092,0.570420455 30.1104598,0.698704545 30.1482759,0.874590909 L31.3921839,6.58847727 C33.4189655,7.19278409 35.337931,8.1295 37.1048276,9.37603409 L42.4690805,6.84907955 C42.6324138,6.77323864 42.8247126,6.81357955 42.9437931,6.949125 L46.2756322,10.7847386 C46.3931034,10.9194773 46.4075862,11.1163409 46.3110345,11.2672159 L43.1634483,16.1952614 C44.17,18.0686932 44.8643678,20.0833182 45.2296552,22.1907273 L50.8288506,24.2037386 C50.9978161,24.26425 51.1072414,24.4312614 51.0943678,24.6111818 L50.7451724,29.686875 C50.7322989,29.8667955 50.6027586,30.0160568 50.4273563,30.0539773 L44.7114943,31.2811477 C44.1056322,33.3183636 43.1690805,35.2474659 41.921954,37.0200455 L44.4894253,42.413625 C44.5674713,42.5774091 44.5272414,42.7726591 44.3904598,42.8920682 L40.5637931,46.2322955 C40.4270115,46.3517045 40.2314943,46.3646136 40.0794253,46.2661818 L35.1729885,43.0542386 C33.2998851,44.0748636 31.2763218,44.7800227 29.1513793,45.1519659 C28.9631034,45.7691818 28.4489655,47.2093523 27.1664368,50.8013068 C27.1068966,50.9610568 26.9548276,51.0675568 26.7858621,51.0675568 L26.7858621,51.0675568 Z M22.0524138,49.9347841 L26.5090805,50.241375 C27.2903448,48.0540909 28.3773563,44.9889886 28.4642529,44.7057955 C28.4722989,44.6702955 28.4843678,44.6356023 28.502069,44.6033295 C28.5608046,44.4911818 28.6686207,44.4145341 28.7925287,44.3943636 C30.9890805,44.0353295 33.0745977,43.3067727 34.991954,42.2312841 C35.1231034,42.1586705 35.2824138,42.1635114 35.4087356,42.2458068 L40.2628736,45.4238636 L43.6293103,42.484625 L41.0908046,37.1539773 C41.0272414,37.0208523 41.0409195,36.8635227 41.1278161,36.7433068 C42.4377011,34.9263523 43.404023,32.9359318 44.0026437,30.8269091 C44.0428736,30.6832955 44.1595402,30.574375 44.3051724,30.5421023 L49.9598851,29.3278409 L50.2672414,24.8596818 L44.7324138,22.8700682 C44.5948276,22.8200455 44.4942529,22.6998295 44.4717241,22.5546023 C44.1193103,20.3713523 43.4008046,18.2905682 42.3371264,16.3687273 C42.267931,16.2436705 42.2703448,16.0911818 42.3427586,15.9685455 C42.3564368,15.9451477 42.3725287,15.9233636 42.3902299,15.9031932 L45.4678161,11.0856818 L42.5342529,7.70753409 L37.231954,10.2054432 C37.0983908,10.2675682 36.943908,10.2530455 36.8248276,10.1675227 C35.0152874,8.85805682 33.0343678,7.89229545 30.9383908,7.29525 C30.795977,7.25490909 30.6873563,7.13872727 30.6551724,6.99269318 L29.4249425,1.34093182 L24.9650575,1.03434091 L22.9833333,6.54006818 C22.9752874,6.56911364 22.9648276,6.59735227 22.9495402,6.62397727 C22.8908046,6.73451136 22.7845977,6.81196591 22.6614943,6.83213636 C20.4858621,7.18794318 18.4083908,7.91488636 16.4854023,8.99198864 C16.3743678,9.05411364 16.2391954,9.06056818 16.1225287,9.00731818 C16.0758621,8.98634091 16.0348276,8.95648864 15.9994253,8.92018182 L11.2104598,5.84136364 L7.85287356,8.77414773 L10.5233333,13.86275 C10.5957471,13.9999091 10.5828736,14.1661136 10.4903448,14.2911705 C9.0983908,16.1726705 8.07896552,18.2461932 7.46183908,20.456875 C7.4216092,20.6021023 7.30413793,20.7110227 7.15770115,20.7424886 L1.5054023,21.9406136 L1.19724138,26.4055455 L6.7537931,28.3983864 C6.89137931,28.4484091 6.99114943,28.5678182 7.01528736,28.7130455 C7.37574713,30.9075909 8.10873563,33.0004773 9.19413793,34.9360341 C9.26816092,35.0675455 9.26252874,35.2289091 9.17965517,35.3555795 L5.99666667,40.2206932 L8.92701149,43.5931932 L14.2494253,41.0210568 C14.3837931,40.9573182 14.5398851,40.9710341 14.6597701,41.0573636 C16.4829885,42.3748977 18.4848276,43.3446932 20.6113793,43.9409318 C20.7714943,43.9861136 20.8873563,44.1248864 20.9034483,44.2910909 C20.9042529,44.3064205 20.9050575,44.3209432 20.9050575,44.3362727 C20.9541379,44.7138636 21.6058621,47.8289886 22.0524138,49.9347841 L22.0524138,49.9347841 Z"></path>
                </g>
            </g>
            <circle id="Oval-43-Copy-29" stroke="#0099CA" stroke-width="3" sketch:type="MSShapeGroup" cx="51" cy="50" r="50"></circle>
            <text id="Systems-Analysis" sketch:type="MSTextLayer" font-family="Lato" font-size="14" font-weight="260" fill="#0099CA">
                <tspan x="0" y="125">Systems Analysis</tspan>
            </text>
        </g>
    </g>
</svg>