<?xml version="1.0" encoding="UTF-8"?>
<svg width="104px" height="104px" viewBox="0 0 104 104" version="1.1" xmlns="http://www.w3.org/2000/svg" xmlns:xlink="http://www.w3.org/1999/xlink">
    <!-- Generator: Sketch 40.1 (33804) - http://www.bohemiancoding.com/sketch -->
    <title>user_requirements_s</title>
    <desc>Created with Sketch.</desc>
    <defs></defs>
    <g id="icons" stroke="none" stroke-width="1" fill="none" fill-rule="evenodd">
        <g id="user_requirements_s" transform="translate(2.000000, 2.000000)">
            <path d="M50,14.491 C46.812,14.491 44.24,17.091 44.24,20.251 C44.24,23.159 46.393,25.563 49.217,25.955 L49.217,38.705 C46.673,38.873 44.38,39.908 42.591,41.473 L36.86,35.742 C38.566,33.505 38.398,30.262 36.329,28.193 C34.092,25.956 30.457,25.956 28.193,28.193 C25.957,30.458 25.957,34.12 28.193,36.357 C30.262,38.426 33.506,38.594 35.742,36.888 L41.474,42.592 C39.908,44.381 38.874,46.674 38.706,49.218 L25.956,49.218 C25.564,46.394 23.16,44.241 20.252,44.241 C17.092,44.241 14.492,46.813 14.492,50.001 C14.492,53.189 17.092,55.761 20.252,55.761 C23.16,55.761 25.564,53.608 25.956,50.784 L38.705,50.784 C38.873,53.328 39.907,55.621 41.473,57.41 L35.741,63.114 C33.505,61.408 30.262,61.576 28.192,63.645 C25.956,65.881 25.956,69.544 28.192,71.809 C30.457,74.045 34.091,74.045 36.328,71.809 C38.397,69.74 38.565,66.496 36.859,64.232 L42.59,58.528 C44.38,60.094 46.672,61.1 49.216,61.268 L49.216,74.018 C46.392,74.41 44.239,76.841 44.239,79.749 C44.239,82.908 46.811,85.509 49.999,85.509 C53.187,85.509 55.759,82.908 55.759,79.749 C55.759,76.841 53.606,74.409 50.782,74.018 L50.782,61.268 C53.326,61.1 55.619,60.094 57.408,58.528 L63.111,64.232 C61.406,66.497 61.574,69.74 63.642,71.809 C65.879,74.045 69.541,74.045 71.806,71.809 C74.043,69.544 74.043,65.881 71.806,63.645 C69.738,61.576 66.494,61.436 64.257,63.141 L58.526,57.41 C60.091,55.621 61.098,53.328 61.266,50.784 L74.015,50.784 C74.407,53.607 76.839,55.761 79.746,55.761 C82.905,55.761 85.506,53.189 85.506,50.001 C85.506,46.813 82.905,44.241 79.746,44.241 C76.839,44.241 74.406,46.394 74.015,49.218 L61.268,49.218 C61.1,46.674 60.093,44.381 58.528,42.592 L64.259,36.86 C66.496,38.566 69.739,38.426 71.808,36.357 C74.045,34.12 74.045,30.458 71.808,28.193 C69.543,25.956 65.881,25.956 63.644,28.193 C61.576,30.262 61.408,33.506 63.113,35.742 L57.41,41.473 C55.621,39.908 53.328,38.873 50.784,38.705 L50.784,25.955 C53.607,25.563 55.761,23.159 55.761,20.251 C55.76,17.091 53.188,14.491 50,14.491 L50,14.491 L50,14.491 Z M50,16.057 C52.32,16.057 54.193,17.93 54.193,20.251 C54.193,22.572 52.32,24.445 50,24.445 C47.679,24.445 45.806,22.572 45.806,20.251 C45.806,17.93 47.679,16.057 50,16.057 L50,16.057 L50,16.057 Z M32.274,28.08 C33.337,28.08 34.399,28.499 35.238,29.31 C36.86,30.96 36.86,33.588 35.238,35.238 C33.588,36.86 30.96,36.86 29.311,35.238 C27.661,33.588 27.661,30.96 29.311,29.31 C30.121,28.499 31.211,28.08 32.274,28.08 L32.274,28.08 L32.274,28.08 Z M67.726,28.08 C68.789,28.08 69.879,28.499 70.69,29.31 C72.339,30.96 72.312,33.588 70.662,35.238 C69.013,36.86 66.385,36.86 64.735,35.238 C63.113,33.588 63.113,30.96 64.735,29.31 C65.573,28.499 66.663,28.08 67.726,28.08 L67.726,28.08 L67.726,28.08 Z M50,40.27 C55.396,40.27 59.729,44.603 59.729,50 C59.729,55.397 55.396,59.729 50,59.729 C44.604,59.729 40.271,55.396 40.271,50 C40.271,44.604 44.604,40.27 50,40.27 L50,40.27 L50,40.27 Z M20.252,45.806 C22.517,45.806 24.362,47.567 24.445,49.804 L24.445,49.888 L24.445,49.888 L24.445,50.196 C24.362,52.433 22.516,54.195 20.252,54.195 C17.931,54.195 16.058,52.321 16.058,50.001 C16.058,47.679 17.931,45.806 20.252,45.806 L20.252,45.806 L20.252,45.806 Z M79.748,45.806 C82.068,45.806 83.942,47.679 83.942,50 C83.942,52.32 82.068,54.194 79.748,54.194 C77.428,54.194 75.555,52.32 75.555,50 C75.555,47.679 77.428,45.806 79.748,45.806 L79.748,45.806 L79.748,45.806 Z M32.274,63.532 C33.337,63.532 34.399,63.952 35.238,64.762 C36.86,66.411 36.86,69.039 35.238,70.69 C33.588,72.339 30.96,72.339 29.311,70.69 C27.661,69.04 27.661,66.412 29.311,64.762 C30.121,63.952 31.211,63.532 32.274,63.532 L32.274,63.532 L32.274,63.532 Z M67.698,63.532 C68.788,63.532 69.879,63.952 70.689,64.762 C72.338,66.411 72.338,69.039 70.689,70.69 C69.04,72.339 66.412,72.339 64.762,70.69 C63.14,69.04 63.112,66.412 64.734,64.762 C65.573,63.952 66.636,63.532 67.698,63.532 L67.698,63.532 L67.698,63.532 Z M50,75.555 C52.32,75.555 54.193,77.429 54.193,79.749 C54.193,82.069 52.32,83.943 50,83.943 C47.679,83.943 45.806,82.069 45.806,79.749 C45.806,77.429 47.679,75.555 50,75.555 L50,75.555 L50,75.555 Z" id="Shape" fill="#0099CA"></path>
            <circle id="Oval-43-Copy-10" stroke="#0099CA" stroke-width="3" cx="50" cy="50" r="50"></circle>
        </g>
    </g>
</svg>