<?xml version="1.0" encoding="UTF-8"?>
<svg width="343px" height="222px" viewBox="0 0 343 222" version="1.1" xmlns="http://www.w3.org/2000/svg" xmlns:xlink="http://www.w3.org/1999/xlink">
    <!-- Generator: Sketch 63.1 (92452) - https://sketch.com -->
    <title>Group 25 Copy</title>
    <desc>Created with Sketch.</desc>
    <defs>
        <rect id="path-1" x="0" y="0" width="343" height="222" rx="20"></rect>
    </defs>
    <g id="V3" stroke="none" stroke-width="1" fill="none" fill-rule="evenodd">
        <g id="Intro-Copy-7" transform="translate(-548.000000, -3979.000000)">
            <g id="Group-42-Copy-2" transform="translate(165.000000, 3863.000000)">
                <g id="Group-25-Copy" transform="translate(383.000000, 116.000000)">
                    <g id="Group-23">
                        <mask id="mask-2" fill="white">
                            <use xlink:href="#path-1"></use>
                        </mask>
                        <use id="Mask" fill="#FFFFFF" xlink:href="#path-1"></use>
                        <g mask="url(#mask-2)">
                            <rect id="Rectangle" fill="#222222" x="0" y="0" width="343" height="222"></rect>
                            <polygon id="Gradient-BG-Copy" fill="#333333" points="-2.38004061e-15 0 343 0 343 54.5 0 168.5"></polygon>
                        </g>
                    </g>
                    <g id="gsx" transform="translate(24.000000, 35.000000)" fill="#FFFFFF">
                        <g id="Group-6">
                            <path d="M103.790512,5.52941176 C107.341848,5.52941176 107.93272,6.69053362 107.808419,12.8352706 C107.776292,14.1918819 107.758295,15.0543157 107.754505,15.4161242 L107.753747,15.5341323 L106.9611,15.5341323 C106.9611,15.2661877 106.979361,14.3634845 107.015963,12.8179949 C107.132478,7.05803115 106.756531,6.31925812 103.790512,6.31925812 C102.834974,6.31925812 102.023539,6.53639607 101.183096,7.00525311 C100.114686,7.60128587 99.5081419,8.13024788 96.6652708,10.8182517 C96.0094757,11.4383219 93.3614039,14.0563938 93.0329207,14.3755319 C92.5918484,14.8040561 92.1855944,15.1925507 91.7976904,15.555695 L91.5099458,15.8235294 L90.9705882,15.2447351 C91.4401155,14.8102861 91.9325337,14.341479 92.4795749,13.8100006 C92.802474,13.4962877 95.4562364,10.8725897 96.119675,10.2452923 C99.0276695,7.49571285 99.6425739,6.95945955 100.795887,6.31606243 C101.752977,5.78213169 102.69738,5.52941176 103.790512,5.52941176 Z M170,5.79269388 C170.129949,5.79269388 170.235294,5.89803865 170.235294,6.027988 L170.235294,8.98006731 C170.235294,9.11001666 170.129949,9.21536143 170,9.21536143 L164.950863,9.21469388 L164.95098,15.5621203 C164.95098,15.6920696 164.845636,15.7974144 164.715686,15.7974144 L161.751471,15.7974144 C161.621521,15.7974144 161.516176,15.6920696 161.516176,15.5621203 L161.515863,9.21469388 L156.467157,9.21536143 C156.337208,9.21536143 156.231863,9.11001666 156.231863,8.98006731 L156.231863,6.027988 C156.231863,5.89803865 156.337208,5.79269388 156.467157,5.79269388 L170,5.79269388 Z M119.270588,5.79269388 C119.340075,5.79269388 119.402527,5.82281489 119.445599,5.87071237 C121.408415,6.24413318 122.412255,7.96205199 122.412255,10.7950541 C122.412255,13.6280563 121.408415,15.3459751 119.445372,15.7199646 C119.401871,15.7676088 119.33971,15.7974144 119.270588,15.7974144 L109.965196,15.7974144 C109.835247,15.7974144 109.729902,15.6920696 109.729902,15.5621203 L109.729902,6.027988 C109.729902,5.89803865 109.835247,5.79269388 109.965196,5.79269388 L119.270588,5.79269388 Z M131.434551,5.52941176 C134.321698,5.55678274 136.327244,6.31471258 137.339373,7.91922755 C137.922879,8.84425201 138.208895,10.1431401 138.310975,11.7970455 C138.367925,12.7197477 138.364274,13.5944173 138.323029,14.8032236 C138.321677,14.8428567 138.306283,15.2791101 138.302799,15.3881812 C138.298379,15.5265504 138.295698,15.6333389 138.294634,15.7187304 L138.294104,15.7973667 L136.180379,15.7973667 C136.180379,15.6734819 136.183592,15.5262718 136.190143,15.321173 C136.19376,15.2079434 136.209278,14.7681868 136.210524,14.7316532 C136.249656,13.584767 136.253073,12.7662084 136.201236,11.9263409 C136.119164,10.5965999 135.897953,9.59201547 135.549816,9.04011756 C134.99812,8.16552039 133.661405,7.65895368 131.42856,7.63571378 C129.120108,7.67735439 127.726809,8.19174076 127.155516,9.05802742 C126.731788,9.70055355 126.488485,10.7826555 126.408236,12.2506187 C126.36895,12.9692588 126.368061,13.6107135 126.389935,14.7566467 C126.398564,15.2087499 126.402235,15.4144421 126.403635,15.5877794 L126.404398,15.7973667 L124.290673,15.7973667 C124.290673,15.5602222 124.288407,15.4156956 124.276591,14.7967022 C124.253777,13.6015127 124.25472,12.9211534 124.297639,12.1360527 C124.396521,10.3272614 124.710689,8.9299802 125.389064,7.90131768 C126.385353,6.39058248 128.306974,5.63899535 131.070611,5.53846587 L131.406284,5.52952049 L131.434551,5.52941176 Z M150.580147,5.66105282 C150.677609,5.66105282 150.761231,5.72030925 150.796951,5.80475985 C151.851355,5.86974674 152.694408,6.21697013 153.32549,6.84582236 C154.326729,7.84352302 154.379425,8.84122368 154.382199,9.39120271 L154.382199,9.56608438 C154.379425,10.1160634 154.326729,11.1137641 153.32549,12.1114647 C152.694408,12.740317 151.851355,13.0875404 150.796332,13.1531349 C150.760567,13.2374472 150.677222,13.2962343 150.580147,13.2962343 L142.756706,13.2960528 L142.756863,15.4304792 C142.756863,15.5604286 142.651518,15.6657733 142.521569,15.6657733 L140.35,15.6657733 C140.220051,15.6657733 140.114706,15.5604286 140.114706,15.4304792 L140.114706,5.89634694 C140.114706,5.76639759 140.220051,5.66105282 140.35,5.66105282 L150.580147,5.66105282 Z M118.581127,7.10910448 L111.050902,7.10869388 L111.050902,14.4806939 L118.581127,14.4810038 C120.219885,14.4810038 121.035879,13.4378201 121.088458,11.0471808 L121.091176,10.7950541 C121.091176,8.22547228 120.276394,7.10910448 118.581127,7.10910448 Z M134.624383,11.3215707 C134.884281,11.3215707 135.094971,11.5322602 135.094971,11.792159 L135.094971,12.9572394 C135.094971,13.2171381 134.884281,13.4278277 134.624383,13.4278277 L127.903304,13.4278277 C127.643406,13.4278277 127.432716,13.2171381 127.432716,12.9572394 L127.432716,11.792159 C127.432716,11.5322602 127.643406,11.3215707 127.903304,11.3215707 L134.624383,11.3215707 Z M104.847375,11.7165416 C105.066258,11.7165416 105.243698,11.8933547 105.243698,12.1114647 C105.243698,12.302311 105.107846,12.4615394 104.927248,12.4983645 L104.847375,12.5063879 L97.7135513,12.5063879 C97.4946679,12.5063879 97.3172278,12.3295748 97.3172278,12.1114647 C97.3172278,11.9206184 97.4530804,11.7613901 97.6336783,11.724565 L97.7135513,11.7165416 L104.847375,11.7165416 Z M150.726684,8.23975036 L150.698905,8.26174947 C150.664046,8.28216904 150.623464,8.29387401 150.580147,8.29387401 L142.756706,8.29305282 L142.756706,10.6630528 L150.580147,10.6634131 C150.635905,10.6634131 150.687134,10.6828079 150.727454,10.7152193 C151.402359,10.5065584 151.740196,10.093594 151.740196,9.47864355 C151.740196,8.86369305 151.402359,8.45072866 150.726684,8.23975036 Z" id="Combined-Shape" fill-rule="nonzero"></path>
                            <g id="Group-5" transform="translate(0.343137, 0.039216)">
                                <polygon id="Close" stroke="#FFFFFF" stroke-width="1.29411765" stroke-linejoin="round" points="68.674902 6.17647059 72.3423529 9.84392157 76.0098039 6.17647059 76.3611765 6.52784314 72.6937255 10.1952941 76.3611765 13.8627451 76.0098039 14.2141176 72.3423529 10.5466667 68.674902 14.2141176 68.3235294 13.8627451 71.9909804 10.1952941 68.3235294 6.52784314"></polygon>
                                <path d="M7.17176391,19.6192476 C5.68209803,19.5638983 4.46332687,19.1826563 3.51034883,18.4745672 C3.32847695,18.3392955 2.89509641,17.9337189 2.74970094,17.762661 C2.36325509,17.3081766 2.10052292,16.8658595 1.92528311,16.3751118 C1.38604447,14.8644581 1.66357126,12.8821428 2.71909137,10.706582 C3.62283901,8.84403106 5.01736014,6.99674884 7.45031102,4.43827609 C7.80869811,4.06180555 8.87595188,2.96078431 8.88283904,2.96078431 C8.88538983,2.96078431 8.82723165,3.05502123 8.75402375,3.16977556 C8.12142591,4.16081396 7.58014663,5.32815891 7.28527441,6.33876042 C6.81159127,7.96035118 6.86872914,9.35195614 7.45260674,10.4310285 C7.85537771,11.1744266 8.54587865,11.8183391 9.32234149,12.1742923 C10.6816616,12.7972102 12.671794,12.8487423 15.1021941,12.3250713 C15.2695264,12.288808 23.5611496,10.2301488 33.5281367,7.75016706 C43.4951238,5.26994673 51.6512995,3.2423022 51.6525749,3.24397222 C51.6553808,3.2461194 28.496433,12.5147381 16.4742682,17.3232068 C14.5703528,18.0844979 14.0612135,18.276789 13.1661386,18.5707127 C10.878073,19.3222224 8.82850704,19.6807998 7.17176391,19.6192476 Z" id="Path-Copy"></path>
                            </g>
                        </g>
                    </g>
                    <text id="Nike-Adapt" font-family="Canela-Light, Canela" font-size="40" font-weight="300" fill="#FFFFFF">
                        <tspan x="24" y="129">Nike Adapt</tspan>
                    </text>
                </g>
            </g>
        </g>
    </g>
</svg>