<svg width="360" height="222" viewBox="0 0 360 222" fill="none" xmlns="http://www.w3.org/2000/svg">
<g id="Group 25 Copy">
<g id="Group 23">
<rect id="Mask" width="360" height="222" rx="20" fill="white"/>
<mask id="mask0" mask-type="alpha" maskUnits="userSpaceOnUse" x="0" y="0" width="360" height="222">
<rect id="Mask_2" width="360" height="222" rx="20" fill="white"/>
</mask>
<g mask="url(#mask0)">
<g id="Group 23_2">
<rect id="Rectangle" width="360" height="222" fill="#222222"/>
<path id="Gradient BG Copy" fill-rule="evenodd" clip-rule="evenodd" d="M0 0H360V54.5L0 168.5L0 0Z" fill="#333333"/>
</g>
</g>
</g>
<g id="Group 142">
<g id="gsx">
<g id="Group 6">
<path id="Combined Shape" fill-rule="evenodd" clip-rule="evenodd" d="M124.651 49.3754C124.099 49.9111 123.602 50.3842 123.128 50.8234L122.588 50.2446C123.058 49.8102 123.55 49.3414 124.097 48.8099C124.19 48.7196 124.476 48.4379 124.852 48.0676L124.853 48.0673C125.783 47.151 127.265 45.6919 127.737 45.2452C130.645 42.4956 131.26 41.9593 132.414 41.3159C133.371 40.782 134.315 40.5293 135.408 40.5293C138.959 40.5293 139.55 41.6904 139.426 47.8352C139.39 49.3726 139.371 50.2754 139.371 50.534H138.579C138.579 50.2661 138.597 49.3634 138.634 47.8179C138.75 42.0579 138.374 41.3191 135.408 41.3191C134.453 41.3191 133.641 41.5363 132.801 42.0051C131.732 42.6012 131.126 43.1301 128.283 45.8181C127.818 46.2579 126.35 47.7028 125.419 48.6196L125.419 48.6203L125.418 48.6211C125.037 48.9962 124.746 49.2827 124.651 49.3754ZM171.968 40.6609C171.838 40.6609 171.732 40.7663 171.732 40.8962V50.4304C171.732 50.5603 171.838 50.6657 171.968 50.6657H174.139C174.269 50.6657 174.375 50.5603 174.375 50.4304V48.2961H182.198C182.3 48.2961 182.386 48.2314 182.419 48.1408C183.017 48.0806 184.184 47.8673 184.943 47.1113C186 46.0582 186 45.0051 186 44.4785C186 43.952 186 42.8988 184.943 41.8457C184.184 41.0897 183.017 40.8764 182.419 40.8162C182.386 40.7257 182.3 40.6609 182.198 40.6609H174.139H172.892H171.968ZM182.333 43.2513C182.294 43.2781 182.248 43.2938 182.198 43.2938H174.375V45.6633H182.198C182.248 45.6633 182.294 45.679 182.333 45.7057C182.722 45.5596 183.358 45.2091 183.358 44.4785C183.358 43.7479 182.722 43.3975 182.333 43.2513ZM187.85 41.0279C187.85 40.8979 187.955 40.7926 188.085 40.7926H193.369H196.333H201.618C201.748 40.7926 201.853 40.8979 201.853 41.0279V43.98C201.853 44.1099 201.748 44.2152 201.618 44.2152H196.569V50.562C196.569 50.692 196.463 50.7973 196.333 50.7973H193.369C193.239 50.7973 193.134 50.692 193.134 50.562V44.2152H188.085C187.955 44.2152 187.85 44.1099 187.85 43.98V41.0279ZM136.465 47.5063H129.331C129.112 47.5063 128.935 47.3295 128.935 47.1114C128.935 46.8932 129.112 46.7164 129.331 46.7164H136.465C136.684 46.7164 136.861 46.8932 136.861 47.1114C136.861 47.3295 136.684 47.5063 136.465 47.5063ZM141.583 40.7926C141.461 40.7926 141.361 40.8852 141.349 41.0038C141.348 41.0117 141.348 41.0198 141.348 41.0279V41.8737V49.7162V50.562C141.348 50.692 141.453 50.7973 141.583 50.7973H142.433H150.199H150.888C150.957 50.7973 151.02 50.7674 151.063 50.7199C153.026 50.3461 154.03 48.6281 154.03 45.7949C154.03 42.9618 153.026 41.2438 151.063 40.87C151.02 40.8224 150.957 40.7926 150.888 40.7926H150.199H142.433H141.583ZM150.199 49.4809C151.894 49.4809 152.709 48.3645 152.709 45.7949C152.709 43.2254 151.894 42.109 150.199 42.109H142.669V49.4809H150.198L150.199 49.4809ZM167.819 46.9262C167.737 45.5965 167.516 44.5919 167.167 44.04C166.616 43.1654 165.279 42.6588 163.046 42.6356L163.06 42.6353L163.032 42.6355L163.046 42.6356C160.738 42.6772 159.344 43.1916 158.773 44.0579C158.349 44.7004 158.106 45.7825 158.026 47.2505C157.987 47.9691 157.986 48.6106 158.008 49.7565C158.02 50.3923 158.022 50.5408 158.022 50.7973H155.908C155.908 50.5601 155.906 50.4156 155.894 49.7966C155.871 48.6014 155.872 47.921 155.915 47.1359C156.014 45.3271 156.328 43.9299 157.007 42.9012C158.043 41.33 160.08 40.58 163.024 40.5294L163.052 40.5293C165.939 40.5567 167.945 41.3146 168.957 42.9191C169.541 43.8441 169.827 45.143 169.929 46.7969C169.986 47.7196 169.982 48.5943 169.941 49.8031L169.937 49.894L169.937 49.8944L169.937 49.8987C169.932 50.0438 169.923 50.3068 169.92 50.3881C169.915 50.5726 169.912 50.7009 169.912 50.7973H167.798C167.798 50.6734 167.801 50.5262 167.808 50.3211C167.811 50.2346 167.82 49.9579 167.825 49.8155L167.828 49.7315C167.867 48.5847 167.871 47.7661 167.819 46.9262ZM159.05 46.792C159.05 46.5321 159.261 46.3215 159.521 46.3215H166.242C166.502 46.3215 166.713 46.5321 166.713 46.792V47.9571C166.713 48.217 166.502 48.4277 166.242 48.4277H159.521C159.261 48.4277 159.05 48.217 159.05 47.9571V46.792Z" fill="white"/>
<g id="Group 5">
<path id="Close" fill-rule="evenodd" clip-rule="evenodd" d="M100.636 41.2168L104.303 44.8842L107.971 41.2168L108.322 41.5682L104.655 45.2356L108.322 48.9031L107.971 49.2544L104.303 45.587L100.636 49.2544L100.284 48.9031L103.952 45.2356L100.284 41.5682L100.636 41.2168Z" fill="white" stroke="white" stroke-width="1.29412" stroke-linejoin="round"/>
<path id="Path Copy" fill-rule="evenodd" clip-rule="evenodd" d="M39.1325 54.6585C37.6429 54.6031 36.4241 54.2219 35.4711 53.5138C35.2893 53.3785 34.8559 52.9729 34.7105 52.8019C34.324 52.3474 34.0613 51.9051 33.8861 51.4143C33.3468 49.9037 33.6244 47.9214 34.6799 45.7458C35.5836 43.8832 36.9781 42.036 39.4111 39.4775C39.7695 39.101 40.8367 38 40.8436 38C40.8462 38 40.788 38.0942 40.7148 38.209C40.0822 39.2 39.5409 40.3674 39.2461 41.378C38.7724 42.9996 38.8295 44.3912 39.4134 45.4702C39.8162 46.2136 40.5067 46.8576 41.2831 47.2135C42.6424 47.8364 44.6326 47.888 47.063 47.3643C47.2303 47.328 55.5219 45.2694 65.4889 42.7894C75.4559 40.3092 83.6121 38.2815 83.6134 38.2832C83.6162 38.2853 60.4572 47.554 48.4351 52.3624C46.5311 53.1237 46.022 53.316 45.1269 53.6099C42.8389 54.3614 40.7893 54.72 39.1325 54.6585Z" fill="white"/>
</g>
</g>
</g>
<path id="Nike Adapt" d="M36.4 95.76L55.88 121.12L56.72 121V98.36C56.72 95.36 57.16 94.12 58.92 91.8V91.72H53.4V91.8C55.32 94.12 55.84 95.36 55.84 98.36L55.96 115.96L37.32 91.72H32.48V91.8C34.2 92.96 35.04 94.12 35.64 96.16V114.36C35.64 117.36 35.2 118.6 33.44 120.92V121H39.36V120.92C37.12 118.56 36.56 117.4 36.56 114.36L36.4 95.76ZM66.1316 94.64C66.1316 93.56 65.2516 92.64 64.1716 92.64C63.0916 92.64 62.1716 93.56 62.1716 94.64C62.1716 95.76 63.0916 96.64 64.1716 96.64C65.2516 96.64 66.1316 95.76 66.1316 94.64ZM61.9716 120.92V121H66.6516V120.92C65.8516 119.16 65.7716 117.56 65.7716 114.8V101.16L61.0916 103.28V103.44C62.0116 104.24 62.8516 105.44 62.8516 107.4V114.84C62.8516 117.6 62.6116 119.16 61.9716 120.92ZM70.2119 120.92V121H74.9319V120.92C74.1719 119.68 74.0119 118.36 74.0119 115.84V89.84L69.3319 91.76V91.84C70.2519 92.6 71.0919 93.64 71.0919 95.52V115.88C71.0919 118.4 70.8519 119.68 70.2119 120.92ZM81.8919 121H86.4119V120.92C85.0119 120.16 84.0919 119.2 82.7719 117.32L77.1319 109.52L80.5319 105.68C81.9319 104.04 82.9319 103 85.0919 102.04V101.96H80.2119V102.04C81.2919 102.88 80.8919 104.16 79.8919 105.28L74.6919 111.04L81.8919 121ZM103.198 116.16L102.998 116.04C101.598 118.08 99.2784 119.04 96.8384 119.04C92.3184 119.04 89.7584 115.84 89.7584 110.44V109.76C89.7584 109.52 89.7584 109.28 89.7984 109.08H103.118C103.438 105.36 100.438 101.36 95.7984 101.36C91.1584 101.36 86.7184 105.44 86.7184 111.8C86.7184 117.56 90.2384 121.6 95.5184 121.6C99.4784 121.6 102.198 119.32 103.198 116.16ZM95.6384 102.08C98.3984 102.08 99.8784 103.92 99.8784 107.92V108.24L89.8784 108.44C90.3984 104.6 92.4384 102.08 95.6384 102.08ZM122.229 95.68L127.109 109.16H117.269L122.229 95.68ZM115.749 121V120.92C114.869 119.84 113.989 118 115.309 114.44L116.949 109.96H127.389L129.389 115.44C130.389 118.16 130.149 120 129.549 120.92V121H135.909V120.92C134.549 119.76 133.989 118.8 132.829 115.6L123.869 91.36H122.909L114.069 115.2C112.989 118 112.589 119.2 110.869 120.92V121H115.749ZM146.864 119.64C142.984 119.64 140.584 116.4 140.584 111.24C140.584 105.92 143.344 102.08 147.304 102.08C149.384 102.08 151.704 103.12 152.224 106.8V116.76C150.984 118.48 149.144 119.64 146.864 119.64ZM152.304 117.56H152.424V121.48L156.944 120.24V120.16C155.624 119.28 155.144 118.68 155.144 114.76V89.84L150.464 91.76V91.84C151.384 92.6 152.224 93.64 152.224 95.56V102.24C150.984 101.64 149.544 101.36 147.864 101.36C141.304 101.36 137.384 106.52 137.384 112.24C137.384 117.84 140.504 121.6 145.264 121.6C148.784 121.6 151.144 119.64 152.304 117.56ZM165.613 119.84C163.373 119.84 162.333 118.64 162.333 116.92C162.333 113.72 166.293 112.16 170.013 111.52V118.16C169.093 119.08 167.413 119.84 165.613 119.84ZM172.973 121.48C175.093 121.48 176.133 119.96 176.533 118.92L176.413 118.84C175.813 119.32 175.253 119.68 174.493 119.68C173.373 119.68 172.933 118.96 172.933 117.96V106.2C172.933 103.68 171.933 101.36 167.613 101.36C164.413 101.36 161.813 102.72 160.213 104.64L160.413 104.88C161.973 103.72 164.013 103.12 165.893 103.12C169.093 103.12 170.013 104.8 170.013 106.92V110.92C165.613 111.44 159.493 113.44 159.493 117.84C159.493 120.28 161.373 121.6 163.973 121.6C166.533 121.6 168.693 120.32 170.013 118.84C170.173 120.32 171.093 121.48 172.973 121.48ZM187.183 120.88C185.063 120.88 183.063 119.76 181.983 117.16V105.6C182.903 104.44 184.743 103.28 187.143 103.28C190.823 103.28 193.623 106.04 193.623 111.68C193.623 117.32 191.023 120.88 187.183 120.88ZM178.183 130H182.863V129.92C182.063 128.16 181.983 126.56 181.983 123.84V120.4C183.143 121.08 184.703 121.6 186.903 121.6C193.583 121.6 196.823 116.64 196.823 111.08C196.823 105.32 193.503 101.36 188.743 101.36C185.863 101.36 183.503 102.72 182.103 104.76L181.823 104.72V101.16L177.303 103.28V103.36C178.223 104.16 179.063 105.32 179.063 107.36V123.88C179.063 126.6 178.943 128.2 178.183 129.92V130ZM205.22 121.6C207.46 121.6 209.1 120.48 209.9 119.4L209.82 119.24C209.38 119.52 208.22 120 206.78 120C204.74 120 203.9 118.96 203.9 117V102.68H209.5V101.96H203.9V98.32H203.7L198.82 102.52V102.68H200.98V117C200.98 120.6 203.1 121.6 205.22 121.6Z" fill="white"/>
</g>
</g>
</svg>
