<svg width="360" height="400" viewBox="0 0 360 400" fill="none" xmlns="http://www.w3.org/2000/svg">
<rect width="360" height="400" rx="20" fill="url(#paint0_linear)"/>
<path d="M35.304 333.526V330.992H36.592C37.432 330.992 38.006 331.468 38.006 332.266C38.006 333.036 37.432 333.526 36.592 333.526H35.304ZM36.816 335.43C38.832 335.43 40.218 334.128 40.218 332.252C40.218 330.404 38.832 329.074 36.816 329.074H33.078V339H35.29V335.43H36.816ZM49.1696 339H51.6056L49.5896 334.982C50.8076 334.548 51.5496 333.526 51.5496 332.182C51.5496 330.418 50.2896 329.074 48.3296 329.074H44.3956V339H46.6076V335.304H47.3916L49.1696 339ZM46.6076 333.4V330.992H47.9096C48.8196 330.992 49.3096 331.454 49.3096 332.196C49.3096 332.896 48.8196 333.4 47.9096 333.4H46.6076ZM57.6402 334.03C57.6402 331.958 59.1242 331.02 60.5102 331.02C61.8822 331.02 63.3662 331.958 63.3662 334.03C63.3662 336.102 61.8822 337.026 60.5102 337.026C59.1242 337.026 57.6402 336.102 57.6402 334.03ZM55.3442 334.044C55.3442 337.18 57.7102 339.21 60.5102 339.21C63.2962 339.21 65.6622 337.18 65.6622 334.044C65.6622 330.894 63.2962 328.864 60.5102 328.864C57.7102 328.864 55.3442 330.894 55.3442 334.044ZM69.2405 335.934C69.2405 337.908 70.5985 339.21 72.5585 339.21C74.5325 339.21 75.9185 337.698 75.9185 335.892V329.074H73.7065V335.836C73.7065 336.578 73.2725 337.11 72.5445 337.11C71.9005 337.11 71.3405 336.704 71.3405 335.822V334.912L69.2405 335.276V335.934ZM87.0956 339V336.9H83.0076V334.996H86.7036V333.05H83.0076V331.16H87.0816V329.074H80.7956V339H87.0956ZM96.322 339.21C99.402 339.21 100.718 337.11 101.04 335.738L98.926 335.136C98.73 335.85 98.044 336.998 96.322 336.998C94.838 336.998 93.466 335.92 93.466 334.058C93.466 331.972 94.964 331.02 96.294 331.02C98.044 331.02 98.674 332.182 98.828 332.868L100.914 332.21C100.592 330.782 99.276 328.864 96.294 328.864C93.522 328.864 91.17 330.964 91.17 334.058C91.17 337.152 93.466 339.21 96.322 339.21ZM112.74 331.188V329.074H104.41V331.188H107.462V339H109.674V331.188H112.74ZM116.001 337.726C116.001 338.468 116.631 339.126 117.401 339.126C118.157 339.126 118.801 338.468 118.801 337.726C118.801 336.956 118.157 336.326 117.401 336.326C116.631 336.326 116.001 336.956 116.001 337.726ZM116.001 333.316C116.001 334.058 116.631 334.716 117.401 334.716C118.157 334.716 118.801 334.058 118.801 333.316C118.801 332.546 118.157 331.916 117.401 331.916C116.631 331.916 116.001 332.546 116.001 333.316ZM133.548 339V329.914H131.658C131.504 330.838 130.538 331.608 129.18 331.622V333.092H131.35V339H133.548ZM147.171 334.856V339H149.383V334.856L152.869 329.074H150.405L148.347 332.756L146.317 329.074H143.727L147.171 334.856ZM163.185 339V336.9H159.097V334.996H162.793V333.05H159.097V331.16H163.171V329.074H156.885V339H163.185ZM174.497 339H176.905L173.209 329.074H170.647L166.909 339H169.233L169.947 336.984H173.783L174.497 339ZM171.893 331.538L173.083 334.968H170.675L171.893 331.538ZM185.702 339H188.138L186.122 334.982C187.34 334.548 188.082 333.526 188.082 332.182C188.082 330.418 186.822 329.074 184.862 329.074H180.928V339H183.14V335.304H183.924L185.702 339ZM183.14 333.4V330.992H184.442C185.352 330.992 185.842 331.454 185.842 332.196C185.842 332.896 185.352 333.4 184.442 333.4H183.14ZM200.529 341.268V327.478H198.765V341.268H200.529ZM219.238 331.188V329.074H210.908V331.188H213.96V339H216.172V331.188H219.238ZM229.68 339V336.9H225.592V334.996H229.288V333.05H225.592V331.16H229.666V329.074H223.38V339H229.68ZM240.992 339H243.4L239.704 329.074H237.142L233.404 339H235.728L236.442 336.984H240.278L240.992 339ZM238.388 331.538L239.578 334.968H237.17L238.388 331.538ZM258.665 339V329.074H255.627L253.037 335.78L250.307 329.074H247.423V339H249.523V332.504L252.113 339H253.905L256.495 332.42V339H258.665ZM39.91 347.51C39.7 346.348 38.762 344.864 36.284 344.864C34.38 344.864 32.728 346.18 32.728 348.056C32.728 349.526 33.75 350.646 35.43 350.968L36.788 351.22C37.446 351.346 37.852 351.71 37.852 352.214C37.852 352.83 37.32 353.25 36.452 353.25C35.094 353.25 34.478 352.452 34.394 351.542L32.364 352.032C32.504 353.432 33.68 355.21 36.424 355.21C38.79 355.21 40.092 353.628 40.092 352.074C40.092 350.66 39.112 349.442 37.222 349.092L35.892 348.84C35.206 348.714 34.912 348.364 34.912 347.888C34.912 347.342 35.444 346.824 36.27 346.824C37.474 346.824 37.852 347.608 37.922 348.07L39.91 347.51ZM46.6493 355V345.074H44.4093V355H46.6493ZM58.9059 355V352.886H53.9499L58.8499 347.118V345.074H51.2339V347.188H55.8119L51.0239 352.872V355H58.9059ZM69.7077 355V352.9H65.6197V350.996H69.3157V349.05H65.6197V347.16H69.6937V345.074H63.4077V355H69.7077ZM74.1458 353.726C74.1458 354.468 74.7758 355.126 75.5458 355.126C76.3018 355.126 76.9458 354.468 76.9458 353.726C76.9458 352.956 76.3018 352.326 75.5458 352.326C74.7758 352.326 74.1458 352.956 74.1458 353.726ZM74.1458 349.316C74.1458 350.058 74.7758 350.716 75.5458 350.716C76.3018 350.716 76.9458 350.058 76.9458 349.316C76.9458 348.546 76.3018 347.916 75.5458 347.916C74.7758 347.916 74.1458 348.546 74.1458 349.316ZM94.4788 346.082C94.1148 345.872 93.4428 345.704 92.5888 345.704C89.4388 345.704 87.3668 347.818 87.3668 351.038C87.3668 353.642 88.9768 355.21 91.1328 355.21C93.2468 355.21 94.7168 353.824 94.7168 351.962C94.7168 350.198 93.5268 348.938 91.6788 348.938C90.6148 348.938 89.8448 349.372 89.5228 349.89C89.7888 348.322 90.9648 347.58 92.4628 347.58C92.9668 347.58 93.4708 347.72 93.8908 347.874L94.4788 346.082ZM89.6908 352.046C89.6908 351.234 90.3208 350.716 91.1048 350.716C91.8888 350.716 92.5328 351.234 92.5328 352.046C92.5328 352.844 91.8888 353.362 91.1048 353.362C90.3208 353.362 89.6908 352.816 89.6908 352.046ZM107.374 349.526V346.992H108.662C109.502 346.992 110.076 347.468 110.076 348.266C110.076 349.036 109.502 349.526 108.662 349.526H107.374ZM108.886 351.43C110.902 351.43 112.288 350.128 112.288 348.252C112.288 346.404 110.902 345.074 108.886 345.074H105.148V355H107.36V351.43H108.886ZM122.765 355V352.9H118.677V350.996H122.373V349.05H118.677V347.16H122.751V345.074H116.465V355H122.765ZM129.136 350.03C129.136 347.958 130.62 347.02 132.006 347.02C133.378 347.02 134.862 347.958 134.862 350.03C134.862 352.102 133.378 353.026 132.006 353.026C130.62 353.026 129.136 352.102 129.136 350.03ZM126.84 350.044C126.84 353.18 129.206 355.21 132.006 355.21C134.792 355.21 137.158 353.18 137.158 350.044C137.158 346.894 134.792 344.864 132.006 344.864C129.206 344.864 126.84 346.894 126.84 350.044ZM143.76 349.526V346.992H145.048C145.888 346.992 146.462 347.468 146.462 348.266C146.462 349.036 145.888 349.526 145.048 349.526H143.76ZM145.272 351.43C147.288 351.43 148.674 350.128 148.674 348.252C148.674 346.404 147.288 345.074 145.272 345.074H141.534V355H143.746V351.43H145.272ZM159.348 355V352.886H155.064V345.074H152.852V355H159.348ZM169.882 355V352.9H165.794V350.996H169.49V349.05H165.794V347.16H169.868V345.074H163.582V355H169.882Z" fill="white" fill-opacity="0.5"/>
<path d="M82.464 308V290.984H79.152V302.24L72.072 290.984H67.944V308H71.256V295.928L78.984 308H82.464ZM87.4001 300.752C87.4721 299.672 88.3841 298.424 90.0401 298.424C91.8641 298.424 92.6321 299.576 92.6801 300.752H87.4001ZM92.9921 303.824C92.6081 304.88 91.7921 305.624 90.3041 305.624C88.7201 305.624 87.4001 304.496 87.3281 302.936H95.7761C95.7761 302.888 95.8241 302.408 95.8241 301.952C95.8241 298.16 93.6401 295.832 89.9921 295.832C86.9681 295.832 84.1841 298.28 84.1841 302.048C84.1841 306.032 87.0401 308.36 90.2801 308.36C93.1841 308.36 95.0561 306.656 95.6561 304.616L92.9921 303.824ZM103.886 296.192L101.318 303.776L99.1343 296.192H95.7742L99.5423 308H102.782L105.494 299.936L108.254 308H111.446L115.142 296.192H111.974L109.79 303.8L107.246 296.192H103.886ZM125.609 300.848V308H128.921V300.848L134.921 290.984H131.201L127.385 297.728L123.569 290.984H119.681L125.609 300.848ZM138.849 305.456C137.289 305.456 135.849 304.304 135.849 302.096C135.849 299.864 137.289 298.736 138.849 298.736C140.409 298.736 141.849 299.864 141.849 302.096C141.849 304.328 140.409 305.456 138.849 305.456ZM138.849 295.832C135.321 295.832 132.657 298.448 132.657 302.096C132.657 305.72 135.321 308.36 138.849 308.36C142.377 308.36 145.041 305.72 145.041 302.096C145.041 298.448 142.377 295.832 138.849 295.832ZM153.8 296.144C153.56 296.12 153.32 296.096 153.056 296.096C152.048 296.096 150.416 296.384 149.696 297.944V296.192H146.6V308H149.792V302.6C149.792 300.056 151.208 299.264 152.84 299.264C153.128 299.264 153.44 299.288 153.8 299.36V296.144ZM166.534 296.192H162.358L158.278 300.584V290.624H155.086V308H158.278V304.88L159.598 303.488L162.718 308H166.63L161.806 301.16L166.534 296.192ZM167.151 306.08C167.151 307.232 167.967 308.072 169.143 308.072C169.407 308.072 169.671 308 169.767 307.928C169.719 309.248 168.567 310.28 167.487 310.52V312.056C169.263 311.84 171.711 310.352 171.711 306.824C171.711 305.264 170.823 304.064 169.335 304.064C168.087 304.064 167.151 304.928 167.151 306.08ZM193.637 308V290.984H190.325V302.24L183.245 290.984H179.117V308H182.429V295.928L190.157 308H193.637ZM200.78 300.848V308H204.092V300.848L210.092 290.984H206.372L202.556 297.728L198.74 290.984H194.852L200.78 300.848Z" fill="white"/>
<path fill-rule="evenodd" clip-rule="evenodd" d="M50 295C50 299.6 44.73 307.69 43 310C43 310 41.5 312 41 312C40.5 312 39 310 39 310C37.27 307.69 32 299.6 32 295C32 290.029 36.0294 286 41 286C45.9706 286 50 290.029 50 295ZM41 291C38.7909 291 37 292.791 37 295C37 297.209 38.7909 299 41 299C43.2091 299 45 297.209 45 295C45 292.791 43.2091 291 41 291Z" fill="white"/>
<path fill-rule="evenodd" clip-rule="evenodd" d="M124.651 64.9926C124.099 65.5283 123.602 66.0014 123.128 66.4406L122.588 65.8618C123.058 65.4274 123.55 64.9586 124.097 64.4271C124.19 64.3368 124.476 64.0551 124.852 63.6848L124.853 63.6845C125.783 62.7681 127.265 61.3091 127.737 60.8624C130.645 58.1128 131.26 57.5765 132.414 56.9331C133.371 56.3992 134.315 56.1465 135.408 56.1465C138.96 56.1465 139.551 57.3076 139.426 63.4523C139.39 64.9898 139.372 65.8926 139.372 66.1512H138.579C138.579 65.8833 138.597 64.9806 138.634 63.4351C138.75 57.6751 138.374 56.9363 135.408 56.9363C134.453 56.9363 133.641 57.1535 132.801 57.6223C131.732 58.2184 131.126 58.7473 128.283 61.4353C127.818 61.8751 126.351 63.32 125.42 64.2368L125.419 64.2374L125.418 64.2383C125.037 64.6134 124.746 64.8999 124.651 64.9926ZM171.968 56.2781C171.838 56.2781 171.732 56.3835 171.732 56.5134V66.0476C171.732 66.1775 171.838 66.2828 171.968 66.2828H174.139C174.269 66.2828 174.375 66.1775 174.375 66.0476V63.9133H182.198C182.3 63.9133 182.387 63.8486 182.419 63.758C183.018 63.6978 184.185 63.4845 184.943 62.7285C186 61.6754 186 60.6223 186 60.0957C186 59.5692 186 58.516 184.943 57.4629C184.185 56.7069 183.018 56.4936 182.419 56.4334C182.387 56.3429 182.3 56.2781 182.198 56.2781H174.139H172.893H171.968ZM182.333 58.8685C182.295 58.8953 182.248 58.9109 182.198 58.9109H174.375V61.2805H182.198C182.248 61.2805 182.295 61.2962 182.333 61.3229C182.722 61.1768 183.358 60.8263 183.358 60.0957C183.358 59.3651 182.722 59.0147 182.333 58.8685ZM187.85 56.6451C187.85 56.5151 187.955 56.4098 188.085 56.4098H193.369H196.333H201.618C201.748 56.4098 201.853 56.5151 201.853 56.6451V59.5971C201.853 59.7271 201.748 59.8324 201.618 59.8324H196.569V66.1792C196.569 66.3091 196.463 66.4145 196.333 66.4145H193.369C193.239 66.4145 193.134 66.3091 193.134 66.1792V59.8324H188.085C187.955 59.8324 187.85 59.7271 187.85 59.5971V56.6451ZM136.465 63.1235H129.331C129.112 63.1235 128.935 62.9466 128.935 62.7285C128.935 62.5104 129.112 62.3336 129.331 62.3336H136.465C136.684 62.3336 136.861 62.5104 136.861 62.7285C136.861 62.9466 136.684 63.1235 136.465 63.1235ZM141.583 56.4098C141.461 56.4098 141.361 56.5024 141.349 56.621C141.348 56.6289 141.348 56.6369 141.348 56.6451V57.4909V65.3334V66.1792C141.348 66.3091 141.453 66.4145 141.583 66.4145H142.433H150.199H150.888C150.958 66.4145 151.02 66.3846 151.063 66.3371C153.026 65.9633 154.03 64.2453 154.03 61.4121C154.03 58.579 153.026 56.861 151.063 56.4871C151.02 56.4396 150.958 56.4098 150.888 56.4098H150.199H142.433H141.583ZM150.199 65.0981C151.894 65.0981 152.709 63.9817 152.709 61.4121C152.709 58.8425 151.894 57.7262 150.199 57.7262H142.669V65.0981H150.198L150.199 65.0981ZM167.819 62.5434C167.737 61.2137 167.516 60.2091 167.168 59.6572C166.616 58.7826 165.279 58.276 163.046 58.2528L163.06 58.2525L163.032 58.2526L163.046 58.2528C160.738 58.2944 159.345 58.8088 158.773 59.6751C158.35 60.3176 158.106 61.3997 158.026 62.8677C157.987 63.5863 157.986 64.2278 158.008 65.3737C158.02 66.0095 158.022 66.158 158.022 66.4144H155.908C155.908 66.1773 155.906 66.0328 155.894 65.4138C155.872 64.2186 155.873 63.5382 155.915 62.7531C156.014 60.9443 156.328 59.5471 157.007 58.5184C158.043 56.9472 160.08 56.1972 163.024 56.1466L163.052 56.1465C165.939 56.1739 167.945 56.9318 168.957 58.5363C169.541 59.4613 169.827 60.7602 169.929 62.4141C169.986 63.3368 169.982 64.2115 169.941 65.4203L169.938 65.5112L169.938 65.5116L169.937 65.5159C169.932 65.661 169.923 65.924 169.921 66.0053C169.915 66.1897 169.912 66.3181 169.912 66.4144H167.798C167.798 66.2906 167.801 66.1433 167.808 65.9382C167.811 65.8518 167.82 65.5751 167.825 65.4327L167.828 65.3487C167.867 64.2018 167.871 63.3833 167.819 62.5434ZM159.051 62.4092C159.051 62.1493 159.261 61.9386 159.521 61.9386H166.242C166.502 61.9386 166.713 62.1493 166.713 62.4092V63.5743C166.713 63.8342 166.502 64.0449 166.242 64.0449H159.521C159.261 64.0449 159.051 63.8342 159.051 63.5743V62.4092Z" fill="white"/>
<path fill-rule="evenodd" clip-rule="evenodd" d="M100.636 56.834L104.303 60.5014L107.97 56.834L108.322 57.1854L104.654 60.8528L108.322 64.5203L107.97 64.8716L104.303 61.2042L100.636 64.8716L100.284 64.5203L103.952 60.8528L100.284 57.1854L100.636 56.834Z" fill="white" stroke="white" stroke-width="1.29412" stroke-linejoin="round"/>
<path fill-rule="evenodd" clip-rule="evenodd" d="M39.1326 70.2757C37.6429 70.2203 36.4241 69.8391 35.4712 69.131C35.2893 68.9957 34.8559 68.5901 34.7105 68.4191C34.3241 67.9646 34.0613 67.5223 33.8861 67.0315C33.3469 65.5209 33.6244 63.5385 34.6799 61.363C35.5837 59.5004 36.9782 57.6532 39.4111 55.0947C39.7695 54.7182 40.8368 53.6172 40.8437 53.6172C40.8462 53.6172 40.788 53.7114 40.7148 53.8262C40.0822 54.8172 39.541 55.9846 39.2461 56.9952C38.7724 58.6168 38.8295 60.0084 39.4134 61.0874C39.8162 61.8308 40.5067 62.4747 41.2832 62.8307C42.6425 63.4536 44.6326 63.5051 47.063 62.9815C47.2303 62.9452 55.522 60.8866 65.4889 58.4066C75.4559 55.9264 83.6121 53.8987 83.6134 53.9004C83.6162 53.9025 60.4572 63.1711 48.4351 67.9796C46.5312 68.7409 46.022 68.9332 45.127 69.2271C42.8389 69.9786 40.7893 70.3372 39.1326 70.2757Z" fill="white"/>
<path d="M36.4 110.76L55.88 136.12L56.72 136V113.36C56.72 110.36 57.16 109.12 58.92 106.8V106.72H53.4V106.8C55.32 109.12 55.84 110.36 55.84 113.36L55.96 130.96L37.32 106.72H32.48V106.8C34.2 107.96 35.04 109.12 35.64 111.16V129.36C35.64 132.36 35.2 133.6 33.44 135.92V136H39.36V135.92C37.12 133.56 36.56 132.4 36.56 129.36L36.4 110.76ZM66.1316 109.64C66.1316 108.56 65.2516 107.64 64.1716 107.64C63.0916 107.64 62.1716 108.56 62.1716 109.64C62.1716 110.76 63.0916 111.64 64.1716 111.64C65.2516 111.64 66.1316 110.76 66.1316 109.64ZM61.9716 135.92V136H66.6516V135.92C65.8516 134.16 65.7716 132.56 65.7716 129.8V116.16L61.0916 118.28V118.44C62.0116 119.24 62.8516 120.44 62.8516 122.4V129.84C62.8516 132.6 62.6116 134.16 61.9716 135.92ZM70.2119 135.92V136H74.9319V135.92C74.1719 134.68 74.0119 133.36 74.0119 130.84V104.84L69.3319 106.76V106.84C70.2519 107.6 71.0919 108.64 71.0919 110.52V130.88C71.0919 133.4 70.8519 134.68 70.2119 135.92ZM81.8919 136H86.4119V135.92C85.0119 135.16 84.0919 134.2 82.7719 132.32L77.1319 124.52L80.5319 120.68C81.9319 119.04 82.9319 118 85.0919 117.04V116.96H80.2119V117.04C81.2919 117.88 80.8919 119.16 79.8919 120.28L74.6919 126.04L81.8919 136ZM103.198 131.16L102.998 131.04C101.598 133.08 99.2784 134.04 96.8384 134.04C92.3184 134.04 89.7584 130.84 89.7584 125.44V124.76C89.7584 124.52 89.7584 124.28 89.7984 124.08H103.118C103.438 120.36 100.438 116.36 95.7984 116.36C91.1584 116.36 86.7184 120.44 86.7184 126.8C86.7184 132.56 90.2384 136.6 95.5184 136.6C99.4784 136.6 102.198 134.32 103.198 131.16ZM95.6384 117.08C98.3984 117.08 99.8784 118.92 99.8784 122.92V123.24L89.8784 123.44C90.3984 119.6 92.4384 117.08 95.6384 117.08ZM122.229 110.68L127.109 124.16H117.269L122.229 110.68ZM115.749 136V135.92C114.869 134.84 113.989 133 115.309 129.44L116.949 124.96H127.389L129.389 130.44C130.389 133.16 130.149 135 129.549 135.92V136H135.909V135.92C134.549 134.76 133.989 133.8 132.829 130.6L123.869 106.36H122.909L114.069 130.2C112.989 133 112.589 134.2 110.869 135.92V136H115.749ZM146.864 134.64C142.984 134.64 140.584 131.4 140.584 126.24C140.584 120.92 143.344 117.08 147.304 117.08C149.384 117.08 151.704 118.12 152.224 121.8V131.76C150.984 133.48 149.144 134.64 146.864 134.64ZM152.304 132.56H152.424V136.48L156.944 135.24V135.16C155.624 134.28 155.144 133.68 155.144 129.76V104.84L150.464 106.76V106.84C151.384 107.6 152.224 108.64 152.224 110.56V117.24C150.984 116.64 149.544 116.36 147.864 116.36C141.304 116.36 137.384 121.52 137.384 127.24C137.384 132.84 140.504 136.6 145.264 136.6C148.784 136.6 151.144 134.64 152.304 132.56ZM165.613 134.84C163.373 134.84 162.333 133.64 162.333 131.92C162.333 128.72 166.293 127.16 170.013 126.52V133.16C169.093 134.08 167.413 134.84 165.613 134.84ZM172.973 136.48C175.093 136.48 176.133 134.96 176.533 133.92L176.413 133.84C175.813 134.32 175.253 134.68 174.493 134.68C173.373 134.68 172.933 133.96 172.933 132.96V121.2C172.933 118.68 171.933 116.36 167.613 116.36C164.413 116.36 161.813 117.72 160.213 119.64L160.413 119.88C161.973 118.72 164.013 118.12 165.893 118.12C169.093 118.12 170.013 119.8 170.013 121.92V125.92C165.613 126.44 159.493 128.44 159.493 132.84C159.493 135.28 161.373 136.6 163.973 136.6C166.533 136.6 168.693 135.32 170.013 133.84C170.173 135.32 171.093 136.48 172.973 136.48ZM187.183 135.88C185.063 135.88 183.063 134.76 181.983 132.16V120.6C182.903 119.44 184.743 118.28 187.143 118.28C190.823 118.28 193.623 121.04 193.623 126.68C193.623 132.32 191.023 135.88 187.183 135.88ZM178.183 145H182.863V144.92C182.063 143.16 181.983 141.56 181.983 138.84V135.4C183.143 136.08 184.703 136.6 186.903 136.6C193.583 136.6 196.823 131.64 196.823 126.08C196.823 120.32 193.503 116.36 188.743 116.36C185.863 116.36 183.503 117.72 182.103 119.76L181.823 119.72V116.16L177.303 118.28V118.36C178.223 119.16 179.063 120.32 179.063 122.36V138.88C179.063 141.6 178.943 143.2 178.183 144.92V145ZM205.22 136.6C207.46 136.6 209.1 135.48 209.9 134.4L209.82 134.24C209.38 134.52 208.22 135 206.78 135C204.74 135 203.9 133.96 203.9 132V117.68H209.5V116.96H203.9V113.32H203.7L198.82 117.52V117.68H200.98V132C200.98 135.6 203.1 136.6 205.22 136.6Z" fill="white"/>
<defs>
<linearGradient id="paint0_linear" x1="0" y1="0" x2="450.336" y2="218.992" gradientUnits="userSpaceOnUse">
<stop stop-color="#333333"/>
<stop offset="1" stop-color="#111111"/>
</linearGradient>
</defs>
</svg>
