<svg width="362" height="224" viewBox="0 0 362 224" fill="none" xmlns="http://www.w3.org/2000/svg">
<g id="Group 25 Copy 2">
<g id="Group 23">
<rect id="Mask" x="0.5" y="0.5" width="361" height="223" rx="20.5" fill="white" stroke="#CED5DC"/>
<mask id="mask0" mask-type="alpha" maskUnits="userSpaceOnUse" x="0" y="0" width="362" height="224">
<rect id="Mask_2" x="0.5" y="0.5" width="361" height="223" rx="20.5" fill="white" stroke="white"/>
</mask>
<g mask="url(#mask0)">
<g id="Group 23_2">
<rect id="Rectangle" x="1" y="1" width="360" height="222" fill="#F4F0F3"/>
<path id="Gradient BG Copy" fill-rule="evenodd" clip-rule="evenodd" d="M1 1H361V55.5L1 169.5L1 1Z" fill="white"/>
</g>
</g>
</g>
<g id="Group 15">
<g id="apex">
<g id="Group 7">
<g id="Group 6">
<g id="capital-one-logo (1)">
<path id="Shape" fill-rule="evenodd" clip-rule="evenodd" d="M73.4898 51.3975C71.0684 53.0926 68.2079 54.8665 65.1346 56.7323L65.0149 56.798C64.975 56.8243 64.9617 56.8769 64.9883 56.9294C65.0149 56.9689 65.0681 56.982 65.1213 56.9557L65.2277 56.9032C67.8354 55.5629 70.8422 53.9598 73.849 52.3173C73.8623 52.3042 73.8756 52.3042 73.9023 52.2911C73.7293 52.0151 73.5829 51.7129 73.4898 51.3975ZM89.3487 38.7175C85.5437 34.5653 61.0501 38.2971 50.6328 40.544L50.3933 40.5965C50.3401 40.6097 50.3134 40.6491 50.3134 40.7017C50.3268 40.7542 50.3667 40.7805 50.4199 40.7805L50.6594 40.7279C59.2807 39.2169 77.2284 37.1145 81.1 40.8988C82.2841 42.0551 81.9914 43.5399 80.6343 45.2875C81.3661 45.7605 81.8982 46.4964 82.1377 47.4162C87.4595 43.9078 91.0384 40.5703 89.3487 38.7175Z" fill="#A12830"/>
<g id="Group">
<path id="Shape_2" fill-rule="evenodd" clip-rule="evenodd" d="M75.0331 50.3064C75.0863 51.7649 76.0177 52.9607 77.2417 52.9607C79.6099 52.9607 80.6077 50.0962 80.5412 48.1777C80.488 46.7192 79.53 45.5235 78.3193 45.5235C76.2704 45.5235 74.9666 48.3748 75.0331 50.3064ZM73.7825 50.2276C73.6894 47.731 75.6717 45.195 78.5455 45.195C80.4614 45.195 81.7253 46.4564 81.7918 48.388C81.8849 51.016 80.0356 53.4206 77.0288 53.4206C75.113 53.4206 73.849 52.1591 73.7825 50.2276ZM46.6015 49.5706C46.4951 49.61 46.362 49.6494 46.2024 49.6757C46.0427 49.7151 45.7367 49.7677 45.311 49.8334C45.0183 49.8859 44.8054 49.9385 44.6857 50.0305C44.5659 50.1093 44.4994 50.2144 44.4861 50.3327C44.4595 50.4641 44.4994 50.5692 44.6191 50.648C44.7389 50.7269 44.9251 50.7663 45.1912 50.7663C45.3908 50.7663 45.5904 50.74 45.7899 50.6743C45.9895 50.6086 46.1491 50.5298 46.2822 50.4247C46.3753 50.3458 46.4418 50.2407 46.4951 50.1224C46.5084 50.0305 46.5483 49.8465 46.6015 49.5706ZM49.1027 48.0332C49.0894 48.2566 49.0495 48.4668 48.9963 48.8084L48.5706 51.1473C48.5306 51.3576 48.6105 51.5153 48.81 51.6335L48.7967 51.7255H46.3753L46.3487 51.1342C46.0028 51.3444 45.5771 51.5153 45.1912 51.6204C44.8054 51.7124 44.4994 51.7649 44.0337 51.7649C43.2488 51.7649 42.8097 51.6861 42.5037 51.4233C42.1844 51.1473 42.0381 50.9634 42.0514 50.5823C42.0647 50.359 42.1711 50.083 42.3441 49.8859C42.517 49.6888 42.7432 49.5574 42.9827 49.4392C43.2355 49.3209 43.5282 49.2421 43.9539 49.1764C44.3797 49.1107 44.9784 49.045 45.7766 48.9793C46.1891 48.9398 46.4552 48.8479 46.5749 48.8084C46.7478 48.7427 46.8011 48.677 46.8277 48.5456C46.8676 48.3091 46.8011 48.1646 46.4685 48.0989C45.6037 47.9281 43.9672 48.204 43.129 48.4143L43.5814 47.1922C44.6857 47.0346 45.7367 46.9294 46.8277 46.9294C48.5573 46.9163 49.116 47.4025 49.1027 48.0332ZM56.1009 51.7255L56.9391 47.0477H59.254L58.4159 51.7255H56.1009ZM57.0721 45.9702C57.1386 45.5892 57.7506 45.2738 58.4425 45.2738C59.1343 45.2738 59.6266 45.5892 59.56 45.9702C59.4935 46.3513 58.8682 46.6666 58.1897 46.6666C57.4979 46.6666 56.9923 46.3513 57.0721 45.9702ZM67.4762 49.5837C67.3698 49.6231 67.2367 49.6625 67.0771 49.6888C66.9174 49.7282 66.6114 49.7808 66.1724 49.8465C65.8797 49.8991 65.6668 49.9516 65.5471 50.0436C65.4406 50.1224 65.3741 50.2276 65.3475 50.3458C65.3209 50.4772 65.3741 50.5823 65.4805 50.6612C65.6003 50.74 65.7865 50.7794 66.0659 50.7794C66.2655 50.7794 66.4651 50.7532 66.6646 50.6875C66.8642 50.6218 67.0238 50.5429 67.1569 50.4378C67.25 50.359 67.3165 50.2538 67.3565 50.1356C67.3831 50.0436 67.423 49.8596 67.4762 49.5837ZM69.9641 48.0463C69.9508 48.2697 69.9109 48.4799 69.8444 48.8216L69.432 51.1605C69.392 51.3707 69.4719 51.5284 69.6714 51.6467L69.6581 51.7255H67.2367L67.2234 51.1342C66.8642 51.3444 66.4385 51.5153 66.0659 51.6204C65.6801 51.7255 65.3741 51.7649 64.9084 51.7649C64.1235 51.7649 63.6844 51.6861 63.3784 51.4233C63.0591 51.1473 62.9128 50.9634 62.9261 50.5823C62.9394 50.359 63.0458 50.083 63.2188 49.8859C63.3917 49.6888 63.6179 49.5574 63.8574 49.4392C64.1102 49.3209 64.4029 49.2421 64.8286 49.1632C65.2544 49.0975 65.8531 49.0318 66.6513 48.9661C67.0638 48.9267 67.3165 48.8347 67.4363 48.7953C67.6092 48.7296 67.6758 48.6639 67.7024 48.5194C67.7423 48.2829 67.6625 48.1383 67.3432 48.0726C66.4651 47.9018 64.8419 48.1777 64.0037 48.388L64.4561 47.166C65.5737 47.0083 66.5981 46.9032 67.7024 46.9032C69.4187 46.9294 69.9774 47.4156 69.9641 48.0463ZM41.7321 50.0436C40.9737 50.1881 40.5613 50.2538 39.8162 50.2538C38.712 50.2538 37.8339 49.7151 37.8738 48.7165C37.9137 48.0595 38.6986 46.6535 40.7209 46.6535C41.3595 46.6535 41.8518 46.7586 42.517 47.1397L42.8097 45.5235C41.905 45.1818 41.3063 45.1293 40.5214 45.1424C37.8738 45.1687 35.3326 46.3513 35.0266 48.769C34.7073 51.2262 37.7407 51.8438 39.0845 51.8306C39.8561 51.8306 40.6677 51.7912 41.4261 51.7255L41.7321 50.0436ZM60.5313 47.0214L60.6909 46.0753L63.1123 45.5498L62.8596 47.0214H64.0436L63.8175 47.9675H62.6733L61.9815 51.7255C61.9815 51.7255 59.6532 51.7124 59.6399 51.7255L60.3317 47.9806H59.4536L59.6266 47.0346H60.5313V47.0214ZM72.319 51.7255H69.9508L71.1349 45.2081L73.4366 45.2738L72.319 51.7255ZM53.0409 48.1515C52.7349 48.1515 52.4688 48.2434 52.216 48.4274C51.9765 48.6113 51.8168 48.8741 51.7636 49.2289C51.6971 49.6363 51.737 49.9253 51.8967 50.1093C52.0563 50.2933 52.2958 50.3852 52.6151 50.3852C52.828 50.3852 53.0409 50.3458 53.2005 50.267C53.4001 50.1619 53.5331 50.0567 53.6529 49.8859C53.7859 49.702 53.8657 49.5049 53.9056 49.2683C53.9722 48.9004 53.919 48.6245 53.746 48.4405C53.573 48.2434 53.3469 48.1515 53.0409 48.1515ZM48.8233 53.3417L49.9542 47.074H51.9898L51.8302 47.8755C52.0031 47.639 52.2825 47.4419 52.6816 47.2842C53.0675 47.1265 53.5198 47.0083 53.9988 47.0083C54.531 47.0083 54.8503 47.0346 55.2494 47.2448C55.6485 47.455 55.9146 47.7441 56.0743 48.1383C56.2206 48.5194 56.2605 48.9398 56.1807 49.4129C56.0477 50.1881 55.6618 50.7926 55.0365 51.2393C54.4112 51.6861 53.8524 51.8043 53.0675 51.8043C52.7881 51.8043 52.5486 51.7781 52.349 51.7255C52.1628 51.6729 52.0031 51.6204 51.8834 51.5415C51.7769 51.4627 51.6572 51.3707 51.4975 51.1999L51.125 53.3417H48.8233ZM90.8388 48.7296C90.8255 48.3486 90.6393 48.0989 90.2401 48.0989C89.2955 48.0989 88.2844 49.9385 88.1114 50.6743C89.6547 50.6743 90.8654 49.7545 90.8388 48.7296ZM91.0384 51.6072L91.2247 51.7255C90.759 52.6584 89.8144 53.4074 88.7101 53.4074C87.8054 53.4074 87.0604 52.8161 87.0205 51.6992C86.9539 49.702 88.8432 47.8361 90.3998 47.8361C91.065 47.8361 91.6903 48.1252 91.7169 48.8347C91.7701 50.4247 89.5084 50.9108 88.0183 50.9503C87.9651 51.1211 87.9518 51.2787 87.9651 51.5415C87.9917 52.1985 88.3908 52.7636 89.229 52.7636C89.9474 52.7373 90.6659 52.1723 91.0384 51.6072Z" fill="#003A6F"/>
<path id="Shape_3" fill-rule="evenodd" clip-rule="evenodd" d="M81.7519 48.6774C81.9115 48.6511 82.1776 48.6249 82.2841 48.6249C82.457 48.6249 82.6167 48.6511 82.6167 48.822C82.6167 48.9271 82.4437 49.6366 82.4038 49.7943L82.0446 51.3711C81.8982 52.015 81.7386 52.6851 81.6055 53.2238H82.5368L83.0557 50.7404C84.6523 49.111 85.2643 48.5723 85.6368 48.5723C85.8097 48.5723 85.9162 48.6643 85.9295 48.8614C85.9428 49.1505 85.7565 49.8075 85.69 49.9914L85.1578 51.8047C85.0381 52.2121 84.9449 52.58 84.9583 52.8428C84.9716 53.237 85.2243 53.4209 85.5836 53.4209C86.2621 53.4209 86.7544 52.7245 87.1801 52.0412L87.0604 51.8179C86.8874 52.0938 86.4883 52.6982 86.169 52.6982C86.0625 52.6982 85.9694 52.6325 85.9694 52.4617C85.9561 52.2515 86.0492 51.9361 86.1157 51.7259L86.7011 49.5972C86.8608 49.0059 86.9406 48.638 86.9273 48.4278C86.914 48.0336 86.6745 47.8496 86.3153 47.8496C85.7033 47.8496 84.8917 48.2832 83.1755 50.2411H83.1488L83.3617 49.295C83.4815 48.7694 83.5879 48.2307 83.7076 47.8627C83.1089 48.073 82.2708 48.3095 81.7386 48.4146L81.7519 48.6774Z" fill="#003A6F"/>
</g>
</g>
<g id="Group 5">
<path id="Close" fill-rule="evenodd" clip-rule="evenodd" d="M106.22 43.6465L109.252 46.6789L112.285 43.6465L112.575 43.937L109.543 46.9694L112.575 50.0017L112.285 50.2923L109.252 47.2599L106.22 50.2923L105.929 50.0017L108.962 46.9694L105.929 43.937L106.22 43.6465Z" fill="#004977" stroke="#004977" stroke-width="1.02138" stroke-linejoin="round"/>
</g>
</g>
<g id="Group 8">
<path id="Triangle" fill-rule="evenodd" clip-rule="evenodd" d="M147.919 46.4844L155.296 58.9679H140.543L147.919 46.4844Z" fill="#C13D3A"/>
<path id="Path 2" fill-rule="evenodd" clip-rule="evenodd" d="M126.924 58.968H133.529L141.728 45.322L144.759 50.1365L147.919 45.322L141.728 34.5684L126.924 58.968Z" fill="#004977"/>
</g>
</g>
</g>
</g>
<path id="Capital One Apex" d="M62.12 119.6L62.92 112.92L62.6 112.8C60.16 118.32 57.2 121.8 51.32 121.8C43.64 121.8 40.16 115.6 40.16 107.32C40.16 99.12 43.76 92.92 51.8 92.92C56.32 92.92 59.24 95.04 62.44 100.24L62.76 100.16L61.96 94.08C59.96 93.24 56.16 92.12 52.12 92.12C42.68 92.12 36.4 98.8 36.4 107.32C36.4 115.88 42.04 122.6 51.24 122.6C56.44 122.6 60.96 120.44 62.12 119.6ZM72.3628 120.84C70.1228 120.84 69.0828 119.64 69.0828 117.92C69.0828 114.72 73.0428 113.16 76.7628 112.52V119.16C75.8428 120.08 74.1628 120.84 72.3628 120.84ZM79.7228 122.48C81.8428 122.48 82.8828 120.96 83.2828 119.92L83.1628 119.84C82.5628 120.32 82.0028 120.68 81.2428 120.68C80.1228 120.68 79.6828 119.96 79.6828 118.96V107.2C79.6828 104.68 78.6828 102.36 74.3628 102.36C71.1628 102.36 68.5628 103.72 66.9628 105.64L67.1628 105.88C68.7228 104.72 70.7628 104.12 72.6428 104.12C75.8428 104.12 76.7628 105.8 76.7628 107.92V111.92C72.3628 112.44 66.2428 114.44 66.2428 118.84C66.2428 121.28 68.1228 122.6 70.7228 122.6C73.2828 122.6 75.4428 121.32 76.7628 119.84C76.9228 121.32 77.8428 122.48 79.7228 122.48ZM93.9325 121.88C91.8125 121.88 89.8125 120.76 88.7325 118.16V106.6C89.6525 105.44 91.4925 104.28 93.8925 104.28C97.5725 104.28 100.373 107.04 100.373 112.68C100.373 118.32 97.7725 121.88 93.9325 121.88ZM84.9325 131H89.6125V130.92C88.8125 129.16 88.7325 127.56 88.7325 124.84V121.4C89.8925 122.08 91.4525 122.6 93.6525 122.6C100.333 122.6 103.573 117.64 103.573 112.08C103.573 106.32 100.253 102.36 95.4925 102.36C92.6125 102.36 90.2525 103.72 88.8525 105.76L88.5725 105.72V102.16L84.0525 104.28V104.36C84.9725 105.16 85.8125 106.32 85.8125 108.36V124.88C85.8125 127.6 85.6925 129.2 84.9325 130.92V131ZM110.85 95.64C110.85 94.56 109.97 93.64 108.89 93.64C107.81 93.64 106.89 94.56 106.89 95.64C106.89 96.76 107.81 97.64 108.89 97.64C109.97 97.64 110.85 96.76 110.85 95.64ZM106.69 121.92V122H111.37V121.92C110.57 120.16 110.49 118.56 110.49 115.8V102.16L105.81 104.28V104.44C106.73 105.24 107.57 106.44 107.57 108.4V115.84C107.57 118.6 107.33 120.16 106.69 121.92ZM120.486 122.6C122.726 122.6 124.366 121.48 125.166 120.4L125.086 120.24C124.646 120.52 123.486 121 122.046 121C120.006 121 119.166 119.96 119.166 118V103.68H124.766V102.96H119.166V99.32H118.966L114.086 103.52V103.68H116.246V118C116.246 121.6 118.366 122.6 120.486 122.6ZM133.261 120.84C131.021 120.84 129.981 119.64 129.981 117.92C129.981 114.72 133.941 113.16 137.661 112.52V119.16C136.741 120.08 135.061 120.84 133.261 120.84ZM140.621 122.48C142.741 122.48 143.781 120.96 144.181 119.92L144.061 119.84C143.461 120.32 142.901 120.68 142.141 120.68C141.021 120.68 140.581 119.96 140.581 118.96V107.2C140.581 104.68 139.581 102.36 135.261 102.36C132.061 102.36 129.461 103.72 127.861 105.64L128.061 105.88C129.621 104.72 131.661 104.12 133.541 104.12C136.741 104.12 137.661 105.8 137.661 107.92V111.92C133.261 112.44 127.141 114.44 127.141 118.84C127.141 121.28 129.021 122.6 131.621 122.6C134.181 122.6 136.341 121.32 137.661 119.84C137.821 121.32 138.741 122.48 140.621 122.48ZM145.751 121.92V122H150.431V121.92C149.671 120.68 149.551 119.36 149.551 116.84V90.84L144.831 92.76V92.84C145.751 93.6 146.631 94.64 146.631 96.52V116.88C146.631 119.4 146.391 120.68 145.751 121.92ZM174.911 122.6C182.911 122.6 189.791 115.92 189.791 107.4C189.791 98.84 182.911 92.12 174.911 92.12C167.031 92.12 160.111 98.84 160.111 107.4C160.111 115.92 167.031 122.6 174.911 122.6ZM174.911 121.8C167.751 121.8 163.871 115.6 163.871 107.4C163.871 99.16 167.751 92.92 174.911 92.92C182.111 92.92 186.031 99.16 186.031 107.4C186.031 115.72 182.111 121.8 174.911 121.8ZM198.167 122V121.92C197.367 120.16 197.287 118.56 197.287 115.8V106.68C198.847 105.08 200.847 104.32 202.727 104.32C205.767 104.32 206.847 106.4 206.847 108.84V115.84C206.847 118.52 206.727 120.16 205.967 121.92V122H210.647V121.92C209.807 120.2 209.767 118.64 209.767 115.8V108.2C209.767 104.56 207.807 102.36 204.127 102.36C201.447 102.36 199.167 103.68 197.287 105.92L197.127 105.88V102.16L192.607 104.28V104.36C193.527 105.16 194.367 106.32 194.367 108.36V115.84C194.367 118.6 194.247 120.2 193.487 121.92V122H198.167ZM230.378 117.16L230.178 117.04C228.778 119.08 226.458 120.04 224.018 120.04C219.498 120.04 216.938 116.84 216.938 111.44V110.76C216.938 110.52 216.938 110.28 216.978 110.08H230.298C230.618 106.36 227.618 102.36 222.978 102.36C218.338 102.36 213.898 106.44 213.898 112.8C213.898 118.56 217.418 122.6 222.698 122.6C226.658 122.6 229.378 120.32 230.378 117.16ZM222.818 103.08C225.578 103.08 227.058 104.92 227.058 108.92V109.24L217.058 109.44C217.578 105.6 219.618 103.08 222.818 103.08ZM46.44 136.68L51.32 150.16H41.48L46.44 136.68ZM39.96 162V161.92C39.08 160.84 38.2 159 39.52 155.44L41.16 150.96H51.6L53.6 156.44C54.6 159.16 54.36 161 53.76 161.92V162H60.12V161.92C58.76 160.76 58.2 159.8 57.04 156.6L48.08 132.36H47.12L38.28 156.2C37.2 159 36.8 160.2 35.08 161.92V162H39.96ZM70.9247 161.88C68.8047 161.88 66.8047 160.76 65.7247 158.16V146.6C66.6447 145.44 68.4847 144.28 70.8847 144.28C74.5647 144.28 77.3647 147.04 77.3647 152.68C77.3647 158.32 74.7647 161.88 70.9247 161.88ZM61.9247 171H66.6047V170.92C65.8047 169.16 65.7247 167.56 65.7247 164.84V161.4C66.8847 162.08 68.4447 162.6 70.6447 162.6C77.3247 162.6 80.5647 157.64 80.5647 152.08C80.5647 146.32 77.2447 142.36 72.4847 142.36C69.6047 142.36 67.2447 143.72 65.8447 145.76L65.5647 145.72V142.16L61.0447 144.28V144.36C61.9647 145.16 62.8047 146.32 62.8047 148.36V164.88C62.8047 167.6 62.6847 169.2 61.9247 170.92V171ZM99.7531 157.16L99.5531 157.04C98.1531 159.08 95.8331 160.04 93.3931 160.04C88.8731 160.04 86.3131 156.84 86.3131 151.44V150.76C86.3131 150.52 86.3131 150.28 86.3531 150.08H99.6731C99.9931 146.36 96.9931 142.36 92.3531 142.36C87.7131 142.36 83.2731 146.44 83.2731 152.8C83.2731 158.56 86.7931 162.6 92.0731 162.6C96.0331 162.6 98.7531 160.32 99.7531 157.16ZM92.1931 143.08C94.9531 143.08 96.4331 144.92 96.4331 148.92V149.24L86.4331 149.44C86.9531 145.6 88.9931 143.08 92.1931 143.08ZM104.951 162V161.92C104.311 160.96 104.111 159.64 105.591 157.56L108.351 153.52L111.231 158.16C112.391 159.96 112.951 160.88 112.111 161.92V162H117.911V161.92C116.831 161.12 115.631 159.76 114.351 157.64L110.591 151.68L113.631 147.08C115.031 145.04 115.831 144.32 117.511 143.04V142.96H113.111V143.04C113.751 143.88 113.991 145.24 112.551 147.44L110.191 151L107.551 146.8C106.431 144.92 105.951 143.96 106.791 143.04V142.96H100.951V143.04C102.031 143.8 103.191 145.24 104.471 147.32L107.951 152.88L104.511 157.88C103.111 159.92 102.271 160.68 100.591 161.92V162H104.951Z" fill="#004977"/>
</g>
</svg>
