<?xml version="1.0" encoding="UTF-8"?>
<svg width="345px" height="224px" viewBox="0 0 345 224" version="1.1" xmlns="http://www.w3.org/2000/svg" xmlns:xlink="http://www.w3.org/1999/xlink">
    <!-- Generator: Sketch 63.1 (92452) - https://sketch.com -->
    <title>Group 25 Copy 2</title>
    <desc>Created with Sketch.</desc>
    <defs>
        <rect id="path-1" x="0" y="0" width="343" height="222" rx="20"></rect>
    </defs>
    <g id="V3" stroke="none" stroke-width="1" fill="none" fill-rule="evenodd">
        <g id="Intro-Copy-7" transform="translate(-930.000000, -3978.000000)">
            <g id="Group-42-Copy-2" transform="translate(165.000000, 3863.000000)">
                <g id="Group-25-Copy-2" transform="translate(766.000000, 116.000000)">
                    <g id="Group-23">
                        <mask id="mask-2" fill="white">
                            <use xlink:href="#path-1"></use>
                        </mask>
                        <rect stroke="#CED5DC" x="-0.5" y="-0.5" width="344" height="223" rx="20"></rect>
                        <g mask="url(#mask-2)">
                            <rect id="Rectangle" fill="#F4F0F3" x="0" y="0" width="343" height="222"></rect>
                            <polygon id="Gradient-BG-Copy" fill="#FFFFFF" points="-2.38004061e-15 0 343 0 343 54.5 0 168.5"></polygon>
                        </g>
                    </g>
                    <g id="Group-15" transform="translate(24.000000, 33.000000)">
                        <g id="apex">
                            <g id="Group-7">
                                <g id="Group-6" transform="translate(0.000000, 2.837170)">
                                    <g id="capital-one-logo-(1)">
                                        <path d="M38.4898061,14.559539 C36.0683942,16.2545859 33.2079351,18.0284722 30.1346045,19.8943378 L30.0148644,19.9600372 C29.974951,19.986317 29.9616465,20.0388766 29.9882555,20.0914362 C30.0148644,20.1308559 30.0680822,20.1439958 30.1213001,20.117716 L30.2277358,20.0651564 C32.8354101,18.7248868 35.8422184,17.1218192 38.8490266,15.4793319 C38.8623311,15.466192 38.8756355,15.466192 38.9022444,15.4530521 C38.7292864,15.1771142 38.5829374,14.8748966 38.4898061,14.559539 L38.4898061,14.559539 Z M54.3487238,1.87953713 C50.543648,-2.27267074 26.050135,1.45906039 15.6327419,3.705983 L15.3932616,3.7585426 C15.3400437,3.77168249 15.3134348,3.81110219 15.3134348,3.86366178 C15.3267393,3.91622138 15.3666526,3.94250117 15.4198705,3.94250117 L15.6593508,3.88994158 C24.2806416,2.37885327 42.2283597,0.276469537 46.0999579,4.06076026 C47.284055,5.21707131 46.9913568,6.70187982 45.6343018,8.4494863 C46.3660472,8.92252264 46.8982256,9.65835695 47.1377059,10.5781498 C52.4594904,7.06979698 56.0383904,3.7322628 54.3487238,1.87953713 Z" id="Shape" fill="#A12830"></path>
                                        <g id="Group" transform="translate(0.000000, 8.291808)" fill="#003A6F">
                                            <path d="M40.0331236,5.17711994 C40.0863415,6.63564866 41.0176538,7.83137941 42.2416642,7.83137941 C44.6098583,7.83137941 45.6076929,4.96688157 45.5411706,3.04845641 C45.4879527,1.5899277 44.5300315,0.39419695 43.3193255,0.39419695 C41.2704385,0.39419695 39.9666013,3.24555489 40.0331236,5.17711994 L40.0331236,5.17711994 Z M38.7825043,5.09828055 C38.6893731,2.60169987 40.6717378,0.0656994917 43.5455014,0.0656994917 C45.4613438,0.0656994917 46.7252676,1.32712973 46.7917899,3.25869479 C46.8849211,5.88667445 45.035601,8.29127585 42.0287928,8.29127585 C40.1129504,8.29127585 38.8490266,7.02984561 38.7825043,5.09828055 Z M11.6014901,4.44128564 C11.4950544,4.48070533 11.3620098,4.52012503 11.2023563,4.54640482 C11.0427028,4.58582452 10.7367002,4.63838411 10.3109574,4.7040836 C10.0182593,4.7566432 9.80538788,4.80920279 9.68564773,4.90118208 C9.56590758,4.98002147 9.49938527,5.08514066 9.48608081,5.20339974 C9.45947189,5.33479872 9.49938527,5.43991791 9.61912542,5.5187573 C9.73886557,5.59759669 9.92512803,5.63701639 10.1912173,5.63701639 C10.3907842,5.63701639 10.5903511,5.61073659 10.789918,5.5450371 C10.9894849,5.47933761 11.1491385,5.40049822 11.2821831,5.29537903 C11.3753143,5.21653964 11.4418366,5.11142045 11.4950544,4.99316137 C11.5083589,4.90118208 11.5482723,4.7172235 11.6014901,4.44128564 L11.6014901,4.44128564 Z M14.1027288,2.90391753 C14.0894244,3.1272958 14.049511,3.33753418 13.9962931,3.67917153 L13.5705504,6.01807344 C13.530637,6.22831181 13.6104638,6.38599059 13.8100307,6.50424968 L13.7967262,6.59622896 L11.3753143,6.59622896 L11.3487054,6.00493354 C11.0027894,6.21517191 10.5770466,6.38599059 10.1912173,6.49110978 C9.80538788,6.58308907 9.49938527,6.63564866 9.03372913,6.63564866 C8.24876592,6.63564866 7.8097187,6.55680927 7.5037161,6.2940113 C7.18440903,6.01807344 7.03805995,5.83411486 7.05136442,5.45305781 C7.06466888,5.22967954 7.17110457,4.95374167 7.34406256,4.7566432 C7.51702056,4.55954472 7.7431964,4.42814574 7.9826767,4.30988665 C8.23546146,4.19162757 8.52815961,4.11278818 8.95390236,4.04708869 C9.37964512,3.9813892 9.97834587,3.9156897 10.7766135,3.84999021 C11.1890518,3.81057052 11.4551411,3.71859123 11.5748812,3.67917153 C11.7478392,3.61347204 11.8010571,3.54777255 11.827666,3.41637357 C11.8675794,3.1798554 11.8010571,3.03531652 11.4684455,2.96961702 C10.6036555,2.79879835 8.96720682,3.07473621 8.12902577,3.28497458 L8.58137745,2.06296404 C9.68564773,1.90528526 10.7367002,1.80016607 11.827666,1.80016607 C13.5572459,1.78702617 14.1160333,2.27320241 14.1027288,2.90391753 L14.1027288,2.90391753 Z M21.1008754,6.59622896 L21.9390565,1.91842516 L24.2540327,1.91842516 L23.4158516,6.59622896 L21.1008754,6.59622896 Z M22.0721011,0.840953493 C22.1386234,0.459896442 22.7506286,0.144538882 23.4424606,0.144538882 C24.1342925,0.144538882 24.6265576,0.459896442 24.5600353,0.840953493 C24.493513,1.22201055 23.8682033,1.53736811 23.1896758,1.53736811 C22.4978438,1.53736811 21.9922743,1.22201055 22.0721011,0.840953493 Z M32.4761897,4.45442554 C32.369754,4.49384523 32.2367094,4.53326493 32.0770559,4.55954472 C31.9174023,4.59896442 31.6113997,4.65152401 31.1723525,4.7172235 C30.8796544,4.7697831 30.666783,4.82234269 30.5470428,4.91432198 C30.4406071,4.99316137 30.3740848,5.09828055 30.3474759,5.21653964 C30.320867,5.34793862 30.3740848,5.45305781 30.4805205,5.5318972 C30.6002607,5.61073659 30.7865231,5.65015628 31.0659168,5.65015628 C31.2654837,5.65015628 31.4650506,5.62387649 31.6646176,5.558177 C31.8641845,5.4924775 32.023838,5.41363811 32.1568826,5.30851893 C32.2500139,5.22967954 32.3165362,5.12456035 32.3564495,5.00630127 C32.3830585,4.91432198 32.4229719,4.7303634 32.4761897,4.45442554 Z M34.9641239,2.91705743 C34.9508195,3.1404357 34.9109061,3.35067408 34.8443838,3.69231143 L34.4319455,6.03121334 C34.3920321,6.24145171 34.4718589,6.39913049 34.6714258,6.51738957 L34.6581213,6.59622896 L32.2367094,6.59622896 L32.2234049,6.00493354 C31.8641845,6.21517191 31.4384417,6.38599059 31.0659168,6.49110978 C30.6800874,6.59622896 30.3740848,6.63564866 29.9084287,6.63564866 C29.1234655,6.63564866 28.6844183,6.55680927 28.3784157,6.2940113 C28.0591086,6.01807344 27.9127595,5.83411486 27.926064,5.45305781 C27.9393684,5.22967954 28.0458041,4.95374167 28.2187621,4.7566432 C28.3917201,4.55954472 28.617896,4.42814574 28.8573763,4.30988665 C29.110161,4.19162757 29.4028592,4.11278818 29.8286019,4.03394879 C30.2543447,3.9682493 30.8530454,3.90254981 31.6513131,3.83685031 C32.0637514,3.79743062 32.3165362,3.70545133 32.4362763,3.66603164 C32.6092343,3.60033214 32.6757566,3.53463265 32.7023655,3.39009377 C32.7422789,3.1535756 32.6624522,3.00903672 32.3431451,2.94333723 C31.4650506,2.77251855 29.8419064,3.04845641 29.0037253,3.25869479 L29.456077,2.03668424 C30.5736518,1.87900546 31.5980953,1.77388628 32.7023655,1.77388628 C34.418641,1.80016607 34.9774284,2.28634231 34.9641239,2.91705743 L34.9641239,2.91705743 Z M6.73205735,4.91432198 C5.97370306,5.05886086 5.56126477,5.12456035 4.81621494,5.12456035 C3.71194466,5.12456035 2.83385023,4.58582452 2.87376361,3.58719225 C2.91367699,2.93019733 3.6986402,1.52422821 5.7209183,1.52422821 C6.35953244,1.52422821 6.8517975,1.62934739 7.51702056,2.01040445 L7.8097187,0.39419695 C6.90501534,0.0525595933 6.30631459,-3.28730099e-15 5.52135138,0.0131398983 C2.87376361,0.039419695 0.332611529,1.22201055 0.0266089223,3.63975184 C-0.292698146,6.09691283 2.740719,6.71448805 4.08446958,6.70134815 C4.85612832,6.70134815 5.66770046,6.66192846 6.42605474,6.59622896 L6.73205735,4.91432198 Z M25.531261,1.89214536 L25.6909145,0.94607268 L28.1123264,0.420476747 L27.8595417,1.89214536 L29.0436387,1.89214536 L28.8174629,2.83821804 L27.6732792,2.83821804 L26.9814472,6.59622896 C26.9814472,6.59622896 24.6531665,6.58308907 24.6398621,6.59622896 L25.3316941,2.85135794 L24.4535996,2.85135794 L24.6265576,1.90528526 L25.531261,1.90528526 L25.531261,1.89214536 Z M37.3190136,6.59622896 L34.9508195,6.59622896 L36.1349165,0.07883939 L38.4365883,0.144538882 L37.3190136,6.59622896 Z M18.0408493,3.02217662 C17.7348467,3.02217662 17.4687575,3.11415591 17.2159727,3.29811448 C16.9764924,3.48207306 16.8168389,3.74487103 16.7636211,4.09964828 C16.6970988,4.50698513 16.7370121,4.79606289 16.8966657,4.98002147 C17.0563192,5.16398005 17.2957995,5.25595933 17.6151066,5.25595933 C17.827978,5.25595933 18.0408493,5.21653964 18.2005029,5.13770025 C18.4000698,5.03258106 18.5331144,4.92746188 18.6528545,4.7566432 C18.7858992,4.57268462 18.8657259,4.37558615 18.9056393,4.13906798 C18.9721616,3.77115082 18.9189438,3.49521296 18.7459858,3.31125438 C18.5730278,3.11415591 18.3468519,3.02217662 18.0408493,3.02217662 L18.0408493,3.02217662 Z M13.8233351,8.21243646 L14.9542143,1.94470495 L16.9897969,1.94470495 L16.8301434,2.74623875 C17.0031014,2.50972058 17.282495,2.31262211 17.6816289,2.15494333 C18.0674583,1.99726455 18.5198099,1.87900546 18.9987705,1.87900546 C19.530949,1.87900546 19.8502561,1.90528526 20.2493899,2.11552363 C20.6485237,2.32576201 20.9146129,2.61483977 21.0742665,3.00903672 C21.2206156,3.39009377 21.2605289,3.81057052 21.1807022,4.28360686 C21.0476576,5.05886086 20.6618282,5.66329618 20.0365185,6.11005273 C19.4112088,6.55680927 18.8524215,6.67506835 18.0674583,6.67506835 C17.7880646,6.67506835 17.5485843,6.64878856 17.3490174,6.59622896 C17.1627549,6.54366937 17.0031014,6.49110978 16.8833612,6.41227039 C16.7769255,6.333431 16.6571854,6.24145171 16.4975318,6.07063303 L16.1250069,8.21243646 L13.8233351,8.21243646 L13.8233351,8.21243646 Z M55.8388235,3.60033214 C55.825519,3.21927509 55.6392566,2.96961702 55.2401227,2.96961702 C54.295506,2.96961702 53.284367,4.80920279 53.111409,5.5450371 C54.6547265,5.5450371 55.8654324,4.62524421 55.8388235,3.60033214 L55.8388235,3.60033214 Z M56.0383904,6.47796988 L56.2246529,6.59622896 C55.7589967,7.52916175 54.81438,8.27813595 53.7101097,8.27813595 C52.8054064,8.27813595 52.0603565,7.68684053 52.0204431,6.56994917 C51.9539208,4.57268462 53.8431543,2.70681906 55.3997763,2.70681906 C56.0649993,2.70681906 56.690309,2.99589682 56.7169179,3.70545133 C56.7701358,5.29537903 54.5083774,5.78155527 53.0182777,5.82097496 C52.9650599,5.99179364 52.9517554,6.14947242 52.9650599,6.41227039 C52.9916688,7.0692653 53.3908026,7.63428093 54.2289837,7.63428093 C54.9474246,7.60800114 55.6658655,7.04298551 56.0383904,6.47796988 Z" id="Shape"></path>
                                            <path d="M46.7518765,3.54777255 C46.9115301,3.52149275 47.1776193,3.49521296 47.284055,3.49521296 C47.457013,3.49521296 47.6166665,3.52149275 47.6166665,3.69231143 C47.6166665,3.79743062 47.4437085,4.50698513 47.4037951,4.66466391 L47.0445747,6.24145171 C46.8982256,6.88530673 46.7385721,7.55544154 46.6055275,8.09417737 L47.5368397,8.09417737 L48.0557137,5.61073659 C49.6522491,3.9813892 50.2642543,3.44265336 50.6367792,3.44265336 C50.8097372,3.44265336 50.9161729,3.53463265 50.9294773,3.73173113 C50.9427818,4.02080889 50.7565193,4.67780381 50.689997,4.86176238 L50.1578186,6.67506835 C50.0380784,7.0824052 49.9449472,7.45032236 49.9582517,7.71312032 C49.9715561,8.10731727 50.2243409,8.29127585 50.5835613,8.29127585 C51.2620889,8.29127585 51.7543539,7.59486124 52.1800967,6.91158652 L52.0603565,6.68820825 C51.8873985,6.96414612 51.4882647,7.56858144 51.1689576,7.56858144 C51.0625219,7.56858144 50.9693907,7.50288195 50.9693907,7.33206327 C50.9560863,7.1218249 51.0492175,6.80646734 51.1157398,6.59622896 L51.7011361,4.46756543 C51.8607896,3.87627001 51.9406164,3.50835286 51.9273119,3.29811448 C51.9140075,2.90391753 51.6745272,2.71995896 51.3153067,2.71995896 C50.7033015,2.71995896 49.8917294,3.1535756 48.1754539,5.11142045 L48.1488449,5.11142045 L48.3617163,4.16534777 C48.4814565,3.63975184 48.5878922,3.10101601 48.7076323,2.73309885 C48.1089316,2.94333723 47.2707505,3.1798554 46.7385721,3.28497458 L46.7518765,3.54777255 L46.7518765,3.54777255 Z" id="Shape"></path>
                                        </g>
                                    </g>
                                    <g id="Group-5" transform="translate(70.929241, 6.809207)" fill="#004977" stroke="#004977" stroke-linejoin="round" stroke-width="1.02138107">
                                        <polygon id="Close" points="0.290526172 0 3.32289309 3.03236692 6.35526002 0 6.64578619 0.290526172 3.61341927 3.32289309 6.64578619 6.35526002 6.35526002 6.64578619 3.32289309 3.61341927 0.290526172 6.64578619 0 6.35526002 3.03236692 3.32289309 0 0.290526172"></polygon>
                                    </g>
                                </g>
                                <g id="Group-8" transform="translate(91.924297, 0.283717)">
                                    <polygon id="Triangle" fill="#C13D3A" points="20.9950554 12.1998295 28.3716965 24.683376 13.6184143 24.683376"></polygon>
                                    <polygon id="Path-2" fill="#004977" points="0 24.683376 6.60503581 24.683376 14.8036178 11.037406 17.8348632 15.8518981 20.9950554 11.037406 14.8036178 0.283716965"></polygon>
                                </g>
                            </g>
                        </g>
                    </g>
                    <text id="Capital-One-Apex" font-family="Canela-Light, Canela" font-size="40" font-weight="300" fill="#004977">
                        <tspan x="24" y="129">Capital One </tspan>
                        <tspan x="24" y="177">Apex</tspan>
                    </text>
                </g>
            </g>
        </g>
    </g>
</svg>