<svg width="360" height="400" viewBox="0 0 360 400" fill="none" xmlns="http://www.w3.org/2000/svg">
<rect width="360" height="400" rx="20" fill="url(#paint0_linear)"/>
<path d="M35.304 333.526V330.992H36.592C37.432 330.992 38.006 331.468 38.006 332.266C38.006 333.036 37.432 333.526 36.592 333.526H35.304ZM36.816 335.43C38.832 335.43 40.218 334.128 40.218 332.252C40.218 330.404 38.832 329.074 36.816 329.074H33.078V339H35.29V335.43H36.816ZM49.1696 339H51.6056L49.5896 334.982C50.8076 334.548 51.5496 333.526 51.5496 332.182C51.5496 330.418 50.2896 329.074 48.3296 329.074H44.3956V339H46.6076V335.304H47.3916L49.1696 339ZM46.6076 333.4V330.992H47.9096C48.8196 330.992 49.3096 331.454 49.3096 332.196C49.3096 332.896 48.8196 333.4 47.9096 333.4H46.6076ZM57.6402 334.03C57.6402 331.958 59.1242 331.02 60.5102 331.02C61.8822 331.02 63.3662 331.958 63.3662 334.03C63.3662 336.102 61.8822 337.026 60.5102 337.026C59.1242 337.026 57.6402 336.102 57.6402 334.03ZM55.3442 334.044C55.3442 337.18 57.7102 339.21 60.5102 339.21C63.2962 339.21 65.6622 337.18 65.6622 334.044C65.6622 330.894 63.2962 328.864 60.5102 328.864C57.7102 328.864 55.3442 330.894 55.3442 334.044ZM69.2405 335.934C69.2405 337.908 70.5985 339.21 72.5585 339.21C74.5325 339.21 75.9185 337.698 75.9185 335.892V329.074H73.7065V335.836C73.7065 336.578 73.2725 337.11 72.5445 337.11C71.9005 337.11 71.3405 336.704 71.3405 335.822V334.912L69.2405 335.276V335.934ZM87.0956 339V336.9H83.0076V334.996H86.7036V333.05H83.0076V331.16H87.0816V329.074H80.7956V339H87.0956ZM96.322 339.21C99.402 339.21 100.718 337.11 101.04 335.738L98.926 335.136C98.73 335.85 98.044 336.998 96.322 336.998C94.838 336.998 93.466 335.92 93.466 334.058C93.466 331.972 94.964 331.02 96.294 331.02C98.044 331.02 98.674 332.182 98.828 332.868L100.914 332.21C100.592 330.782 99.276 328.864 96.294 328.864C93.522 328.864 91.17 330.964 91.17 334.058C91.17 337.152 93.466 339.21 96.322 339.21ZM112.74 331.188V329.074H104.41V331.188H107.462V339H109.674V331.188H112.74ZM116.001 337.726C116.001 338.468 116.631 339.126 117.401 339.126C118.157 339.126 118.801 338.468 118.801 337.726C118.801 336.956 118.157 336.326 117.401 336.326C116.631 336.326 116.001 336.956 116.001 337.726ZM116.001 333.316C116.001 334.058 116.631 334.716 117.401 334.716C118.157 334.716 118.801 334.058 118.801 333.316C118.801 332.546 118.157 331.916 117.401 331.916C116.631 331.916 116.001 332.546 116.001 333.316ZM131.35 333.554C131.294 333.372 131.266 333.176 131.266 332.994C131.266 332.238 131.686 331.65 132.54 331.65C133.352 331.65 133.758 332.154 133.758 332.728C133.758 333.33 133.478 333.708 132.764 334.128L131.28 334.996C129.614 335.962 129.138 337.334 129.138 339H136.04V337.152H131.84C131.966 336.886 132.19 336.704 132.456 336.536L134.178 335.514C135.34 334.828 135.97 333.862 135.97 332.686C135.97 331.062 134.682 329.704 132.596 329.704C130.412 329.704 129.194 331.16 129.194 332.784C129.194 333.064 129.236 333.428 129.278 333.54L131.35 333.554ZM149.044 334.856V339H151.256V334.856L154.742 329.074H152.278L150.22 332.756L148.19 329.074H145.6L149.044 334.856ZM165.058 339V336.9H160.97V334.996H164.666V333.05H160.97V331.16H165.044V329.074H158.758V339H165.058ZM176.37 339H178.778L175.082 329.074H172.52L168.782 339H171.106L171.82 336.984H175.656L176.37 339ZM173.766 331.538L174.956 334.968H172.548L173.766 331.538ZM187.575 339H190.011L187.995 334.982C189.213 334.548 189.955 333.526 189.955 332.182C189.955 330.418 188.695 329.074 186.735 329.074H182.801V339H185.013V335.304H185.797L187.575 339ZM185.013 333.4V330.992H186.315C187.225 330.992 187.715 331.454 187.715 332.196C187.715 332.896 187.225 333.4 186.315 333.4H185.013ZM201.224 331.51C201.014 330.348 200.076 328.864 197.598 328.864C195.694 328.864 194.042 330.18 194.042 332.056C194.042 333.526 195.064 334.646 196.744 334.968L198.102 335.22C198.76 335.346 199.166 335.71 199.166 336.214C199.166 336.83 198.634 337.25 197.766 337.25C196.408 337.25 195.792 336.452 195.708 335.542L193.678 336.032C193.818 337.432 194.994 339.21 197.738 339.21C200.104 339.21 201.406 337.628 201.406 336.074C201.406 334.66 200.426 333.442 198.536 333.092L197.206 332.84C196.52 332.714 196.226 332.364 196.226 331.888C196.226 331.342 196.758 330.824 197.584 330.824C198.788 330.824 199.166 331.608 199.236 332.07L201.224 331.51ZM213.733 341.268V327.478H211.969V341.268H213.733ZM232.442 331.188V329.074H224.112V331.188H227.164V339H229.376V331.188H232.442ZM242.884 339V336.9H238.796V334.996H242.492V333.05H238.796V331.16H242.87V329.074H236.584V339H242.884ZM254.196 339H256.604L252.908 329.074H250.346L246.608 339H248.932L249.646 336.984H253.482L254.196 339ZM251.592 331.538L252.782 334.968H250.374L251.592 331.538ZM271.869 339V329.074H268.831L266.241 335.78L263.511 329.074H260.627V339H262.727V332.504L265.317 339H267.109L269.699 332.42V339H271.869ZM39.91 347.51C39.7 346.348 38.762 344.864 36.284 344.864C34.38 344.864 32.728 346.18 32.728 348.056C32.728 349.526 33.75 350.646 35.43 350.968L36.788 351.22C37.446 351.346 37.852 351.71 37.852 352.214C37.852 352.83 37.32 353.25 36.452 353.25C35.094 353.25 34.478 352.452 34.394 351.542L32.364 352.032C32.504 353.432 33.68 355.21 36.424 355.21C38.79 355.21 40.092 353.628 40.092 352.074C40.092 350.66 39.112 349.442 37.222 349.092L35.892 348.84C35.206 348.714 34.912 348.364 34.912 347.888C34.912 347.342 35.444 346.824 36.27 346.824C37.474 346.824 37.852 347.608 37.922 348.07L39.91 347.51ZM46.6493 355V345.074H44.4093V355H46.6493ZM58.9059 355V352.886H53.9499L58.8499 347.118V345.074H51.2339V347.188H55.8119L51.0239 352.872V355H58.9059ZM69.7077 355V352.9H65.6197V350.996H69.3157V349.05H65.6197V347.16H69.6937V345.074H63.4077V355H69.7077ZM74.1458 353.726C74.1458 354.468 74.7758 355.126 75.5458 355.126C76.3018 355.126 76.9458 354.468 76.9458 353.726C76.9458 352.956 76.3018 352.326 75.5458 352.326C74.7758 352.326 74.1458 352.956 74.1458 353.726ZM74.1458 349.316C74.1458 350.058 74.7758 350.716 75.5458 350.716C76.3018 350.716 76.9458 350.058 76.9458 349.316C76.9458 348.546 76.3018 347.916 75.5458 347.916C74.7758 347.916 74.1458 348.546 74.1458 349.316ZM87.2828 353.11H91.4828V355H93.6948V353.11H95.1508V351.262H93.6948V345.914H91.0628L87.2828 350.87V353.11ZM91.4828 351.262H89.2008L91.4828 348.266V351.262ZM107.716 349.526V346.992H109.004C109.844 346.992 110.418 347.468 110.418 348.266C110.418 349.036 109.844 349.526 109.004 349.526H107.716ZM109.228 351.43C111.244 351.43 112.63 350.128 112.63 348.252C112.63 346.404 111.244 345.074 109.228 345.074H105.49V355H107.702V351.43H109.228ZM123.107 355V352.9H119.019V350.996H122.715V349.05H119.019V347.16H123.093V345.074H116.807V355H123.107ZM129.478 350.03C129.478 347.958 130.962 347.02 132.348 347.02C133.72 347.02 135.204 347.958 135.204 350.03C135.204 352.102 133.72 353.026 132.348 353.026C130.962 353.026 129.478 352.102 129.478 350.03ZM127.182 350.044C127.182 353.18 129.548 355.21 132.348 355.21C135.134 355.21 137.5 353.18 137.5 350.044C137.5 346.894 135.134 344.864 132.348 344.864C129.548 344.864 127.182 346.894 127.182 350.044ZM144.102 349.526V346.992H145.39C146.23 346.992 146.804 347.468 146.804 348.266C146.804 349.036 146.23 349.526 145.39 349.526H144.102ZM145.614 351.43C147.63 351.43 149.016 350.128 149.016 348.252C149.016 346.404 147.63 345.074 145.614 345.074H141.876V355H144.088V351.43H145.614ZM159.69 355V352.886H155.406V345.074H153.194V355H159.69ZM170.223 355V352.9H166.135V350.996H169.831V349.05H166.135V347.16H170.209V345.074H163.923V355H170.223Z" fill="#004977" fill-opacity="0.5"/>
<path d="M86.928 308V290.984H82.416L77.424 303.272L72.312 290.984H67.944V308H71.112V296.168L76.008 308H78.768L83.664 296.072V308H86.928ZM94.8527 298.784C96.4367 298.784 97.1807 299.792 97.4687 300.776L100.325 299.816C99.8207 297.824 97.9967 295.832 94.7807 295.832C91.3487 295.832 88.6607 298.448 88.6607 302.096C88.6607 305.72 91.3967 308.36 94.8767 308.36C98.0207 308.36 99.8687 306.344 100.397 304.376L97.5887 303.44C97.3247 304.352 96.5087 305.432 94.8767 305.432C93.2447 305.432 91.8527 304.232 91.8527 302.096C91.8527 299.96 93.2207 298.784 94.8527 298.784ZM104.976 308V290.624H101.784V308H104.976ZM109.761 300.752C109.833 299.672 110.745 298.424 112.401 298.424C114.225 298.424 114.993 299.576 115.041 300.752H109.761ZM115.353 303.824C114.969 304.88 114.153 305.624 112.665 305.624C111.081 305.624 109.761 304.496 109.689 302.936H118.137C118.137 302.888 118.185 302.408 118.185 301.952C118.185 298.16 116.001 295.832 112.353 295.832C109.329 295.832 106.545 298.28 106.545 302.048C106.545 306.032 109.401 308.36 112.641 308.36C115.545 308.36 117.417 306.656 118.017 304.616L115.353 303.824ZM119.019 304.784C119.019 306.632 120.555 308.336 123.075 308.336C124.827 308.336 125.955 307.52 126.555 306.584C126.555 307.04 126.603 307.688 126.675 308H129.603C129.531 307.592 129.459 306.752 129.459 306.128V300.32C129.459 297.944 128.067 295.832 124.323 295.832C121.155 295.832 119.451 297.872 119.259 299.72L122.091 300.32C122.187 299.288 122.955 298.4 124.347 298.4C125.691 298.4 126.339 299.096 126.339 299.936C126.339 300.344 126.123 300.68 125.451 300.776L122.547 301.208C120.579 301.496 119.019 302.672 119.019 304.784ZM123.747 305.96C122.715 305.96 122.211 305.288 122.211 304.592C122.211 303.68 122.859 303.224 123.675 303.104L126.339 302.696V303.224C126.339 305.312 125.091 305.96 123.747 305.96ZM134.908 301.208C134.908 299.84 135.724 298.76 137.116 298.76C138.652 298.76 139.3 299.792 139.3 301.112V308H142.492V300.56C142.492 297.968 141.148 295.88 138.22 295.88C136.948 295.88 135.532 296.432 134.812 297.656V296.192H131.716V308H134.908V301.208ZM144.532 306.08C144.532 307.232 145.348 308.072 146.524 308.072C146.788 308.072 147.052 308 147.148 307.928C147.1 309.248 145.948 310.28 144.868 310.52V312.056C146.644 311.84 149.092 310.352 149.092 306.824C149.092 305.264 148.204 304.064 146.716 304.064C145.468 304.064 144.532 304.928 144.532 306.08ZM162.858 303.632L158.418 290.984H154.794L161.082 308H164.49L170.802 290.984H167.298L162.858 303.632ZM182.106 308H185.706L179.226 290.984H175.386L168.858 308H172.362L173.778 304.112H180.69L182.106 308ZM177.234 294.656L179.586 301.088H174.882L177.234 294.656Z" fill="#003A6F"/>
<path fill-rule="evenodd" clip-rule="evenodd" d="M50 295C50 299.6 44.73 307.69 43 310C43 310 41.5 312 41 312C40.5 312 39 310 39 310C37.27 307.69 32 299.6 32 295C32 290.029 36.0294 286 41 286C45.9706 286 50 290.029 50 295ZM41 291C38.7909 291 37 292.791 37 295C37 297.209 38.7909 299 41 299C43.2091 299 45 297.209 45 295C45 292.791 43.2091 291 41 291Z" fill="#003A6F"/>
<path fill-rule="evenodd" clip-rule="evenodd" d="M72.4894 65.8292C70.0679 67.5242 67.2075 69.2981 64.1342 71.164L64.0144 71.2297C63.9745 71.256 63.9612 71.3085 63.9878 71.3611C64.0144 71.4005 64.0676 71.4136 64.1209 71.3874L64.2273 71.3348C66.835 69.9945 69.8418 68.3915 72.8486 66.749C72.8619 66.7358 72.8752 66.7358 72.9018 66.7227C72.7288 66.4468 72.5825 66.1445 72.4894 65.8292V65.8292ZM88.3483 53.1492C84.5432 48.997 60.0497 52.7287 49.6323 54.9756L49.3928 55.0282C49.3396 55.0413 49.313 55.0807 49.313 55.1333C49.3263 55.1859 49.3662 55.2121 49.4194 55.2121L49.6589 55.1596C58.2802 53.6485 76.2279 51.5461 80.0995 55.3304C81.2836 56.4867 80.9909 57.9715 79.6339 59.7191C80.3656 60.1922 80.8978 60.928 81.1373 61.8478C86.459 58.3394 90.0379 55.0019 88.3483 53.1492Z" fill="#A12830"/>
<path fill-rule="evenodd" clip-rule="evenodd" d="M74.0328 64.738C74.086 66.1966 75.0174 67.3923 76.2414 67.3923C78.6096 67.3923 79.6074 64.5278 79.5409 62.6094C79.4877 61.1508 78.5297 59.9551 77.319 59.9551C75.2701 59.9551 73.9663 62.8065 74.0328 64.738V64.738ZM72.7822 64.6592C72.6891 62.1626 74.6714 59.6266 77.5452 59.6266C79.461 59.6266 80.725 60.888 80.7915 62.8196C80.8846 65.4476 79.0353 67.8522 76.0285 67.8522C74.1127 67.8522 72.8487 66.5908 72.7822 64.6592ZM45.6012 64.0022C45.4948 64.0416 45.3617 64.081 45.2021 64.1073C45.0424 64.1467 44.7364 64.1993 44.3107 64.265C44.018 64.3176 43.8051 64.3701 43.6854 64.4621C43.5656 64.5409 43.4991 64.6461 43.4858 64.7643C43.4592 64.8957 43.4991 65.0008 43.6188 65.0797C43.7386 65.1585 43.9248 65.1979 44.1909 65.1979C44.3905 65.1979 44.5901 65.1717 44.7896 65.106C44.9892 65.0403 45.1488 64.9614 45.2819 64.8563C45.375 64.7775 45.4415 64.6723 45.4948 64.5541C45.5081 64.4621 45.548 64.2781 45.6012 64.0022V64.0022ZM48.1024 62.4648C48.0891 62.6882 48.0492 62.8985 47.996 63.2401L47.5703 65.579C47.5303 65.7892 47.6102 65.9469 47.8097 66.0652L47.7964 66.1571H45.375L45.3484 65.5658C45.0025 65.7761 44.5768 65.9469 44.1909 66.052C43.8051 66.144 43.4991 66.1966 43.0334 66.1966C42.2485 66.1966 41.8094 66.1177 41.5034 65.8549C41.1841 65.579 41.0378 65.395 41.0511 65.014C41.0644 64.7906 41.1708 64.5147 41.3438 64.3176C41.5167 64.1205 41.7429 63.9891 41.9824 63.8708C42.2352 63.7525 42.5279 63.6737 42.9536 63.608C43.3793 63.5423 43.9781 63.4766 44.7763 63.4109C45.1888 63.3715 45.4548 63.2795 45.5746 63.2401C45.7475 63.1744 45.8008 63.1087 45.8274 62.9773C45.8673 62.7408 45.8008 62.5962 45.4681 62.5305C44.6034 62.3597 42.9669 62.6357 42.1287 62.8459L42.5811 61.6239C43.6854 61.4662 44.7364 61.3611 45.8274 61.3611C47.557 61.3479 48.1157 61.8341 48.1024 62.4648V62.4648ZM55.1006 66.1571L55.9388 61.4793H58.2537L57.4156 66.1571H55.1006ZM56.0718 60.4019C56.1383 60.0208 56.7503 59.7055 57.4422 59.7055C58.134 59.7055 58.6263 60.0208 58.5597 60.4019C58.4932 60.7829 57.8679 61.0983 57.1894 61.0983C56.4975 61.0983 55.992 60.7829 56.0718 60.4019ZM66.4759 64.0153C66.3695 64.0548 66.2364 64.0942 66.0768 64.1205C65.9171 64.1599 65.6111 64.2124 65.1721 64.2781C64.8794 64.3307 64.6665 64.3833 64.5467 64.4752C64.4403 64.5541 64.3738 64.6592 64.3472 64.7775C64.3206 64.9089 64.3738 65.014 64.4802 65.0928C64.6 65.1717 64.7862 65.2111 65.0656 65.2111C65.2652 65.2111 65.4648 65.1848 65.6643 65.1191C65.8639 65.0534 66.0235 64.9746 66.1566 64.8694C66.2497 64.7906 66.3162 64.6855 66.3562 64.5672C66.3828 64.4752 66.4227 64.2913 66.4759 64.0153ZM68.9638 62.478C68.9505 62.7014 68.9106 62.9116 68.8441 63.2532L68.4317 65.5921C68.3917 65.8024 68.4716 65.96 68.6711 66.0783L68.6578 66.1571H66.2364L66.2231 65.5658C65.8639 65.7761 65.4381 65.9469 65.0656 66.052C64.6798 66.1571 64.3738 66.1966 63.9081 66.1966C63.1232 66.1966 62.6841 66.1177 62.3781 65.8549C62.0588 65.579 61.9125 65.395 61.9258 65.014C61.9391 64.7906 62.0455 64.5147 62.2185 64.3176C62.3914 64.1205 62.6176 63.9891 62.8571 63.8708C63.1099 63.7525 63.4026 63.6737 63.8283 63.5949C64.254 63.5292 64.8528 63.4635 65.651 63.3978C66.0635 63.3583 66.3162 63.2664 66.436 63.2269C66.6089 63.1612 66.6755 63.0955 66.7021 62.951C66.742 62.7145 66.6622 62.57 66.3428 62.5043C65.4648 62.3334 63.8416 62.6094 63.0034 62.8196L63.4558 61.5976C64.5734 61.4399 65.5978 61.3348 66.7021 61.3348C68.4183 61.3611 68.9771 61.8473 68.9638 62.478V62.478ZM40.7318 64.4752C39.9734 64.6198 39.561 64.6855 38.8159 64.6855C37.7116 64.6855 36.8336 64.1467 36.8735 63.1481C36.9134 62.4911 37.6983 61.0851 39.7206 61.0851C40.3592 61.0851 40.8515 61.1903 41.5167 61.5713L41.8094 59.9551C40.9047 59.6135 40.306 59.5609 39.5211 59.5741C36.8735 59.6003 34.3323 60.7829 34.0263 63.2007C33.707 65.6578 36.7404 66.2754 38.0842 66.2623C38.8558 66.2623 39.6674 66.2228 40.4258 66.1571L40.7318 64.4752ZM59.531 61.4531L59.6906 60.507L62.112 59.9814L61.8592 61.4531H63.0433L62.8172 62.3991H61.673L60.9812 66.1571C60.9812 66.1571 58.6529 66.144 58.6396 66.1571L59.3314 62.4123H58.4533L58.6263 61.4662H59.531V61.4531ZM71.3187 66.1571H68.9505L70.1346 59.6398L72.4363 59.7055L71.3187 66.1571ZM52.0406 62.5831C51.7346 62.5831 51.4685 62.6751 51.2157 62.859C50.9762 63.043 50.8165 63.3058 50.7633 63.6606C50.6968 64.0679 50.7367 64.357 50.8964 64.5409C51.056 64.7249 51.2955 64.8169 51.6148 64.8169C51.8277 64.8169 52.0406 64.7775 52.2002 64.6986C52.3998 64.5935 52.5328 64.4884 52.6526 64.3176C52.7856 64.1336 52.8654 63.9365 52.9053 63.7C52.9719 63.3321 52.9186 63.0561 52.7457 62.8722C52.5727 62.6751 52.3466 62.5831 52.0406 62.5831V62.5831ZM47.823 67.7734L48.9539 61.5056H50.9895L50.8298 62.3072C51.0028 62.0706 51.2822 61.8735 51.6813 61.7159C52.0672 61.5582 52.5195 61.4399 52.9985 61.4399C53.5307 61.4399 53.85 61.4662 54.2491 61.6764C54.6482 61.8867 54.9143 62.1758 55.074 62.57C55.2203 62.951 55.2602 63.3715 55.1804 63.8445C55.0474 64.6198 54.6615 65.2242 54.0362 65.671C53.4109 66.1177 52.8521 66.236 52.0672 66.236C51.7878 66.236 51.5483 66.2097 51.3487 66.1571C51.1625 66.1046 51.0028 66.052 50.8831 65.9732C50.7766 65.8943 50.6569 65.8024 50.4972 65.6315L50.1247 67.7734H47.823V67.7734ZM89.8385 63.1612C89.8252 62.7802 89.639 62.5305 89.2398 62.5305C88.2952 62.5305 87.2841 64.3701 87.1111 65.106C88.6544 65.106 89.8651 64.1862 89.8385 63.1612V63.1612ZM90.0381 66.0389L90.2244 66.1571C89.7587 67.0901 88.8141 67.8391 87.7098 67.8391C86.8051 67.8391 86.0601 67.2478 86.0201 66.1309C85.9536 64.1336 87.8429 62.2677 89.3995 62.2677C90.0647 62.2677 90.69 62.5568 90.7166 63.2664C90.7698 64.8563 88.5081 65.3425 87.018 65.3819C86.9648 65.5527 86.9515 65.7104 86.9648 65.9732C86.9914 66.6302 87.3905 67.1952 88.2287 67.1952C88.9471 67.1689 89.6656 66.6039 90.0381 66.0389Z" fill="#003A6F"/>
<path fill-rule="evenodd" clip-rule="evenodd" d="M80.7518 63.1091C80.9115 63.0828 81.1776 63.0565 81.284 63.0565C81.457 63.0565 81.6166 63.0828 81.6166 63.2536C81.6166 63.3587 81.4436 64.0683 81.4037 64.226L81.0445 65.8027C80.8982 66.4466 80.7385 67.1167 80.6055 67.6555H81.5368L82.0557 65.172C83.6522 63.5427 84.2642 63.0039 84.6367 63.0039C84.8097 63.0039 84.9161 63.0959 84.9294 63.293C84.9427 63.5821 84.7565 64.2391 84.6899 64.4231L84.1578 66.2364C84.038 66.6437 83.9449 67.0116 83.9582 67.2744C83.9715 67.6686 84.2243 67.8526 84.5835 67.8526C85.262 67.8526 85.7543 67.1562 86.18 66.4729L86.0603 66.2495C85.8873 66.5254 85.4882 67.1299 85.1689 67.1299C85.0625 67.1299 84.9693 67.0642 84.9693 66.8934C84.956 66.6831 85.0492 66.3678 85.1157 66.1575L85.7011 64.0289C85.8607 63.4376 85.9406 63.0696 85.9273 62.8594C85.9139 62.4652 85.6745 62.2812 85.3152 62.2812C84.7032 62.2812 83.8917 62.7149 82.1754 64.6727H82.1488L82.3617 63.7266C82.4814 63.201 82.5878 62.6623 82.7076 62.2944C82.1089 62.5046 81.2707 62.7411 80.7385 62.8463L80.7518 63.1091V63.1091Z" fill="#003A6F"/>
<path fill-rule="evenodd" clip-rule="evenodd" d="M105.219 58.0781L108.252 61.1105L111.284 58.0781L111.574 58.3687L108.542 61.401L111.574 64.4334L111.284 64.7239L108.252 61.6915L105.219 64.7239L104.929 64.4334L107.961 61.401L104.929 58.3687L105.219 58.0781Z" fill="#003A6F" stroke="#003A6F" stroke-width="1.02138" stroke-linejoin="round"/>
<path fill-rule="evenodd" clip-rule="evenodd" d="M146.919 60.916L154.296 73.3996H139.542L146.919 60.916Z" fill="#A12830"/>
<path fill-rule="evenodd" clip-rule="evenodd" d="M125.924 73.3997H132.529L140.727 59.7537L143.759 64.5682L146.919 59.7537L140.727 49L125.924 73.3997Z" fill="#003A6F"/>
<path d="M61.12 133.6L61.92 126.92L61.6 126.8C59.16 132.32 56.2 135.8 50.32 135.8C42.64 135.8 39.16 129.6 39.16 121.32C39.16 113.12 42.76 106.92 50.8 106.92C55.32 106.92 58.24 109.04 61.44 114.24L61.76 114.16L60.96 108.08C58.96 107.24 55.16 106.12 51.12 106.12C41.68 106.12 35.4 112.8 35.4 121.32C35.4 129.88 41.04 136.6 50.24 136.6C55.44 136.6 59.96 134.44 61.12 133.6ZM71.3628 134.84C69.1228 134.84 68.0828 133.64 68.0828 131.92C68.0828 128.72 72.0428 127.16 75.7628 126.52V133.16C74.8428 134.08 73.1628 134.84 71.3628 134.84ZM78.7228 136.48C80.8428 136.48 81.8828 134.96 82.2828 133.92L82.1628 133.84C81.5628 134.32 81.0028 134.68 80.2428 134.68C79.1228 134.68 78.6828 133.96 78.6828 132.96V121.2C78.6828 118.68 77.6828 116.36 73.3628 116.36C70.1628 116.36 67.5628 117.72 65.9628 119.64L66.1628 119.88C67.7228 118.72 69.7628 118.12 71.6428 118.12C74.8428 118.12 75.7628 119.8 75.7628 121.92V125.92C71.3628 126.44 65.2428 128.44 65.2428 132.84C65.2428 135.28 67.1228 136.6 69.7228 136.6C72.2828 136.6 74.4428 135.32 75.7628 133.84C75.9228 135.32 76.8428 136.48 78.7228 136.48ZM92.9325 135.88C90.8125 135.88 88.8125 134.76 87.7325 132.16V120.6C88.6525 119.44 90.4925 118.28 92.8925 118.28C96.5725 118.28 99.3725 121.04 99.3725 126.68C99.3725 132.32 96.7725 135.88 92.9325 135.88ZM83.9325 145H88.6125V144.92C87.8125 143.16 87.7325 141.56 87.7325 138.84V135.4C88.8925 136.08 90.4525 136.6 92.6525 136.6C99.3325 136.6 102.573 131.64 102.573 126.08C102.573 120.32 99.2525 116.36 94.4925 116.36C91.6125 116.36 89.2525 117.72 87.8525 119.76L87.5725 119.72V116.16L83.0525 118.28V118.36C83.9725 119.16 84.8125 120.32 84.8125 122.36V138.88C84.8125 141.6 84.6925 143.2 83.9325 144.92V145ZM109.85 109.64C109.85 108.56 108.97 107.64 107.89 107.64C106.81 107.64 105.89 108.56 105.89 109.64C105.89 110.76 106.81 111.64 107.89 111.64C108.97 111.64 109.85 110.76 109.85 109.64ZM105.69 135.92V136H110.37V135.92C109.57 134.16 109.49 132.56 109.49 129.8V116.16L104.81 118.28V118.44C105.73 119.24 106.57 120.44 106.57 122.4V129.84C106.57 132.6 106.33 134.16 105.69 135.92ZM119.486 136.6C121.726 136.6 123.366 135.48 124.166 134.4L124.086 134.24C123.646 134.52 122.486 135 121.046 135C119.006 135 118.166 133.96 118.166 132V117.68H123.766V116.96H118.166V113.32H117.966L113.086 117.52V117.68H115.246V132C115.246 135.6 117.366 136.6 119.486 136.6ZM132.261 134.84C130.021 134.84 128.981 133.64 128.981 131.92C128.981 128.72 132.941 127.16 136.661 126.52V133.16C135.741 134.08 134.061 134.84 132.261 134.84ZM139.621 136.48C141.741 136.48 142.781 134.96 143.181 133.92L143.061 133.84C142.461 134.32 141.901 134.68 141.141 134.68C140.021 134.68 139.581 133.96 139.581 132.96V121.2C139.581 118.68 138.581 116.36 134.261 116.36C131.061 116.36 128.461 117.72 126.861 119.64L127.061 119.88C128.621 118.72 130.661 118.12 132.541 118.12C135.741 118.12 136.661 119.8 136.661 121.92V125.92C132.261 126.44 126.141 128.44 126.141 132.84C126.141 135.28 128.021 136.6 130.621 136.6C133.181 136.6 135.341 135.32 136.661 133.84C136.821 135.32 137.741 136.48 139.621 136.48ZM144.751 135.92V136H149.431V135.92C148.671 134.68 148.551 133.36 148.551 130.84V104.84L143.831 106.76V106.84C144.751 107.6 145.631 108.64 145.631 110.52V130.88C145.631 133.4 145.391 134.68 144.751 135.92ZM173.911 136.6C181.911 136.6 188.791 129.92 188.791 121.4C188.791 112.84 181.911 106.12 173.911 106.12C166.031 106.12 159.111 112.84 159.111 121.4C159.111 129.92 166.031 136.6 173.911 136.6ZM173.911 135.8C166.751 135.8 162.871 129.6 162.871 121.4C162.871 113.16 166.751 106.92 173.911 106.92C181.111 106.92 185.031 113.16 185.031 121.4C185.031 129.72 181.111 135.8 173.911 135.8ZM197.167 136V135.92C196.367 134.16 196.287 132.56 196.287 129.8V120.68C197.847 119.08 199.847 118.32 201.727 118.32C204.767 118.32 205.847 120.4 205.847 122.84V129.84C205.847 132.52 205.727 134.16 204.967 135.92V136H209.647V135.92C208.807 134.2 208.767 132.64 208.767 129.8V122.2C208.767 118.56 206.807 116.36 203.127 116.36C200.447 116.36 198.167 117.68 196.287 119.92L196.127 119.88V116.16L191.607 118.28V118.36C192.527 119.16 193.367 120.32 193.367 122.36V129.84C193.367 132.6 193.247 134.2 192.487 135.92V136H197.167ZM229.378 131.16L229.178 131.04C227.778 133.08 225.458 134.04 223.018 134.04C218.498 134.04 215.938 130.84 215.938 125.44V124.76C215.938 124.52 215.938 124.28 215.978 124.08H229.298C229.618 120.36 226.618 116.36 221.978 116.36C217.338 116.36 212.898 120.44 212.898 126.8C212.898 132.56 216.418 136.6 221.698 136.6C225.658 136.6 228.378 134.32 229.378 131.16ZM221.818 117.08C224.578 117.08 226.058 118.92 226.058 122.92V123.24L216.058 123.44C216.578 119.6 218.618 117.08 221.818 117.08ZM45.44 150.68L50.32 164.16H40.48L45.44 150.68ZM38.96 176V175.92C38.08 174.84 37.2 173 38.52 169.44L40.16 164.96H50.6L52.6 170.44C53.6 173.16 53.36 175 52.76 175.92V176H59.12V175.92C57.76 174.76 57.2 173.8 56.04 170.6L47.08 146.36H46.12L37.28 170.2C36.2 173 35.8 174.2 34.08 175.92V176H38.96ZM69.9247 175.88C67.8047 175.88 65.8047 174.76 64.7247 172.16V160.6C65.6447 159.44 67.4847 158.28 69.8847 158.28C73.5647 158.28 76.3647 161.04 76.3647 166.68C76.3647 172.32 73.7647 175.88 69.9247 175.88ZM60.9247 185H65.6047V184.92C64.8047 183.16 64.7247 181.56 64.7247 178.84V175.4C65.8847 176.08 67.4447 176.6 69.6447 176.6C76.3247 176.6 79.5647 171.64 79.5647 166.08C79.5647 160.32 76.2447 156.36 71.4847 156.36C68.6047 156.36 66.2447 157.72 64.8447 159.76L64.5647 159.72V156.16L60.0447 158.28V158.36C60.9647 159.16 61.8047 160.32 61.8047 162.36V178.88C61.8047 181.6 61.6847 183.2 60.9247 184.92V185ZM98.7531 171.16L98.5531 171.04C97.1531 173.08 94.8331 174.04 92.3931 174.04C87.8731 174.04 85.3131 170.84 85.3131 165.44V164.76C85.3131 164.52 85.3131 164.28 85.3531 164.08H98.6731C98.9931 160.36 95.9931 156.36 91.3531 156.36C86.7131 156.36 82.2731 160.44 82.2731 166.8C82.2731 172.56 85.7931 176.6 91.0731 176.6C95.0331 176.6 97.7531 174.32 98.7531 171.16ZM91.1931 157.08C93.9531 157.08 95.4331 158.92 95.4331 162.92V163.24L85.4331 163.44C85.9531 159.6 87.9931 157.08 91.1931 157.08ZM103.951 176V175.92C103.311 174.96 103.111 173.64 104.591 171.56L107.351 167.52L110.231 172.16C111.391 173.96 111.951 174.88 111.111 175.92V176H116.911V175.92C115.831 175.12 114.631 173.76 113.351 171.64L109.591 165.68L112.631 161.08C114.031 159.04 114.831 158.32 116.511 157.04V156.96H112.111V157.04C112.751 157.88 112.991 159.24 111.551 161.44L109.191 165L106.551 160.8C105.431 158.92 104.951 157.96 105.791 157.04V156.96H99.9506V157.04C101.031 157.8 102.191 159.24 103.471 161.32L106.951 166.88L103.511 171.88C102.111 173.92 101.271 174.68 99.5906 175.92V176H103.951Z" fill="#003A6F"/>
<defs>
<linearGradient id="paint0_linear" x1="0" y1="0" x2="450.336" y2="218.992" gradientUnits="userSpaceOnUse">
<stop stop-color="white"/>
<stop offset="1" stop-color="#F4F0F3"/>
</linearGradient>
</defs>
</svg>
