<svg width="360" height="400" viewBox="0 0 360 400" fill="none" xmlns="http://www.w3.org/2000/svg">
<rect width="360" height="400" rx="20" fill="url(#paint0_linear)"/>
<path d="M34.87 333.638V330.558H36.62C37.684 330.558 38.328 331.16 38.328 332.112C38.328 333.05 37.684 333.638 36.62 333.638H34.87ZM36.872 335.122C38.776 335.122 40.036 333.848 40.036 332.098C40.036 330.362 38.776 329.074 36.872 329.074H33.19V339H34.87V335.122H36.872ZM49.3965 339H51.3005L49.0605 334.912C50.4465 334.576 51.3005 333.498 51.3005 332.084C51.3005 330.404 50.1105 329.074 48.1925 329.074H44.3845V339H46.0785V335.08H47.3105L49.3965 339ZM46.0785 333.596V330.558H47.8845C48.9205 330.558 49.5925 331.16 49.5925 332.084C49.5925 332.994 48.9205 333.596 47.8845 333.596H46.0785ZM56.9452 334.03C56.9452 331.636 58.5972 330.446 60.2632 330.446C61.9432 330.446 63.5952 331.636 63.5952 334.03C63.5952 336.424 61.9432 337.614 60.2632 337.614C58.5972 337.614 56.9452 336.424 56.9452 334.03ZM55.2232 334.03C55.2232 337.292 57.6592 339.21 60.2632 339.21C62.8672 339.21 65.3172 337.292 65.3172 334.03C65.3172 330.782 62.8672 328.864 60.2632 328.864C57.6592 328.864 55.2232 330.782 55.2232 334.03ZM68.9808 336.004C68.9808 337.936 70.2128 339.21 72.1588 339.21C74.0488 339.21 75.2808 337.74 75.2808 335.976V329.074H73.6008V336.018C73.6008 337.026 73.0408 337.628 72.1448 337.628C71.2768 337.628 70.6188 337.11 70.6188 335.948V335.024L68.9808 335.36V336.004ZM86.479 339V337.432H82.027V334.8H86.059V333.274H82.027V330.642H86.479V329.074H80.347V339H86.479ZM95.6645 339.21C98.1985 339.21 99.7105 337.6 100.158 335.92L98.6185 335.416C98.2825 336.536 97.3305 337.6 95.6645 337.6C93.9705 337.6 92.3745 336.368 92.3745 334.044C92.3745 331.636 94.0125 330.446 95.6505 330.446C97.3165 330.446 98.2405 331.412 98.5345 332.616L100.116 332.084C99.6685 330.348 98.1705 328.864 95.6505 328.864C93.0745 328.864 90.6525 330.81 90.6525 334.044C90.6525 337.278 92.9905 339.21 95.6645 339.21ZM111.694 330.656V329.074H103.56V330.656H106.78V339H108.46V330.656H111.694ZM114.91 337.964C114.91 338.58 115.414 339.084 116.044 339.084C116.66 339.084 117.178 338.58 117.178 337.964C117.178 337.334 116.66 336.83 116.044 336.83C115.414 336.83 114.91 337.334 114.91 337.964ZM114.896 333.232C114.896 333.848 115.4 334.352 116.03 334.352C116.646 334.352 117.164 333.848 117.164 333.232C117.164 332.602 116.646 332.098 116.03 332.098C115.4 332.098 114.896 332.602 114.896 333.232ZM129.426 333.33C129.412 333.176 129.384 333.008 129.384 332.868C129.384 331.93 129.902 331.188 130.966 331.188C131.988 331.188 132.492 331.86 132.492 332.602C132.492 333.26 132.142 333.806 131.33 334.31L129.832 335.248C128.25 336.228 127.704 337.446 127.676 339H134.242V337.516H129.748C129.874 337.068 130.238 336.746 130.672 336.48L132.436 335.388C133.528 334.716 134.186 333.75 134.186 332.574C134.186 331.02 132.996 329.718 130.994 329.718C128.936 329.718 127.76 331.132 127.76 332.7C127.76 332.882 127.788 333.092 127.802 333.218L129.426 333.33ZM147.418 334.8V339H149.098V334.8L152.598 329.074H150.708L148.314 333.232L145.934 329.074H143.946L147.418 334.8ZM162.856 339V337.432H158.404V334.8H162.436V333.274H158.404V330.642H162.856V329.074H156.724V339H162.856ZM174.462 339H176.296L172.432 329.074H170.486L166.622 339H168.4L169.324 336.508H173.524L174.462 339ZM171.424 330.894L172.936 334.954H169.912L171.424 330.894ZM185.437 339H187.341L185.101 334.912C186.487 334.576 187.341 333.498 187.341 332.084C187.341 330.404 186.151 329.074 184.233 329.074H180.425V339H182.119V335.08H183.351L185.437 339ZM182.119 333.596V330.558H183.925C184.961 330.558 185.633 331.16 185.633 332.084C185.633 332.994 184.961 333.596 183.925 333.596H182.119ZM198.458 331.398C198.234 330.292 197.324 328.864 194.986 328.864C193.138 328.864 191.612 330.236 191.612 331.902C191.612 333.386 192.62 334.38 194.132 334.688L195.532 334.982C196.386 335.164 196.862 335.682 196.862 336.326C196.862 337.096 196.246 337.698 195.056 337.698C193.628 337.698 192.886 336.746 192.788 335.71L191.22 336.158C191.374 337.586 192.536 339.21 195.056 339.21C197.324 339.21 198.57 337.74 198.57 336.2C198.57 334.8 197.632 333.694 195.882 333.344L194.454 333.05C193.684 332.882 193.292 332.406 193.292 331.776C193.292 331.02 193.992 330.348 195 330.348C196.33 330.348 196.848 331.258 196.946 331.874L198.458 331.398ZM210.76 341.142V327.814H209.388V341.142H210.76ZM229.332 330.656V329.074H221.198V330.656H224.418V339H226.098V330.656H229.332ZM239.642 339V337.432H235.19V334.8H239.222V333.274H235.19V330.642H239.642V329.074H233.51V339H239.642ZM251.249 339H253.083L249.219 329.074H247.273L243.409 339H245.187L246.111 336.508H250.311L251.249 339ZM248.211 330.894L249.723 334.954H246.699L248.211 330.894ZM268.132 339V329.074H265.85L262.672 336.648L259.452 329.074H257.212V339H258.85V331.72L261.916 339H263.372L266.466 331.692V339H268.132ZM39.714 347.398C39.49 346.292 38.58 344.864 36.242 344.864C34.394 344.864 32.868 346.236 32.868 347.902C32.868 349.386 33.876 350.38 35.388 350.688L36.788 350.982C37.642 351.164 38.118 351.682 38.118 352.326C38.118 353.096 37.502 353.698 36.312 353.698C34.884 353.698 34.142 352.746 34.044 351.71L32.476 352.158C32.63 353.586 33.792 355.21 36.312 355.21C38.58 355.21 39.826 353.74 39.826 352.2C39.826 350.8 38.888 349.694 37.138 349.344L35.71 349.05C34.94 348.882 34.548 348.406 34.548 347.776C34.548 347.02 35.248 346.348 36.256 346.348C37.586 346.348 38.104 347.258 38.202 347.874L39.714 347.398ZM46.0789 355V345.074H44.3709V355H46.0789ZM58.3988 355V353.404H52.7568L58.3288 346.67V345.074H50.8108V346.656H56.1588L50.6568 353.348V355H58.3988ZM69.0911 355V353.432H64.6391V350.8H68.6711V349.274H64.6391V346.642H69.0911V345.074H62.9591V355H69.0911ZM73.7116 353.964C73.7116 354.58 74.2156 355.084 74.8456 355.084C75.4616 355.084 75.9796 354.58 75.9796 353.964C75.9796 353.334 75.4616 352.83 74.8456 352.83C74.2156 352.83 73.7116 353.334 73.7116 353.964ZM73.6976 349.232C73.6976 349.848 74.2016 350.352 74.8316 350.352C75.4476 350.352 75.9656 349.848 75.9656 349.232C75.9656 348.602 75.4476 348.098 74.8316 348.098C74.2016 348.098 73.6976 348.602 73.6976 349.232ZM86.4768 353.012H90.8448V355H92.4968V353.012H94.0228V351.528H92.4968V345.928H90.3408L86.4768 351.192V353.012ZM90.8448 351.528H87.9888L90.8448 347.622V351.528ZM106.174 349.638V346.558H107.924C108.988 346.558 109.632 347.16 109.632 348.112C109.632 349.05 108.988 349.638 107.924 349.638H106.174ZM108.176 351.122C110.08 351.122 111.34 349.848 111.34 348.098C111.34 346.362 110.08 345.074 108.176 345.074H104.494V355H106.174V351.122H108.176ZM121.821 355V353.432H117.369V350.8H121.401V349.274H117.369V346.642H121.821V345.074H115.689V355H121.821ZM127.716 350.03C127.716 347.636 129.368 346.446 131.034 346.446C132.714 346.446 134.366 347.636 134.366 350.03C134.366 352.424 132.714 353.614 131.034 353.614C129.368 353.614 127.716 352.424 127.716 350.03ZM125.994 350.03C125.994 353.292 128.43 355.21 131.034 355.21C133.638 355.21 136.088 353.292 136.088 350.03C136.088 346.782 133.638 344.864 131.034 344.864C128.43 344.864 125.994 346.782 125.994 350.03ZM142.342 349.638V346.558H144.092C145.156 346.558 145.8 347.16 145.8 348.112C145.8 349.05 145.156 349.638 144.092 349.638H142.342ZM144.344 351.122C146.248 351.122 147.508 349.848 147.508 348.098C147.508 346.362 146.248 345.074 144.344 345.074H140.662V355H142.342V351.122H144.344ZM158.086 355V353.404H153.536V345.074H151.856V355H158.086ZM168.554 355V353.432H164.102V350.8H168.134V349.274H164.102V346.642H168.554V345.074H162.422V355H168.554Z" fill="#004977" fill-opacity="0.5"/>
<path d="M86.928 308V290.984H82.416L77.424 303.272L72.312 290.984H67.944V308H71.112V296.168L76.008 308H78.768L83.664 296.072V308H86.928ZM94.8527 298.784C96.4367 298.784 97.1807 299.792 97.4687 300.776L100.325 299.816C99.8207 297.824 97.9967 295.832 94.7807 295.832C91.3487 295.832 88.6607 298.448 88.6607 302.096C88.6607 305.72 91.3967 308.36 94.8767 308.36C98.0207 308.36 99.8687 306.344 100.397 304.376L97.5887 303.44C97.3247 304.352 96.5087 305.432 94.8767 305.432C93.2447 305.432 91.8527 304.232 91.8527 302.096C91.8527 299.96 93.2207 298.784 94.8527 298.784ZM104.976 308V290.624H101.784V308H104.976ZM109.761 300.752C109.833 299.672 110.745 298.424 112.401 298.424C114.225 298.424 114.993 299.576 115.041 300.752H109.761ZM115.353 303.824C114.969 304.88 114.153 305.624 112.665 305.624C111.081 305.624 109.761 304.496 109.689 302.936H118.137C118.137 302.888 118.185 302.408 118.185 301.952C118.185 298.16 116.001 295.832 112.353 295.832C109.329 295.832 106.545 298.28 106.545 302.048C106.545 306.032 109.401 308.36 112.641 308.36C115.545 308.36 117.417 306.656 118.017 304.616L115.353 303.824ZM119.019 304.784C119.019 306.632 120.555 308.336 123.075 308.336C124.827 308.336 125.955 307.52 126.555 306.584C126.555 307.04 126.603 307.688 126.675 308H129.603C129.531 307.592 129.459 306.752 129.459 306.128V300.32C129.459 297.944 128.067 295.832 124.323 295.832C121.155 295.832 119.451 297.872 119.259 299.72L122.091 300.32C122.187 299.288 122.955 298.4 124.347 298.4C125.691 298.4 126.339 299.096 126.339 299.936C126.339 300.344 126.123 300.68 125.451 300.776L122.547 301.208C120.579 301.496 119.019 302.672 119.019 304.784ZM123.747 305.96C122.715 305.96 122.211 305.288 122.211 304.592C122.211 303.68 122.859 303.224 123.675 303.104L126.339 302.696V303.224C126.339 305.312 125.091 305.96 123.747 305.96ZM134.908 301.208C134.908 299.84 135.724 298.76 137.116 298.76C138.652 298.76 139.3 299.792 139.3 301.112V308H142.492V300.56C142.492 297.968 141.148 295.88 138.22 295.88C136.948 295.88 135.532 296.432 134.812 297.656V296.192H131.716V308H134.908V301.208ZM144.532 306.08C144.532 307.232 145.348 308.072 146.524 308.072C146.788 308.072 147.052 308 147.148 307.928C147.1 309.248 145.948 310.28 144.868 310.52V312.056C146.644 311.84 149.092 310.352 149.092 306.824C149.092 305.264 148.204 304.064 146.716 304.064C145.468 304.064 144.532 304.928 144.532 306.08ZM162.858 303.632L158.418 290.984H154.794L161.082 308H164.49L170.802 290.984H167.298L162.858 303.632ZM182.106 308H185.706L179.226 290.984H175.386L168.858 308H172.362L173.778 304.112H180.69L182.106 308ZM177.234 294.656L179.586 301.088H174.882L177.234 294.656Z" fill="#003A6F"/>
<path fill-rule="evenodd" clip-rule="evenodd" d="M50 295C50 299.6 44.73 307.69 43 310C43 310 41.5 312 41 312C40.5 312 39 310 39 310C37.27 307.69 32 299.6 32 295C32 290.029 36.0294 286 41 286C45.9706 286 50 290.029 50 295ZM41 291C38.7909 291 37 292.791 37 295C37 297.209 38.7909 299 41 299C43.2091 299 45 297.209 45 295C45 292.791 43.2091 291 41 291Z" fill="#003A6F"/>
<path fill-rule="evenodd" clip-rule="evenodd" d="M72.4894 65.8292C70.0679 67.5242 67.2075 69.2981 64.1342 71.164L64.0144 71.2297C63.9745 71.256 63.9612 71.3085 63.9878 71.3611C64.0144 71.4005 64.0676 71.4136 64.1209 71.3874L64.2273 71.3348C66.835 69.9945 69.8418 68.3915 72.8486 66.749C72.8619 66.7358 72.8752 66.7358 72.9018 66.7227C72.7288 66.4468 72.5825 66.1445 72.4894 65.8292ZM88.3483 53.1492C84.5432 48.997 60.0497 52.7287 49.6323 54.9756L49.3928 55.0282C49.3396 55.0413 49.313 55.0807 49.313 55.1333C49.3263 55.1859 49.3662 55.2121 49.4194 55.2121L49.6589 55.1596C58.2802 53.6485 76.2279 51.5461 80.0995 55.3304C81.2836 56.4867 80.9909 57.9715 79.6339 59.7191C80.3656 60.1922 80.8978 60.928 81.1373 61.8478C86.459 58.3394 90.0379 55.0019 88.3483 53.1492Z" fill="#A12830"/>
<path fill-rule="evenodd" clip-rule="evenodd" d="M74.0328 64.739C74.086 66.1975 75.0174 67.3933 76.2414 67.3933C78.6096 67.3933 79.6074 64.5288 79.5409 62.6103C79.4877 61.1518 78.5297 59.9561 77.319 59.9561C75.2701 59.9561 73.9663 62.8074 74.0328 64.739ZM72.7822 64.6602C72.6891 62.1636 74.6714 59.6276 77.5452 59.6276C79.461 59.6276 80.725 60.889 80.7915 62.8206C80.8846 65.4486 79.0353 67.8532 76.0285 67.8532C74.1127 67.8532 72.8487 66.5917 72.7822 64.6602ZM45.6012 64.0032C45.4948 64.0426 45.3617 64.082 45.2021 64.1083C45.0424 64.1477 44.7364 64.2003 44.3107 64.266C44.018 64.3185 43.8051 64.3711 43.6854 64.4631C43.5656 64.5419 43.4991 64.647 43.4858 64.7653C43.4592 64.8967 43.4991 65.0018 43.6188 65.0807C43.7386 65.1595 43.9248 65.1989 44.1909 65.1989C44.3905 65.1989 44.5901 65.1726 44.7896 65.1069C44.9892 65.0412 45.1488 64.9624 45.2819 64.8573C45.375 64.7784 45.4415 64.6733 45.4948 64.5551C45.5081 64.4631 45.548 64.2791 45.6012 64.0032ZM48.1024 62.4658C48.0891 62.6892 48.0492 62.8994 47.996 63.2411L47.5703 65.58C47.5303 65.7902 47.6102 65.9479 47.8097 66.0661L47.7964 66.1581H45.375L45.3484 65.5668C45.0025 65.7771 44.5768 65.9479 44.1909 66.053C43.8051 66.145 43.4991 66.1975 43.0334 66.1975C42.2485 66.1975 41.8094 66.1187 41.5034 65.8559C41.1841 65.58 41.0378 65.396 41.0511 65.015C41.0644 64.7916 41.1708 64.5156 41.3438 64.3185C41.5167 64.1214 41.7429 63.99 41.9824 63.8718C42.2352 63.7535 42.5279 63.6747 42.9536 63.609C43.3793 63.5433 43.9781 63.4776 44.7763 63.4119C45.1888 63.3725 45.4548 63.2805 45.5746 63.2411C45.7475 63.1754 45.8008 63.1097 45.8274 62.9783C45.8673 62.7417 45.8008 62.5972 45.4681 62.5315C44.6034 62.3607 42.9669 62.6366 42.1287 62.8469L42.5811 61.6249C43.6854 61.4672 44.7364 61.3621 45.8274 61.3621C47.5569 61.3489 48.1157 61.8351 48.1024 62.4658ZM55.1006 66.1581L55.9388 61.4803H58.2537L57.4156 66.1581H55.1006ZM56.0718 60.4028C56.1383 60.0218 56.7503 59.7064 57.4422 59.7064C58.134 59.7064 58.6263 60.0218 58.5597 60.4028C58.4932 60.7839 57.8679 61.0993 57.1894 61.0993C56.4975 61.0993 55.992 60.7839 56.0718 60.4028ZM66.4759 64.0163C66.3695 64.0557 66.2364 64.0952 66.0768 64.1214C65.9171 64.1609 65.6111 64.2134 65.1721 64.2791C64.8794 64.3317 64.6665 64.3842 64.5467 64.4762C64.4403 64.5551 64.3738 64.6602 64.3472 64.7784C64.3206 64.9098 64.3738 65.015 64.4802 65.0938C64.6 65.1726 64.7862 65.212 65.0656 65.212C65.2652 65.212 65.4648 65.1858 65.6643 65.1201C65.8639 65.0544 66.0235 64.9755 66.1566 64.8704C66.2497 64.7916 66.3162 64.6865 66.3562 64.5682C66.3828 64.4762 66.4227 64.2923 66.4759 64.0163ZM68.9638 62.479C68.9505 62.7023 68.9106 62.9126 68.8441 63.2542L68.4316 65.5931C68.3917 65.8033 68.4716 65.961 68.6711 66.0793L68.6578 66.1581H66.2364L66.2231 65.5668C65.8639 65.7771 65.4381 65.9479 65.0656 66.053C64.6798 66.1581 64.3738 66.1975 63.9081 66.1975C63.1232 66.1975 62.6841 66.1187 62.3781 65.8559C62.0588 65.58 61.9125 65.396 61.9258 65.015C61.9391 64.7916 62.0455 64.5156 62.2185 64.3185C62.3914 64.1214 62.6176 63.99 62.8571 63.8718C63.1099 63.7535 63.4026 63.6747 63.8283 63.5958C64.254 63.5301 64.8528 63.4644 65.651 63.3987C66.0635 63.3593 66.3162 63.2673 66.436 63.2279C66.6089 63.1622 66.6755 63.0965 66.7021 62.952C66.742 62.7155 66.6622 62.5709 66.3428 62.5052C65.4648 62.3344 63.8416 62.6103 63.0034 62.8206L63.4558 61.5986C64.5734 61.4409 65.5978 61.3358 66.7021 61.3358C68.4183 61.3621 68.9771 61.8482 68.9638 62.479ZM40.7318 64.4762C39.9734 64.6208 39.561 64.6865 38.8159 64.6865C37.7116 64.6865 36.8336 64.1477 36.8735 63.1491C36.9134 62.4921 37.6983 61.0861 39.7206 61.0861C40.3592 61.0861 40.8515 61.1912 41.5167 61.5723L41.8094 59.9561C40.9047 59.6145 40.306 59.5619 39.5211 59.575C36.8735 59.6013 34.3323 60.7839 34.0263 63.2016C33.707 65.6588 36.7404 66.2764 38.0842 66.2632C38.8558 66.2632 39.6674 66.2238 40.4258 66.1581L40.7318 64.4762ZM59.531 61.454L59.6906 60.508L62.112 59.9824L61.8592 61.454H63.0433L62.8172 62.4001H61.673L60.9812 66.1581C60.9812 66.1581 58.6529 66.145 58.6396 66.1581L59.3314 62.4133H58.4533L58.6263 61.4672H59.531V61.454ZM71.3187 66.1581H68.9505L70.1346 59.6407L72.4363 59.7064L71.3187 66.1581ZM52.0406 62.5841C51.7346 62.5841 51.4685 62.676 51.2157 62.86C50.9762 63.044 50.8165 63.3068 50.7633 63.6615C50.6968 64.0689 50.7367 64.358 50.8964 64.5419C51.056 64.7259 51.2955 64.8179 51.6148 64.8179C51.8277 64.8179 52.0406 64.7784 52.2002 64.6996C52.3998 64.5945 52.5328 64.4894 52.6526 64.3185C52.7856 64.1346 52.8654 63.9375 52.9053 63.701C52.9719 63.333 52.9186 63.0571 52.7457 62.8731C52.5727 62.676 52.3466 62.5841 52.0406 62.5841ZM47.823 67.7743L48.9539 61.5066H50.9895L50.8298 62.3081C51.0028 62.0716 51.2822 61.8745 51.6813 61.7168C52.0672 61.5592 52.5195 61.4409 52.9985 61.4409C53.5307 61.4409 53.85 61.4672 54.2491 61.6774C54.6482 61.8877 54.9143 62.1767 55.074 62.5709C55.2203 62.952 55.2602 63.3725 55.1804 63.8455C55.0474 64.6208 54.6615 65.2252 54.0362 65.6719C53.4109 66.1187 52.8521 66.237 52.0672 66.237C51.7878 66.237 51.5483 66.2107 51.3487 66.1581C51.1625 66.1056 51.0028 66.053 50.8831 65.9742C50.7766 65.8953 50.6569 65.8033 50.4972 65.6325L50.1247 67.7743H47.823ZM89.8385 63.1622C89.8252 62.7812 89.639 62.5315 89.2398 62.5315C88.2952 62.5315 87.2841 64.3711 87.1111 65.1069C88.6544 65.1069 89.8651 64.1871 89.8385 63.1622ZM90.0381 66.0399L90.2244 66.1581C89.7587 67.0911 88.8141 67.84 87.7098 67.84C86.8051 67.84 86.0601 67.2487 86.0201 66.1318C85.9536 64.1346 87.8429 62.2687 89.3995 62.2687C90.0647 62.2687 90.69 62.5578 90.7166 63.2673C90.7698 64.8573 88.5081 65.3434 87.018 65.3829C86.9648 65.5537 86.9515 65.7114 86.9648 65.9742C86.9914 66.6312 87.3905 67.1962 88.2287 67.1962C88.9471 67.1699 89.6656 66.6049 90.0381 66.0399Z" fill="#003A6F"/>
<path fill-rule="evenodd" clip-rule="evenodd" d="M80.7518 63.11C80.9115 63.0838 81.1776 63.0575 81.284 63.0575C81.457 63.0575 81.6166 63.0838 81.6166 63.2546C81.6166 63.3597 81.4436 64.0693 81.4037 64.2269L81.0445 65.8037C80.8982 66.4476 80.7385 67.1177 80.6055 67.6564H81.5368L82.0557 65.173C83.6522 63.5437 84.2642 63.0049 84.6367 63.0049C84.8097 63.0049 84.9161 63.0969 84.9294 63.294C84.9427 63.5831 84.7565 64.2401 84.6899 64.424L84.1578 66.2373C84.038 66.6447 83.9449 67.0126 83.9582 67.2754C83.9715 67.6696 84.2243 67.8535 84.5835 67.8535C85.262 67.8535 85.7543 67.1571 86.18 66.4739L86.0603 66.2505C85.8873 66.5264 85.4882 67.1308 85.1689 67.1308C85.0625 67.1308 84.9693 67.0651 84.9693 66.8943C84.956 66.6841 85.0492 66.3687 85.1157 66.1585L85.7011 64.0298C85.8607 63.4385 85.9406 63.0706 85.9273 62.8604C85.9139 62.4662 85.6745 62.2822 85.3152 62.2822C84.7032 62.2822 83.8917 62.7158 82.1754 64.6737H82.1488L82.3617 63.7276C82.4814 63.202 82.5878 62.6633 82.7076 62.2954C82.1089 62.5056 81.2707 62.7421 80.7385 62.8472L80.7518 63.11Z" fill="#003A6F"/>
<path fill-rule="evenodd" clip-rule="evenodd" d="M105.219 58.0791L108.252 61.1115L111.284 58.0791L111.574 58.3696L108.542 61.402L111.574 64.4344L111.284 64.7249L108.252 61.6925L105.219 64.7249L104.929 64.4344L107.961 61.402L104.929 58.3696L105.219 58.0791Z" fill="#003A6F" stroke="#003A6F" stroke-width="1.02138" stroke-linejoin="round"/>
<path fill-rule="evenodd" clip-rule="evenodd" d="M146.919 60.916L154.296 73.3996H139.542L146.919 60.916Z" fill="#A12830"/>
<path fill-rule="evenodd" clip-rule="evenodd" d="M125.924 73.3997H132.529L140.727 59.7537L143.759 64.5682L146.919 59.7537L140.727 49L125.924 73.3997Z" fill="#003A6F"/>
<path d="M61.12 133.6L61.92 126.92L61.6 126.8C59.16 132.32 56.2 135.8 50.32 135.8C42.64 135.8 39.16 129.6 39.16 121.32C39.16 113.12 42.76 106.92 50.8 106.92C55.32 106.92 58.24 109.04 61.44 114.24L61.76 114.16L60.96 108.08C58.96 107.24 55.16 106.12 51.12 106.12C41.68 106.12 35.4 112.8 35.4 121.32C35.4 129.88 41.04 136.6 50.24 136.6C55.44 136.6 59.96 134.44 61.12 133.6ZM71.3628 134.84C69.1228 134.84 68.0828 133.64 68.0828 131.92C68.0828 128.72 72.0428 127.16 75.7628 126.52V133.16C74.8428 134.08 73.1628 134.84 71.3628 134.84ZM78.7228 136.48C80.8428 136.48 81.8828 134.96 82.2828 133.92L82.1628 133.84C81.5628 134.32 81.0028 134.68 80.2428 134.68C79.1228 134.68 78.6828 133.96 78.6828 132.96V121.2C78.6828 118.68 77.6828 116.36 73.3628 116.36C70.1628 116.36 67.5628 117.72 65.9628 119.64L66.1628 119.88C67.7228 118.72 69.7628 118.12 71.6428 118.12C74.8428 118.12 75.7628 119.8 75.7628 121.92V125.92C71.3628 126.44 65.2428 128.44 65.2428 132.84C65.2428 135.28 67.1228 136.6 69.7228 136.6C72.2828 136.6 74.4428 135.32 75.7628 133.84C75.9228 135.32 76.8428 136.48 78.7228 136.48ZM92.9325 135.88C90.8125 135.88 88.8125 134.76 87.7325 132.16V120.6C88.6525 119.44 90.4925 118.28 92.8925 118.28C96.5725 118.28 99.3725 121.04 99.3725 126.68C99.3725 132.32 96.7725 135.88 92.9325 135.88ZM83.9325 145H88.6125V144.92C87.8125 143.16 87.7325 141.56 87.7325 138.84V135.4C88.8925 136.08 90.4525 136.6 92.6525 136.6C99.3325 136.6 102.573 131.64 102.573 126.08C102.573 120.32 99.2525 116.36 94.4925 116.36C91.6125 116.36 89.2525 117.72 87.8525 119.76L87.5725 119.72V116.16L83.0525 118.28V118.36C83.9725 119.16 84.8125 120.32 84.8125 122.36V138.88C84.8125 141.6 84.6925 143.2 83.9325 144.92V145ZM109.85 109.64C109.85 108.56 108.97 107.64 107.89 107.64C106.81 107.64 105.89 108.56 105.89 109.64C105.89 110.76 106.81 111.64 107.89 111.64C108.97 111.64 109.85 110.76 109.85 109.64ZM105.69 135.92V136H110.37V135.92C109.57 134.16 109.49 132.56 109.49 129.8V116.16L104.81 118.28V118.44C105.73 119.24 106.57 120.44 106.57 122.4V129.84C106.57 132.6 106.33 134.16 105.69 135.92ZM119.486 136.6C121.726 136.6 123.366 135.48 124.166 134.4L124.086 134.24C123.646 134.52 122.486 135 121.046 135C119.006 135 118.166 133.96 118.166 132V117.68H123.766V116.96H118.166V113.32H117.966L113.086 117.52V117.68H115.246V132C115.246 135.6 117.366 136.6 119.486 136.6ZM132.261 134.84C130.021 134.84 128.981 133.64 128.981 131.92C128.981 128.72 132.941 127.16 136.661 126.52V133.16C135.741 134.08 134.061 134.84 132.261 134.84ZM139.621 136.48C141.741 136.48 142.781 134.96 143.181 133.92L143.061 133.84C142.461 134.32 141.901 134.68 141.141 134.68C140.021 134.68 139.581 133.96 139.581 132.96V121.2C139.581 118.68 138.581 116.36 134.261 116.36C131.061 116.36 128.461 117.72 126.861 119.64L127.061 119.88C128.621 118.72 130.661 118.12 132.541 118.12C135.741 118.12 136.661 119.8 136.661 121.92V125.92C132.261 126.44 126.141 128.44 126.141 132.84C126.141 135.28 128.021 136.6 130.621 136.6C133.181 136.6 135.341 135.32 136.661 133.84C136.821 135.32 137.741 136.48 139.621 136.48ZM144.751 135.92V136H149.431V135.92C148.671 134.68 148.551 133.36 148.551 130.84V104.84L143.831 106.76V106.84C144.751 107.6 145.631 108.64 145.631 110.52V130.88C145.631 133.4 145.391 134.68 144.751 135.92ZM173.911 136.6C181.911 136.6 188.791 129.92 188.791 121.4C188.791 112.84 181.911 106.12 173.911 106.12C166.031 106.12 159.111 112.84 159.111 121.4C159.111 129.92 166.031 136.6 173.911 136.6ZM173.911 135.8C166.751 135.8 162.871 129.6 162.871 121.4C162.871 113.16 166.751 106.92 173.911 106.92C181.111 106.92 185.031 113.16 185.031 121.4C185.031 129.72 181.111 135.8 173.911 135.8ZM197.167 136V135.92C196.367 134.16 196.287 132.56 196.287 129.8V120.68C197.847 119.08 199.847 118.32 201.727 118.32C204.767 118.32 205.847 120.4 205.847 122.84V129.84C205.847 132.52 205.727 134.16 204.967 135.92V136H209.647V135.92C208.807 134.2 208.767 132.64 208.767 129.8V122.2C208.767 118.56 206.807 116.36 203.127 116.36C200.447 116.36 198.167 117.68 196.287 119.92L196.127 119.88V116.16L191.607 118.28V118.36C192.527 119.16 193.367 120.32 193.367 122.36V129.84C193.367 132.6 193.247 134.2 192.487 135.92V136H197.167ZM229.378 131.16L229.178 131.04C227.778 133.08 225.458 134.04 223.018 134.04C218.498 134.04 215.938 130.84 215.938 125.44V124.76C215.938 124.52 215.938 124.28 215.978 124.08H229.298C229.618 120.36 226.618 116.36 221.978 116.36C217.338 116.36 212.898 120.44 212.898 126.8C212.898 132.56 216.418 136.6 221.698 136.6C225.658 136.6 228.378 134.32 229.378 131.16ZM221.818 117.08C224.578 117.08 226.058 118.92 226.058 122.92V123.24L216.058 123.44C216.578 119.6 218.618 117.08 221.818 117.08ZM45.44 150.68L50.32 164.16H40.48L45.44 150.68ZM38.96 176V175.92C38.08 174.84 37.2 173 38.52 169.44L40.16 164.96H50.6L52.6 170.44C53.6 173.16 53.36 175 52.76 175.92V176H59.12V175.92C57.76 174.76 57.2 173.8 56.04 170.6L47.08 146.36H46.12L37.28 170.2C36.2 173 35.8 174.2 34.08 175.92V176H38.96ZM69.9247 175.88C67.8047 175.88 65.8047 174.76 64.7247 172.16V160.6C65.6447 159.44 67.4847 158.28 69.8847 158.28C73.5647 158.28 76.3647 161.04 76.3647 166.68C76.3647 172.32 73.7647 175.88 69.9247 175.88ZM60.9247 185H65.6047V184.92C64.8047 183.16 64.7247 181.56 64.7247 178.84V175.4C65.8847 176.08 67.4447 176.6 69.6447 176.6C76.3247 176.6 79.5647 171.64 79.5647 166.08C79.5647 160.32 76.2447 156.36 71.4847 156.36C68.6047 156.36 66.2447 157.72 64.8447 159.76L64.5647 159.72V156.16L60.0447 158.28V158.36C60.9647 159.16 61.8047 160.32 61.8047 162.36V178.88C61.8047 181.6 61.6847 183.2 60.9247 184.92V185ZM98.7531 171.16L98.5531 171.04C97.1531 173.08 94.8331 174.04 92.3931 174.04C87.8731 174.04 85.3131 170.84 85.3131 165.44V164.76C85.3131 164.52 85.3131 164.28 85.3531 164.08H98.6731C98.9931 160.36 95.9931 156.36 91.3531 156.36C86.7131 156.36 82.2731 160.44 82.2731 166.8C82.2731 172.56 85.7931 176.6 91.0731 176.6C95.0331 176.6 97.7531 174.32 98.7531 171.16ZM91.1931 157.08C93.9531 157.08 95.4331 158.92 95.4331 162.92V163.24L85.4331 163.44C85.9531 159.6 87.9931 157.08 91.1931 157.08ZM103.951 176V175.92C103.311 174.96 103.111 173.64 104.591 171.56L107.351 167.52L110.231 172.16C111.391 173.96 111.951 174.88 111.111 175.92V176H116.911V175.92C115.831 175.12 114.631 173.76 113.351 171.64L109.591 165.68L112.631 161.08C114.031 159.04 114.831 158.32 116.511 157.04V156.96H112.111V157.04C112.751 157.88 112.991 159.24 111.551 161.44L109.191 165L106.551 160.8C105.431 158.92 104.951 157.96 105.791 157.04V156.96H99.9506V157.04C101.031 157.8 102.191 159.24 103.471 161.32L106.951 166.88L103.511 171.88C102.111 173.92 101.271 174.68 99.5906 175.92V176H103.951Z" fill="#003A6F"/>
<defs>
<linearGradient id="paint0_linear" x1="0" y1="0" x2="450.336" y2="218.992" gradientUnits="userSpaceOnUse">
<stop stop-color="white"/>
<stop offset="1" stop-color="#F4F0F3"/>
</linearGradient>
</defs>
</svg>
