<svg width="360" height="400" viewBox="0 0 360 400" fill="none" xmlns="http://www.w3.org/2000/svg">
<rect width="360" height="400" rx="20" fill="url(#paint0_linear)"/>
<path fill-rule="evenodd" clip-rule="evenodd" d="M49.5984 50.8L51.912 44.6289L54.0998 50.8H55.747L58.4 42H56.6648L54.8165 48.3933L52.6035 42H51.2582L48.9446 48.2822L47.3603 42H45.6L47.9387 50.8H49.5984ZM39.5127 49.5796L42.3102 55.6612L41.1416 56.8349L33.1831 52.1492L34.4225 50.9044L40.0439 54.3098L37.1668 48.1481L38.114 47.1967L44.2578 50.2375L40.9734 44.3248L42.1951 43.0978L46.6391 51.3134L45.4794 52.4781L39.5127 49.5796ZM39.5127 74.2912L42.3102 68.2095L41.1416 67.0359L33.1831 71.7216L34.4225 72.9664L40.0439 69.561L37.1668 75.7227L38.114 76.674L44.2578 73.6332L40.9734 79.5459L42.1951 80.7729L46.6391 72.5574L45.4794 71.3926L39.5127 74.2912ZM51.912 79.3711L49.5984 73.2H47.9387L45.6 82H47.3603L48.9446 75.7178L51.2582 82H52.6035L54.8165 75.6067L56.6648 82H58.4L55.747 73.2H54.0998L51.912 79.3711ZM40.8 64.4016L34.6289 62.088L40.8 59.9002V58.253L32 55.6V57.3352L38.3933 59.1835L32 61.3965V62.7418L38.2822 65.0554L32 66.6397V68.4L40.8 66.0613V64.4016ZM64.4873 49.5796L61.6898 55.6612L62.8584 56.8349L70.8169 52.1492L69.5775 50.9044L63.9561 54.3098L66.8332 48.1481L65.886 47.1967L59.7422 50.2375L63.0266 44.3248L61.8049 43.0978L57.3609 51.3134L58.5206 52.4781L64.4873 49.5796ZM61.6898 68.2095L64.4873 74.2912L58.5206 71.3926L57.3609 72.5574L61.8049 80.7729L63.0266 79.5459L59.7422 73.6332L65.886 76.674L66.8332 75.7227L63.9561 69.561L69.5775 72.9664L70.8169 71.7216L62.8584 67.0359L61.6898 68.2095ZM69.3711 62.088L63.2 64.4016V66.0613L72 68.4V66.6397L65.7178 65.0554L72 62.7418V61.3965L65.6067 59.1835L72 57.3352V55.6L63.2 58.253V59.9002L69.3711 62.088Z" fill="white"/>
<path d="M48.2 136.6C56.2 136.6 63.08 129.92 63.08 121.4C63.08 112.84 56.2 106.12 48.2 106.12C40.32 106.12 33.4 112.84 33.4 121.4C33.4 129.92 40.32 136.6 48.2 136.6ZM48.2 135.8C41.04 135.8 37.16 129.6 37.16 121.4C37.16 113.16 41.04 106.92 48.2 106.92C55.4 106.92 59.32 113.16 59.32 121.4C59.32 129.72 55.4 135.8 48.2 135.8ZM71.8609 136.6C74.1009 136.6 75.7409 135.48 76.5409 134.4L76.4609 134.24C76.0209 134.52 74.8609 135 73.4209 135C71.3809 135 70.5409 133.96 70.5409 132V117.68H76.1409V116.96H70.5409V113.32H70.3409L65.4609 117.52V117.68H67.6209V132C67.6209 135.6 69.7409 136.6 71.8609 136.6ZM78.8056 136H83.5256V135.92C82.6856 134.16 82.6056 132.56 82.6056 129.84V120.68C84.1656 119.08 86.1656 118.32 88.0856 118.32C91.0856 118.32 92.1656 120.4 92.1656 122.84V129.84C92.1656 132.52 92.0456 134.16 91.2856 135.92V136H95.9656V135.92C95.1256 134.24 95.0856 132.64 95.0856 129.84V122.2C95.0856 118.56 93.1656 116.36 89.4856 116.36C86.7656 116.36 84.5256 117.68 82.6056 119.92V104.84L77.9256 106.72V106.8C78.8456 107.6 79.6856 108.76 79.6856 110.8V129.84C79.6856 132.6 79.5656 134.2 78.8056 135.92V136ZM115.738 131.16L115.538 131.04C114.138 133.08 111.818 134.04 109.378 134.04C104.858 134.04 102.298 130.84 102.298 125.44V124.76C102.298 124.52 102.298 124.28 102.338 124.08H115.658C115.978 120.36 112.978 116.36 108.338 116.36C103.698 116.36 99.2575 120.44 99.2575 126.8C99.2575 132.56 102.778 136.6 108.058 136.6C112.018 136.6 114.738 134.32 115.738 131.16ZM108.178 117.08C110.938 117.08 112.418 118.92 112.418 122.92V123.24L102.418 123.44C102.938 119.6 104.978 117.08 108.178 117.08ZM119.081 135.92V136H123.761V135.92C122.961 134.16 122.881 132.56 122.881 129.8V121.92C123.961 120.52 125.281 119.44 125.961 119.44C126.881 119.44 128.521 119.88 129.161 120.32H129.281L129.321 116.36C126.601 116.36 124.641 119.12 122.921 121.04L122.721 121V116.16L118.201 118.28V118.36C119.121 119.16 119.961 120.32 119.961 122.36V129.84C119.961 132.6 119.841 134.2 119.081 135.92ZM163.69 133.6L164.49 126.92L164.17 126.8C161.73 132.32 158.77 135.8 152.89 135.8C145.21 135.8 141.73 129.6 141.73 121.32C141.73 113.12 145.33 106.92 153.37 106.92C157.89 106.92 160.81 109.04 164.01 114.24L164.33 114.16L163.53 108.08C161.53 107.24 157.73 106.12 153.69 106.12C144.25 106.12 137.97 112.8 137.97 121.32C137.97 129.88 143.61 136.6 152.81 136.6C158.01 136.6 162.53 134.44 163.69 133.6ZM173.933 134.84C171.693 134.84 170.653 133.64 170.653 131.92C170.653 128.72 174.613 127.16 178.333 126.52V133.16C177.413 134.08 175.733 134.84 173.933 134.84ZM181.293 136.48C183.413 136.48 184.453 134.96 184.853 133.92L184.733 133.84C184.133 134.32 183.573 134.68 182.813 134.68C181.693 134.68 181.253 133.96 181.253 132.96V121.2C181.253 118.68 180.253 116.36 175.933 116.36C172.733 116.36 170.133 117.72 168.533 119.64L168.733 119.88C170.293 118.72 172.333 118.12 174.213 118.12C177.413 118.12 178.333 119.8 178.333 121.92V125.92C173.933 126.44 167.813 128.44 167.813 132.84C167.813 135.28 169.693 136.6 172.293 136.6C174.853 136.6 177.013 135.32 178.333 133.84C178.493 135.32 179.413 136.48 181.293 136.48ZM198.719 121.04L198.319 117.12C197.239 116.68 195.439 116.36 193.679 116.36C190.319 116.36 186.919 117.68 186.919 121.56C186.919 125.28 190.079 126.6 192.719 127.64C195.399 128.72 197.399 129.68 197.399 132.08C197.399 134.04 196.039 135.88 193.119 135.88C190.399 135.88 188.519 134.36 186.879 130.84L186.599 130.92L186.999 135.48C188.399 136.08 190.199 136.6 192.559 136.6C196.999 136.6 199.799 134.68 199.799 131C199.799 127.12 196.879 125.88 194.119 124.72C191.359 123.68 188.999 122.72 188.999 120.36C188.999 118.44 190.479 117.08 192.839 117.08C194.759 117.08 196.679 117.96 198.439 121.12L198.719 121.04ZM218.784 131.16L218.584 131.04C217.184 133.08 214.864 134.04 212.424 134.04C207.904 134.04 205.344 130.84 205.344 125.44V124.76C205.344 124.52 205.344 124.28 205.384 124.08H218.704C219.024 120.36 216.024 116.36 211.384 116.36C206.744 116.36 202.304 120.44 202.304 126.8C202.304 132.56 205.824 136.6 211.104 136.6C215.064 136.6 217.784 134.32 218.784 131.16ZM211.224 117.08C213.984 117.08 215.464 118.92 215.464 122.92V123.24L205.464 123.44C205.984 119.6 208.024 117.08 211.224 117.08ZM50.4 153.64L49.6 147.32C47.84 146.64 45.52 146.12 43.12 146.12C38.16 146.12 34.2 148.36 34.2 153.36C34.2 158.52 38.4 160.24 42.44 162.16C46.08 163.76 49.4 165.52 49.4 169.88C49.4 173.28 47.36 175.8 43.08 175.8C38.92 175.8 36.12 173.6 33.72 168.48L33.4 168.6L34.2 175.08C36.6 176 39.4 176.6 42.12 176.6C47.6 176.6 52.4 174.28 52.4 168.4C52.4 163 48.24 160.92 44.2 159.12C40.36 157.4 36.76 155.92 36.76 151.88C36.76 149.16 38.48 146.92 42.16 146.92C45.16 146.92 47.92 148.48 50.08 153.76L50.4 153.64ZM60.6891 176.6C62.9291 176.6 64.5691 175.48 65.3691 174.4L65.2891 174.24C64.8491 174.52 63.6891 175 62.2491 175C60.2091 175 59.3691 173.96 59.3691 172V157.68H64.9691V156.96H59.3691V153.32H59.1691L54.2891 157.52V157.68H56.4491V172C56.4491 175.6 58.5691 176.6 60.6891 176.6ZM80.4197 172.36V176.48L84.9397 175.2V175.12C83.6597 174.36 83.1397 173.8 83.1397 170.48V156.96H78.4597V157.04C79.6197 157.76 80.2197 158.88 80.2197 160.4V171.72C79.2197 173.12 77.6597 174.28 75.3797 174.28C72.8197 174.28 71.5397 172.8 71.5397 169.8V156.96H66.9397V157.04C67.9397 157.72 68.6197 158.8 68.6197 160.4V170.44C68.6197 174.24 70.3797 176.6 73.8597 176.6C77.0997 176.6 78.9397 174.48 80.4197 172.36ZM96.9034 174.64C93.0234 174.64 90.6234 171.4 90.6234 166.24C90.6234 160.92 93.3834 157.08 97.3434 157.08C99.4234 157.08 101.743 158.12 102.263 161.8V171.76C101.023 173.48 99.1834 174.64 96.9034 174.64ZM102.343 172.56H102.463V176.48L106.983 175.24V175.16C105.663 174.28 105.183 173.68 105.183 169.76V144.84L100.503 146.76V146.84C101.423 147.6 102.263 148.64 102.263 150.56V157.24C101.023 156.64 99.5834 156.36 97.9034 156.36C91.3434 156.36 87.4234 161.52 87.4234 167.24C87.4234 172.84 90.5434 176.6 95.3034 176.6C98.8234 176.6 101.183 174.64 102.343 172.56ZM114.257 149.64C114.257 148.56 113.377 147.64 112.297 147.64C111.217 147.64 110.297 148.56 110.297 149.64C110.297 150.76 111.217 151.64 112.297 151.64C113.377 151.64 114.257 150.76 114.257 149.64ZM110.097 175.92V176H114.777V175.92C113.977 174.16 113.897 172.56 113.897 169.8V156.16L109.217 158.28V158.44C110.137 159.24 110.977 160.44 110.977 162.4V169.84C110.977 172.6 110.737 174.16 110.097 175.92ZM134.292 171.16L134.092 171.04C132.692 173.08 130.372 174.04 127.932 174.04C123.412 174.04 120.852 170.84 120.852 165.44V164.76C120.852 164.52 120.852 164.28 120.892 164.08H134.212C134.532 160.36 131.532 156.36 126.892 156.36C122.252 156.36 117.812 160.44 117.812 166.8C117.812 172.56 121.332 176.6 126.612 176.6C130.572 176.6 133.292 174.32 134.292 171.16ZM126.732 157.08C129.492 157.08 130.972 158.92 130.972 162.92V163.24L120.972 163.44C121.492 159.6 123.532 157.08 126.732 157.08ZM149.071 161.04L148.671 157.12C147.591 156.68 145.791 156.36 144.031 156.36C140.671 156.36 137.271 157.68 137.271 161.56C137.271 165.28 140.431 166.6 143.071 167.64C145.751 168.72 147.751 169.68 147.751 172.08C147.751 174.04 146.391 175.88 143.471 175.88C140.751 175.88 138.871 174.36 137.231 170.84L136.951 170.92L137.351 175.48C138.751 176.08 140.551 176.6 142.911 176.6C147.351 176.6 150.151 174.68 150.151 171C150.151 167.12 147.231 165.88 144.471 164.72C141.711 163.68 139.351 162.72 139.351 160.36C139.351 158.44 140.831 157.08 143.191 157.08C145.111 157.08 147.031 157.96 148.791 161.12L149.071 161.04Z" fill="white"/>
<path d="M37.901 240.111H35.654V242.778L33.197 241.959L32.525 244.017L35.003 244.815L33.47 246.894L35.213 248.196L36.767 246.075L38.363 248.196L40.106 246.915L38.552 244.815L41.03 244.017L40.337 241.959L37.901 242.778V240.111ZM49.9576 255.315C54.1366 255.315 56.2786 252.543 56.8456 250.254L54.1366 249.435C53.7376 250.821 52.4986 252.48 49.9576 252.48C47.5636 252.48 45.3376 250.737 45.3376 247.566C45.3376 244.185 47.6896 242.589 49.9156 242.589C52.4986 242.589 53.6536 244.164 54.0106 245.592L56.7406 244.731C56.1526 242.316 54.0316 239.796 49.9156 239.796C45.9256 239.796 42.3346 242.82 42.3346 247.566C42.3346 252.312 45.7996 255.315 49.9576 255.315ZM58.1266 252.186C58.1266 253.803 59.4706 255.294 61.6756 255.294C63.2086 255.294 64.1956 254.58 64.7206 253.761C64.7206 254.16 64.7626 254.727 64.8256 255H67.3876C67.3246 254.643 67.2616 253.908 67.2616 253.362V248.28C67.2616 246.201 66.0436 244.353 62.7676 244.353C59.9956 244.353 58.5046 246.138 58.3366 247.755L60.8146 248.28C60.8986 247.377 61.5706 246.6 62.7886 246.6C63.9646 246.6 64.5316 247.209 64.5316 247.944C64.5316 248.301 64.3426 248.595 63.7546 248.679L61.2136 249.057C59.4916 249.309 58.1266 250.338 58.1266 252.186ZM62.2636 253.215C61.3606 253.215 60.9196 252.627 60.9196 252.018C60.9196 251.22 61.4866 250.821 62.2006 250.716L64.5316 250.359V250.821C64.5316 252.648 63.4396 253.215 62.2636 253.215ZM69.1949 252.123C69.3209 253.299 70.3919 255.315 73.4999 255.315C76.2089 255.315 77.5109 253.593 77.5109 251.913C77.5109 250.401 76.4819 249.162 74.4449 248.742L72.9749 248.427C72.4079 248.322 72.0299 248.007 72.0299 247.503C72.0299 246.915 72.6179 246.474 73.3529 246.474C74.5289 246.474 74.9699 247.251 75.0539 247.86L77.3849 247.335C77.2589 246.222 76.2719 244.353 73.3319 244.353C71.1059 244.353 69.4679 245.886 69.4679 247.734C69.4679 249.183 70.3709 250.38 72.3659 250.821L73.7309 251.136C74.5289 251.304 74.8439 251.682 74.8439 252.144C74.8439 252.69 74.4029 253.173 73.4789 253.173C72.2609 253.173 71.6519 252.417 71.5889 251.598L69.1949 252.123ZM81.7526 248.658C81.8156 247.713 82.6136 246.621 84.0626 246.621C85.6586 246.621 86.3306 247.629 86.3726 248.658H81.7526ZM86.6456 251.346C86.3096 252.27 85.5956 252.921 84.2936 252.921C82.9076 252.921 81.7526 251.934 81.6896 250.569H89.0816C89.0816 250.527 89.1236 250.107 89.1236 249.708C89.1236 246.39 87.2126 244.353 84.0206 244.353C81.3746 244.353 78.9386 246.495 78.9386 249.792C78.9386 253.278 81.4376 255.315 84.2726 255.315C86.8136 255.315 88.4516 253.824 88.9766 252.039L86.6456 251.346ZM106.739 243.66C106.403 241.98 105.017 239.796 101.405 239.796C98.5905 239.796 96.2175 241.812 96.2175 244.458C96.2175 246.705 97.7505 248.238 100.124 248.721L102.203 249.141C103.358 249.372 104.009 250.044 104.009 250.905C104.009 251.955 103.148 252.732 101.594 252.732C99.4935 252.732 98.4645 251.409 98.3385 249.939L95.6505 250.653C95.8815 252.774 97.6245 255.315 101.573 255.315C105.038 255.315 106.949 253.005 106.949 250.716C106.949 248.616 105.5 246.852 102.791 246.327L100.712 245.928C99.6195 245.718 99.0945 245.067 99.0945 244.248C99.0945 243.261 100.019 242.358 101.426 242.358C103.316 242.358 103.988 243.639 104.135 244.458L106.739 243.66ZM112.732 241.581H110.212V243.03C110.212 243.954 109.708 244.668 108.616 244.668H108.091V247.146H109.96V251.955C109.96 253.95 111.22 255.147 113.236 255.147C114.055 255.147 114.559 255 114.811 254.895V252.585C114.664 252.627 114.286 252.669 113.95 252.669C113.152 252.669 112.732 252.375 112.732 251.472V247.146H114.811V244.668H112.732V241.581ZM124.007 255H126.674C126.632 254.643 126.569 253.929 126.569 253.131V244.668H123.776V250.674C123.776 251.871 123.062 252.711 121.823 252.711C120.521 252.711 119.933 251.787 119.933 250.632V244.668H117.14V251.199C117.14 253.446 118.568 255.273 121.067 255.273C122.159 255.273 123.356 254.853 123.923 253.887C123.923 254.307 123.965 254.79 124.007 255ZM139.358 239.796H136.607V245.697C136.313 245.151 135.473 244.416 133.688 244.416C130.769 244.416 128.732 246.789 128.732 249.813C128.732 252.942 130.832 255.252 133.772 255.252C135.158 255.252 136.208 254.622 136.67 253.803C136.67 254.286 136.733 254.79 136.775 255H139.442C139.4 254.58 139.358 253.824 139.358 253.131V239.796ZM131.546 249.813C131.546 247.965 132.68 246.915 134.108 246.915C135.536 246.915 136.649 247.944 136.649 249.792C136.649 251.661 135.536 252.753 134.108 252.753C132.638 252.753 131.546 251.661 131.546 249.813ZM145.18 255V244.668H142.387V255H145.18ZM142.051 241.287C142.051 242.211 142.828 242.988 143.773 242.988C144.739 242.988 145.495 242.211 145.495 241.287C145.495 240.321 144.739 239.544 143.773 239.544C142.828 239.544 142.051 240.321 142.051 241.287ZM150.208 248.658C150.271 247.713 151.069 246.621 152.518 246.621C154.114 246.621 154.786 247.629 154.828 248.658H150.208ZM155.101 251.346C154.765 252.27 154.051 252.921 152.749 252.921C151.363 252.921 150.208 251.934 150.145 250.569H157.537C157.537 250.527 157.579 250.107 157.579 249.708C157.579 246.39 155.668 244.353 152.476 244.353C149.83 244.353 147.394 246.495 147.394 249.792C147.394 253.278 149.893 255.315 152.728 255.315C155.269 255.315 156.907 253.824 157.432 252.039L155.101 251.346ZM158.896 252.123C159.022 253.299 160.093 255.315 163.201 255.315C165.91 255.315 167.212 253.593 167.212 251.913C167.212 250.401 166.183 249.162 164.146 248.742L162.676 248.427C162.109 248.322 161.731 248.007 161.731 247.503C161.731 246.915 162.319 246.474 163.054 246.474C164.23 246.474 164.671 247.251 164.755 247.86L167.086 247.335C166.96 246.222 165.973 244.353 163.033 244.353C160.807 244.353 159.169 245.886 159.169 247.734C159.169 249.183 160.072 250.38 162.067 250.821L163.432 251.136C164.23 251.304 164.545 251.682 164.545 252.144C164.545 252.69 164.104 253.173 163.18 253.173C161.962 253.173 161.353 252.417 161.29 251.598L158.896 252.123ZM177.439 249.057C177.439 247.86 178.153 246.915 179.371 246.915C180.715 246.915 181.282 247.818 181.282 248.973V255H184.075V248.49C184.075 246.222 182.899 244.395 180.337 244.395C179.224 244.395 177.985 244.878 177.355 245.949V244.668H174.646V255H177.439V249.057ZM191.551 252.774C190.186 252.774 188.926 251.766 188.926 249.834C188.926 247.881 190.186 246.894 191.551 246.894C192.916 246.894 194.176 247.881 194.176 249.834C194.176 251.787 192.916 252.774 191.551 252.774ZM191.551 244.353C188.464 244.353 186.133 246.642 186.133 249.834C186.133 253.005 188.464 255.315 191.551 255.315C194.638 255.315 196.969 253.005 196.969 249.834C196.969 246.642 194.638 244.353 191.551 244.353ZM202.577 241.581H200.057V243.03C200.057 243.954 199.553 244.668 198.461 244.668H197.936V247.146H199.805V251.955C199.805 253.95 201.065 255.147 203.081 255.147C203.9 255.147 204.404 255 204.656 254.895V252.585C204.509 252.627 204.131 252.669 203.795 252.669C202.997 252.669 202.577 252.375 202.577 251.472V247.146H204.656V244.668H202.577V241.581ZM32.861 279.186C32.861 280.803 34.205 282.294 36.41 282.294C37.943 282.294 38.93 281.58 39.455 280.761C39.455 281.16 39.497 281.727 39.56 282H42.122C42.059 281.643 41.996 280.908 41.996 280.362V275.28C41.996 273.201 40.778 271.353 37.502 271.353C34.73 271.353 33.239 273.138 33.071 274.755L35.549 275.28C35.633 274.377 36.305 273.6 37.523 273.6C38.699 273.6 39.266 274.209 39.266 274.944C39.266 275.301 39.077 275.595 38.489 275.679L35.948 276.057C34.226 276.309 32.861 277.338 32.861 279.186ZM36.998 280.215C36.095 280.215 35.654 279.627 35.654 279.018C35.654 278.22 36.221 277.821 36.935 277.716L39.266 277.359V277.821C39.266 279.648 38.174 280.215 36.998 280.215ZM54.3707 271.668H51.4307L48.9737 278.598L46.4117 271.668H43.3457L47.5667 282H50.3597L54.3707 271.668ZM55.3991 279.186C55.3991 280.803 56.7431 282.294 58.9481 282.294C60.4811 282.294 61.4681 281.58 61.9931 280.761C61.9931 281.16 62.0351 281.727 62.0981 282H64.6601C64.5971 281.643 64.5341 280.908 64.5341 280.362V275.28C64.5341 273.201 63.3161 271.353 60.0401 271.353C57.2681 271.353 55.7771 273.138 55.6091 274.755L58.0871 275.28C58.1711 274.377 58.8431 273.6 60.0611 273.6C61.2371 273.6 61.8041 274.209 61.8041 274.944C61.8041 275.301 61.6151 275.595 61.0271 275.679L58.4861 276.057C56.7641 276.309 55.3991 277.338 55.3991 279.186ZM59.5361 280.215C58.6331 280.215 58.1921 279.627 58.1921 279.018C58.1921 278.22 58.7591 277.821 59.4731 277.716L61.8041 277.359V277.821C61.8041 279.648 60.7121 280.215 59.5361 280.215ZM70.1424 282V271.668H67.3494V282H70.1424ZM67.0134 268.287C67.0134 269.211 67.7904 269.988 68.7354 269.988C69.7014 269.988 70.4574 269.211 70.4574 268.287C70.4574 267.321 69.7014 266.544 68.7354 266.544C67.7904 266.544 67.0134 267.321 67.0134 268.287ZM75.9256 282V266.796H73.1326V282H75.9256ZM78.2243 279.186C78.2243 280.803 79.5683 282.294 81.7733 282.294C83.3063 282.294 84.2933 281.58 84.8183 280.761C84.8183 281.16 84.8603 281.727 84.9233 282H87.4853C87.4223 281.643 87.3593 280.908 87.3593 280.362V275.28C87.3593 273.201 86.1413 271.353 82.8653 271.353C80.0933 271.353 78.6023 273.138 78.4343 274.755L80.9123 275.28C80.9963 274.377 81.6683 273.6 82.8863 273.6C84.0623 273.6 84.6293 274.209 84.6293 274.944C84.6293 275.301 84.4403 275.595 83.8523 275.679L81.3113 276.057C79.5893 276.309 78.2243 277.338 78.2243 279.186ZM82.3613 280.215C81.4583 280.215 81.0173 279.627 81.0173 279.018C81.0173 278.22 81.5843 277.821 82.2983 277.716L84.6293 277.359V277.821C84.6293 279.648 83.5373 280.215 82.3613 280.215ZM92.8836 282V280.74C93.4296 281.622 94.5216 282.252 95.9496 282.252C98.8896 282.252 100.822 279.921 100.822 276.792C100.822 273.726 99.0786 271.395 96.0546 271.395C94.5216 271.395 93.3876 272.067 92.9256 272.802V266.796H90.1746V282H92.8836ZM98.0286 276.813C98.0286 278.703 96.8946 279.753 95.4666 279.753C94.0596 279.753 92.8836 278.682 92.8836 276.813C92.8836 274.923 94.0596 273.894 95.4666 273.894C96.8946 273.894 98.0286 274.923 98.0286 276.813ZM105.826 282V266.796H103.033V282H105.826ZM110.853 275.658C110.916 274.713 111.714 273.621 113.163 273.621C114.759 273.621 115.431 274.629 115.473 275.658H110.853ZM115.746 278.346C115.41 279.27 114.696 279.921 113.394 279.921C112.008 279.921 110.853 278.934 110.79 277.569H118.182C118.182 277.527 118.224 277.107 118.224 276.708C118.224 273.39 116.313 271.353 113.121 271.353C110.475 271.353 108.039 273.495 108.039 276.792C108.039 280.278 110.538 282.315 113.373 282.315C115.914 282.315 117.552 280.824 118.077 279.039L115.746 278.346ZM128.405 275.931C128.468 274.797 129.161 273.915 130.337 273.915C131.681 273.915 132.248 274.818 132.248 275.973V282H135.041V275.49C135.041 273.222 133.823 271.395 131.198 271.395C130.211 271.395 129.077 271.731 128.405 272.529V266.796H125.612V282H128.405V275.931ZM139.913 275.658C139.976 274.713 140.774 273.621 142.223 273.621C143.819 273.621 144.491 274.629 144.533 275.658H139.913ZM144.806 278.346C144.47 279.27 143.756 279.921 142.454 279.921C141.068 279.921 139.913 278.934 139.85 277.569H147.242C147.242 277.527 147.284 277.107 147.284 276.708C147.284 273.39 145.373 271.353 142.181 271.353C139.535 271.353 137.099 273.495 137.099 276.792C137.099 280.278 139.598 282.315 142.433 282.315C144.974 282.315 146.612 280.824 147.137 279.039L144.806 278.346ZM155.783 271.626C155.573 271.605 155.363 271.584 155.132 271.584C154.25 271.584 152.822 271.836 152.192 273.201V271.668H149.483V282H152.276V277.275C152.276 275.049 153.515 274.356 154.943 274.356C155.195 274.356 155.468 274.377 155.783 274.44V271.626ZM159.682 275.658C159.745 274.713 160.543 273.621 161.992 273.621C163.588 273.621 164.26 274.629 164.302 275.658H159.682ZM164.575 278.346C164.239 279.27 163.525 279.921 162.223 279.921C160.837 279.921 159.682 278.934 159.619 277.569H167.011C167.011 277.527 167.053 277.107 167.053 276.708C167.053 273.39 165.142 271.353 161.95 271.353C159.304 271.353 156.868 273.495 156.868 276.792C156.868 280.278 159.367 282.315 162.202 282.315C164.743 282.315 166.381 280.824 166.906 279.039L164.575 278.346ZM168.797 280.32C168.797 281.328 169.511 282.063 170.54 282.063C170.771 282.063 171.002 282 171.086 281.937C171.044 283.092 170.036 283.995 169.091 284.205V285.549C170.645 285.36 172.787 284.058 172.787 280.971C172.787 279.606 172.01 278.556 170.708 278.556C169.616 278.556 168.797 279.312 168.797 280.32ZM183.53 285.99V280.992C184.034 281.685 185.084 282.252 186.512 282.252C189.431 282.252 191.384 279.942 191.384 276.813C191.384 273.747 189.641 271.437 186.617 271.437C185.063 271.437 183.908 272.13 183.446 272.928V271.668H180.737V285.99H183.53ZM188.633 276.834C188.633 278.682 187.499 279.753 186.071 279.753C184.643 279.753 183.488 278.661 183.488 276.834C183.488 275.007 184.643 273.936 186.071 273.936C187.499 273.936 188.633 275.007 188.633 276.834ZM196.388 282V266.796H193.595V282H196.388ZM201.416 275.658C201.479 274.713 202.277 273.621 203.726 273.621C205.322 273.621 205.994 274.629 206.036 275.658H201.416ZM206.309 278.346C205.973 279.27 205.259 279.921 203.957 279.921C202.571 279.921 201.416 278.934 201.353 277.569H208.745C208.745 277.527 208.787 277.107 208.787 276.708C208.787 273.39 206.876 271.353 203.684 271.353C201.038 271.353 198.602 273.495 198.602 276.792C198.602 280.278 201.101 282.315 203.936 282.315C206.477 282.315 208.115 280.824 208.64 279.039L206.309 278.346ZM210.356 279.186C210.356 280.803 211.7 282.294 213.905 282.294C215.438 282.294 216.425 281.58 216.95 280.761C216.95 281.16 216.992 281.727 217.055 282H219.617C219.554 281.643 219.491 280.908 219.491 280.362V275.28C219.491 273.201 218.273 271.353 214.997 271.353C212.225 271.353 210.734 273.138 210.566 274.755L213.044 275.28C213.128 274.377 213.8 273.6 215.018 273.6C216.194 273.6 216.761 274.209 216.761 274.944C216.761 275.301 216.572 275.595 215.984 275.679L213.443 276.057C211.721 276.309 210.356 277.338 210.356 279.186ZM214.493 280.215C213.59 280.215 213.149 279.627 213.149 279.018C213.149 278.22 213.716 277.821 214.43 277.716L216.761 277.359V277.821C216.761 279.648 215.669 280.215 214.493 280.215ZM221.424 279.123C221.55 280.299 222.621 282.315 225.729 282.315C228.438 282.315 229.74 280.593 229.74 278.913C229.74 277.401 228.711 276.162 226.674 275.742L225.204 275.427C224.637 275.322 224.259 275.007 224.259 274.503C224.259 273.915 224.847 273.474 225.582 273.474C226.758 273.474 227.199 274.251 227.283 274.86L229.614 274.335C229.488 273.222 228.501 271.353 225.561 271.353C223.335 271.353 221.697 272.886 221.697 274.734C221.697 276.183 222.6 277.38 224.595 277.821L225.96 278.136C226.758 278.304 227.073 278.682 227.073 279.144C227.073 279.69 226.632 280.173 225.708 280.173C224.49 280.173 223.881 279.417 223.818 278.598L221.424 279.123ZM233.982 275.658C234.045 274.713 234.843 273.621 236.292 273.621C237.888 273.621 238.56 274.629 238.602 275.658H233.982ZM238.875 278.346C238.539 279.27 237.825 279.921 236.523 279.921C235.137 279.921 233.982 278.934 233.919 277.569H241.311C241.311 277.527 241.353 277.107 241.353 276.708C241.353 273.39 239.442 271.353 236.25 271.353C233.604 271.353 231.168 273.495 231.168 276.792C231.168 280.278 233.667 282.315 236.502 282.315C239.043 282.315 240.681 280.824 241.206 279.039L238.875 278.346ZM35.528 302.658C35.591 301.713 36.389 300.621 37.838 300.621C39.434 300.621 40.106 301.629 40.148 302.658H35.528ZM40.421 305.346C40.085 306.27 39.371 306.921 38.069 306.921C36.683 306.921 35.528 305.934 35.465 304.569H42.857C42.857 304.527 42.899 304.107 42.899 303.708C42.899 300.39 40.988 298.353 37.796 298.353C35.15 298.353 32.714 300.495 32.714 303.792C32.714 307.278 35.213 309.315 38.048 309.315C40.589 309.315 42.227 307.824 42.752 306.039L40.421 305.346ZM47.8914 309V302.952C47.8914 301.818 48.6054 300.915 49.8234 300.915C51.0834 300.915 51.6504 301.755 51.6504 302.868V309H54.4224V302.952C54.4224 301.839 55.1364 300.915 56.3334 300.915C57.6144 300.915 58.1604 301.755 58.1604 302.868V309H60.8694V302.301C60.8694 299.529 59.0424 298.374 57.1314 298.374C55.7664 298.374 54.6744 298.836 53.8554 300.096C53.3304 298.983 52.1964 298.374 50.7894 298.374C49.6554 298.374 48.3324 298.92 47.7654 299.928V298.668H45.0984V309H47.8914ZM63.069 306.186C63.069 307.803 64.413 309.294 66.618 309.294C68.151 309.294 69.138 308.58 69.663 307.761C69.663 308.16 69.705 308.727 69.768 309H72.33C72.267 308.643 72.204 307.908 72.204 307.362V302.28C72.204 300.201 70.986 298.353 67.71 298.353C64.938 298.353 63.447 300.138 63.279 301.755L65.757 302.28C65.841 301.377 66.513 300.6 67.731 300.6C68.907 300.6 69.474 301.209 69.474 301.944C69.474 302.301 69.285 302.595 68.697 302.679L66.156 303.057C64.434 303.309 63.069 304.338 63.069 306.186ZM67.206 307.215C66.303 307.215 65.862 306.627 65.862 306.018C65.862 305.22 66.429 304.821 67.143 304.716L69.474 304.359V304.821C69.474 306.648 68.382 307.215 67.206 307.215ZM77.8123 309V298.668H75.0193V309H77.8123ZM74.6833 295.287C74.6833 296.211 75.4603 296.988 76.4053 296.988C77.3713 296.988 78.1273 296.211 78.1273 295.287C78.1273 294.321 77.3713 293.544 76.4053 293.544C75.4603 293.544 74.6833 294.321 74.6833 295.287ZM83.5955 309V293.796H80.8025V309H83.5955ZM94.5672 309V302.952C94.5672 301.818 95.2812 300.915 96.4992 300.915C97.7592 300.915 98.3262 301.755 98.3262 302.868V309H101.098V302.952C101.098 301.839 101.812 300.915 103.009 300.915C104.29 300.915 104.836 301.755 104.836 302.868V309H107.545V302.301C107.545 299.529 105.718 298.374 103.807 298.374C102.442 298.374 101.35 298.836 100.531 300.096C100.006 298.983 98.8722 298.374 97.4652 298.374C96.3312 298.374 95.0082 298.92 94.4412 299.928V298.668H91.7742V309H94.5672ZM112.412 302.658C112.475 301.713 113.273 300.621 114.722 300.621C116.318 300.621 116.99 301.629 117.032 302.658H112.412ZM117.305 305.346C116.969 306.27 116.255 306.921 114.953 306.921C113.567 306.921 112.412 305.934 112.349 304.569H119.741C119.741 304.527 119.783 304.107 119.783 303.708C119.783 300.39 117.872 298.353 114.68 298.353C112.034 298.353 109.598 300.495 109.598 303.792C109.598 307.278 112.097 309.315 114.932 309.315C117.473 309.315 119.111 307.824 119.636 306.039L117.305 305.346ZM131.959 296.106C132.421 296.106 132.694 296.169 132.841 296.211V293.859C132.61 293.754 132.043 293.649 131.455 293.649C129.166 293.649 127.696 295.161 127.696 297.492V298.668H125.974V301.062H127.696V309H130.51V301.062H132.841V298.668H130.51V297.534C130.51 296.379 131.329 296.106 131.959 296.106ZM139.071 306.774C137.706 306.774 136.446 305.766 136.446 303.834C136.446 301.881 137.706 300.894 139.071 300.894C140.436 300.894 141.696 301.881 141.696 303.834C141.696 305.787 140.436 306.774 139.071 306.774ZM139.071 298.353C135.984 298.353 133.653 300.642 133.653 303.834C133.653 307.005 135.984 309.315 139.071 309.315C142.158 309.315 144.489 307.005 144.489 303.834C144.489 300.642 142.158 298.353 139.071 298.353ZM152.994 298.626C152.784 298.605 152.574 298.584 152.343 298.584C151.461 298.584 150.033 298.836 149.403 300.201V298.668H146.694V309H149.487V304.275C149.487 302.049 150.726 301.356 152.154 301.356C152.406 301.356 152.679 301.377 152.994 301.44V298.626ZM162.879 309V298.668H160.086V309H162.879ZM159.75 295.287C159.75 296.211 160.527 296.988 161.472 296.988C162.438 296.988 163.194 296.211 163.194 295.287C163.194 294.321 162.438 293.544 161.472 293.544C160.527 293.544 159.75 294.321 159.75 295.287ZM170.657 296.106C171.119 296.106 171.392 296.169 171.539 296.211V293.859C171.308 293.754 170.741 293.649 170.153 293.649C167.864 293.649 166.394 295.161 166.394 297.492V298.668H164.672V301.062H166.394V309H169.208V301.062H171.539V298.668H169.208V297.534C169.208 296.379 170.027 296.106 170.657 296.106ZM181.336 309V298.668H178.543V309H181.336ZM178.207 295.287C178.207 296.211 178.984 296.988 179.929 296.988C180.895 296.988 181.651 296.211 181.651 295.287C181.651 294.321 180.895 293.544 179.929 293.544C178.984 293.544 178.207 294.321 178.207 295.287ZM187.119 303.057C187.119 301.86 187.833 300.915 189.051 300.915C190.395 300.915 190.962 301.818 190.962 302.973V309H193.755V302.49C193.755 300.222 192.579 298.395 190.017 298.395C188.904 298.395 187.665 298.878 187.035 299.949V298.668H184.326V309H187.119V303.057ZM200.034 295.581H197.514V297.03C197.514 297.954 197.01 298.668 195.918 298.668H195.393V301.146H197.262V305.955C197.262 307.95 198.522 309.147 200.538 309.147C201.357 309.147 201.861 309 202.113 308.895V306.585C201.966 306.627 201.588 306.669 201.252 306.669C200.454 306.669 200.034 306.375 200.034 305.472V301.146H202.113V298.668H200.034V295.581ZM206.42 302.658C206.483 301.713 207.281 300.621 208.73 300.621C210.326 300.621 210.998 301.629 211.04 302.658H206.42ZM211.313 305.346C210.977 306.27 210.263 306.921 208.961 306.921C207.575 306.921 206.42 305.934 206.357 304.569H213.749C213.749 304.527 213.791 304.107 213.791 303.708C213.791 300.39 211.88 298.353 208.688 298.353C206.042 298.353 203.606 300.495 203.606 303.792C203.606 307.278 206.105 309.315 208.94 309.315C211.481 309.315 213.119 307.824 213.644 306.039L211.313 305.346ZM222.29 298.626C222.08 298.605 221.87 298.584 221.639 298.584C220.757 298.584 219.329 298.836 218.699 300.201V298.668H215.99V309H218.783V304.275C218.783 302.049 220.022 301.356 221.45 301.356C221.702 301.356 221.975 301.377 222.29 301.44V298.626ZM226.189 302.658C226.252 301.713 227.05 300.621 228.499 300.621C230.095 300.621 230.767 301.629 230.809 302.658H226.189ZM231.082 305.346C230.746 306.27 230.032 306.921 228.73 306.921C227.344 306.921 226.189 305.934 226.126 304.569H233.518C233.518 304.527 233.56 304.107 233.56 303.708C233.56 300.39 231.649 298.353 228.457 298.353C225.811 298.353 223.375 300.495 223.375 303.792C223.375 307.278 225.874 309.315 228.709 309.315C231.25 309.315 232.888 307.824 233.413 306.039L231.082 305.346ZM234.878 306.123C235.004 307.299 236.075 309.315 239.183 309.315C241.892 309.315 243.194 307.593 243.194 305.913C243.194 304.401 242.165 303.162 240.128 302.742L238.658 302.427C238.091 302.322 237.713 302.007 237.713 301.503C237.713 300.915 238.301 300.474 239.036 300.474C240.212 300.474 240.653 301.251 240.737 301.86L243.068 301.335C242.942 300.222 241.955 298.353 239.015 298.353C236.789 298.353 235.151 299.886 235.151 301.734C235.151 303.183 236.054 304.38 238.049 304.821L239.414 305.136C240.212 305.304 240.527 305.682 240.527 306.144C240.527 306.69 240.086 307.173 239.162 307.173C237.944 307.173 237.335 306.417 237.272 305.598L234.878 306.123ZM248.883 295.581H246.363V297.03C246.363 297.954 245.859 298.668 244.767 298.668H244.242V301.146H246.111V305.955C246.111 307.95 247.371 309.147 249.387 309.147C250.206 309.147 250.71 309 250.962 308.895V306.585C250.815 306.627 250.437 306.669 250.101 306.669C249.303 306.669 248.883 306.375 248.883 305.472V301.146H250.962V298.668H248.883V295.581ZM255.269 302.658C255.332 301.713 256.13 300.621 257.579 300.621C259.175 300.621 259.847 301.629 259.889 302.658H255.269ZM260.162 305.346C259.826 306.27 259.112 306.921 257.81 306.921C256.424 306.921 255.269 305.934 255.206 304.569H262.598C262.598 304.527 262.64 304.107 262.64 303.708C262.64 300.39 260.729 298.353 257.537 298.353C254.891 298.353 252.455 300.495 252.455 303.792C252.455 307.278 254.954 309.315 257.789 309.315C260.33 309.315 261.968 307.824 262.493 306.039L260.162 305.346ZM274.689 293.796H271.938V299.697C271.644 299.151 270.804 298.416 269.019 298.416C266.1 298.416 264.063 300.789 264.063 303.813C264.063 306.942 266.163 309.252 269.103 309.252C270.489 309.252 271.539 308.622 272.001 307.803C272.001 308.286 272.064 308.79 272.106 309H274.773C274.731 308.58 274.689 307.824 274.689 307.131V293.796ZM266.877 303.813C266.877 301.965 268.011 300.915 269.439 300.915C270.867 300.915 271.98 301.944 271.98 303.792C271.98 305.661 270.867 306.753 269.439 306.753C267.969 306.753 266.877 305.661 266.877 303.813ZM36.284 336V325.668H33.491V336H36.284ZM33.155 322.287C33.155 323.211 33.932 323.988 34.877 323.988C35.843 323.988 36.599 323.211 36.599 322.287C36.599 321.321 35.843 320.544 34.877 320.544C33.932 320.544 33.155 321.321 33.155 322.287ZM42.0672 330.057C42.0672 328.86 42.7812 327.915 43.9992 327.915C45.3432 327.915 45.9102 328.818 45.9102 329.973V336H48.7032V329.49C48.7032 327.222 47.5272 325.395 44.9652 325.395C43.8522 325.395 42.6132 325.878 41.9832 326.949V325.668H39.2742V336H42.0672V330.057ZM55.8444 333.123C55.9704 334.299 57.0414 336.315 60.1494 336.315C62.8584 336.315 64.1604 334.593 64.1604 332.913C64.1604 331.401 63.1314 330.162 61.0944 329.742L59.6244 329.427C59.0574 329.322 58.6794 329.007 58.6794 328.503C58.6794 327.915 59.2674 327.474 60.0024 327.474C61.1784 327.474 61.6194 328.251 61.7034 328.86L64.0344 328.335C63.9084 327.222 62.9214 325.353 59.9814 325.353C57.7554 325.353 56.1174 326.886 56.1174 328.734C56.1174 330.183 57.0204 331.38 59.0154 331.821L60.3804 332.136C61.1784 332.304 61.4934 332.682 61.4934 333.144C61.4934 333.69 61.0524 334.173 60.1284 334.173C58.9104 334.173 58.3014 333.417 58.2384 332.598L55.8444 333.123ZM68.402 329.658C68.465 328.713 69.263 327.621 70.712 327.621C72.308 327.621 72.98 328.629 73.022 329.658H68.402ZM73.295 332.346C72.959 333.27 72.245 333.921 70.943 333.921C69.557 333.921 68.402 332.934 68.339 331.569H75.731C75.731 331.527 75.773 331.107 75.773 330.708C75.773 327.39 73.862 325.353 70.67 325.353C68.024 325.353 65.588 327.495 65.588 330.792C65.588 334.278 68.087 336.315 70.922 336.315C73.463 336.315 75.101 334.824 75.626 333.039L73.295 332.346ZM80.0094 329.658C80.0724 328.713 80.8704 327.621 82.3194 327.621C83.9154 327.621 84.5874 328.629 84.6294 329.658H80.0094ZM84.9024 332.346C84.5664 333.27 83.8524 333.921 82.5504 333.921C81.1644 333.921 80.0094 332.934 79.9464 331.569H87.3384C87.3384 331.527 87.3804 331.107 87.3804 330.708C87.3804 327.39 85.4694 325.353 82.2774 325.353C79.6314 325.353 77.1954 327.495 77.1954 330.792C77.1954 334.278 79.6944 336.315 82.5294 336.315C85.0704 336.315 86.7084 334.824 87.2334 333.039L84.9024 332.346ZM92.3729 336V325.668H89.5799V336H92.3729ZM89.2439 322.287C89.2439 323.211 90.0209 323.988 90.9659 323.988C91.9319 323.988 92.6879 323.211 92.6879 322.287C92.6879 321.321 91.9319 320.544 90.9659 320.544C90.0209 320.544 89.2439 321.321 89.2439 322.287ZM98.1561 330.057C98.1561 328.86 98.8701 327.915 100.088 327.915C101.432 327.915 101.999 328.818 101.999 329.973V336H104.792V329.49C104.792 327.222 103.616 325.395 101.054 325.395C99.9411 325.395 98.7021 325.878 98.0721 326.949V325.668H95.3631V336H98.1561V330.057ZM106.892 336.567C107.186 338.541 109.076 340.305 111.911 340.305C115.796 340.305 117.329 337.722 117.329 334.887V325.668H114.641V326.886C114.284 326.193 113.339 325.479 111.701 325.479C108.866 325.479 106.892 327.789 106.892 330.519C106.892 333.417 108.95 335.538 111.701 335.538C113.192 335.538 114.158 334.887 114.578 334.215V334.971C114.578 336.966 113.591 337.848 111.827 337.848C110.504 337.848 109.601 337.029 109.412 335.895L106.892 336.567ZM112.184 333.144C110.735 333.144 109.706 332.136 109.706 330.519C109.706 328.923 110.798 327.915 112.184 327.915C113.528 327.915 114.62 328.923 114.62 330.519C114.62 332.115 113.612 333.144 112.184 333.144ZM128.138 336V329.952C128.138 328.818 128.852 327.915 130.07 327.915C131.33 327.915 131.897 328.755 131.897 329.868V336H134.669V329.952C134.669 328.839 135.383 327.915 136.58 327.915C137.861 327.915 138.407 328.755 138.407 329.868V336H141.116V329.301C141.116 326.529 139.289 325.374 137.378 325.374C136.013 325.374 134.921 325.836 134.102 327.096C133.577 325.983 132.443 325.374 131.036 325.374C129.902 325.374 128.579 325.92 128.012 326.928V325.668H125.345V336H128.138ZM148.587 333.774C147.222 333.774 145.962 332.766 145.962 330.834C145.962 328.881 147.222 327.894 148.587 327.894C149.952 327.894 151.212 328.881 151.212 330.834C151.212 332.787 149.952 333.774 148.587 333.774ZM148.587 325.353C145.5 325.353 143.169 327.642 143.169 330.834C143.169 334.005 145.5 336.315 148.587 336.315C151.674 336.315 154.005 334.005 154.005 330.834C154.005 327.642 151.674 325.353 148.587 325.353ZM162.51 325.626C162.3 325.605 162.09 325.584 161.859 325.584C160.977 325.584 159.549 325.836 158.919 327.201V325.668H156.21V336H159.003V331.275C159.003 329.049 160.242 328.356 161.67 328.356C161.922 328.356 162.195 328.377 162.51 328.44V325.626ZM166.409 329.658C166.472 328.713 167.27 327.621 168.719 327.621C170.315 327.621 170.987 328.629 171.029 329.658H166.409ZM171.302 332.346C170.966 333.27 170.252 333.921 168.95 333.921C167.564 333.921 166.409 332.934 166.346 331.569H173.738C173.738 331.527 173.78 331.107 173.78 330.708C173.78 327.39 171.869 325.353 168.677 325.353C166.031 325.353 163.595 327.495 163.595 330.792C163.595 334.278 166.094 336.315 168.929 336.315C171.47 336.315 173.108 334.824 173.633 333.039L171.302 332.346Z" fill="white"/>
<defs>
<linearGradient id="paint0_linear" x1="0" y1="0" x2="450.336" y2="218.992" gradientUnits="userSpaceOnUse">
<stop stop-color="#D8D8D8"/>
<stop offset="1" stop-color="#9B9B9B"/>
</linearGradient>
</defs>
</svg>
