<?xml version="1.0" encoding="UTF-8"?>
<svg width="343px" height="222px" viewBox="0 0 343 222" version="1.1" xmlns="http://www.w3.org/2000/svg" xmlns:xlink="http://www.w3.org/1999/xlink">
    <!-- Generator: Sketch 63.1 (92452) - https://sketch.com -->
    <title>Group 25 Copy 6</title>
    <desc>Created with Sketch.</desc>
    <defs>
        <rect id="path-1" x="0" y="0" width="343" height="222" rx="20"></rect>
        <radialGradient cx="50%" cy="50%" fx="50%" fy="50%" r="88.3453588%" gradientTransform="translate(0.500000,0.500000),scale(1.000000,0.655847),rotate(90.000000),scale(1.000000,0.997347),translate(-0.500000,-0.500000)" id="radialGradient-3">
            <stop stop-color="#00FFA5" offset="0%"></stop>
            <stop stop-color="#4E00FF" offset="100%"></stop>
        </radialGradient>
    </defs>
    <g id="V3" stroke="none" stroke-width="1" fill="none" fill-rule="evenodd">
        <g id="Intro-Copy-7" transform="translate(-165.000000, -4851.000000)">
            <g id="Group-42-Copy-2" transform="translate(165.000000, 4211.000000)">
                <g id="Group-25-Copy-6" transform="translate(0.000000, 640.000000)">
                    <g id="Group-23">
                        <mask id="mask-2" fill="white">
                            <use xlink:href="#path-1"></use>
                        </mask>
                        <use id="Mask" fill="#FFFFFF" xlink:href="#path-1"></use>
                        <g mask="url(#mask-2)">
                            <rect id="Rectangle" fill="#AEE6CD" x="0" y="0" width="343" height="222"></rect>
                            <polygon id="Gradient-BG-Copy" fill="#CAEEDE" points="-2.38004061e-15 0 343 0 343 54.5 0 168.5"></polygon>
                        </g>
                    </g>
                    <g id="Group-15" transform="translate(24.000000, 30.000000)">
                        <g id="Group-11">
                            <g id="Group-27-Copy-9" transform="translate(81.066667, 0.000000)">
                                <polygon id="E" stroke="#4E00FF" stroke-width="0.727272727" fill="#4E00FF" points="14.7046218 16.4380952 14.7046218 19.1238095 18.4821002 19.1238095 18.4821002 20.0380952 13.5942721 20.0380952 13.5942721 12.0380952 18.4592064 12.0380952 18.4592064 12.952381 14.7046218 12.952381 14.7046218 15.5238095 17.9784364 15.5238095 17.9784364 16.4380952"></polygon>
                                <g id="Group-44-Copy-2" stroke="url(#radialGradient-3)" stroke-width="0.5">
                                    <path d="M7.25536993,3.45030756 C7.25536993,3.01751464 7.60472453,2.66666667 8.04082343,2.66666667 L23.9591766,2.66666667 C24.3929706,2.66666667 24.7446301,3.02347 24.7446301,3.45030756 L24.7446301,28.5496924 C24.7446301,28.9824854 24.3952755,29.3333333 23.9591766,29.3333333 L8.04082343,29.3333333 C7.60702944,29.3333333 7.25536993,28.97653 7.25536993,28.5496924 L7.25536993,3.45030756 Z" id="Rectangle-12" transform="translate(16.000000, 16.000000) rotate(-95.000000) translate(-16.000000, -16.000000) "></path>
                                    <path d="M7.25536993,3.45030756 C7.25536993,3.01751464 7.60472453,2.66666667 8.04082343,2.66666667 L23.9591766,2.66666667 C24.3929706,2.66666667 24.7446301,3.02347 24.7446301,3.45030756 L24.7446301,28.5496924 C24.7446301,28.9824854 24.3952755,29.3333333 23.9591766,29.3333333 L8.04082343,29.3333333 C7.60702944,29.3333333 7.25536993,28.97653 7.25536993,28.5496924 L7.25536993,3.45030756 Z" id="Rectangle-12" transform="translate(16.000000, 16.000000) rotate(-75.000000) translate(-16.000000, -16.000000) "></path>
                                    <path d="M7.25536993,3.45030756 C7.25536993,3.01751464 7.60472453,2.66666667 8.04082343,2.66666667 L23.9591766,2.66666667 C24.3929706,2.66666667 24.7446301,3.02347 24.7446301,3.45030756 L24.7446301,28.5496924 C24.7446301,28.9824854 24.3952755,29.3333333 23.9591766,29.3333333 L8.04082343,29.3333333 C7.60702944,29.3333333 7.25536993,28.97653 7.25536993,28.5496924 L7.25536993,3.45030756 Z" id="Rectangle-12" transform="translate(16.000000, 16.000000) rotate(-55.000000) translate(-16.000000, -16.000000) "></path>
                                    <path d="M7.25536993,3.45030756 C7.25536993,3.01751464 7.60472453,2.66666667 8.04082343,2.66666667 L23.9591766,2.66666667 C24.3929706,2.66666667 24.7446301,3.02347 24.7446301,3.45030756 L24.7446301,28.5496924 C24.7446301,28.9824854 24.3952755,29.3333333 23.9591766,29.3333333 L8.04082343,29.3333333 C7.60702944,29.3333333 7.25536993,28.97653 7.25536993,28.5496924 L7.25536993,3.45030756 Z" id="Rectangle-12" transform="translate(16.000000, 16.000000) rotate(-35.000000) translate(-16.000000, -16.000000) "></path>
                                    <path d="M7.25536993,3.45030756 C7.25536993,3.01751464 7.60472453,2.66666667 8.04082343,2.66666667 L23.9591766,2.66666667 C24.3929706,2.66666667 24.7446301,3.02347 24.7446301,3.45030756 L24.7446301,28.5496924 C24.7446301,28.9824854 24.3952755,29.3333333 23.9591766,29.3333333 L8.04082343,29.3333333 C7.60702944,29.3333333 7.25536993,28.97653 7.25536993,28.5496924 L7.25536993,3.45030756 Z" id="Rectangle-12" transform="translate(16.000000, 16.000000) rotate(-15.000000) translate(-16.000000, -16.000000) "></path>
                                    <path d="M7.25536993,3.45030756 C7.25536993,3.01751464 7.60472453,2.66666667 8.04082343,2.66666667 L23.9591766,2.66666667 C24.3929706,2.66666667 24.7446301,3.02347 24.7446301,3.45030756 L24.7446301,28.5496924 C24.7446301,28.9824854 24.3952755,29.3333333 23.9591766,29.3333333 L8.04082343,29.3333333 C7.60702944,29.3333333 7.25536993,28.97653 7.25536993,28.5496924 L7.25536993,3.45030756 Z" id="Rectangle-12" transform="translate(16.000000, 16.000000) rotate(5.000000) translate(-16.000000, -16.000000) "></path>
                                    <path d="M7.25536993,3.45030756 C7.25536993,3.01751464 7.60472453,2.66666667 8.04082343,2.66666667 L23.9591766,2.66666667 C24.3929706,2.66666667 24.7446301,3.02347 24.7446301,3.45030756 L24.7446301,28.5496924 C24.7446301,28.9824854 24.3952755,29.3333333 23.9591766,29.3333333 L8.04082343,29.3333333 C7.60702944,29.3333333 7.25536993,28.97653 7.25536993,28.5496924 L7.25536993,3.45030756 Z" id="Rectangle-12" transform="translate(16.000000, 16.000000) rotate(25.000000) translate(-16.000000, -16.000000) "></path>
                                    <path d="M7.25536993,3.45030756 C7.25536993,3.01751464 7.60472453,2.66666667 8.04082343,2.66666667 L23.9591766,2.66666667 C24.3929706,2.66666667 24.7446301,3.02347 24.7446301,3.45030756 L24.7446301,28.5496924 C24.7446301,28.9824854 24.3952755,29.3333333 23.9591766,29.3333333 L8.04082343,29.3333333 C7.60702944,29.3333333 7.25536993,28.97653 7.25536993,28.5496924 L7.25536993,3.45030756 Z" id="Rectangle-12" transform="translate(16.000000, 16.000000) rotate(45.000000) translate(-16.000000, -16.000000) "></path>
                                    <path d="M7.25536993,3.45030756 C7.25536993,3.01751464 7.60472453,2.66666667 8.04082343,2.66666667 L23.9591766,2.66666667 C24.3929706,2.66666667 24.7446301,3.02347 24.7446301,3.45030756 L24.7446301,28.5496924 C24.7446301,28.9824854 24.3952755,29.3333333 23.9591766,29.3333333 L8.04082343,29.3333333 C7.60702944,29.3333333 7.25536993,28.97653 7.25536993,28.5496924 L7.25536993,3.45030756 Z" id="Rectangle-12" transform="translate(16.000000, 16.000000) rotate(65.000000) translate(-16.000000, -16.000000) "></path>
                                    <path d="M7.25536993,3.45030756 C7.25536993,3.01751464 7.60472453,2.66666667 8.04082343,2.66666667 L23.9591766,2.66666667 C24.3929706,2.66666667 24.7446301,3.02347 24.7446301,3.45030756 L24.7446301,28.5496924 C24.7446301,28.9824854 24.3952755,29.3333333 23.9591766,29.3333333 L8.04082343,29.3333333 C7.60702944,29.3333333 7.25536993,28.97653 7.25536993,28.5496924 L7.25536993,3.45030756 Z" id="Rectangle-12" transform="translate(16.000000, 16.000000) rotate(85.000000) translate(-16.000000, -16.000000) "></path>
                                </g>
                            </g>
                            <g id="capital-one-logo-(1)" transform="translate(0.000000, 6.400000)">
                                <path d="M36.1767168,13.6845667 C33.9008224,15.2777478 31.2122659,16.9450303 28.3236307,18.6987646 L28.2110865,18.7605158 C28.1735717,18.7852163 28.1610668,18.8346172 28.1860766,18.8840182 C28.2110865,18.9210689 28.2611061,18.9334191 28.3111258,18.9087187 L28.4111651,18.8593177 C30.8621283,17.5995931 33.6882389,16.0928637 36.5143495,14.5490836 C36.5268544,14.5367334 36.5393593,14.5367334 36.5643692,14.5243831 C36.4018053,14.2650281 36.2642512,13.9809725 36.1767168,13.6845667 L36.1767168,13.6845667 Z M51.0825746,1.76658418 C47.5061691,-2.13609197 24.484622,1.37137647 14.6932742,3.48326768 L14.4681857,3.53266864 C14.4181661,3.54501888 14.3931563,3.58206961 14.3931563,3.63147057 C14.4056612,3.68087153 14.4431759,3.70557202 14.4931956,3.70557202 L14.718284,3.65617105 C22.8214684,2.23589334 39.6905977,0.259854781 43.3295278,3.81672418 C44.4424651,4.90354539 44.167357,6.29912262 42.8918558,7.94170467 C43.579626,8.38631335 44.0798226,9.07792684 44.3049111,9.94244371 C49.3068768,6.64492937 52.6706987,3.50796816 51.0825746,1.76658418 Z" id="Shape" fill="#A12830"></path>
                                <g id="Group" transform="translate(0.000000, 7.793502)" fill="#003A6F">
                                    <path d="M37.6272869,4.86599495 C37.6773065,6.2368717 38.5526505,7.36074363 39.7031026,7.36074363 C41.9289774,7.36074363 42.8668459,4.66839109 42.8043214,2.86525591 C42.7543017,1.49437916 41.8539479,0.370507229 40.7160007,0.370507229 C38.7902439,0.370507229 37.5647623,3.05050952 37.6272869,4.86599495 L37.6272869,4.86599495 Z M36.4518249,4.7918935 C36.3642905,2.44534771 38.2275228,0.0617512049 40.9285842,0.0617512049 C42.7292919,0.0617512049 43.9172587,1.24737434 43.9797833,3.06285976 C44.0673177,5.53290796 42.3291346,7.79300206 39.503024,7.79300206 C37.7023164,7.79300206 36.5143495,6.60737893 36.4518249,4.7918935 Z M10.9042852,4.17438145 C10.8042459,4.21143218 10.6791967,4.2484829 10.5291378,4.27318338 C10.3790788,4.3102341 10.0914658,4.35963507 9.69130852,4.42138627 C9.41620041,4.47078724 9.21612178,4.5201882 9.10357755,4.60663989 C8.99103332,4.68074133 8.92850875,4.77954326 8.91600384,4.89069543 C8.89099401,5.01419784 8.92850875,5.11299977 9.04105298,5.18710121 C9.15359721,5.26120266 9.32866601,5.29825338 9.57876429,5.29825338 C9.766338,5.29825338 9.95391172,5.2735529 10.1414854,5.21180169 C10.3290591,5.15005049 10.4791181,5.07594904 10.6041673,4.97714712 C10.6917017,4.90304567 10.7542262,4.80424374 10.8042459,4.69309157 C10.8167508,4.60663989 10.8542655,4.43373651 10.9042852,4.17438145 L10.9042852,4.17438145 Z M13.2552091,2.72940326 C13.2427042,2.93935735 13.2051894,3.13696121 13.1551698,3.45806748 L12.7550125,5.65641037 C12.7174978,5.85401423 12.7925272,6.00221712 12.980101,6.11336929 L12.967596,6.19982097 L10.6917017,6.19982097 L10.6666918,5.64406013 C10.3415641,5.84166398 9.9414068,6.00221712 9.57876429,6.10101905 C9.21612178,6.18747073 8.92850875,6.2368717 8.49083675,6.2368717 C7.75304681,6.2368717 7.34038465,6.16277025 7.05277162,5.91576543 C6.75265368,5.65641037 6.61509962,5.483507 6.62760454,5.12535001 C6.64010945,4.91539591 6.74014876,4.65604085 6.90271265,4.47078724 C7.06527653,4.28553362 7.27786007,4.16203121 7.50294853,4.05087904 C7.7405419,3.93972687 8.01565001,3.86562543 8.41580727,3.80387422 C8.81596452,3.74212302 9.37868566,3.68037181 10.1289805,3.61862061 C10.5166329,3.58156989 10.7667311,3.4951182 10.8792754,3.45806748 C11.0418393,3.39631627 11.0918589,3.33456507 11.1168687,3.21106266 C11.1543835,2.98875832 11.0918589,2.85290567 10.7792361,2.79115446 C9.96641663,2.63060133 8.42831218,2.88995639 7.64050259,3.08756025 L8.06566967,1.93898783 C9.10357755,1.79078494 10.0914658,1.69198301 11.1168687,1.69198301 C12.7425076,1.67963277 13.267714,2.13659169 13.2552091,2.72940326 L13.2552091,2.72940326 Z M19.8327939,6.19982097 L20.6206035,1.80313518 L22.7964586,1.80313518 L22.008649,6.19982097 L19.8327939,6.19982097 Z M20.7456527,0.790415423 C20.8081773,0.432258434 21.3834033,0.135852651 22.0336589,0.135852651 C22.6839144,0.135852651 23.1465962,0.432258434 23.0840716,0.790415423 C23.0215471,1.14857241 22.4338161,1.4449782 21.7960655,1.4449782 C21.1458099,1.4449782 20.6706232,1.14857241 20.7456527,0.790415423 Z M30.5244956,4.18673169 C30.4244563,4.22378242 30.2994071,4.26083314 30.1493482,4.28553362 C29.9992892,4.32258434 29.7116762,4.37198531 29.299014,4.43373651 C29.0239059,4.48313748 28.8238273,4.53253844 28.711283,4.61899013 C28.6112437,4.69309157 28.5487192,4.7918935 28.5237093,4.90304567 C28.4986995,5.02654808 28.5487192,5.12535001 28.6487585,5.19945145 C28.7613027,5.2735529 28.9363715,5.31060362 29.1989747,5.31060362 C29.3865484,5.31060362 29.5741221,5.28590314 29.7616958,5.22415194 C29.9492696,5.16240073 30.0993285,5.08829929 30.2243777,4.98949736 C30.3119121,4.91539591 30.3744366,4.81659398 30.4119514,4.70544181 C30.4369612,4.61899013 30.4744759,4.44608675 30.5244956,4.18673169 Z M32.8629146,2.7417535 C32.8504096,2.95170759 32.8128949,3.14931145 32.7503703,3.47041772 L32.362718,5.66876061 C32.3252033,5.86636447 32.4002327,6.01456736 32.5878065,6.12571953 L32.5753015,6.19982097 L30.2994071,6.19982097 L30.2869022,5.64406013 C29.9492696,5.84166398 29.5491123,6.00221712 29.1989747,6.10101905 C28.8363322,6.19982097 28.5487192,6.2368717 28.1110472,6.2368717 C27.3732572,6.2368717 26.9605951,6.16277025 26.672982,5.91576543 C26.3728641,5.65641037 26.23531,5.483507 26.2478149,5.12535001 C26.2603199,4.91539591 26.3603592,4.65604085 26.5229231,4.47078724 C26.6854869,4.28553362 26.8980705,4.16203121 27.1231589,4.05087904 C27.3607523,3.93972687 27.6358604,3.86562543 28.0360177,3.79152398 C28.4361749,3.72977278 28.9988961,3.66802157 29.7491909,3.60627037 C30.1368433,3.56921964 30.3744366,3.48276796 30.4869809,3.44571723 C30.6495447,3.38396603 30.7120693,3.32221482 30.7370791,3.18636217 C30.7745939,2.96405784 30.6995644,2.82820519 30.3994465,2.76645398 C29.5741221,2.60590085 28.0485226,2.86525591 27.260713,3.06285976 L27.6858801,1.91428735 C28.7362929,1.76608446 29.6991713,1.66728253 30.7370791,1.66728253 C32.3502131,1.69198301 32.8754195,2.14894193 32.8629146,2.7417535 L32.8629146,2.7417535 Z M6.32748659,4.61899013 C5.61470648,4.75484278 5.22705414,4.81659398 4.52677895,4.81659398 C3.48887107,4.81659398 2.66354673,4.3102341 2.70106147,3.37161579 C2.73857621,2.75410374 3.47636615,1.43262795 5.37711311,1.43262795 C5.977349,1.43262795 6.44003082,1.53142988 7.06527653,1.88958687 L7.34038465,0.370507229 C6.49005048,0.0494009639 5.92732934,-3.23352456e-15 5.1895394,0.012350241 C2.70106147,0.0370507229 0.312622855,1.14857241 0.0250098284,3.42101675 C-0.275108113,5.73051182 2.57601233,6.31097314 3.83900866,6.2986229 C4.56429369,6.2986229 5.32709346,6.26157218 6.03987357,6.19982097 L6.32748659,4.61899013 Z M23.9969304,1.7784347 L24.1469894,0.889217351 L26.4228837,0.395207711 L26.1852904,1.7784347 L27.2982277,1.7784347 L27.0856442,2.66765205 L26.0102216,2.66765205 L25.359966,6.19982097 C25.359966,6.19982097 23.171606,6.18747073 23.1591011,6.19982097 L23.8093567,2.68000229 L22.9840323,2.68000229 L23.1465962,1.79078494 L23.9969304,1.79078494 L23.9969304,1.7784347 Z M35.0762844,6.19982097 L32.8504096,6.19982097 L33.963347,0.0741014459 L36.1266972,0.135852651 L35.0762844,6.19982097 Z M16.9566637,2.84055543 C16.6690507,2.84055543 16.4189524,2.92700711 16.181359,3.09991049 C15.9562705,3.27281386 15.8062116,3.51981868 15.7561919,3.85327519 C15.6936673,4.23613266 15.7311821,4.50783796 15.8812411,4.68074133 C16.0313,4.85364471 16.2563885,4.94009639 16.5565064,4.94009639 C16.7565851,4.94009639 16.9566637,4.90304567 17.1067226,4.82894422 C17.2942964,4.7301423 17.4193455,4.63134037 17.5318897,4.47078724 C17.6569389,4.29788386 17.7319684,4.11263025 17.7694831,3.89032591 C17.8320077,3.54451916 17.781988,3.2851641 17.6194241,3.11226073 C17.4568602,2.92700711 17.2442767,2.84055543 16.9566637,2.84055543 L16.9566637,2.84055543 Z M12.9926059,7.71890061 L14.0555236,1.82783567 L15.9687755,1.82783567 L15.8187165,2.58120037 C15.9812804,2.35889603 16.2438836,2.17364241 16.619031,2.02543952 C16.9816735,1.87723663 17.4068406,1.76608446 17.8570175,1.76608446 C18.3572141,1.76608446 18.657332,1.79078494 19.0324794,1.9883888 C19.4076269,2.18599265 19.6577251,2.45769796 19.8077841,2.82820519 C19.9453382,3.18636217 19.9828529,3.58156989 19.9078234,4.02617856 C19.7827743,4.75484278 19.4201318,5.32295386 18.8324008,5.74286206 C18.2446698,6.16277025 17.7194634,6.27392242 16.9816735,6.27392242 C16.7190703,6.27392242 16.4939819,6.24922194 16.3064081,6.19982097 C16.1313393,6.15042001 15.9812804,6.10101905 15.8687361,6.0269176 C15.7686968,5.95281615 15.6561526,5.86636447 15.5060936,5.70581133 L15.155956,7.71890061 L12.9926059,7.71890061 L12.9926059,7.71890061 Z M52.483125,3.38396603 C52.4706201,3.02580904 52.2955513,2.79115446 51.9204038,2.79115446 C51.0325549,2.79115446 50.0821814,4.5201882 49.9196176,5.21180169 C51.3701876,5.21180169 52.5081348,4.34728483 52.483125,3.38396603 L52.483125,3.38396603 Z M52.6706987,6.0886688 L52.8457675,6.19982097 C52.4080955,7.07668808 51.5202466,7.78065182 50.4823387,7.78065182 C49.6320045,7.78065182 48.9317293,7.22489098 48.8942146,6.17512049 C48.83169,4.29788386 50.6073878,2.54414964 52.0704628,2.54414964 C52.6957085,2.54414964 53.2834395,2.81585494 53.3084493,3.48276796 C53.358469,4.97714712 51.2326335,5.43410603 49.8320832,5.47115676 C49.7820635,5.63170989 49.7695586,5.77991278 49.7820635,6.0269176 C49.8070733,6.64442965 50.1822208,7.17549001 50.9700304,7.17549001 C51.6452957,7.15078953 52.3205611,6.61972917 52.6706987,6.0886688 Z" id="Shape"></path>
                                    <path d="M43.9422686,3.33456507 C44.0923275,3.30986458 44.3424258,3.2851641 44.4424651,3.2851641 C44.605029,3.2851641 44.755088,3.30986458 44.755088,3.47041772 C44.755088,3.56921964 44.5925241,4.23613266 44.5550094,4.38433555 L44.2173767,5.86636447 C44.0798226,6.47152628 43.9297636,7.10138857 43.8047145,7.60774845 L44.6800585,7.60774845 L45.1677502,5.2735529 C46.6683399,3.74212302 47.2435659,3.23576314 47.5937035,3.23576314 C47.7562674,3.23576314 47.8563067,3.32221482 47.8688116,3.50746844 C47.8813165,3.77917374 47.7062477,4.39668579 47.6437232,4.56958916 L47.1435266,6.27392242 C47.0309824,6.65677989 46.943448,7.00258664 46.9559529,7.24959146 C46.9684578,7.62009869 47.2060512,7.79300206 47.5436839,7.79300206 C48.1814345,7.79300206 48.6441163,7.13843929 49.0442736,6.49622676 L48.9317293,6.28627266 C48.7691654,6.54562772 48.394018,7.11373881 48.0939001,7.11373881 C47.9938608,7.11373881 47.9063264,7.0519876 47.9063264,6.89143447 C47.8938215,6.69383061 47.9813559,6.39742483 48.0438804,6.19982097 L48.5940966,4.19908193 C48.7441556,3.64332109 48.8191851,3.29751434 48.8066802,3.09991049 C48.7941753,2.72940326 48.5690868,2.55649988 48.2314541,2.55649988 C47.6562281,2.55649988 46.8934283,2.96405784 45.2802944,4.80424374 L45.2552846,4.80424374 L45.4553632,3.91502639 C45.5679074,3.42101675 45.6679467,2.91465687 45.7804909,2.56885012 C45.2177698,2.76645398 44.4299602,2.98875832 43.9297636,3.08756025 L43.9422686,3.33456507 L43.9422686,3.33456507 Z" id="Shape"></path>
                                </g>
                            </g>
                            <g id="Group-5" transform="translate(64.000000, 12.266667)" fill="#1E1689" stroke="#1E1689">
                                <polygon id="Close" points="0.273066667 0 3.1232 2.85013333 5.97333333 0 6.2464 0.273066667 3.39626667 3.1232 6.2464 5.97333333 5.97333333 6.2464 3.1232 3.39626667 0.273066667 6.2464 0 5.97333333 2.85013333 3.1232 0 0.273066667"></polygon>
                            </g>
                        </g>
                    </g>
                    <text id="Capital-One-Elements" font-family="CircularStd-Medium, Circular Std" font-size="36" font-weight="400" fill="#1E1689">
                        <tspan x="24" y="129">Capital One </tspan>
                        <tspan x="24" y="175">Elements</tspan>
                    </text>
                </g>
            </g>
        </g>
    </g>
</svg>