<svg width="360" height="400" viewBox="0 0 360 400" fill="none" xmlns="http://www.w3.org/2000/svg">
<rect width="360" height="400" rx="20" fill="url(#paint0_linear)"/>
<path fill-rule="evenodd" clip-rule="evenodd" d="M127.769 62.3756V65.0613H131.546V65.9756H126.658V57.9756H131.523V58.8899H127.769V61.4613H131.042V62.3756H127.769Z" fill="#4E00FF" stroke="#4E00FF" stroke-width="0.727273"/>
<path fill-rule="evenodd" clip-rule="evenodd" d="M117.326 71.743C116.894 71.7809 116.513 71.4611 116.475 71.0288L115.088 55.1715C115.05 54.7393 115.37 54.3582 115.802 54.3203L140.802 52.1331C141.234 52.0953 141.615 52.4151 141.653 52.8474L143.04 68.7046C143.078 69.1369 142.758 69.518 142.326 69.5558L117.326 71.743Z" stroke="url(#paint1_radial)" stroke-width="0.5"/>
<path fill-rule="evenodd" clip-rule="evenodd" d="M114.68 67.137C114.261 67.0246 114.012 66.5938 114.125 66.1747L118.245 50.7992C118.357 50.3801 118.788 50.1313 119.207 50.2436L143.447 56.7387C143.866 56.8511 144.115 57.2819 144.003 57.701L139.883 73.0765C139.77 73.4956 139.34 73.7444 138.92 73.6321L114.68 67.137Z" stroke="url(#paint2_radial)" stroke-width="0.5"/>
<path fill-rule="evenodd" clip-rule="evenodd" d="M113.77 61.9038C113.414 61.6549 113.328 61.165 113.577 60.8095L122.707 47.7704C122.956 47.4149 123.446 47.3285 123.801 47.5774L144.358 61.9715C144.713 62.2204 144.8 62.7103 144.551 63.0658L135.421 76.1049C135.172 76.4603 134.682 76.5467 134.326 76.2978L113.77 61.9038Z" stroke="url(#paint3_radial)" stroke-width="0.5"/>
<path fill-rule="evenodd" clip-rule="evenodd" d="M114.704 56.6749C114.455 56.3194 114.541 55.8295 114.897 55.5806L127.936 46.4505C128.291 46.2016 128.781 46.288 129.03 46.6434L143.424 67.2003C143.673 67.5557 143.587 68.0456 143.231 68.2945L130.192 77.4246C129.836 77.6735 129.347 77.5871 129.098 77.2317L114.704 56.6749Z" stroke="url(#paint4_radial)" stroke-width="0.5"/>
<path fill-rule="evenodd" clip-rule="evenodd" d="M117.369 52.0812C117.257 51.6621 117.506 51.2312 117.925 51.1189L133.3 46.9991C133.72 46.8868 134.15 47.1355 134.263 47.5547L140.758 71.7948C140.87 72.2139 140.621 72.6448 140.202 72.7571L124.827 76.8769C124.408 76.9892 123.977 76.7405 123.864 76.3213L117.369 52.0812Z" stroke="url(#paint5_radial)" stroke-width="0.5"/>
<path fill-rule="evenodd" clip-rule="evenodd" d="M121.446 48.6753C121.484 48.243 121.865 47.9232 122.297 47.9611L138.155 49.3484C138.587 49.3862 138.907 49.7673 138.869 50.1996L136.682 75.1993C136.644 75.6316 136.263 75.9514 135.83 75.9136L119.973 74.5262C119.541 74.4884 119.221 74.1073 119.259 73.675L121.446 48.6753Z" stroke="url(#paint6_radial)" stroke-width="0.5"/>
<path fill-rule="evenodd" clip-rule="evenodd" d="M126.441 46.8703C126.625 46.477 127.092 46.3069 127.486 46.4903L141.912 53.2174C142.305 53.4008 142.475 53.8683 142.292 54.2616L131.686 77.0056C131.503 77.3989 131.035 77.569 130.642 77.3856L116.216 70.6585C115.822 70.4751 115.652 70.0076 115.836 69.6143L126.441 46.8703Z" stroke="url(#paint7_radial)" stroke-width="0.5"/>
<path fill-rule="evenodd" clip-rule="evenodd" d="M131.753 46.8818C132.06 46.5749 132.557 46.5749 132.864 46.8818L144.12 58.1374C144.427 58.4442 144.427 58.9417 144.12 59.2485L126.375 76.9935C126.068 77.3004 125.57 77.3004 125.264 76.9935L114.008 65.7379C113.701 65.4311 113.701 64.9336 114.008 64.6268L131.753 46.8818Z" stroke="url(#paint8_radial)" stroke-width="0.5"/>
<path fill-rule="evenodd" clip-rule="evenodd" d="M136.74 48.71C137.133 48.5266 137.601 48.6967 137.784 49.09L144.511 63.5165C144.695 63.9098 144.525 64.3772 144.131 64.5606L121.387 75.1663C120.994 75.3497 120.527 75.1796 120.343 74.7863L113.616 60.3598C113.433 59.9666 113.603 59.4991 113.996 59.3157L136.74 48.71Z" stroke="url(#paint9_radial)" stroke-width="0.5"/>
<path fill-rule="evenodd" clip-rule="evenodd" d="M140.801 52.1329C141.234 52.0951 141.615 52.4149 141.652 52.8472L143.04 68.7044C143.078 69.1367 142.758 69.5178 142.326 69.5556L117.326 71.7428C116.894 71.7807 116.512 71.4609 116.475 71.0286L115.087 55.1713C115.049 54.739 115.369 54.3579 115.802 54.3201L140.801 52.1329Z" stroke="url(#paint10_radial)" stroke-width="0.5"/>
<path fill-rule="evenodd" clip-rule="evenodd" d="M68.1737 66.0221C65.8978 67.6152 63.2092 69.2825 60.3206 71.0363L60.2081 71.098C60.1706 71.1227 60.158 71.1721 60.1831 71.2215C60.2081 71.2586 60.2581 71.2709 60.3081 71.2462L60.4081 71.1968C62.8591 69.9371 65.6852 68.4304 68.5113 66.8866C68.5238 66.8742 68.5363 66.8742 68.5613 66.8619C68.3988 66.6025 68.2612 66.3185 68.1737 66.0221ZM83.0796 54.1041C79.5032 50.2014 56.4816 53.7089 46.6903 55.8208L46.4652 55.8702C46.4151 55.8825 46.3901 55.9196 46.3901 55.969C46.4026 56.0184 46.4402 56.0431 46.4902 56.0431L46.7153 55.9937C54.8184 54.5734 71.6876 52.5973 75.3265 56.1542C76.4394 57.241 76.1643 58.6366 74.8888 60.2792C75.5766 60.7238 76.0768 61.4154 76.3019 62.2799C81.3039 58.9824 84.6677 55.8455 83.0796 54.1041Z" fill="#A12830"/>
<path fill-rule="evenodd" clip-rule="evenodd" d="M69.6243 64.9969C69.6743 66.3678 70.5496 67.4917 71.7001 67.4917C73.9259 67.4917 74.8638 64.7993 74.8013 62.9962C74.7513 61.6253 73.8509 60.5014 72.713 60.5014C70.7872 60.5014 69.5617 63.1814 69.6243 64.9969ZM68.4488 64.9228C68.3613 62.5763 70.2245 60.1927 72.9256 60.1927C74.7263 60.1927 75.9142 61.3783 75.9768 63.1938C76.0643 65.6638 74.3261 67.9239 71.5 67.9239C69.6993 67.9239 68.5113 66.7383 68.4488 64.9228ZM42.9013 64.3053C42.8012 64.3424 42.6762 64.3794 42.5261 64.4041C42.376 64.4412 42.0884 64.4906 41.6883 64.5523C41.4132 64.6017 41.2131 64.6511 41.1005 64.7376C40.988 64.8117 40.9255 64.9105 40.913 65.0216C40.888 65.1451 40.9255 65.2439 41.038 65.318C41.1506 65.3921 41.3256 65.4292 41.5757 65.4292C41.7633 65.4292 41.9509 65.4045 42.1385 65.3427C42.326 65.281 42.4761 65.2069 42.6011 65.1081C42.6887 65.034 42.7512 64.9352 42.8012 64.824C42.8137 64.7376 42.8512 64.5647 42.9013 64.3053ZM45.2522 62.8603C45.2397 63.0703 45.2022 63.2679 45.1521 63.589L44.752 65.7873C44.7145 65.9849 44.7895 66.1332 44.9771 66.2443L44.9646 66.3308H42.6887L42.6637 65.775C42.3385 65.9726 41.9384 66.1332 41.5757 66.232C41.2131 66.3184 40.9255 66.3678 40.4878 66.3678C39.75 66.3678 39.3374 66.2937 39.0497 66.0467C38.7496 65.7873 38.6121 65.6144 38.6246 65.2563C38.6371 65.0463 38.7371 64.787 38.8997 64.6017C39.0622 64.4165 39.2748 64.293 39.4999 64.1818C39.7375 64.0707 40.0126 63.9966 40.4128 63.9348C40.8129 63.8731 41.3757 63.8113 42.1259 63.7496C42.5136 63.7125 42.7637 63.6261 42.8762 63.589C43.0388 63.5273 43.0888 63.4655 43.1138 63.342C43.1514 63.1197 43.0888 62.9838 42.7762 62.9221C41.9634 62.7615 40.4253 63.0209 39.6375 63.2185L40.0626 62.0699C41.1005 61.9217 42.0884 61.8229 43.1138 61.8229C44.7395 61.8106 45.2647 62.2675 45.2522 62.8603ZM51.8298 66.3308L52.6176 61.9341H54.7934L54.0056 66.3308H51.8298ZM52.7426 60.9213C52.8051 60.5632 53.3804 60.2668 54.0306 60.2668C54.6809 60.2668 55.1436 60.5632 55.081 60.9213C55.0185 61.2795 54.4308 61.5759 53.793 61.5759C53.1428 61.5759 52.6676 61.2795 52.7426 60.9213ZM62.5215 64.3177C62.4214 64.3547 62.2964 64.3918 62.1463 64.4165C61.9963 64.4535 61.7086 64.5029 61.296 64.5647C61.0209 64.6141 60.8208 64.6635 60.7083 64.7499C60.6082 64.824 60.5457 64.9228 60.5207 65.034C60.4957 65.1575 60.5457 65.2563 60.6457 65.3304C60.7583 65.4045 60.9333 65.4415 61.1959 65.4415C61.3835 65.4415 61.5711 65.4168 61.7587 65.3551C61.9462 65.2933 62.0963 65.2192 62.2213 65.1204C62.3089 65.0463 62.3714 64.9475 62.4089 64.8364C62.4339 64.7499 62.4714 64.577 62.5215 64.3177ZM64.8599 62.8727C64.8474 63.0826 64.8099 63.2802 64.7473 63.6014L64.3597 65.7997C64.3222 65.9973 64.3972 66.1455 64.5848 66.2567L64.5723 66.3308H62.2964L62.2839 65.775C61.9462 65.9726 61.5461 66.1332 61.1959 66.232C60.8333 66.3308 60.5457 66.3678 60.108 66.3678C59.3702 66.3678 58.9576 66.2937 58.67 66.0467C58.3698 65.7873 58.2323 65.6144 58.2448 65.2563C58.2573 65.0463 58.3573 64.787 58.5199 64.6017C58.6825 64.4165 58.895 64.293 59.1201 64.1818C59.3577 64.0707 59.6328 63.9966 60.033 63.9225C60.4331 63.8607 60.9959 63.799 61.7462 63.7372C62.1338 63.7002 62.3714 63.6137 62.4839 63.5767C62.6465 63.5149 62.709 63.4531 62.734 63.3173C62.7716 63.095 62.6965 62.9591 62.3964 62.8974C61.5711 62.7368 60.0455 62.9962 59.2577 63.1938L59.6828 62.0452C60.7333 61.897 61.6961 61.7982 62.734 61.7982C64.3472 61.8229 64.8724 62.2799 64.8599 62.8727ZM38.3245 64.7499C37.6117 64.8858 37.224 64.9475 36.5237 64.9475C35.4858 64.9475 34.6605 64.4412 34.698 63.5026C34.7355 62.885 35.4733 61.5636 37.3741 61.5636C37.9743 61.5636 38.437 61.6624 39.0622 62.0205L39.3374 60.5014C38.487 60.1803 37.9243 60.1309 37.1865 60.1433C34.698 60.168 32.3096 61.2795 32.022 63.552C31.7219 65.8614 34.573 66.4419 35.836 66.4296C36.5613 66.4296 37.3241 66.3925 38.0368 66.3308L38.3245 64.7499ZM55.9939 61.9094L56.144 61.0202L58.4199 60.5261L58.1823 61.9094H59.2952L59.0826 62.7986H58.0072L57.3569 66.3308C57.3569 66.3308 55.1686 66.3184 55.1561 66.3308L55.8063 62.8109H54.981L55.1436 61.9217H55.9939V61.9094ZM67.0733 66.3308H64.8474L65.9603 60.205L68.1237 60.2668L67.0733 66.3308ZM48.9536 62.9715C48.666 62.9715 48.4159 63.0579 48.1783 63.2308C47.9532 63.4037 47.8032 63.6508 47.7532 63.9842C47.6906 64.3671 47.7282 64.6388 47.8782 64.8117C48.0283 64.9846 48.2534 65.071 48.5535 65.071C48.7536 65.071 48.9536 65.034 49.1037 64.9599C49.2913 64.8611 49.4163 64.7623 49.5289 64.6017C49.6539 64.4288 49.7289 64.2436 49.7665 64.0213C49.829 63.6755 49.779 63.4161 49.6164 63.2432C49.4538 63.0579 49.2412 62.9715 48.9536 62.9715ZM44.9896 67.8498L46.0525 61.9588H47.9657L47.8157 62.7121C47.9782 62.4898 48.2409 62.3046 48.616 62.1564C48.9786 62.0082 49.4038 61.897 49.854 61.897C50.3542 61.897 50.6543 61.9217 51.0294 62.1193C51.4046 62.3169 51.6547 62.5886 51.8048 62.9591C51.9423 63.3173 51.9798 63.7125 51.9048 64.1571C51.7797 64.8858 51.4171 65.4539 50.8294 65.8738C50.2416 66.2937 49.7164 66.4049 48.9786 66.4049C48.716 66.4049 48.4909 66.3802 48.3034 66.3308C48.1283 66.2814 47.9782 66.232 47.8657 66.1579C47.7657 66.0838 47.6531 65.9973 47.5031 65.8367L47.1529 67.8498H44.9896ZM84.4801 63.5149C84.4676 63.1567 84.2925 62.9221 83.9174 62.9221C83.0295 62.9221 82.0792 64.6511 81.9166 65.3427C83.3672 65.3427 84.5051 64.4782 84.4801 63.5149ZM84.6677 66.2196L84.8427 66.3308C84.4051 67.2076 83.5172 67.9116 82.4793 67.9116C81.629 67.9116 80.9287 67.3558 80.8912 66.3061C80.8287 64.4288 82.6044 62.6751 84.0674 62.6751C84.6927 62.6751 85.2804 62.9468 85.3054 63.6137C85.3554 65.1081 83.2296 65.565 81.8291 65.6021C81.779 65.7626 81.7665 65.9108 81.779 66.1579C81.804 66.7754 82.1792 67.3064 82.967 67.3064C83.6423 67.2817 84.3175 66.7507 84.6677 66.2196Z" fill="#003A6F"/>
<path fill-rule="evenodd" clip-rule="evenodd" d="M75.9393 63.4656C76.0894 63.4409 76.3395 63.4162 76.4395 63.4162C76.6021 63.4162 76.7521 63.4409 76.7521 63.6014C76.7521 63.7002 76.5896 64.3671 76.5521 64.5153L76.2144 65.9974C76.0769 66.6025 75.9268 67.2324 75.8018 67.7387H76.6771L77.1648 65.4046C78.6654 63.8731 79.2406 63.3668 79.5907 63.3668C79.7533 63.3668 79.8533 63.4532 79.8659 63.6385C79.8784 63.9102 79.7033 64.5277 79.6408 64.7006L79.1406 66.4049C79.028 66.7878 78.9405 67.1336 78.953 67.3806C78.9655 67.7511 79.2031 67.924 79.5407 67.924C80.1785 67.924 80.6412 67.2694 81.0413 66.6272L80.9288 66.4173C80.7662 66.6766 80.3911 67.2447 80.0909 67.2447C79.9909 67.2447 79.9034 67.183 79.9034 67.0224C79.8909 66.8248 79.9784 66.5284 80.0409 66.3308L80.5911 64.3301C80.7412 63.7743 80.8162 63.4285 80.8037 63.2309C80.7912 62.8604 80.5661 62.6875 80.2285 62.6875C79.6533 62.6875 78.8905 63.0951 77.2773 64.9352H77.2523L77.4524 64.046C77.565 63.552 77.665 63.0457 77.7775 62.6999C77.2148 62.8975 76.427 63.1198 75.9268 63.2186L75.9393 63.4656Z" fill="#003A6F"/>
<path fill-rule="evenodd" clip-rule="evenodd" d="M96.2701 58.2041L99.1203 61.0542L101.97 58.2041L102.243 58.4772L99.3933 61.3273L102.243 64.1774L101.97 64.4505L99.1203 61.6004L96.2701 64.4505L95.9971 64.1774L98.8472 61.3273L95.9971 58.4772L96.2701 58.2041Z" fill="#1E1689" stroke="#1E1689"/>
<path d="M59.12 133.6L59.92 126.92L59.6 126.8C57.16 132.32 54.2 135.8 48.32 135.8C40.64 135.8 37.16 129.6 37.16 121.32C37.16 113.12 40.76 106.92 48.8 106.92C53.32 106.92 56.24 109.04 59.44 114.24L59.76 114.16L58.96 108.08C56.96 107.24 53.16 106.12 49.12 106.12C39.68 106.12 33.4 112.8 33.4 121.32C33.4 129.88 39.04 136.6 48.24 136.6C53.44 136.6 57.96 134.44 59.12 133.6ZM69.3628 134.84C67.1228 134.84 66.0828 133.64 66.0828 131.92C66.0828 128.72 70.0428 127.16 73.7628 126.52V133.16C72.8428 134.08 71.1628 134.84 69.3628 134.84ZM76.7228 136.48C78.8428 136.48 79.8828 134.96 80.2828 133.92L80.1628 133.84C79.5628 134.32 79.0028 134.68 78.2428 134.68C77.1228 134.68 76.6828 133.96 76.6828 132.96V121.2C76.6828 118.68 75.6828 116.36 71.3628 116.36C68.1628 116.36 65.5628 117.72 63.9628 119.64L64.1628 119.88C65.7228 118.72 67.7628 118.12 69.6428 118.12C72.8428 118.12 73.7628 119.8 73.7628 121.92V125.92C69.3628 126.44 63.2428 128.44 63.2428 132.84C63.2428 135.28 65.1228 136.6 67.7228 136.6C70.2828 136.6 72.4428 135.32 73.7628 133.84C73.9228 135.32 74.8428 136.48 76.7228 136.48ZM90.9325 135.88C88.8125 135.88 86.8125 134.76 85.7325 132.16V120.6C86.6525 119.44 88.4925 118.28 90.8925 118.28C94.5725 118.28 97.3725 121.04 97.3725 126.68C97.3725 132.32 94.7725 135.88 90.9325 135.88ZM81.9325 145H86.6125V144.92C85.8125 143.16 85.7325 141.56 85.7325 138.84V135.4C86.8925 136.08 88.4525 136.6 90.6525 136.6C97.3325 136.6 100.573 131.64 100.573 126.08C100.573 120.32 97.2525 116.36 92.4925 116.36C89.6125 116.36 87.2525 117.72 85.8525 119.76L85.5725 119.72V116.16L81.0525 118.28V118.36C81.9725 119.16 82.8125 120.32 82.8125 122.36V138.88C82.8125 141.6 82.6925 143.2 81.9325 144.92V145ZM107.85 109.64C107.85 108.56 106.97 107.64 105.89 107.64C104.81 107.64 103.89 108.56 103.89 109.64C103.89 110.76 104.81 111.64 105.89 111.64C106.97 111.64 107.85 110.76 107.85 109.64ZM103.69 135.92V136H108.37V135.92C107.57 134.16 107.49 132.56 107.49 129.8V116.16L102.81 118.28V118.44C103.73 119.24 104.57 120.44 104.57 122.4V129.84C104.57 132.6 104.33 134.16 103.69 135.92ZM117.486 136.6C119.726 136.6 121.366 135.48 122.166 134.4L122.086 134.24C121.646 134.52 120.486 135 119.046 135C117.006 135 116.166 133.96 116.166 132V117.68H121.766V116.96H116.166V113.32H115.966L111.086 117.52V117.68H113.246V132C113.246 135.6 115.366 136.6 117.486 136.6ZM130.261 134.84C128.021 134.84 126.981 133.64 126.981 131.92C126.981 128.72 130.941 127.16 134.661 126.52V133.16C133.741 134.08 132.061 134.84 130.261 134.84ZM137.621 136.48C139.741 136.48 140.781 134.96 141.181 133.92L141.061 133.84C140.461 134.32 139.901 134.68 139.141 134.68C138.021 134.68 137.581 133.96 137.581 132.96V121.2C137.581 118.68 136.581 116.36 132.261 116.36C129.061 116.36 126.461 117.72 124.861 119.64L125.061 119.88C126.621 118.72 128.661 118.12 130.541 118.12C133.741 118.12 134.661 119.8 134.661 121.92V125.92C130.261 126.44 124.141 128.44 124.141 132.84C124.141 135.28 126.021 136.6 128.621 136.6C131.181 136.6 133.341 135.32 134.661 133.84C134.821 135.32 135.741 136.48 137.621 136.48ZM142.751 135.92V136H147.431V135.92C146.671 134.68 146.551 133.36 146.551 130.84V104.84L141.831 106.76V106.84C142.751 107.6 143.631 108.64 143.631 110.52V130.88C143.631 133.4 143.391 134.68 142.751 135.92ZM171.911 136.6C179.911 136.6 186.791 129.92 186.791 121.4C186.791 112.84 179.911 106.12 171.911 106.12C164.031 106.12 157.111 112.84 157.111 121.4C157.111 129.92 164.031 136.6 171.911 136.6ZM171.911 135.8C164.751 135.8 160.871 129.6 160.871 121.4C160.871 113.16 164.751 106.92 171.911 106.92C179.111 106.92 183.031 113.16 183.031 121.4C183.031 129.72 179.111 135.8 171.911 135.8ZM195.167 136V135.92C194.367 134.16 194.287 132.56 194.287 129.8V120.68C195.847 119.08 197.847 118.32 199.727 118.32C202.767 118.32 203.847 120.4 203.847 122.84V129.84C203.847 132.52 203.727 134.16 202.967 135.92V136H207.647V135.92C206.807 134.2 206.767 132.64 206.767 129.8V122.2C206.767 118.56 204.807 116.36 201.127 116.36C198.447 116.36 196.167 117.68 194.287 119.92L194.127 119.88V116.16L189.607 118.28V118.36C190.527 119.16 191.367 120.32 191.367 122.36V129.84C191.367 132.6 191.247 134.2 190.487 135.92V136H195.167ZM227.378 131.16L227.178 131.04C225.778 133.08 223.458 134.04 221.018 134.04C216.498 134.04 213.938 130.84 213.938 125.44V124.76C213.938 124.52 213.938 124.28 213.978 124.08H227.298C227.618 120.36 224.618 116.36 219.978 116.36C215.338 116.36 210.898 120.44 210.898 126.8C210.898 132.56 214.418 136.6 219.698 136.6C223.658 136.6 226.378 134.32 227.378 131.16ZM219.818 117.08C222.578 117.08 224.058 118.92 224.058 122.92V123.24L214.058 123.44C214.578 119.6 216.618 117.08 219.818 117.08ZM53.68 176L55.44 168.84L55.12 168.72C52.84 171.96 50.56 174.96 47.64 175.08L38.92 175.36V161.68H43.96C45.48 161.68 46.72 164.04 47.8 165.24H48.12V157.08H47.8C46.72 158.48 45.44 160.88 43.96 160.88H38.92V147.36L47.32 147.64C48.84 147.76 50.88 150.88 52.92 153.24L53.24 153.12L51.68 146.72H34.04V146.8C35.08 148.8 35.6 150.12 35.6 152.32V170.4C35.6 172.6 35.04 173.96 34.04 175.92V176H53.68ZM58.0634 175.92V176H62.7434V175.92C61.9834 174.68 61.8634 173.36 61.8634 170.84V144.84L57.1434 146.76V146.84C58.0634 147.6 58.9434 148.64 58.9434 150.52V170.88C58.9434 173.4 58.7034 174.68 58.0634 175.92ZM82.0656 171.16L81.8656 171.04C80.4656 173.08 78.1456 174.04 75.7056 174.04C71.1856 174.04 68.6256 170.84 68.6256 165.44V164.76C68.6256 164.52 68.6256 164.28 68.6656 164.08H81.9856C82.3056 160.36 79.3056 156.36 74.6656 156.36C70.0256 156.36 65.5856 160.44 65.5856 166.8C65.5856 172.56 69.1056 176.6 74.3856 176.6C78.3456 176.6 81.0656 174.32 82.0656 171.16ZM74.5056 157.08C77.2656 157.08 78.7456 158.92 78.7456 162.92V163.24L68.7456 163.44C69.2656 159.6 71.3056 157.08 74.5056 157.08ZM90.1291 176V175.92C89.3291 174.2 89.2491 172.6 89.2491 169.88V160.76C90.4091 159.28 92.0491 158.32 94.0091 158.32C96.6891 158.32 97.2891 160.16 97.2891 162.4V169.92C97.2891 172.52 97.1691 174.2 96.4091 175.92V176H101.129V175.92C100.289 174.2 100.209 172.68 100.209 169.88V160.8C101.449 159.32 103.049 158.32 105.009 158.32C107.689 158.32 108.289 160.16 108.289 162.4V169.92C108.289 172.52 108.169 174.2 107.409 175.92V176H112.089V175.92C111.249 174.24 111.209 172.64 111.209 169.88V161.76C111.209 158.4 109.929 156.36 106.529 156.36C103.849 156.36 101.769 157.72 100.209 159.96L100.089 159.92C99.6491 157.68 98.2891 156.36 95.5291 156.36C92.8491 156.36 90.7291 157.68 89.2491 159.92L89.0891 159.88V156.12L84.5291 158.24V158.32C85.4891 159.16 86.3291 160.32 86.3291 162.4V169.92C86.3291 172.68 86.1691 174.2 85.4091 175.92V176H90.1291ZM131.792 171.16L131.592 171.04C130.192 173.08 127.872 174.04 125.432 174.04C120.912 174.04 118.352 170.84 118.352 165.44V164.76C118.352 164.52 118.352 164.28 118.392 164.08H131.712C132.032 160.36 129.032 156.36 124.392 156.36C119.752 156.36 115.312 160.44 115.312 166.8C115.312 172.56 118.832 176.6 124.112 176.6C128.072 176.6 130.792 174.32 131.792 171.16ZM124.232 157.08C126.992 157.08 128.472 158.92 128.472 162.92V163.24L118.472 163.44C118.992 159.6 121.032 157.08 124.232 157.08ZM139.816 176V175.92C139.016 174.16 138.936 172.56 138.936 169.8V160.68C140.496 159.08 142.496 158.32 144.376 158.32C147.416 158.32 148.496 160.4 148.496 162.84V169.84C148.496 172.52 148.376 174.16 147.616 175.92V176H152.296V175.92C151.456 174.2 151.416 172.64 151.416 169.8V162.2C151.416 158.56 149.456 156.36 145.776 156.36C143.096 156.36 140.816 157.68 138.936 159.92L138.776 159.88V156.16L134.256 158.28V158.36C135.176 159.16 136.016 160.32 136.016 162.36V169.84C136.016 172.6 135.896 174.2 135.136 175.92V176H139.816ZM161.431 176.6C163.671 176.6 165.311 175.48 166.111 174.4L166.031 174.24C165.591 174.52 164.431 175 162.991 175C160.951 175 160.111 173.96 160.111 172V157.68H165.711V156.96H160.111V153.32H159.911L155.031 157.52V157.68H157.191V172C157.191 175.6 159.311 176.6 161.431 176.6ZM180.282 161.04L179.882 157.12C178.802 156.68 177.002 156.36 175.242 156.36C171.882 156.36 168.482 157.68 168.482 161.56C168.482 165.28 171.642 166.6 174.282 167.64C176.962 168.72 178.962 169.68 178.962 172.08C178.962 174.04 177.602 175.88 174.682 175.88C171.962 175.88 170.082 174.36 168.442 170.84L168.162 170.92L168.562 175.48C169.962 176.08 171.762 176.6 174.122 176.6C178.562 176.6 181.362 174.68 181.362 171C181.362 167.12 178.442 165.88 175.682 164.72C172.922 163.68 170.562 162.72 170.562 160.36C170.562 158.44 172.042 157.08 174.402 157.08C176.322 157.08 178.242 157.96 180.002 161.12L180.282 161.04Z" fill="#1E1689"/>
<path d="M34.87 333.638V330.558H36.62C37.684 330.558 38.328 331.16 38.328 332.112C38.328 333.05 37.684 333.638 36.62 333.638H34.87ZM36.872 335.122C38.776 335.122 40.036 333.848 40.036 332.098C40.036 330.362 38.776 329.074 36.872 329.074H33.19V339H34.87V335.122H36.872ZM49.3965 339H51.3005L49.0605 334.912C50.4465 334.576 51.3005 333.498 51.3005 332.084C51.3005 330.404 50.1105 329.074 48.1925 329.074H44.3845V339H46.0785V335.08H47.3105L49.3965 339ZM46.0785 333.596V330.558H47.8845C48.9205 330.558 49.5925 331.16 49.5925 332.084C49.5925 332.994 48.9205 333.596 47.8845 333.596H46.0785ZM56.9452 334.03C56.9452 331.636 58.5972 330.446 60.2632 330.446C61.9432 330.446 63.5952 331.636 63.5952 334.03C63.5952 336.424 61.9432 337.614 60.2632 337.614C58.5972 337.614 56.9452 336.424 56.9452 334.03ZM55.2232 334.03C55.2232 337.292 57.6592 339.21 60.2632 339.21C62.8672 339.21 65.3172 337.292 65.3172 334.03C65.3172 330.782 62.8672 328.864 60.2632 328.864C57.6592 328.864 55.2232 330.782 55.2232 334.03ZM68.9808 336.004C68.9808 337.936 70.2128 339.21 72.1588 339.21C74.0488 339.21 75.2808 337.74 75.2808 335.976V329.074H73.6008V336.018C73.6008 337.026 73.0408 337.628 72.1448 337.628C71.2768 337.628 70.6188 337.11 70.6188 335.948V335.024L68.9808 335.36V336.004ZM86.479 339V337.432H82.027V334.8H86.059V333.274H82.027V330.642H86.479V329.074H80.347V339H86.479ZM95.6645 339.21C98.1985 339.21 99.7105 337.6 100.158 335.92L98.6185 335.416C98.2825 336.536 97.3305 337.6 95.6645 337.6C93.9705 337.6 92.3745 336.368 92.3745 334.044C92.3745 331.636 94.0125 330.446 95.6505 330.446C97.3165 330.446 98.2405 331.412 98.5345 332.616L100.116 332.084C99.6685 330.348 98.1705 328.864 95.6505 328.864C93.0745 328.864 90.6525 330.81 90.6525 334.044C90.6525 337.278 92.9905 339.21 95.6645 339.21ZM111.694 330.656V329.074H103.56V330.656H106.78V339H108.46V330.656H111.694ZM114.91 337.964C114.91 338.58 115.414 339.084 116.044 339.084C116.66 339.084 117.178 338.58 117.178 337.964C117.178 337.334 116.66 336.83 116.044 336.83C115.414 336.83 114.91 337.334 114.91 337.964ZM114.896 333.232C114.896 333.848 115.4 334.352 116.03 334.352C116.646 334.352 117.164 333.848 117.164 333.232C117.164 332.602 116.646 332.098 116.03 332.098C115.4 332.098 114.896 332.602 114.896 333.232ZM129.426 333.33C129.412 333.176 129.384 333.008 129.384 332.868C129.384 331.93 129.902 331.188 130.966 331.188C131.988 331.188 132.492 331.86 132.492 332.602C132.492 333.26 132.142 333.806 131.33 334.31L129.832 335.248C128.25 336.228 127.704 337.446 127.676 339H134.242V337.516H129.748C129.874 337.068 130.238 336.746 130.672 336.48L132.436 335.388C133.528 334.716 134.186 333.75 134.186 332.574C134.186 331.02 132.996 329.718 130.994 329.718C128.936 329.718 127.76 331.132 127.76 332.7C127.76 332.882 127.788 333.092 127.802 333.218L129.426 333.33ZM147.418 334.8V339H149.098V334.8L152.598 329.074H150.708L148.314 333.232L145.934 329.074H143.946L147.418 334.8ZM162.856 339V337.432H158.404V334.8H162.436V333.274H158.404V330.642H162.856V329.074H156.724V339H162.856ZM174.462 339H176.296L172.432 329.074H170.486L166.622 339H168.4L169.324 336.508H173.524L174.462 339ZM171.424 330.894L172.936 334.954H169.912L171.424 330.894ZM185.437 339H187.341L185.101 334.912C186.487 334.576 187.341 333.498 187.341 332.084C187.341 330.404 186.151 329.074 184.233 329.074H180.425V339H182.119V335.08H183.351L185.437 339ZM182.119 333.596V330.558H183.925C184.961 330.558 185.633 331.16 185.633 332.084C185.633 332.994 184.961 333.596 183.925 333.596H182.119ZM198.458 331.398C198.234 330.292 197.324 328.864 194.986 328.864C193.138 328.864 191.612 330.236 191.612 331.902C191.612 333.386 192.62 334.38 194.132 334.688L195.532 334.982C196.386 335.164 196.862 335.682 196.862 336.326C196.862 337.096 196.246 337.698 195.056 337.698C193.628 337.698 192.886 336.746 192.788 335.71L191.22 336.158C191.374 337.586 192.536 339.21 195.056 339.21C197.324 339.21 198.57 337.74 198.57 336.2C198.57 334.8 197.632 333.694 195.882 333.344L194.454 333.05C193.684 332.882 193.292 332.406 193.292 331.776C193.292 331.02 193.992 330.348 195 330.348C196.33 330.348 196.848 331.258 196.946 331.874L198.458 331.398ZM210.76 341.142V327.814H209.388V341.142H210.76ZM229.332 330.656V329.074H221.198V330.656H224.418V339H226.098V330.656H229.332ZM239.642 339V337.432H235.19V334.8H239.222V333.274H235.19V330.642H239.642V329.074H233.51V339H239.642ZM251.249 339H253.083L249.219 329.074H247.273L243.409 339H245.187L246.111 336.508H250.311L251.249 339ZM248.211 330.894L249.723 334.954H246.699L248.211 330.894ZM268.132 339V329.074H265.85L262.672 336.648L259.452 329.074H257.212V339H258.85V331.72L261.916 339H263.372L266.466 331.692V339H268.132ZM39.714 347.398C39.49 346.292 38.58 344.864 36.242 344.864C34.394 344.864 32.868 346.236 32.868 347.902C32.868 349.386 33.876 350.38 35.388 350.688L36.788 350.982C37.642 351.164 38.118 351.682 38.118 352.326C38.118 353.096 37.502 353.698 36.312 353.698C34.884 353.698 34.142 352.746 34.044 351.71L32.476 352.158C32.63 353.586 33.792 355.21 36.312 355.21C38.58 355.21 39.826 353.74 39.826 352.2C39.826 350.8 38.888 349.694 37.138 349.344L35.71 349.05C34.94 348.882 34.548 348.406 34.548 347.776C34.548 347.02 35.248 346.348 36.256 346.348C37.586 346.348 38.104 347.258 38.202 347.874L39.714 347.398ZM46.0789 355V345.074H44.3709V355H46.0789ZM58.3988 355V353.404H52.7568L58.3288 346.67V345.074H50.8108V346.656H56.1588L50.6568 353.348V355H58.3988ZM69.0911 355V353.432H64.6391V350.8H68.6711V349.274H64.6391V346.642H69.0911V345.074H62.9591V355H69.0911ZM73.7116 353.964C73.7116 354.58 74.2156 355.084 74.8456 355.084C75.4616 355.084 75.9796 354.58 75.9796 353.964C75.9796 353.334 75.4616 352.83 74.8456 352.83C74.2156 352.83 73.7116 353.334 73.7116 353.964ZM73.6976 349.232C73.6976 349.848 74.2016 350.352 74.8316 350.352C75.4476 350.352 75.9656 349.848 75.9656 349.232C75.9656 348.602 75.4476 348.098 74.8316 348.098C74.2016 348.098 73.6976 348.602 73.6976 349.232ZM86.4768 353.012H90.8448V355H92.4968V353.012H94.0228V351.528H92.4968V345.928H90.3408L86.4768 351.192V353.012ZM90.8448 351.528H87.9888L90.8448 347.622V351.528ZM106.174 349.638V346.558H107.924C108.988 346.558 109.632 347.16 109.632 348.112C109.632 349.05 108.988 349.638 107.924 349.638H106.174ZM108.176 351.122C110.08 351.122 111.34 349.848 111.34 348.098C111.34 346.362 110.08 345.074 108.176 345.074H104.494V355H106.174V351.122H108.176ZM121.821 355V353.432H117.369V350.8H121.401V349.274H117.369V346.642H121.821V345.074H115.689V355H121.821ZM127.716 350.03C127.716 347.636 129.368 346.446 131.034 346.446C132.714 346.446 134.366 347.636 134.366 350.03C134.366 352.424 132.714 353.614 131.034 353.614C129.368 353.614 127.716 352.424 127.716 350.03ZM125.994 350.03C125.994 353.292 128.43 355.21 131.034 355.21C133.638 355.21 136.088 353.292 136.088 350.03C136.088 346.782 133.638 344.864 131.034 344.864C128.43 344.864 125.994 346.782 125.994 350.03ZM142.342 349.638V346.558H144.092C145.156 346.558 145.8 347.16 145.8 348.112C145.8 349.05 145.156 349.638 144.092 349.638H142.342ZM144.344 351.122C146.248 351.122 147.508 349.848 147.508 348.098C147.508 346.362 146.248 345.074 144.344 345.074H140.662V355H142.342V351.122H144.344ZM158.086 355V353.404H153.536V345.074H151.856V355H158.086ZM168.554 355V353.432H164.102V350.8H168.134V349.274H164.102V346.642H168.554V345.074H162.422V355H168.554Z" fill="#1E1689" fill-opacity="0.5"/>
<path d="M86.928 308V290.984H82.416L77.424 303.272L72.312 290.984H67.944V308H71.112V296.168L76.008 308H78.768L83.664 296.072V308H86.928ZM94.8527 298.784C96.4367 298.784 97.1807 299.792 97.4687 300.776L100.325 299.816C99.8207 297.824 97.9967 295.832 94.7807 295.832C91.3487 295.832 88.6607 298.448 88.6607 302.096C88.6607 305.72 91.3967 308.36 94.8767 308.36C98.0207 308.36 99.8687 306.344 100.397 304.376L97.5887 303.44C97.3247 304.352 96.5087 305.432 94.8767 305.432C93.2447 305.432 91.8527 304.232 91.8527 302.096C91.8527 299.96 93.2207 298.784 94.8527 298.784ZM104.976 308V290.624H101.784V308H104.976ZM109.761 300.752C109.833 299.672 110.745 298.424 112.401 298.424C114.225 298.424 114.993 299.576 115.041 300.752H109.761ZM115.353 303.824C114.969 304.88 114.153 305.624 112.665 305.624C111.081 305.624 109.761 304.496 109.689 302.936H118.137C118.137 302.888 118.185 302.408 118.185 301.952C118.185 298.16 116.001 295.832 112.353 295.832C109.329 295.832 106.545 298.28 106.545 302.048C106.545 306.032 109.401 308.36 112.641 308.36C115.545 308.36 117.417 306.656 118.017 304.616L115.353 303.824ZM119.019 304.784C119.019 306.632 120.555 308.336 123.075 308.336C124.827 308.336 125.955 307.52 126.555 306.584C126.555 307.04 126.603 307.688 126.675 308H129.603C129.531 307.592 129.459 306.752 129.459 306.128V300.32C129.459 297.944 128.067 295.832 124.323 295.832C121.155 295.832 119.451 297.872 119.259 299.72L122.091 300.32C122.187 299.288 122.955 298.4 124.347 298.4C125.691 298.4 126.339 299.096 126.339 299.936C126.339 300.344 126.123 300.68 125.451 300.776L122.547 301.208C120.579 301.496 119.019 302.672 119.019 304.784ZM123.747 305.96C122.715 305.96 122.211 305.288 122.211 304.592C122.211 303.68 122.859 303.224 123.675 303.104L126.339 302.696V303.224C126.339 305.312 125.091 305.96 123.747 305.96ZM134.908 301.208C134.908 299.84 135.724 298.76 137.116 298.76C138.652 298.76 139.3 299.792 139.3 301.112V308H142.492V300.56C142.492 297.968 141.148 295.88 138.22 295.88C136.948 295.88 135.532 296.432 134.812 297.656V296.192H131.716V308H134.908V301.208ZM144.532 306.08C144.532 307.232 145.348 308.072 146.524 308.072C146.788 308.072 147.052 308 147.148 307.928C147.1 309.248 145.948 310.28 144.868 310.52V312.056C146.644 311.84 149.092 310.352 149.092 306.824C149.092 305.264 148.204 304.064 146.716 304.064C145.468 304.064 144.532 304.928 144.532 306.08ZM162.858 303.632L158.418 290.984H154.794L161.082 308H164.49L170.802 290.984H167.298L162.858 303.632ZM182.106 308H185.706L179.226 290.984H175.386L168.858 308H172.362L173.778 304.112H180.69L182.106 308ZM177.234 294.656L179.586 301.088H174.882L177.234 294.656Z" fill="#1E1689"/>
<path fill-rule="evenodd" clip-rule="evenodd" d="M50 295C50 299.6 44.73 307.69 43 310C43 310 41.5 312 41 312C40.5 312 39 310 39 310C37.27 307.69 32 299.6 32 295C32 290.029 36.0294 286 41 286C45.9706 286 50 290.029 50 295ZM41 291C38.7909 291 37 292.791 37 295C37 297.209 38.7909 299 41 299C43.2091 299 45 297.209 45 295C45 292.791 43.2091 291 41 291Z" fill="#1E1689"/>
<defs>
<linearGradient id="paint0_linear" x1="0" y1="0" x2="450.336" y2="218.992" gradientUnits="userSpaceOnUse">
<stop stop-color="#CAEEDE"/>
<stop offset="1" stop-color="#67D2A3"/>
</linearGradient>
<radialGradient id="paint1_radial" cx="0" cy="0" r="1" gradientUnits="userSpaceOnUse" gradientTransform="translate(129.064 61.9381) rotate(-5) scale(15.451 10.1066)">
<stop stop-color="#00FFA5"/>
<stop offset="1" stop-color="#4E00FF"/>
</radialGradient>
<radialGradient id="paint2_radial" cx="0" cy="0" r="1" gradientUnits="userSpaceOnUse" gradientTransform="translate(129.064 61.9379) rotate(15) scale(15.4509 10.1066)">
<stop stop-color="#00FFA5"/>
<stop offset="1" stop-color="#4E00FF"/>
</radialGradient>
<radialGradient id="paint3_radial" cx="0" cy="0" r="1" gradientUnits="userSpaceOnUse" gradientTransform="translate(129.064 61.9376) rotate(35) scale(15.451 10.1066)">
<stop stop-color="#00FFA5"/>
<stop offset="1" stop-color="#4E00FF"/>
</radialGradient>
<radialGradient id="paint4_radial" cx="0" cy="0" r="1" gradientUnits="userSpaceOnUse" gradientTransform="translate(129.064 61.9376) rotate(55) scale(15.451 10.1066)">
<stop stop-color="#00FFA5"/>
<stop offset="1" stop-color="#4E00FF"/>
</radialGradient>
<radialGradient id="paint5_radial" cx="0" cy="0" r="1" gradientUnits="userSpaceOnUse" gradientTransform="translate(129.064 61.938) rotate(75) scale(15.4509 10.1066)">
<stop stop-color="#00FFA5"/>
<stop offset="1" stop-color="#4E00FF"/>
</radialGradient>
<radialGradient id="paint6_radial" cx="0" cy="0" r="1" gradientUnits="userSpaceOnUse" gradientTransform="translate(129.064 61.9373) rotate(95) scale(15.451 10.1066)">
<stop stop-color="#00FFA5"/>
<stop offset="1" stop-color="#4E00FF"/>
</radialGradient>
<radialGradient id="paint7_radial" cx="0" cy="0" r="1" gradientUnits="userSpaceOnUse" gradientTransform="translate(129.064 61.9379) rotate(115) scale(15.451 10.1066)">
<stop stop-color="#00FFA5"/>
<stop offset="1" stop-color="#4E00FF"/>
</radialGradient>
<radialGradient id="paint8_radial" cx="0" cy="0" r="1" gradientUnits="userSpaceOnUse" gradientTransform="translate(129.064 61.9376) rotate(135) scale(15.4509 10.1066)">
<stop stop-color="#00FFA5"/>
<stop offset="1" stop-color="#4E00FF"/>
</radialGradient>
<radialGradient id="paint9_radial" cx="0" cy="0" r="1" gradientUnits="userSpaceOnUse" gradientTransform="translate(129.064 61.9382) rotate(155) scale(15.451 10.1066)">
<stop stop-color="#00FFA5"/>
<stop offset="1" stop-color="#4E00FF"/>
</radialGradient>
<radialGradient id="paint10_radial" cx="0" cy="0" r="1" gradientUnits="userSpaceOnUse" gradientTransform="translate(129.064 61.9379) rotate(175) scale(15.451 10.1066)">
<stop stop-color="#00FFA5"/>
<stop offset="1" stop-color="#4E00FF"/>
</radialGradient>
</defs>
</svg>
