<svg width="360" height="400" viewBox="0 0 360 400" fill="none" xmlns="http://www.w3.org/2000/svg">
<rect width="360" height="400" rx="20" fill="url(#paint0_linear)"/>
<path fill-rule="evenodd" clip-rule="evenodd" d="M127.769 62.3766V65.0623H131.546V65.9766H126.658V57.9766H131.523V58.8908H127.769V61.4623H131.042V62.3766H127.769Z" fill="#4E00FF" stroke="#4E00FF" stroke-width="0.727273"/>
<path fill-rule="evenodd" clip-rule="evenodd" d="M117.326 71.7421C116.894 71.7799 116.513 71.4601 116.475 71.0278L115.088 55.1706C115.05 54.7383 115.37 54.3572 115.802 54.3194L140.802 52.1322C141.234 52.0943 141.615 52.4141 141.653 52.8464L143.04 68.7037C143.078 69.136 142.758 69.5171 142.326 69.5549L117.326 71.7421Z" stroke="url(#paint1_radial)" stroke-width="0.5"/>
<path fill-rule="evenodd" clip-rule="evenodd" d="M114.68 67.137C114.261 67.0246 114.012 66.5938 114.125 66.1747L118.245 50.7992C118.357 50.3801 118.788 50.1313 119.207 50.2436L143.447 56.7387C143.866 56.8511 144.115 57.2819 144.003 57.701L139.883 73.0765C139.77 73.4956 139.34 73.7444 138.92 73.6321L114.68 67.137Z" stroke="url(#paint2_radial)" stroke-width="0.5"/>
<path fill-rule="evenodd" clip-rule="evenodd" d="M113.77 61.9038C113.414 61.6549 113.328 61.165 113.577 60.8095L122.707 47.7704C122.956 47.4149 123.446 47.3285 123.801 47.5774L144.358 61.9715C144.713 62.2204 144.8 62.7103 144.551 63.0658L135.421 76.1049C135.172 76.4603 134.682 76.5467 134.326 76.2978L113.77 61.9038Z" stroke="url(#paint3_radial)" stroke-width="0.5"/>
<path fill-rule="evenodd" clip-rule="evenodd" d="M114.704 56.6749C114.455 56.3194 114.541 55.8295 114.897 55.5806L127.936 46.4505C128.291 46.2016 128.781 46.288 129.03 46.6434L143.424 67.2003C143.673 67.5557 143.587 68.0456 143.231 68.2945L130.192 77.4246C129.836 77.6735 129.347 77.5871 129.098 77.2317L114.704 56.6749Z" stroke="url(#paint4_radial)" stroke-width="0.5"/>
<path fill-rule="evenodd" clip-rule="evenodd" d="M117.369 52.0812C117.257 51.6621 117.506 51.2312 117.925 51.1189L133.3 46.9991C133.72 46.8868 134.15 47.1355 134.263 47.5547L140.758 71.7948C140.87 72.2139 140.621 72.6448 140.202 72.7571L124.827 76.8769C124.408 76.9892 123.977 76.7405 123.864 76.3213L117.369 52.0812Z" stroke="url(#paint5_radial)" stroke-width="0.5"/>
<path fill-rule="evenodd" clip-rule="evenodd" d="M121.446 48.6753C121.484 48.243 121.865 47.9232 122.297 47.9611L138.155 49.3484C138.587 49.3862 138.907 49.7673 138.869 50.1996L136.682 75.1993C136.644 75.6316 136.263 75.9514 135.83 75.9136L119.973 74.5262C119.541 74.4884 119.221 74.1073 119.259 73.675L121.446 48.6753Z" stroke="url(#paint6_radial)" stroke-width="0.5"/>
<path fill-rule="evenodd" clip-rule="evenodd" d="M126.441 46.8703C126.625 46.477 127.092 46.3069 127.486 46.4903L141.912 53.2174C142.305 53.4008 142.475 53.8683 142.292 54.2616L131.686 77.0056C131.503 77.3989 131.035 77.569 130.642 77.3856L116.216 70.6585C115.822 70.4751 115.652 70.0076 115.836 69.6143L126.441 46.8703Z" stroke="url(#paint7_radial)" stroke-width="0.5"/>
<path fill-rule="evenodd" clip-rule="evenodd" d="M131.753 46.8818C132.06 46.5749 132.557 46.5749 132.864 46.8818L144.12 58.1374C144.427 58.4442 144.427 58.9417 144.12 59.2485L126.375 76.9935C126.068 77.3004 125.57 77.3004 125.264 76.9935L114.008 65.7379C113.701 65.4311 113.701 64.9336 114.008 64.6268L131.753 46.8818Z" stroke="url(#paint8_radial)" stroke-width="0.5"/>
<path fill-rule="evenodd" clip-rule="evenodd" d="M136.74 48.709C137.133 48.5256 137.601 48.6958 137.784 49.0891L144.511 63.5155C144.695 63.9088 144.525 64.3763 144.131 64.5597L121.387 75.1654C120.994 75.3488 120.527 75.1786 120.343 74.7853L113.616 60.3589C113.433 59.9656 113.603 59.4981 113.996 59.3147L136.74 48.709Z" stroke="url(#paint9_radial)" stroke-width="0.5"/>
<path fill-rule="evenodd" clip-rule="evenodd" d="M140.801 52.1329C141.234 52.0951 141.615 52.4149 141.652 52.8472L143.04 68.7044C143.078 69.1367 142.758 69.5178 142.326 69.5556L117.326 71.7428C116.894 71.7807 116.512 71.4609 116.475 71.0286L115.087 55.1713C115.049 54.739 115.369 54.3579 115.802 54.3201L140.801 52.1329Z" stroke="url(#paint10_radial)" stroke-width="0.5"/>
<path fill-rule="evenodd" clip-rule="evenodd" d="M68.1737 66.023C65.8978 67.6162 63.2092 69.2835 60.3206 71.0372L60.2081 71.099C60.1706 71.1237 60.158 71.1731 60.1831 71.2225C60.2081 71.2595 60.2581 71.2719 60.3081 71.2472L60.4081 71.1978C62.8591 69.9381 65.6852 68.4313 68.5113 66.8875C68.5238 66.8752 68.5363 66.8752 68.5613 66.8628C68.3988 66.6035 68.2612 66.3194 68.1737 66.023V66.023ZM83.0796 54.105C79.5031 50.2024 56.4816 53.7098 46.6903 55.8217L46.4652 55.8711C46.4151 55.8835 46.3901 55.9205 46.3901 55.9699C46.4026 56.0193 46.4402 56.044 46.4902 56.044L46.7153 55.9946C54.8184 54.5744 71.6876 52.5983 75.3265 56.1552C76.4394 57.242 76.1643 58.6376 74.8888 60.2802C75.5766 60.7248 76.0768 61.4164 76.3019 62.2809C81.3039 58.9834 84.6677 55.8464 83.0796 54.105Z" fill="#A12830"/>
<path fill-rule="evenodd" clip-rule="evenodd" d="M69.6243 64.9979C69.6743 66.3688 70.5496 67.4927 71.7001 67.4927C73.9259 67.4927 74.8638 64.8003 74.8013 62.9972C74.7513 61.6263 73.8509 60.5024 72.713 60.5024C70.7872 60.5024 69.5617 63.1824 69.6243 64.9979V64.9979ZM68.4488 64.9238C68.3613 62.5773 70.2245 60.1937 72.9256 60.1937C74.7263 60.1937 75.9142 61.3793 75.9768 63.1948C76.0643 65.6648 74.3261 67.9249 71.5 67.9249C69.6993 67.9249 68.5113 66.7393 68.4488 64.9238ZM42.9013 64.3063C42.8012 64.3433 42.6762 64.3804 42.5261 64.4051C42.376 64.4421 42.0884 64.4915 41.6883 64.5533C41.4132 64.6027 41.2131 64.6521 41.1005 64.7386C40.988 64.8127 40.9255 64.9115 40.913 65.0226C40.888 65.1461 40.9255 65.2449 41.038 65.319C41.1506 65.3931 41.3256 65.4302 41.5757 65.4302C41.7633 65.4302 41.9509 65.4055 42.1385 65.3437C42.326 65.282 42.4761 65.2079 42.6011 65.1091C42.6887 65.035 42.7512 64.9362 42.8012 64.825C42.8137 64.7386 42.8512 64.5656 42.9013 64.3063V64.3063ZM45.2522 62.8613C45.2397 63.0713 45.2022 63.2689 45.1521 63.59L44.752 65.7883C44.7145 65.9859 44.7895 66.1341 44.9771 66.2453L44.9646 66.3317H42.6887L42.6637 65.776C42.3385 65.9736 41.9384 66.1341 41.5757 66.2329C41.2131 66.3194 40.9255 66.3688 40.4878 66.3688C39.75 66.3688 39.3374 66.2947 39.0497 66.0477C38.7496 65.7883 38.6121 65.6154 38.6246 65.2573C38.6371 65.0473 38.7371 64.788 38.8997 64.6027C39.0622 64.4174 39.2748 64.2939 39.4999 64.1828C39.7375 64.0716 40.0126 63.9975 40.4128 63.9358C40.8129 63.874 41.3757 63.8123 42.1259 63.7505C42.5136 63.7135 42.7637 63.627 42.8762 63.59C43.0388 63.5282 43.0888 63.4665 43.1138 63.343C43.1514 63.1207 43.0888 62.9848 42.7762 62.9231C41.9634 62.7625 40.4253 63.0219 39.6375 63.2195L40.0626 62.0709C41.1005 61.9227 42.0884 61.8239 43.1138 61.8239C44.7395 61.8115 45.2647 62.2685 45.2522 62.8613V62.8613ZM51.8298 66.3317L52.6176 61.935H54.7934L54.0056 66.3317H51.8298ZM52.7426 60.9223C52.8051 60.5642 53.3804 60.2678 54.0306 60.2678C54.6809 60.2678 55.1436 60.5642 55.081 60.9223C55.0185 61.2805 54.4308 61.5769 53.793 61.5769C53.1428 61.5769 52.6676 61.2805 52.7426 60.9223ZM62.5215 64.3186C62.4214 64.3557 62.2964 64.3927 62.1463 64.4174C61.9963 64.4545 61.7086 64.5039 61.296 64.5656C61.0209 64.615 60.8208 64.6644 60.7083 64.7509C60.6082 64.825 60.5457 64.9238 60.5207 65.035C60.4957 65.1585 60.5457 65.2573 60.6457 65.3314C60.7583 65.4055 60.9333 65.4425 61.1959 65.4425C61.3835 65.4425 61.5711 65.4178 61.7587 65.3561C61.9462 65.2943 62.0963 65.2202 62.2213 65.1214C62.3089 65.0473 62.3714 64.9485 62.4089 64.8374C62.4339 64.7509 62.4714 64.578 62.5215 64.3186ZM64.8599 62.8737C64.8474 63.0836 64.8099 63.2812 64.7473 63.6023L64.3597 65.8007C64.3222 65.9983 64.3972 66.1465 64.5848 66.2576L64.5723 66.3317H62.2964L62.2839 65.776C61.9462 65.9736 61.5461 66.1341 61.1959 66.2329C60.8333 66.3317 60.5457 66.3688 60.108 66.3688C59.3702 66.3688 58.9576 66.2947 58.67 66.0477C58.3698 65.7883 58.2323 65.6154 58.2448 65.2573C58.2573 65.0473 58.3573 64.788 58.5199 64.6027C58.6825 64.4174 58.895 64.2939 59.1201 64.1828C59.3577 64.0716 59.6328 63.9975 60.033 63.9234C60.4331 63.8617 60.9959 63.7999 61.7462 63.7382C62.1338 63.7011 62.3714 63.6147 62.4839 63.5776C62.6465 63.5159 62.709 63.4541 62.734 63.3183C62.7716 63.096 62.6965 62.9601 62.3964 62.8984C61.5711 62.7378 60.0455 62.9972 59.2577 63.1948L59.6828 62.0462C60.7333 61.898 61.6961 61.7992 62.734 61.7992C64.3472 61.8239 64.8724 62.2809 64.8599 62.8737V62.8737ZM38.3245 64.7509C37.6117 64.8868 37.224 64.9485 36.5237 64.9485C35.4858 64.9485 34.6605 64.4421 34.698 63.5035C34.7355 62.886 35.4733 61.5645 37.3741 61.5645C37.9743 61.5645 38.437 61.6633 39.0622 62.0215L39.3374 60.5024C38.487 60.1813 37.9243 60.1319 37.1865 60.1443C34.698 60.169 32.3096 61.2805 32.022 63.5529C31.7219 65.8624 34.573 66.4429 35.836 66.4305C36.5613 66.4305 37.3241 66.3935 38.0368 66.3317L38.3245 64.7509ZM55.9939 61.9103L56.144 61.0211L58.4199 60.5271L58.1823 61.9103H59.2952L59.0826 62.7996H58.0072L57.3569 66.3317C57.3569 66.3317 55.1686 66.3194 55.1561 66.3317L55.8063 62.8119H54.981L55.1436 61.9227H55.9939V61.9103ZM67.0733 66.3317H64.8474L65.9603 60.206L68.1237 60.2678L67.0733 66.3317ZM48.9536 62.9725C48.666 62.9725 48.4159 63.0589 48.1783 63.2318C47.9532 63.4047 47.8032 63.6517 47.7532 63.9852C47.6906 64.368 47.7282 64.6397 47.8782 64.8127C48.0283 64.9856 48.2534 65.072 48.5535 65.072C48.7536 65.072 48.9536 65.035 49.1037 64.9609C49.2913 64.8621 49.4163 64.7633 49.5289 64.6027C49.6539 64.4298 49.7289 64.2445 49.7665 64.0222C49.829 63.6764 49.779 63.4171 49.6164 63.2442C49.4538 63.0589 49.2412 62.9725 48.9536 62.9725V62.9725ZM44.9896 67.8508L46.0525 61.9597H47.9657L47.8157 62.7131C47.9782 62.4908 48.2409 62.3056 48.616 62.1574C48.9786 62.0091 49.4038 61.898 49.854 61.898C50.3542 61.898 50.6543 61.9227 51.0294 62.1203C51.4046 62.3179 51.6547 62.5896 51.8048 62.9601C51.9423 63.3183 51.9798 63.7135 51.9048 64.1581C51.7797 64.8868 51.4171 65.4549 50.8294 65.8748C50.2416 66.2947 49.7164 66.4058 48.9786 66.4058C48.716 66.4058 48.491 66.3811 48.3034 66.3317C48.1283 66.2823 47.9782 66.2329 47.8657 66.1588C47.7657 66.0847 47.6531 65.9983 47.5031 65.8377L47.1529 67.8508H44.9896V67.8508ZM84.4801 63.5159C84.4676 63.1577 84.2925 62.9231 83.9174 62.9231C83.0295 62.9231 82.0792 64.6521 81.9166 65.3437C83.3672 65.3437 84.5051 64.4792 84.4801 63.5159V63.5159ZM84.6677 66.2206L84.8427 66.3317C84.4051 67.2086 83.5172 67.9126 82.4793 67.9126C81.629 67.9126 80.9287 67.3568 80.8912 66.307C80.8287 64.4298 82.6044 62.6761 84.0674 62.6761C84.6927 62.6761 85.2804 62.9478 85.3054 63.6147C85.3554 65.1091 83.2296 65.566 81.8291 65.6031C81.779 65.7636 81.7665 65.9118 81.779 66.1588C81.804 66.7763 82.1792 67.3074 82.967 67.3074C83.6423 67.2827 84.3175 66.7516 84.6677 66.2206Z" fill="#003A6F"/>
<path fill-rule="evenodd" clip-rule="evenodd" d="M75.9393 63.4656C76.0894 63.4409 76.3395 63.4162 76.4395 63.4162C76.6021 63.4162 76.7521 63.4409 76.7521 63.6014C76.7521 63.7002 76.5896 64.3671 76.5521 64.5153L76.2144 65.9974C76.0769 66.6025 75.9268 67.2324 75.8018 67.7387H76.6771L77.1648 65.4046C78.6654 63.8731 79.2406 63.3668 79.5907 63.3668C79.7533 63.3668 79.8533 63.4532 79.8659 63.6385C79.8784 63.9102 79.7033 64.5277 79.6408 64.7006L79.1406 66.4049C79.028 66.7878 78.9405 67.1336 78.953 67.3806C78.9655 67.7511 79.2031 67.924 79.5407 67.924C80.1785 67.924 80.6412 67.2694 81.0413 66.6272L80.9288 66.4173C80.7662 66.6766 80.3911 67.2447 80.0909 67.2447C79.9909 67.2447 79.9034 67.183 79.9034 67.0224C79.8909 66.8248 79.9784 66.5284 80.0409 66.3308L80.5911 64.3301C80.7412 63.7743 80.8162 63.4285 80.8037 63.2309C80.7912 62.8604 80.5661 62.6875 80.2285 62.6875C79.6533 62.6875 78.8905 63.0951 77.2773 64.9352H77.2523L77.4524 64.046C77.565 63.552 77.665 63.0457 77.7775 62.6999C77.2148 62.8975 76.427 63.1198 75.9268 63.2186L75.9393 63.4656V63.4656Z" fill="#003A6F"/>
<path fill-rule="evenodd" clip-rule="evenodd" d="M96.2701 58.2051L99.1203 61.0552L101.97 58.2051L102.243 58.4781L99.3933 61.3283L102.243 64.1784L101.97 64.4515L99.1203 61.6013L96.2701 64.4515L95.9971 64.1784L98.8472 61.3283L95.9971 58.4781L96.2701 58.2051Z" fill="#1E1689" stroke="#1E1689"/>
<path d="M59.12 133.6L59.92 126.92L59.6 126.8C57.16 132.32 54.2 135.8 48.32 135.8C40.64 135.8 37.16 129.6 37.16 121.32C37.16 113.12 40.76 106.92 48.8 106.92C53.32 106.92 56.24 109.04 59.44 114.24L59.76 114.16L58.96 108.08C56.96 107.24 53.16 106.12 49.12 106.12C39.68 106.12 33.4 112.8 33.4 121.32C33.4 129.88 39.04 136.6 48.24 136.6C53.44 136.6 57.96 134.44 59.12 133.6ZM69.3628 134.84C67.1228 134.84 66.0828 133.64 66.0828 131.92C66.0828 128.72 70.0428 127.16 73.7628 126.52V133.16C72.8428 134.08 71.1628 134.84 69.3628 134.84ZM76.7228 136.48C78.8428 136.48 79.8828 134.96 80.2828 133.92L80.1628 133.84C79.5628 134.32 79.0028 134.68 78.2428 134.68C77.1228 134.68 76.6828 133.96 76.6828 132.96V121.2C76.6828 118.68 75.6828 116.36 71.3628 116.36C68.1628 116.36 65.5628 117.72 63.9628 119.64L64.1628 119.88C65.7228 118.72 67.7628 118.12 69.6428 118.12C72.8428 118.12 73.7628 119.8 73.7628 121.92V125.92C69.3628 126.44 63.2428 128.44 63.2428 132.84C63.2428 135.28 65.1228 136.6 67.7228 136.6C70.2828 136.6 72.4428 135.32 73.7628 133.84C73.9228 135.32 74.8428 136.48 76.7228 136.48ZM90.9325 135.88C88.8125 135.88 86.8125 134.76 85.7325 132.16V120.6C86.6525 119.44 88.4925 118.28 90.8925 118.28C94.5725 118.28 97.3725 121.04 97.3725 126.68C97.3725 132.32 94.7725 135.88 90.9325 135.88ZM81.9325 145H86.6125V144.92C85.8125 143.16 85.7325 141.56 85.7325 138.84V135.4C86.8925 136.08 88.4525 136.6 90.6525 136.6C97.3325 136.6 100.573 131.64 100.573 126.08C100.573 120.32 97.2525 116.36 92.4925 116.36C89.6125 116.36 87.2525 117.72 85.8525 119.76L85.5725 119.72V116.16L81.0525 118.28V118.36C81.9725 119.16 82.8125 120.32 82.8125 122.36V138.88C82.8125 141.6 82.6925 143.2 81.9325 144.92V145ZM107.85 109.64C107.85 108.56 106.97 107.64 105.89 107.64C104.81 107.64 103.89 108.56 103.89 109.64C103.89 110.76 104.81 111.64 105.89 111.64C106.97 111.64 107.85 110.76 107.85 109.64ZM103.69 135.92V136H108.37V135.92C107.57 134.16 107.49 132.56 107.49 129.8V116.16L102.81 118.28V118.44C103.73 119.24 104.57 120.44 104.57 122.4V129.84C104.57 132.6 104.33 134.16 103.69 135.92ZM117.486 136.6C119.726 136.6 121.366 135.48 122.166 134.4L122.086 134.24C121.646 134.52 120.486 135 119.046 135C117.006 135 116.166 133.96 116.166 132V117.68H121.766V116.96H116.166V113.32H115.966L111.086 117.52V117.68H113.246V132C113.246 135.6 115.366 136.6 117.486 136.6ZM130.261 134.84C128.021 134.84 126.981 133.64 126.981 131.92C126.981 128.72 130.941 127.16 134.661 126.52V133.16C133.741 134.08 132.061 134.84 130.261 134.84ZM137.621 136.48C139.741 136.48 140.781 134.96 141.181 133.92L141.061 133.84C140.461 134.32 139.901 134.68 139.141 134.68C138.021 134.68 137.581 133.96 137.581 132.96V121.2C137.581 118.68 136.581 116.36 132.261 116.36C129.061 116.36 126.461 117.72 124.861 119.64L125.061 119.88C126.621 118.72 128.661 118.12 130.541 118.12C133.741 118.12 134.661 119.8 134.661 121.92V125.92C130.261 126.44 124.141 128.44 124.141 132.84C124.141 135.28 126.021 136.6 128.621 136.6C131.181 136.6 133.341 135.32 134.661 133.84C134.821 135.32 135.741 136.48 137.621 136.48ZM142.751 135.92V136H147.431V135.92C146.671 134.68 146.551 133.36 146.551 130.84V104.84L141.831 106.76V106.84C142.751 107.6 143.631 108.64 143.631 110.52V130.88C143.631 133.4 143.391 134.68 142.751 135.92ZM171.911 136.6C179.911 136.6 186.791 129.92 186.791 121.4C186.791 112.84 179.911 106.12 171.911 106.12C164.031 106.12 157.111 112.84 157.111 121.4C157.111 129.92 164.031 136.6 171.911 136.6ZM171.911 135.8C164.751 135.8 160.871 129.6 160.871 121.4C160.871 113.16 164.751 106.92 171.911 106.92C179.111 106.92 183.031 113.16 183.031 121.4C183.031 129.72 179.111 135.8 171.911 135.8ZM195.167 136V135.92C194.367 134.16 194.287 132.56 194.287 129.8V120.68C195.847 119.08 197.847 118.32 199.727 118.32C202.767 118.32 203.847 120.4 203.847 122.84V129.84C203.847 132.52 203.727 134.16 202.967 135.92V136H207.647V135.92C206.807 134.2 206.767 132.64 206.767 129.8V122.2C206.767 118.56 204.807 116.36 201.127 116.36C198.447 116.36 196.167 117.68 194.287 119.92L194.127 119.88V116.16L189.607 118.28V118.36C190.527 119.16 191.367 120.32 191.367 122.36V129.84C191.367 132.6 191.247 134.2 190.487 135.92V136H195.167ZM227.378 131.16L227.178 131.04C225.778 133.08 223.458 134.04 221.018 134.04C216.498 134.04 213.938 130.84 213.938 125.44V124.76C213.938 124.52 213.938 124.28 213.978 124.08H227.298C227.618 120.36 224.618 116.36 219.978 116.36C215.338 116.36 210.898 120.44 210.898 126.8C210.898 132.56 214.418 136.6 219.698 136.6C223.658 136.6 226.378 134.32 227.378 131.16ZM219.818 117.08C222.578 117.08 224.058 118.92 224.058 122.92V123.24L214.058 123.44C214.578 119.6 216.618 117.08 219.818 117.08ZM53.68 176L55.44 168.84L55.12 168.72C52.84 171.96 50.56 174.96 47.64 175.08L38.92 175.36V161.68H43.96C45.48 161.68 46.72 164.04 47.8 165.24H48.12V157.08H47.8C46.72 158.48 45.44 160.88 43.96 160.88H38.92V147.36L47.32 147.64C48.84 147.76 50.88 150.88 52.92 153.24L53.24 153.12L51.68 146.72H34.04V146.8C35.08 148.8 35.6 150.12 35.6 152.32V170.4C35.6 172.6 35.04 173.96 34.04 175.92V176H53.68ZM58.0634 175.92V176H62.7434V175.92C61.9834 174.68 61.8634 173.36 61.8634 170.84V144.84L57.1434 146.76V146.84C58.0634 147.6 58.9434 148.64 58.9434 150.52V170.88C58.9434 173.4 58.7034 174.68 58.0634 175.92ZM82.0656 171.16L81.8656 171.04C80.4656 173.08 78.1456 174.04 75.7056 174.04C71.1856 174.04 68.6256 170.84 68.6256 165.44V164.76C68.6256 164.52 68.6256 164.28 68.6656 164.08H81.9856C82.3056 160.36 79.3056 156.36 74.6656 156.36C70.0256 156.36 65.5856 160.44 65.5856 166.8C65.5856 172.56 69.1056 176.6 74.3856 176.6C78.3456 176.6 81.0656 174.32 82.0656 171.16ZM74.5056 157.08C77.2656 157.08 78.7456 158.92 78.7456 162.92V163.24L68.7456 163.44C69.2656 159.6 71.3056 157.08 74.5056 157.08ZM90.1291 176V175.92C89.3291 174.2 89.2491 172.6 89.2491 169.88V160.76C90.4091 159.28 92.0491 158.32 94.0091 158.32C96.6891 158.32 97.2891 160.16 97.2891 162.4V169.92C97.2891 172.52 97.1691 174.2 96.4091 175.92V176H101.129V175.92C100.289 174.2 100.209 172.68 100.209 169.88V160.8C101.449 159.32 103.049 158.32 105.009 158.32C107.689 158.32 108.289 160.16 108.289 162.4V169.92C108.289 172.52 108.169 174.2 107.409 175.92V176H112.089V175.92C111.249 174.24 111.209 172.64 111.209 169.88V161.76C111.209 158.4 109.929 156.36 106.529 156.36C103.849 156.36 101.769 157.72 100.209 159.96L100.089 159.92C99.6491 157.68 98.2891 156.36 95.5291 156.36C92.8491 156.36 90.7291 157.68 89.2491 159.92L89.0891 159.88V156.12L84.5291 158.24V158.32C85.4891 159.16 86.3291 160.32 86.3291 162.4V169.92C86.3291 172.68 86.1691 174.2 85.4091 175.92V176H90.1291ZM131.792 171.16L131.592 171.04C130.192 173.08 127.872 174.04 125.432 174.04C120.912 174.04 118.352 170.84 118.352 165.44V164.76C118.352 164.52 118.352 164.28 118.392 164.08H131.712C132.032 160.36 129.032 156.36 124.392 156.36C119.752 156.36 115.312 160.44 115.312 166.8C115.312 172.56 118.832 176.6 124.112 176.6C128.072 176.6 130.792 174.32 131.792 171.16ZM124.232 157.08C126.992 157.08 128.472 158.92 128.472 162.92V163.24L118.472 163.44C118.992 159.6 121.032 157.08 124.232 157.08ZM139.816 176V175.92C139.016 174.16 138.936 172.56 138.936 169.8V160.68C140.496 159.08 142.496 158.32 144.376 158.32C147.416 158.32 148.496 160.4 148.496 162.84V169.84C148.496 172.52 148.376 174.16 147.616 175.92V176H152.296V175.92C151.456 174.2 151.416 172.64 151.416 169.8V162.2C151.416 158.56 149.456 156.36 145.776 156.36C143.096 156.36 140.816 157.68 138.936 159.92L138.776 159.88V156.16L134.256 158.28V158.36C135.176 159.16 136.016 160.32 136.016 162.36V169.84C136.016 172.6 135.896 174.2 135.136 175.92V176H139.816ZM161.431 176.6C163.671 176.6 165.311 175.48 166.111 174.4L166.031 174.24C165.591 174.52 164.431 175 162.991 175C160.951 175 160.111 173.96 160.111 172V157.68H165.711V156.96H160.111V153.32H159.911L155.031 157.52V157.68H157.191V172C157.191 175.6 159.311 176.6 161.431 176.6ZM180.282 161.04L179.882 157.12C178.802 156.68 177.002 156.36 175.242 156.36C171.882 156.36 168.482 157.68 168.482 161.56C168.482 165.28 171.642 166.6 174.282 167.64C176.962 168.72 178.962 169.68 178.962 172.08C178.962 174.04 177.602 175.88 174.682 175.88C171.962 175.88 170.082 174.36 168.442 170.84L168.162 170.92L168.562 175.48C169.962 176.08 171.762 176.6 174.122 176.6C178.562 176.6 181.362 174.68 181.362 171C181.362 167.12 178.442 165.88 175.682 164.72C172.922 163.68 170.562 162.72 170.562 160.36C170.562 158.44 172.042 157.08 174.402 157.08C176.322 157.08 178.242 157.96 180.002 161.12L180.282 161.04Z" fill="#1E1689"/>
<path d="M35.304 333.526V330.992H36.592C37.432 330.992 38.006 331.468 38.006 332.266C38.006 333.036 37.432 333.526 36.592 333.526H35.304ZM36.816 335.43C38.832 335.43 40.218 334.128 40.218 332.252C40.218 330.404 38.832 329.074 36.816 329.074H33.078V339H35.29V335.43H36.816ZM49.1696 339H51.6056L49.5896 334.982C50.8076 334.548 51.5496 333.526 51.5496 332.182C51.5496 330.418 50.2896 329.074 48.3296 329.074H44.3956V339H46.6076V335.304H47.3916L49.1696 339ZM46.6076 333.4V330.992H47.9096C48.8196 330.992 49.3096 331.454 49.3096 332.196C49.3096 332.896 48.8196 333.4 47.9096 333.4H46.6076ZM57.6402 334.03C57.6402 331.958 59.1242 331.02 60.5102 331.02C61.8822 331.02 63.3662 331.958 63.3662 334.03C63.3662 336.102 61.8822 337.026 60.5102 337.026C59.1242 337.026 57.6402 336.102 57.6402 334.03ZM55.3442 334.044C55.3442 337.18 57.7102 339.21 60.5102 339.21C63.2962 339.21 65.6622 337.18 65.6622 334.044C65.6622 330.894 63.2962 328.864 60.5102 328.864C57.7102 328.864 55.3442 330.894 55.3442 334.044ZM69.2405 335.934C69.2405 337.908 70.5985 339.21 72.5585 339.21C74.5325 339.21 75.9185 337.698 75.9185 335.892V329.074H73.7065V335.836C73.7065 336.578 73.2725 337.11 72.5445 337.11C71.9005 337.11 71.3405 336.704 71.3405 335.822V334.912L69.2405 335.276V335.934ZM87.0956 339V336.9H83.0076V334.996H86.7036V333.05H83.0076V331.16H87.0816V329.074H80.7956V339H87.0956ZM96.322 339.21C99.402 339.21 100.718 337.11 101.04 335.738L98.926 335.136C98.73 335.85 98.044 336.998 96.322 336.998C94.838 336.998 93.466 335.92 93.466 334.058C93.466 331.972 94.964 331.02 96.294 331.02C98.044 331.02 98.674 332.182 98.828 332.868L100.914 332.21C100.592 330.782 99.276 328.864 96.294 328.864C93.522 328.864 91.17 330.964 91.17 334.058C91.17 337.152 93.466 339.21 96.322 339.21ZM112.74 331.188V329.074H104.41V331.188H107.462V339H109.674V331.188H112.74ZM116.001 337.726C116.001 338.468 116.631 339.126 117.401 339.126C118.157 339.126 118.801 338.468 118.801 337.726C118.801 336.956 118.157 336.326 117.401 336.326C116.631 336.326 116.001 336.956 116.001 337.726ZM116.001 333.316C116.001 334.058 116.631 334.716 117.401 334.716C118.157 334.716 118.801 334.058 118.801 333.316C118.801 332.546 118.157 331.916 117.401 331.916C116.631 331.916 116.001 332.546 116.001 333.316ZM131.35 333.554C131.294 333.372 131.266 333.176 131.266 332.994C131.266 332.238 131.686 331.65 132.54 331.65C133.352 331.65 133.758 332.154 133.758 332.728C133.758 333.33 133.478 333.708 132.764 334.128L131.28 334.996C129.614 335.962 129.138 337.334 129.138 339H136.04V337.152H131.84C131.966 336.886 132.19 336.704 132.456 336.536L134.178 335.514C135.34 334.828 135.97 333.862 135.97 332.686C135.97 331.062 134.682 329.704 132.596 329.704C130.412 329.704 129.194 331.16 129.194 332.784C129.194 333.064 129.236 333.428 129.278 333.54L131.35 333.554ZM149.044 334.856V339H151.256V334.856L154.742 329.074H152.278L150.22 332.756L148.19 329.074H145.6L149.044 334.856ZM165.058 339V336.9H160.97V334.996H164.666V333.05H160.97V331.16H165.044V329.074H158.758V339H165.058ZM176.37 339H178.778L175.082 329.074H172.52L168.782 339H171.106L171.82 336.984H175.656L176.37 339ZM173.766 331.538L174.956 334.968H172.548L173.766 331.538ZM187.575 339H190.011L187.995 334.982C189.213 334.548 189.955 333.526 189.955 332.182C189.955 330.418 188.695 329.074 186.735 329.074H182.801V339H185.013V335.304H185.797L187.575 339ZM185.013 333.4V330.992H186.315C187.225 330.992 187.715 331.454 187.715 332.196C187.715 332.896 187.225 333.4 186.315 333.4H185.013ZM201.224 331.51C201.014 330.348 200.076 328.864 197.598 328.864C195.694 328.864 194.042 330.18 194.042 332.056C194.042 333.526 195.064 334.646 196.744 334.968L198.102 335.22C198.76 335.346 199.166 335.71 199.166 336.214C199.166 336.83 198.634 337.25 197.766 337.25C196.408 337.25 195.792 336.452 195.708 335.542L193.678 336.032C193.818 337.432 194.994 339.21 197.738 339.21C200.104 339.21 201.406 337.628 201.406 336.074C201.406 334.66 200.426 333.442 198.536 333.092L197.206 332.84C196.52 332.714 196.226 332.364 196.226 331.888C196.226 331.342 196.758 330.824 197.584 330.824C198.788 330.824 199.166 331.608 199.236 332.07L201.224 331.51ZM213.733 341.268V327.478H211.969V341.268H213.733ZM232.442 331.188V329.074H224.112V331.188H227.164V339H229.376V331.188H232.442ZM242.884 339V336.9H238.796V334.996H242.492V333.05H238.796V331.16H242.87V329.074H236.584V339H242.884ZM254.196 339H256.604L252.908 329.074H250.346L246.608 339H248.932L249.646 336.984H253.482L254.196 339ZM251.592 331.538L252.782 334.968H250.374L251.592 331.538ZM271.869 339V329.074H268.831L266.241 335.78L263.511 329.074H260.627V339H262.727V332.504L265.317 339H267.109L269.699 332.42V339H271.869ZM39.91 347.51C39.7 346.348 38.762 344.864 36.284 344.864C34.38 344.864 32.728 346.18 32.728 348.056C32.728 349.526 33.75 350.646 35.43 350.968L36.788 351.22C37.446 351.346 37.852 351.71 37.852 352.214C37.852 352.83 37.32 353.25 36.452 353.25C35.094 353.25 34.478 352.452 34.394 351.542L32.364 352.032C32.504 353.432 33.68 355.21 36.424 355.21C38.79 355.21 40.092 353.628 40.092 352.074C40.092 350.66 39.112 349.442 37.222 349.092L35.892 348.84C35.206 348.714 34.912 348.364 34.912 347.888C34.912 347.342 35.444 346.824 36.27 346.824C37.474 346.824 37.852 347.608 37.922 348.07L39.91 347.51ZM46.6493 355V345.074H44.4093V355H46.6493ZM58.9059 355V352.886H53.9499L58.8499 347.118V345.074H51.2339V347.188H55.8119L51.0239 352.872V355H58.9059ZM69.7077 355V352.9H65.6197V350.996H69.3157V349.05H65.6197V347.16H69.6937V345.074H63.4077V355H69.7077ZM74.1458 353.726C74.1458 354.468 74.7758 355.126 75.5458 355.126C76.3018 355.126 76.9458 354.468 76.9458 353.726C76.9458 352.956 76.3018 352.326 75.5458 352.326C74.7758 352.326 74.1458 352.956 74.1458 353.726ZM74.1458 349.316C74.1458 350.058 74.7758 350.716 75.5458 350.716C76.3018 350.716 76.9458 350.058 76.9458 349.316C76.9458 348.546 76.3018 347.916 75.5458 347.916C74.7758 347.916 74.1458 348.546 74.1458 349.316ZM87.2828 353.11H91.4828V355H93.6948V353.11H95.1508V351.262H93.6948V345.914H91.0628L87.2828 350.87V353.11ZM91.4828 351.262H89.2008L91.4828 348.266V351.262ZM107.716 349.526V346.992H109.004C109.844 346.992 110.418 347.468 110.418 348.266C110.418 349.036 109.844 349.526 109.004 349.526H107.716ZM109.228 351.43C111.244 351.43 112.63 350.128 112.63 348.252C112.63 346.404 111.244 345.074 109.228 345.074H105.49V355H107.702V351.43H109.228ZM123.107 355V352.9H119.019V350.996H122.715V349.05H119.019V347.16H123.093V345.074H116.807V355H123.107ZM129.478 350.03C129.478 347.958 130.962 347.02 132.348 347.02C133.72 347.02 135.204 347.958 135.204 350.03C135.204 352.102 133.72 353.026 132.348 353.026C130.962 353.026 129.478 352.102 129.478 350.03ZM127.182 350.044C127.182 353.18 129.548 355.21 132.348 355.21C135.134 355.21 137.5 353.18 137.5 350.044C137.5 346.894 135.134 344.864 132.348 344.864C129.548 344.864 127.182 346.894 127.182 350.044ZM144.102 349.526V346.992H145.39C146.23 346.992 146.804 347.468 146.804 348.266C146.804 349.036 146.23 349.526 145.39 349.526H144.102ZM145.614 351.43C147.63 351.43 149.016 350.128 149.016 348.252C149.016 346.404 147.63 345.074 145.614 345.074H141.876V355H144.088V351.43H145.614ZM159.69 355V352.886H155.406V345.074H153.194V355H159.69ZM170.223 355V352.9H166.135V350.996H169.831V349.05H166.135V347.16H170.209V345.074H163.923V355H170.223Z" fill="#1E1689" fill-opacity="0.5"/>
<path d="M86.928 308V290.984H82.416L77.424 303.272L72.312 290.984H67.944V308H71.112V296.168L76.008 308H78.768L83.664 296.072V308H86.928ZM94.8527 298.784C96.4367 298.784 97.1807 299.792 97.4687 300.776L100.325 299.816C99.8207 297.824 97.9967 295.832 94.7807 295.832C91.3487 295.832 88.6607 298.448 88.6607 302.096C88.6607 305.72 91.3967 308.36 94.8767 308.36C98.0207 308.36 99.8687 306.344 100.397 304.376L97.5887 303.44C97.3247 304.352 96.5087 305.432 94.8767 305.432C93.2447 305.432 91.8527 304.232 91.8527 302.096C91.8527 299.96 93.2207 298.784 94.8527 298.784ZM104.976 308V290.624H101.784V308H104.976ZM109.761 300.752C109.833 299.672 110.745 298.424 112.401 298.424C114.225 298.424 114.993 299.576 115.041 300.752H109.761ZM115.353 303.824C114.969 304.88 114.153 305.624 112.665 305.624C111.081 305.624 109.761 304.496 109.689 302.936H118.137C118.137 302.888 118.185 302.408 118.185 301.952C118.185 298.16 116.001 295.832 112.353 295.832C109.329 295.832 106.545 298.28 106.545 302.048C106.545 306.032 109.401 308.36 112.641 308.36C115.545 308.36 117.417 306.656 118.017 304.616L115.353 303.824ZM119.019 304.784C119.019 306.632 120.555 308.336 123.075 308.336C124.827 308.336 125.955 307.52 126.555 306.584C126.555 307.04 126.603 307.688 126.675 308H129.603C129.531 307.592 129.459 306.752 129.459 306.128V300.32C129.459 297.944 128.067 295.832 124.323 295.832C121.155 295.832 119.451 297.872 119.259 299.72L122.091 300.32C122.187 299.288 122.955 298.4 124.347 298.4C125.691 298.4 126.339 299.096 126.339 299.936C126.339 300.344 126.123 300.68 125.451 300.776L122.547 301.208C120.579 301.496 119.019 302.672 119.019 304.784ZM123.747 305.96C122.715 305.96 122.211 305.288 122.211 304.592C122.211 303.68 122.859 303.224 123.675 303.104L126.339 302.696V303.224C126.339 305.312 125.091 305.96 123.747 305.96ZM134.908 301.208C134.908 299.84 135.724 298.76 137.116 298.76C138.652 298.76 139.3 299.792 139.3 301.112V308H142.492V300.56C142.492 297.968 141.148 295.88 138.22 295.88C136.948 295.88 135.532 296.432 134.812 297.656V296.192H131.716V308H134.908V301.208ZM144.532 306.08C144.532 307.232 145.348 308.072 146.524 308.072C146.788 308.072 147.052 308 147.148 307.928C147.1 309.248 145.948 310.28 144.868 310.52V312.056C146.644 311.84 149.092 310.352 149.092 306.824C149.092 305.264 148.204 304.064 146.716 304.064C145.468 304.064 144.532 304.928 144.532 306.08ZM162.858 303.632L158.418 290.984H154.794L161.082 308H164.49L170.802 290.984H167.298L162.858 303.632ZM182.106 308H185.706L179.226 290.984H175.386L168.858 308H172.362L173.778 304.112H180.69L182.106 308ZM177.234 294.656L179.586 301.088H174.882L177.234 294.656Z" fill="#1E1689"/>
<path fill-rule="evenodd" clip-rule="evenodd" d="M50 295C50 299.6 44.73 307.69 43 310C43 310 41.5 312 41 312C40.5 312 39 310 39 310C37.27 307.69 32 299.6 32 295C32 290.029 36.0294 286 41 286C45.9706 286 50 290.029 50 295ZM41 291C38.7909 291 37 292.791 37 295C37 297.209 38.7909 299 41 299C43.2091 299 45 297.209 45 295C45 292.791 43.2091 291 41 291Z" fill="#1E1689"/>
<defs>
<linearGradient id="paint0_linear" x1="0" y1="0" x2="450.336" y2="218.992" gradientUnits="userSpaceOnUse">
<stop stop-color="#CAEEDE"/>
<stop offset="1" stop-color="#67D2A3"/>
</linearGradient>
<radialGradient id="paint1_radial" cx="0" cy="0" r="1" gradientUnits="userSpaceOnUse" gradientTransform="translate(129.064 61.9371) rotate(-5) scale(15.451 10.1066)">
<stop stop-color="#00FFA5"/>
<stop offset="1" stop-color="#4E00FF"/>
</radialGradient>
<radialGradient id="paint2_radial" cx="0" cy="0" r="1" gradientUnits="userSpaceOnUse" gradientTransform="translate(129.064 61.9379) rotate(15) scale(15.4509 10.1066)">
<stop stop-color="#00FFA5"/>
<stop offset="1" stop-color="#4E00FF"/>
</radialGradient>
<radialGradient id="paint3_radial" cx="0" cy="0" r="1" gradientUnits="userSpaceOnUse" gradientTransform="translate(129.064 61.9376) rotate(35) scale(15.451 10.1066)">
<stop stop-color="#00FFA5"/>
<stop offset="1" stop-color="#4E00FF"/>
</radialGradient>
<radialGradient id="paint4_radial" cx="0" cy="0" r="1" gradientUnits="userSpaceOnUse" gradientTransform="translate(129.064 61.9376) rotate(55) scale(15.451 10.1066)">
<stop stop-color="#00FFA5"/>
<stop offset="1" stop-color="#4E00FF"/>
</radialGradient>
<radialGradient id="paint5_radial" cx="0" cy="0" r="1" gradientUnits="userSpaceOnUse" gradientTransform="translate(129.064 61.938) rotate(75) scale(15.4509 10.1066)">
<stop stop-color="#00FFA5"/>
<stop offset="1" stop-color="#4E00FF"/>
</radialGradient>
<radialGradient id="paint6_radial" cx="0" cy="0" r="1" gradientUnits="userSpaceOnUse" gradientTransform="translate(129.064 61.9373) rotate(95) scale(15.451 10.1066)">
<stop stop-color="#00FFA5"/>
<stop offset="1" stop-color="#4E00FF"/>
</radialGradient>
<radialGradient id="paint7_radial" cx="0" cy="0" r="1" gradientUnits="userSpaceOnUse" gradientTransform="translate(129.064 61.9379) rotate(115) scale(15.451 10.1066)">
<stop stop-color="#00FFA5"/>
<stop offset="1" stop-color="#4E00FF"/>
</radialGradient>
<radialGradient id="paint8_radial" cx="0" cy="0" r="1" gradientUnits="userSpaceOnUse" gradientTransform="translate(129.064 61.9376) rotate(135) scale(15.4509 10.1066)">
<stop stop-color="#00FFA5"/>
<stop offset="1" stop-color="#4E00FF"/>
</radialGradient>
<radialGradient id="paint9_radial" cx="0" cy="0" r="1" gradientUnits="userSpaceOnUse" gradientTransform="translate(129.064 61.9372) rotate(155) scale(15.451 10.1066)">
<stop stop-color="#00FFA5"/>
<stop offset="1" stop-color="#4E00FF"/>
</radialGradient>
<radialGradient id="paint10_radial" cx="0" cy="0" r="1" gradientUnits="userSpaceOnUse" gradientTransform="translate(129.064 61.9379) rotate(175) scale(15.451 10.1066)">
<stop stop-color="#00FFA5"/>
<stop offset="1" stop-color="#4E00FF"/>
</radialGradient>
</defs>
</svg>
