<svg width="360" height="222" viewBox="0 0 360 222" fill="none" xmlns="http://www.w3.org/2000/svg">
<g id="Group 25 Copy 6">
<g id="Group 23">
<rect id="Mask" width="360" height="222" rx="20" fill="white"/>
<mask id="mask0" mask-type="alpha" maskUnits="userSpaceOnUse" x="0" y="0" width="360" height="222">
<rect id="Mask_2" width="360" height="222" rx="20" fill="white"/>
</mask>
<g mask="url(#mask0)">
<g id="Group 23_2">
<rect id="Rectangle" width="360" height="222" fill="#AEE6CD"/>
<path id="Gradient BG Copy" fill-rule="evenodd" clip-rule="evenodd" d="M0 0H360V54.5L0 168.5L0 0Z" fill="#CAEEDE"/>
</g>
</g>
</g>
<g id="Group 147">
<g id="Group 15">
<g id="Group 11">
<g id="Group 27 Copy 9">
<path id="E" fill-rule="evenodd" clip-rule="evenodd" d="M127.768 46.4391V49.1248H131.546V50.0391H126.658V42.0391H131.523V42.9533H127.768V45.5248H131.042V46.4391H127.768Z" fill="#4E00FF" stroke="#4E00FF" stroke-width="0.727273"/>
<g id="Group 44 Copy 2">
<path id="Rectangle 12" fill-rule="evenodd" clip-rule="evenodd" d="M117.326 55.8046C116.894 55.8424 116.513 55.5226 116.475 55.0903L115.087 39.2331C115.05 38.8008 115.369 38.4197 115.802 38.3819L140.801 36.1947C141.234 36.1568 141.615 36.4766 141.653 36.9089L143.04 52.7662C143.078 53.1985 142.758 53.5796 142.326 53.6174L117.326 55.8046Z" stroke="url(#paint0_radial)" stroke-width="0.5"/>
<path id="Rectangle 12_2" fill-rule="evenodd" clip-rule="evenodd" d="M114.68 51.1995C114.261 51.0871 114.012 50.6563 114.125 50.2372L118.245 34.8617C118.357 34.4426 118.788 34.1938 119.207 34.3061L143.447 40.8012C143.866 40.9136 144.115 41.3444 144.003 41.7635L139.883 57.139C139.77 57.5581 139.34 57.8069 138.92 57.6946L114.68 51.1995Z" stroke="url(#paint1_radial)" stroke-width="0.5"/>
<path id="Rectangle 12_3" fill-rule="evenodd" clip-rule="evenodd" d="M113.77 45.9663C113.414 45.7174 113.328 45.2275 113.577 44.872L122.707 31.8329C122.956 31.4774 123.445 31.391 123.801 31.6399L144.358 46.034C144.713 46.2829 144.8 46.7728 144.551 47.1283L135.421 60.1674C135.172 60.5228 134.682 60.6092 134.326 60.3603L113.77 45.9663Z" stroke="url(#paint2_radial)" stroke-width="0.5"/>
<path id="Rectangle 12_4" fill-rule="evenodd" clip-rule="evenodd" d="M114.703 40.7374C114.455 40.3819 114.541 39.892 114.896 39.6431L127.936 30.513C128.291 30.2641 128.781 30.3505 129.03 30.7059L143.424 51.2628C143.673 51.6182 143.586 52.1081 143.231 52.357L130.192 61.4871C129.836 61.736 129.346 61.6496 129.097 61.2942L114.703 40.7374Z" stroke="url(#paint3_radial)" stroke-width="0.5"/>
<path id="Rectangle 12_5" fill-rule="evenodd" clip-rule="evenodd" d="M117.369 36.1437C117.257 35.7246 117.506 35.2937 117.925 35.1814L133.3 31.0616C133.72 30.9493 134.15 31.198 134.263 31.6172L140.758 55.8573C140.87 56.2764 140.621 56.7073 140.202 56.8196L124.827 60.9394C124.408 61.0517 123.977 60.803 123.865 60.3838L117.369 36.1437Z" stroke="url(#paint4_radial)" stroke-width="0.5"/>
<path id="Rectangle 12_6" fill-rule="evenodd" clip-rule="evenodd" d="M121.446 32.7378C121.484 32.3055 121.865 31.9857 122.297 32.0236L138.154 33.4109C138.587 33.4487 138.906 33.8298 138.869 34.2621L136.681 59.2618C136.644 59.6941 136.262 60.0139 135.83 59.9761L119.973 58.5887C119.541 58.5509 119.221 58.1698 119.259 57.7375L121.446 32.7378Z" stroke="url(#paint5_radial)" stroke-width="0.5"/>
<path id="Rectangle 12_7" fill-rule="evenodd" clip-rule="evenodd" d="M126.441 30.9328C126.625 30.5395 127.092 30.3694 127.485 30.5528L141.912 37.2799C142.305 37.4633 142.475 37.9308 142.292 38.3241L131.686 61.0681C131.503 61.4614 131.035 61.6315 130.642 61.4481L116.215 54.721C115.822 54.5376 115.652 54.0701 115.835 53.6768L126.441 30.9328Z" stroke="url(#paint6_radial)" stroke-width="0.5"/>
<path id="Rectangle 12_8" fill-rule="evenodd" clip-rule="evenodd" d="M131.753 30.9443C132.06 30.6374 132.557 30.6374 132.864 30.9443L144.12 42.1999C144.426 42.5067 144.426 43.0042 144.12 43.311L126.375 61.056C126.068 61.3629 125.57 61.3629 125.263 61.056L114.008 49.8004C113.701 49.4936 113.701 48.9961 114.008 48.6893L131.753 30.9443Z" stroke="url(#paint7_radial)" stroke-width="0.5"/>
<path id="Rectangle 12_9" fill-rule="evenodd" clip-rule="evenodd" d="M136.74 32.7715C137.133 32.5881 137.601 32.7583 137.784 33.1516L144.511 47.578C144.695 47.9713 144.525 48.4388 144.131 48.6222L121.387 59.2279C120.994 59.4113 120.526 59.2411 120.343 58.8478L113.616 44.4214C113.433 44.0281 113.603 43.5606 113.996 43.3772L136.74 32.7715Z" stroke="url(#paint8_radial)" stroke-width="0.5"/>
<path id="Rectangle 12_10" fill-rule="evenodd" clip-rule="evenodd" d="M140.801 36.1954C141.234 36.1576 141.615 36.4774 141.653 36.9097L143.04 52.7669C143.078 53.1992 142.758 53.5803 142.326 53.6181L117.326 55.8053C116.894 55.8432 116.513 55.5234 116.475 55.0911L115.087 39.2338C115.05 38.8015 115.369 38.4204 115.802 38.3826L140.801 36.1954Z" stroke="url(#paint9_radial)" stroke-width="0.5"/>
</g>
</g>
<g id="capital-one-logo (1)">
<path id="Shape" fill-rule="evenodd" clip-rule="evenodd" d="M68.1737 50.0855C65.8978 51.6787 63.2092 53.346 60.3206 55.0997L60.2081 55.1615C60.1705 55.1862 60.158 55.2356 60.183 55.285C60.2081 55.322 60.2581 55.3344 60.3081 55.3097L60.4081 55.2603C62.8591 54.0006 65.6852 52.4938 68.5113 50.95C68.5238 50.9377 68.5363 50.9377 68.5613 50.9253C68.3988 50.666 68.2612 50.3819 68.1737 50.0855ZM83.0795 38.1675C79.5031 34.2649 56.4816 37.7723 46.6902 39.8842L46.4652 39.9336C46.4151 39.946 46.3901 39.983 46.3901 40.0324C46.4026 40.0818 46.4401 40.1065 46.4902 40.1065L46.7152 40.0571C54.8184 38.6369 71.6876 36.6608 75.3265 40.2177C76.4394 41.3045 76.1643 42.7001 74.8888 44.3427C75.5766 44.7873 76.0768 45.4789 76.3019 46.3434C81.3038 43.0459 84.6677 39.9089 83.0795 38.1675Z" fill="#A12830"/>
<g id="Group">
<path id="Shape_2" fill-rule="evenodd" clip-rule="evenodd" d="M69.6243 49.0604C69.6743 50.4313 70.5496 51.5552 71.7001 51.5552C73.9259 51.5552 74.8638 48.8628 74.8013 47.0597C74.7513 45.6888 73.8509 44.5649 72.713 44.5649C70.7872 44.5649 69.5617 47.2449 69.6243 49.0604ZM68.4488 48.9863C68.3613 46.6398 70.2245 44.2562 72.9256 44.2562C74.7263 44.2562 75.9142 45.4418 75.9768 47.2573C76.0643 49.7273 74.3261 51.9874 71.5 51.9874C69.6993 51.9874 68.5113 50.8018 68.4488 48.9863ZM42.9013 48.3688C42.8012 48.4058 42.6762 48.4429 42.5261 48.4676C42.376 48.5046 42.0884 48.554 41.6883 48.6158C41.4132 48.6652 41.2131 48.7146 41.1005 48.8011C40.988 48.8752 40.9255 48.974 40.913 49.0851C40.888 49.2086 40.9255 49.3074 41.038 49.3815C41.1506 49.4556 41.3256 49.4927 41.5757 49.4927C41.7633 49.4927 41.9509 49.468 42.1385 49.4062C42.326 49.3445 42.4761 49.2704 42.6011 49.1716C42.6887 49.0975 42.7512 48.9987 42.8012 48.8875C42.8137 48.8011 42.8512 48.6281 42.9013 48.3688ZM45.2522 46.9238C45.2397 47.1338 45.2022 47.3314 45.1521 47.6525L44.752 49.8508C44.7145 50.0484 44.7895 50.1966 44.9771 50.3078L44.9646 50.3942H42.6887L42.6637 49.8385C42.3385 50.0361 41.9384 50.1966 41.5757 50.2954C41.2131 50.3819 40.9255 50.4313 40.4878 50.4313C39.75 50.4313 39.3374 50.3572 39.0497 50.1102C38.7496 49.8508 38.6121 49.6779 38.6246 49.3198C38.6371 49.1098 38.7371 48.8505 38.8997 48.6652C39.0622 48.4799 39.2748 48.3564 39.4999 48.2453C39.7375 48.1341 40.0126 48.06 40.4128 47.9983C40.8129 47.9365 41.3757 47.8748 42.1259 47.813C42.5136 47.776 42.7637 47.6895 42.8762 47.6525C43.0388 47.5907 43.0888 47.529 43.1138 47.4055C43.1514 47.1832 43.0888 47.0473 42.7762 46.9856C41.9634 46.825 40.4253 47.0844 39.6375 47.282L40.0626 46.1334C41.1005 45.9852 42.0884 45.8864 43.1138 45.8864C44.7395 45.874 45.2647 46.331 45.2522 46.9238ZM51.8298 50.3942L52.6176 45.9975H54.7934L54.0056 50.3942H51.8298ZM52.7426 44.9848C52.8051 44.6267 53.3804 44.3303 54.0306 44.3303C54.6809 44.3303 55.1436 44.6267 55.081 44.9848C55.0185 45.343 54.4308 45.6394 53.793 45.6394C53.1428 45.6394 52.6676 45.343 52.7426 44.9848ZM62.5215 48.3811C62.4214 48.4182 62.2964 48.4552 62.1463 48.4799C61.9963 48.517 61.7086 48.5664 61.296 48.6281C61.0209 48.6775 60.8208 48.7269 60.7083 48.8134C60.6082 48.8875 60.5457 48.9863 60.5207 49.0975C60.4957 49.221 60.5457 49.3198 60.6457 49.3939C60.7583 49.468 60.9333 49.505 61.1959 49.505C61.3835 49.505 61.5711 49.4803 61.7587 49.4186C61.9462 49.3568 62.0963 49.2827 62.2213 49.1839C62.3089 49.1098 62.3714 49.011 62.4089 48.8999C62.4339 48.8134 62.4714 48.6405 62.5215 48.3811ZM64.8599 46.9362C64.8474 47.1461 64.8099 47.3437 64.7473 47.6648L64.3597 49.8632C64.3222 50.0608 64.3972 50.209 64.5848 50.3201L64.5723 50.3942H62.2964L62.2839 49.8385C61.9462 50.0361 61.5461 50.1966 61.1959 50.2954C60.8333 50.3942 60.5457 50.4313 60.108 50.4313C59.3702 50.4313 58.9576 50.3572 58.67 50.1102C58.3698 49.8508 58.2323 49.6779 58.2448 49.3198C58.2573 49.1098 58.3573 48.8505 58.5199 48.6652C58.6825 48.4799 58.895 48.3564 59.1201 48.2453C59.3577 48.1341 59.6328 48.06 60.033 47.9859C60.4331 47.9242 60.9959 47.8624 61.7462 47.8007C62.1338 47.7636 62.3714 47.6772 62.4839 47.6401C62.6465 47.5784 62.709 47.5166 62.734 47.3808C62.7716 47.1585 62.6965 47.0226 62.3964 46.9609C61.5711 46.8003 60.0455 47.0597 59.2577 47.2573L59.6828 46.1087C60.7333 45.9605 61.6961 45.8617 62.734 45.8617C64.3472 45.8864 64.8724 46.3434 64.8599 46.9362ZM38.3245 48.8134C37.6117 48.9493 37.224 49.011 36.5237 49.011C35.4858 49.011 34.6605 48.5046 34.698 47.566C34.7355 46.9485 35.4733 45.627 37.3741 45.627C37.9743 45.627 38.437 45.7258 39.0622 46.084L39.3374 44.5649C38.487 44.2438 37.9243 44.1944 37.1865 44.2068C34.698 44.2315 32.3096 45.343 32.022 47.6154C31.7219 49.9249 34.573 50.5054 35.836 50.493C36.5613 50.493 37.3241 50.456 38.0368 50.3942L38.3245 48.8134ZM55.9939 45.9728L56.144 45.0836L58.4199 44.5896L58.1823 45.9728H59.2952L59.0826 46.8621H58.0072L57.3569 50.3942C57.3569 50.3942 55.1686 50.3819 55.1561 50.3942L55.8063 46.8744H54.981L55.1436 45.9852H55.9939V45.9728ZM67.0733 50.3942H64.8474L65.9603 44.2685L68.1237 44.3303L67.0733 50.3942ZM48.9536 47.035C48.666 47.035 48.4159 47.1214 48.1783 47.2943C47.9532 47.4672 47.8032 47.7142 47.7532 48.0477C47.6906 48.4305 47.7282 48.7022 47.8782 48.8752C48.0283 49.0481 48.2534 49.1345 48.5535 49.1345C48.7536 49.1345 48.9536 49.0975 49.1037 49.0234C49.2913 48.9246 49.4163 48.8258 49.5289 48.6652C49.6539 48.4923 49.7289 48.307 49.7665 48.0847C49.829 47.7389 49.779 47.4796 49.6164 47.3067C49.4538 47.1214 49.2412 47.035 48.9536 47.035ZM44.9896 51.9133L46.0525 46.0222H47.9657L47.8157 46.7756C47.9782 46.5533 48.2409 46.3681 48.616 46.2199C48.9786 46.0716 49.4038 45.9605 49.854 45.9605C50.3542 45.9605 50.6543 45.9852 51.0294 46.1828C51.4046 46.3804 51.6547 46.6521 51.8048 47.0226C51.9423 47.3808 51.9798 47.776 51.9048 48.2206C51.7797 48.9493 51.4171 49.5174 50.8294 49.9373C50.2416 50.3572 49.7164 50.4683 48.9786 50.4683C48.716 50.4683 48.4909 50.4436 48.3034 50.3942C48.1283 50.3448 47.9782 50.2954 47.8657 50.2213C47.7657 50.1472 47.6531 50.0608 47.5031 49.9002L47.1529 51.9133H44.9896ZM84.4801 47.5784C84.4676 47.2202 84.2925 46.9856 83.9174 46.9856C83.0295 46.9856 82.0792 48.7146 81.9166 49.4062C83.3672 49.4062 84.5051 48.5417 84.4801 47.5784ZM84.6677 50.2831L84.8427 50.3942C84.4051 51.2711 83.5172 51.9751 82.4793 51.9751C81.629 51.9751 80.9287 51.4193 80.8912 50.3695C80.8287 48.4923 82.6044 46.7386 84.0674 46.7386C84.6927 46.7386 85.2804 47.0103 85.3054 47.6772C85.3554 49.1716 83.2296 49.6285 81.8291 49.6656C81.779 49.8261 81.7665 49.9743 81.779 50.2213C81.804 50.8388 82.1792 51.3699 82.967 51.3699C83.6423 51.3452 84.3175 50.8141 84.6677 50.2831Z" fill="#003A6F"/>
<path id="Shape_3" fill-rule="evenodd" clip-rule="evenodd" d="M75.9392 47.5281C76.0893 47.5034 76.3394 47.4787 76.4394 47.4787C76.602 47.4787 76.7521 47.5034 76.7521 47.6639C76.7521 47.7627 76.5895 48.4296 76.552 48.5778L76.2143 50.0599C76.0768 50.665 75.9267 51.2949 75.8017 51.8012H76.677L77.1647 49.4671C78.6653 47.9356 79.2405 47.4293 79.5907 47.4293C79.7532 47.4293 79.8533 47.5157 79.8658 47.701C79.8783 47.9727 79.7032 48.5902 79.6407 48.7631L79.1405 50.4674C79.0279 50.8503 78.9404 51.1961 78.9529 51.4431C78.9654 51.8136 79.203 51.9865 79.5407 51.9865C80.1784 51.9865 80.6411 51.3319 81.0412 50.6897L80.9287 50.4798C80.7661 50.7391 80.391 51.3072 80.0909 51.3072C79.9908 51.3072 79.9033 51.2455 79.9033 51.0849C79.8908 50.8873 79.9783 50.5909 80.0408 50.3933L80.5911 48.3926C80.7411 47.8368 80.8162 47.491 80.8036 47.2934C80.7911 46.9229 80.5661 46.75 80.2284 46.75C79.6532 46.75 78.8904 47.1576 77.2773 48.9977H77.2523L77.4523 48.1085C77.5649 47.6145 77.6649 47.1082 77.7775 46.7624C77.2147 46.96 76.4269 47.1823 75.9267 47.2811L75.9392 47.5281Z" fill="#003A6F"/>
</g>
</g>
<g id="Group 5">
<path id="Close" fill-rule="evenodd" clip-rule="evenodd" d="M96.27 42.2676L99.1202 45.1177L101.97 42.2676L102.243 42.5406L99.3932 45.3908L102.243 48.2409L101.97 48.514L99.1202 45.6638L96.27 48.514L95.997 48.2409L98.8471 45.3908L95.997 42.5406L96.27 42.2676Z" fill="#1E1689" stroke="#1E1689"/>
</g>
</g>
</g>
<path id="Capital One Elements" d="M59.12 118.6L59.92 111.92L59.6 111.8C57.16 117.32 54.2 120.8 48.32 120.8C40.64 120.8 37.16 114.6 37.16 106.32C37.16 98.12 40.76 91.92 48.8 91.92C53.32 91.92 56.24 94.04 59.44 99.24L59.76 99.16L58.96 93.08C56.96 92.24 53.16 91.12 49.12 91.12C39.68 91.12 33.4 97.8 33.4 106.32C33.4 114.88 39.04 121.6 48.24 121.6C53.44 121.6 57.96 119.44 59.12 118.6ZM69.3628 119.84C67.1228 119.84 66.0828 118.64 66.0828 116.92C66.0828 113.72 70.0428 112.16 73.7628 111.52V118.16C72.8428 119.08 71.1628 119.84 69.3628 119.84ZM76.7228 121.48C78.8428 121.48 79.8828 119.96 80.2828 118.92L80.1628 118.84C79.5628 119.32 79.0028 119.68 78.2428 119.68C77.1228 119.68 76.6828 118.96 76.6828 117.96V106.2C76.6828 103.68 75.6828 101.36 71.3628 101.36C68.1628 101.36 65.5628 102.72 63.9628 104.64L64.1628 104.88C65.7228 103.72 67.7628 103.12 69.6428 103.12C72.8428 103.12 73.7628 104.8 73.7628 106.92V110.92C69.3628 111.44 63.2428 113.44 63.2428 117.84C63.2428 120.28 65.1228 121.6 67.7228 121.6C70.2828 121.6 72.4428 120.32 73.7628 118.84C73.9228 120.32 74.8428 121.48 76.7228 121.48ZM90.9325 120.88C88.8125 120.88 86.8125 119.76 85.7325 117.16V105.6C86.6525 104.44 88.4925 103.28 90.8925 103.28C94.5725 103.28 97.3725 106.04 97.3725 111.68C97.3725 117.32 94.7725 120.88 90.9325 120.88ZM81.9325 130H86.6125V129.92C85.8125 128.16 85.7325 126.56 85.7325 123.84V120.4C86.8925 121.08 88.4525 121.6 90.6525 121.6C97.3325 121.6 100.573 116.64 100.573 111.08C100.573 105.32 97.2525 101.36 92.4925 101.36C89.6125 101.36 87.2525 102.72 85.8525 104.76L85.5725 104.72V101.16L81.0525 103.28V103.36C81.9725 104.16 82.8125 105.32 82.8125 107.36V123.88C82.8125 126.6 82.6925 128.2 81.9325 129.92V130ZM107.85 94.64C107.85 93.56 106.97 92.64 105.89 92.64C104.81 92.64 103.89 93.56 103.89 94.64C103.89 95.76 104.81 96.64 105.89 96.64C106.97 96.64 107.85 95.76 107.85 94.64ZM103.69 120.92V121H108.37V120.92C107.57 119.16 107.49 117.56 107.49 114.8V101.16L102.81 103.28V103.44C103.73 104.24 104.57 105.44 104.57 107.4V114.84C104.57 117.6 104.33 119.16 103.69 120.92ZM117.486 121.6C119.726 121.6 121.366 120.48 122.166 119.4L122.086 119.24C121.646 119.52 120.486 120 119.046 120C117.006 120 116.166 118.96 116.166 117V102.68H121.766V101.96H116.166V98.32H115.966L111.086 102.52V102.68H113.246V117C113.246 120.6 115.366 121.6 117.486 121.6ZM130.261 119.84C128.021 119.84 126.981 118.64 126.981 116.92C126.981 113.72 130.941 112.16 134.661 111.52V118.16C133.741 119.08 132.061 119.84 130.261 119.84ZM137.621 121.48C139.741 121.48 140.781 119.96 141.181 118.92L141.061 118.84C140.461 119.32 139.901 119.68 139.141 119.68C138.021 119.68 137.581 118.96 137.581 117.96V106.2C137.581 103.68 136.581 101.36 132.261 101.36C129.061 101.36 126.461 102.72 124.861 104.64L125.061 104.88C126.621 103.72 128.661 103.12 130.541 103.12C133.741 103.12 134.661 104.8 134.661 106.92V110.92C130.261 111.44 124.141 113.44 124.141 117.84C124.141 120.28 126.021 121.6 128.621 121.6C131.181 121.6 133.341 120.32 134.661 118.84C134.821 120.32 135.741 121.48 137.621 121.48ZM142.751 120.92V121H147.431V120.92C146.671 119.68 146.551 118.36 146.551 115.84V89.84L141.831 91.76V91.84C142.751 92.6 143.631 93.64 143.631 95.52V115.88C143.631 118.4 143.391 119.68 142.751 120.92ZM171.911 121.6C179.911 121.6 186.791 114.92 186.791 106.4C186.791 97.84 179.911 91.12 171.911 91.12C164.031 91.12 157.111 97.84 157.111 106.4C157.111 114.92 164.031 121.6 171.911 121.6ZM171.911 120.8C164.751 120.8 160.871 114.6 160.871 106.4C160.871 98.16 164.751 91.92 171.911 91.92C179.111 91.92 183.031 98.16 183.031 106.4C183.031 114.72 179.111 120.8 171.911 120.8ZM195.167 121V120.92C194.367 119.16 194.287 117.56 194.287 114.8V105.68C195.847 104.08 197.847 103.32 199.727 103.32C202.767 103.32 203.847 105.4 203.847 107.84V114.84C203.847 117.52 203.727 119.16 202.967 120.92V121H207.647V120.92C206.807 119.2 206.767 117.64 206.767 114.8V107.2C206.767 103.56 204.807 101.36 201.127 101.36C198.447 101.36 196.167 102.68 194.287 104.92L194.127 104.88V101.16L189.607 103.28V103.36C190.527 104.16 191.367 105.32 191.367 107.36V114.84C191.367 117.6 191.247 119.2 190.487 120.92V121H195.167ZM227.378 116.16L227.178 116.04C225.778 118.08 223.458 119.04 221.018 119.04C216.498 119.04 213.938 115.84 213.938 110.44V109.76C213.938 109.52 213.938 109.28 213.978 109.08H227.298C227.618 105.36 224.618 101.36 219.978 101.36C215.338 101.36 210.898 105.44 210.898 111.8C210.898 117.56 214.418 121.6 219.698 121.6C223.658 121.6 226.378 119.32 227.378 116.16ZM219.818 102.08C222.578 102.08 224.058 103.92 224.058 107.92V108.24L214.058 108.44C214.578 104.6 216.618 102.08 219.818 102.08ZM53.68 161L55.44 153.84L55.12 153.72C52.84 156.96 50.56 159.96 47.64 160.08L38.92 160.36V146.68H43.96C45.48 146.68 46.72 149.04 47.8 150.24H48.12V142.08H47.8C46.72 143.48 45.44 145.88 43.96 145.88H38.92V132.36L47.32 132.64C48.84 132.76 50.88 135.88 52.92 138.24L53.24 138.12L51.68 131.72H34.04V131.8C35.08 133.8 35.6 135.12 35.6 137.32V155.4C35.6 157.6 35.04 158.96 34.04 160.92V161H53.68ZM58.0634 160.92V161H62.7434V160.92C61.9834 159.68 61.8634 158.36 61.8634 155.84V129.84L57.1434 131.76V131.84C58.0634 132.6 58.9434 133.64 58.9434 135.52V155.88C58.9434 158.4 58.7034 159.68 58.0634 160.92ZM82.0656 156.16L81.8656 156.04C80.4656 158.08 78.1456 159.04 75.7056 159.04C71.1856 159.04 68.6256 155.84 68.6256 150.44V149.76C68.6256 149.52 68.6256 149.28 68.6656 149.08H81.9856C82.3056 145.36 79.3056 141.36 74.6656 141.36C70.0256 141.36 65.5856 145.44 65.5856 151.8C65.5856 157.56 69.1056 161.6 74.3856 161.6C78.3456 161.6 81.0656 159.32 82.0656 156.16ZM74.5056 142.08C77.2656 142.08 78.7456 143.92 78.7456 147.92V148.24L68.7456 148.44C69.2656 144.6 71.3056 142.08 74.5056 142.08ZM90.1291 161V160.92C89.3291 159.2 89.2491 157.6 89.2491 154.88V145.76C90.4091 144.28 92.0491 143.32 94.0091 143.32C96.6891 143.32 97.2891 145.16 97.2891 147.4V154.92C97.2891 157.52 97.1691 159.2 96.4091 160.92V161H101.129V160.92C100.289 159.2 100.209 157.68 100.209 154.88V145.8C101.449 144.32 103.049 143.32 105.009 143.32C107.689 143.32 108.289 145.16 108.289 147.4V154.92C108.289 157.52 108.169 159.2 107.409 160.92V161H112.089V160.92C111.249 159.24 111.209 157.64 111.209 154.88V146.76C111.209 143.4 109.929 141.36 106.529 141.36C103.849 141.36 101.769 142.72 100.209 144.96L100.089 144.92C99.6491 142.68 98.2891 141.36 95.5291 141.36C92.8491 141.36 90.7291 142.68 89.2491 144.92L89.0891 144.88V141.12L84.5291 143.24V143.32C85.4891 144.16 86.3291 145.32 86.3291 147.4V154.92C86.3291 157.68 86.1691 159.2 85.4091 160.92V161H90.1291ZM131.792 156.16L131.592 156.04C130.192 158.08 127.872 159.04 125.432 159.04C120.912 159.04 118.352 155.84 118.352 150.44V149.76C118.352 149.52 118.352 149.28 118.392 149.08H131.712C132.032 145.36 129.032 141.36 124.392 141.36C119.752 141.36 115.312 145.44 115.312 151.8C115.312 157.56 118.832 161.6 124.112 161.6C128.072 161.6 130.792 159.32 131.792 156.16ZM124.232 142.08C126.992 142.08 128.472 143.92 128.472 147.92V148.24L118.472 148.44C118.992 144.6 121.032 142.08 124.232 142.08ZM139.816 161V160.92C139.016 159.16 138.936 157.56 138.936 154.8V145.68C140.496 144.08 142.496 143.32 144.376 143.32C147.416 143.32 148.496 145.4 148.496 147.84V154.84C148.496 157.52 148.376 159.16 147.616 160.92V161H152.296V160.92C151.456 159.2 151.416 157.64 151.416 154.8V147.2C151.416 143.56 149.456 141.36 145.776 141.36C143.096 141.36 140.816 142.68 138.936 144.92L138.776 144.88V141.16L134.256 143.28V143.36C135.176 144.16 136.016 145.32 136.016 147.36V154.84C136.016 157.6 135.896 159.2 135.136 160.92V161H139.816ZM161.431 161.6C163.671 161.6 165.311 160.48 166.111 159.4L166.031 159.24C165.591 159.52 164.431 160 162.991 160C160.951 160 160.111 158.96 160.111 157V142.68H165.711V141.96H160.111V138.32H159.911L155.031 142.52V142.68H157.191V157C157.191 160.6 159.311 161.6 161.431 161.6ZM180.282 146.04L179.882 142.12C178.802 141.68 177.002 141.36 175.242 141.36C171.882 141.36 168.482 142.68 168.482 146.56C168.482 150.28 171.642 151.6 174.282 152.64C176.962 153.72 178.962 154.68 178.962 157.08C178.962 159.04 177.602 160.88 174.682 160.88C171.962 160.88 170.082 159.36 168.442 155.84L168.162 155.92L168.562 160.48C169.962 161.08 171.762 161.6 174.122 161.6C178.562 161.6 181.362 159.68 181.362 156C181.362 152.12 178.442 150.88 175.682 149.72C172.922 148.68 170.562 147.72 170.562 145.36C170.562 143.44 172.042 142.08 174.402 142.08C176.322 142.08 178.242 142.96 180.002 146.12L180.282 146.04Z" fill="#1E1689"/>
</g>
</g>
<defs>
<radialGradient id="paint0_radial" cx="0" cy="0" r="1" gradientUnits="userSpaceOnUse" gradientTransform="translate(129.064 45.9996) rotate(-5) scale(15.451 10.1066)">
<stop stop-color="#00FFA5"/>
<stop offset="1" stop-color="#4E00FF"/>
</radialGradient>
<radialGradient id="paint1_radial" cx="0" cy="0" r="1" gradientUnits="userSpaceOnUse" gradientTransform="translate(129.064 46.0004) rotate(15) scale(15.4509 10.1066)">
<stop stop-color="#00FFA5"/>
<stop offset="1" stop-color="#4E00FF"/>
</radialGradient>
<radialGradient id="paint2_radial" cx="0" cy="0" r="1" gradientUnits="userSpaceOnUse" gradientTransform="translate(129.064 46.0001) rotate(35) scale(15.451 10.1066)">
<stop stop-color="#00FFA5"/>
<stop offset="1" stop-color="#4E00FF"/>
</radialGradient>
<radialGradient id="paint3_radial" cx="0" cy="0" r="1" gradientUnits="userSpaceOnUse" gradientTransform="translate(129.064 46.0001) rotate(55) scale(15.451 10.1066)">
<stop stop-color="#00FFA5"/>
<stop offset="1" stop-color="#4E00FF"/>
</radialGradient>
<radialGradient id="paint4_radial" cx="0" cy="0" r="1" gradientUnits="userSpaceOnUse" gradientTransform="translate(129.064 46.0005) rotate(75) scale(15.4509 10.1066)">
<stop stop-color="#00FFA5"/>
<stop offset="1" stop-color="#4E00FF"/>
</radialGradient>
<radialGradient id="paint5_radial" cx="0" cy="0" r="1" gradientUnits="userSpaceOnUse" gradientTransform="translate(129.064 45.9998) rotate(95) scale(15.451 10.1066)">
<stop stop-color="#00FFA5"/>
<stop offset="1" stop-color="#4E00FF"/>
</radialGradient>
<radialGradient id="paint6_radial" cx="0" cy="0" r="1" gradientUnits="userSpaceOnUse" gradientTransform="translate(129.064 46.0004) rotate(115) scale(15.451 10.1066)">
<stop stop-color="#00FFA5"/>
<stop offset="1" stop-color="#4E00FF"/>
</radialGradient>
<radialGradient id="paint7_radial" cx="0" cy="0" r="1" gradientUnits="userSpaceOnUse" gradientTransform="translate(129.064 46.0001) rotate(135) scale(15.4509 10.1066)">
<stop stop-color="#00FFA5"/>
<stop offset="1" stop-color="#4E00FF"/>
</radialGradient>
<radialGradient id="paint8_radial" cx="0" cy="0" r="1" gradientUnits="userSpaceOnUse" gradientTransform="translate(129.064 45.9997) rotate(155) scale(15.451 10.1066)">
<stop stop-color="#00FFA5"/>
<stop offset="1" stop-color="#4E00FF"/>
</radialGradient>
<radialGradient id="paint9_radial" cx="0" cy="0" r="1" gradientUnits="userSpaceOnUse" gradientTransform="translate(129.064 46.0004) rotate(175) scale(15.451 10.1066)">
<stop stop-color="#00FFA5"/>
<stop offset="1" stop-color="#4E00FF"/>
</radialGradient>
</defs>
</svg>
