<?xml version="1.0" encoding="UTF-8"?>
<svg width="343px" height="222px" viewBox="0 0 343 222" version="1.1" xmlns="http://www.w3.org/2000/svg" xmlns:xlink="http://www.w3.org/1999/xlink">
    <!-- Generator: Sketch 63.1 (92452) - https://sketch.com -->
    <title>Group 25 Copy 10</title>
    <desc>Created with Sketch.</desc>
    <defs>
        <rect id="path-1" x="0" y="0" width="343" height="222" rx="20"></rect>
    </defs>
    <g id="V3" stroke="none" stroke-width="1" fill="none" fill-rule="evenodd">
        <g id="Intro-Copy-7" transform="translate(-548.000000, -5113.000000)">
            <g id="Group-42-Copy-2" transform="translate(165.000000, 4211.000000)">
                <g id="Group-25-Copy-10" transform="translate(383.000000, 902.000000)">
                    <g id="Group-23">
                        <mask id="mask-2" fill="white">
                            <use xlink:href="#path-1"></use>
                        </mask>
                        <use id="Mask" fill="#FFFFFF" xlink:href="#path-1"></use>
                        <g mask="url(#mask-2)">
                            <rect id="Rectangle" fill="#F8D592" x="0" y="0" width="343" height="222"></rect>
                            <polygon id="Gradient-BG-Copy" fill="#FAE1B0" points="-2.38004061e-15 0 343 0 343 54.5 0 168.5"></polygon>
                        </g>
                    </g>
                    <path d="M41.5984283,58.2 L43.9119843,64.371108 L46.0998035,58.2 L47.7469548,58.2 L50.4,67 L48.664833,67 L46.8165029,60.6067321 L44.6035363,67 L43.2581532,67 L40.9445972,60.7178121 L39.3603143,67 L37.6,67 L39.9387033,58.2 L41.5984283,58.2 Z M33.1416348,52.0358525 L34.3101868,53.2095074 L31.512744,59.2911737 L37.4794416,56.3926018 L38.639141,57.5573653 L34.1951021,65.7729496 L32.9734341,64.5459468 L36.2577736,58.6332157 L30.1140226,61.6740488 L29.1667873,60.722677 L32.0439041,54.5609888 L26.4224605,57.9663663 L25.1830871,56.7215808 L33.1416348,52.0358525 Z M54.8583652,52.0358525 L62.8169129,56.7215808 L61.5775395,57.9663663 L55.9560959,54.5609888 L58.8332127,60.722677 L57.8859774,61.6740488 L51.7422264,58.6332157 L55.0265659,64.5459468 L53.8048979,65.7729496 L49.360859,57.5573653 L50.5205584,56.3926018 L56.487256,59.2911737 L53.6898132,53.2095074 L54.8583652,52.0358525 Z M24,40.6 L32.8,43.2530452 L32.8,44.9001965 L26.628892,47.0880157 L32.8,49.4015717 L32.8,51.0612967 L24,53.4 L24,51.6396857 L30.2821879,50.0554028 L24,47.7418468 L24,46.3964637 L30.3932679,44.1834971 L24,42.335167 L24,40.6 Z M64,40.6 L64,42.335167 L57.6067321,44.1834971 L64,46.3964637 L64,47.7418468 L57.7178121,50.0554028 L64,51.6396857 L64,53.4 L55.2,51.0612967 L55.2,49.4015717 L61.371108,47.0880157 L55.2,44.9001965 L55.2,43.2530452 L64,40.6 Z M34.1951021,28.0977927 L38.639141,36.313377 L37.4794416,37.4781406 L31.512744,34.5795687 L34.3101868,40.6612349 L33.1416348,41.8348898 L25.1830871,37.1491616 L26.4224605,35.9043761 L32.0439041,39.3097536 L29.1667873,33.1480653 L30.1140226,32.1966936 L36.2577736,35.2375267 L32.9734341,29.3247956 L34.1951021,28.0977927 Z M53.8048979,28.0977927 L55.0265659,29.3247956 L51.7422264,35.2375267 L57.8859774,32.1966936 L58.8332127,33.1480653 L55.9560959,39.3097536 L61.5775395,35.9043761 L62.8169129,37.1491616 L54.8583652,41.8348898 L53.6898132,40.6612349 L56.487256,34.5795687 L50.5205584,37.4781406 L49.360859,36.313377 L53.8048979,28.0977927 Z M39.3603143,27 L40.9445972,33.2821879 L43.2581532,27 L44.6035363,27 L46.8165029,33.3932679 L48.664833,27 L50.4,27 L47.7469548,35.8 L46.0998035,35.8 L43.9119843,29.628892 L41.5984283,35.8 L39.9387033,35.8 L37.6,27 L39.3603143,27 Z" id="Combined-Shape" fill="#A9859C" fill-rule="nonzero"></path>
                    <text id="Freelance-Projects" font-family="CircularStd-Medium, Circular Std" font-size="36" font-weight="400" fill="#A9859C">
                        <tspan x="24" y="129">Freelance </tspan>
                        <tspan x="24" y="175">Projects</tspan>
                    </text>
                </g>
            </g>
        </g>
    </g>
</svg>