<svg width="360" height="400" viewBox="0 0 360 400" fill="none" xmlns="http://www.w3.org/2000/svg">
<rect width="360" height="400" rx="20" fill="url(#paint0_linear)"/>
<path fill-rule="evenodd" clip-rule="evenodd" d="M49.5984 50.8L51.912 44.6289L54.0998 50.8H55.747L58.4 42H56.6648L54.8165 48.3933L52.6035 42H51.2582L48.9446 48.2822L47.3603 42H45.6L47.9387 50.8H49.5984ZM39.5127 49.5796L42.3102 55.6612L41.1416 56.8349L33.1831 52.1492L34.4225 50.9044L40.0439 54.3098L37.1668 48.1481L38.114 47.1967L44.2578 50.2375L40.9734 44.3248L42.1951 43.0978L46.6391 51.3134L45.4794 52.4781L39.5127 49.5796ZM39.5127 74.2912L42.3102 68.2095L41.1416 67.0359L33.1831 71.7216L34.4225 72.9664L40.0439 69.561L37.1668 75.7227L38.114 76.674L44.2578 73.6332L40.9734 79.5459L42.1951 80.7729L46.6391 72.5574L45.4794 71.3926L39.5127 74.2912ZM51.912 79.3711L49.5984 73.2H47.9387L45.6 82H47.3603L48.9446 75.7178L51.2582 82H52.6035L54.8165 75.6067L56.6648 82H58.4L55.747 73.2H54.0998L51.912 79.3711ZM40.8 64.4016L34.6289 62.088L40.8 59.9002V58.253L32 55.6V57.3352L38.3933 59.1835L32 61.3965V62.7418L38.2822 65.0554L32 66.6397V68.4L40.8 66.0613V64.4016ZM64.4873 49.5796L61.6898 55.6612L62.8584 56.8349L70.8169 52.1492L69.5775 50.9044L63.9561 54.3098L66.8332 48.1481L65.886 47.1967L59.7422 50.2375L63.0266 44.3248L61.8049 43.0978L57.3609 51.3134L58.5206 52.4781L64.4873 49.5796ZM61.6898 68.2095L64.4873 74.2912L58.5206 71.3926L57.3609 72.5574L61.8049 80.7729L63.0266 79.5459L59.7422 73.6332L65.886 76.674L66.8332 75.7227L63.9561 69.561L69.5775 72.9664L70.8169 71.7216L62.8584 67.0359L61.6898 68.2095ZM69.3711 62.088L63.2 64.4016V66.0613L72 68.4V66.6397L65.7178 65.0554L72 62.7418V61.3965L65.6067 59.1835L72 57.3352V55.6L63.2 58.253V59.9002L69.3711 62.088Z" fill="#A9859C"/>
<path d="M40.52 136V135.92C39.24 133.88 38.92 132.84 38.92 130.12V121.28H44.36C45.8 121.28 47.2 123.6 48.16 124.88H48.52V116.72H48.16C47.12 118.08 45.88 120.48 44.36 120.48H38.92V107.36L47.88 107.6C49.32 107.6 51.52 110.92 53.44 113.24L53.8 113.12L52.4 106.72H34.04V106.8C35.28 108.8 35.64 109.92 35.64 112.6V130.12C35.64 132.76 35.28 133.92 34.04 135.92V136H40.52ZM55.0184 135.92V136H59.6984V135.92C58.8984 134.16 58.8184 132.56 58.8184 129.8V121.92C59.8984 120.52 61.2184 119.44 61.8984 119.44C62.8184 119.44 64.4584 119.88 65.0984 120.32H65.2184L65.2584 116.36C62.5384 116.36 60.5784 119.12 58.8584 121.04L58.6584 121V116.16L54.1384 118.28V118.36C55.0584 119.16 55.8984 120.32 55.8984 122.36V129.84C55.8984 132.6 55.7784 134.2 55.0184 135.92ZM83.55 131.16L83.35 131.04C81.95 133.08 79.63 134.04 77.19 134.04C72.67 134.04 70.11 130.84 70.11 125.44V124.76C70.11 124.52 70.11 124.28 70.15 124.08H83.47C83.79 120.36 80.79 116.36 76.15 116.36C71.51 116.36 67.07 120.44 67.07 126.8C67.07 132.56 70.59 136.6 75.87 136.6C79.83 136.6 82.55 134.32 83.55 131.16ZM75.99 117.08C78.75 117.08 80.23 118.92 80.23 122.92V123.24L70.23 123.44C70.75 119.6 72.79 117.08 75.99 117.08ZM102.573 131.16L102.373 131.04C100.973 133.08 98.6534 134.04 96.2134 134.04C91.6934 134.04 89.1334 130.84 89.1334 125.44V124.76C89.1334 124.52 89.1334 124.28 89.1734 124.08H102.493C102.813 120.36 99.8134 116.36 95.1734 116.36C90.5334 116.36 86.0934 120.44 86.0934 126.8C86.0934 132.56 89.6134 136.6 94.8934 136.6C98.8534 136.6 101.573 134.32 102.573 131.16ZM95.0134 117.08C97.7734 117.08 99.2534 118.92 99.2534 122.92V123.24L89.2534 123.44C89.7734 119.6 91.8134 117.08 95.0134 117.08ZM105.446 135.92V136H110.126V135.92C109.366 134.68 109.246 133.36 109.246 130.84V104.84L104.526 106.76V106.84C105.446 107.6 106.326 108.64 106.326 110.52V130.88C106.326 133.4 106.086 134.68 105.446 135.92ZM119.519 134.84C117.279 134.84 116.239 133.64 116.239 131.92C116.239 128.72 120.199 127.16 123.919 126.52V133.16C122.999 134.08 121.319 134.84 119.519 134.84ZM126.879 136.48C128.999 136.48 130.039 134.96 130.439 133.92L130.319 133.84C129.719 134.32 129.159 134.68 128.399 134.68C127.279 134.68 126.839 133.96 126.839 132.96V121.2C126.839 118.68 125.839 116.36 121.519 116.36C118.319 116.36 115.719 117.72 114.119 119.64L114.319 119.88C115.879 118.72 117.919 118.12 119.799 118.12C122.999 118.12 123.919 119.8 123.919 121.92V125.92C119.519 126.44 113.399 128.44 113.399 132.84C113.399 135.28 115.279 136.6 117.879 136.6C120.439 136.6 122.599 135.32 123.919 133.84C124.079 135.32 124.999 136.48 126.879 136.48ZM136.769 136V135.92C135.969 134.16 135.889 132.56 135.889 129.8V120.68C137.449 119.08 139.449 118.32 141.329 118.32C144.369 118.32 145.449 120.4 145.449 122.84V129.84C145.449 132.52 145.329 134.16 144.569 135.92V136H149.249V135.92C148.409 134.2 148.369 132.64 148.369 129.8V122.2C148.369 118.56 146.409 116.36 142.729 116.36C140.049 116.36 137.769 117.68 135.889 119.92L135.729 119.88V116.16L131.209 118.28V118.36C132.129 119.16 132.969 120.32 132.969 122.36V129.84C132.969 132.6 132.849 134.2 132.089 135.92V136H136.769ZM168.78 131.56L168.54 131.44C167.22 133.32 164.78 134.04 162.54 134.04C158.02 134.04 155.5 130.72 155.5 125.56C155.5 120.24 158.06 117.08 161.94 117.08C164.5 117.08 166.5 119.2 167.98 121.72L168.3 121.64L167.9 117.56C166.98 117.12 165.26 116.36 162.58 116.36C157.3 116.36 152.5 120.56 152.5 126.92C152.5 132.84 156.06 136.6 161.3 136.6C165.14 136.6 167.7 134.6 168.78 131.56ZM187.456 131.16L187.256 131.04C185.856 133.08 183.536 134.04 181.096 134.04C176.576 134.04 174.016 130.84 174.016 125.44V124.76C174.016 124.52 174.016 124.28 174.056 124.08H187.376C187.696 120.36 184.696 116.36 180.056 116.36C175.416 116.36 170.976 120.44 170.976 126.8C170.976 132.56 174.496 136.6 179.776 136.6C183.736 136.6 186.456 134.32 187.456 131.16ZM179.896 117.08C182.656 117.08 184.136 118.92 184.136 122.92V123.24L174.136 123.44C174.656 119.6 176.696 117.08 179.896 117.08ZM197.087 135.92V136H203.567V135.92C202.247 133.84 201.967 132.76 201.967 130V123.8H206.087C213.087 123.8 216.887 120 216.887 114.72C216.887 110.48 214.487 106.72 206.647 106.72H197.087V106.8C198.327 108.8 198.687 110.04 198.687 112.72V130C198.687 132.72 198.367 133.92 197.087 135.92ZM206.047 107.52C210.087 107.52 213.527 108.92 213.527 114.76C213.527 119.24 211.367 123 206.007 123H201.967V107.6C202.967 107.56 203.807 107.52 204.407 107.52H206.047ZM219.589 135.92V136H224.269V135.92C223.469 134.16 223.389 132.56 223.389 129.8V121.92C224.469 120.52 225.789 119.44 226.469 119.44C227.389 119.44 229.029 119.88 229.669 120.32H229.789L229.829 116.36C227.109 116.36 225.149 119.12 223.429 121.04L223.229 121V116.16L218.709 118.28V118.36C219.629 119.16 220.469 120.32 220.469 122.36V129.84C220.469 132.6 220.349 134.2 219.589 135.92ZM241.56 136.6C247.04 136.6 251.6 132.04 251.6 126.52C251.6 121 247.04 116.36 241.56 116.36C236.16 116.36 231.52 121 231.52 126.52C231.52 132.04 236.08 136.6 241.56 136.6ZM241.56 135.84C237.04 135.84 234.88 131.48 234.88 126.52C234.88 121.52 237.08 117.12 241.56 117.12C246.04 117.12 248.24 121.52 248.24 126.52C248.24 131.48 246.08 135.84 241.56 135.84ZM258.671 109.64C258.671 108.56 257.791 107.64 256.711 107.64C255.631 107.64 254.711 108.56 254.711 109.64C254.711 110.76 255.631 111.64 256.711 111.64C257.791 111.64 258.671 110.76 258.671 109.64ZM252.791 144.4L252.871 144.6C256.111 144.16 258.231 142 258.231 137.16L258.311 116.16L253.631 118.28V118.44C254.551 119.24 255.391 120.44 255.391 122.4V138.76C255.391 141.96 254.551 143.4 252.791 144.4ZM278.198 131.16L277.998 131.04C276.598 133.08 274.278 134.04 271.838 134.04C267.318 134.04 264.758 130.84 264.758 125.44V124.76C264.758 124.52 264.758 124.28 264.798 124.08H278.118C278.438 120.36 275.438 116.36 270.798 116.36C266.158 116.36 261.718 120.44 261.718 126.8C261.718 132.56 265.238 136.6 270.518 136.6C274.478 136.6 277.198 134.32 278.198 131.16ZM270.638 117.08C273.398 117.08 274.878 118.92 274.878 122.92V123.24L264.878 123.44C265.398 119.6 267.438 117.08 270.638 117.08ZM297.022 131.56L296.782 131.44C295.462 133.32 293.022 134.04 290.782 134.04C286.262 134.04 283.742 130.72 283.742 125.56C283.742 120.24 286.302 117.08 290.182 117.08C292.742 117.08 294.742 119.2 296.222 121.72L296.542 121.64L296.142 117.56C295.222 117.12 293.502 116.36 290.822 116.36C285.542 116.36 280.742 120.56 280.742 126.92C280.742 132.84 284.302 136.6 289.542 136.6C293.382 136.6 295.942 134.6 297.022 131.56ZM305.494 136.6C307.734 136.6 309.374 135.48 310.174 134.4L310.094 134.24C309.654 134.52 308.494 135 307.054 135C305.014 135 304.174 133.96 304.174 132V117.68H309.774V116.96H304.174V113.32H303.974L299.094 117.52V117.68H301.254V132C301.254 135.6 303.374 136.6 305.494 136.6ZM324.344 121.04L323.944 117.12C322.864 116.68 321.064 116.36 319.304 116.36C315.944 116.36 312.544 117.68 312.544 121.56C312.544 125.28 315.704 126.6 318.344 127.64C321.024 128.72 323.024 129.68 323.024 132.08C323.024 134.04 321.664 135.88 318.744 135.88C316.024 135.88 314.144 134.36 312.504 130.84L312.224 130.92L312.624 135.48C314.024 136.08 315.824 136.6 318.184 136.6C322.624 136.6 325.424 134.68 325.424 131C325.424 127.12 322.504 125.88 319.744 124.72C316.984 123.68 314.624 122.72 314.624 120.36C314.624 118.44 316.104 117.08 318.464 117.08C320.384 117.08 322.304 117.96 324.064 121.12L324.344 121.04Z" fill="#A9859C"/>
<path d="M35.304 333.526V330.992H36.592C37.432 330.992 38.006 331.468 38.006 332.266C38.006 333.036 37.432 333.526 36.592 333.526H35.304ZM36.816 335.43C38.832 335.43 40.218 334.128 40.218 332.252C40.218 330.404 38.832 329.074 36.816 329.074H33.078V339H35.29V335.43H36.816ZM49.1696 339H51.6056L49.5896 334.982C50.8076 334.548 51.5496 333.526 51.5496 332.182C51.5496 330.418 50.2896 329.074 48.3296 329.074H44.3956V339H46.6076V335.304H47.3916L49.1696 339ZM46.6076 333.4V330.992H47.9096C48.8196 330.992 49.3096 331.454 49.3096 332.196C49.3096 332.896 48.8196 333.4 47.9096 333.4H46.6076ZM57.6402 334.03C57.6402 331.958 59.1242 331.02 60.5102 331.02C61.8822 331.02 63.3662 331.958 63.3662 334.03C63.3662 336.102 61.8822 337.026 60.5102 337.026C59.1242 337.026 57.6402 336.102 57.6402 334.03ZM55.3442 334.044C55.3442 337.18 57.7102 339.21 60.5102 339.21C63.2962 339.21 65.6622 337.18 65.6622 334.044C65.6622 330.894 63.2962 328.864 60.5102 328.864C57.7102 328.864 55.3442 330.894 55.3442 334.044ZM69.2405 335.934C69.2405 337.908 70.5985 339.21 72.5585 339.21C74.5325 339.21 75.9185 337.698 75.9185 335.892V329.074H73.7065V335.836C73.7065 336.578 73.2725 337.11 72.5445 337.11C71.9005 337.11 71.3405 336.704 71.3405 335.822V334.912L69.2405 335.276V335.934ZM87.0956 339V336.9H83.0076V334.996H86.7036V333.05H83.0076V331.16H87.0816V329.074H80.7956V339H87.0956ZM96.322 339.21C99.402 339.21 100.718 337.11 101.04 335.738L98.926 335.136C98.73 335.85 98.044 336.998 96.322 336.998C94.838 336.998 93.466 335.92 93.466 334.058C93.466 331.972 94.964 331.02 96.294 331.02C98.044 331.02 98.674 332.182 98.828 332.868L100.914 332.21C100.592 330.782 99.276 328.864 96.294 328.864C93.522 328.864 91.17 330.964 91.17 334.058C91.17 337.152 93.466 339.21 96.322 339.21ZM112.74 331.188V329.074H104.41V331.188H107.462V339H109.674V331.188H112.74ZM116.001 337.726C116.001 338.468 116.631 339.126 117.401 339.126C118.157 339.126 118.801 338.468 118.801 337.726C118.801 336.956 118.157 336.326 117.401 336.326C116.631 336.326 116.001 336.956 116.001 337.726ZM116.001 333.316C116.001 334.058 116.631 334.716 117.401 334.716C118.157 334.716 118.801 334.058 118.801 333.316C118.801 332.546 118.157 331.916 117.401 331.916C116.631 331.916 116.001 332.546 116.001 333.316ZM132.008 339V335.29H135.676V333.274H131.994V331.174H136.18V329.074H129.782V339H132.008ZM145.313 339H147.749L145.733 334.982C146.951 334.548 147.693 333.526 147.693 332.182C147.693 330.418 146.433 329.074 144.473 329.074H140.539V339H142.751V335.304H143.535L145.313 339ZM142.751 333.4V330.992H144.053C144.963 330.992 145.453 331.454 145.453 332.196C145.453 332.896 144.963 333.4 144.053 333.4H142.751ZM158.43 339V336.9H154.342V334.996H158.038V333.05H154.342V331.16H158.416V329.074H152.13V339H158.43ZM169.392 339V336.9H165.304V334.996H169V333.05H165.304V331.16H169.378V329.074H163.092V339H169.392ZM180.55 339V336.886H176.266V329.074H174.054V339H180.55ZM191.461 339H193.869L190.173 329.074H187.611L183.873 339H186.197L186.911 336.984H190.747L191.461 339ZM188.857 331.538L190.047 334.968H187.639L188.857 331.538ZM206.516 339V329.074H204.304V335.108L200.58 329.074H197.892V339H200.09V332.476L204.178 339H206.516ZM216.03 339.21C219.11 339.21 220.426 337.11 220.748 335.738L218.634 335.136C218.438 335.85 217.752 336.998 216.03 336.998C214.546 336.998 213.174 335.92 213.174 334.058C213.174 331.972 214.672 331.02 216.002 331.02C217.752 331.02 218.382 332.182 218.536 332.868L220.622 332.21C220.3 330.782 218.984 328.864 216.002 328.864C213.23 328.864 210.878 330.964 210.878 334.058C210.878 337.152 213.174 339.21 216.03 339.21ZM231.367 339V336.9H227.279V334.996H230.975V333.05H227.279V331.16H231.353V329.074H225.067V339H231.367Z" fill="#A9859C" fill-opacity="0.5"/>
<path d="M79.488 308H83.088L76.608 290.984H72.768L66.24 308H69.744L71.16 304.112H78.072L79.488 308ZM74.616 294.656L76.968 301.088H72.264L74.616 294.656ZM87.2563 308V290.624H84.0643V308H87.2563ZM92.9057 308V290.624H89.7137V308H92.9057ZM102.997 299.48C102.997 295.64 105.685 293.816 108.301 293.816C110.941 293.816 113.629 295.64 113.629 299.48C113.629 303.32 110.941 305.144 108.301 305.144C105.685 305.144 102.997 303.32 102.997 299.48ZM99.5647 299.504C99.5647 304.976 103.693 308.36 108.301 308.36C112.933 308.36 117.061 304.976 117.061 299.504C117.061 294.008 112.933 290.624 108.301 290.624C103.693 290.624 99.5647 294.008 99.5647 299.504ZM129.868 296.192H126.508L123.7 304.112L120.772 296.192H117.268L122.092 308H125.284L129.868 296.192ZM132.827 300.752C132.899 299.672 133.811 298.424 135.467 298.424C137.291 298.424 138.059 299.576 138.107 300.752H132.827ZM138.419 303.824C138.035 304.88 137.219 305.624 135.731 305.624C134.147 305.624 132.827 304.496 132.755 302.936H141.203C141.203 302.888 141.251 302.408 141.251 301.952C141.251 298.16 139.067 295.832 135.419 295.832C132.395 295.832 129.611 298.28 129.611 302.048C129.611 306.032 132.467 308.36 135.707 308.36C138.611 308.36 140.483 306.656 141.083 304.616L138.419 303.824ZM150.004 296.144C149.764 296.12 149.524 296.096 149.26 296.096C148.252 296.096 146.62 296.384 145.9 297.944V296.192H142.804V308H145.996V302.6C145.996 300.056 147.412 299.264 149.044 299.264C149.332 299.264 149.644 299.288 150.004 299.36V296.144Z" fill="#A9859C"/>
<path fill-rule="evenodd" clip-rule="evenodd" d="M50 295C50 299.6 44.73 307.69 43 310C43 310 41.5 312 41 312C40.5 312 39 310 39 310C37.27 307.69 32 299.6 32 295C32 290.029 36.0294 286 41 286C45.9706 286 50 290.029 50 295ZM41 291C38.7909 291 37 292.791 37 295C37 297.209 38.7909 299 41 299C43.2091 299 45 297.209 45 295C45 292.791 43.2091 291 41 291Z" fill="#A9859C"/>
<defs>
<linearGradient id="paint0_linear" x1="0" y1="0" x2="450.336" y2="218.992" gradientUnits="userSpaceOnUse">
<stop stop-color="#FAE1B0"/>
<stop offset="1" stop-color="#ECB03C"/>
</linearGradient>
</defs>
</svg>
