<svg width="359" height="222" viewBox="0 0 359 222" fill="none" xmlns="http://www.w3.org/2000/svg">
<g id="Group 25 Copy 10">
<g id="Group 23">
<rect id="Mask" width="359" height="222" rx="20" fill="white"/>
<mask id="mask0" mask-type="alpha" maskUnits="userSpaceOnUse" x="0" y="0" width="359" height="222">
<rect id="Mask_2" width="359" height="222" rx="20" fill="white"/>
</mask>
<g mask="url(#mask0)">
<g id="Group 23_2">
<rect id="Rectangle" width="359" height="222" fill="#F8D592"/>
<path id="Gradient BG Copy" fill-rule="evenodd" clip-rule="evenodd" d="M0 0H359V54.5L0 168.5L0 0Z" fill="#FAE1B0"/>
</g>
</g>
</g>
<g id="Group 143">
<path id="Combined Shape" fill-rule="evenodd" clip-rule="evenodd" d="M49.5984 35.8L51.912 29.6289L54.0998 35.8H55.747L58.4 27H56.6648L54.8165 33.3933L52.6035 27H51.2582L48.9446 33.2822L47.3603 27H45.6L47.9387 35.8H49.5984ZM39.5127 34.5796L42.3102 40.6612L41.1416 41.8349L33.1831 37.1492L34.4225 35.9044L40.0439 39.3098L37.1668 33.1481L38.114 32.1967L44.2578 35.2375L40.9734 29.3248L42.1951 28.0978L46.6391 36.3134L45.4794 37.4781L39.5127 34.5796ZM39.5127 59.2912L42.3102 53.2095L41.1416 52.0359L33.1831 56.7216L34.4225 57.9664L40.0439 54.561L37.1668 60.7227L38.114 61.674L44.2578 58.6332L40.9734 64.5459L42.1951 65.7729L46.6391 57.5574L45.4794 56.3926L39.5127 59.2912ZM51.912 64.3711L49.5984 58.2H47.9387L45.6 67H47.3603L48.9446 60.7178L51.2582 67H52.6035L54.8165 60.6067L56.6648 67H58.4L55.747 58.2H54.0998L51.912 64.3711ZM40.8 49.4016L34.6289 47.088L40.8 44.9002V43.253L32 40.6V42.3352L38.3933 44.1835L32 46.3965V47.7418L38.2822 50.0554L32 51.6397V53.4L40.8 51.0613V49.4016ZM64.4873 34.5796L61.6898 40.6612L62.8584 41.8349L70.8169 37.1492L69.5775 35.9044L63.9561 39.3098L66.8332 33.1481L65.886 32.1967L59.7422 35.2375L63.0266 29.3248L61.8049 28.0978L57.3609 36.3134L58.5206 37.4781L64.4873 34.5796ZM61.6898 53.2095L64.4873 59.2912L58.5206 56.3926L57.3609 57.5574L61.8049 65.7729L63.0266 64.5459L59.7422 58.6332L65.886 61.674L66.8332 60.7227L63.9561 54.561L69.5775 57.9664L70.8169 56.7216L62.8584 52.0359L61.6898 53.2095ZM69.3711 47.088L63.2 49.4016V51.0613L72 53.4V51.6397L65.7178 50.0554L72 47.7418V46.3965L65.6067 44.1835L72 42.3352V40.6L63.2 43.253V44.9002L69.3711 47.088Z" fill="#A9859C"/>
<path id="Freelance Projects" d="M40.52 121V120.92C39.24 118.88 38.92 117.84 38.92 115.12V106.28H44.36C45.8 106.28 47.2 108.6 48.16 109.88H48.52V101.72H48.16C47.12 103.08 45.88 105.48 44.36 105.48H38.92V92.36L47.88 92.6C49.32 92.6 51.52 95.92 53.44 98.24L53.8 98.12L52.4 91.72H34.04V91.8C35.28 93.8 35.64 94.92 35.64 97.6V115.12C35.64 117.76 35.28 118.92 34.04 120.92V121H40.52ZM55.0184 120.92V121H59.6984V120.92C58.8984 119.16 58.8184 117.56 58.8184 114.8V106.92C59.8984 105.52 61.2184 104.44 61.8984 104.44C62.8184 104.44 64.4584 104.88 65.0984 105.32H65.2184L65.2584 101.36C62.5384 101.36 60.5784 104.12 58.8584 106.04L58.6584 106V101.16L54.1384 103.28V103.36C55.0584 104.16 55.8984 105.32 55.8984 107.36V114.84C55.8984 117.6 55.7784 119.2 55.0184 120.92ZM83.55 116.16L83.35 116.04C81.95 118.08 79.63 119.04 77.19 119.04C72.67 119.04 70.11 115.84 70.11 110.44V109.76C70.11 109.52 70.11 109.28 70.15 109.08H83.47C83.79 105.36 80.79 101.36 76.15 101.36C71.51 101.36 67.07 105.44 67.07 111.8C67.07 117.56 70.59 121.6 75.87 121.6C79.83 121.6 82.55 119.32 83.55 116.16ZM75.99 102.08C78.75 102.08 80.23 103.92 80.23 107.92V108.24L70.23 108.44C70.75 104.6 72.79 102.08 75.99 102.08ZM102.573 116.16L102.373 116.04C100.973 118.08 98.6534 119.04 96.2134 119.04C91.6934 119.04 89.1334 115.84 89.1334 110.44V109.76C89.1334 109.52 89.1334 109.28 89.1734 109.08H102.493C102.813 105.36 99.8134 101.36 95.1734 101.36C90.5334 101.36 86.0934 105.44 86.0934 111.8C86.0934 117.56 89.6134 121.6 94.8934 121.6C98.8534 121.6 101.573 119.32 102.573 116.16ZM95.0134 102.08C97.7734 102.08 99.2534 103.92 99.2534 107.92V108.24L89.2534 108.44C89.7734 104.6 91.8134 102.08 95.0134 102.08ZM105.446 120.92V121H110.126V120.92C109.366 119.68 109.246 118.36 109.246 115.84V89.84L104.526 91.76V91.84C105.446 92.6 106.326 93.64 106.326 95.52V115.88C106.326 118.4 106.086 119.68 105.446 120.92ZM119.519 119.84C117.279 119.84 116.239 118.64 116.239 116.92C116.239 113.72 120.199 112.16 123.919 111.52V118.16C122.999 119.08 121.319 119.84 119.519 119.84ZM126.879 121.48C128.999 121.48 130.039 119.96 130.439 118.92L130.319 118.84C129.719 119.32 129.159 119.68 128.399 119.68C127.279 119.68 126.839 118.96 126.839 117.96V106.2C126.839 103.68 125.839 101.36 121.519 101.36C118.319 101.36 115.719 102.72 114.119 104.64L114.319 104.88C115.879 103.72 117.919 103.12 119.799 103.12C122.999 103.12 123.919 104.8 123.919 106.92V110.92C119.519 111.44 113.399 113.44 113.399 117.84C113.399 120.28 115.279 121.6 117.879 121.6C120.439 121.6 122.599 120.32 123.919 118.84C124.079 120.32 124.999 121.48 126.879 121.48ZM136.769 121V120.92C135.969 119.16 135.889 117.56 135.889 114.8V105.68C137.449 104.08 139.449 103.32 141.329 103.32C144.369 103.32 145.449 105.4 145.449 107.84V114.84C145.449 117.52 145.329 119.16 144.569 120.92V121H149.249V120.92C148.409 119.2 148.369 117.64 148.369 114.8V107.2C148.369 103.56 146.409 101.36 142.729 101.36C140.049 101.36 137.769 102.68 135.889 104.92L135.729 104.88V101.16L131.209 103.28V103.36C132.129 104.16 132.969 105.32 132.969 107.36V114.84C132.969 117.6 132.849 119.2 132.089 120.92V121H136.769ZM168.78 116.56L168.54 116.44C167.22 118.32 164.78 119.04 162.54 119.04C158.02 119.04 155.5 115.72 155.5 110.56C155.5 105.24 158.06 102.08 161.94 102.08C164.5 102.08 166.5 104.2 167.98 106.72L168.3 106.64L167.9 102.56C166.98 102.12 165.26 101.36 162.58 101.36C157.3 101.36 152.5 105.56 152.5 111.92C152.5 117.84 156.06 121.6 161.3 121.6C165.14 121.6 167.7 119.6 168.78 116.56ZM187.456 116.16L187.256 116.04C185.856 118.08 183.536 119.04 181.096 119.04C176.576 119.04 174.016 115.84 174.016 110.44V109.76C174.016 109.52 174.016 109.28 174.056 109.08H187.376C187.696 105.36 184.696 101.36 180.056 101.36C175.416 101.36 170.976 105.44 170.976 111.8C170.976 117.56 174.496 121.6 179.776 121.6C183.736 121.6 186.456 119.32 187.456 116.16ZM179.896 102.08C182.656 102.08 184.136 103.92 184.136 107.92V108.24L174.136 108.44C174.656 104.6 176.696 102.08 179.896 102.08ZM197.087 120.92V121H203.567V120.92C202.247 118.84 201.967 117.76 201.967 115V108.8H206.087C213.087 108.8 216.887 105 216.887 99.72C216.887 95.48 214.487 91.72 206.647 91.72H197.087V91.8C198.327 93.8 198.687 95.04 198.687 97.72V115C198.687 117.72 198.367 118.92 197.087 120.92ZM206.047 92.52C210.087 92.52 213.527 93.92 213.527 99.76C213.527 104.24 211.367 108 206.007 108H201.967V92.6C202.967 92.56 203.807 92.52 204.407 92.52H206.047ZM219.589 120.92V121H224.269V120.92C223.469 119.16 223.389 117.56 223.389 114.8V106.92C224.469 105.52 225.789 104.44 226.469 104.44C227.389 104.44 229.029 104.88 229.669 105.32H229.789L229.829 101.36C227.109 101.36 225.149 104.12 223.429 106.04L223.229 106V101.16L218.709 103.28V103.36C219.629 104.16 220.469 105.32 220.469 107.36V114.84C220.469 117.6 220.349 119.2 219.589 120.92ZM241.56 121.6C247.04 121.6 251.6 117.04 251.6 111.52C251.6 106 247.04 101.36 241.56 101.36C236.16 101.36 231.52 106 231.52 111.52C231.52 117.04 236.08 121.6 241.56 121.6ZM241.56 120.84C237.04 120.84 234.88 116.48 234.88 111.52C234.88 106.52 237.08 102.12 241.56 102.12C246.04 102.12 248.24 106.52 248.24 111.52C248.24 116.48 246.08 120.84 241.56 120.84ZM258.671 94.64C258.671 93.56 257.791 92.64 256.711 92.64C255.631 92.64 254.711 93.56 254.711 94.64C254.711 95.76 255.631 96.64 256.711 96.64C257.791 96.64 258.671 95.76 258.671 94.64ZM252.791 129.4L252.871 129.6C256.111 129.16 258.231 127 258.231 122.16L258.311 101.16L253.631 103.28V103.44C254.551 104.24 255.391 105.44 255.391 107.4V123.76C255.391 126.96 254.551 128.4 252.791 129.4ZM278.198 116.16L277.998 116.04C276.598 118.08 274.278 119.04 271.838 119.04C267.318 119.04 264.758 115.84 264.758 110.44V109.76C264.758 109.52 264.758 109.28 264.798 109.08H278.118C278.438 105.36 275.438 101.36 270.798 101.36C266.158 101.36 261.718 105.44 261.718 111.8C261.718 117.56 265.238 121.6 270.518 121.6C274.478 121.6 277.198 119.32 278.198 116.16ZM270.638 102.08C273.398 102.08 274.878 103.92 274.878 107.92V108.24L264.878 108.44C265.398 104.6 267.438 102.08 270.638 102.08ZM297.022 116.56L296.782 116.44C295.462 118.32 293.022 119.04 290.782 119.04C286.262 119.04 283.742 115.72 283.742 110.56C283.742 105.24 286.302 102.08 290.182 102.08C292.742 102.08 294.742 104.2 296.222 106.72L296.542 106.64L296.142 102.56C295.222 102.12 293.502 101.36 290.822 101.36C285.542 101.36 280.742 105.56 280.742 111.92C280.742 117.84 284.302 121.6 289.542 121.6C293.382 121.6 295.942 119.6 297.022 116.56ZM305.494 121.6C307.734 121.6 309.374 120.48 310.174 119.4L310.094 119.24C309.654 119.52 308.494 120 307.054 120C305.014 120 304.174 118.96 304.174 117V102.68H309.774V101.96H304.174V98.32H303.974L299.094 102.52V102.68H301.254V117C301.254 120.6 303.374 121.6 305.494 121.6ZM324.344 106.04L323.944 102.12C322.864 101.68 321.064 101.36 319.304 101.36C315.944 101.36 312.544 102.68 312.544 106.56C312.544 110.28 315.704 111.6 318.344 112.64C321.024 113.72 323.024 114.68 323.024 117.08C323.024 119.04 321.664 120.88 318.744 120.88C316.024 120.88 314.144 119.36 312.504 115.84L312.224 115.92L312.624 120.48C314.024 121.08 315.824 121.6 318.184 121.6C322.624 121.6 325.424 119.68 325.424 116C325.424 112.12 322.504 110.88 319.744 109.72C316.984 108.68 314.624 107.72 314.624 105.36C314.624 103.44 316.104 102.08 318.464 102.08C320.384 102.08 322.304 102.96 324.064 106.12L324.344 106.04Z" fill="#A9859C"/>
</g>
</g>
</svg>
