<svg width="359" height="222" viewBox="0 0 359 222" fill="none" xmlns="http://www.w3.org/2000/svg">
<g id="Group 25 Copy 4">
<g id="Group 23">
<rect id="Mask" width="359" height="222" rx="20" fill="white"/>
<mask id="mask0" mask-type="alpha" maskUnits="userSpaceOnUse" x="0" y="0" width="359" height="222">
<rect id="Mask_2" width="359" height="222" rx="20" fill="white"/>
</mask>
<g mask="url(#mask0)">
<g id="Group 23_2">
<rect id="Rectangle" width="359" height="222" fill="#EBE4D5"/>
<path id="Gradient BG Copy" fill-rule="evenodd" clip-rule="evenodd" d="M0 0H359V54.5L0 168.5L0 0Z" fill="#F1EBDD"/>
</g>
</g>
</g>
<g id="Group 145">
<g id="gsx">
<g id="Group 6">
<path id="Path Copy" fill-rule="evenodd" clip-rule="evenodd" d="M37.5149 55.7327C36.0252 55.6773 34.8065 55.2961 33.8535 54.588C33.6716 54.4527 33.2382 54.0472 33.0928 53.8761C32.7064 53.4216 32.4437 52.9793 32.2684 52.4885C31.7292 50.9779 32.0067 48.9956 33.0622 46.82C33.966 44.9575 35.3605 43.1102 37.7934 40.5517C38.1518 40.1752 39.2191 39.0742 39.226 39.0742C39.2285 39.0742 39.1704 39.1685 39.0972 39.2832C38.4646 40.2742 37.9233 41.4416 37.6284 42.4522C37.1547 44.0738 37.2119 45.4654 37.7957 46.5445C38.1985 47.2879 38.889 47.9318 39.6655 48.2877C41.0248 48.9106 43.0149 48.9622 45.4453 48.4385C45.6127 48.4022 53.9043 46.3436 63.8713 43.8636C73.8383 41.3834 81.9944 39.3557 81.9957 39.3574C81.9985 39.3596 58.8396 48.6282 46.8174 53.4366C44.9135 54.1979 44.4044 54.3902 43.5093 54.6841C41.2212 55.4357 39.1716 55.7942 37.5149 55.7327Z" fill="#111111"/>
<g id="Group 5">
<path id="Close" fill-rule="evenodd" clip-rule="evenodd" d="M94.8952 44.4199L98.2559 47.7806L101.617 44.4199L101.939 44.7419L98.5779 48.1026L101.939 51.4633L101.617 51.7853L98.2559 48.4246L94.8952 51.7853L94.5732 51.4633L97.934 48.1026L94.5732 44.7419L94.8952 44.4199Z" fill="#111111" stroke="#111111" stroke-width="0.891862"/>
<path id="Combined Shape" fill-rule="evenodd" clip-rule="evenodd" d="M137.427 42.625L137.368 42.5662C137.306 42.5687 137.239 42.5716 137.168 42.5747C136.694 42.5954 136.012 42.625 135.137 42.625L135.105 42.625C134.245 42.6243 133.575 42.5951 133.106 42.5747C133.035 42.5716 132.968 42.5687 132.906 42.5662L132.847 42.625V43.076L132.906 43.1349L133.597 43.1741C134.189 43.2133 134.367 43.3113 134.485 43.4486C134.545 43.5075 134.604 43.6447 134.643 44.0173C134.683 44.3899 134.782 46.1353 134.782 48.5473V50.3515C134.782 51.9595 134.703 52.842 134.327 53.5872C133.735 54.7834 132.59 55.5482 130.359 55.5482C127.378 55.5482 126.47 53.9402 126.47 51.783L126.47 44.7731C126.471 43.8362 126.51 43.6042 126.608 43.4682C126.687 43.3506 126.885 43.2133 127.654 43.1741L128.365 43.1349L128.424 43.076V42.625L128.365 42.5662C128.107 42.5723 127.841 42.5803 127.571 42.5884C126.974 42.6064 126.357 42.625 125.759 42.625C125.112 42.625 124.473 42.6059 123.865 42.5877C123.602 42.5798 123.344 42.5721 123.094 42.5662L123.035 42.625V43.076L123.094 43.1349L123.805 43.1741C124.575 43.2133 124.772 43.3506 124.851 43.4682C124.95 43.6055 124.989 43.8408 124.989 44.8018V52.2929C124.989 54.45 125.838 56.4307 130.122 56.4307C133.005 56.4307 134.387 55.3325 135.058 53.8617C135.433 53.0381 135.492 52.2537 135.492 50.2142V48.5473C135.492 46.1353 135.591 44.3899 135.631 44.0173C135.67 43.6447 135.729 43.5075 135.788 43.4486C135.907 43.3113 136.085 43.2133 136.677 43.1741L137.368 43.1349L137.427 43.076V42.625ZM142.758 47.4884C142.067 47.1354 140.961 46.9589 140.112 46.9589C138.572 46.9589 136.677 47.9002 136.677 49.8024C136.677 51.5673 138.553 52.0183 139.994 52.2341C141.257 52.4302 142.008 52.6067 142.008 53.8029C142.008 55.3129 140.665 55.7836 139.777 55.7836C138.553 55.7836 137.763 55.1168 137.447 54.6658L137.408 53.6852L137.348 53.6264H136.953L136.894 53.6852C136.876 54.5251 136.809 55.2836 136.767 55.7529C136.763 55.7986 136.76 55.8416 136.756 55.8816L136.815 55.9405C137.467 56.1757 138.197 56.3718 139.145 56.3718C142.047 56.3718 143.291 54.7638 143.291 53.2146C143.291 51.5673 142.284 51.332 141.04 51.0966L139.717 50.8418C138.533 50.6064 137.96 50.2142 137.96 49.2925C137.96 48.1159 138.987 47.5472 139.954 47.5472C141.336 47.5472 142.008 48.3708 142.027 48.5277L142.146 49.5082L142.205 49.5671H142.56L142.62 49.5082C142.625 49.3997 142.63 49.2989 142.634 49.205C142.68 48.2294 142.691 47.9944 142.817 47.5472L142.758 47.4884ZM146.055 55.2736C146.055 54.7442 145.601 54.2343 145.028 54.2343C144.475 54.2343 144.002 54.7442 144.002 55.2736C144.002 55.8424 144.515 56.2738 145.028 56.2738C145.561 56.2738 146.055 55.8424 146.055 55.2736ZM124.032 27.8128L123.973 27.7539C123.717 27.76 123.455 27.7679 123.187 27.7759C122.586 27.794 121.962 27.8128 121.347 27.8128C120.716 27.8128 120.084 27.7938 119.48 27.7757C119.214 27.7677 118.954 27.7599 118.702 27.7539L118.642 27.8128V28.2638L118.702 28.3226L119.412 28.3618C120.182 28.4011 120.38 28.5384 120.459 28.656C120.557 28.7933 120.597 29.0286 120.597 29.9895V40.8145C120.597 43.5206 120.064 43.9717 119.215 43.9717C118.781 43.9717 118.465 43.7756 118.188 43.4422L118.03 43.5206C118.05 43.6972 118.09 44.0501 118.09 44.3443C118.09 44.5492 118.068 44.7323 118.048 44.8936C118.042 44.9483 118.035 45.0006 118.03 45.0503L118.031 45.0503C118.169 45.0699 118.307 45.0895 118.445 45.0895C119.906 45.0895 120.992 43.8933 121.485 42.6382C121.979 41.3832 122.078 40.1085 122.078 38.7357L122.078 29.9609C122.078 29.0239 122.118 28.7919 122.216 28.656C122.295 28.5384 122.492 28.4011 123.262 28.3618L123.973 28.3226L124.032 28.2638V27.8128ZM132.954 36.7551C132.954 33.7547 131.098 32.1467 128.531 32.1467C125.807 32.1467 123.892 34.1273 123.892 36.912C123.892 38.6965 124.938 41.5596 128.393 41.5596C130.802 41.5596 132.954 39.579 132.954 36.7551ZM135.866 32.2643L135.688 32.1466C134.918 32.4604 133.635 32.833 133.003 32.8919L132.944 32.9507V33.284L133.003 33.3429L133.911 33.3821C134.187 33.4017 134.306 33.4605 134.405 33.5782C134.52 33.7124 134.523 34.0902 134.523 34.6384V39.4456C134.523 40.1421 134.52 40.4842 134.385 40.6379C134.266 40.7752 134.03 40.8536 133.536 40.8928L133.003 40.9321L132.944 40.9909V41.3243L133.003 41.3832C133.265 41.3763 133.527 41.367 133.786 41.3579C134.268 41.3409 134.738 41.3243 135.175 41.3243C135.596 41.3243 136.058 41.3407 136.534 41.3576C136.796 41.3668 137.061 41.3762 137.327 41.3832L137.386 41.3243V40.9909L137.327 40.9321L136.793 40.8928C136.3 40.8536 136.063 40.7752 135.945 40.6379C135.813 40.4889 135.807 40.1629 135.806 39.5086V34.6073C135.807 33.4842 135.827 32.6295 135.866 32.2643ZM146.716 35.4019C146.716 33.9704 146.143 32.1467 143.676 32.1467C142.902 32.1467 142.526 32.2785 142.158 32.4314L142.136 32.4408C141.859 32.7546 140.931 33.5586 140.497 33.8724V32.2643L140.379 32.1467C139.609 32.4604 138.325 32.833 137.773 32.8918L137.713 32.9507V33.284L137.773 33.3428L138.602 33.3821C138.878 33.4017 138.997 33.4605 139.095 33.5782C139.207 33.7078 139.213 34.0644 139.214 34.5822V39.5085C139.213 40.1629 139.207 40.4889 139.076 40.6379C138.957 40.7752 138.72 40.8537 138.227 40.8929L137.773 40.9321L137.713 40.9909V41.3243L137.773 41.3831C137.973 41.3772 138.181 41.3696 138.393 41.3618C138.892 41.3436 139.418 41.3243 139.944 41.3243C140.46 41.3243 140.967 41.3428 141.457 41.3608C141.68 41.3689 141.9 41.377 142.116 41.3831L142.175 41.3243V40.9909L142.116 40.9321L141.642 40.8929C140.912 40.834 140.714 40.7556 140.635 40.5203C140.537 40.2457 140.497 39.6378 140.497 37.7748L140.497 36.5181C140.498 35.1753 140.557 34.6354 140.635 34.4606C140.714 34.2842 141.662 33.2056 142.945 33.2056C145.314 33.2056 145.433 34.7548 145.433 36.6766C145.433 38.52 145.433 39.9516 145.334 41.2654L145.452 41.3831C145.729 41.3635 146.301 41.3243 146.775 41.3243C147.115 41.3243 147.465 41.3444 147.788 41.3631C147.916 41.3704 148.04 41.3775 148.157 41.3831L148.216 41.3243V40.9909L148.157 40.9321L147.723 40.8929C146.854 40.8144 146.716 40.6772 146.716 39.8143V35.4019ZM125.372 36.3825C125.372 33.9508 126.557 32.735 128.294 32.735C130.604 32.735 131.473 34.794 131.473 36.9316C131.473 40.0496 130.032 40.9713 128.393 40.9713C126.478 40.9713 125.372 39.128 125.372 36.3825ZM136.122 28.9894C136.122 28.4599 135.688 28.0285 135.155 28.0285C134.622 28.0285 134.187 28.4599 134.187 28.9894C134.187 29.5188 134.622 29.9503 135.155 29.9503C135.688 29.9503 136.122 29.5188 136.122 28.9894ZM125.177 61.6369C123.457 60.3989 124.77 57.9245 125.235 57.1853C124.398 58.0866 123.561 58.9979 122.909 59.9811C121.885 61.5264 121.445 63.2188 122.142 64.3066C123.387 66.2704 126.369 65.3642 128.276 64.5752L145.952 57.2565L128.485 61.7833L128.441 61.7943C127 62.1556 125.841 62.1047 125.177 61.6369Z" fill="#111111"/>
</g>
</g>
</g>
<path id="Nike Member Home" d="M36.4 95.76L55.88 121.12L56.72 121V98.36C56.72 95.36 57.16 94.12 58.92 91.8V91.72H53.4V91.8C55.32 94.12 55.84 95.36 55.84 98.36L55.96 115.96L37.32 91.72H32.48V91.8C34.2 92.96 35.04 94.12 35.64 96.16V114.36C35.64 117.36 35.2 118.6 33.44 120.92V121H39.36V120.92C37.12 118.56 36.56 117.4 36.56 114.36L36.4 95.76ZM66.1316 94.64C66.1316 93.56 65.2516 92.64 64.1716 92.64C63.0916 92.64 62.1716 93.56 62.1716 94.64C62.1716 95.76 63.0916 96.64 64.1716 96.64C65.2516 96.64 66.1316 95.76 66.1316 94.64ZM61.9716 120.92V121H66.6516V120.92C65.8516 119.16 65.7716 117.56 65.7716 114.8V101.16L61.0916 103.28V103.44C62.0116 104.24 62.8516 105.44 62.8516 107.4V114.84C62.8516 117.6 62.6116 119.16 61.9716 120.92ZM70.2119 120.92V121H74.9319V120.92C74.1719 119.68 74.0119 118.36 74.0119 115.84V89.84L69.3319 91.76V91.84C70.2519 92.6 71.0919 93.64 71.0919 95.52V115.88C71.0919 118.4 70.8519 119.68 70.2119 120.92ZM81.8919 121H86.4119V120.92C85.0119 120.16 84.0919 119.2 82.7719 117.32L77.1319 109.52L80.5319 105.68C81.9319 104.04 82.9319 103 85.0919 102.04V101.96H80.2119V102.04C81.2919 102.88 80.8919 104.16 79.8919 105.28L74.6919 111.04L81.8919 121ZM103.198 116.16L102.998 116.04C101.598 118.08 99.2784 119.04 96.8384 119.04C92.3184 119.04 89.7584 115.84 89.7584 110.44V109.76C89.7584 109.52 89.7584 109.28 89.7984 109.08H103.118C103.438 105.36 100.438 101.36 95.7984 101.36C91.1584 101.36 86.7184 105.44 86.7184 111.8C86.7184 117.56 90.2384 121.6 95.5184 121.6C99.4784 121.6 102.198 119.32 103.198 116.16ZM95.6384 102.08C98.3984 102.08 99.8784 103.92 99.8784 107.92V108.24L89.8784 108.44C90.3984 104.6 92.4384 102.08 95.6384 102.08ZM112.109 121H118.229V120.92C115.869 118.56 115.349 117.32 115.349 114.32L115.229 94.68L126.749 120.12H127.469L138.669 94.88V114.92C138.669 117.64 138.349 118.88 137.069 120.92V121H143.509V120.92C142.189 118.84 141.909 117.72 141.909 114.92V97.52C141.909 94.6 142.429 93.4 144.549 91.8V91.72H139.109L128.429 115.92L117.509 91.72H111.789V91.8C113.629 93.32 114.229 94.2 114.429 96.4V114.32C114.429 117.28 113.989 118.6 112.109 120.92V121ZM163.159 116.16L162.959 116.04C161.559 118.08 159.239 119.04 156.799 119.04C152.279 119.04 149.719 115.84 149.719 110.44V109.76C149.719 109.52 149.719 109.28 149.759 109.08H163.079C163.399 105.36 160.399 101.36 155.759 101.36C151.119 101.36 146.679 105.44 146.679 111.8C146.679 117.56 150.199 121.6 155.479 121.6C159.439 121.6 162.159 119.32 163.159 116.16ZM155.599 102.08C158.359 102.08 159.839 103.92 159.839 107.92V108.24L149.839 108.44C150.359 104.6 152.399 102.08 155.599 102.08ZM171.223 121V120.92C170.423 119.2 170.343 117.6 170.343 114.88V105.76C171.503 104.28 173.143 103.32 175.103 103.32C177.783 103.32 178.383 105.16 178.383 107.4V114.92C178.383 117.52 178.263 119.2 177.503 120.92V121H182.223V120.92C181.383 119.2 181.303 117.68 181.303 114.88V105.8C182.543 104.32 184.143 103.32 186.103 103.32C188.783 103.32 189.383 105.16 189.383 107.4V114.92C189.383 117.52 189.263 119.2 188.503 120.92V121H193.183V120.92C192.343 119.24 192.303 117.64 192.303 114.88V106.76C192.303 103.4 191.023 101.36 187.623 101.36C184.943 101.36 182.863 102.72 181.303 104.96L181.183 104.92C180.743 102.68 179.383 101.36 176.623 101.36C173.943 101.36 171.823 102.68 170.343 104.92L170.183 104.88V101.12L165.623 103.24V103.32C166.583 104.16 167.423 105.32 167.423 107.4V114.92C167.423 117.68 167.263 119.2 166.503 120.92V121H171.223ZM205.486 121.6C212.046 121.6 215.286 116.64 215.286 111.08C215.286 105.32 212.086 101.36 207.166 101.36C204.326 101.36 201.966 102.72 200.566 104.76H200.446V89.84L195.766 91.72V91.8C196.686 92.56 197.526 93.64 197.526 95.52V121.2H197.806L199.246 119.4C200.526 120.64 202.566 121.6 205.486 121.6ZM205.926 120.88C203.246 120.88 200.446 118.96 200.446 113.96V105.6C201.366 104.44 203.246 103.32 205.486 103.28C209.286 103.28 212.086 106.04 212.086 111.64C212.086 117.32 209.446 120.88 205.926 120.88ZM234.488 116.16L234.288 116.04C232.888 118.08 230.568 119.04 228.128 119.04C223.608 119.04 221.048 115.84 221.048 110.44V109.76C221.048 109.52 221.048 109.28 221.088 109.08H234.408C234.728 105.36 231.728 101.36 227.088 101.36C222.448 101.36 218.007 105.44 218.007 111.8C218.007 117.56 221.528 121.6 226.808 121.6C230.768 121.6 233.488 119.32 234.488 116.16ZM226.928 102.08C229.688 102.08 231.168 103.92 231.168 107.92V108.24L221.168 108.44C221.688 104.6 223.728 102.08 226.928 102.08ZM237.831 120.92V121H242.511V120.92C241.711 119.16 241.631 117.56 241.631 114.8V106.92C242.711 105.52 244.031 104.44 244.711 104.44C245.631 104.44 247.271 104.88 247.911 105.32H248.031L248.071 101.36C245.351 101.36 243.391 104.12 241.671 106.04L241.471 106V101.16L236.951 103.28V103.36C237.871 104.16 238.711 105.32 238.711 107.36V114.84C238.711 117.6 238.591 119.2 237.831 120.92ZM34.04 160.92V161H40.52V160.92C39.2 158.84 38.92 157.76 38.92 155V146.28H54.4V155C54.4 157.76 54.12 158.84 52.8 160.92V161H59.28V160.92C57.96 158.84 57.68 157.76 57.68 155V137.72C57.68 134.96 57.96 133.88 59.28 131.8V131.72H52.8V131.8C54.08 133.84 54.4 135 54.4 137.72V145.48H38.92V137.72C38.92 134.96 39.2 133.88 40.52 131.8V131.72H34.04V131.8C35.28 133.8 35.64 135.04 35.64 137.72V155C35.64 157.72 35.32 158.92 34.04 160.92ZM72.3806 161.6C77.8606 161.6 82.4206 157.04 82.4206 151.52C82.4206 146 77.8606 141.36 72.3806 141.36C66.9806 141.36 62.3406 146 62.3406 151.52C62.3406 157.04 66.9006 161.6 72.3806 161.6ZM72.3806 160.84C67.8606 160.84 65.7006 156.48 65.7006 151.52C65.7006 146.52 67.9006 142.12 72.3806 142.12C76.8606 142.12 79.0606 146.52 79.0606 151.52C79.0606 156.48 76.9006 160.84 72.3806 160.84ZM90.4416 161V160.92C89.6416 159.2 89.5616 157.6 89.5616 154.88V145.76C90.7216 144.28 92.3616 143.32 94.3216 143.32C97.0016 143.32 97.6016 145.16 97.6016 147.4V154.92C97.6016 157.52 97.4816 159.2 96.7216 160.92V161H101.442V160.92C100.602 159.2 100.522 157.68 100.522 154.88V145.8C101.762 144.32 103.362 143.32 105.322 143.32C108.002 143.32 108.602 145.16 108.602 147.4V154.92C108.602 157.52 108.482 159.2 107.722 160.92V161H112.402V160.92C111.562 159.24 111.522 157.64 111.522 154.88V146.76C111.522 143.4 110.242 141.36 106.842 141.36C104.162 141.36 102.082 142.72 100.522 144.96L100.402 144.92C99.9616 142.68 98.6016 141.36 95.8416 141.36C93.1616 141.36 91.0416 142.68 89.5616 144.92L89.4016 144.88V141.12L84.8416 143.24V143.32C85.8016 144.16 86.6416 145.32 86.6416 147.4V154.92C86.6416 157.68 86.4816 159.2 85.7216 160.92V161H90.4416ZM132.105 156.16L131.905 156.04C130.505 158.08 128.185 159.04 125.745 159.04C121.225 159.04 118.665 155.84 118.665 150.44V149.76C118.665 149.52 118.665 149.28 118.705 149.08H132.025C132.345 145.36 129.345 141.36 124.705 141.36C120.065 141.36 115.625 145.44 115.625 151.8C115.625 157.56 119.145 161.6 124.425 161.6C128.385 161.6 131.105 159.32 132.105 156.16ZM124.545 142.08C127.305 142.08 128.785 143.92 128.785 147.92V148.24L118.785 148.44C119.305 144.6 121.345 142.08 124.545 142.08Z" fill="#111111"/>
</g>
</g>
</svg>
