<?xml version="1.0" encoding="UTF-8"?>
<svg width="343px" height="222px" viewBox="0 0 343 222" version="1.1" xmlns="http://www.w3.org/2000/svg" xmlns:xlink="http://www.w3.org/1999/xlink">
    <!-- Generator: Sketch 63.1 (92452) - https://sketch.com -->
    <title>Group 25 Copy 4</title>
    <desc>Created with Sketch.</desc>
    <defs>
        <rect id="path-1" x="0" y="0" width="343" height="222" rx="20"></rect>
    </defs>
    <g id="V3" stroke="none" stroke-width="1" fill="none" fill-rule="evenodd">
        <g id="Intro-Copy-7" transform="translate(-548.000000, -4241.000000)">
            <g id="Group-42-Copy-2" transform="translate(165.000000, 3863.000000)">
                <g id="Group-25-Copy-4" transform="translate(383.000000, 378.000000)">
                    <g id="Group-23">
                        <mask id="mask-2" fill="white">
                            <use xlink:href="#path-1"></use>
                        </mask>
                        <use id="Mask" fill="#FFFFFF" xlink:href="#path-1"></use>
                        <g mask="url(#mask-2)">
                            <rect id="Rectangle" fill="#EBE4D5" x="0" y="0" width="343" height="222"></rect>
                            <polygon id="Gradient-BG-Copy" fill="#F1EBDD" points="-2.38004061e-15 0 343 0 343 54.5 0 168.5"></polygon>
                        </g>
                    </g>
                    <g id="gsx" transform="translate(25.000000, 27.000000)" fill="#111111">
                        <g id="Group-6">
                            <path d="M5.51490117,28.7328994 C4.02523528,28.6775501 2.80646412,28.2963081 1.85348609,27.5882191 C1.67161421,27.4529473 1.23823367,27.0473707 1.0928382,26.8763128 C0.706392341,26.4218284 0.443660173,25.9795113 0.268420368,25.4887636 C-0.270818275,23.97811 0.00670851971,21.9957946 1.06222863,19.8202339 C1.96597627,17.9576829 3.36049739,16.1104007 5.79344828,13.5519279 C6.15183536,13.1754574 7.21908914,12.0744362 7.22597629,12.0744362 C7.22852709,12.0744362 7.1703689,12.1686731 7.09716101,12.2834274 C6.46456316,13.2744658 5.92328388,14.4418107 5.62841166,15.4524123 C5.15472852,17.074003 5.21186639,18.465608 5.795744,19.5446804 C6.19851496,20.2880785 6.88901591,20.931991 7.66547874,21.2879441 C9.02479886,21.9108621 11.0149313,21.9623942 13.4453313,21.4387232 C13.6126637,21.4024599 21.9042868,19.3438006 31.8712739,16.8638189 C41.838261,14.3835986 49.9944368,12.355954 49.9957122,12.3576241 C49.9985181,12.3597712 26.8395703,21.6283899 14.8174055,26.4368586 C12.91349,27.1981498 12.4043508,27.3904408 11.5092759,27.6843646 C9.22121029,28.4358742 7.1716443,28.7944516 5.51490117,28.7328994 Z" id="Path-Copy"></path>
                            <g id="Group-5" transform="translate(62.573250, 0.062888)">
                                <polygon id="Close" stroke="#111111" stroke-width="0.891861761" points="0.321984964 17.357002 3.68270303 20.71772 7.04342109 17.357002 7.36540605 17.6789869 4.00468799 21.039705 7.36540605 24.4004231 7.04342109 24.722408 3.68270303 21.36169 0.321984964 24.722408 0 24.4004231 3.36071806 21.039705 0 17.6789869"></polygon>
                                <path d="M30.6619166,30.1232027 C30.1972132,30.8623537 28.8840677,33.3367339 30.6033161,34.5747609 C31.2677331,35.042586 32.4270832,35.093501 33.8680635,34.7321854 L33.9118156,34.7211103 L51.3792413,30.1943775 L33.7022789,37.5130111 C31.7957707,38.3020611 28.8136308,39.20827 27.5691192,37.2444816 C26.8719042,36.1566621 27.3114515,34.4642967 28.3354624,32.9189615 C28.9879782,31.9357341 29.8243221,31.024504 30.6619166,30.1232027 Z M42.7945715,15.5040148 L42.8537951,15.5628419 L42.8537951,16.0138969 L42.7945715,16.0727239 L42.1036106,16.1119324 C41.5112883,16.1511408 41.3336464,16.2491763 41.2152281,16.3865063 C41.1559179,16.445362 41.0966655,16.582606 41.0572794,16.955158 C41.0177489,17.3277675 40.9190236,19.0731319 40.9190236,21.4851835 L40.9190236,23.1520736 C40.9190236,25.1915732 40.8598578,25.9759432 40.4847367,26.7996076 C39.8134111,28.2703981 38.4314892,29.3685504 35.5490828,29.3685504 C31.264946,29.3685504 30.4160363,27.3879066 30.4160363,25.2307817 L30.4160363,17.739614 C30.4160363,16.7787056 30.3765636,16.5433975 30.2777806,16.4060675 C30.1988351,16.2884708 30.0014425,16.1511408 29.2314494,16.1119324 L28.5207376,16.0727239 L28.4614852,16.0138969 L28.4614852,15.5628419 L28.5207376,15.5040148 C29.3498677,15.5236334 30.2580009,15.5628419 31.1859428,15.5628419 C32.0546033,15.5628419 32.9627655,15.5236334 33.7919532,15.5040148 L33.8512057,15.5628419 L33.8512057,16.0138969 L33.7919532,16.0727239 L33.0812415,16.1119324 C32.3112773,16.1511408 32.1138558,16.2884708 32.0349102,16.4060675 C31.9372009,16.5420242 31.8974516,16.7740093 31.8966664,17.7110038 L31.8966545,24.7208996 C31.8966545,26.8780245 32.8048167,28.4860589 35.7859771,28.4860589 C38.0168665,28.4860589 39.1619807,27.7212502 39.7542164,26.5250337 C40.1293664,25.7798722 40.2083119,24.897352 40.2083119,23.2893176 L40.2083119,21.4851835 C40.2083119,19.0731319 40.1095867,17.3277675 40.0701139,16.955158 C40.0305834,16.582606 39.9714176,16.445362 39.9121652,16.3865063 C39.7937758,16.2491763 39.6160473,16.1511408 39.0238116,16.1119324 L38.332764,16.0727239 L38.2735404,16.0138969 L38.2735404,15.5628419 L38.3327063,15.5040148 C38.8016219,15.5234269 39.5410604,15.5620186 40.531972,15.5628289 L40.5636822,15.5628419 C41.5705118,15.5628419 42.3207252,15.5236334 42.7945715,15.5040148 Z M45.5390109,19.8967677 C46.3879207,19.8967677 47.4935621,20.0732487 48.1844942,20.4262109 L48.2437466,20.4850666 C48.1055775,20.9753014 48.1055775,21.2106096 48.0463251,22.4460919 L47.9871015,22.5049189 L47.6317312,22.5049189 L47.5725654,22.4460919 L47.4540027,21.4655363 C47.4343963,21.3086451 46.7630418,20.4850666 45.3811199,20.4850666 C44.4136764,20.4850666 43.3871249,21.0537757 43.3871249,22.230345 C43.3871249,23.152045 43.9596676,23.5442443 45.1441679,23.7796098 L46.4669239,24.0344791 C47.7107344,24.2698732 48.7175929,24.5051527 48.7175929,26.1524816 C48.7175929,27.7016603 47.4737824,29.3096947 44.5716252,29.3096947 C43.6239903,29.3096947 42.8935855,29.1135951 42.2420107,28.8783156 L42.1828449,28.8194599 C42.222231,28.3684336 42.3012631,27.5447691 42.321014,26.6230692 L42.3802664,26.5642995 L42.7750228,26.5642995 L42.834333,26.6230692 L42.8738058,27.6036248 C43.1897034,28.0546512 43.9793606,28.7214244 45.2034203,28.7214244 C46.0918605,28.7214244 47.4343963,28.2507508 47.4343963,26.7407519 C47.4343963,25.5445641 46.6840963,25.3680256 45.4205927,25.1719259 C43.9793606,24.956179 42.1038416,24.5051527 42.1038416,22.7402271 C42.1038416,20.8380575 43.9991403,19.8967677 45.5390109,19.8967677 Z M50.4550295,27.1721884 C51.0275721,27.1721884 51.4816388,27.6820704 51.4816388,28.211485 C51.4816388,28.7802228 50.9880416,29.2116879 50.4550295,29.2116879 C49.9417104,29.2116879 49.4283913,28.7802228 49.4283913,28.211485 C49.4283913,27.6820704 49.9022376,27.1721884 50.4550295,27.1721884 Z M29.3995912,0.691764571 L29.4589014,0.750620283 L29.4589014,1.20164663 L29.3995912,1.26047366 L28.6888506,1.29968212 C27.9188864,1.33897663 27.7214648,1.47622057 27.6425482,1.59381727 C27.5513261,1.72071018 27.5106923,1.93125447 27.5050429,2.72057436 L27.5043502,11.6736036 C27.5043502,13.0463299 27.4055673,14.3210208 26.9120279,15.5760643 C26.4184885,16.8311365 25.3327134,18.0273244 23.8717016,18.0273244 C23.7335325,18.0273244 23.5952768,18.0077058 23.4571077,17.9881159 C23.4768586,17.792045 23.5163313,17.5566508 23.5163313,17.2821629 C23.5163313,16.9879991 23.4768586,16.6350369 23.4571077,16.4584984 L23.6150276,16.3800815 C23.8914813,16.7134251 24.2073789,16.9095248 24.6417524,16.9095248 C25.4906622,16.9095248 26.0236454,16.4584984 26.0236454,13.7523117 L26.0236454,2.92736379 C26.0236454,1.96645538 25.9842015,1.73114726 25.8854763,1.59381727 C25.8064731,1.47622057 25.6090515,1.33897663 24.8390874,1.29968212 L24.1283467,1.26047366 L24.0691809,1.20164663 L24.0691809,0.750620283 L24.1283467,0.691764571 C24.9575634,0.711411824 25.8657255,0.750620283 26.7738588,0.750620283 C27.662299,0.750620283 28.5704612,0.711411824 29.3995912,0.691764571 Z M33.9580738,5.08451741 C36.5245537,5.08451741 38.3803797,6.69255183 38.3803797,9.69298848 C38.3803797,12.516858 36.2283492,14.4974445 33.8198181,14.4974445 C30.364869,14.4974445 29.3185378,11.6343665 29.3185378,9.84987968 C29.3185378,7.06518994 31.2335584,5.08451741 33.9580738,5.08451741 Z M41.114626,5.08446005 L41.2923545,5.20217147 C41.2566644,5.53923493 41.2370653,6.29350003 41.2336481,7.29087692 L41.2331309,12.4464147 C41.2334774,13.1007686 41.2400322,13.4267983 41.3713578,13.5757732 C41.489776,13.7130745 41.7267281,13.7914914 42.2202675,13.8306999 L42.7532796,13.8699944 L42.8125321,13.9287354 L42.8125321,14.262165 L42.7532796,14.3210208 C42.0030951,14.3013735 41.2528817,14.262165 40.6013936,14.262165 C39.9300679,14.262165 39.1799412,14.3013735 38.4296701,14.3210208 L38.3704176,14.262165 L38.3704176,13.9287354 L38.4296701,13.8699944 L38.96274,13.8306999 C39.4563082,13.7914914 39.6932603,13.7130745 39.8116497,13.5757732 C39.9347641,13.4360652 39.9481996,13.1406441 39.9496683,12.5647394 L39.9498476,7.57621928 C39.9497899,7.02807528 39.9471622,6.65021702 39.8314294,6.51607074 C39.732733,6.39835931 39.6142281,6.33958965 39.33789,6.31997108 L38.4296701,6.28076262 L38.3704176,6.22190691 L38.3704176,5.8885633 L38.4296701,5.82973627 C39.0613785,5.77088056 40.3446618,5.39824245 41.114626,5.08446005 Z M49.1024162,5.08451741 C51.5701998,5.08451741 52.1427425,6.90827006 52.1427425,8.3397947 L52.1427425,12.7521374 C52.1427425,13.6150103 52.2809116,13.7522543 53.149601,13.8307286 L53.5839746,13.869937 L53.6431981,13.9287928 L53.6431981,14.2621364 L53.5839746,14.3209634 C53.1693518,14.3013448 52.6758124,14.2621364 52.2019083,14.2621364 C51.7281486,14.2621364 51.1555771,14.3013448 50.8792389,14.3209634 L50.760734,14.2032806 C50.8594592,12.8894674 50.8594592,11.4578854 50.8594592,9.61448551 C50.8594592,7.69266869 50.7410409,6.14346131 48.3718959,6.14346131 C47.0886126,6.14346131 46.1410066,7.22205246 46.0620611,7.39850486 C45.9838478,7.57327793 45.9249924,8.11318928 45.9238231,9.45592499 L45.9238054,10.7126379 C45.9238054,12.575685 45.9632781,13.1836026 46.0620611,13.4581191 C46.1410066,13.6934846 46.3384281,13.7719016 47.0689196,13.8307286 L47.5426793,13.869937 L47.6019317,13.9287928 L47.6019317,14.2621364 L47.5426793,14.3209634 C46.8517183,14.3013448 46.1212269,14.2621364 45.3710424,14.2621364 C44.6207713,14.2621364 43.8706445,14.3013448 43.19929,14.3209634 L43.1401242,14.2621364 L43.1401242,13.9287928 L43.19929,13.869937 L43.6534433,13.8307286 C44.1469827,13.7915488 44.3839636,13.7130458 44.502353,13.5758019 C44.6216874,13.4402919 44.6379531,13.1585505 44.6401846,12.616819 L44.6405221,7.52008837 C44.6401467,7.00226137 44.6338807,6.64562788 44.5221327,6.51609942 C44.4234075,6.398388 44.3049315,6.33956097 44.0285933,6.31991371 L43.19929,6.28070525 L43.1401242,6.22187823 L43.1401242,5.88853462 L43.19929,5.82967891 C43.7521685,5.77085188 45.0353651,5.39829981 45.805416,5.08451741 L45.9238054,5.20220015 L45.9238054,6.81023457 C46.3582078,6.49645217 47.2861208,5.69243496 47.562459,5.37865256 L47.5849818,5.3692735 C47.9526819,5.21631175 48.3284672,5.08451741 49.1024162,5.08451741 Z M33.7210928,5.67281639 C31.9837429,5.67281639 30.7992426,6.88865149 30.7992426,9.32035036 C30.7992426,12.0658316 31.9047974,13.9091742 33.8198181,13.9091742 C35.4584716,13.9091742 36.8996748,12.9874455 36.8996748,9.86944088 C36.8996748,7.73187715 36.0310143,5.67281639 33.7210928,5.67281639 Z M40.5816428,0.966338513 C41.114626,0.966338513 41.5490285,1.39771761 41.5490285,1.92724692 C41.5490285,2.45669019 41.114626,2.88815533 40.5816428,2.88815533 C40.0486306,2.88815533 39.6142281,2.45669019 39.6142281,1.92724692 C39.6142281,1.39771761 40.0486306,0.966338513 40.5816428,0.966338513 Z" id="Combined-Shape"></path>
                            </g>
                        </g>
                    </g>
                    <text id="Nike-Member-Home" font-family="Canela-Light, Canela" font-size="40" font-weight="300" fill="#111111">
                        <tspan x="24" y="129">Nike Member </tspan>
                        <tspan x="24" y="177">Home</tspan>
                    </text>
                </g>
            </g>
        </g>
    </g>
</svg>