<svg width="360" height="400" viewBox="0 0 360 400" fill="none" xmlns="http://www.w3.org/2000/svg">
<rect width="360" height="400" rx="20" fill="url(#paint0_linear)"/>
<path d="M36.87 333.638V330.558H38.62C39.684 330.558 40.328 331.16 40.328 332.112C40.328 333.05 39.684 333.638 38.62 333.638H36.87ZM38.872 335.122C40.776 335.122 42.036 333.848 42.036 332.098C42.036 330.362 40.776 329.074 38.872 329.074H35.19V339H36.87V335.122H38.872ZM51.3965 339H53.3005L51.0605 334.912C52.4465 334.576 53.3005 333.498 53.3005 332.084C53.3005 330.404 52.1105 329.074 50.1925 329.074H46.3845V339H48.0785V335.08H49.3105L51.3965 339ZM48.0785 333.596V330.558H49.8845C50.9205 330.558 51.5925 331.16 51.5925 332.084C51.5925 332.994 50.9205 333.596 49.8845 333.596H48.0785ZM58.9452 334.03C58.9452 331.636 60.5972 330.446 62.2632 330.446C63.9432 330.446 65.5952 331.636 65.5952 334.03C65.5952 336.424 63.9432 337.614 62.2632 337.614C60.5972 337.614 58.9452 336.424 58.9452 334.03ZM57.2232 334.03C57.2232 337.292 59.6592 339.21 62.2632 339.21C64.8672 339.21 67.3172 337.292 67.3172 334.03C67.3172 330.782 64.8672 328.864 62.2632 328.864C59.6592 328.864 57.2232 330.782 57.2232 334.03ZM70.9808 336.004C70.9808 337.936 72.2128 339.21 74.1588 339.21C76.0488 339.21 77.2808 337.74 77.2808 335.976V329.074H75.6008V336.018C75.6008 337.026 75.0408 337.628 74.1448 337.628C73.2768 337.628 72.6188 337.11 72.6188 335.948V335.024L70.9808 335.36V336.004ZM88.479 339V337.432H84.027V334.8H88.059V333.274H84.027V330.642H88.479V329.074H82.347V339H88.479ZM97.6645 339.21C100.198 339.21 101.71 337.6 102.158 335.92L100.618 335.416C100.282 336.536 99.3305 337.6 97.6645 337.6C95.9705 337.6 94.3745 336.368 94.3745 334.044C94.3745 331.636 96.0125 330.446 97.6505 330.446C99.3165 330.446 100.24 331.412 100.534 332.616L102.116 332.084C101.668 330.348 100.17 328.864 97.6505 328.864C95.0745 328.864 92.6525 330.81 92.6525 334.044C92.6525 337.278 94.9905 339.21 97.6645 339.21ZM113.694 330.656V329.074H105.56V330.656H108.78V339H110.46V330.656H113.694ZM116.91 337.964C116.91 338.58 117.414 339.084 118.044 339.084C118.66 339.084 119.178 338.58 119.178 337.964C119.178 337.334 118.66 336.83 118.044 336.83C117.414 336.83 116.91 337.334 116.91 337.964ZM116.896 333.232C116.896 333.848 117.4 334.352 118.03 334.352C118.646 334.352 119.164 333.848 119.164 333.232C119.164 332.602 118.646 332.098 118.03 332.098C117.4 332.098 116.896 332.602 116.896 333.232ZM133.456 339V329.928H132C131.804 330.88 130.908 331.608 129.606 331.636V332.784H131.804V339H133.456ZM147.162 334.8V339H148.842V334.8L152.342 329.074H150.452L148.058 333.232L145.678 329.074H143.69L147.162 334.8ZM162.6 339V337.432H158.148V334.8H162.18V333.274H158.148V330.642H162.6V329.074H156.468V339H162.6ZM174.206 339H176.04L172.176 329.074H170.23L166.366 339H168.144L169.068 336.508H173.268L174.206 339ZM171.168 330.894L172.68 334.954H169.656L171.168 330.894ZM185.181 339H187.085L184.845 334.912C186.231 334.576 187.085 333.498 187.085 332.084C187.085 330.404 185.895 329.074 183.977 329.074H180.169V339H181.863V335.08H183.095L185.181 339ZM181.863 333.596V330.558H183.669C184.705 330.558 185.377 331.16 185.377 332.084C185.377 332.994 184.705 333.596 183.669 333.596H181.863ZM199.323 341.142V327.814H197.951V341.142H199.323ZM217.896 330.656V329.074H209.762V330.656H212.982V339H214.662V330.656H217.896ZM228.206 339V337.432H223.754V334.8H227.786V333.274H223.754V330.642H228.206V329.074H222.074V339H228.206ZM239.812 339H241.646L237.782 329.074H235.836L231.972 339H233.75L234.674 336.508H238.874L239.812 339ZM236.774 330.894L238.286 334.954H235.262L236.774 330.894ZM256.695 339V329.074H254.413L251.235 336.648L248.015 329.074H245.775V339H247.413V331.72L250.479 339H251.935L255.029 331.692V339H256.695ZM41.714 347.398C41.49 346.292 40.58 344.864 38.242 344.864C36.394 344.864 34.868 346.236 34.868 347.902C34.868 349.386 35.876 350.38 37.388 350.688L38.788 350.982C39.642 351.164 40.118 351.682 40.118 352.326C40.118 353.096 39.502 353.698 38.312 353.698C36.884 353.698 36.142 352.746 36.044 351.71L34.476 352.158C34.63 353.586 35.792 355.21 38.312 355.21C40.58 355.21 41.826 353.74 41.826 352.2C41.826 350.8 40.888 349.694 39.138 349.344L37.71 349.05C36.94 348.882 36.548 348.406 36.548 347.776C36.548 347.02 37.248 346.348 38.256 346.348C39.586 346.348 40.104 347.258 40.202 347.874L41.714 347.398ZM48.0789 355V345.074H46.3709V355H48.0789ZM60.3988 355V353.404H54.7568L60.3288 346.67V345.074H52.8108V346.656H58.1588L52.6568 353.348V355H60.3988ZM71.0911 355V353.432H66.6391V350.8H70.6711V349.274H66.6391V346.642H71.0911V345.074H64.9591V355H71.0911ZM75.7116 353.964C75.7116 354.58 76.2156 355.084 76.8456 355.084C77.4616 355.084 77.9796 354.58 77.9796 353.964C77.9796 353.334 77.4616 352.83 76.8456 352.83C76.2156 352.83 75.7116 353.334 75.7116 353.964ZM75.6976 349.232C75.6976 349.848 76.2016 350.352 76.8316 350.352C77.4476 350.352 77.9656 349.848 77.9656 349.232C77.9656 348.602 77.4476 348.098 76.8316 348.098C76.2016 348.098 75.6976 348.602 75.6976 349.232ZM88.4768 353.012H92.8448V355H94.4968V353.012H96.0228V351.528H94.4968V345.928H92.3408L88.4768 351.192V353.012ZM92.8448 351.528H89.9888L92.8448 347.622V351.528ZM108.174 349.638V346.558H109.924C110.988 346.558 111.632 347.16 111.632 348.112C111.632 349.05 110.988 349.638 109.924 349.638H108.174ZM110.176 351.122C112.08 351.122 113.34 349.848 113.34 348.098C113.34 346.362 112.08 345.074 110.176 345.074H106.494V355H108.174V351.122H110.176ZM123.821 355V353.432H119.369V350.8H123.401V349.274H119.369V346.642H123.821V345.074H117.689V355H123.821ZM129.716 350.03C129.716 347.636 131.368 346.446 133.034 346.446C134.714 346.446 136.366 347.636 136.366 350.03C136.366 352.424 134.714 353.614 133.034 353.614C131.368 353.614 129.716 352.424 129.716 350.03ZM127.994 350.03C127.994 353.292 130.43 355.21 133.034 355.21C135.638 355.21 138.088 353.292 138.088 350.03C138.088 346.782 135.638 344.864 133.034 344.864C130.43 344.864 127.994 346.782 127.994 350.03ZM144.342 349.638V346.558H146.092C147.156 346.558 147.8 347.16 147.8 348.112C147.8 349.05 147.156 349.638 146.092 349.638H144.342ZM146.344 351.122C148.248 351.122 149.508 349.848 149.508 348.098C149.508 346.362 148.248 345.074 146.344 345.074H142.662V355H144.342V351.122H146.344ZM160.086 355V353.404H155.536V345.074H153.856V355H160.086ZM170.554 355V353.432H166.102V350.8H170.134V349.274H166.102V346.642H170.554V345.074H164.422V355H170.554Z" fill="white" fill-opacity="0.5"/>
<path d="M84.464 308V290.984H81.152V302.24L74.072 290.984H69.944V308H73.256V295.928L80.984 308H84.464ZM89.4001 300.752C89.4721 299.672 90.3841 298.424 92.0401 298.424C93.8641 298.424 94.6321 299.576 94.6801 300.752H89.4001ZM94.9921 303.824C94.6081 304.88 93.7921 305.624 92.3041 305.624C90.7201 305.624 89.4001 304.496 89.3281 302.936H97.7761C97.7761 302.888 97.8241 302.408 97.8241 301.952C97.8241 298.16 95.6401 295.832 91.9921 295.832C88.9681 295.832 86.1841 298.28 86.1841 302.048C86.1841 306.032 89.0401 308.36 92.2801 308.36C95.1841 308.36 97.0561 306.656 97.6561 304.616L94.9921 303.824ZM105.886 296.192L103.318 303.776L101.134 296.192H97.7742L101.542 308H104.782L107.494 299.936L110.254 308H113.446L117.142 296.192H113.974L111.79 303.8L109.246 296.192H105.886ZM127.609 300.848V308H130.921V300.848L136.921 290.984H133.201L129.385 297.728L125.569 290.984H121.681L127.609 300.848ZM140.849 305.456C139.289 305.456 137.849 304.304 137.849 302.096C137.849 299.864 139.289 298.736 140.849 298.736C142.409 298.736 143.849 299.864 143.849 302.096C143.849 304.328 142.409 305.456 140.849 305.456ZM140.849 295.832C137.321 295.832 134.657 298.448 134.657 302.096C134.657 305.72 137.321 308.36 140.849 308.36C144.377 308.36 147.041 305.72 147.041 302.096C147.041 298.448 144.377 295.832 140.849 295.832ZM155.8 296.144C155.56 296.12 155.32 296.096 155.056 296.096C154.048 296.096 152.416 296.384 151.696 297.944V296.192H148.6V308H151.792V302.6C151.792 300.056 153.208 299.264 154.84 299.264C155.128 299.264 155.44 299.288 155.8 299.36V296.144ZM168.534 296.192H164.358L160.278 300.584V290.624H157.086V308H160.278V304.88L161.598 303.488L164.718 308H168.63L163.806 301.16L168.534 296.192ZM169.151 306.08C169.151 307.232 169.967 308.072 171.143 308.072C171.407 308.072 171.671 308 171.767 307.928C171.719 309.248 170.567 310.28 169.487 310.52V312.056C171.263 311.84 173.711 310.352 173.711 306.824C173.711 305.264 172.823 304.064 171.335 304.064C170.087 304.064 169.151 304.928 169.151 306.08ZM195.637 308V290.984H192.325V302.24L185.245 290.984H181.117V308H184.429V295.928L192.157 308H195.637ZM210.1 308H213.7L207.22 290.984H203.38L196.852 308H200.356L201.772 304.112H208.684L210.1 308ZM205.228 294.656L207.58 301.088H202.876L205.228 294.656Z" fill="white"/>
<path fill-rule="evenodd" clip-rule="evenodd" d="M52 295C52 299.6 46.73 307.69 45 310C45 310 43.5 312 43 312C42.5 312 41 310 41 310C39.27 307.69 34 299.6 34 295C34 290.029 38.0294 286 43 286C47.9706 286 52 290.029 52 295ZM43 291C40.7909 291 39 292.791 39 295C39 297.209 40.7909 299 43 299C45.2091 299 47 297.209 47 295C47 292.791 45.2091 291 43 291Z" fill="white"/>
<path fill-rule="evenodd" clip-rule="evenodd" d="M66.351 78.2202H34V45.8691H66.351V78.2202ZM40.1954 48.2363V50.01H39.9722C39.7808 49.1387 39.3663 48.4851 38.7923 48.4541C38.4096 48.423 38.1866 48.6408 37.9951 48.9521C37.8039 49.3254 37.7081 50.1033 37.7081 51.0369C37.7081 51.9082 37.7401 52.5616 37.8357 53.0284C37.8994 53.2462 38.0589 53.5885 38.4734 53.5885C38.6966 53.5885 38.8561 53.5262 38.9518 53.4018C39.1113 53.2151 39.1431 52.8417 39.1431 52.5928V51.7526C39.1431 51.4414 39.0475 51.2547 38.8879 51.1613C38.8096 51.123 38.7071 51.1083 38.6175 51.0954C38.5614 51.0873 38.5103 51.08 38.4734 51.068V50.8502H40.2592V55.2999H40.0358L40.0185 55.2375C39.9321 54.9268 39.8666 54.6914 39.7172 54.4286C39.5577 54.1487 39.2706 53.8376 38.7923 53.8376C38.2821 53.8063 37.8994 54.1176 37.8994 54.5843C37.8994 55.1637 38.231 55.3385 38.8426 55.6609C38.8881 55.6849 38.9351 55.7097 38.9836 55.7355C39.0619 55.7791 39.1428 55.8219 39.2247 55.8652C39.8428 56.1923 40.5142 56.5476 40.5142 57.5093C40.5142 58.5673 39.5895 59.2209 38.5373 59.2209H36.8472V57.0738H37.0704C37.3574 58.6918 38.0589 58.9719 38.5373 58.9719C39.1431 58.9719 39.43 58.5984 39.43 58.0695C39.3981 57.3847 38.92 57.1359 38.2503 56.7937C37.2937 56.2646 36.8472 56.0156 36.8472 55.1444C36.879 54.3975 37.4851 53.9307 38.1546 53.7442C36.7515 53.5885 36.337 52.344 36.3688 51.0057C36.3688 49.6678 37.166 48.2363 38.7284 48.2363H40.1954ZM45.0425 48.3297H46.1585V53.3706H45.0425V48.3297ZM56.1076 50.3523V53.3706H55.0233V50.2279C55.0233 49.8545 54.9914 49.5433 54.7364 49.481C54.6407 49.45 54.5132 49.481 54.3856 49.5742C54.2261 49.7299 54.1624 49.9166 54.1624 50.1969V53.3706H53.0781V50.2279C53.0781 49.8545 53.0781 49.5433 52.8231 49.481C52.7276 49.45 52.6 49.481 52.4723 49.5742C52.2809 49.7299 52.2491 49.9166 52.2491 50.2279V53.3706H51.165V49.201H52.1534V49.6678C52.2809 49.3877 52.6 49.1387 53.0143 49.1076C53.5246 49.0765 53.8753 49.2633 54.0347 49.6988C54.1624 49.45 54.4493 49.1387 54.9276 49.1076C55.6291 49.0765 56.1076 49.481 56.1076 50.3523ZM62.0067 53.3706H60.9226V49.201H61.943V49.6678C62.0706 49.3877 62.3895 49.1387 62.8041 49.1076C63.5056 49.0765 63.9839 49.481 63.9839 50.3523V53.3706H62.8678V50.2279C62.8678 49.8545 62.8678 49.5433 62.6127 49.481C62.517 49.45 62.3577 49.481 62.2299 49.5742C62.0706 49.7299 62.0067 49.9166 62.0067 50.2279V53.3706ZM43.5755 49.481C43.3205 49.2633 43.0015 49.1076 42.6188 49.1076C42.2363 49.1076 41.9493 49.2633 41.6623 49.481C41.2157 49.8545 40.9289 50.5391 40.9289 51.2858C40.9289 52.0637 41.2157 52.717 41.6623 53.0907C41.9493 53.3085 42.2363 53.4639 42.6188 53.4639C43.0015 53.4639 43.3205 53.3085 43.5755 53.0907C44.0539 52.717 44.3089 52.0637 44.3089 51.2858C44.3089 50.5391 44.0539 49.8545 43.5755 49.481ZM43.0333 52.9973C43.161 52.6862 43.161 52.0637 43.161 51.2858C43.161 51.1761 43.1617 51.0685 43.1624 50.9636V50.9636C43.1663 50.3545 43.1696 49.8398 43.0333 49.5742C42.9378 49.4187 42.842 49.3254 42.6188 49.3254C42.4276 49.3254 42.3001 49.4187 42.2363 49.5742C42.0768 49.8855 42.0768 50.5391 42.0768 51.2858C42.0768 52.0637 42.0768 52.6862 42.2363 52.9973C42.3001 53.1528 42.4276 53.2462 42.6188 53.2462C42.842 53.2462 42.9378 53.1528 43.0333 52.9973ZM54.7044 54.9577V56.0779H54.4813C54.3538 55.6112 54.1624 55.2067 53.6523 55.1755C53.3334 55.1444 53.0463 55.3311 53.0143 55.6112C52.9824 55.8911 53.0781 56.1401 53.6523 56.4513C53.742 56.5008 53.8293 56.547 53.9134 56.5915L53.9135 56.5916C54.5175 56.9113 54.9596 57.1453 54.9596 57.8828C54.9596 58.7851 54.1624 59.2209 53.4927 59.2209H52.2171V57.6648H52.4405C52.6 58.474 52.8551 58.9719 53.4609 59.0029C53.8435 59.0029 54.1304 58.7851 54.1304 58.3806C54.1304 57.9761 53.8753 57.7271 53.2695 57.3847L53.2632 57.3809C52.5974 56.9786 52.1852 56.7296 52.1852 56.1712C52.1852 55.4243 52.7276 54.9577 53.5884 54.9577H54.7044ZM50.1127 48.3297V53.3706H49.0603V52.9661C48.9646 53.184 48.7094 53.4329 48.2631 53.4329C47.1471 53.4329 46.86 52.0327 46.8919 51.1924C46.9237 49.9477 47.5616 49.1387 48.3588 49.1387C48.6776 49.1387 48.901 49.2943 48.9965 49.5121V48.3297H50.1127ZM48.8051 49.5433C49.0285 49.8545 49.0285 50.6012 49.0285 51.1924C49.0285 51.2534 49.0288 51.3161 49.0291 51.38V51.38V51.38V51.3801C49.032 51.9687 49.0353 52.6574 48.8051 52.9661C48.7094 53.0907 48.614 53.1528 48.4544 53.1528C48.2313 53.1528 48.1036 52.904 48.0399 52.4995C48.0079 52.126 48.0079 51.6592 48.0079 51.1613C48.0079 50.3213 48.0718 49.3877 48.4863 49.3877C48.6456 49.3877 48.7093 49.4498 48.8047 49.5429L48.8051 49.5433ZM59.9022 50.29C59.9022 49.7299 59.7108 49.481 59.4239 49.3254C59.2007 49.201 58.9456 49.1076 58.531 49.1076C57.6381 49.1076 57.0005 49.5742 57.0323 50.1346C57.0641 50.4768 57.3192 50.6012 57.5426 50.6012C57.8613 50.6322 58.2121 50.4768 58.1803 50.0412C58.1638 49.8972 58.0968 49.8273 58.0399 49.7679C57.9862 49.7117 57.9415 49.665 57.957 49.5742C57.957 49.4187 58.1803 49.3564 58.3078 49.3254C58.6269 49.3254 58.7861 49.45 58.7861 49.7299V50.4145C58.7861 50.6633 58.7224 50.6947 58.1166 50.9436C58.0734 50.9616 58.0304 50.9793 57.9879 50.9968L57.987 50.9972L57.9866 50.9974L57.9865 50.9974C57.3705 51.251 56.8409 51.469 56.8409 52.3127C56.8409 53.2774 57.5106 53.4639 57.8932 53.4639C58.3716 53.4639 58.7224 53.2462 58.8499 52.904V53.3706H59.9022V50.29ZM58.7861 50.8813L58.4353 51.099C58.0846 51.317 58.0207 51.5969 57.9889 51.9082C57.957 52.1571 57.957 52.375 57.9889 52.7483C58.0207 53.0907 58.2441 53.1528 58.4353 53.0907C58.6587 52.9973 58.7861 52.5928 58.7861 52.1571V50.8813ZM44.0857 56.1089C44.0857 55.5489 43.9264 55.3311 43.6394 55.1444C43.416 55.02 43.161 54.9577 42.7465 54.9577C41.8536 54.9577 41.2157 55.4243 41.2476 55.9534C41.2796 56.2958 41.5348 56.4202 41.7579 56.4513C42.0768 56.4513 42.4276 56.2958 42.3956 55.8911C42.3799 55.7525 42.3171 55.6825 42.2617 55.6207C42.2053 55.5577 42.1564 55.5032 42.1724 55.3933C42.1724 55.2378 42.3956 55.1755 42.5233 55.1755C42.842 55.1444 43.0015 55.2688 43.0015 55.58V56.2646C43.0015 56.4825 42.9378 56.5136 42.3001 56.7937C42.2521 56.8148 42.2041 56.8354 42.1567 56.8558L42.1565 56.8558L42.1565 56.8559L42.1565 56.8559C41.5742 57.106 41.0562 57.3286 41.0562 58.1628C41.0562 59.1273 41.6941 59.283 42.1086 59.283C42.5872 59.283 42.9378 59.0652 43.0653 58.7541V59.2209H44.0857V56.1089ZM43.0015 56.7003L42.6508 56.9181C42.3001 57.1359 42.2363 57.416 42.2043 57.7271C42.1724 57.9761 42.1724 58.225 42.2043 58.5673C42.2043 58.9408 42.4276 59.0029 42.6188 58.9096C42.874 58.8162 43.0015 58.4429 43.0015 57.9761V56.7003ZM50.1764 54.9577C50.8779 54.8954 51.3562 55.3311 51.3562 56.2025V59.2209H50.2402V56.0779C50.2402 55.7044 50.2402 55.3933 49.985 55.3311C49.8894 55.2999 49.73 55.3311 49.6023 55.4243C49.443 55.58 49.3792 55.7667 49.3792 56.0779V59.2209H48.2949V58.1005C48.1036 58.6295 47.4341 59.283 46.6687 59.283C45.999 59.283 44.8193 58.9719 44.8193 57.1671C44.8193 55.4866 45.9671 54.9577 46.573 54.9577C47.0514 54.9577 47.3702 55.0821 47.5616 55.3933C47.7211 55.6423 47.7529 56.0468 47.5297 56.2958C47.2425 56.5757 46.6367 56.5136 46.5412 56.1401C46.4574 55.8402 46.5937 55.6837 46.7146 55.5449C46.7317 55.5252 46.7485 55.5059 46.7644 55.4866C46.8919 55.3622 46.86 55.1755 46.573 55.1755C46.1903 55.1755 46.0628 55.58 45.999 56.0779C45.9353 56.8558 45.9353 57.5714 46.031 58.1939C46.0947 58.6295 46.2221 59.034 46.7644 59.034C47.5297 59.0652 48.2949 58.0695 48.2949 57.0115V54.1487H49.3792V55.3622C49.5387 55.1444 49.8257 54.9888 50.1764 54.9577Z" fill="white"/>
<path fill-rule="evenodd" clip-rule="evenodd" d="M80.5408 58.6523L83.4618 61.5438L86.3827 58.6523L86.6625 58.9294L83.7416 61.8208L86.6625 64.7122L86.3827 64.9893L83.4618 62.0978L80.5408 64.9893L80.261 64.7122L83.1819 61.8208L80.261 58.9294L80.5408 58.6523Z" fill="white" stroke="white" stroke-width="1.3125"/>
<rect opacity="0.122339" x="94.261" y="49.2373" width="35.23" height="5.70268" rx="2.3625" fill="#2F66A5"/>
<rect opacity="0.122339" x="98.0356" y="56.8408" width="42.7793" height="6.96994" rx="2.8875" fill="#2F66A5"/>
<path d="M116.594 75.1077C124.705 75.1077 131.274 68.4862 131.274 60.326C131.274 52.1659 124.705 45.5443 116.594 45.5443C108.483 45.5443 101.914 52.1659 101.914 60.326C101.914 68.4862 108.483 75.1077 116.594 75.1077Z" fill="#E6ECF4" stroke="#2F66A5" stroke-width="1.05"/>
<mask id="mask0" mask-type="alpha" maskUnits="userSpaceOnUse" x="101" y="45" width="31" height="31">
<path d="M116.594 75.1077C124.705 75.1077 131.274 68.4862 131.274 60.326C131.274 52.1659 124.705 45.5443 116.594 45.5443C108.483 45.5443 101.914 52.1659 101.914 60.326C101.914 68.4862 108.483 75.1077 116.594 75.1077Z" fill="white" stroke="white" stroke-width="1.05"/>
</mask>
<g mask="url(#mask0)">
<path d="M110.514 66.2369H122.675V76.5923H110.514V66.2369Z" fill="white" stroke="#4A4A4A" stroke-width="1.05"/>
<path d="M110.303 67.2959L104.956 75.2163" stroke="#4A4A4A" stroke-width="1.05" stroke-linecap="square"/>
<path d="M122.571 66.9795L128.233 75.2167" stroke="#4A4A4A" stroke-width="1.05" stroke-linecap="square"/>
</g>
<path fill-rule="evenodd" clip-rule="evenodd" d="M114.471 79.3917C114.406 79.2854 114.381 79.1594 114.4 79.0362L116.065 68.3945C116.157 67.8027 117.009 67.8027 117.102 68.3945L118.796 79.227L117.031 82.1067C116.826 82.4408 116.341 82.4408 116.136 82.1067L114.471 79.3917Z" fill="#4A90E2"/>
<path fill-rule="evenodd" clip-rule="evenodd" d="M114.392 66.9795H118.796L117.475 69.514H115.713L114.392 66.9795Z" fill="#4A90E2"/>
<rect x="105.481" y="41.525" width="22.8561" height="22.468" rx="1.575" fill="white" stroke="#4A4A4A" stroke-width="1.05"/>
<path d="M111.247 55.2568C111.247 55.2568 112.869 58.336 116.752 58.336C120.634 58.336 122.256 55.2568 122.256 55.2568" stroke="#4A4A4A" stroke-width="1.05" stroke-linecap="square"/>
<rect x="112.505" y="46.7031" width="1.88732" height="5.06905" rx="0.943661" fill="#4A4A4A"/>
<rect x="119.425" y="46.7031" width="1.88732" height="5.06905" rx="0.943661" fill="#4A4A4A"/>
<path fill-rule="evenodd" clip-rule="evenodd" d="M130.749 60.6426H132.007C132.007 64.0117 130.938 67.2214 128.988 69.8728C126.1 73.8012 121.542 76.1665 116.594 76.1665C111.647 76.1665 107.089 73.8012 104.2 69.8728C102.251 67.2214 101.181 64.0117 101.181 60.6426H102.439C102.439 63.8171 103.47 66.7494 105.212 69.1186C107.79 72.6257 111.929 74.8993 116.594 74.8993C121.26 74.8993 125.398 72.6257 127.977 69.1186C129.719 66.7494 130.749 63.8171 130.749 60.6426Z" fill="#2F66A5"/>
<path fill-rule="evenodd" clip-rule="evenodd" d="M114.471 79.3917C114.406 79.2854 114.381 79.1594 114.4 79.0362L116.065 68.3945C116.157 67.8027 117.009 67.8027 117.102 68.3945L118.796 79.227L117.031 82.1067C116.826 82.4408 116.341 82.4408 116.136 82.1067L114.471 79.3917Z" fill="#4A90E2"/>
<path fill-rule="evenodd" clip-rule="evenodd" d="M114.392 66.9795H118.796L117.475 69.514H115.713L114.392 66.9795Z" fill="#4A90E2"/>
<path d="M52.4 113.64L51.6 107.32C49.84 106.64 47.52 106.12 45.12 106.12C40.16 106.12 36.2 108.36 36.2 113.36C36.2 118.52 40.4 120.24 44.44 122.16C48.08 123.76 51.4 125.52 51.4 129.88C51.4 133.28 49.36 135.8 45.08 135.8C40.92 135.8 38.12 133.6 35.72 128.48L35.4 128.6L36.2 135.08C38.6 136 41.4 136.6 44.12 136.6C49.6 136.6 54.4 134.28 54.4 128.4C54.4 123 50.24 120.92 46.2 119.12C42.36 117.4 38.76 115.92 38.76 111.88C38.76 109.16 40.48 106.92 44.16 106.92C47.16 106.92 49.92 108.48 52.08 113.76L52.4 113.64ZM61.9597 109.64C61.9597 108.56 61.0797 107.64 59.9997 107.64C58.9197 107.64 57.9997 108.56 57.9997 109.64C57.9997 110.76 58.9197 111.64 59.9997 111.64C61.0797 111.64 61.9597 110.76 61.9597 109.64ZM57.7997 135.92V136H62.4797V135.92C61.6797 134.16 61.5997 132.56 61.5997 129.8V116.16L56.9197 118.28V118.44C57.8397 119.24 58.6797 120.44 58.6797 122.4V129.84C58.6797 132.6 58.4397 134.16 57.7997 135.92ZM71.2306 136V135.92C70.4306 134.2 70.3506 132.6 70.3506 129.88V120.76C71.5106 119.28 73.1506 118.32 75.1106 118.32C77.7906 118.32 78.3906 120.16 78.3906 122.4V129.92C78.3906 132.52 78.2706 134.2 77.5106 135.92V136H82.2306V135.92C81.3906 134.2 81.3106 132.68 81.3106 129.88V120.8C82.5506 119.32 84.1506 118.32 86.1106 118.32C88.7906 118.32 89.3906 120.16 89.3906 122.4V129.92C89.3906 132.52 89.2706 134.2 88.5106 135.92V136H93.1906V135.92C92.3506 134.24 92.3106 132.64 92.3106 129.88V121.76C92.3106 118.4 91.0306 116.36 87.6306 116.36C84.9506 116.36 82.8706 117.72 81.3106 119.96L81.1906 119.92C80.7506 117.68 79.3906 116.36 76.6306 116.36C73.9506 116.36 71.8306 117.68 70.3506 119.92L70.1906 119.88V116.12L65.6306 118.24V118.32C66.5906 119.16 67.4306 120.32 67.4306 122.4V129.92C67.4306 132.68 67.2706 134.2 66.5106 135.92V136H71.2306ZM106.334 136.6C111.814 136.6 116.374 132.04 116.374 126.52C116.374 121 111.814 116.36 106.334 116.36C100.934 116.36 96.2938 121 96.2938 126.52C96.2938 132.04 100.854 136.6 106.334 136.6ZM106.334 135.84C101.814 135.84 99.6538 131.48 99.6538 126.52C99.6538 121.52 101.854 117.12 106.334 117.12C110.814 117.12 113.014 121.52 113.014 126.52C113.014 131.48 110.854 135.84 106.334 135.84ZM124.355 136V135.92C123.555 134.16 123.475 132.56 123.475 129.8V120.68C125.035 119.08 127.035 118.32 128.915 118.32C131.955 118.32 133.035 120.4 133.035 122.84V129.84C133.035 132.52 132.915 134.16 132.155 135.92V136H136.835V135.92C135.995 134.2 135.955 132.64 135.955 129.8V122.2C135.955 118.56 133.995 116.36 130.315 116.36C127.635 116.36 125.355 117.68 123.475 119.92L123.315 119.88V116.16L118.795 118.28V118.36C119.715 119.16 120.555 120.32 120.555 122.36V129.84C120.555 132.6 120.435 134.2 119.675 135.92V136H124.355ZM156.573 110.68L161.453 124.16H151.613L156.573 110.68ZM150.093 136V135.92C149.213 134.84 148.333 133 149.653 129.44L151.293 124.96H161.733L163.733 130.44C164.733 133.16 164.493 135 163.893 135.92V136H170.253V135.92C168.893 134.76 168.333 133.8 167.173 130.6L158.213 106.36H157.253L148.413 130.2C147.333 133 146.933 134.2 145.213 135.92V136H150.093ZM177.128 136V135.92C176.328 134.16 176.248 132.56 176.248 129.8V120.68C177.808 119.08 179.808 118.32 181.688 118.32C184.728 118.32 185.808 120.4 185.808 122.84V129.84C185.808 132.52 185.688 134.16 184.928 135.92V136H189.608V135.92C188.768 134.2 188.728 132.64 188.728 129.8V122.2C188.728 118.56 186.768 116.36 183.088 116.36C180.408 116.36 178.128 117.68 176.248 119.92L176.088 119.88V116.16L171.568 118.28V118.36C172.488 119.16 173.328 120.32 173.328 122.36V129.84C173.328 132.6 173.208 134.2 172.448 135.92V136H177.128ZM198.339 136V135.92C197.539 134.16 197.459 132.56 197.459 129.8V120.68C199.019 119.08 201.019 118.32 202.899 118.32C205.939 118.32 207.019 120.4 207.019 122.84V129.84C207.019 132.52 206.899 134.16 206.139 135.92V136H210.819V135.92C209.979 134.2 209.939 132.64 209.939 129.8V122.2C209.939 118.56 207.979 116.36 204.299 116.36C201.619 116.36 199.339 117.68 197.459 119.92L197.299 119.88V116.16L192.779 118.28V118.36C193.699 119.16 194.539 120.32 194.539 122.36V129.84C194.539 132.6 194.419 134.2 193.659 135.92V136H198.339ZM226.99 132.36V136.48L231.51 135.2V135.12C230.23 134.36 229.71 133.8 229.71 130.48V116.96H225.03V117.04C226.19 117.76 226.79 118.88 226.79 120.4V131.72C225.79 133.12 224.23 134.28 221.95 134.28C219.39 134.28 218.11 132.8 218.11 129.8V116.96H213.51V117.04C214.51 117.72 215.19 118.8 215.19 120.4V130.44C215.19 134.24 216.95 136.6 220.43 136.6C223.67 136.6 225.51 134.48 226.99 132.36ZM238.874 109.64C238.874 108.56 237.994 107.64 236.914 107.64C235.834 107.64 234.914 108.56 234.914 109.64C234.914 110.76 235.834 111.64 236.914 111.64C237.994 111.64 238.874 110.76 238.874 109.64ZM234.714 135.92V136H239.394V135.92C238.594 134.16 238.514 132.56 238.514 129.8V116.16L233.834 118.28V118.44C234.754 119.24 235.594 120.44 235.594 122.4V129.84C235.594 132.6 235.354 134.16 234.714 135.92ZM248.509 136.6C250.749 136.6 252.389 135.48 253.189 134.4L253.109 134.24C252.669 134.52 251.509 135 250.069 135C248.029 135 247.189 133.96 247.189 132V117.68H252.789V116.96H247.189V113.32H246.989L242.109 117.52V117.68H244.269V132C244.269 135.6 246.389 136.6 248.509 136.6ZM260.28 109.64C260.28 108.56 259.4 107.64 258.32 107.64C257.24 107.64 256.32 108.56 256.32 109.64C256.32 110.76 257.24 111.64 258.32 111.64C259.4 111.64 260.28 110.76 260.28 109.64ZM256.12 135.92V136H260.8V135.92C260 134.16 259.92 132.56 259.92 129.8V116.16L255.24 118.28V118.44C256.16 119.24 257 120.44 257 122.4V129.84C257 132.6 256.76 134.16 256.12 135.92ZM280.316 131.16L280.116 131.04C278.716 133.08 276.396 134.04 273.956 134.04C269.436 134.04 266.876 130.84 266.876 125.44V124.76C266.876 124.52 266.876 124.28 266.916 124.08H280.236C280.556 120.36 277.556 116.36 272.916 116.36C268.276 116.36 263.836 120.44 263.836 126.8C263.836 132.56 267.356 136.6 272.636 136.6C276.596 136.6 279.316 134.32 280.316 131.16ZM272.756 117.08C275.516 117.08 276.996 118.92 276.996 122.92V123.24L266.996 123.44C267.516 119.6 269.556 117.08 272.756 117.08ZM295.094 121.04L294.694 117.12C293.614 116.68 291.814 116.36 290.054 116.36C286.694 116.36 283.294 117.68 283.294 121.56C283.294 125.28 286.454 126.6 289.094 127.64C291.774 128.72 293.774 129.68 293.774 132.08C293.774 134.04 292.414 135.88 289.494 135.88C286.774 135.88 284.894 134.36 283.254 130.84L282.974 130.92L283.374 135.48C284.774 136.08 286.574 136.6 288.934 136.6C293.374 136.6 296.174 134.68 296.174 131C296.174 127.12 293.254 125.88 290.494 124.72C287.734 123.68 285.374 122.72 285.374 120.36C285.374 118.44 286.854 117.08 289.214 117.08C291.134 117.08 293.054 117.96 294.814 121.12L295.094 121.04Z" fill="white"/>
<defs>
<linearGradient id="paint0_linear" x1="0" y1="0" x2="450.336" y2="218.992" gradientUnits="userSpaceOnUse">
<stop stop-color="#89C2FE"/>
<stop offset="1" stop-color="#3C8BDF"/>
</linearGradient>
</defs>
</svg>
