<svg width="360" height="222" viewBox="0 0 360 222" fill="none" xmlns="http://www.w3.org/2000/svg">
<g id="Group 25 Copy 8">
<g id="Group 23">
<rect id="Mask" width="360" height="222" rx="20" fill="white"/>
<mask id="mask0" mask-type="alpha" maskUnits="userSpaceOnUse" x="0" y="0" width="360" height="222">
<rect id="Mask_2" width="360" height="222" rx="20" fill="white"/>
</mask>
<g mask="url(#mask0)">
<g id="Group 23_2">
<rect id="Rectangle" width="360" height="222" fill="#64A8F0"/>
<path id="Gradient BG Copy" fill-rule="evenodd" clip-rule="evenodd" d="M0 0H360V54.5L0 168.5L0 0Z" fill="#89C2FE"/>
</g>
</g>
</g>
<g id="Group 8">
<path id="Combined Shape" fill-rule="evenodd" clip-rule="evenodd" d="M66.351 62.2202H34V29.8691H66.351V62.2202ZM40.1954 32.2363V34.01H39.9722C39.7808 33.1387 39.3663 32.4851 38.7923 32.4541C38.4096 32.423 38.1866 32.6408 37.9951 32.9521C37.8039 33.3254 37.7081 34.1033 37.7081 35.0369C37.7081 35.9082 37.7401 36.5616 37.8357 37.0284C37.8994 37.2462 38.0589 37.5885 38.4734 37.5885C38.6966 37.5885 38.8561 37.5262 38.9518 37.4018C39.1113 37.2151 39.1431 36.8417 39.1431 36.5928V35.7526C39.1431 35.4414 39.0475 35.2547 38.8879 35.1613C38.8096 35.123 38.7071 35.1083 38.6175 35.0954C38.5614 35.0873 38.5103 35.08 38.4734 35.068V34.8502H40.2592V39.2999H40.0358L40.0185 39.2375C39.9321 38.9268 39.8666 38.6914 39.7172 38.4286C39.5577 38.1487 39.2706 37.8376 38.7923 37.8376C38.2821 37.8063 37.8994 38.1176 37.8994 38.5843C37.8994 39.1637 38.231 39.3385 38.8426 39.6609C38.8881 39.6849 38.9351 39.7097 38.9836 39.7355C39.0619 39.7791 39.1428 39.8219 39.2247 39.8652C39.8428 40.1923 40.5142 40.5476 40.5142 41.5093C40.5142 42.5673 39.5895 43.2209 38.5373 43.2209H36.8472V41.0738H37.0704C37.3574 42.6918 38.0589 42.9719 38.5373 42.9719C39.1431 42.9719 39.43 42.5984 39.43 42.0695C39.3981 41.3847 38.92 41.1359 38.2503 40.7937C37.2937 40.2646 36.8472 40.0156 36.8472 39.1444C36.879 38.3975 37.4851 37.9307 38.1546 37.7442C36.7515 37.5885 36.337 36.344 36.3688 35.0057C36.3688 33.6678 37.166 32.2363 38.7284 32.2363H40.1954ZM45.0425 32.3297H46.1585V37.3706H45.0425V32.3297ZM56.1076 34.3523V37.3706H55.0233V34.2279C55.0233 33.8545 54.9914 33.5433 54.7364 33.481C54.6407 33.45 54.5132 33.481 54.3856 33.5742C54.2261 33.7299 54.1624 33.9166 54.1624 34.1969V37.3706H53.0781V34.2279C53.0781 33.8545 53.0781 33.5433 52.8231 33.481C52.7276 33.45 52.6 33.481 52.4723 33.5742C52.2809 33.7299 52.2491 33.9166 52.2491 34.2279V37.3706H51.165V33.201H52.1534V33.6678C52.2809 33.3877 52.6 33.1387 53.0143 33.1076C53.5246 33.0765 53.8753 33.2633 54.0347 33.6988C54.1624 33.45 54.4493 33.1387 54.9276 33.1076C55.6291 33.0765 56.1076 33.481 56.1076 34.3523ZM62.0067 37.3706H60.9226V33.201H61.943V33.6678C62.0706 33.3877 62.3895 33.1387 62.8041 33.1076C63.5056 33.0765 63.9839 33.481 63.9839 34.3523V37.3706H62.8678V34.2279C62.8678 33.8545 62.8678 33.5433 62.6127 33.481C62.517 33.45 62.3577 33.481 62.2299 33.5742C62.0706 33.7299 62.0067 33.9166 62.0067 34.2279V37.3706ZM43.5755 33.481C43.3205 33.2633 43.0015 33.1076 42.6188 33.1076C42.2363 33.1076 41.9493 33.2633 41.6623 33.481C41.2157 33.8545 40.9289 34.5391 40.9289 35.2858C40.9289 36.0637 41.2157 36.717 41.6623 37.0907C41.9493 37.3085 42.2363 37.4639 42.6188 37.4639C43.0015 37.4639 43.3205 37.3085 43.5755 37.0907C44.0539 36.717 44.3089 36.0637 44.3089 35.2858C44.3089 34.5391 44.0539 33.8545 43.5755 33.481ZM43.0333 36.9973C43.161 36.6862 43.161 36.0637 43.161 35.2858C43.161 35.1761 43.1617 35.0685 43.1624 34.9636V34.9636C43.1663 34.3545 43.1696 33.8398 43.0333 33.5742C42.9378 33.4187 42.842 33.3254 42.6188 33.3254C42.4276 33.3254 42.3001 33.4187 42.2363 33.5742C42.0768 33.8855 42.0768 34.5391 42.0768 35.2858C42.0768 36.0637 42.0768 36.6862 42.2363 36.9973C42.3001 37.1528 42.4276 37.2462 42.6188 37.2462C42.842 37.2462 42.9378 37.1528 43.0333 36.9973ZM54.7044 38.9577V40.0779H54.4813C54.3538 39.6112 54.1624 39.2067 53.6523 39.1755C53.3334 39.1444 53.0463 39.3311 53.0143 39.6112C52.9824 39.8911 53.0781 40.1401 53.6523 40.4513C53.742 40.5008 53.8293 40.547 53.9134 40.5915L53.9135 40.5916C54.5175 40.9113 54.9596 41.1453 54.9596 41.8828C54.9596 42.7851 54.1624 43.2209 53.4927 43.2209H52.2171V41.6648H52.4405C52.6 42.474 52.8551 42.9719 53.4609 43.0029C53.8435 43.0029 54.1304 42.7851 54.1304 42.3806C54.1304 41.9761 53.8753 41.7271 53.2695 41.3847L53.2632 41.3809C52.5974 40.9786 52.1852 40.7296 52.1852 40.1712C52.1852 39.4243 52.7276 38.9577 53.5884 38.9577H54.7044ZM50.1127 32.3297V37.3706H49.0603V36.9661C48.9646 37.184 48.7094 37.4329 48.2631 37.4329C47.1471 37.4329 46.86 36.0327 46.8919 35.1924C46.9237 33.9477 47.5616 33.1387 48.3588 33.1387C48.6776 33.1387 48.901 33.2943 48.9965 33.5121V32.3297H50.1127ZM48.8051 33.5433C49.0285 33.8545 49.0285 34.6012 49.0285 35.1924C49.0285 35.2534 49.0288 35.3161 49.0291 35.38V35.38V35.38V35.3801C49.032 35.9687 49.0353 36.6574 48.8051 36.9661C48.7094 37.0907 48.614 37.1528 48.4544 37.1528C48.2313 37.1528 48.1036 36.904 48.0399 36.4995C48.0079 36.126 48.0079 35.6592 48.0079 35.1613C48.0079 34.3213 48.0718 33.3877 48.4863 33.3877C48.6456 33.3877 48.7093 33.4498 48.8047 33.5429L48.8051 33.5433ZM59.9022 34.29C59.9022 33.7299 59.7108 33.481 59.4239 33.3254C59.2007 33.201 58.9456 33.1076 58.531 33.1076C57.6381 33.1076 57.0005 33.5742 57.0323 34.1346C57.0641 34.4768 57.3192 34.6012 57.5426 34.6012C57.8613 34.6322 58.2121 34.4768 58.1803 34.0412C58.1638 33.8972 58.0968 33.8273 58.0399 33.7679C57.9862 33.7117 57.9415 33.665 57.957 33.5742C57.957 33.4187 58.1803 33.3564 58.3078 33.3254C58.6269 33.3254 58.7861 33.45 58.7861 33.7299V34.4145C58.7861 34.6633 58.7224 34.6947 58.1166 34.9436C58.0734 34.9616 58.0304 34.9793 57.9879 34.9968L57.987 34.9972L57.9866 34.9974L57.9865 34.9974C57.3705 35.251 56.8409 35.469 56.8409 36.3127C56.8409 37.2774 57.5106 37.4639 57.8932 37.4639C58.3716 37.4639 58.7224 37.2462 58.8499 36.904V37.3706H59.9022V34.29ZM58.7861 34.8813L58.4353 35.099C58.0846 35.317 58.0207 35.5969 57.9889 35.9082C57.957 36.1571 57.957 36.375 57.9889 36.7483C58.0207 37.0907 58.2441 37.1528 58.4353 37.0907C58.6587 36.9973 58.7861 36.5928 58.7861 36.1571V34.8813ZM44.0857 40.1089C44.0857 39.5489 43.9264 39.3311 43.6394 39.1444C43.416 39.02 43.161 38.9577 42.7465 38.9577C41.8536 38.9577 41.2157 39.4243 41.2476 39.9534C41.2796 40.2958 41.5348 40.4202 41.7579 40.4513C42.0768 40.4513 42.4276 40.2958 42.3956 39.8911C42.3799 39.7525 42.3171 39.6825 42.2617 39.6207C42.2053 39.5577 42.1564 39.5032 42.1724 39.3933C42.1724 39.2378 42.3956 39.1755 42.5233 39.1755C42.842 39.1444 43.0015 39.2688 43.0015 39.58V40.2646C43.0015 40.4825 42.9378 40.5136 42.3001 40.7937C42.2521 40.8148 42.2041 40.8354 42.1567 40.8558L42.1565 40.8558L42.1565 40.8559L42.1565 40.8559C41.5742 41.106 41.0562 41.3286 41.0562 42.1628C41.0562 43.1273 41.6941 43.283 42.1086 43.283C42.5872 43.283 42.9378 43.0652 43.0653 42.7541V43.2209H44.0857V40.1089ZM43.0015 40.7003L42.6508 40.9181C42.3001 41.1359 42.2363 41.416 42.2043 41.7271C42.1724 41.9761 42.1724 42.225 42.2043 42.5673C42.2043 42.9408 42.4276 43.0029 42.6188 42.9096C42.874 42.8162 43.0015 42.4429 43.0015 41.9761V40.7003ZM50.1764 38.9577C50.8779 38.8954 51.3562 39.3311 51.3562 40.2025V43.2209H50.2402V40.0779C50.2402 39.7044 50.2402 39.3933 49.985 39.3311C49.8894 39.2999 49.73 39.3311 49.6023 39.4243C49.443 39.58 49.3792 39.7667 49.3792 40.0779V43.2209H48.2949V42.1005C48.1036 42.6295 47.4341 43.283 46.6687 43.283C45.999 43.283 44.8193 42.9719 44.8193 41.1671C44.8193 39.4866 45.9671 38.9577 46.573 38.9577C47.0514 38.9577 47.3702 39.0821 47.5616 39.3933C47.7211 39.6423 47.7529 40.0468 47.5297 40.2958C47.2425 40.5757 46.6367 40.5136 46.5412 40.1401C46.4574 39.8402 46.5937 39.6837 46.7146 39.5449C46.7317 39.5252 46.7485 39.5059 46.7644 39.4866C46.8919 39.3622 46.86 39.1755 46.573 39.1755C46.1903 39.1755 46.0628 39.58 45.999 40.0779C45.9353 40.8558 45.9353 41.5714 46.031 42.1939C46.0947 42.6295 46.2221 43.034 46.7644 43.034C47.5297 43.0652 48.2949 42.0695 48.2949 41.0115V38.1487H49.3792V39.3622C49.5387 39.1444 49.8257 38.9888 50.1764 38.9577Z" fill="white"/>
<path id="Close" fill-rule="evenodd" clip-rule="evenodd" d="M80.5407 42.6523L83.4616 45.5438L86.3826 42.6523L86.6624 42.9294L83.7415 45.8208L86.6624 48.7122L86.3826 48.9893L83.4616 46.0978L80.5407 48.9893L80.2609 48.7122L83.1818 45.8208L80.2609 42.9294L80.5407 42.6523Z" fill="white" stroke="white" stroke-width="1.3125"/>
<g id="Group">
<rect id="Rectangle 7" opacity="0.122339" x="94.2609" y="33.2363" width="35.23" height="5.70268" rx="2.3625" fill="#2F66A5"/>
<rect id="Rectangle 7_2" opacity="0.122339" x="98.0355" y="40.8398" width="42.7793" height="6.96994" rx="2.8875" fill="#2F66A5"/>
<g id="Rectangle 6 + Line 5 + Line 5 Mask">
<path id="Mask_3" d="M116.594 59.1068C124.705 59.1068 131.274 52.4852 131.274 44.3251C131.274 36.1649 124.705 29.5434 116.594 29.5434C108.483 29.5434 101.914 36.1649 101.914 44.3251C101.914 52.4852 108.483 59.1068 116.594 59.1068Z" fill="#E6ECF4" stroke="#2F66A5" stroke-width="1.05"/>
<mask id="mask1" mask-type="alpha" maskUnits="userSpaceOnUse" x="101" y="29" width="31" height="31">
<path id="Mask_4" d="M116.594 59.1068C124.705 59.1068 131.274 52.4852 131.274 44.3251C131.274 36.1649 124.705 29.5434 116.594 29.5434C108.483 29.5434 101.914 36.1649 101.914 44.3251C101.914 52.4852 108.483 59.1068 116.594 59.1068Z" fill="white" stroke="white" stroke-width="1.05"/>
</mask>
<g mask="url(#mask1)">
<path id="Rectangle 6" d="M110.514 50.2359H122.675V60.5913H110.514V50.2359Z" fill="white" stroke="#4A4A4A" stroke-width="1.05"/>
<path id="Line 5" d="M110.303 51.2949L104.956 59.2153" stroke="#4A4A4A" stroke-width="1.05" stroke-linecap="square"/>
<path id="Line 5_2" d="M122.571 50.9785L128.233 59.2157" stroke="#4A4A4A" stroke-width="1.05" stroke-linecap="square"/>
</g>
</g>
<g id="Group 2">
<g id="Group 5">
<path id="Rectangle 5" fill-rule="evenodd" clip-rule="evenodd" d="M114.471 63.3917C114.406 63.2854 114.381 63.1594 114.4 63.0362L116.064 52.3945C116.157 51.8027 117.009 51.8027 117.102 52.3945L118.796 63.227L117.031 66.1067C116.826 66.4408 116.34 66.4408 116.136 66.1067L114.471 63.3917Z" fill="#4A90E2"/>
<path id="Rectangle 5_2" fill-rule="evenodd" clip-rule="evenodd" d="M114.392 50.9785H118.796L117.475 53.513H115.713L114.392 50.9785Z" fill="#4A90E2"/>
</g>
<g id="face">
<rect id="Rectangle 3" x="105.481" y="25.525" width="22.8561" height="22.468" rx="1.575" fill="white" stroke="#4A4A4A" stroke-width="1.05"/>
<path id="Line 2" d="M111.247 39.2559C111.247 39.2559 112.869 42.335 116.751 42.335C120.634 42.335 122.256 39.2559 122.256 39.2559" stroke="#4A4A4A" stroke-width="1.05" stroke-linecap="square"/>
<rect id="Rectangle 4" x="112.505" y="30.7031" width="1.88732" height="5.06905" rx="0.943661" fill="#4A4A4A"/>
<rect id="Rectangle 4_2" x="119.425" y="30.7031" width="1.88732" height="5.06905" rx="0.943661" fill="#4A4A4A"/>
</g>
</g>
<path id="bottom half circle border" fill-rule="evenodd" clip-rule="evenodd" d="M130.749 44.6426H132.007C132.007 48.0117 130.938 51.2214 128.988 53.8728C126.1 57.8012 121.541 60.1665 116.594 60.1665C111.647 60.1665 107.089 57.8012 104.2 53.8728C102.251 51.2214 101.181 48.0117 101.181 44.6426H102.439C102.439 47.8171 103.469 50.7494 105.211 53.1186C107.79 56.6257 111.929 58.8993 116.594 58.8993C121.26 58.8993 125.398 56.6257 127.977 53.1186C129.719 50.7494 130.749 47.8171 130.749 44.6426Z" fill="#2F66A5"/>
<g id="Group 5_2">
<path id="Rectangle 5_3" fill-rule="evenodd" clip-rule="evenodd" d="M114.471 63.3917C114.406 63.2854 114.381 63.1594 114.4 63.0362L116.064 52.3945C116.157 51.8027 117.009 51.8027 117.102 52.3945L118.796 63.227L117.031 66.1067C116.826 66.4408 116.34 66.4408 116.136 66.1067L114.471 63.3917Z" fill="#4A90E2"/>
<path id="Rectangle 5_4" fill-rule="evenodd" clip-rule="evenodd" d="M114.392 50.9785H118.796L117.475 53.513H115.713L114.392 50.9785Z" fill="#4A90E2"/>
</g>
</g>
</g>
<path id="Simon Annuities" d="M52.4 98.64L51.6 92.32C49.84 91.64 47.52 91.12 45.12 91.12C40.16 91.12 36.2 93.36 36.2 98.36C36.2 103.52 40.4 105.24 44.44 107.16C48.08 108.76 51.4 110.52 51.4 114.88C51.4 118.28 49.36 120.8 45.08 120.8C40.92 120.8 38.12 118.6 35.72 113.48L35.4 113.6L36.2 120.08C38.6 121 41.4 121.6 44.12 121.6C49.6 121.6 54.4 119.28 54.4 113.4C54.4 108 50.24 105.92 46.2 104.12C42.36 102.4 38.76 100.92 38.76 96.88C38.76 94.16 40.48 91.92 44.16 91.92C47.16 91.92 49.92 93.48 52.08 98.76L52.4 98.64ZM61.9597 94.64C61.9597 93.56 61.0797 92.64 59.9997 92.64C58.9197 92.64 57.9997 93.56 57.9997 94.64C57.9997 95.76 58.9197 96.64 59.9997 96.64C61.0797 96.64 61.9597 95.76 61.9597 94.64ZM57.7997 120.92V121H62.4797V120.92C61.6797 119.16 61.5997 117.56 61.5997 114.8V101.16L56.9197 103.28V103.44C57.8397 104.24 58.6797 105.44 58.6797 107.4V114.84C58.6797 117.6 58.4397 119.16 57.7997 120.92ZM71.2306 121V120.92C70.4306 119.2 70.3506 117.6 70.3506 114.88V105.76C71.5106 104.28 73.1506 103.32 75.1106 103.32C77.7906 103.32 78.3906 105.16 78.3906 107.4V114.92C78.3906 117.52 78.2706 119.2 77.5106 120.92V121H82.2306V120.92C81.3906 119.2 81.3106 117.68 81.3106 114.88V105.8C82.5506 104.32 84.1506 103.32 86.1106 103.32C88.7906 103.32 89.3906 105.16 89.3906 107.4V114.92C89.3906 117.52 89.2706 119.2 88.5106 120.92V121H93.1906V120.92C92.3506 119.24 92.3106 117.64 92.3106 114.88V106.76C92.3106 103.4 91.0306 101.36 87.6306 101.36C84.9506 101.36 82.8706 102.72 81.3106 104.96L81.1906 104.92C80.7506 102.68 79.3906 101.36 76.6306 101.36C73.9506 101.36 71.8306 102.68 70.3506 104.92L70.1906 104.88V101.12L65.6306 103.24V103.32C66.5906 104.16 67.4306 105.32 67.4306 107.4V114.92C67.4306 117.68 67.2706 119.2 66.5106 120.92V121H71.2306ZM106.334 121.6C111.814 121.6 116.374 117.04 116.374 111.52C116.374 106 111.814 101.36 106.334 101.36C100.934 101.36 96.2938 106 96.2938 111.52C96.2938 117.04 100.854 121.6 106.334 121.6ZM106.334 120.84C101.814 120.84 99.6538 116.48 99.6538 111.52C99.6538 106.52 101.854 102.12 106.334 102.12C110.814 102.12 113.014 106.52 113.014 111.52C113.014 116.48 110.854 120.84 106.334 120.84ZM124.355 121V120.92C123.555 119.16 123.475 117.56 123.475 114.8V105.68C125.035 104.08 127.035 103.32 128.915 103.32C131.955 103.32 133.035 105.4 133.035 107.84V114.84C133.035 117.52 132.915 119.16 132.155 120.92V121H136.835V120.92C135.995 119.2 135.955 117.64 135.955 114.8V107.2C135.955 103.56 133.995 101.36 130.315 101.36C127.635 101.36 125.355 102.68 123.475 104.92L123.315 104.88V101.16L118.795 103.28V103.36C119.715 104.16 120.555 105.32 120.555 107.36V114.84C120.555 117.6 120.435 119.2 119.675 120.92V121H124.355ZM156.573 95.68L161.453 109.16H151.613L156.573 95.68ZM150.093 121V120.92C149.213 119.84 148.333 118 149.653 114.44L151.293 109.96H161.733L163.733 115.44C164.733 118.16 164.493 120 163.893 120.92V121H170.253V120.92C168.893 119.76 168.333 118.8 167.173 115.6L158.213 91.36H157.253L148.413 115.2C147.333 118 146.933 119.2 145.213 120.92V121H150.093ZM177.128 121V120.92C176.328 119.16 176.248 117.56 176.248 114.8V105.68C177.808 104.08 179.808 103.32 181.688 103.32C184.728 103.32 185.808 105.4 185.808 107.84V114.84C185.808 117.52 185.688 119.16 184.928 120.92V121H189.608V120.92C188.768 119.2 188.728 117.64 188.728 114.8V107.2C188.728 103.56 186.768 101.36 183.088 101.36C180.408 101.36 178.128 102.68 176.248 104.92L176.088 104.88V101.16L171.568 103.28V103.36C172.488 104.16 173.328 105.32 173.328 107.36V114.84C173.328 117.6 173.208 119.2 172.448 120.92V121H177.128ZM198.339 121V120.92C197.539 119.16 197.459 117.56 197.459 114.8V105.68C199.019 104.08 201.019 103.32 202.899 103.32C205.939 103.32 207.019 105.4 207.019 107.84V114.84C207.019 117.52 206.899 119.16 206.139 120.92V121H210.819V120.92C209.979 119.2 209.939 117.64 209.939 114.8V107.2C209.939 103.56 207.979 101.36 204.299 101.36C201.619 101.36 199.339 102.68 197.459 104.92L197.299 104.88V101.16L192.779 103.28V103.36C193.699 104.16 194.539 105.32 194.539 107.36V114.84C194.539 117.6 194.419 119.2 193.659 120.92V121H198.339ZM226.99 117.36V121.48L231.51 120.2V120.12C230.23 119.36 229.71 118.8 229.71 115.48V101.96H225.03V102.04C226.19 102.76 226.79 103.88 226.79 105.4V116.72C225.79 118.12 224.23 119.28 221.95 119.28C219.39 119.28 218.11 117.8 218.11 114.8V101.96H213.51V102.04C214.51 102.72 215.19 103.8 215.19 105.4V115.44C215.19 119.24 216.95 121.6 220.43 121.6C223.67 121.6 225.51 119.48 226.99 117.36ZM238.874 94.64C238.874 93.56 237.994 92.64 236.914 92.64C235.834 92.64 234.914 93.56 234.914 94.64C234.914 95.76 235.834 96.64 236.914 96.64C237.994 96.64 238.874 95.76 238.874 94.64ZM234.714 120.92V121H239.394V120.92C238.594 119.16 238.514 117.56 238.514 114.8V101.16L233.834 103.28V103.44C234.754 104.24 235.594 105.44 235.594 107.4V114.84C235.594 117.6 235.354 119.16 234.714 120.92ZM248.509 121.6C250.749 121.6 252.389 120.48 253.189 119.4L253.109 119.24C252.669 119.52 251.509 120 250.069 120C248.029 120 247.189 118.96 247.189 117V102.68H252.789V101.96H247.189V98.32H246.989L242.109 102.52V102.68H244.269V117C244.269 120.6 246.389 121.6 248.509 121.6ZM260.28 94.64C260.28 93.56 259.4 92.64 258.32 92.64C257.24 92.64 256.32 93.56 256.32 94.64C256.32 95.76 257.24 96.64 258.32 96.64C259.4 96.64 260.28 95.76 260.28 94.64ZM256.12 120.92V121H260.8V120.92C260 119.16 259.92 117.56 259.92 114.8V101.16L255.24 103.28V103.44C256.16 104.24 257 105.44 257 107.4V114.84C257 117.6 256.76 119.16 256.12 120.92ZM280.316 116.16L280.116 116.04C278.716 118.08 276.396 119.04 273.956 119.04C269.436 119.04 266.876 115.84 266.876 110.44V109.76C266.876 109.52 266.876 109.28 266.916 109.08H280.236C280.556 105.36 277.556 101.36 272.916 101.36C268.276 101.36 263.836 105.44 263.836 111.8C263.836 117.56 267.356 121.6 272.636 121.6C276.596 121.6 279.316 119.32 280.316 116.16ZM272.756 102.08C275.516 102.08 276.996 103.92 276.996 107.92V108.24L266.996 108.44C267.516 104.6 269.556 102.08 272.756 102.08ZM295.094 106.04L294.694 102.12C293.614 101.68 291.814 101.36 290.054 101.36C286.694 101.36 283.294 102.68 283.294 106.56C283.294 110.28 286.454 111.6 289.094 112.64C291.774 113.72 293.774 114.68 293.774 117.08C293.774 119.04 292.414 120.88 289.494 120.88C286.774 120.88 284.894 119.36 283.254 115.84L282.974 115.92L283.374 120.48C284.774 121.08 286.574 121.6 288.934 121.6C293.374 121.6 296.174 119.68 296.174 116C296.174 112.12 293.254 110.88 290.494 109.72C287.734 108.68 285.374 107.72 285.374 105.36C285.374 103.44 286.854 102.08 289.214 102.08C291.134 102.08 293.054 102.96 294.814 106.12L295.094 106.04Z" fill="white"/>
</g>
</svg>
