<svg width="360" height="400" viewBox="0 0 360 400" fill="none" xmlns="http://www.w3.org/2000/svg">
<rect width="360" height="400" rx="20" fill="url(#paint0_linear)"/>
<path d="M37.304 333.526V330.992H38.592C39.432 330.992 40.006 331.468 40.006 332.266C40.006 333.036 39.432 333.526 38.592 333.526H37.304ZM38.816 335.43C40.832 335.43 42.218 334.128 42.218 332.252C42.218 330.404 40.832 329.074 38.816 329.074H35.078V339H37.29V335.43H38.816ZM51.1696 339H53.6056L51.5896 334.982C52.8076 334.548 53.5496 333.526 53.5496 332.182C53.5496 330.418 52.2896 329.074 50.3296 329.074H46.3956V339H48.6076V335.304H49.3916L51.1696 339ZM48.6076 333.4V330.992H49.9096C50.8196 330.992 51.3096 331.454 51.3096 332.196C51.3096 332.896 50.8196 333.4 49.9096 333.4H48.6076ZM59.6402 334.03C59.6402 331.958 61.1242 331.02 62.5102 331.02C63.8822 331.02 65.3662 331.958 65.3662 334.03C65.3662 336.102 63.8822 337.026 62.5102 337.026C61.1242 337.026 59.6402 336.102 59.6402 334.03ZM57.3442 334.044C57.3442 337.18 59.7102 339.21 62.5102 339.21C65.2962 339.21 67.6622 337.18 67.6622 334.044C67.6622 330.894 65.2962 328.864 62.5102 328.864C59.7102 328.864 57.3442 330.894 57.3442 334.044ZM71.2405 335.934C71.2405 337.908 72.5985 339.21 74.5585 339.21C76.5325 339.21 77.9185 337.698 77.9185 335.892V329.074H75.7065V335.836C75.7065 336.578 75.2725 337.11 74.5445 337.11C73.9005 337.11 73.3405 336.704 73.3405 335.822V334.912L71.2405 335.276V335.934ZM89.0956 339V336.9H85.0076V334.996H88.7036V333.05H85.0076V331.16H89.0816V329.074H82.7956V339H89.0956ZM98.322 339.21C101.402 339.21 102.718 337.11 103.04 335.738L100.926 335.136C100.73 335.85 100.044 336.998 98.322 336.998C96.838 336.998 95.466 335.92 95.466 334.058C95.466 331.972 96.964 331.02 98.294 331.02C100.044 331.02 100.674 332.182 100.828 332.868L102.914 332.21C102.592 330.782 101.276 328.864 98.294 328.864C95.522 328.864 93.17 330.964 93.17 334.058C93.17 337.152 95.466 339.21 98.322 339.21ZM114.74 331.188V329.074H106.41V331.188H109.462V339H111.674V331.188H114.74ZM118.001 337.726C118.001 338.468 118.631 339.126 119.401 339.126C120.157 339.126 120.801 338.468 120.801 337.726C120.801 336.956 120.157 336.326 119.401 336.326C118.631 336.326 118.001 336.956 118.001 337.726ZM118.001 333.316C118.001 334.058 118.631 334.716 119.401 334.716C120.157 334.716 120.801 334.058 120.801 333.316C120.801 332.546 120.157 331.916 119.401 331.916C118.631 331.916 118.001 332.546 118.001 333.316ZM135.548 339V329.914H133.658C133.504 330.838 132.538 331.608 131.18 331.622V333.092H133.35V339H135.548ZM149.171 334.856V339H151.383V334.856L154.869 329.074H152.405L150.347 332.756L148.317 329.074H145.727L149.171 334.856ZM165.185 339V336.9H161.097V334.996H164.793V333.05H161.097V331.16H165.171V329.074H158.885V339H165.185ZM176.497 339H178.905L175.209 329.074H172.647L168.909 339H171.233L171.947 336.984H175.783L176.497 339ZM173.893 331.538L175.083 334.968H172.675L173.893 331.538ZM187.702 339H190.138L188.122 334.982C189.34 334.548 190.082 333.526 190.082 332.182C190.082 330.418 188.822 329.074 186.862 329.074H182.928V339H185.14V335.304H185.924L187.702 339ZM185.14 333.4V330.992H186.442C187.352 330.992 187.842 331.454 187.842 332.196C187.842 332.896 187.352 333.4 186.442 333.4H185.14ZM202.529 341.268V327.478H200.765V341.268H202.529ZM221.238 331.188V329.074H212.908V331.188H215.96V339H218.172V331.188H221.238ZM231.68 339V336.9H227.592V334.996H231.288V333.05H227.592V331.16H231.666V329.074H225.38V339H231.68ZM242.992 339H245.4L241.704 329.074H239.142L235.404 339H237.728L238.442 336.984H242.278L242.992 339ZM240.388 331.538L241.578 334.968H239.17L240.388 331.538ZM260.665 339V329.074H257.627L255.037 335.78L252.307 329.074H249.423V339H251.523V332.504L254.113 339H255.905L258.495 332.42V339H260.665ZM41.91 347.51C41.7 346.348 40.762 344.864 38.284 344.864C36.38 344.864 34.728 346.18 34.728 348.056C34.728 349.526 35.75 350.646 37.43 350.968L38.788 351.22C39.446 351.346 39.852 351.71 39.852 352.214C39.852 352.83 39.32 353.25 38.452 353.25C37.094 353.25 36.478 352.452 36.394 351.542L34.364 352.032C34.504 353.432 35.68 355.21 38.424 355.21C40.79 355.21 42.092 353.628 42.092 352.074C42.092 350.66 41.112 349.442 39.222 349.092L37.892 348.84C37.206 348.714 36.912 348.364 36.912 347.888C36.912 347.342 37.444 346.824 38.27 346.824C39.474 346.824 39.852 347.608 39.922 348.07L41.91 347.51ZM48.6493 355V345.074H46.4093V355H48.6493ZM60.9059 355V352.886H55.9499L60.8499 347.118V345.074H53.2339V347.188H57.8119L53.0239 352.872V355H60.9059ZM71.7077 355V352.9H67.6197V350.996H71.3157V349.05H67.6197V347.16H71.6937V345.074H65.4077V355H71.7077ZM76.1458 353.726C76.1458 354.468 76.7758 355.126 77.5458 355.126C78.3018 355.126 78.9458 354.468 78.9458 353.726C78.9458 352.956 78.3018 352.326 77.5458 352.326C76.7758 352.326 76.1458 352.956 76.1458 353.726ZM76.1458 349.316C76.1458 350.058 76.7758 350.716 77.5458 350.716C78.3018 350.716 78.9458 350.058 78.9458 349.316C78.9458 348.546 78.3018 347.916 77.5458 347.916C76.7758 347.916 76.1458 348.546 76.1458 349.316ZM89.2828 353.11H93.4828V355H95.6948V353.11H97.1508V351.262H95.6948V345.914H93.0628L89.2828 350.87V353.11ZM93.4828 351.262H91.2008L93.4828 348.266V351.262ZM109.716 349.526V346.992H111.004C111.844 346.992 112.418 347.468 112.418 348.266C112.418 349.036 111.844 349.526 111.004 349.526H109.716ZM111.228 351.43C113.244 351.43 114.63 350.128 114.63 348.252C114.63 346.404 113.244 345.074 111.228 345.074H107.49V355H109.702V351.43H111.228ZM125.107 355V352.9H121.019V350.996H124.715V349.05H121.019V347.16H125.093V345.074H118.807V355H125.107ZM131.478 350.03C131.478 347.958 132.962 347.02 134.348 347.02C135.72 347.02 137.204 347.958 137.204 350.03C137.204 352.102 135.72 353.026 134.348 353.026C132.962 353.026 131.478 352.102 131.478 350.03ZM129.182 350.044C129.182 353.18 131.548 355.21 134.348 355.21C137.134 355.21 139.5 353.18 139.5 350.044C139.5 346.894 137.134 344.864 134.348 344.864C131.548 344.864 129.182 346.894 129.182 350.044ZM146.102 349.526V346.992H147.39C148.23 346.992 148.804 347.468 148.804 348.266C148.804 349.036 148.23 349.526 147.39 349.526H146.102ZM147.614 351.43C149.63 351.43 151.016 350.128 151.016 348.252C151.016 346.404 149.63 345.074 147.614 345.074H143.876V355H146.088V351.43H147.614ZM161.69 355V352.886H157.406V345.074H155.194V355H161.69ZM172.223 355V352.9H168.135V350.996H171.831V349.05H168.135V347.16H172.209V345.074H165.923V355H172.223Z" fill="white" fill-opacity="0.5"/>
<path d="M84.464 308V290.984H81.152V302.24L74.072 290.984H69.944V308H73.256V295.928L80.984 308H84.464ZM89.4001 300.752C89.4721 299.672 90.3841 298.424 92.0401 298.424C93.8641 298.424 94.6321 299.576 94.6801 300.752H89.4001ZM94.9921 303.824C94.6081 304.88 93.7921 305.624 92.3041 305.624C90.7201 305.624 89.4001 304.496 89.3281 302.936H97.7761C97.7761 302.888 97.8241 302.408 97.8241 301.952C97.8241 298.16 95.6401 295.832 91.9921 295.832C88.9681 295.832 86.1841 298.28 86.1841 302.048C86.1841 306.032 89.0401 308.36 92.2801 308.36C95.1841 308.36 97.0561 306.656 97.6561 304.616L94.9921 303.824ZM105.886 296.192L103.318 303.776L101.134 296.192H97.7742L101.542 308H104.782L107.494 299.936L110.254 308H113.446L117.142 296.192H113.974L111.79 303.8L109.246 296.192H105.886ZM127.609 300.848V308H130.921V300.848L136.921 290.984H133.201L129.385 297.728L125.569 290.984H121.681L127.609 300.848ZM140.849 305.456C139.289 305.456 137.849 304.304 137.849 302.096C137.849 299.864 139.289 298.736 140.849 298.736C142.409 298.736 143.849 299.864 143.849 302.096C143.849 304.328 142.409 305.456 140.849 305.456ZM140.849 295.832C137.321 295.832 134.657 298.448 134.657 302.096C134.657 305.72 137.321 308.36 140.849 308.36C144.377 308.36 147.041 305.72 147.041 302.096C147.041 298.448 144.377 295.832 140.849 295.832ZM155.8 296.144C155.56 296.12 155.32 296.096 155.056 296.096C154.048 296.096 152.416 296.384 151.696 297.944V296.192H148.6V308H151.792V302.6C151.792 300.056 153.208 299.264 154.84 299.264C155.128 299.264 155.44 299.288 155.8 299.36V296.144ZM168.534 296.192H164.358L160.278 300.584V290.624H157.086V308H160.278V304.88L161.598 303.488L164.718 308H168.63L163.806 301.16L168.534 296.192ZM169.151 306.08C169.151 307.232 169.967 308.072 171.143 308.072C171.407 308.072 171.671 308 171.767 307.928C171.719 309.248 170.567 310.28 169.487 310.52V312.056C171.263 311.84 173.711 310.352 173.711 306.824C173.711 305.264 172.823 304.064 171.335 304.064C170.087 304.064 169.151 304.928 169.151 306.08ZM195.637 308V290.984H192.325V302.24L185.245 290.984H181.117V308H184.429V295.928L192.157 308H195.637ZM210.1 308H213.7L207.22 290.984H203.38L196.852 308H200.356L201.772 304.112H208.684L210.1 308ZM205.228 294.656L207.58 301.088H202.876L205.228 294.656Z" fill="white"/>
<path fill-rule="evenodd" clip-rule="evenodd" d="M52 295C52 299.6 46.73 307.69 45 310C45 310 43.5 312 43 312C42.5 312 41 310 41 310C39.27 307.69 34 299.6 34 295C34 290.029 38.0294 286 43 286C47.9706 286 52 290.029 52 295ZM43 291C40.7909 291 39 292.791 39 295C39 297.209 40.7909 299 43 299C45.2091 299 47 297.209 47 295C47 292.791 45.2091 291 43 291Z" fill="white"/>
<path fill-rule="evenodd" clip-rule="evenodd" d="M66.351 78.2202H34V45.8691H66.351V78.2202ZM40.1954 48.2363V50.01H39.9722C39.7808 49.1387 39.3663 48.4851 38.7923 48.4541C38.4096 48.423 38.1866 48.6408 37.9951 48.9521C37.8039 49.3254 37.7081 50.1033 37.7081 51.0369C37.7081 51.9082 37.7401 52.5616 37.8357 53.0284C37.8994 53.2462 38.0589 53.5885 38.4734 53.5885C38.6966 53.5885 38.8561 53.5262 38.9518 53.4018C39.1113 53.2151 39.1431 52.8417 39.1431 52.5928V51.7526C39.1431 51.4414 39.0475 51.2547 38.8879 51.1613C38.8096 51.123 38.7071 51.1083 38.6175 51.0954C38.5614 51.0873 38.5103 51.08 38.4734 51.068V50.8502H40.2592V55.2999H40.0358L40.0185 55.2375C39.9321 54.9268 39.8666 54.6914 39.7172 54.4286C39.5577 54.1487 39.2706 53.8376 38.7923 53.8376C38.2821 53.8063 37.8994 54.1176 37.8994 54.5843C37.8994 55.1637 38.231 55.3385 38.8426 55.6609C38.8881 55.6849 38.9351 55.7097 38.9836 55.7355C39.0619 55.7791 39.1428 55.8219 39.2247 55.8652C39.8428 56.1923 40.5142 56.5476 40.5142 57.5093C40.5142 58.5673 39.5895 59.2209 38.5373 59.2209H36.8472V57.0738H37.0704C37.3574 58.6918 38.0589 58.9719 38.5373 58.9719C39.1431 58.9719 39.43 58.5984 39.43 58.0695C39.3981 57.3847 38.92 57.1359 38.2503 56.7937C37.2937 56.2646 36.8472 56.0156 36.8472 55.1444C36.879 54.3975 37.4851 53.9307 38.1546 53.7442C36.7515 53.5885 36.337 52.344 36.3688 51.0057C36.3688 49.6678 37.166 48.2363 38.7284 48.2363H40.1954ZM45.0425 48.3297H46.1585V53.3706H45.0425V48.3297ZM56.1076 50.3523V53.3706H55.0233V50.2279C55.0233 49.8545 54.9914 49.5433 54.7364 49.481C54.6407 49.45 54.5132 49.481 54.3856 49.5742C54.2261 49.7299 54.1624 49.9166 54.1624 50.1969V53.3706H53.0781V50.2279C53.0781 49.8545 53.0781 49.5433 52.8231 49.481C52.7276 49.45 52.6 49.481 52.4723 49.5742C52.2809 49.7299 52.2491 49.9166 52.2491 50.2279V53.3706H51.165V49.201H52.1534V49.6678C52.2809 49.3877 52.6 49.1387 53.0143 49.1076C53.5246 49.0765 53.8753 49.2633 54.0347 49.6988C54.1624 49.45 54.4493 49.1387 54.9276 49.1076C55.6291 49.0765 56.1076 49.481 56.1076 50.3523ZM62.0067 53.3706H60.9226V49.201H61.943V49.6678C62.0706 49.3877 62.3895 49.1387 62.8041 49.1076C63.5056 49.0765 63.9839 49.481 63.9839 50.3523V53.3706H62.8678V50.2279C62.8678 49.8545 62.8678 49.5433 62.6127 49.481C62.517 49.45 62.3577 49.481 62.2299 49.5742C62.0706 49.7299 62.0067 49.9166 62.0067 50.2279V53.3706ZM43.5755 49.481C43.3205 49.2633 43.0015 49.1076 42.6188 49.1076C42.2363 49.1076 41.9493 49.2633 41.6623 49.481C41.2157 49.8545 40.9289 50.5391 40.9289 51.2858C40.9289 52.0637 41.2157 52.717 41.6623 53.0907C41.9493 53.3085 42.2363 53.4639 42.6188 53.4639C43.0015 53.4639 43.3205 53.3085 43.5755 53.0907C44.0539 52.717 44.3089 52.0637 44.3089 51.2858C44.3089 50.5391 44.0539 49.8545 43.5755 49.481ZM43.0333 52.9973C43.161 52.6862 43.161 52.0637 43.161 51.2858C43.161 51.1761 43.1617 51.0685 43.1624 50.9636V50.9636C43.1663 50.3545 43.1696 49.8398 43.0333 49.5742C42.9378 49.4187 42.842 49.3254 42.6188 49.3254C42.4276 49.3254 42.3001 49.4187 42.2363 49.5742C42.0768 49.8855 42.0768 50.5391 42.0768 51.2858C42.0768 52.0637 42.0768 52.6862 42.2363 52.9973C42.3001 53.1528 42.4276 53.2462 42.6188 53.2462C42.842 53.2462 42.9378 53.1528 43.0333 52.9973ZM54.7044 54.9577V56.0779H54.4813C54.3538 55.6112 54.1624 55.2067 53.6523 55.1755C53.3334 55.1444 53.0463 55.3311 53.0143 55.6112C52.9824 55.8911 53.0781 56.1401 53.6523 56.4513C53.742 56.5008 53.8293 56.547 53.9134 56.5915L53.9135 56.5916C54.5175 56.9113 54.9596 57.1453 54.9596 57.8828C54.9596 58.7851 54.1624 59.2209 53.4927 59.2209H52.2171V57.6648H52.4405C52.6 58.474 52.8551 58.9719 53.4609 59.0029C53.8435 59.0029 54.1304 58.7851 54.1304 58.3806C54.1304 57.9761 53.8753 57.7271 53.2695 57.3847L53.2632 57.3809C52.5974 56.9786 52.1852 56.7296 52.1852 56.1712C52.1852 55.4243 52.7276 54.9577 53.5884 54.9577H54.7044ZM50.1127 48.3297V53.3706H49.0603V52.9661C48.9646 53.184 48.7094 53.4329 48.2631 53.4329C47.1471 53.4329 46.86 52.0327 46.8919 51.1924C46.9237 49.9477 47.5616 49.1387 48.3588 49.1387C48.6776 49.1387 48.901 49.2943 48.9965 49.5121V48.3297H50.1127ZM48.8051 49.5433C49.0285 49.8545 49.0285 50.6012 49.0285 51.1924C49.0285 51.2534 49.0288 51.3161 49.0291 51.38V51.38V51.38V51.3801C49.032 51.9687 49.0353 52.6574 48.8051 52.9661C48.7094 53.0907 48.614 53.1528 48.4544 53.1528C48.2313 53.1528 48.1036 52.904 48.0399 52.4995C48.0079 52.126 48.0079 51.6592 48.0079 51.1613C48.0079 50.3213 48.0718 49.3877 48.4863 49.3877C48.6456 49.3877 48.7093 49.4498 48.8047 49.5429L48.8051 49.5433ZM59.9022 50.29C59.9022 49.7299 59.7108 49.481 59.4239 49.3254C59.2007 49.201 58.9456 49.1076 58.531 49.1076C57.6381 49.1076 57.0005 49.5742 57.0323 50.1346C57.0641 50.4768 57.3192 50.6012 57.5426 50.6012C57.8613 50.6322 58.2121 50.4768 58.1803 50.0412C58.1638 49.8972 58.0968 49.8273 58.0399 49.7679C57.9862 49.7117 57.9415 49.665 57.957 49.5742C57.957 49.4187 58.1803 49.3564 58.3078 49.3254C58.6269 49.3254 58.7861 49.45 58.7861 49.7299V50.4145C58.7861 50.6633 58.7224 50.6947 58.1166 50.9436C58.0734 50.9616 58.0304 50.9793 57.9879 50.9968L57.987 50.9972L57.9866 50.9974L57.9865 50.9974C57.3705 51.251 56.8409 51.469 56.8409 52.3127C56.8409 53.2774 57.5106 53.4639 57.8932 53.4639C58.3716 53.4639 58.7224 53.2462 58.8499 52.904V53.3706H59.9022V50.29ZM58.7861 50.8813L58.4353 51.099C58.0846 51.317 58.0207 51.5969 57.9889 51.9082C57.957 52.1571 57.957 52.375 57.9889 52.7483C58.0207 53.0907 58.2441 53.1528 58.4353 53.0907C58.6587 52.9973 58.7861 52.5928 58.7861 52.1571V50.8813ZM44.0857 56.1089C44.0857 55.5489 43.9264 55.3311 43.6394 55.1444C43.416 55.02 43.161 54.9577 42.7465 54.9577C41.8536 54.9577 41.2157 55.4243 41.2476 55.9534C41.2796 56.2958 41.5348 56.4202 41.7579 56.4513C42.0768 56.4513 42.4276 56.2958 42.3956 55.8911C42.3799 55.7525 42.3171 55.6825 42.2617 55.6207C42.2053 55.5577 42.1564 55.5032 42.1724 55.3933C42.1724 55.2378 42.3956 55.1755 42.5233 55.1755C42.842 55.1444 43.0015 55.2688 43.0015 55.58V56.2646C43.0015 56.4825 42.9378 56.5136 42.3001 56.7937C42.2521 56.8148 42.2041 56.8354 42.1567 56.8558L42.1565 56.8558L42.1565 56.8559L42.1565 56.8559C41.5742 57.106 41.0562 57.3286 41.0562 58.1628C41.0562 59.1273 41.6941 59.283 42.1086 59.283C42.5872 59.283 42.9378 59.0652 43.0653 58.7541V59.2209H44.0857V56.1089ZM43.0015 56.7003L42.6508 56.9181C42.3001 57.1359 42.2363 57.416 42.2043 57.7271C42.1724 57.9761 42.1724 58.225 42.2043 58.5673C42.2043 58.9408 42.4276 59.0029 42.6188 58.9096C42.874 58.8162 43.0015 58.4429 43.0015 57.9761V56.7003ZM50.1764 54.9577C50.8779 54.8954 51.3562 55.3311 51.3562 56.2025V59.2209H50.2402V56.0779C50.2402 55.7044 50.2402 55.3933 49.985 55.3311C49.8894 55.2999 49.73 55.3311 49.6023 55.4243C49.443 55.58 49.3792 55.7667 49.3792 56.0779V59.2209H48.2949V58.1005C48.1036 58.6295 47.4341 59.283 46.6687 59.283C45.999 59.283 44.8193 58.9719 44.8193 57.1671C44.8193 55.4866 45.9671 54.9577 46.573 54.9577C47.0514 54.9577 47.3702 55.0821 47.5616 55.3933C47.7211 55.6423 47.7529 56.0468 47.5297 56.2958C47.2425 56.5757 46.6367 56.5136 46.5412 56.1401C46.4574 55.8402 46.5937 55.6837 46.7146 55.5449C46.7317 55.5252 46.7485 55.5059 46.7644 55.4866C46.8919 55.3622 46.86 55.1755 46.573 55.1755C46.1903 55.1755 46.0628 55.58 45.999 56.0779C45.9353 56.8558 45.9353 57.5714 46.031 58.1939C46.0947 58.6295 46.2221 59.034 46.7644 59.034C47.5297 59.0652 48.2949 58.0695 48.2949 57.0115V54.1487H49.3792V55.3622C49.5387 55.1444 49.8257 54.9888 50.1764 54.9577Z" fill="white"/>
<path fill-rule="evenodd" clip-rule="evenodd" d="M80.5406 58.6523L83.4615 61.5438L86.3825 58.6523L86.6623 58.9294L83.7414 61.8208L86.6623 64.7122L86.3825 64.9893L83.4615 62.0978L80.5406 64.9893L80.2607 64.7122L83.1817 61.8208L80.2607 58.9294L80.5406 58.6523Z" fill="white" stroke="white" stroke-width="1.3125"/>
<rect opacity="0.122339" x="94.2607" y="49.2363" width="35.23" height="5.70268" rx="2.3625" fill="#2F66A5"/>
<rect opacity="0.122339" x="98.0352" y="56.8398" width="42.7793" height="6.96994" rx="2.8875" fill="#2F66A5"/>
<path d="M116.594 75.1068C124.705 75.1068 131.274 68.4852 131.274 60.3251C131.274 52.1649 124.705 45.5434 116.594 45.5434C108.483 45.5434 101.914 52.1649 101.914 60.3251C101.914 68.4852 108.483 75.1068 116.594 75.1068Z" fill="#E6ECF4" stroke="#2F66A5" stroke-width="1.05"/>
<mask id="mask0" mask-type="alpha" maskUnits="userSpaceOnUse" x="101" y="45" width="31" height="31">
<path d="M116.594 75.1068C124.705 75.1068 131.274 68.4852 131.274 60.3251C131.274 52.1649 124.705 45.5434 116.594 45.5434C108.483 45.5434 101.914 52.1649 101.914 60.3251C101.914 68.4852 108.483 75.1068 116.594 75.1068Z" fill="white" stroke="white" stroke-width="1.05"/>
</mask>
<g mask="url(#mask0)">
<path d="M110.513 66.2359H122.675V76.5913H110.513V66.2359Z" fill="white" stroke="#4A4A4A" stroke-width="1.05"/>
<path d="M110.303 67.2949L104.956 75.2153" stroke="#4A4A4A" stroke-width="1.05" stroke-linecap="square"/>
<path d="M122.57 66.9785L128.232 75.2157" stroke="#4A4A4A" stroke-width="1.05" stroke-linecap="square"/>
</g>
<path fill-rule="evenodd" clip-rule="evenodd" d="M114.471 79.3917C114.406 79.2854 114.38 79.1594 114.4 79.0362L116.064 68.3945C116.157 67.8027 117.009 67.8027 117.101 68.3945L118.796 79.227L117.03 82.1067C116.826 82.4408 116.34 82.4408 116.135 82.1067L114.471 79.3917Z" fill="#4A90E2"/>
<path fill-rule="evenodd" clip-rule="evenodd" d="M114.392 66.9785H118.796L117.475 69.513H115.713L114.392 66.9785Z" fill="#4A90E2"/>
<rect x="105.481" y="41.525" width="22.8561" height="22.468" rx="1.575" fill="white" stroke="#4A4A4A" stroke-width="1.05"/>
<path d="M111.247 55.2559C111.247 55.2559 112.869 58.335 116.751 58.335C120.634 58.335 122.256 55.2559 122.256 55.2559" stroke="#4A4A4A" stroke-width="1.05" stroke-linecap="square"/>
<rect x="112.505" y="46.7031" width="1.88732" height="5.06905" rx="0.943661" fill="#4A4A4A"/>
<rect x="119.425" y="46.7031" width="1.88732" height="5.06905" rx="0.943661" fill="#4A4A4A"/>
<path fill-rule="evenodd" clip-rule="evenodd" d="M130.749 60.6426H132.007C132.007 64.0117 130.938 67.2214 128.988 69.8728C126.1 73.8012 121.542 76.1665 116.594 76.1665C111.647 76.1665 107.089 73.8012 104.2 69.8728C102.251 67.2214 101.181 64.0117 101.181 60.6426H102.439C102.439 63.8171 103.47 66.7494 105.212 69.1186C107.79 72.6257 111.929 74.8993 116.594 74.8993C121.26 74.8993 125.398 72.6257 127.977 69.1186C129.719 66.7494 130.749 63.8171 130.749 60.6426Z" fill="#2F66A5"/>
<path fill-rule="evenodd" clip-rule="evenodd" d="M114.471 79.3917C114.406 79.2854 114.38 79.1594 114.4 79.0362L116.064 68.3945C116.157 67.8027 117.009 67.8027 117.101 68.3945L118.796 79.227L117.03 82.1067C116.826 82.4408 116.34 82.4408 116.135 82.1067L114.471 79.3917Z" fill="#4A90E2"/>
<path fill-rule="evenodd" clip-rule="evenodd" d="M114.392 66.9785H118.796L117.475 69.513H115.713L114.392 66.9785Z" fill="#4A90E2"/>
<path d="M52.4 113.64L51.6 107.32C49.84 106.64 47.52 106.12 45.12 106.12C40.16 106.12 36.2 108.36 36.2 113.36C36.2 118.52 40.4 120.24 44.44 122.16C48.08 123.76 51.4 125.52 51.4 129.88C51.4 133.28 49.36 135.8 45.08 135.8C40.92 135.8 38.12 133.6 35.72 128.48L35.4 128.6L36.2 135.08C38.6 136 41.4 136.6 44.12 136.6C49.6 136.6 54.4 134.28 54.4 128.4C54.4 123 50.24 120.92 46.2 119.12C42.36 117.4 38.76 115.92 38.76 111.88C38.76 109.16 40.48 106.92 44.16 106.92C47.16 106.92 49.92 108.48 52.08 113.76L52.4 113.64ZM61.9597 109.64C61.9597 108.56 61.0797 107.64 59.9997 107.64C58.9197 107.64 57.9997 108.56 57.9997 109.64C57.9997 110.76 58.9197 111.64 59.9997 111.64C61.0797 111.64 61.9597 110.76 61.9597 109.64ZM57.7997 135.92V136H62.4797V135.92C61.6797 134.16 61.5997 132.56 61.5997 129.8V116.16L56.9197 118.28V118.44C57.8397 119.24 58.6797 120.44 58.6797 122.4V129.84C58.6797 132.6 58.4397 134.16 57.7997 135.92ZM71.2306 136V135.92C70.4306 134.2 70.3506 132.6 70.3506 129.88V120.76C71.5106 119.28 73.1506 118.32 75.1106 118.32C77.7906 118.32 78.3906 120.16 78.3906 122.4V129.92C78.3906 132.52 78.2706 134.2 77.5106 135.92V136H82.2306V135.92C81.3906 134.2 81.3106 132.68 81.3106 129.88V120.8C82.5506 119.32 84.1506 118.32 86.1106 118.32C88.7906 118.32 89.3906 120.16 89.3906 122.4V129.92C89.3906 132.52 89.2706 134.2 88.5106 135.92V136H93.1906V135.92C92.3506 134.24 92.3106 132.64 92.3106 129.88V121.76C92.3106 118.4 91.0306 116.36 87.6306 116.36C84.9506 116.36 82.8706 117.72 81.3106 119.96L81.1906 119.92C80.7506 117.68 79.3906 116.36 76.6306 116.36C73.9506 116.36 71.8306 117.68 70.3506 119.92L70.1906 119.88V116.12L65.6306 118.24V118.32C66.5906 119.16 67.4306 120.32 67.4306 122.4V129.92C67.4306 132.68 67.2706 134.2 66.5106 135.92V136H71.2306ZM106.334 136.6C111.814 136.6 116.374 132.04 116.374 126.52C116.374 121 111.814 116.36 106.334 116.36C100.934 116.36 96.2938 121 96.2938 126.52C96.2938 132.04 100.854 136.6 106.334 136.6ZM106.334 135.84C101.814 135.84 99.6538 131.48 99.6538 126.52C99.6538 121.52 101.854 117.12 106.334 117.12C110.814 117.12 113.014 121.52 113.014 126.52C113.014 131.48 110.854 135.84 106.334 135.84ZM124.355 136V135.92C123.555 134.16 123.475 132.56 123.475 129.8V120.68C125.035 119.08 127.035 118.32 128.915 118.32C131.955 118.32 133.035 120.4 133.035 122.84V129.84C133.035 132.52 132.915 134.16 132.155 135.92V136H136.835V135.92C135.995 134.2 135.955 132.64 135.955 129.8V122.2C135.955 118.56 133.995 116.36 130.315 116.36C127.635 116.36 125.355 117.68 123.475 119.92L123.315 119.88V116.16L118.795 118.28V118.36C119.715 119.16 120.555 120.32 120.555 122.36V129.84C120.555 132.6 120.435 134.2 119.675 135.92V136H124.355ZM156.573 110.68L161.453 124.16H151.613L156.573 110.68ZM150.093 136V135.92C149.213 134.84 148.333 133 149.653 129.44L151.293 124.96H161.733L163.733 130.44C164.733 133.16 164.493 135 163.893 135.92V136H170.253V135.92C168.893 134.76 168.333 133.8 167.173 130.6L158.213 106.36H157.253L148.413 130.2C147.333 133 146.933 134.2 145.213 135.92V136H150.093ZM177.128 136V135.92C176.328 134.16 176.248 132.56 176.248 129.8V120.68C177.808 119.08 179.808 118.32 181.688 118.32C184.728 118.32 185.808 120.4 185.808 122.84V129.84C185.808 132.52 185.688 134.16 184.928 135.92V136H189.608V135.92C188.768 134.2 188.728 132.64 188.728 129.8V122.2C188.728 118.56 186.768 116.36 183.088 116.36C180.408 116.36 178.128 117.68 176.248 119.92L176.088 119.88V116.16L171.568 118.28V118.36C172.488 119.16 173.328 120.32 173.328 122.36V129.84C173.328 132.6 173.208 134.2 172.448 135.92V136H177.128ZM198.339 136V135.92C197.539 134.16 197.459 132.56 197.459 129.8V120.68C199.019 119.08 201.019 118.32 202.899 118.32C205.939 118.32 207.019 120.4 207.019 122.84V129.84C207.019 132.52 206.899 134.16 206.139 135.92V136H210.819V135.92C209.979 134.2 209.939 132.64 209.939 129.8V122.2C209.939 118.56 207.979 116.36 204.299 116.36C201.619 116.36 199.339 117.68 197.459 119.92L197.299 119.88V116.16L192.779 118.28V118.36C193.699 119.16 194.539 120.32 194.539 122.36V129.84C194.539 132.6 194.419 134.2 193.659 135.92V136H198.339ZM226.99 132.36V136.48L231.51 135.2V135.12C230.23 134.36 229.71 133.8 229.71 130.48V116.96H225.03V117.04C226.19 117.76 226.79 118.88 226.79 120.4V131.72C225.79 133.12 224.23 134.28 221.95 134.28C219.39 134.28 218.11 132.8 218.11 129.8V116.96H213.51V117.04C214.51 117.72 215.19 118.8 215.19 120.4V130.44C215.19 134.24 216.95 136.6 220.43 136.6C223.67 136.6 225.51 134.48 226.99 132.36ZM238.874 109.64C238.874 108.56 237.994 107.64 236.914 107.64C235.834 107.64 234.914 108.56 234.914 109.64C234.914 110.76 235.834 111.64 236.914 111.64C237.994 111.64 238.874 110.76 238.874 109.64ZM234.714 135.92V136H239.394V135.92C238.594 134.16 238.514 132.56 238.514 129.8V116.16L233.834 118.28V118.44C234.754 119.24 235.594 120.44 235.594 122.4V129.84C235.594 132.6 235.354 134.16 234.714 135.92ZM248.509 136.6C250.749 136.6 252.389 135.48 253.189 134.4L253.109 134.24C252.669 134.52 251.509 135 250.069 135C248.029 135 247.189 133.96 247.189 132V117.68H252.789V116.96H247.189V113.32H246.989L242.109 117.52V117.68H244.269V132C244.269 135.6 246.389 136.6 248.509 136.6ZM260.28 109.64C260.28 108.56 259.4 107.64 258.32 107.64C257.24 107.64 256.32 108.56 256.32 109.64C256.32 110.76 257.24 111.64 258.32 111.64C259.4 111.64 260.28 110.76 260.28 109.64ZM256.12 135.92V136H260.8V135.92C260 134.16 259.92 132.56 259.92 129.8V116.16L255.24 118.28V118.44C256.16 119.24 257 120.44 257 122.4V129.84C257 132.6 256.76 134.16 256.12 135.92ZM280.316 131.16L280.116 131.04C278.716 133.08 276.396 134.04 273.956 134.04C269.436 134.04 266.876 130.84 266.876 125.44V124.76C266.876 124.52 266.876 124.28 266.916 124.08H280.236C280.556 120.36 277.556 116.36 272.916 116.36C268.276 116.36 263.836 120.44 263.836 126.8C263.836 132.56 267.356 136.6 272.636 136.6C276.596 136.6 279.316 134.32 280.316 131.16ZM272.756 117.08C275.516 117.08 276.996 118.92 276.996 122.92V123.24L266.996 123.44C267.516 119.6 269.556 117.08 272.756 117.08ZM295.094 121.04L294.694 117.12C293.614 116.68 291.814 116.36 290.054 116.36C286.694 116.36 283.294 117.68 283.294 121.56C283.294 125.28 286.454 126.6 289.094 127.64C291.774 128.72 293.774 129.68 293.774 132.08C293.774 134.04 292.414 135.88 289.494 135.88C286.774 135.88 284.894 134.36 283.254 130.84L282.974 130.92L283.374 135.48C284.774 136.08 286.574 136.6 288.934 136.6C293.374 136.6 296.174 134.68 296.174 131C296.174 127.12 293.254 125.88 290.494 124.72C287.734 123.68 285.374 122.72 285.374 120.36C285.374 118.44 286.854 117.08 289.214 117.08C291.134 117.08 293.054 117.96 294.814 121.12L295.094 121.04Z" fill="white"/>
<defs>
<linearGradient id="paint0_linear" x1="0" y1="0" x2="450.336" y2="218.992" gradientUnits="userSpaceOnUse">
<stop stop-color="#89C2FE"/>
<stop offset="1" stop-color="#3C8BDF"/>
</linearGradient>
</defs>
</svg>
