<?xml version="1.0" encoding="UTF-8"?>
<svg width="343px" height="222px" viewBox="0 0 343 222" version="1.1" xmlns="http://www.w3.org/2000/svg" xmlns:xlink="http://www.w3.org/1999/xlink">
    <!-- Generator: Sketch 63.1 (92452) - https://sketch.com -->
    <title>Group 25 Copy 8</title>
    <desc>Created with Sketch.</desc>
    <defs>
        <rect id="path-1" x="0" y="0" width="343" height="222" rx="20"></rect>
        <ellipse id="path-3" cx="14.1549158" cy="14.2566974" rx="14.1549158" ry="14.2566974"></ellipse>
    </defs>
    <g id="V3" stroke="none" stroke-width="1" fill="none" fill-rule="evenodd">
        <g id="Intro-Copy-7" transform="translate(-931.000000, -4503.000000)">
            <g id="Group-42-Copy-2" transform="translate(165.000000, 3863.000000)">
                <g id="Group-25-Copy-8" transform="translate(766.000000, 640.000000)">
                    <g id="Group-23">
                        <mask id="mask-2" fill="white">
                            <use xlink:href="#path-1"></use>
                        </mask>
                        <use id="Mask" fill="#FFFFFF" xlink:href="#path-1"></use>
                        <g mask="url(#mask-2)">
                            <rect id="Rectangle" fill="#64A8F0" x="0" y="0" width="343" height="222"></rect>
                            <polygon id="Gradient-BG-Copy" fill="#89C2FE" points="-2.38004061e-15 0 343 0 343 54.5 0 168.5"></polygon>
                        </g>
                    </g>
                    <g id="Group-8" transform="translate(24.000000, 25.000000)">
                        <path d="M32.3510467,4.86956522 L32.3510467,37.2206119 L32.3510467,37.2206119 L4.51966966e-13,37.2206119 L4.51966966e-13,37.2206119 L4.51966966e-13,4.86956522 L4.51966966e-13,4.86956522 L32.3510467,4.86956522 L32.3510467,4.86956522 Z M8.74648413,13.9581314 C7.85360632,13.9581314 7.21573089,14.4247654 7.24756592,14.9538639 C7.27957149,15.2962348 7.53476335,15.4206644 7.75793069,15.4517302 C8.07679261,15.4517302 8.42764116,15.2962348 8.39563558,14.8915659 C8.36380055,14.6116594 8.14063322,14.6116594 8.17244929,14.3936996 C8.17244929,14.2382228 8.39563558,14.1759248 8.52331679,14.1759248 C8.84198921,14.144859 9.00148649,14.2692701 9.00148649,14.5804272 L9.00148649,14.5804272 L9.00148649,15.2650026 C9.00148649,15.4829624 8.93783539,15.5140282 8.30014945,15.794101 C7.66227401,16.0741924 7.05621466,16.2609015 7.05621466,17.1632702 C7.05621466,18.1277521 7.69409009,18.2834138 8.10860869,18.2834138 C8.58715739,18.2834138 8.93783539,18.065639 9.06534605,17.7545003 L9.065,17.7545652 L9.06534605,18.2213008 L10.0857156,18.2213008 L10.0857156,15.1093408 C10.0857156,14.5493614 9.92638882,14.3315681 9.63938088,14.144859 C9.4160051,14.0204294 9.16100273,13.9581314 8.74648413,13.9581314 Z M15.3791607,13.1491264 L14.2949317,13.1491264 L14.2949317,16.0118944 L14.2898088,16.1625112 C14.2220554,17.1624094 13.493289,18.0641517 12.7643679,18.0344068 C12.2221492,18.0344068 12.0946575,17.6299043 12.0310063,17.194336 C11.9353307,16.5718738 11.9353307,15.8562326 11.9989818,15.078275 C12.0628224,14.5804272 12.1903331,14.1759248 12.5730167,14.1759248 C12.8600435,14.1759248 12.8918596,14.3626338 12.7643679,14.4870634 C12.6366678,14.6427252 12.4455249,14.7982021 12.5411816,15.140573 C12.6366678,15.5140282 13.2425376,15.5761412 13.5297351,15.2962348 C13.7529213,15.0472277 13.7210863,14.6427252 13.5615701,14.3936996 C13.3702188,14.082561 13.0513759,13.9581314 12.5730167,13.9581314 C11.9671468,13.9581314 10.8192666,14.4870634 10.8192666,16.1675562 C10.8192666,17.9722752 11.9989818,18.2834138 12.6686923,18.2834138 C13.4340594,18.2834138 14.1035993,17.6299043 14.2949317,17.1009722 L14.2949317,17.1009722 L14.2949317,18.2213008 L15.3791607,18.2213008 L15.3791607,15.078275 L15.3831616,14.9522757 C15.3993496,14.7144245 15.4657623,14.5581898 15.6023281,14.4247654 C15.7300282,14.3315681 15.889355,14.3003358 15.9850306,14.3315681 C16.2402035,14.3936996 16.2402035,14.7048383 16.2402035,15.078275 L16.2402035,15.078275 L16.2402035,18.2213008 L17.3561918,18.2213008 L17.3561918,15.2028895 L17.3506492,15.0446365 C17.2955342,14.2790467 16.8340618,13.899727 16.1763629,13.9581314 C15.8256849,13.9891972 15.538677,14.144859 15.3791607,14.3626338 L15.3791607,14.3626338 L15.3791607,13.1491264 Z M6.19536138,7.23671498 L4.72842979,7.23671498 C3.16603102,7.23671498 2.36882885,8.66818218 2.36882885,10.0061007 C2.33699382,11.3444075 2.75151242,12.5889622 4.15458445,12.744624 C3.48506349,12.9311666 2.87902308,13.3979671 2.84718805,14.144859 C2.84718805,15.015977 3.29373117,15.2650026 4.25026008,15.794101 C4.91997055,16.1363055 5.39814026,16.3851462 5.42997528,17.0699064 C5.42997528,17.5988385 5.14313789,17.9722752 4.53728698,17.9722752 C4.05890882,17.9722752 3.35738228,17.6922023 3.07035539,16.0741924 L3.07035539,16.0741924 L2.84718805,16.0741924 L2.84718805,18.2213008 L4.53728698,18.2213008 C5.58949152,18.2213008 6.51420435,17.5677727 6.51420435,16.5097422 C6.51420435,15.4206644 5.65333212,15.1093408 4.98362166,14.7359041 C4.28209511,14.3626338 3.89939259,14.207157 3.89939259,13.5846947 C3.89939259,13.1180607 4.28209511,12.8067556 4.79228934,12.8379878 C5.27064855,12.8379878 5.55765649,13.1491264 5.71717272,13.4290329 C5.87649946,13.7091058 5.94035901,13.9581314 6.03584515,14.3003358 L6.03584515,14.3003358 L6.25920198,14.3003358 L6.25920198,9.85062379 L4.47342742,9.85062379 L4.47342742,10.0684172 C4.56910305,10.0994645 4.76045432,10.0994645 4.88794602,10.1617625 C5.04746226,10.2551263 5.14313789,10.4418538 5.14313789,10.7529925 L5.14313789,10.7529925 L5.14313789,11.5932482 C5.14313789,11.8420888 5.11132181,12.2155255 4.95180558,12.4022531 C4.85612995,12.5266642 4.69661371,12.5889622 4.47342742,12.5889622 C4.05890882,12.5889622 3.89939259,12.2465913 3.83574148,12.0287979 C3.74006585,11.5619974 3.70806028,10.9086543 3.70806028,10.0373514 C3.70806028,9.10375043 3.80390646,8.3257928 3.99506822,7.95254103 C4.18660898,7.64121744 4.40958682,7.42342407 4.79228934,7.45448986 C5.36632418,7.48555565 5.78084278,8.1390837 5.97217509,9.01038664 L5.97217509,9.01038664 L6.19536138,9.01038664 L6.19536138,7.23671498 Z M20.7043594,13.9581314 L19.588428,13.9581314 C18.7275558,13.9581314 18.1852233,14.4247654 18.1852233,15.1716388 C18.1852233,15.731803 18.6000261,15.9806437 19.2695092,16.3851462 C19.8753222,16.7275356 20.1303814,16.9765611 20.1303814,17.3810636 C20.1303814,17.7855661 19.8434872,18.003341 19.4608984,18.003341 C18.8550854,17.9722752 18.6000261,17.4744089 18.440472,16.6652376 L18.440472,16.6652376 L18.2170583,16.6652376 L18.2170583,18.2213008 L19.4927334,18.2213008 C20.162406,18.2213008 20.9596081,17.7855661 20.9596081,16.8831974 C20.9596081,16.0429417 20.3856302,15.8562326 19.6522875,15.4517302 C19.0781201,15.140573 18.9824255,14.8915659 19.0142605,14.6116594 C19.046285,14.3315681 19.3333688,14.144859 19.6522875,14.1759248 C20.162406,14.207157 20.3537951,14.6116594 20.4813247,15.078275 L20.4813247,15.078275 L20.7043594,15.078275 L20.7043594,13.9581314 Z M9.00148649,15.7007373 L9.00148649,16.9765611 C9.00148649,17.4433616 8.87399479,17.8166134 8.61880292,17.9099772 C8.42764116,18.003341 8.20428432,17.9412279 8.20428432,17.5677727 C8.17244929,17.2254018 8.17244929,16.9765611 8.20428432,16.7275356 C8.23630885,16.4163969 8.30014945,16.1363055 8.65082745,15.9185306 C8.65082745,15.9185306 9.00148649,15.7007373 9.00148649,15.7007373 L9.00148649,15.7007373 Z M8.61880292,8.10801791 C8.23630885,8.10801791 7.94928195,8.26367971 7.66227401,8.48145459 C7.21573089,8.85490976 6.92889349,9.53948511 6.92889349,10.286192 C6.92889349,11.0641312 7.21573089,11.7174743 7.66227401,12.0910959 C7.94928195,12.3088893 8.23630885,12.4643662 8.61880292,12.4643662 C9.00148649,12.4643662 9.32051896,12.3088893 9.57552133,12.0910959 C10.0538995,11.7174743 10.3089018,11.0641312 10.3089018,10.286192 C10.3089018,9.53948511 10.0538995,8.85490976 9.57552133,8.48145459 C9.32051896,8.26367971 9.00148649,8.10801791 8.61880292,8.10801791 Z M24.5310113,8.10801791 C23.6381146,8.10801791 23.0004665,8.57463347 23.0323016,9.13498265 C23.0641366,9.47718711 23.3191958,9.6015982 23.5426095,9.6015982 C23.8613388,9.63266399 24.2120926,9.47718711 24.1802575,9.04161885 C24.148233,8.76154597 23.9250088,8.76154597 23.9570334,8.57463347 C23.9570334,8.41915659 24.1802575,8.35685858 24.3077872,8.3257928 C24.6268954,8.3257928 24.7860706,8.45040729 24.7860706,8.73029526 L24.7860706,8.73029526 L24.7860706,9.41488911 C24.7860706,9.66372978 24.7224005,9.69514691 24.1165875,9.94398758 C23.4469149,10.224079 22.8409124,10.4106031 22.8409124,11.3131568 C22.8409124,12.2778235 23.510585,12.4643662 23.8931738,12.4643662 C24.3716467,12.4643662 24.7224005,12.2465913 24.8499301,11.9043868 L24.8499301,11.9043868 L24.8499301,12.3710024 L25.9021915,12.3710024 L25.9021915,9.29045952 C25.9021915,8.73029526 25.7108023,8.48145459 25.4239081,8.3257928 C25.2006839,8.20138171 24.9456247,8.10801791 24.5310113,8.10801791 Z M16.1127118,7.33007877 L14.9964772,7.33007877 L14.9964772,8.51252038 L14.9547383,8.43394906 C14.8436554,8.25826226 14.6377599,8.1390837 14.3587723,8.1390837 C13.5615701,8.1390837 12.9236947,8.94808864 12.8918596,10.1928283 C12.8600435,11.0330839 13.1470515,12.4333004 14.2630966,12.4333004 C14.7094503,12.4333004 14.9646421,12.1844597 15.0603178,11.9664999 L15.0603178,11.9664999 L15.0603178,12.3710024 L16.1127118,12.3710024 L16.1127118,7.33007877 Z M28.9329604,8.10730502 L28.8041059,8.10801791 C28.3894926,8.1390837 28.0705738,8.3880908 27.9430442,8.66818218 L27.9430442,8.66818218 L27.9430442,8.20138171 L26.9226179,8.20138171 L26.9226179,12.3710024 L28.0067143,12.3710024 L28.0067143,9.22834644 C28.0067143,8.91702285 28.0705738,8.73029526 28.2299385,8.57463347 C28.3576576,8.48145459 28.5170222,8.45040729 28.6127168,8.48145459 C28.867776,8.54375259 28.867776,8.85490976 28.867776,9.22834644 L28.867776,12.3710024 L29.9838969,12.3710024 L29.9838969,9.35275753 C29.9838969,8.48145459 29.5056135,8.07695212 28.8041059,8.10801791 Z M19.1494556,8.10496859 L19.0142605,8.10801791 C18.6000261,8.1390837 18.2809179,8.3880908 18.1533883,8.66818218 L18.1533883,8.66818218 L18.1533883,8.20138171 L17.1649864,8.20138171 L17.1649864,12.3710024 L18.2490829,12.3710024 L18.2490829,9.22834644 L18.2514043,9.10227769 C18.2614348,8.8643061 18.3082592,8.70805786 18.472307,8.57463347 C18.6000261,8.48145459 18.7275558,8.45040729 18.8230608,8.48145459 C19.0526141,8.53752279 19.0755695,8.79516692 19.077865,9.1183704 L19.077865,9.1183704 L19.0781201,12.3710024 L20.162406,12.3710024 L20.162406,9.19728065 L20.1678609,9.06465675 C20.1862928,8.85564326 20.2526684,8.70435163 20.3856302,8.57463347 C20.5131598,8.48145459 20.6406894,8.45040729 20.736384,8.48145459 C20.9914432,8.54375259 21.0232782,8.85490976 21.0232782,9.22834644 L21.0232782,9.22834644 L21.0232782,12.3710024 L22.1075641,12.3710024 L22.1075641,9.35275753 L22.1020194,9.19485092 C22.0468838,8.43259322 21.585247,8.07889374 20.9275836,8.10801791 C20.4493002,8.1390837 20.162406,8.45040729 20.0346869,8.69924796 C19.8753222,8.26367971 19.5245684,8.07695212 19.0142605,8.10801791 Z M12.1584981,7.33007877 L11.0424529,7.33007877 L11.0424529,12.3710024 L12.1584981,12.3710024 L12.1584981,7.33007877 Z M8.61880292,8.3257928 C8.84198921,8.3257928 8.93783539,8.41915659 9.03332152,8.57463347 C9.19302725,8.88595706 9.16100273,9.53948511 9.16100273,10.286192 C9.16100273,11.0641312 9.16100273,11.6865935 9.03332152,11.9977506 C8.93783539,12.1532275 8.84198921,12.2465913 8.61880292,12.2465913 C8.42764116,12.2465913 8.30014945,12.1532275 8.23630885,11.9977506 C8.09274424,11.7177092 8.07838778,11.1855106 8.07695213,10.5147537 L8.07695213,10.5147537 L8.07695213,10.0652244 C8.07838778,9.41220155 8.09274424,8.8548247 8.23630885,8.57463347 C8.30014945,8.41915659 8.42764116,8.3257928 8.61880292,8.3257928 Z M14.4862829,8.3880908 C14.6457992,8.3880908 14.7094503,8.45040729 14.8051259,8.54375259 C15.006147,8.82379404 15.0262492,9.45661582 15.0282594,10.0113865 L15.0282594,10.0113865 L15.0284827,10.1928283 C15.0284827,10.8151056 15.0603178,11.6242955 14.8051259,11.9664999 C14.7094503,12.0910959 14.6139641,12.1532275 14.4544479,12.1532275 C14.2312806,12.1532275 14.1035993,11.9043868 14.0399293,11.4998844 C14.0079237,11.1264292 14.0079237,10.6596287 14.0079237,10.1617625 C14.0079237,9.32171023 14.0717643,8.3880908 14.4862829,8.3880908 Z M24.7860706,9.88168958 L24.7860706,11.157495 C24.7860706,11.5932482 24.6587304,11.9977506 24.4353168,12.0910959 C24.2441171,12.1532275 24.0207034,12.0910959 23.9888684,11.748725 C23.9570334,11.3754548 23.9570334,11.157495 23.9888684,10.9086543 C24.0207034,10.5973307 24.084563,10.3174243 24.4353168,10.0994645 C24.4353168,10.0994645 24.7860706,9.88168958 24.7860706,9.88168958 L24.7860706,9.88168958 Z" id="Combined-Shape" fill="#FFFFFF"></path>
                        <polygon id="Close" stroke="#FFFFFF" stroke-width="1.3125" fill="#FFFFFF" points="46.5407193 17.6521739 49.4616506 20.5436135 52.3825819 17.6521739 52.6624316 17.9291981 49.7415003 20.8206377 52.6624316 23.7120773 52.3825819 23.9891014 49.4616506 21.0976618 46.5407193 23.9891014 46.2608696 23.7120773 49.1818009 20.8206377 46.2608696 17.9291981"></polygon>
                        <g id="Group" transform="translate(60.260870, -0.000000)">
                            <rect id="Rectangle-7" fill="#2F66A5" opacity="0.122339221" x="0" y="8.23720295" width="35.2300126" height="5.70267896" rx="2.85133948"></rect>
                            <rect id="Rectangle-7" fill="#2F66A5" opacity="0.122339221" x="3.77464421" y="15.8407749" width="42.779301" height="6.96994096" rx="3.48497048"></rect>
                            <g id="Rectangle-6-+-Line-5-+-Line-5-Mask" transform="translate(8.178396, 5.069048)">
                                <mask id="mask-4" fill="white">
                                    <use xlink:href="#path-3"></use>
                                </mask>
                                <ellipse stroke="#2F66A5" stroke-width="1.05" cx="14.1549158" cy="14.2566974" rx="14.6799158" ry="14.7816974"></ellipse>
                                <path d="M20.2355432,20.1675609 L8.07428842,20.1675609 L8.07428842,30.5229188 L20.2355432,30.5229188 L20.2355432,20.1675609 Z" id="Rectangle-6" stroke="#4A4A4A" stroke-width="1.05" fill="#FFFFFF" mask="url(#mask-4)"></path>
                                <line x1="7.8638421" y1="21.2266384" x2="2.51642947" y2="29.1470258" id="Line-5" stroke="#4A4A4A" stroke-width="1.05" stroke-linecap="square" mask="url(#mask-4)"></line>
                                <line x1="20.1314358" y1="20.9098229" x2="25.7934021" y2="29.1470258" id="Line-5" stroke="#4A4A4A" stroke-width="1.05" stroke-linecap="square" mask="url(#mask-4)"></line>
                            </g>
                            <g id="Group-2" transform="translate(10.694825, 0.000000)">
                                <g id="Rectangle-6" transform="translate(17.615006, 28.513395)"></g>
                                <g id="Group-5" transform="translate(9.436611, 24.077978)">
                                    <g id="Group-3" transform="translate(0.000000, 1.900893)"></g>
                                    <path d="M0.00773286487,13.9580714 L1.67212408,3.31639368 C1.71692839,3.02992678 1.98547676,2.83402054 2.27194366,2.87882485 C2.497395,2.91408614 2.6742512,3.09094233 2.70951248,3.31639368 L4.40375158,14.1489108 L4.40375158,14.1489108 L2.63840543,17.0285408 C2.48686314,17.2757363 2.16362224,17.3532786 1.91642669,17.2017363 C1.84584676,17.1584675 1.7864999,17.0991207 1.74323114,17.0285408 L0.0788399193,14.3135883 C0.0136720561,14.2072866 -0.0115343697,14.081261 0.00773286487,13.9580714 Z" id="Rectangle-5" fill="#4A90E2"></path>
                                    <polygon id="Rectangle-5" fill="#4A90E2" points="0 1.90089299 4.40375158 1.90089299 3.0826261 4.43541697 1.32112547 4.43541697"></polygon>
                                </g>
                                <g id="face">
                                    <rect id="Rectangle-3" stroke="#4A4A4A" stroke-width="1.05" fill="#FFFFFF" x="0.525" y="0.525" width="22.85608" height="22.4680249" rx="2.1"></rect>
                                    <path d="M6.29107368,14.2566974 C7.37239456,16.3094577 9.20729105,17.3358379 11.7957632,17.3358379 C15.6784713,17.3358379 17.3004526,14.2566974 17.3004526,14.2566974" id="Line-2" stroke="#4A4A4A" stroke-width="1.05" stroke-linecap="square"></path>
                                    <rect id="Rectangle-4" fill="#4A4A4A" x="7.54928842" y="5.70267896" width="1.8873221" height="5.06904797" rx="0.943661052"></rect>
                                    <rect id="Rectangle-4" fill="#4A4A4A" x="14.4694695" y="5.70267896" width="1.8873221" height="5.06904797" rx="0.943661052"></rect>
                                </g>
                            </g>
                            <path d="M8.17839579,19.6425609 C8.17839579,22.8171255 9.20857686,25.7493484 10.9505981,28.1185994 C13.5292483,31.6257151 17.6676682,33.8992583 22.3333116,33.8992583 C26.9989549,33.8992583 31.1373748,31.6257151 33.7160251,28.1185994 C35.4580463,25.7493484 36.4882274,22.8171255 36.4882274,19.6425609 L36.4882274,19.6425609 L37.7464421,19.6425609 C37.7464421,23.0117086 36.6766674,26.2213453 34.7271651,28.8727828 C31.8387706,32.8011689 27.280537,35.1665203 22.3333116,35.1665203 C17.3860862,35.1665203 12.8278525,32.8011689 9.939458,28.8727828 C7.98995573,26.2213453 6.92018105,23.0117086 6.92018105,19.6425609 L6.92018105,19.6425609 Z" id="bottom-half-circle-border" fill="#2F66A5" fill-rule="nonzero"></path>
                            <g id="Group-5" transform="translate(20.131436, 24.077978)">
                                <g id="Group-3" transform="translate(0.000000, 1.900893)"></g>
                                <path d="M0.00773286487,13.9580714 L1.67212408,3.31639368 C1.71692839,3.02992678 1.98547676,2.83402054 2.27194366,2.87882485 C2.497395,2.91408614 2.6742512,3.09094233 2.70951248,3.31639368 L4.40375158,14.1489108 L4.40375158,14.1489108 L2.63840543,17.0285408 C2.48686314,17.2757363 2.16362224,17.3532786 1.91642669,17.2017363 C1.84584676,17.1584675 1.7864999,17.0991207 1.74323114,17.0285408 L0.0788399193,14.3135883 C0.0136720561,14.2072866 -0.0115343697,14.081261 0.00773286487,13.9580714 Z" id="Rectangle-5" fill="#4A90E2"></path>
                                <polygon id="Rectangle-5" fill="#4A90E2" points="0 1.90089299 4.40375158 1.90089299 3.0826261 4.43541697 1.32112547 4.43541697"></polygon>
                            </g>
                        </g>
                    </g>
                    <text id="Simon-Annuities" font-family="Canela-Light, Canela" font-size="40" font-weight="300" fill="#FFFFFF">
                        <tspan x="24" y="129">Simon Annuities</tspan>
                    </text>
                </g>
            </g>
        </g>
    </g>
</svg>