<svg width="360" height="400" viewBox="0 0 360 400" fill="none" xmlns="http://www.w3.org/2000/svg">
<rect width="360" height="400" rx="20" fill="url(#paint0_linear)"/>
<rect x="87.7622" y="46" width="32.6668" height="32.337" rx="7.90459" fill="#372C47"/>
<rect x="88.1318" y="46.3696" width="31.9277" height="31.5978" rx="7.53502" stroke="#979797" stroke-opacity="0.295913" stroke-width="0.73913"/>
<g filter="url(#filter0_bi)">
<path fill-rule="evenodd" clip-rule="evenodd" d="M111.296 56.1433C109.706 54.6416 107.622 53.8143 105.427 53.8143C100.74 53.8143 96.926 57.5893 96.926 62.2294C96.926 66.8695 100.74 70.645 105.427 70.645C107.776 70.645 109.959 69.7197 111.572 68.0403L112.689 69.0913C110.782 71.0768 108.2 72.1706 105.427 72.1706C99.8884 72.1706 95.3843 67.7093 95.3843 62.2289C95.3843 56.7468 99.8911 52.2871 105.427 52.2871C108.021 52.2871 110.482 53.2644 112.36 55.0409L111.296 56.1433ZM105.415 69.0816C101.612 69.0816 98.5188 66.0184 98.5188 62.2538C98.5188 58.4893 101.612 55.4261 105.415 55.4261C107.197 55.4261 108.887 56.0975 110.175 57.3177L110.845 56.6239C109.375 55.233 107.447 54.4673 105.415 54.4673C101.078 54.4673 97.5502 57.9609 97.5502 62.2538C97.5502 66.5475 101.079 70.0403 105.415 70.0403C107.588 70.0403 109.61 69.1841 111.105 67.6288L110.401 66.968C109.091 68.3309 107.32 69.0816 105.415 69.0816ZM105.447 56.9844C106.826 56.9844 108.135 57.5043 109.135 58.4481L109.804 57.7552C108.624 56.6388 107.077 56.0246 105.447 56.0246C101.968 56.0246 99.1352 58.8274 99.1352 62.2726C99.1352 65.7167 101.966 68.5205 105.447 68.5205C107.189 68.5205 108.812 67.8331 110.011 66.5853L109.309 65.9248C108.295 66.9802 106.923 67.5617 105.447 67.5617C102.501 67.5617 100.104 65.189 100.104 62.2729C100.104 59.3568 102.501 56.9844 105.447 56.9844Z" fill="white" fill-opacity="0.2"/>
<path fill-rule="evenodd" clip-rule="evenodd" d="M111.296 56.1433C109.706 54.6416 107.622 53.8143 105.427 53.8143C100.74 53.8143 96.926 57.5893 96.926 62.2294C96.926 66.8695 100.74 70.645 105.427 70.645C107.776 70.645 109.959 69.7197 111.572 68.0403L112.689 69.0913C110.782 71.0768 108.2 72.1706 105.427 72.1706C99.8884 72.1706 95.3843 67.7093 95.3843 62.2289C95.3843 56.7468 99.8911 52.2871 105.427 52.2871C108.021 52.2871 110.482 53.2644 112.36 55.0409L111.296 56.1433ZM105.415 69.0816C101.612 69.0816 98.5188 66.0184 98.5188 62.2538C98.5188 58.4893 101.612 55.4261 105.415 55.4261C107.197 55.4261 108.887 56.0975 110.175 57.3177L110.845 56.6239C109.375 55.233 107.447 54.4673 105.415 54.4673C101.078 54.4673 97.5502 57.9609 97.5502 62.2538C97.5502 66.5475 101.079 70.0403 105.415 70.0403C107.588 70.0403 109.61 69.1841 111.105 67.6288L110.401 66.968C109.091 68.3309 107.32 69.0816 105.415 69.0816ZM105.447 56.9844C106.826 56.9844 108.135 57.5043 109.135 58.4481L109.804 57.7552C108.624 56.6388 107.077 56.0246 105.447 56.0246C101.968 56.0246 99.1352 58.8274 99.1352 62.2726C99.1352 65.7167 101.966 68.5205 105.447 68.5205C107.189 68.5205 108.812 67.8331 110.011 66.5853L109.309 65.9248C108.295 66.9802 106.923 67.5617 105.447 67.5617C102.501 67.5617 100.104 65.189 100.104 62.2729C100.104 59.3568 102.501 56.9844 105.447 56.9844Z" fill="url(#paint1_linear)" fill-opacity="0.75"/>
</g>
<path d="M38.6163 66.0542C38.6163 67.875 37.1289 69.3623 35.3081 69.3623C33.4874 69.3623 32 67.875 32 66.0542C32 64.2335 33.4874 62.7461 35.3081 62.7461H38.6163V66.0542Z" fill="#E01E5A"/>
<path d="M40.2832 66.0542C40.2832 64.2335 41.7706 62.7461 43.5913 62.7461C45.4121 62.7461 46.8995 64.2335 46.8995 66.0542V74.3374C46.8995 76.1581 45.4121 77.6455 43.5913 77.6455C41.7706 77.6455 40.2832 76.1581 40.2832 74.3374V66.0542Z" fill="#E01E5A"/>
<path d="M43.5913 52.7705C41.7706 52.7705 40.2832 51.2832 40.2832 49.4624C40.2832 47.6417 41.7706 46.1543 43.5913 46.1543C45.4121 46.1543 46.8995 47.6417 46.8995 49.4624V52.7705H43.5913Z" fill="#36C5F0"/>
<path d="M43.5913 54.4375C45.412 54.4375 46.8994 55.9249 46.8994 57.7456C46.8994 59.5664 45.412 61.0538 43.5913 61.0538H35.3081C33.4874 61.0538 32 59.5664 32 57.7456C32 55.9249 33.4874 54.4375 35.3081 54.4375H43.5913Z" fill="#36C5F0"/>
<path d="M56.875 57.7456C56.875 55.9249 58.3624 54.4375 60.1831 54.4375C62.0039 54.4375 63.4913 55.9249 63.4913 57.7456C63.4913 59.5664 62.0039 61.0538 60.1831 61.0538H56.875V57.7456Z" fill="#2EB67D"/>
<path d="M55.208 57.7456C55.208 59.5663 53.7207 61.0537 51.8999 61.0537C50.0792 61.0537 48.5918 59.5663 48.5918 57.7456V49.4624C48.5918 47.6417 50.0792 46.1543 51.8999 46.1543C53.7207 46.1543 55.208 47.6417 55.208 49.4624V57.7456Z" fill="#2EB67D"/>
<path d="M51.8999 71.0293C53.7207 71.0293 55.208 72.5167 55.208 74.3374C55.208 76.1582 53.7207 77.6455 51.8999 77.6455C50.0792 77.6455 48.5918 76.1582 48.5918 74.3374V71.0293H51.8999Z" fill="#ECB22E"/>
<path d="M51.8999 69.3623C50.0792 69.3623 48.5918 67.875 48.5918 66.0542C48.5918 64.2335 50.0792 62.7461 51.8999 62.7461H60.1831C62.0038 62.7461 63.4912 64.2335 63.4912 66.0542C63.4912 67.875 62.0038 69.3623 60.1831 69.3623H51.8999Z" fill="#ECB22E"/>
<path fill-rule="evenodd" clip-rule="evenodd" d="M73.4113 59.3965L75.9052 61.8652L78.399 59.3965L78.638 59.633L76.1441 62.1017L78.638 64.5704L78.399 64.8069L75.9052 62.3382L73.4113 64.8069L73.1724 64.5704L75.6662 62.1017L73.1724 59.633L73.4113 59.3965Z" fill="#D0FAE8" stroke="#D0FAE8" stroke-width="1.0163" stroke-linejoin="round"/>
<path d="M59.12 133.6L59.92 126.92L59.6 126.8C57.16 132.32 54.2 135.8 48.32 135.8C40.64 135.8 37.16 129.6 37.16 121.32C37.16 113.12 40.76 106.92 48.8 106.92C53.32 106.92 56.24 109.04 59.44 114.24L59.76 114.16L58.96 108.08C56.96 107.24 53.16 106.12 49.12 106.12C39.68 106.12 33.4 112.8 33.4 121.32C33.4 129.88 39.04 136.6 48.24 136.6C53.44 136.6 57.96 134.44 59.12 133.6ZM64.1181 136H68.8381V135.92C67.9981 134.16 67.9181 132.56 67.9181 129.84V120.68C69.4781 119.08 71.4781 118.32 73.3981 118.32C76.3981 118.32 77.4781 120.4 77.4781 122.84V129.84C77.4781 132.52 77.3581 134.16 76.5981 135.92V136H81.2781V135.92C80.4381 134.24 80.3981 132.64 80.3981 129.84V122.2C80.3981 118.56 78.4781 116.36 74.7981 116.36C72.0781 116.36 69.8381 117.68 67.9181 119.92V104.84L63.2381 106.72V106.8C64.1581 107.6 64.9981 108.76 64.9981 110.8V129.84C64.9981 132.6 64.8781 134.2 64.1181 135.92V136ZM90.73 134.84C88.49 134.84 87.45 133.64 87.45 131.92C87.45 128.72 91.41 127.16 95.13 126.52V133.16C94.21 134.08 92.53 134.84 90.73 134.84ZM98.09 136.48C100.21 136.48 101.25 134.96 101.65 133.92L101.53 133.84C100.93 134.32 100.37 134.68 99.61 134.68C98.49 134.68 98.05 133.96 98.05 132.96V121.2C98.05 118.68 97.05 116.36 92.73 116.36C89.53 116.36 86.93 117.72 85.33 119.64L85.53 119.88C87.09 118.72 89.13 118.12 91.01 118.12C94.21 118.12 95.13 119.8 95.13 121.92V125.92C90.73 126.44 84.61 128.44 84.61 132.84C84.61 135.28 86.49 136.6 89.09 136.6C91.65 136.6 93.81 135.32 95.13 133.84C95.29 135.32 96.21 136.48 98.09 136.48ZM107.98 136V135.92C107.18 134.16 107.1 132.56 107.1 129.8V120.68C108.66 119.08 110.66 118.32 112.54 118.32C115.58 118.32 116.66 120.4 116.66 122.84V129.84C116.66 132.52 116.54 134.16 115.78 135.92V136H120.46V135.92C119.62 134.2 119.58 132.64 119.58 129.8V122.2C119.58 118.56 117.62 116.36 113.94 116.36C111.26 116.36 108.98 117.68 107.1 119.92L106.94 119.88V116.16L102.42 118.28V118.36C103.34 119.16 104.18 120.32 104.18 122.36V129.84C104.18 132.6 104.06 134.2 103.3 135.92V136H107.98ZM129.191 136V135.92C128.391 134.16 128.311 132.56 128.311 129.8V120.68C129.871 119.08 131.871 118.32 133.751 118.32C136.791 118.32 137.871 120.4 137.871 122.84V129.84C137.871 132.52 137.751 134.16 136.991 135.92V136H141.671V135.92C140.831 134.2 140.791 132.64 140.791 129.8V122.2C140.791 118.56 138.831 116.36 135.151 116.36C132.471 116.36 130.191 117.68 128.311 119.92L128.151 119.88V116.16L123.631 118.28V118.36C124.551 119.16 125.391 120.32 125.391 122.36V129.84C125.391 132.6 125.271 134.2 124.511 135.92V136H129.191ZM161.402 131.16L161.202 131.04C159.802 133.08 157.482 134.04 155.042 134.04C150.522 134.04 147.962 130.84 147.962 125.44V124.76C147.962 124.52 147.962 124.28 148.002 124.08H161.322C161.642 120.36 158.642 116.36 154.002 116.36C149.362 116.36 144.922 120.44 144.922 126.8C144.922 132.56 148.442 136.6 153.722 136.6C157.682 136.6 160.402 134.32 161.402 131.16ZM153.842 117.08C156.602 117.08 158.082 118.92 158.082 122.92V123.24L148.082 123.44C148.602 119.6 150.642 117.08 153.842 117.08ZM164.274 135.92V136H168.954V135.92C168.194 134.68 168.074 133.36 168.074 130.84V104.84L163.354 106.76V106.84C164.274 107.6 165.154 108.64 165.154 110.52V130.88C165.154 133.4 164.914 134.68 164.274 135.92ZM184.032 121.04L183.632 117.12C182.552 116.68 180.752 116.36 178.992 116.36C175.632 116.36 172.232 117.68 172.232 121.56C172.232 125.28 175.392 126.6 178.032 127.64C180.712 128.72 182.712 129.68 182.712 132.08C182.712 134.04 181.352 135.88 178.432 135.88C175.712 135.88 173.832 134.36 172.192 130.84L171.912 130.92L172.312 135.48C173.712 136.08 175.512 136.6 177.872 136.6C182.312 136.6 185.112 134.68 185.112 131C185.112 127.12 182.192 125.88 179.432 124.72C176.672 123.68 174.312 122.72 174.312 120.36C174.312 118.44 175.792 117.08 178.152 117.08C180.072 117.08 181.992 117.96 183.752 121.12L184.032 121.04ZM195.309 135.92V136H200.109V135.92C199.509 134.84 199.189 133.48 199.189 130.44V117.68H203.909V116.96H199.189V111.84C199.189 107.72 200.509 105.64 202.109 105.64C203.669 105.64 204.829 107.4 206.029 109.16L206.269 109.08L205.789 105.4C205.349 105.12 204.269 104.84 203.109 104.84C199.149 104.84 196.269 108.12 196.269 113.6V116.96H193.749V117.68H196.269V130.44C196.269 133.48 195.989 134.84 195.309 135.92ZM214.959 136.6C220.439 136.6 224.999 132.04 224.999 126.52C224.999 121 220.439 116.36 214.959 116.36C209.559 116.36 204.919 121 204.919 126.52C204.919 132.04 209.479 136.6 214.959 136.6ZM214.959 135.84C210.439 135.84 208.279 131.48 208.279 126.52C208.279 121.52 210.479 117.12 214.959 117.12C219.439 117.12 221.639 121.52 221.639 126.52C221.639 131.48 219.479 135.84 214.959 135.84ZM228.3 135.92V136H232.98V135.92C232.18 134.16 232.1 132.56 232.1 129.8V121.92C233.18 120.52 234.5 119.44 235.18 119.44C236.1 119.44 237.74 119.88 238.38 120.32H238.5L238.54 116.36C235.82 116.36 233.86 119.12 232.14 121.04L231.94 121V116.16L227.42 118.28V118.36C228.34 119.16 229.18 120.32 229.18 122.36V129.84C229.18 132.6 229.06 134.2 228.3 135.92ZM50.4 153.64L49.6 147.32C47.84 146.64 45.52 146.12 43.12 146.12C38.16 146.12 34.2 148.36 34.2 153.36C34.2 158.52 38.4 160.24 42.44 162.16C46.08 163.76 49.4 165.52 49.4 169.88C49.4 173.28 47.36 175.8 43.08 175.8C38.92 175.8 36.12 173.6 33.72 168.48L33.4 168.6L34.2 175.08C36.6 176 39.4 176.6 42.12 176.6C47.6 176.6 52.4 174.28 52.4 168.4C52.4 163 48.24 160.92 44.2 159.12C40.36 157.4 36.76 155.92 36.76 151.88C36.76 149.16 38.48 146.92 42.16 146.92C45.16 146.92 47.92 148.48 50.08 153.76L50.4 153.64ZM55.7197 175.92V176H60.3997V175.92C59.6397 174.68 59.5197 173.36 59.5197 170.84V144.84L54.7997 146.76V146.84C55.7197 147.6 56.5997 148.64 56.5997 150.52V170.88C56.5997 173.4 56.3597 174.68 55.7197 175.92ZM69.7925 174.84C67.5525 174.84 66.5125 173.64 66.5125 171.92C66.5125 168.72 70.4725 167.16 74.1925 166.52V173.16C73.2725 174.08 71.5925 174.84 69.7925 174.84ZM77.1525 176.48C79.2725 176.48 80.3125 174.96 80.7125 173.92L80.5925 173.84C79.9925 174.32 79.4325 174.68 78.6725 174.68C77.5525 174.68 77.1125 173.96 77.1125 172.96V161.2C77.1125 158.68 76.1125 156.36 71.7925 156.36C68.5925 156.36 65.9925 157.72 64.3925 159.64L64.5925 159.88C66.1525 158.72 68.1925 158.12 70.0725 158.12C73.2725 158.12 74.1925 159.8 74.1925 161.92V165.92C69.7925 166.44 63.6725 168.44 63.6725 172.84C63.6725 175.28 65.5525 176.6 68.1525 176.6C70.7125 176.6 72.8725 175.32 74.1925 173.84C74.3525 175.32 75.2725 176.48 77.1525 176.48ZM97.8422 171.56L97.6022 171.44C96.2822 173.32 93.8422 174.04 91.6022 174.04C87.0822 174.04 84.5622 170.72 84.5622 165.56C84.5622 160.24 87.1222 157.08 91.0022 157.08C93.5622 157.08 95.5622 159.2 97.0422 161.72L97.3622 161.64L96.9622 157.56C96.0422 157.12 94.3222 156.36 91.6422 156.36C86.3622 156.36 81.5622 160.56 81.5622 166.92C81.5622 172.84 85.1222 176.6 90.3622 176.6C94.2022 176.6 96.7622 174.6 97.8422 171.56ZM100.759 175.92V176H105.479V175.92C104.719 174.68 104.559 173.36 104.559 170.84V144.84L99.8788 146.76V146.84C100.799 147.6 101.639 148.64 101.639 150.52V170.88C101.639 173.4 101.399 174.68 100.759 175.92ZM112.439 176H116.959V175.92C115.559 175.16 114.639 174.2 113.319 172.32L107.679 164.52L111.079 160.68C112.479 159.04 113.479 158 115.639 157.04V156.96H110.759V157.04C111.839 157.88 111.439 159.16 110.439 160.28L105.239 166.04L112.439 176Z" fill="#D0FAE8"/>
<path d="M35.304 333.526V330.992H36.592C37.432 330.992 38.006 331.468 38.006 332.266C38.006 333.036 37.432 333.526 36.592 333.526H35.304ZM36.816 335.43C38.832 335.43 40.218 334.128 40.218 332.252C40.218 330.404 38.832 329.074 36.816 329.074H33.078V339H35.29V335.43H36.816ZM49.1696 339H51.6056L49.5896 334.982C50.8076 334.548 51.5496 333.526 51.5496 332.182C51.5496 330.418 50.2896 329.074 48.3296 329.074H44.3956V339H46.6076V335.304H47.3916L49.1696 339ZM46.6076 333.4V330.992H47.9096C48.8196 330.992 49.3096 331.454 49.3096 332.196C49.3096 332.896 48.8196 333.4 47.9096 333.4H46.6076ZM57.6402 334.03C57.6402 331.958 59.1242 331.02 60.5102 331.02C61.8822 331.02 63.3662 331.958 63.3662 334.03C63.3662 336.102 61.8822 337.026 60.5102 337.026C59.1242 337.026 57.6402 336.102 57.6402 334.03ZM55.3442 334.044C55.3442 337.18 57.7102 339.21 60.5102 339.21C63.2962 339.21 65.6622 337.18 65.6622 334.044C65.6622 330.894 63.2962 328.864 60.5102 328.864C57.7102 328.864 55.3442 330.894 55.3442 334.044ZM69.2405 335.934C69.2405 337.908 70.5985 339.21 72.5585 339.21C74.5325 339.21 75.9185 337.698 75.9185 335.892V329.074H73.7065V335.836C73.7065 336.578 73.2725 337.11 72.5445 337.11C71.9005 337.11 71.3405 336.704 71.3405 335.822V334.912L69.2405 335.276V335.934ZM87.0956 339V336.9H83.0076V334.996H86.7036V333.05H83.0076V331.16H87.0816V329.074H80.7956V339H87.0956ZM96.322 339.21C99.402 339.21 100.718 337.11 101.04 335.738L98.926 335.136C98.73 335.85 98.044 336.998 96.322 336.998C94.838 336.998 93.466 335.92 93.466 334.058C93.466 331.972 94.964 331.02 96.294 331.02C98.044 331.02 98.674 332.182 98.828 332.868L100.914 332.21C100.592 330.782 99.276 328.864 96.294 328.864C93.522 328.864 91.17 330.964 91.17 334.058C91.17 337.152 93.466 339.21 96.322 339.21ZM112.74 331.188V329.074H104.41V331.188H107.462V339H109.674V331.188H112.74ZM116.001 337.726C116.001 338.468 116.631 339.126 117.401 339.126C118.157 339.126 118.801 338.468 118.801 337.726C118.801 336.956 118.157 336.326 117.401 336.326C116.631 336.326 116.001 336.956 116.001 337.726ZM116.001 333.316C116.001 334.058 116.631 334.716 117.401 334.716C118.157 334.716 118.801 334.058 118.801 333.316C118.801 332.546 118.157 331.916 117.401 331.916C116.631 331.916 116.001 332.546 116.001 333.316ZM132.008 339V335.29H135.676V333.274H131.994V331.174H136.18V329.074H129.782V339H132.008ZM145.313 339H147.749L145.733 334.982C146.951 334.548 147.693 333.526 147.693 332.182C147.693 330.418 146.433 329.074 144.473 329.074H140.539V339H142.751V335.304H143.535L145.313 339ZM142.751 333.4V330.992H144.053C144.963 330.992 145.453 331.454 145.453 332.196C145.453 332.896 144.963 333.4 144.053 333.4H142.751ZM158.43 339V336.9H154.342V334.996H158.038V333.05H154.342V331.16H158.416V329.074H152.13V339H158.43ZM169.392 339V336.9H165.304V334.996H169V333.05H165.304V331.16H169.378V329.074H163.092V339H169.392ZM180.55 339V336.886H176.266V329.074H174.054V339H180.55ZM191.461 339H193.869L190.173 329.074H187.611L183.873 339H186.197L186.911 336.984H190.747L191.461 339ZM188.857 331.538L190.047 334.968H187.639L188.857 331.538ZM206.516 339V329.074H204.304V335.108L200.58 329.074H197.892V339H200.09V332.476L204.178 339H206.516ZM216.03 339.21C219.11 339.21 220.426 337.11 220.748 335.738L218.634 335.136C218.438 335.85 217.752 336.998 216.03 336.998C214.546 336.998 213.174 335.92 213.174 334.058C213.174 331.972 214.672 331.02 216.002 331.02C217.752 331.02 218.382 332.182 218.536 332.868L220.622 332.21C220.3 330.782 218.984 328.864 216.002 328.864C213.23 328.864 210.878 330.964 210.878 334.058C210.878 337.152 213.174 339.21 216.03 339.21ZM231.367 339V336.9H227.279V334.996H230.975V333.05H227.279V331.16H231.353V329.074H225.067V339H231.367Z" fill="#D0FAE8" fill-opacity="0.5"/>
<path d="M76.344 308H80.04L76.392 301.04C78.624 300.392 80.016 298.592 80.016 296.216C80.016 293.264 77.904 290.984 74.592 290.984H67.944V308H71.28V301.448H73.008L76.344 308ZM71.28 298.592V293.864H73.968C75.648 293.864 76.632 294.8 76.632 296.24C76.632 297.632 75.648 298.592 73.968 298.592H71.28ZM83.7439 300.752C83.8159 299.672 84.7279 298.424 86.3839 298.424C88.2079 298.424 88.9759 299.576 89.0239 300.752H83.7439ZM89.3359 303.824C88.9519 304.88 88.1359 305.624 86.6479 305.624C85.0639 305.624 83.7439 304.496 83.6719 302.936H92.1199C92.1199 302.888 92.1679 302.408 92.1679 301.952C92.1679 298.16 89.9839 295.832 86.3359 295.832C83.3119 295.832 80.5279 298.28 80.5279 302.048C80.5279 306.032 83.3839 308.36 86.6239 308.36C89.5279 308.36 91.3999 306.656 91.9999 304.616L89.3359 303.824ZM96.9135 308V301.088C96.9135 299.792 97.7295 298.76 99.1215 298.76C100.562 298.76 101.21 299.72 101.21 300.992V308H104.378V301.088C104.378 299.816 105.194 298.76 106.562 298.76C108.026 298.76 108.65 299.72 108.65 300.992V308H111.746V300.344C111.746 297.176 109.658 295.856 107.474 295.856C105.914 295.856 104.666 296.384 103.73 297.824C103.13 296.552 101.834 295.856 100.226 295.856C98.9295 295.856 97.4175 296.48 96.7695 297.632V296.192H93.7215V308H96.9135ZM119.323 305.456C117.763 305.456 116.323 304.304 116.323 302.096C116.323 299.864 117.763 298.736 119.323 298.736C120.883 298.736 122.323 299.864 122.323 302.096C122.323 304.328 120.883 305.456 119.323 305.456ZM119.323 295.832C115.795 295.832 113.131 298.448 113.131 302.096C113.131 305.72 115.795 308.36 119.323 308.36C122.851 308.36 125.515 305.72 125.515 302.096C125.515 298.448 122.851 295.832 119.323 295.832ZM130.964 292.664H128.084V294.32C128.084 295.376 127.508 296.192 126.26 296.192H125.66V299.024H127.796V304.52C127.796 306.8 129.236 308.168 131.54 308.168C132.476 308.168 133.052 308 133.34 307.88V305.24C133.172 305.288 132.74 305.336 132.356 305.336C131.444 305.336 130.964 305 130.964 303.968V299.024H133.34V296.192H130.964V292.664ZM137.302 300.752C137.374 299.672 138.286 298.424 139.942 298.424C141.766 298.424 142.534 299.576 142.582 300.752H137.302ZM142.894 303.824C142.51 304.88 141.694 305.624 140.206 305.624C138.622 305.624 137.302 304.496 137.23 302.936H145.678C145.678 302.888 145.726 302.408 145.726 301.952C145.726 298.16 143.542 295.832 139.894 295.832C136.87 295.832 134.086 298.28 134.086 302.048C134.086 306.032 136.942 308.36 140.182 308.36C143.086 308.36 144.958 306.656 145.558 304.616L142.894 303.824Z" fill="#D0FAE8"/>
<path fill-rule="evenodd" clip-rule="evenodd" d="M50 295C50 299.6 44.73 307.69 43 310C43 310 41.5 312 41 312C40.5 312 39 310 39 310C37.27 307.69 32 299.6 32 295C32 290.029 36.0294 286 41 286C45.9706 286 50 290.029 50 295ZM41 291C38.7909 291 37 292.791 37 295C37 297.209 38.7909 299 41 299C43.2091 299 45 297.209 45 295C45 292.791 43.2091 291 41 291Z" fill="#D0FAE8"/>
<defs>
<filter id="filter0_bi" x="90.0126" y="46.9154" width="28.0485" height="30.627" filterUnits="userSpaceOnUse" color-interpolation-filters="sRGB">
<feFlood flood-opacity="0" result="BackgroundImageFix"/>
<feGaussianBlur in="BackgroundImage" stdDeviation="2.68586"/>
<feComposite in2="SourceAlpha" operator="in" result="effect1_backgroundBlur"/>
<feBlend mode="normal" in="SourceGraphic" in2="effect1_backgroundBlur" result="shape"/>
<feColorMatrix in="SourceAlpha" type="matrix" values="0 0 0 0 0 0 0 0 0 0 0 0 0 0 0 0 0 0 127 0" result="hardAlpha"/>
<feOffset/>
<feGaussianBlur stdDeviation="0.5"/>
<feComposite in2="hardAlpha" operator="arithmetic" k2="-1" k3="1"/>
<feColorMatrix type="matrix" values="0 0 0 0 0 0 0 0 0 0 0 0 0 0 0 0 0 0 0.5 0"/>
<feBlend mode="normal" in2="shape" result="effect2_innerShadow"/>
</filter>
<linearGradient id="paint0_linear" x1="0" y1="0" x2="450.336" y2="218.992" gradientUnits="userSpaceOnUse">
<stop stop-color="#A08DB7"/>
<stop offset="1" stop-color="#624F79"/>
</linearGradient>
<linearGradient id="paint1_linear" x1="86.6452" y1="62.4277" x2="106.705" y2="79.715" gradientUnits="userSpaceOnUse">
<stop stop-color="#23A4AE"/>
<stop offset="0.593027" stop-color="#52C491"/>
<stop offset="1" stop-color="#6DD780"/>
</linearGradient>
</defs>
</svg>
