<?xml version="1.0" encoding="UTF-8"?>
<svg width="343px" height="222px" viewBox="0 0 343 222" version="1.1" xmlns="http://www.w3.org/2000/svg" xmlns:xlink="http://www.w3.org/1999/xlink">
    <!-- Generator: Sketch 63.1 (92452) - https://sketch.com -->
    <title>Group 25 Copy 9</title>
    <desc>Created with Sketch.</desc>
    <defs>
        <rect id="path-1" x="0" y="0" width="343" height="222" rx="20"></rect>
        <linearGradient x1="12.1270876%" y1="0%" x2="89.3878275%" y2="100.999999%" id="linearGradient-3">
            <stop stop-color="#23A4AE" offset="0%"></stop>
            <stop stop-color="#52C491" offset="59.3027457%"></stop>
            <stop stop-color="#6DD780" offset="100%"></stop>
        </linearGradient>
        <path d="M17.6654079,6.28774155 C20.2589739,6.28774155 22.7200978,7.26506858 24.5983672,9.04148505 L24.5983672,9.04148505 L23.5339051,10.1439576 C21.9435057,8.64221121 19.8600059,7.81495047 17.6654079,7.81495047 C12.9779438,7.81495047 9.16394055,11.5899032 9.16394055,16.2300396 C9.16394055,20.8701759 12.9779438,24.6456704 17.6654079,24.6456704 C20.0137919,24.6456704 22.1968969,23.7203519 23.8102821,22.0409097 L23.8102821,22.0409097 L24.9272832,23.0919155 C23.020008,25.0774496 20.4379349,26.1712541 17.6654079,26.1712541 C12.1263741,26.1712541 7.62224919,21.7098971 7.62224919,16.2294978 C7.62224919,10.7474733 12.1291105,6.28774155 17.6654079,6.28774155 Z M17.6531005,8.46796292 C19.6854463,8.46796292 21.6132341,9.23367562 23.0828928,10.6244877 L23.0828928,10.6244877 L22.4132402,11.3183617 C21.1251822,10.0981241 19.4354013,9.42672102 17.6531005,9.42672102 C13.8501478,9.42672102 10.7567448,12.4899123 10.7567448,16.2544678 C10.7567448,20.0190233 13.8501478,23.0822146 17.6531005,23.0822146 C19.5581882,23.0822146 21.329139,22.3314825 22.6392093,20.9685888 L22.6392093,20.9685888 L23.3425681,21.6294373 C21.8478016,23.1846955 19.8257741,24.0409727 17.6531005,24.0409727 C13.3170397,24.0409727 9.78820774,20.5481107 9.78820774,16.2544678 C9.78820774,11.9615059 13.3156639,8.46796292 17.6531005,8.46796292 Z M17.684876,10.0252639 C19.3148111,10.0252639 20.8615126,10.6394683 22.0419172,11.7558631 L22.0419172,11.7558631 L21.3729524,12.4487157 C20.3734607,11.5049382 19.0640783,10.9850434 17.684876,10.9850434 C14.7390236,10.9850434 12.3421006,13.357425 12.3421006,16.273534 C12.3421006,19.1896431 14.7390236,21.5623651 17.684876,21.5623651 C19.1607256,21.5623651 20.5327052,20.9808457 21.5466425,19.9253946 L21.5466425,19.9253946 L22.2486255,20.5859027 C21.0499921,21.8337182 19.4272797,22.5211232 17.684876,22.5211232 C14.2038518,22.5211232 11.3732196,19.7173686 11.3732196,16.2731936 C11.3732196,12.8279971 14.2055715,10.0252639 17.684876,10.0252639 Z" id="path-4"></path>
        <filter x="-2.9%" y="-2.5%" width="105.8%" height="105.0%" filterUnits="objectBoundingBox" id="filter-5">
            <feGaussianBlur stdDeviation="0.5" in="SourceAlpha" result="shadowBlurInner1"></feGaussianBlur>
            <feOffset dx="0" dy="0" in="shadowBlurInner1" result="shadowOffsetInner1"></feOffset>
            <feComposite in="shadowOffsetInner1" in2="SourceAlpha" operator="arithmetic" k2="-1" k3="1" result="shadowInnerInner1"></feComposite>
            <feColorMatrix values="0 0 0 0 0   0 0 0 0 0   0 0 0 0 0  0 0 0 0.5 0" type="matrix" in="shadowInnerInner1"></feColorMatrix>
        </filter>
    </defs>
    <g id="V3" stroke="none" stroke-width="1" fill="none" fill-rule="evenodd">
        <g id="Intro-Copy-7" transform="translate(-165.000000, -5113.000000)">
            <g id="Group-42-Copy-2" transform="translate(165.000000, 4211.000000)">
                <g id="Group-25-Copy-9" transform="translate(0.000000, 902.000000)">
                    <g id="Group-23">
                        <mask id="mask-2" fill="white">
                            <use xlink:href="#path-1"></use>
                        </mask>
                        <use id="Mask" fill="#FFFFFF" xlink:href="#path-1"></use>
                        <g mask="url(#mask-2)">
                            <rect id="Rectangle" fill="#8C78A4" x="0" y="0" width="343" height="222"></rect>
                            <polygon id="Gradient-BG-Copy" fill="#A08DB7" points="-2.38004061e-15 0 343 0 343 54.5 0 168.5"></polygon>
                        </g>
                    </g>
                    <g id="Group-6" transform="translate(24.000000, 29.000000)">
                        <g id="Group-9">
                            <g id="Group" transform="translate(55.915987, 0.000000)">
                                <rect id="Rectangle-13" stroke-opacity="0.295912591" stroke="#979797" stroke-width="0.739130435" fill="#372C47" x="0.369565217" y="0.369565217" width="31.9276518" height="31.5978261" rx="7.90458937"></rect>
                                <g id="Combined-Shape" fill-rule="nonzero">
                                    <use fill-opacity="0.199999988" fill="#FFFFFF" xlink:href="#path-4"></use>
                                    <use fill-opacity="0.75" fill="url(#linearGradient-3)" xlink:href="#path-4"></use>
                                    <use fill="black" fill-opacity="1" filter="url(#filter-5)" xlink:href="#path-4"></use>
                                </g>
                            </g>
                            <g id="Slack_Mark" fill-rule="nonzero">
                                <g id="Group" transform="translate(0.000000, 16.668848)" fill="#E01E5A">
                                    <path d="M6.77011688,3.38505844 C6.77011688,5.20580957 5.28274271,6.69318373 3.46199158,6.69318373 C1.64124046,6.69318373 0.153866293,5.20580957 0.153866293,3.38505844 C0.153866293,1.56430731 1.64124046,0.0769331463 3.46199158,0.0769331463 L6.77011688,0.0769331463 L6.77011688,3.38505844 Z" id="Path"></path>
                                    <path d="M8.43700171,3.38505844 C8.43700171,1.56430731 9.92437588,0.0769331463 11.745127,0.0769331463 C13.5658781,0.0769331463 15.0532523,1.56430731 15.0532523,3.38505844 L15.0532523,11.6681939 C15.0532523,13.488945 13.5658781,14.9763192 11.745127,14.9763192 C9.92437588,14.9763192 8.43700171,13.488945 8.43700171,11.6681939 L8.43700171,3.38505844 Z" id="Path"></path>
                                </g>
                                <g id="Group" fill="#36C5F0">
                                    <path d="M11.745127,6.77011688 C9.92437588,6.77011688 8.43700171,5.28274271 8.43700171,3.46199158 C8.43700171,1.64124046 9.92437588,0.153866293 11.745127,0.153866293 C13.5658781,0.153866293 15.0532523,1.64124046 15.0532523,3.46199158 L15.0532523,6.77011688 L11.745127,6.77011688 Z" id="Path"></path>
                                    <path d="M11.745127,8.43700171 C13.5658781,8.43700171 15.0532523,9.92437588 15.0532523,11.745127 C15.0532523,13.5658781 13.5658781,15.0532523 11.745127,15.0532523 L3.46199158,15.0532523 C1.64124046,15.0532523 0.153866293,13.5658781 0.153866293,11.745127 C0.153866293,9.92437588 1.64124046,8.43700171 3.46199158,8.43700171 L11.745127,8.43700171 Z" id="Path"></path>
                                </g>
                                <g id="Group" transform="translate(16.668848, 0.000000)" fill="#2EB67D">
                                    <path d="M8.36006857,11.745127 C8.36006857,9.92437588 9.84744273,8.43700171 11.6681939,8.43700171 C13.488945,8.43700171 14.9763192,9.92437588 14.9763192,11.745127 C14.9763192,13.5658781 13.488945,15.0532523 11.6681939,15.0532523 L8.36006857,15.0532523 L8.36006857,11.745127 Z" id="Path"></path>
                                    <path d="M6.69318373,11.745127 C6.69318373,13.5658781 5.20580957,15.0532523 3.38505844,15.0532523 C1.56430731,15.0532523 0.0769331463,13.5658781 0.0769331463,11.745127 L0.0769331463,3.46199158 C0.0769331463,1.64124046 1.56430731,0.153866293 3.38505844,0.153866293 C5.20580957,0.153866293 6.69318373,1.64124046 6.69318373,3.46199158 L6.69318373,11.745127 Z" id="Path"></path>
                                </g>
                                <g id="Group" transform="translate(16.668848, 16.668848)" fill="#ECB22E">
                                    <path d="M3.38505844,8.36006857 C5.20580957,8.36006857 6.69318373,9.84744273 6.69318373,11.6681939 C6.69318373,13.488945 5.20580957,14.9763192 3.38505844,14.9763192 C1.56430731,14.9763192 0.0769331463,13.488945 0.0769331463,11.6681939 L0.0769331463,8.36006857 L3.38505844,8.36006857 Z" id="Path"></path>
                                    <path d="M3.38505844,6.69318373 C1.56430731,6.69318373 0.0769331463,5.20580957 0.0769331463,3.38505844 C0.0769331463,1.56430731 1.56430731,0.0769331463 3.38505844,0.0769331463 L11.6681939,0.0769331463 C13.488945,0.0769331463 14.9763192,1.56430731 14.9763192,3.38505844 C14.9763192,5.20580957 13.488945,6.69318373 11.6681939,6.69318373 L3.38505844,6.69318373 Z" id="Path"></path>
                                </g>
                            </g>
                            <g id="Group-5" transform="translate(41.326462, 13.396739)" fill="#D0FAE8" stroke="#D0FAE8" stroke-linejoin="round" stroke-width="1.01630435">
                                <polygon id="Close" points="0.238934179 0 2.73280967 2.46869565 5.22668516 0 5.46561934 0.236521739 2.97174385 2.70521739 5.46561934 5.17391304 5.22668516 5.41043478 2.73280967 2.94173913 0.238934179 5.41043478 0 5.17391304 2.49387549 2.70521739 0 0.236521739"></polygon>
                            </g>
                        </g>
                    </g>
                    <text id="Channels-for-Slack" font-family="CircularStd-Medium, Circular Std" font-size="36" font-weight="400" fill="#D0FAE8">
                        <tspan x="24" y="129">Channels for </tspan>
                        <tspan x="24" y="175">Slack</tspan>
                    </text>
                </g>
            </g>
        </g>
    </g>
</svg>