<svg width="362" height="222" viewBox="0 0 362 222" fill="none" xmlns="http://www.w3.org/2000/svg">
<g id="Group 25 Copy 9">
<g id="Group 23">
<rect id="Mask" width="362" height="222" rx="20" fill="white"/>
<mask id="mask0" mask-type="alpha" maskUnits="userSpaceOnUse" x="0" y="0" width="362" height="222">
<rect id="Mask_2" width="362" height="222" rx="20" fill="white"/>
</mask>
<g mask="url(#mask0)">
<g id="Group 23_2">
<rect id="Rectangle" width="362" height="222" fill="#8C78A4"/>
<path id="Gradient BG Copy" fill-rule="evenodd" clip-rule="evenodd" d="M0 0H362V54.5L0 168.5L0 0Z" fill="#A08DB7"/>
</g>
</g>
</g>
<g id="Group 6">
<g id="Group 9">
<g id="Group">
<g id="Rectangle 13">
<rect x="89.7621" y="29" width="32.6668" height="32.337" rx="7.90459" fill="#372C47"/>
<rect x="90.1317" y="29.3696" width="31.9277" height="31.5978" rx="7.53502" stroke="#979797" stroke-opacity="0.295913" stroke-width="0.73913"/>
</g>
<g id="Combined Shape" filter="url(#filter0_bi)">
<path fill-rule="evenodd" clip-rule="evenodd" d="M113.296 39.1433C111.706 37.6416 109.622 36.8143 107.428 36.8143C102.74 36.8143 98.9261 40.5893 98.9261 45.2294C98.9261 49.8695 102.74 53.645 107.428 53.645C109.776 53.645 111.959 52.7197 113.572 51.0403L114.689 52.0913C112.782 54.0768 110.2 55.1706 107.428 55.1706C101.888 55.1706 97.3844 50.7093 97.3844 45.2289C97.3844 39.7468 101.891 35.2871 107.428 35.2871C110.021 35.2871 112.482 36.2644 114.36 38.0409L113.296 39.1433ZM107.415 52.0816C103.612 52.0816 100.519 49.0184 100.519 45.2538C100.519 41.4893 103.612 38.4261 107.415 38.4261C109.198 38.4261 110.887 39.0975 112.175 40.3177L112.845 39.6239C111.375 38.233 109.448 37.4673 107.415 37.4673C103.078 37.4673 99.5503 40.9609 99.5503 45.2538C99.5503 49.5475 103.079 53.0403 107.415 53.0403C109.588 53.0403 111.61 52.1841 113.105 50.6288L112.401 49.968C111.091 51.3309 109.32 52.0816 107.415 52.0816ZM107.447 39.9844C108.826 39.9844 110.136 40.5043 111.135 41.4481L111.804 40.7552C110.624 39.6388 109.077 39.0246 107.447 39.0246C103.968 39.0246 101.135 41.8274 101.135 45.2726C101.135 48.7167 103.966 51.5205 107.447 51.5205C109.189 51.5205 110.812 50.8331 112.011 49.5853L111.309 48.9248C110.295 49.9802 108.923 50.5617 107.447 50.5617C104.501 50.5617 102.104 48.189 102.104 45.2729C102.104 42.3568 104.501 39.9844 107.447 39.9844Z" fill="white" fill-opacity="0.2"/>
<path fill-rule="evenodd" clip-rule="evenodd" d="M113.296 39.1433C111.706 37.6416 109.622 36.8143 107.428 36.8143C102.74 36.8143 98.9261 40.5893 98.9261 45.2294C98.9261 49.8695 102.74 53.645 107.428 53.645C109.776 53.645 111.959 52.7197 113.572 51.0403L114.689 52.0913C112.782 54.0768 110.2 55.1706 107.428 55.1706C101.888 55.1706 97.3844 50.7093 97.3844 45.2289C97.3844 39.7468 101.891 35.2871 107.428 35.2871C110.021 35.2871 112.482 36.2644 114.36 38.0409L113.296 39.1433ZM107.415 52.0816C103.612 52.0816 100.519 49.0184 100.519 45.2538C100.519 41.4893 103.612 38.4261 107.415 38.4261C109.198 38.4261 110.887 39.0975 112.175 40.3177L112.845 39.6239C111.375 38.233 109.448 37.4673 107.415 37.4673C103.078 37.4673 99.5503 40.9609 99.5503 45.2538C99.5503 49.5475 103.079 53.0403 107.415 53.0403C109.588 53.0403 111.61 52.1841 113.105 50.6288L112.401 49.968C111.091 51.3309 109.32 52.0816 107.415 52.0816ZM107.447 39.9844C108.826 39.9844 110.136 40.5043 111.135 41.4481L111.804 40.7552C110.624 39.6388 109.077 39.0246 107.447 39.0246C103.968 39.0246 101.135 41.8274 101.135 45.2726C101.135 48.7167 103.966 51.5205 107.447 51.5205C109.189 51.5205 110.812 50.8331 112.011 49.5853L111.309 48.9248C110.295 49.9802 108.923 50.5617 107.447 50.5617C104.501 50.5617 102.104 48.189 102.104 45.2729C102.104 42.3568 104.501 39.9844 107.447 39.9844Z" fill="url(#paint0_linear)" fill-opacity="0.75"/>
</g>
</g>
<g id="Slack_Mark">
<g id="Group_2">
<path id="Path" d="M40.6163 49.0542C40.6163 50.875 39.1289 52.3623 37.3081 52.3623C35.4874 52.3623 34 50.875 34 49.0542C34 47.2335 35.4874 45.7461 37.3081 45.7461H40.6163V49.0542Z" fill="#E01E5A"/>
<path id="Path_2" d="M42.2831 49.0542C42.2831 47.2335 43.7705 45.7461 45.5913 45.7461C47.412 45.7461 48.8994 47.2335 48.8994 49.0542V57.3374C48.8994 59.1581 47.412 60.6455 45.5913 60.6455C43.7705 60.6455 42.2831 59.1581 42.2831 57.3374V49.0542Z" fill="#E01E5A"/>
</g>
<g id="Group_3">
<path id="Path_3" d="M45.5913 35.7705C43.7705 35.7705 42.2831 34.2832 42.2831 32.4624C42.2831 30.6417 43.7705 29.1543 45.5913 29.1543C47.412 29.1543 48.8994 30.6417 48.8994 32.4624V35.7705H45.5913Z" fill="#36C5F0"/>
<path id="Path_4" d="M45.5913 37.4375C47.412 37.4375 48.8994 38.9249 48.8994 40.7456C48.8994 42.5664 47.412 44.0538 45.5913 44.0538H37.3081C35.4874 44.0538 34 42.5664 34 40.7456C34 38.9249 35.4874 37.4375 37.3081 37.4375H45.5913Z" fill="#36C5F0"/>
</g>
<g id="Group_4">
<path id="Path_5" d="M58.8751 40.7456C58.8751 38.9249 60.3624 37.4375 62.1832 37.4375C64.0039 37.4375 65.4913 38.9249 65.4913 40.7456C65.4913 42.5664 64.0039 44.0538 62.1832 44.0538H58.8751V40.7456Z" fill="#2EB67D"/>
<path id="Path_6" d="M57.2082 40.7456C57.2082 42.5663 55.7208 44.0537 53.9 44.0537C52.0793 44.0537 50.5919 42.5663 50.5919 40.7456V32.4624C50.5919 30.6417 52.0793 29.1543 53.9 29.1543C55.7208 29.1543 57.2082 30.6417 57.2082 32.4624V40.7456Z" fill="#2EB67D"/>
</g>
<g id="Group_5">
<path id="Path_7" d="M53.9 54.0293C55.7208 54.0293 57.2082 55.5167 57.2082 57.3374C57.2082 59.1582 55.7208 60.6455 53.9 60.6455C52.0793 60.6455 50.5919 59.1582 50.5919 57.3374V54.0293H53.9Z" fill="#ECB22E"/>
<path id="Path_8" d="M53.9 52.3623C52.0793 52.3623 50.5919 50.875 50.5919 49.0542C50.5919 47.2335 52.0793 45.7461 53.9 45.7461H62.1832C64.0039 45.7461 65.4913 47.2335 65.4913 49.0542C65.4913 50.875 64.0039 52.3623 62.1832 52.3623H53.9Z" fill="#ECB22E"/>
</g>
</g>
<g id="Group 5">
<path id="Close" fill-rule="evenodd" clip-rule="evenodd" d="M75.4115 42.3965L77.9054 44.8652L80.3993 42.3965L80.6382 42.633L78.1443 45.1017L80.6382 47.5704L80.3993 47.8069L77.9054 45.3382L75.4115 47.8069L75.1726 47.5704L77.6665 45.1017L75.1726 42.633L75.4115 42.3965Z" fill="#D0FAE8" stroke="#D0FAE8" stroke-width="1.0163" stroke-linejoin="round"/>
</g>
</g>
</g>
<path id="Channels for Slack" d="M61.12 118.6L61.92 111.92L61.6 111.8C59.16 117.32 56.2 120.8 50.32 120.8C42.64 120.8 39.16 114.6 39.16 106.32C39.16 98.12 42.76 91.92 50.8 91.92C55.32 91.92 58.24 94.04 61.44 99.24L61.76 99.16L60.96 93.08C58.96 92.24 55.16 91.12 51.12 91.12C41.68 91.12 35.4 97.8 35.4 106.32C35.4 114.88 41.04 121.6 50.24 121.6C55.44 121.6 59.96 119.44 61.12 118.6ZM66.1181 121H70.8381V120.92C69.9981 119.16 69.9181 117.56 69.9181 114.84V105.68C71.4781 104.08 73.4781 103.32 75.3981 103.32C78.3981 103.32 79.4781 105.4 79.4781 107.84V114.84C79.4781 117.52 79.3581 119.16 78.5981 120.92V121H83.2781V120.92C82.4381 119.24 82.3981 117.64 82.3981 114.84V107.2C82.3981 103.56 80.4781 101.36 76.7981 101.36C74.0781 101.36 71.8381 102.68 69.9181 104.92V89.84L65.2381 91.72V91.8C66.1581 92.6 66.9981 93.76 66.9981 95.8V114.84C66.9981 117.6 66.8781 119.2 66.1181 120.92V121ZM92.73 119.84C90.49 119.84 89.45 118.64 89.45 116.92C89.45 113.72 93.41 112.16 97.13 111.52V118.16C96.21 119.08 94.53 119.84 92.73 119.84ZM100.09 121.48C102.21 121.48 103.25 119.96 103.65 118.92L103.53 118.84C102.93 119.32 102.37 119.68 101.61 119.68C100.49 119.68 100.05 118.96 100.05 117.96V106.2C100.05 103.68 99.05 101.36 94.73 101.36C91.53 101.36 88.93 102.72 87.33 104.64L87.53 104.88C89.09 103.72 91.13 103.12 93.01 103.12C96.21 103.12 97.13 104.8 97.13 106.92V110.92C92.73 111.44 86.61 113.44 86.61 117.84C86.61 120.28 88.49 121.6 91.09 121.6C93.65 121.6 95.81 120.32 97.13 118.84C97.29 120.32 98.21 121.48 100.09 121.48ZM109.98 121V120.92C109.18 119.16 109.1 117.56 109.1 114.8V105.68C110.66 104.08 112.66 103.32 114.54 103.32C117.58 103.32 118.66 105.4 118.66 107.84V114.84C118.66 117.52 118.54 119.16 117.78 120.92V121H122.46V120.92C121.62 119.2 121.58 117.64 121.58 114.8V107.2C121.58 103.56 119.62 101.36 115.94 101.36C113.26 101.36 110.98 102.68 109.1 104.92L108.94 104.88V101.16L104.42 103.28V103.36C105.34 104.16 106.18 105.32 106.18 107.36V114.84C106.18 117.6 106.06 119.2 105.3 120.92V121H109.98ZM131.191 121V120.92C130.391 119.16 130.311 117.56 130.311 114.8V105.68C131.871 104.08 133.871 103.32 135.751 103.32C138.791 103.32 139.871 105.4 139.871 107.84V114.84C139.871 117.52 139.751 119.16 138.991 120.92V121H143.671V120.92C142.831 119.2 142.791 117.64 142.791 114.8V107.2C142.791 103.56 140.831 101.36 137.151 101.36C134.471 101.36 132.191 102.68 130.311 104.92L130.151 104.88V101.16L125.631 103.28V103.36C126.551 104.16 127.391 105.32 127.391 107.36V114.84C127.391 117.6 127.271 119.2 126.511 120.92V121H131.191ZM163.402 116.16L163.202 116.04C161.802 118.08 159.482 119.04 157.042 119.04C152.522 119.04 149.962 115.84 149.962 110.44V109.76C149.962 109.52 149.962 109.28 150.002 109.08H163.322C163.642 105.36 160.642 101.36 156.002 101.36C151.362 101.36 146.922 105.44 146.922 111.8C146.922 117.56 150.442 121.6 155.722 121.6C159.682 121.6 162.402 119.32 163.402 116.16ZM155.842 102.08C158.602 102.08 160.082 103.92 160.082 107.92V108.24L150.082 108.44C150.602 104.6 152.642 102.08 155.842 102.08ZM166.274 120.92V121H170.954V120.92C170.194 119.68 170.074 118.36 170.074 115.84V89.84L165.354 91.76V91.84C166.274 92.6 167.154 93.64 167.154 95.52V115.88C167.154 118.4 166.914 119.68 166.274 120.92ZM186.032 106.04L185.632 102.12C184.552 101.68 182.752 101.36 180.992 101.36C177.632 101.36 174.232 102.68 174.232 106.56C174.232 110.28 177.392 111.6 180.032 112.64C182.712 113.72 184.712 114.68 184.712 117.08C184.712 119.04 183.352 120.88 180.432 120.88C177.712 120.88 175.832 119.36 174.192 115.84L173.912 115.92L174.312 120.48C175.712 121.08 177.512 121.6 179.872 121.6C184.312 121.6 187.112 119.68 187.112 116C187.112 112.12 184.192 110.88 181.432 109.72C178.672 108.68 176.312 107.72 176.312 105.36C176.312 103.44 177.792 102.08 180.152 102.08C182.072 102.08 183.992 102.96 185.752 106.12L186.032 106.04ZM197.309 120.92V121H202.109V120.92C201.509 119.84 201.189 118.48 201.189 115.44V102.68H205.909V101.96H201.189V96.84C201.189 92.72 202.509 90.64 204.109 90.64C205.669 90.64 206.829 92.4 208.029 94.16L208.269 94.08L207.789 90.4C207.349 90.12 206.269 89.84 205.109 89.84C201.149 89.84 198.269 93.12 198.269 98.6V101.96H195.749V102.68H198.269V115.44C198.269 118.48 197.989 119.84 197.309 120.92ZM216.959 121.6C222.439 121.6 226.999 117.04 226.999 111.52C226.999 106 222.439 101.36 216.959 101.36C211.559 101.36 206.919 106 206.919 111.52C206.919 117.04 211.479 121.6 216.959 121.6ZM216.959 120.84C212.439 120.84 210.279 116.48 210.279 111.52C210.279 106.52 212.479 102.12 216.959 102.12C221.439 102.12 223.639 106.52 223.639 111.52C223.639 116.48 221.479 120.84 216.959 120.84ZM230.3 120.92V121H234.98V120.92C234.18 119.16 234.1 117.56 234.1 114.8V106.92C235.18 105.52 236.5 104.44 237.18 104.44C238.1 104.44 239.74 104.88 240.38 105.32H240.5L240.54 101.36C237.82 101.36 235.86 104.12 234.14 106.04L233.94 106V101.16L229.42 103.28V103.36C230.34 104.16 231.18 105.32 231.18 107.36V114.84C231.18 117.6 231.06 119.2 230.3 120.92ZM52.4 138.64L51.6 132.32C49.84 131.64 47.52 131.12 45.12 131.12C40.16 131.12 36.2 133.36 36.2 138.36C36.2 143.52 40.4 145.24 44.44 147.16C48.08 148.76 51.4 150.52 51.4 154.88C51.4 158.28 49.36 160.8 45.08 160.8C40.92 160.8 38.12 158.6 35.72 153.48L35.4 153.6L36.2 160.08C38.6 161 41.4 161.6 44.12 161.6C49.6 161.6 54.4 159.28 54.4 153.4C54.4 148 50.24 145.92 46.2 144.12C42.36 142.4 38.76 140.92 38.76 136.88C38.76 134.16 40.48 131.92 44.16 131.92C47.16 131.92 49.92 133.48 52.08 138.76L52.4 138.64ZM57.7197 160.92V161H62.3997V160.92C61.6397 159.68 61.5197 158.36 61.5197 155.84V129.84L56.7997 131.76V131.84C57.7197 132.6 58.5997 133.64 58.5997 135.52V155.88C58.5997 158.4 58.3597 159.68 57.7197 160.92ZM71.7925 159.84C69.5525 159.84 68.5125 158.64 68.5125 156.92C68.5125 153.72 72.4725 152.16 76.1925 151.52V158.16C75.2725 159.08 73.5925 159.84 71.7925 159.84ZM79.1525 161.48C81.2725 161.48 82.3125 159.96 82.7125 158.92L82.5925 158.84C81.9925 159.32 81.4325 159.68 80.6725 159.68C79.5525 159.68 79.1125 158.96 79.1125 157.96V146.2C79.1125 143.68 78.1125 141.36 73.7925 141.36C70.5925 141.36 67.9925 142.72 66.3925 144.64L66.5925 144.88C68.1525 143.72 70.1925 143.12 72.0725 143.12C75.2725 143.12 76.1925 144.8 76.1925 146.92V150.92C71.7925 151.44 65.6725 153.44 65.6725 157.84C65.6725 160.28 67.5525 161.6 70.1525 161.6C72.7125 161.6 74.8725 160.32 76.1925 158.84C76.3525 160.32 77.2725 161.48 79.1525 161.48ZM99.8422 156.56L99.6022 156.44C98.2822 158.32 95.8422 159.04 93.6022 159.04C89.0822 159.04 86.5622 155.72 86.5622 150.56C86.5622 145.24 89.1222 142.08 93.0022 142.08C95.5622 142.08 97.5622 144.2 99.0422 146.72L99.3622 146.64L98.9622 142.56C98.0422 142.12 96.3222 141.36 93.6422 141.36C88.3622 141.36 83.5622 145.56 83.5622 151.92C83.5622 157.84 87.1222 161.6 92.3622 161.6C96.2022 161.6 98.7622 159.6 99.8422 156.56ZM102.759 160.92V161H107.479V160.92C106.719 159.68 106.559 158.36 106.559 155.84V129.84L101.879 131.76V131.84C102.799 132.6 103.639 133.64 103.639 135.52V155.88C103.639 158.4 103.399 159.68 102.759 160.92ZM114.439 161H118.959V160.92C117.559 160.16 116.639 159.2 115.319 157.32L109.679 149.52L113.079 145.68C114.479 144.04 115.479 143 117.639 142.04V141.96H112.759V142.04C113.839 142.88 113.439 144.16 112.439 145.28L107.239 151.04L114.439 161Z" fill="#D0FAE8"/>
</g>
<defs>
<filter id="filter0_bi" x="92.0126" y="29.9154" width="28.0485" height="30.627" filterUnits="userSpaceOnUse" color-interpolation-filters="sRGB">
<feFlood flood-opacity="0" result="BackgroundImageFix"/>
<feGaussianBlur in="BackgroundImage" stdDeviation="2.68586"/>
<feComposite in2="SourceAlpha" operator="in" result="effect1_backgroundBlur"/>
<feBlend mode="normal" in="SourceGraphic" in2="effect1_backgroundBlur" result="shape"/>
<feColorMatrix in="SourceAlpha" type="matrix" values="0 0 0 0 0 0 0 0 0 0 0 0 0 0 0 0 0 0 127 0" result="hardAlpha"/>
<feOffset/>
<feGaussianBlur stdDeviation="0.5"/>
<feComposite in2="hardAlpha" operator="arithmetic" k2="-1" k3="1"/>
<feColorMatrix type="matrix" values="0 0 0 0 0 0 0 0 0 0 0 0 0 0 0 0 0 0 0.5 0"/>
<feBlend mode="normal" in2="shape" result="effect2_innerShadow"/>
</filter>
<linearGradient id="paint0_linear" x1="88.6453" y1="45.4277" x2="108.705" y2="62.715" gradientUnits="userSpaceOnUse">
<stop stop-color="#23A4AE"/>
<stop offset="0.593027" stop-color="#52C491"/>
<stop offset="1" stop-color="#6DD780"/>
</linearGradient>
</defs>
</svg>
