<svg width="360" height="400" viewBox="0 0 360 400" fill="none" xmlns="http://www.w3.org/2000/svg">
<rect width="360" height="400" rx="20" fill="url(#paint0_linear)"/>
<rect x="87.7622" y="46" width="32.6668" height="32.337" rx="7.90459" fill="#372C47"/>
<rect x="88.1318" y="46.3696" width="31.9277" height="31.5978" rx="7.53502" stroke="#979797" stroke-opacity="0.295913" stroke-width="0.73913"/>
<g filter="url(#filter0_bi)">
<path fill-rule="evenodd" clip-rule="evenodd" d="M111.296 56.1443C109.706 54.6426 107.622 53.8153 105.427 53.8153C100.74 53.8153 96.926 57.5902 96.926 62.2304C96.926 66.8705 100.74 70.646 105.427 70.646C107.776 70.646 109.959 69.7207 111.572 68.0413L112.689 69.0923C110.782 71.0778 108.2 72.1716 105.427 72.1716C99.8884 72.1716 95.3843 67.7102 95.3843 62.2298C95.3843 56.7478 99.8911 52.2881 105.427 52.2881C108.021 52.2881 110.482 53.2654 112.36 55.0418L111.296 56.1443ZM105.415 69.0826C101.612 69.0826 98.5188 66.0194 98.5188 62.2548C98.5188 58.4903 101.612 55.4271 105.415 55.4271C107.197 55.4271 108.887 56.0985 110.175 57.3187L110.845 56.6248C109.375 55.234 107.447 54.4683 105.415 54.4683C101.078 54.4683 97.5502 57.9619 97.5502 62.2548C97.5502 66.5485 101.079 70.0413 105.415 70.0413C107.588 70.0413 109.61 69.185 111.105 67.6298L110.401 66.9689C109.091 68.3318 107.32 69.0826 105.415 69.0826ZM105.447 56.9854C106.826 56.9854 108.135 57.5053 109.135 58.4491L109.804 57.7562C108.624 56.6398 107.077 56.0256 105.447 56.0256C101.968 56.0256 99.1352 58.8283 99.1352 62.2735C99.1352 65.7177 101.966 68.5215 105.447 68.5215C107.189 68.5215 108.812 67.8341 110.011 66.5862L109.309 65.9257C108.295 66.9812 106.923 67.5627 105.447 67.5627C102.501 67.5627 100.104 65.19 100.104 62.2739C100.104 59.3578 102.501 56.9854 105.447 56.9854Z" fill="white" fill-opacity="0.2"/>
<path fill-rule="evenodd" clip-rule="evenodd" d="M111.296 56.1443C109.706 54.6426 107.622 53.8153 105.427 53.8153C100.74 53.8153 96.926 57.5902 96.926 62.2304C96.926 66.8705 100.74 70.646 105.427 70.646C107.776 70.646 109.959 69.7207 111.572 68.0413L112.689 69.0923C110.782 71.0778 108.2 72.1716 105.427 72.1716C99.8884 72.1716 95.3843 67.7102 95.3843 62.2298C95.3843 56.7478 99.8911 52.2881 105.427 52.2881C108.021 52.2881 110.482 53.2654 112.36 55.0418L111.296 56.1443ZM105.415 69.0826C101.612 69.0826 98.5188 66.0194 98.5188 62.2548C98.5188 58.4903 101.612 55.4271 105.415 55.4271C107.197 55.4271 108.887 56.0985 110.175 57.3187L110.845 56.6248C109.375 55.234 107.447 54.4683 105.415 54.4683C101.078 54.4683 97.5502 57.9619 97.5502 62.2548C97.5502 66.5485 101.079 70.0413 105.415 70.0413C107.588 70.0413 109.61 69.185 111.105 67.6298L110.401 66.9689C109.091 68.3318 107.32 69.0826 105.415 69.0826ZM105.447 56.9854C106.826 56.9854 108.135 57.5053 109.135 58.4491L109.804 57.7562C108.624 56.6398 107.077 56.0256 105.447 56.0256C101.968 56.0256 99.1352 58.8283 99.1352 62.2735C99.1352 65.7177 101.966 68.5215 105.447 68.5215C107.189 68.5215 108.812 67.8341 110.011 66.5862L109.309 65.9257C108.295 66.9812 106.923 67.5627 105.447 67.5627C102.501 67.5627 100.104 65.19 100.104 62.2739C100.104 59.3578 102.501 56.9854 105.447 56.9854Z" fill="url(#paint1_linear)" fill-opacity="0.75"/>
</g>
<path d="M38.6163 66.0542C38.6163 67.875 37.1289 69.3623 35.3081 69.3623C33.4874 69.3623 32 67.875 32 66.0542C32 64.2335 33.4874 62.7461 35.3081 62.7461H38.6163V66.0542Z" fill="#E01E5A"/>
<path d="M40.2832 66.0542C40.2832 64.2335 41.7706 62.7461 43.5913 62.7461C45.4121 62.7461 46.8995 64.2335 46.8995 66.0542V74.3374C46.8995 76.1581 45.4121 77.6455 43.5913 77.6455C41.7706 77.6455 40.2832 76.1581 40.2832 74.3374V66.0542Z" fill="#E01E5A"/>
<path d="M43.5913 52.7705C41.7706 52.7705 40.2832 51.2832 40.2832 49.4624C40.2832 47.6417 41.7706 46.1543 43.5913 46.1543C45.4121 46.1543 46.8995 47.6417 46.8995 49.4624V52.7705H43.5913Z" fill="#36C5F0"/>
<path d="M43.5913 54.4375C45.412 54.4375 46.8994 55.9249 46.8994 57.7456C46.8994 59.5664 45.412 61.0538 43.5913 61.0538H35.3081C33.4874 61.0538 32 59.5664 32 57.7456C32 55.9249 33.4874 54.4375 35.3081 54.4375H43.5913Z" fill="#36C5F0"/>
<path d="M56.875 57.7456C56.875 55.9249 58.3624 54.4375 60.1831 54.4375C62.0039 54.4375 63.4913 55.9249 63.4913 57.7456C63.4913 59.5664 62.0039 61.0538 60.1831 61.0538H56.875V57.7456Z" fill="#2EB67D"/>
<path d="M55.208 57.7456C55.208 59.5663 53.7207 61.0537 51.8999 61.0537C50.0792 61.0537 48.5918 59.5663 48.5918 57.7456V49.4624C48.5918 47.6417 50.0792 46.1543 51.8999 46.1543C53.7207 46.1543 55.208 47.6417 55.208 49.4624V57.7456Z" fill="#2EB67D"/>
<path d="M51.8999 71.0293C53.7207 71.0293 55.208 72.5167 55.208 74.3374C55.208 76.1582 53.7207 77.6455 51.8999 77.6455C50.0792 77.6455 48.5918 76.1582 48.5918 74.3374V71.0293H51.8999Z" fill="#ECB22E"/>
<path d="M51.8999 69.3623C50.0792 69.3623 48.5918 67.875 48.5918 66.0542C48.5918 64.2335 50.0792 62.7461 51.8999 62.7461H60.1831C62.0038 62.7461 63.4912 64.2335 63.4912 66.0542C63.4912 67.875 62.0038 69.3623 60.1831 69.3623H51.8999Z" fill="#ECB22E"/>
<path fill-rule="evenodd" clip-rule="evenodd" d="M73.4113 59.3965L75.9052 61.8652L78.399 59.3965L78.638 59.633L76.1441 62.1017L78.638 64.5704L78.399 64.8069L75.9052 62.3382L73.4113 64.8069L73.1724 64.5704L75.6662 62.1017L73.1724 59.633L73.4113 59.3965Z" fill="#D0FAE8" stroke="#D0FAE8" stroke-width="1.0163" stroke-linejoin="round"/>
<path d="M59.12 133.6L59.92 126.92L59.6 126.8C57.16 132.32 54.2 135.8 48.32 135.8C40.64 135.8 37.16 129.6 37.16 121.32C37.16 113.12 40.76 106.92 48.8 106.92C53.32 106.92 56.24 109.04 59.44 114.24L59.76 114.16L58.96 108.08C56.96 107.24 53.16 106.12 49.12 106.12C39.68 106.12 33.4 112.8 33.4 121.32C33.4 129.88 39.04 136.6 48.24 136.6C53.44 136.6 57.96 134.44 59.12 133.6ZM64.1181 136H68.8381V135.92C67.9981 134.16 67.9181 132.56 67.9181 129.84V120.68C69.4781 119.08 71.4781 118.32 73.3981 118.32C76.3981 118.32 77.4781 120.4 77.4781 122.84V129.84C77.4781 132.52 77.3581 134.16 76.5981 135.92V136H81.2781V135.92C80.4381 134.24 80.3981 132.64 80.3981 129.84V122.2C80.3981 118.56 78.4781 116.36 74.7981 116.36C72.0781 116.36 69.8381 117.68 67.9181 119.92V104.84L63.2381 106.72V106.8C64.1581 107.6 64.9981 108.76 64.9981 110.8V129.84C64.9981 132.6 64.8781 134.2 64.1181 135.92V136ZM90.73 134.84C88.49 134.84 87.45 133.64 87.45 131.92C87.45 128.72 91.41 127.16 95.13 126.52V133.16C94.21 134.08 92.53 134.84 90.73 134.84ZM98.09 136.48C100.21 136.48 101.25 134.96 101.65 133.92L101.53 133.84C100.93 134.32 100.37 134.68 99.61 134.68C98.49 134.68 98.05 133.96 98.05 132.96V121.2C98.05 118.68 97.05 116.36 92.73 116.36C89.53 116.36 86.93 117.72 85.33 119.64L85.53 119.88C87.09 118.72 89.13 118.12 91.01 118.12C94.21 118.12 95.13 119.8 95.13 121.92V125.92C90.73 126.44 84.61 128.44 84.61 132.84C84.61 135.28 86.49 136.6 89.09 136.6C91.65 136.6 93.81 135.32 95.13 133.84C95.29 135.32 96.21 136.48 98.09 136.48ZM107.98 136V135.92C107.18 134.16 107.1 132.56 107.1 129.8V120.68C108.66 119.08 110.66 118.32 112.54 118.32C115.58 118.32 116.66 120.4 116.66 122.84V129.84C116.66 132.52 116.54 134.16 115.78 135.92V136H120.46V135.92C119.62 134.2 119.58 132.64 119.58 129.8V122.2C119.58 118.56 117.62 116.36 113.94 116.36C111.26 116.36 108.98 117.68 107.1 119.92L106.94 119.88V116.16L102.42 118.28V118.36C103.34 119.16 104.18 120.32 104.18 122.36V129.84C104.18 132.6 104.06 134.2 103.3 135.92V136H107.98ZM129.191 136V135.92C128.391 134.16 128.311 132.56 128.311 129.8V120.68C129.871 119.08 131.871 118.32 133.751 118.32C136.791 118.32 137.871 120.4 137.871 122.84V129.84C137.871 132.52 137.751 134.16 136.991 135.92V136H141.671V135.92C140.831 134.2 140.791 132.64 140.791 129.8V122.2C140.791 118.56 138.831 116.36 135.151 116.36C132.471 116.36 130.191 117.68 128.311 119.92L128.151 119.88V116.16L123.631 118.28V118.36C124.551 119.16 125.391 120.32 125.391 122.36V129.84C125.391 132.6 125.271 134.2 124.511 135.92V136H129.191ZM161.402 131.16L161.202 131.04C159.802 133.08 157.482 134.04 155.042 134.04C150.522 134.04 147.962 130.84 147.962 125.44V124.76C147.962 124.52 147.962 124.28 148.002 124.08H161.322C161.642 120.36 158.642 116.36 154.002 116.36C149.362 116.36 144.922 120.44 144.922 126.8C144.922 132.56 148.442 136.6 153.722 136.6C157.682 136.6 160.402 134.32 161.402 131.16ZM153.842 117.08C156.602 117.08 158.082 118.92 158.082 122.92V123.24L148.082 123.44C148.602 119.6 150.642 117.08 153.842 117.08ZM164.274 135.92V136H168.954V135.92C168.194 134.68 168.074 133.36 168.074 130.84V104.84L163.354 106.76V106.84C164.274 107.6 165.154 108.64 165.154 110.52V130.88C165.154 133.4 164.914 134.68 164.274 135.92ZM184.032 121.04L183.632 117.12C182.552 116.68 180.752 116.36 178.992 116.36C175.632 116.36 172.232 117.68 172.232 121.56C172.232 125.28 175.392 126.6 178.032 127.64C180.712 128.72 182.712 129.68 182.712 132.08C182.712 134.04 181.352 135.88 178.432 135.88C175.712 135.88 173.832 134.36 172.192 130.84L171.912 130.92L172.312 135.48C173.712 136.08 175.512 136.6 177.872 136.6C182.312 136.6 185.112 134.68 185.112 131C185.112 127.12 182.192 125.88 179.432 124.72C176.672 123.68 174.312 122.72 174.312 120.36C174.312 118.44 175.792 117.08 178.152 117.08C180.072 117.08 181.992 117.96 183.752 121.12L184.032 121.04ZM195.309 135.92V136H200.109V135.92C199.509 134.84 199.189 133.48 199.189 130.44V117.68H203.909V116.96H199.189V111.84C199.189 107.72 200.509 105.64 202.109 105.64C203.669 105.64 204.829 107.4 206.029 109.16L206.269 109.08L205.789 105.4C205.349 105.12 204.269 104.84 203.109 104.84C199.149 104.84 196.269 108.12 196.269 113.6V116.96H193.749V117.68H196.269V130.44C196.269 133.48 195.989 134.84 195.309 135.92ZM214.959 136.6C220.439 136.6 224.999 132.04 224.999 126.52C224.999 121 220.439 116.36 214.959 116.36C209.559 116.36 204.919 121 204.919 126.52C204.919 132.04 209.479 136.6 214.959 136.6ZM214.959 135.84C210.439 135.84 208.279 131.48 208.279 126.52C208.279 121.52 210.479 117.12 214.959 117.12C219.439 117.12 221.639 121.52 221.639 126.52C221.639 131.48 219.479 135.84 214.959 135.84ZM228.3 135.92V136H232.98V135.92C232.18 134.16 232.1 132.56 232.1 129.8V121.92C233.18 120.52 234.5 119.44 235.18 119.44C236.1 119.44 237.74 119.88 238.38 120.32H238.5L238.54 116.36C235.82 116.36 233.86 119.12 232.14 121.04L231.94 121V116.16L227.42 118.28V118.36C228.34 119.16 229.18 120.32 229.18 122.36V129.84C229.18 132.6 229.06 134.2 228.3 135.92ZM50.4 153.64L49.6 147.32C47.84 146.64 45.52 146.12 43.12 146.12C38.16 146.12 34.2 148.36 34.2 153.36C34.2 158.52 38.4 160.24 42.44 162.16C46.08 163.76 49.4 165.52 49.4 169.88C49.4 173.28 47.36 175.8 43.08 175.8C38.92 175.8 36.12 173.6 33.72 168.48L33.4 168.6L34.2 175.08C36.6 176 39.4 176.6 42.12 176.6C47.6 176.6 52.4 174.28 52.4 168.4C52.4 163 48.24 160.92 44.2 159.12C40.36 157.4 36.76 155.92 36.76 151.88C36.76 149.16 38.48 146.92 42.16 146.92C45.16 146.92 47.92 148.48 50.08 153.76L50.4 153.64ZM55.7197 175.92V176H60.3997V175.92C59.6397 174.68 59.5197 173.36 59.5197 170.84V144.84L54.7997 146.76V146.84C55.7197 147.6 56.5997 148.64 56.5997 150.52V170.88C56.5997 173.4 56.3597 174.68 55.7197 175.92ZM69.7925 174.84C67.5525 174.84 66.5125 173.64 66.5125 171.92C66.5125 168.72 70.4725 167.16 74.1925 166.52V173.16C73.2725 174.08 71.5925 174.84 69.7925 174.84ZM77.1525 176.48C79.2725 176.48 80.3125 174.96 80.7125 173.92L80.5925 173.84C79.9925 174.32 79.4325 174.68 78.6725 174.68C77.5525 174.68 77.1125 173.96 77.1125 172.96V161.2C77.1125 158.68 76.1125 156.36 71.7925 156.36C68.5925 156.36 65.9925 157.72 64.3925 159.64L64.5925 159.88C66.1525 158.72 68.1925 158.12 70.0725 158.12C73.2725 158.12 74.1925 159.8 74.1925 161.92V165.92C69.7925 166.44 63.6725 168.44 63.6725 172.84C63.6725 175.28 65.5525 176.6 68.1525 176.6C70.7125 176.6 72.8725 175.32 74.1925 173.84C74.3525 175.32 75.2725 176.48 77.1525 176.48ZM97.8422 171.56L97.6022 171.44C96.2822 173.32 93.8422 174.04 91.6022 174.04C87.0822 174.04 84.5622 170.72 84.5622 165.56C84.5622 160.24 87.1222 157.08 91.0022 157.08C93.5622 157.08 95.5622 159.2 97.0422 161.72L97.3622 161.64L96.9622 157.56C96.0422 157.12 94.3222 156.36 91.6422 156.36C86.3622 156.36 81.5622 160.56 81.5622 166.92C81.5622 172.84 85.1222 176.6 90.3622 176.6C94.2022 176.6 96.7622 174.6 97.8422 171.56ZM100.759 175.92V176H105.479V175.92C104.719 174.68 104.559 173.36 104.559 170.84V144.84L99.8788 146.76V146.84C100.799 147.6 101.639 148.64 101.639 150.52V170.88C101.639 173.4 101.399 174.68 100.759 175.92ZM112.439 176H116.959V175.92C115.559 175.16 114.639 174.2 113.319 172.32L107.679 164.52L111.079 160.68C112.479 159.04 113.479 158 115.639 157.04V156.96H110.759V157.04C111.839 157.88 111.439 159.16 110.439 160.28L105.239 166.04L112.439 176Z" fill="#D0FAE8"/>
<path d="M34.87 333.638V330.558H36.62C37.684 330.558 38.328 331.16 38.328 332.112C38.328 333.05 37.684 333.638 36.62 333.638H34.87ZM36.872 335.122C38.776 335.122 40.036 333.848 40.036 332.098C40.036 330.362 38.776 329.074 36.872 329.074H33.19V339H34.87V335.122H36.872ZM49.3965 339H51.3005L49.0605 334.912C50.4465 334.576 51.3005 333.498 51.3005 332.084C51.3005 330.404 50.1105 329.074 48.1925 329.074H44.3845V339H46.0785V335.08H47.3105L49.3965 339ZM46.0785 333.596V330.558H47.8845C48.9205 330.558 49.5925 331.16 49.5925 332.084C49.5925 332.994 48.9205 333.596 47.8845 333.596H46.0785ZM56.9452 334.03C56.9452 331.636 58.5972 330.446 60.2632 330.446C61.9432 330.446 63.5952 331.636 63.5952 334.03C63.5952 336.424 61.9432 337.614 60.2632 337.614C58.5972 337.614 56.9452 336.424 56.9452 334.03ZM55.2232 334.03C55.2232 337.292 57.6592 339.21 60.2632 339.21C62.8672 339.21 65.3172 337.292 65.3172 334.03C65.3172 330.782 62.8672 328.864 60.2632 328.864C57.6592 328.864 55.2232 330.782 55.2232 334.03ZM68.9808 336.004C68.9808 337.936 70.2128 339.21 72.1588 339.21C74.0488 339.21 75.2808 337.74 75.2808 335.976V329.074H73.6008V336.018C73.6008 337.026 73.0408 337.628 72.1448 337.628C71.2768 337.628 70.6188 337.11 70.6188 335.948V335.024L68.9808 335.36V336.004ZM86.479 339V337.432H82.027V334.8H86.059V333.274H82.027V330.642H86.479V329.074H80.347V339H86.479ZM95.6645 339.21C98.1985 339.21 99.7105 337.6 100.158 335.92L98.6185 335.416C98.2825 336.536 97.3305 337.6 95.6645 337.6C93.9705 337.6 92.3745 336.368 92.3745 334.044C92.3745 331.636 94.0125 330.446 95.6505 330.446C97.3165 330.446 98.2405 331.412 98.5345 332.616L100.116 332.084C99.6685 330.348 98.1705 328.864 95.6505 328.864C93.0745 328.864 90.6525 330.81 90.6525 334.044C90.6525 337.278 92.9905 339.21 95.6645 339.21ZM111.694 330.656V329.074H103.56V330.656H106.78V339H108.46V330.656H111.694ZM114.91 337.964C114.91 338.58 115.414 339.084 116.044 339.084C116.66 339.084 117.178 338.58 117.178 337.964C117.178 337.334 116.66 336.83 116.044 336.83C115.414 336.83 114.91 337.334 114.91 337.964ZM114.896 333.232C114.896 333.848 115.4 334.352 116.03 334.352C116.646 334.352 117.164 333.848 117.164 333.232C117.164 332.602 116.646 332.098 116.03 332.098C115.4 332.098 114.896 332.602 114.896 333.232ZM130.084 339V334.996H134.116V333.442H130.084V330.656H134.578V329.074H128.404V339H130.084ZM144.009 339H145.913L143.673 334.912C145.059 334.576 145.913 333.498 145.913 332.084C145.913 330.404 144.723 329.074 142.805 329.074H138.997V339H140.691V335.08H141.923L144.009 339ZM140.691 333.596V330.558H142.497C143.533 330.558 144.205 331.16 144.205 332.084C144.205 332.994 143.533 333.596 142.497 333.596H140.691ZM156.638 339V337.432H152.186V334.8H156.218V333.274H152.186V330.642H156.638V329.074H150.506V339H156.638ZM167.586 339V337.432H163.134V334.8H167.166V333.274H163.134V330.642H167.586V329.074H161.454V339H167.586ZM178.632 339V337.404H174.082V329.074H172.402V339H178.632ZM189.936 339H191.77L187.906 329.074H185.96L182.096 339H183.874L184.798 336.508H188.998L189.936 339ZM186.898 330.894L188.41 334.954H185.386L186.898 330.894ZM204.229 339V329.074H202.549V336.116L198.041 329.074H195.899V339H197.579V331.482L202.479 339H204.229ZM213.814 339.21C216.348 339.21 217.86 337.6 218.308 335.92L216.768 335.416C216.432 336.536 215.48 337.6 213.814 337.6C212.12 337.6 210.524 336.368 210.524 334.044C210.524 331.636 212.162 330.446 213.8 330.446C215.466 330.446 216.39 331.412 216.684 332.616L218.266 332.084C217.818 330.348 216.32 328.864 213.8 328.864C211.224 328.864 208.802 330.81 208.802 334.044C208.802 337.278 211.14 339.21 213.814 339.21ZM228.945 339V337.432H224.493V334.8H228.525V333.274H224.493V330.642H228.945V329.074H222.813V339H228.945Z" fill="#D0FAE8" fill-opacity="0.5"/>
<path d="M76.344 308H80.04L76.392 301.04C78.624 300.392 80.016 298.592 80.016 296.216C80.016 293.264 77.904 290.984 74.592 290.984H67.944V308H71.28V301.448H73.008L76.344 308ZM71.28 298.592V293.864H73.968C75.648 293.864 76.632 294.8 76.632 296.24C76.632 297.632 75.648 298.592 73.968 298.592H71.28ZM83.7439 300.752C83.8159 299.672 84.7279 298.424 86.3839 298.424C88.2079 298.424 88.9759 299.576 89.0239 300.752H83.7439ZM89.3359 303.824C88.9519 304.88 88.1359 305.624 86.6479 305.624C85.0639 305.624 83.7439 304.496 83.6719 302.936H92.1199C92.1199 302.888 92.1679 302.408 92.1679 301.952C92.1679 298.16 89.9839 295.832 86.3359 295.832C83.3119 295.832 80.5279 298.28 80.5279 302.048C80.5279 306.032 83.3839 308.36 86.6239 308.36C89.5279 308.36 91.3999 306.656 91.9999 304.616L89.3359 303.824ZM96.9135 308V301.088C96.9135 299.792 97.7295 298.76 99.1215 298.76C100.562 298.76 101.21 299.72 101.21 300.992V308H104.378V301.088C104.378 299.816 105.194 298.76 106.562 298.76C108.026 298.76 108.65 299.72 108.65 300.992V308H111.746V300.344C111.746 297.176 109.658 295.856 107.474 295.856C105.914 295.856 104.666 296.384 103.73 297.824C103.13 296.552 101.834 295.856 100.226 295.856C98.9295 295.856 97.4175 296.48 96.7695 297.632V296.192H93.7215V308H96.9135ZM119.323 305.456C117.763 305.456 116.323 304.304 116.323 302.096C116.323 299.864 117.763 298.736 119.323 298.736C120.883 298.736 122.323 299.864 122.323 302.096C122.323 304.328 120.883 305.456 119.323 305.456ZM119.323 295.832C115.795 295.832 113.131 298.448 113.131 302.096C113.131 305.72 115.795 308.36 119.323 308.36C122.851 308.36 125.515 305.72 125.515 302.096C125.515 298.448 122.851 295.832 119.323 295.832ZM130.964 292.664H128.084V294.32C128.084 295.376 127.508 296.192 126.26 296.192H125.66V299.024H127.796V304.52C127.796 306.8 129.236 308.168 131.54 308.168C132.476 308.168 133.052 308 133.34 307.88V305.24C133.172 305.288 132.74 305.336 132.356 305.336C131.444 305.336 130.964 305 130.964 303.968V299.024H133.34V296.192H130.964V292.664ZM137.302 300.752C137.374 299.672 138.286 298.424 139.942 298.424C141.766 298.424 142.534 299.576 142.582 300.752H137.302ZM142.894 303.824C142.51 304.88 141.694 305.624 140.206 305.624C138.622 305.624 137.302 304.496 137.23 302.936H145.678C145.678 302.888 145.726 302.408 145.726 301.952C145.726 298.16 143.542 295.832 139.894 295.832C136.87 295.832 134.086 298.28 134.086 302.048C134.086 306.032 136.942 308.36 140.182 308.36C143.086 308.36 144.958 306.656 145.558 304.616L142.894 303.824Z" fill="#D0FAE8"/>
<path fill-rule="evenodd" clip-rule="evenodd" d="M50 295C50 299.6 44.73 307.69 43 310C43 310 41.5 312 41 312C40.5 312 39 310 39 310C37.27 307.69 32 299.6 32 295C32 290.029 36.0294 286 41 286C45.9706 286 50 290.029 50 295ZM41 291C38.7909 291 37 292.791 37 295C37 297.209 38.7909 299 41 299C43.2091 299 45 297.209 45 295C45 292.791 43.2091 291 41 291Z" fill="#D0FAE8"/>
<defs>
<filter id="filter0_bi" x="90.0126" y="46.9164" width="28.0485" height="30.627" filterUnits="userSpaceOnUse" color-interpolation-filters="sRGB">
<feFlood flood-opacity="0" result="BackgroundImageFix"/>
<feGaussianBlur in="BackgroundImage" stdDeviation="2.68586"/>
<feComposite in2="SourceAlpha" operator="in" result="effect1_backgroundBlur"/>
<feBlend mode="normal" in="SourceGraphic" in2="effect1_backgroundBlur" result="shape"/>
<feColorMatrix in="SourceAlpha" type="matrix" values="0 0 0 0 0 0 0 0 0 0 0 0 0 0 0 0 0 0 127 0" result="hardAlpha"/>
<feOffset/>
<feGaussianBlur stdDeviation="0.5"/>
<feComposite in2="hardAlpha" operator="arithmetic" k2="-1" k3="1"/>
<feColorMatrix type="matrix" values="0 0 0 0 0 0 0 0 0 0 0 0 0 0 0 0 0 0 0.5 0"/>
<feBlend mode="normal" in2="shape" result="effect2_innerShadow"/>
</filter>
<linearGradient id="paint0_linear" x1="0" y1="0" x2="450.336" y2="218.992" gradientUnits="userSpaceOnUse">
<stop stop-color="#A08DB7"/>
<stop offset="1" stop-color="#624F79"/>
</linearGradient>
<linearGradient id="paint1_linear" x1="86.6452" y1="62.4287" x2="106.705" y2="79.716" gradientUnits="userSpaceOnUse">
<stop stop-color="#23A4AE"/>
<stop offset="0.593027" stop-color="#52C491"/>
<stop offset="1" stop-color="#6DD780"/>
</linearGradient>
</defs>
</svg>
