<svg width="360" height="400" viewBox="0 0 360 400" fill="none" xmlns="http://www.w3.org/2000/svg">
<rect width="360" height="400" rx="20" fill="url(#paint0_linear)"/>
<path d="M36.304 333.526V330.992H37.592C38.432 330.992 39.006 331.468 39.006 332.266C39.006 333.036 38.432 333.526 37.592 333.526H36.304ZM37.816 335.43C39.832 335.43 41.218 334.128 41.218 332.252C41.218 330.404 39.832 329.074 37.816 329.074H34.078V339H36.29V335.43H37.816ZM50.1696 339H52.6056L50.5896 334.982C51.8076 334.548 52.5496 333.526 52.5496 332.182C52.5496 330.418 51.2896 329.074 49.3296 329.074H45.3956V339H47.6076V335.304H48.3916L50.1696 339ZM47.6076 333.4V330.992H48.9096C49.8196 330.992 50.3096 331.454 50.3096 332.196C50.3096 332.896 49.8196 333.4 48.9096 333.4H47.6076ZM58.6402 334.03C58.6402 331.958 60.1242 331.02 61.5102 331.02C62.8822 331.02 64.3662 331.958 64.3662 334.03C64.3662 336.102 62.8822 337.026 61.5102 337.026C60.1242 337.026 58.6402 336.102 58.6402 334.03ZM56.3442 334.044C56.3442 337.18 58.7102 339.21 61.5102 339.21C64.2962 339.21 66.6622 337.18 66.6622 334.044C66.6622 330.894 64.2962 328.864 61.5102 328.864C58.7102 328.864 56.3442 330.894 56.3442 334.044ZM70.2405 335.934C70.2405 337.908 71.5985 339.21 73.5585 339.21C75.5325 339.21 76.9185 337.698 76.9185 335.892V329.074H74.7065V335.836C74.7065 336.578 74.2725 337.11 73.5445 337.11C72.9005 337.11 72.3405 336.704 72.3405 335.822V334.912L70.2405 335.276V335.934ZM88.0956 339V336.9H84.0076V334.996H87.7036V333.05H84.0076V331.16H88.0816V329.074H81.7956V339H88.0956ZM97.322 339.21C100.402 339.21 101.718 337.11 102.04 335.738L99.926 335.136C99.73 335.85 99.044 336.998 97.322 336.998C95.838 336.998 94.466 335.92 94.466 334.058C94.466 331.972 95.964 331.02 97.294 331.02C99.044 331.02 99.674 332.182 99.828 332.868L101.914 332.21C101.592 330.782 100.276 328.864 97.294 328.864C94.522 328.864 92.17 330.964 92.17 334.058C92.17 337.152 94.466 339.21 97.322 339.21ZM113.74 331.188V329.074H105.41V331.188H108.462V339H110.674V331.188H113.74ZM117.001 337.726C117.001 338.468 117.631 339.126 118.401 339.126C119.157 339.126 119.801 338.468 119.801 337.726C119.801 336.956 119.157 336.326 118.401 336.326C117.631 336.326 117.001 336.956 117.001 337.726ZM117.001 333.316C117.001 334.058 117.631 334.716 118.401 334.716C119.157 334.716 119.801 334.058 119.801 333.316C119.801 332.546 119.157 331.916 118.401 331.916C117.631 331.916 117.001 332.546 117.001 333.316ZM132.504 334.03C132.504 331.958 133.988 331.02 135.374 331.02C136.746 331.02 138.23 331.958 138.23 334.03C138.23 336.102 136.746 337.026 135.374 337.026C133.988 337.026 132.504 336.102 132.504 334.03ZM130.208 334.044C130.208 337.18 132.574 339.21 135.374 339.21C138.16 339.21 140.526 337.18 140.526 334.044C140.526 330.894 138.16 328.864 135.374 328.864C132.574 328.864 130.208 330.894 130.208 334.044ZM153.526 339V329.074H151.314V335.108L147.59 329.074H144.902V339H147.1V332.476L151.188 339H153.526ZM167.632 339V333.694H162.578V335.57H165.56C165.434 336.13 164.748 337.194 163.11 337.194C161.5 337.194 160.128 336.116 160.128 334.044C160.128 331.832 161.71 330.936 163.054 330.936C164.706 330.936 165.364 332.056 165.518 332.672L167.646 331.93C167.212 330.544 165.896 328.864 163.054 328.864C160.254 328.864 157.888 330.922 157.888 334.044C157.888 337.18 160.156 339.21 162.914 339.21C164.328 339.21 165.266 338.622 165.7 337.992L165.84 339H167.632ZM174.017 334.03C174.017 331.958 175.501 331.02 176.887 331.02C178.259 331.02 179.743 331.958 179.743 334.03C179.743 336.102 178.259 337.026 176.887 337.026C175.501 337.026 174.017 336.102 174.017 334.03ZM171.721 334.044C171.721 337.18 174.087 339.21 176.887 339.21C179.673 339.21 182.039 337.18 182.039 334.044C182.039 330.894 179.673 328.864 176.887 328.864C174.087 328.864 171.721 330.894 171.721 334.044ZM188.655 339V329.074H186.415V339H188.655ZM202.228 339V329.074H200.016V335.108L196.292 329.074H193.604V339H195.802V332.476L199.89 339H202.228ZM216.334 339V333.694H211.28V335.57H214.262C214.136 336.13 213.45 337.194 211.812 337.194C210.202 337.194 208.83 336.116 208.83 334.044C208.83 331.832 210.412 330.936 211.756 330.936C213.408 330.936 214.066 332.056 214.22 332.672L216.348 331.93C215.914 330.544 214.598 328.864 211.756 328.864C208.956 328.864 206.59 330.922 206.59 334.044C206.59 337.18 208.858 339.21 211.616 339.21C213.03 339.21 213.968 338.622 214.402 337.992L214.542 339H216.334ZM229.006 341.268V327.478H227.242V341.268H229.006ZM41.596 347.188V345.074H33.266V347.188H36.318V355H38.53V347.188H41.596ZM52.0374 355V352.9H47.9494V350.996H51.6454V349.05H47.9494V347.16H52.0234V345.074H45.7374V355H52.0374ZM63.3495 355H65.7575L62.0615 345.074H59.4995L55.7615 355H58.0855L58.7995 352.984H62.6355L63.3495 355ZM60.7455 347.538L61.9355 350.968H59.5275L60.7455 347.538ZM81.0227 355V345.074H77.9847L75.3947 351.78L72.6647 345.074H69.7807V355H71.8807V348.504L74.4707 355H76.2627L78.8527 348.42V355H81.0227ZM99.0565 347.51C98.8465 346.348 97.9085 344.864 95.4305 344.864C93.5265 344.864 91.8745 346.18 91.8745 348.056C91.8745 349.526 92.8965 350.646 94.5765 350.968L95.9345 351.22C96.5925 351.346 96.9985 351.71 96.9985 352.214C96.9985 352.83 96.4665 353.25 95.5985 353.25C94.2405 353.25 93.6245 352.452 93.5405 351.542L91.5105 352.032C91.6505 353.432 92.8265 355.21 95.5705 355.21C97.9365 355.21 99.2385 353.628 99.2385 352.074C99.2385 350.66 98.2585 349.442 96.3685 349.092L95.0385 348.84C94.3525 348.714 94.0585 348.364 94.0585 347.888C94.0585 347.342 94.5905 346.824 95.4165 346.824C96.6205 346.824 96.9985 347.608 97.0685 348.07L99.0565 347.51ZM105.796 355V345.074H103.556V355H105.796ZM118.052 355V352.886H113.096L117.996 347.118V345.074H110.38V347.188H114.958L110.17 352.872V355H118.052ZM128.854 355V352.9H124.766V350.996H128.462V349.05H124.766V347.16H128.84V345.074H122.554V355H128.854ZM133.292 353.726C133.292 354.468 133.922 355.126 134.692 355.126C135.448 355.126 136.092 354.468 136.092 353.726C136.092 352.956 135.448 352.326 134.692 352.326C133.922 352.326 133.292 352.956 133.292 353.726ZM133.292 349.316C133.292 350.058 133.922 350.716 134.692 350.716C135.448 350.716 136.092 350.058 136.092 349.316C136.092 348.546 135.448 347.916 134.692 347.916C133.922 347.916 133.292 348.546 133.292 349.316ZM146.429 353.11H150.629V355H152.841V353.11H154.297V351.262H152.841V345.914H150.209L146.429 350.87V353.11ZM150.629 351.262H148.347L150.629 348.266V351.262ZM166.862 349.526V346.992H168.15C168.99 346.992 169.564 347.468 169.564 348.266C169.564 349.036 168.99 349.526 168.15 349.526H166.862ZM168.374 351.43C170.39 351.43 171.776 350.128 171.776 348.252C171.776 346.404 170.39 345.074 168.374 345.074H164.636V355H166.848V351.43H168.374ZM182.254 355V352.9H178.166V350.996H181.862V349.05H178.166V347.16H182.24V345.074H175.954V355H182.254ZM188.624 350.03C188.624 347.958 190.108 347.02 191.494 347.02C192.866 347.02 194.35 347.958 194.35 350.03C194.35 352.102 192.866 353.026 191.494 353.026C190.108 353.026 188.624 352.102 188.624 350.03ZM186.328 350.044C186.328 353.18 188.694 355.21 191.494 355.21C194.28 355.21 196.646 353.18 196.646 350.044C196.646 346.894 194.28 344.864 191.494 344.864C188.694 344.864 186.328 346.894 186.328 350.044ZM203.249 349.526V346.992H204.537C205.377 346.992 205.951 347.468 205.951 348.266C205.951 349.036 205.377 349.526 204.537 349.526H203.249ZM204.761 351.43C206.777 351.43 208.163 350.128 208.163 348.252C208.163 346.404 206.777 345.074 204.761 345.074H201.023V355H203.235V351.43H204.761ZM218.836 355V352.886H214.552V345.074H212.34V355H218.836ZM229.37 355V352.9H225.282V350.996H228.978V349.05H225.282V347.16H229.356V345.074H223.07V355H229.37Z" fill="#222222" fill-opacity="0.5"/>
<path d="M83.464 308V290.984H80.152V302.24L73.072 290.984H68.944V308H72.256V295.928L79.984 308H83.464ZM88.4001 300.752C88.4721 299.672 89.3841 298.424 91.0401 298.424C92.8641 298.424 93.6321 299.576 93.6801 300.752H88.4001ZM93.9921 303.824C93.6081 304.88 92.7921 305.624 91.3041 305.624C89.7201 305.624 88.4001 304.496 88.3281 302.936H96.7761C96.7761 302.888 96.8241 302.408 96.8241 301.952C96.8241 298.16 94.6401 295.832 90.9921 295.832C87.9681 295.832 85.1841 298.28 85.1841 302.048C85.1841 306.032 88.0401 308.36 91.2801 308.36C94.1841 308.36 96.0561 306.656 96.6561 304.616L93.9921 303.824ZM104.886 296.192L102.318 303.776L100.134 296.192H96.7742L100.542 308H103.782L106.494 299.936L109.254 308H112.446L116.142 296.192H112.974L110.79 303.8L108.246 296.192H104.886ZM126.609 300.848V308H129.921V300.848L135.921 290.984H132.201L128.385 297.728L124.569 290.984H120.681L126.609 300.848ZM139.849 305.456C138.289 305.456 136.849 304.304 136.849 302.096C136.849 299.864 138.289 298.736 139.849 298.736C141.409 298.736 142.849 299.864 142.849 302.096C142.849 304.328 141.409 305.456 139.849 305.456ZM139.849 295.832C136.321 295.832 133.657 298.448 133.657 302.096C133.657 305.72 136.321 308.36 139.849 308.36C143.377 308.36 146.041 305.72 146.041 302.096C146.041 298.448 143.377 295.832 139.849 295.832ZM154.8 296.144C154.56 296.12 154.32 296.096 154.056 296.096C153.048 296.096 151.416 296.384 150.696 297.944V296.192H147.6V308H150.792V302.6C150.792 300.056 152.208 299.264 153.84 299.264C154.128 299.264 154.44 299.288 154.8 299.36V296.144ZM167.534 296.192H163.358L159.278 300.584V290.624H156.086V308H159.278V304.88L160.598 303.488L163.718 308H167.63L162.806 301.16L167.534 296.192ZM168.151 306.08C168.151 307.232 168.967 308.072 170.143 308.072C170.407 308.072 170.671 308 170.767 307.928C170.719 309.248 169.567 310.28 168.487 310.52V312.056C170.263 311.84 172.711 310.352 172.711 306.824C172.711 305.264 171.823 304.064 170.335 304.064C169.087 304.064 168.151 304.928 168.151 306.08ZM194.637 308V290.984H191.325V302.24L184.245 290.984H180.117V308H183.429V295.928L191.157 308H194.637ZM201.78 300.848V308H205.092V300.848L211.092 290.984H207.372L203.556 297.728L199.74 290.984H195.852L201.78 300.848Z" fill="#222222"/>
<path fill-rule="evenodd" clip-rule="evenodd" d="M51 295C51 299.6 45.73 307.69 44 310C44 310 42.5 312 42 312C41.5 312 40 310 40 310C38.27 307.69 33 299.6 33 295C33 290.029 37.0294 286 42 286C46.9706 286 51 290.029 51 295ZM42 291C39.7909 291 38 292.791 38 295C38 297.209 39.7909 299 42 299C44.2091 299 46 297.209 46 295C46 292.791 44.2091 291 42 291Z" fill="#222222"/>
<path d="M102.291 55.666L111.774 50.0907C112.275 49.7983 112.585 49.2579 112.585 48.6794V45.5325C112.585 44.8904 112.066 44.3691 111.426 44.3691H102.158C101.519 44.3691 101 44.8904 101 45.5325V54.9286C101 55.5897 101.715 56.003 102.291 55.666ZM128.506 61.2159L116.927 54.5026C116.029 53.9813 114.921 53.9813 114.022 54.509L102.437 61.2795C101.551 61.8008 101 62.7544 101 63.7906V75.2846C101 75.9267 101.519 76.448 102.158 76.448H111.42C112.059 76.448 112.578 75.9267 112.578 75.2846V67.8593C112.578 67.2935 113.034 66.8294 113.604 66.8294H117.345C117.909 66.8294 118.371 67.2871 118.371 67.8593V75.2909C118.371 75.933 118.89 76.4543 119.529 76.4543H128.791C129.43 76.4543 129.949 75.933 129.949 75.2909V63.7334C129.949 62.6972 129.399 61.7372 128.506 61.2159ZM128.791 44.3691H119.529C118.89 44.3691 118.371 44.8904 118.371 45.5325V48.673C118.371 49.2579 118.681 49.7983 119.181 50.0907L128.664 55.6215C129.234 55.9521 129.949 55.5389 129.949 54.8777V45.5325C129.949 44.8904 129.43 44.3691 128.791 44.3691Z" fill="#222222"/>
<path fill-rule="evenodd" clip-rule="evenodd" d="M33 60.5001C33 50.8352 40.8352 43 50.4999 43L50.4997 43.0008C60.1657 43.0008 68 50.8358 68 60.5001C68 70.1655 60.1657 78 50.4999 78C40.8352 78 33 70.1655 33 60.5001ZM56.7162 68.2302C57.2348 68.5477 57.9136 68.3837 58.2298 67.8664C58.5481 67.3491 58.3837 66.6741 57.8651 66.3566C53.2117 63.52 47.4432 62.8595 40.7184 64.3926C40.1247 64.5272 39.7552 65.116 39.8907 65.7069C40.0257 66.2977 40.6159 66.6678 41.2081 66.5333C47.3532 65.1328 52.5712 65.7048 56.7162 68.2302ZM60.9354 63.5855C60.5405 64.2644 59.7006 64.4785 59.0591 64.0613C54.3559 61.006 47.1866 60.1213 41.6237 61.9056C40.9022 62.1359 40.1402 61.7063 39.9212 60.9453C39.7039 60.1829 40.1108 59.3793 40.831 59.1475C47.1854 57.1102 55.0851 58.0971 60.4862 61.6041C61.1276 62.0213 61.3303 62.9088 60.9354 63.5857V63.5855ZM40.5844 56.6386C45.9241 55.0823 55.1511 55.3756 60.7438 58.5656H60.7446C61.5133 59.0053 62.5121 58.7612 62.968 58.0205C63.4259 57.2809 63.1731 56.3244 62.4002 55.8848C55.9613 52.2141 45.7718 51.8689 39.6423 53.6558C38.7842 53.9061 38.3006 54.7763 38.5604 55.6001C38.8203 56.4235 39.727 56.8883 40.5844 56.6386Z" fill="#222222"/>
<path fill-rule="evenodd" clip-rule="evenodd" d="M80.9059 56.6172L84.0981 59.8093L87.2902 56.6172L87.5961 56.923L84.4039 60.1152L87.5961 63.3073L87.2902 63.6132L84.0981 60.421L80.9059 63.6132L80.6001 63.3073L83.7922 60.1152L80.6001 56.923L80.9059 56.6172Z" fill="#222222" stroke="#222222" stroke-width="1.05"/>
<path d="M51.4 113.64L50.6 107.32C48.84 106.64 46.52 106.12 44.12 106.12C39.16 106.12 35.2 108.36 35.2 113.36C35.2 118.52 39.4 120.24 43.44 122.16C47.08 123.76 50.4 125.52 50.4 129.88C50.4 133.28 48.36 135.8 44.08 135.8C39.92 135.8 37.12 133.6 34.72 128.48L34.4 128.6L35.2 135.08C37.6 136 40.4 136.6 43.12 136.6C48.6 136.6 53.4 134.28 53.4 128.4C53.4 123 49.24 120.92 45.2 119.12C41.36 117.4 37.76 115.92 37.76 111.88C37.76 109.16 39.48 106.92 43.16 106.92C46.16 106.92 48.92 108.48 51.08 113.76L51.4 113.64ZM65.7997 135.88C63.6797 135.88 61.6797 134.76 60.5997 132.16V120.6C61.5197 119.44 63.3597 118.28 65.7597 118.28C69.4397 118.28 72.2397 121.04 72.2397 126.68C72.2397 132.32 69.6397 135.88 65.7997 135.88ZM56.7997 145H61.4797V144.92C60.6797 143.16 60.5997 141.56 60.5997 138.84V135.4C61.7597 136.08 63.3197 136.6 65.5197 136.6C72.1997 136.6 75.4397 131.64 75.4397 126.08C75.4397 120.32 72.1197 116.36 67.3597 116.36C64.4797 116.36 62.1197 117.72 60.7197 119.76L60.4397 119.72V116.16L55.9197 118.28V118.36C56.8397 119.16 57.6797 120.32 57.6797 122.36V138.88C57.6797 141.6 57.5597 143.2 56.7997 144.92V145ZM88.0681 136.6C93.5481 136.6 98.1081 132.04 98.1081 126.52C98.1081 121 93.5481 116.36 88.0681 116.36C82.6681 116.36 78.0281 121 78.0281 126.52C78.0281 132.04 82.5881 136.6 88.0681 136.6ZM88.0681 135.84C83.5481 135.84 81.3881 131.48 81.3881 126.52C81.3881 121.52 83.5881 117.12 88.0681 117.12C92.5481 117.12 94.7481 121.52 94.7481 126.52C94.7481 131.48 92.5881 135.84 88.0681 135.84ZM106.494 136.6C108.734 136.6 110.374 135.48 111.174 134.4L111.094 134.24C110.654 134.52 109.494 135 108.054 135C106.014 135 105.174 133.96 105.174 132V117.68H110.774V116.96H105.174V113.32H104.974L100.094 117.52V117.68H102.254V132C102.254 135.6 104.374 136.6 106.494 136.6ZM118.264 109.64C118.264 108.56 117.384 107.64 116.304 107.64C115.224 107.64 114.304 108.56 114.304 109.64C114.304 110.76 115.224 111.64 116.304 111.64C117.384 111.64 118.264 110.76 118.264 109.64ZM114.104 135.92V136H118.784V135.92C117.984 134.16 117.904 132.56 117.904 129.8V116.16L113.224 118.28V118.44C114.144 119.24 114.984 120.44 114.984 122.4V129.84C114.984 132.6 114.744 134.16 114.104 135.92ZM123.145 135.92V136H127.945V135.92C127.345 134.84 127.025 133.48 127.025 130.44V117.68H131.745V116.96H127.025V111.84C127.025 107.72 128.345 105.64 129.945 105.64C131.505 105.64 132.665 107.4 133.865 109.16L134.105 109.08L133.625 105.4C133.185 105.12 132.105 104.84 130.945 104.84C126.985 104.84 124.105 108.12 124.105 113.6V116.96H121.585V117.68H124.105V130.44C124.105 133.48 123.825 134.84 123.145 135.92ZM133.496 142.04L133.576 145C136.336 144.68 138.376 143.28 140.176 138.64L146.776 121.56C147.616 119.2 148.216 118.2 149.496 117.04V116.96H145.296V117.04C146.296 117.84 146.656 119.52 145.816 121.8L141.936 132.12L138.016 121.64C137.096 119.24 137.376 117.8 138.056 117.04V116.96H132.416V117.04C133.416 117.92 133.856 118.96 134.816 121.4L140.416 136.12L139.856 137.6C138.376 141.44 134.936 142.04 133.496 142.04ZM157.892 135.92V136H164.372V135.92C163.052 133.84 162.772 132.76 162.772 130V121.28H178.252V130C178.252 132.76 177.972 133.84 176.652 135.92V136H183.132V135.92C181.812 133.84 181.532 132.76 181.532 130V112.72C181.532 109.96 181.812 108.88 183.132 106.8V106.72H176.652V106.8C177.932 108.84 178.252 110 178.252 112.72V120.48H162.772V112.72C162.772 109.96 163.052 108.88 164.372 106.8V106.72H157.892V106.8C159.132 108.8 159.492 110.04 159.492 112.72V130C159.492 132.72 159.172 133.92 157.892 135.92ZM196.232 136.6C201.712 136.6 206.272 132.04 206.272 126.52C206.272 121 201.712 116.36 196.232 116.36C190.832 116.36 186.192 121 186.192 126.52C186.192 132.04 190.752 136.6 196.232 136.6ZM196.232 135.84C191.712 135.84 189.552 131.48 189.552 126.52C189.552 121.52 191.752 117.12 196.232 117.12C200.712 117.12 202.912 121.52 202.912 126.52C202.912 131.48 200.752 135.84 196.232 135.84ZM214.293 136V135.92C213.493 134.2 213.413 132.6 213.413 129.88V120.76C214.573 119.28 216.213 118.32 218.173 118.32C220.853 118.32 221.453 120.16 221.453 122.4V129.92C221.453 132.52 221.333 134.2 220.573 135.92V136H225.293V135.92C224.453 134.2 224.373 132.68 224.373 129.88V120.8C225.613 119.32 227.213 118.32 229.173 118.32C231.853 118.32 232.453 120.16 232.453 122.4V129.92C232.453 132.52 232.333 134.2 231.573 135.92V136H236.253V135.92C235.413 134.24 235.373 132.64 235.373 129.88V121.76C235.373 118.4 234.093 116.36 230.693 116.36C228.013 116.36 225.933 117.72 224.373 119.96L224.253 119.92C223.813 117.68 222.453 116.36 219.693 116.36C217.013 116.36 214.893 117.68 213.413 119.92L213.253 119.88V116.12L208.693 118.24V118.32C209.653 119.16 210.493 120.32 210.493 122.4V129.92C210.493 132.68 210.333 134.2 209.573 135.92V136H214.293ZM255.956 131.16L255.756 131.04C254.356 133.08 252.036 134.04 249.596 134.04C245.076 134.04 242.516 130.84 242.516 125.44V124.76C242.516 124.52 242.516 124.28 242.556 124.08H255.876C256.196 120.36 253.196 116.36 248.556 116.36C243.916 116.36 239.476 120.44 239.476 126.8C239.476 132.56 242.996 136.6 248.276 136.6C252.236 136.6 254.956 134.32 255.956 131.16ZM248.396 117.08C251.156 117.08 252.636 118.92 252.636 122.92V123.24L242.636 123.44C243.156 119.6 245.196 117.08 248.396 117.08Z" fill="#222222"/>
<defs>
<linearGradient id="paint0_linear" x1="0" y1="0" x2="450.336" y2="218.992" gradientUnits="userSpaceOnUse">
<stop stop-color="#00FFA5"/>
<stop offset="1" stop-color="#529977"/>
</linearGradient>
</defs>
</svg>
