<?xml version="1.0" encoding="UTF-8"?>
<svg width="343px" height="222px" viewBox="0 0 343 222" version="1.1" xmlns="http://www.w3.org/2000/svg" xmlns:xlink="http://www.w3.org/1999/xlink">
    <!-- Generator: Sketch 64 (93537) - https://sketch.com -->
    <title>Group 25 Copy 11</title>
    <desc>Created with Sketch.</desc>
    <defs>
        <rect id="path-1" x="0" y="0" width="343" height="222" rx="20"></rect>
    </defs>
    <g id="V3" stroke="none" stroke-width="1" fill="none" fill-rule="evenodd">
        <g id="Intro-Copy-7" transform="translate(-931.000000, -3979.000000)">
            <g id="Group-42-Copy-2" transform="translate(165.000000, 3863.000000)">
                <g id="Group-25-Copy-11" transform="translate(766.000000, 116.000000)">
                    <g id="Group-23">
                        <mask id="mask-2" fill="white">
                            <use xlink:href="#path-1"></use>
                        </mask>
                        <use id="Mask" fill="#FFFFFF" xlink:href="#path-1"></use>
                        <g mask="url(#mask-2)">
                            <rect id="Rectangle" fill="#2EC58E" x="0" y="0" width="343" height="222"></rect>
                            <polygon id="Gradient-BG-Copy" fill="#39D59C" points="-2.38004061e-15 0 343 0 343 54.5 0 168.5"></polygon>
                        </g>
                    </g>
                    <g id="gsx" transform="translate(24.000000, 29.000000)" fill="#111111">
                        <g id="Group-6">
                            <g id="noun_Home_2534630" transform="translate(67.713333, 2.100000)" fill-rule="nonzero" stroke="#111111" stroke-width="0.7">
                                <g id="Group" transform="translate(0.000000, 0.272845)">
                                    <path d="M17.4876063,0 C16.4074724,0 15.3216933,0.308763345 14.4511538,0.979101007 L0.359535534,11.8235742 C0.109688905,11.9867388 -0.0274551328,12.2763106 0.00460525811,12.5729892 C0.036665649,12.8696678 0.232505931,13.1232558 0.511442059,13.2292779 C0.790378188,13.3352999 1.10521487,13.2758173 1.32624286,13.0753362 L15.4178611,2.23086305 C15.9662228,1.80861323 16.7165744,1.58639151 17.4876063,1.58639151 C18.2586497,1.58639151 19.0263188,1.8124166 19.5697452,2.23086305 L29.6334163,9.96452164 L29.6334163,28.5550471 L22.6805598,28.5550471 L22.6805598,18.6153128 C22.680516,18.177261 22.3254158,17.8221609 21.887364,17.8221171 L13.1250297,17.8221171 C12.6869779,17.8221609 12.3318777,18.177261 12.3318339,18.6153128 L12.3318339,28.5550471 L5.36658372,28.5550471 L5.36658372,15.9630645 C5.37062925,15.6770096 5.22033802,15.4109357 4.97325948,15.2667277 C4.72618095,15.1225197 4.42059499,15.1225197 4.17351646,15.2667277 C3.92643792,15.4109357 3.77614669,15.6770096 3.78019222,15.9630645 L3.78019222,29.3482428 C3.78023602,29.7862946 4.13533619,30.1414386 4.57338797,30.1414386 L13.1250297,30.1414386 C13.5630815,30.1414386 13.9181816,29.7862946 13.9182254,29.3482428 L13.9182254,19.4085086 L21.0941683,19.4085086 L21.0941683,29.3482428 C21.0942121,29.7862946 21.4493122,30.1414386 21.887364,30.1414386 L30.426612,30.1414386 C30.8646638,30.1414386 31.219764,29.7862946 31.2198078,29.3482428 L31.2198078,11.1914963 L33.6737571,13.0753362 C33.8947851,13.2758173 34.2096218,13.3352999 34.4885579,13.2292779 C34.7674941,13.1232558 34.9633344,12.8696678 34.9953947,12.5729892 C35.0274551,12.2763106 34.8903111,11.9867388 34.6404645,11.8235742 L31.2198078,9.19611326 L31.2198078,1.63596624 C31.2247286,1.4075289 31.13091,1.18806317 30.9623789,1.03377414 C30.7938478,0.879485108 30.5669727,0.805358025 30.3398562,0.830376803 C29.9312049,0.875283627 29.6245744,1.22494996 29.6334163,1.63596624 L29.6334163,7.96913858 L20.5364525,0.979101007 C19.6609587,0.304959971 18.5677486,0 17.4876063,0 Z" id="Shape"></path>
                                </g>
                            </g>
                            <path d="M17.4998955,0 C7.83517527,0 0,7.83515342 0,17.5001045 C0,27.1654735 7.83517527,35 17.4998955,35 C27.1656606,35 35,27.1654735 35,17.5001045 C35,7.83578035 27.1656606,0.000835905734 17.4996865,0.000835905734 L17.4998955,0 Z M25.2297907,24.8664194 C24.9135749,25.3837038 24.2347649,25.5477208 23.7161709,25.2302007 C19.5712137,22.7047591 14.3532308,22.1328023 8.20810308,23.5332553 C7.61593622,23.6678334 7.02566666,23.2977437 6.89074791,22.7068619 C6.75519672,22.11598 7.12474763,21.527201 7.71839015,21.3926229 C14.4432469,19.8594843 20.2116562,20.5199682 24.8650884,23.3566216 C25.3836824,23.6741418 25.5481147,24.3491349 25.2297907,24.8664194 L25.2297907,24.8664194 Z M27.9353919,20.5854929 C27.5404991,21.2643696 26.7005683,21.4785193 26.0591287,21.0612585 C21.3559344,18.0059824 14.1866448,17.1213454 8.62367066,18.905632 C7.90220775,19.1358981 7.14021087,18.706274 6.92124385,17.9452699 C6.70394834,17.182941 7.11075062,16.3793277 7.83095989,16.1475162 C14.1853912,14.1102239 22.085128,15.0970787 27.4861752,18.6040562 C28.1276149,19.0213169 28.3302847,19.908824 27.9353919,20.5857137 L27.9353919,20.5854929 Z M27.7437622,15.5655584 C22.151148,12.3756213 12.9240599,12.0823167 7.58444987,13.6385825 C6.72701239,13.8883093 5.8202588,13.4234791 5.5604167,12.600077 C5.30057461,11.7762769 5.78420415,10.9061132 6.64226326,10.6557894 C12.7717601,8.8688993 22.9613415,9.2141392 29.4002037,12.8848253 C30.1730993,13.3243843 30.4258962,14.2809078 29.9679608,15.020537 C29.5120974,15.7611612 28.5133423,16.0053164 27.744591,15.5655584 L27.7437622,15.5655584 Z" id="Shape" fill-rule="nonzero"></path>
                            <g id="Group-5" transform="translate(47.086667, 13.617333)" stroke="#111111" stroke-width="1.05">
                                <polygon id="Close" points="0.819168 -4.35207426e-15 4.01131733 3.19214933 7.20346667 -4.35207426e-15 7.50930133 0.305834667 4.317152 3.497984 7.50930133 6.69013333 7.20346667 6.995968 4.01131733 3.80381867 0.819168 6.995968 0.513333333 6.69013333 3.70548267 3.497984 0.513333333 0.305834667"></polygon>
                            </g>
                        </g>
                    </g>
                    <text id="Spotify-Home" font-family="Canela-Light, Canela" font-size="40" font-weight="300" fill="#111111">
                        <tspan x="24" y="129">Spotify Home</tspan>
                    </text>
                </g>
            </g>
        </g>
    </g>
</svg>