<svg width="360" height="400" viewBox="0 0 360 400" fill="none" xmlns="http://www.w3.org/2000/svg">
<rect width="360" height="400" rx="20" fill="url(#paint0_linear)"/>
<path d="M35.87 333.638V330.558H37.62C38.684 330.558 39.328 331.16 39.328 332.112C39.328 333.05 38.684 333.638 37.62 333.638H35.87ZM37.872 335.122C39.776 335.122 41.036 333.848 41.036 332.098C41.036 330.362 39.776 329.074 37.872 329.074H34.19V339H35.87V335.122H37.872ZM50.3965 339H52.3005L50.0605 334.912C51.4465 334.576 52.3005 333.498 52.3005 332.084C52.3005 330.404 51.1105 329.074 49.1925 329.074H45.3845V339H47.0785V335.08H48.3105L50.3965 339ZM47.0785 333.596V330.558H48.8845C49.9205 330.558 50.5925 331.16 50.5925 332.084C50.5925 332.994 49.9205 333.596 48.8845 333.596H47.0785ZM57.9452 334.03C57.9452 331.636 59.5972 330.446 61.2632 330.446C62.9432 330.446 64.5952 331.636 64.5952 334.03C64.5952 336.424 62.9432 337.614 61.2632 337.614C59.5972 337.614 57.9452 336.424 57.9452 334.03ZM56.2232 334.03C56.2232 337.292 58.6592 339.21 61.2632 339.21C63.8672 339.21 66.3172 337.292 66.3172 334.03C66.3172 330.782 63.8672 328.864 61.2632 328.864C58.6592 328.864 56.2232 330.782 56.2232 334.03ZM69.9808 336.004C69.9808 337.936 71.2128 339.21 73.1588 339.21C75.0488 339.21 76.2808 337.74 76.2808 335.976V329.074H74.6008V336.018C74.6008 337.026 74.0408 337.628 73.1448 337.628C72.2768 337.628 71.6188 337.11 71.6188 335.948V335.024L69.9808 335.36V336.004ZM87.479 339V337.432H83.027V334.8H87.059V333.274H83.027V330.642H87.479V329.074H81.347V339H87.479ZM96.6645 339.21C99.1985 339.21 100.71 337.6 101.158 335.92L99.6185 335.416C99.2825 336.536 98.3305 337.6 96.6645 337.6C94.9705 337.6 93.3745 336.368 93.3745 334.044C93.3745 331.636 95.0125 330.446 96.6505 330.446C98.3165 330.446 99.2405 331.412 99.5345 332.616L101.116 332.084C100.668 330.348 99.1705 328.864 96.6505 328.864C94.0745 328.864 91.6525 330.81 91.6525 334.044C91.6525 337.278 93.9905 339.21 96.6645 339.21ZM112.694 330.656V329.074H104.56V330.656H107.78V339H109.46V330.656H112.694ZM115.91 337.964C115.91 338.58 116.414 339.084 117.044 339.084C117.66 339.084 118.178 338.58 118.178 337.964C118.178 337.334 117.66 336.83 117.044 336.83C116.414 336.83 115.91 337.334 115.91 337.964ZM115.896 333.232C115.896 333.848 116.4 334.352 117.03 334.352C117.646 334.352 118.164 333.848 118.164 333.232C118.164 332.602 117.646 332.098 117.03 332.098C116.4 332.098 115.896 332.602 115.896 333.232ZM130.524 334.03C130.524 331.636 132.176 330.446 133.842 330.446C135.522 330.446 137.174 331.636 137.174 334.03C137.174 336.424 135.522 337.614 133.842 337.614C132.176 337.614 130.524 336.424 130.524 334.03ZM128.802 334.03C128.802 337.292 131.238 339.21 133.842 339.21C136.446 339.21 138.896 337.292 138.896 334.03C138.896 330.782 136.446 328.864 133.842 328.864C131.238 328.864 128.802 330.782 128.802 334.03ZM151.799 339V329.074H150.119V336.116L145.611 329.074H143.469V339H145.149V331.482L150.049 339H151.799ZM165.78 339V333.974H160.922V335.444H164.198C164.114 336.298 163.358 337.67 161.356 337.67C159.648 337.67 158.08 336.452 158.08 334.03C158.08 331.566 159.76 330.418 161.37 330.418C162.952 330.418 163.932 331.37 164.268 332.49L165.85 331.888C165.318 330.25 163.778 328.864 161.37 328.864C158.794 328.864 156.372 330.768 156.372 334.03C156.372 337.306 158.668 339.21 161.258 339.21C162.84 339.21 163.862 338.468 164.296 337.74L164.422 339H165.78ZM171.736 334.03C171.736 331.636 173.388 330.446 175.054 330.446C176.734 330.446 178.386 331.636 178.386 334.03C178.386 336.424 176.734 337.614 175.054 337.614C173.388 337.614 171.736 336.424 171.736 334.03ZM170.014 334.03C170.014 337.292 172.45 339.21 175.054 339.21C177.658 339.21 180.108 337.292 180.108 334.03C180.108 330.782 177.658 328.864 175.054 328.864C172.45 328.864 170.014 330.782 170.014 334.03ZM186.39 339V329.074H184.682V339H186.39ZM199.9 339V329.074H198.22V336.116L193.712 329.074H191.57V339H193.25V331.482L198.15 339H199.9ZM213.881 339V333.974H209.023V335.444H212.299C212.215 336.298 211.459 337.67 209.457 337.67C207.749 337.67 206.181 336.452 206.181 334.03C206.181 331.566 207.861 330.418 209.471 330.418C211.053 330.418 212.033 331.37 212.369 332.49L213.951 331.888C213.419 330.25 211.879 328.864 209.471 328.864C206.895 328.864 204.473 330.768 204.473 334.03C204.473 337.306 206.769 339.21 209.359 339.21C210.941 339.21 211.963 338.468 212.397 337.74L212.523 339H213.881ZM226.361 341.142V327.814H224.989V341.142H226.361ZM244.934 330.656V329.074H236.8V330.656H240.02V339H241.7V330.656H244.934ZM255.244 339V337.432H250.792V334.8H254.824V333.274H250.792V330.642H255.244V329.074H249.112V339H255.244ZM266.85 339H268.684L264.82 329.074H262.874L259.01 339H260.788L261.712 336.508H265.912L266.85 339ZM263.812 330.894L265.324 334.954H262.3L263.812 330.894ZM283.733 339V329.074H281.451L278.273 336.648L275.053 329.074H272.813V339H274.451V331.72L277.517 339H278.973L282.067 331.692V339H283.733ZM40.714 347.398C40.49 346.292 39.58 344.864 37.242 344.864C35.394 344.864 33.868 346.236 33.868 347.902C33.868 349.386 34.876 350.38 36.388 350.688L37.788 350.982C38.642 351.164 39.118 351.682 39.118 352.326C39.118 353.096 38.502 353.698 37.312 353.698C35.884 353.698 35.142 352.746 35.044 351.71L33.476 352.158C33.63 353.586 34.792 355.21 37.312 355.21C39.58 355.21 40.826 353.74 40.826 352.2C40.826 350.8 39.888 349.694 38.138 349.344L36.71 349.05C35.94 348.882 35.548 348.406 35.548 347.776C35.548 347.02 36.248 346.348 37.256 346.348C38.586 346.348 39.104 347.258 39.202 347.874L40.714 347.398ZM47.0789 355V345.074H45.3709V355H47.0789ZM59.3988 355V353.404H53.7568L59.3288 346.67V345.074H51.8108V346.656H57.1588L51.6568 353.348V355H59.3988ZM70.0911 355V353.432H65.6391V350.8H69.6711V349.274H65.6391V346.642H70.0911V345.074H63.9591V355H70.0911ZM74.7116 353.964C74.7116 354.58 75.2156 355.084 75.8456 355.084C76.4616 355.084 76.9796 354.58 76.9796 353.964C76.9796 353.334 76.4616 352.83 75.8456 352.83C75.2156 352.83 74.7116 353.334 74.7116 353.964ZM74.6976 349.232C74.6976 349.848 75.2016 350.352 75.8316 350.352C76.4476 350.352 76.9656 349.848 76.9656 349.232C76.9656 348.602 76.4476 348.098 75.8316 348.098C75.2016 348.098 74.6976 348.602 74.6976 349.232ZM87.4768 353.012H91.8448V355H93.4968V353.012H95.0228V351.528H93.4968V345.928H91.3408L87.4768 351.192V353.012ZM91.8448 351.528H88.9888L91.8448 347.622V351.528ZM107.174 349.638V346.558H108.924C109.988 346.558 110.632 347.16 110.632 348.112C110.632 349.05 109.988 349.638 108.924 349.638H107.174ZM109.176 351.122C111.08 351.122 112.34 349.848 112.34 348.098C112.34 346.362 111.08 345.074 109.176 345.074H105.494V355H107.174V351.122H109.176ZM122.821 355V353.432H118.369V350.8H122.401V349.274H118.369V346.642H122.821V345.074H116.689V355H122.821ZM128.716 350.03C128.716 347.636 130.368 346.446 132.034 346.446C133.714 346.446 135.366 347.636 135.366 350.03C135.366 352.424 133.714 353.614 132.034 353.614C130.368 353.614 128.716 352.424 128.716 350.03ZM126.994 350.03C126.994 353.292 129.43 355.21 132.034 355.21C134.638 355.21 137.088 353.292 137.088 350.03C137.088 346.782 134.638 344.864 132.034 344.864C129.43 344.864 126.994 346.782 126.994 350.03ZM143.342 349.638V346.558H145.092C146.156 346.558 146.8 347.16 146.8 348.112C146.8 349.05 146.156 349.638 145.092 349.638H143.342ZM145.344 351.122C147.248 351.122 148.508 349.848 148.508 348.098C148.508 346.362 147.248 345.074 145.344 345.074H141.662V355H143.342V351.122H145.344ZM159.086 355V353.404H154.536V345.074H152.856V355H159.086ZM169.554 355V353.432H165.102V350.8H169.134V349.274H165.102V346.642H169.554V345.074H163.422V355H169.554Z" fill="#222222" fill-opacity="0.5"/>
<path d="M83.464 308V290.984H80.152V302.24L73.072 290.984H68.944V308H72.256V295.928L79.984 308H83.464ZM88.4001 300.752C88.4721 299.672 89.3841 298.424 91.0401 298.424C92.8641 298.424 93.6321 299.576 93.6801 300.752H88.4001ZM93.9921 303.824C93.6081 304.88 92.7921 305.624 91.3041 305.624C89.7201 305.624 88.4001 304.496 88.3281 302.936H96.7761C96.7761 302.888 96.8241 302.408 96.8241 301.952C96.8241 298.16 94.6401 295.832 90.9921 295.832C87.9681 295.832 85.1841 298.28 85.1841 302.048C85.1841 306.032 88.0401 308.36 91.2801 308.36C94.1841 308.36 96.0561 306.656 96.6561 304.616L93.9921 303.824ZM104.886 296.192L102.318 303.776L100.134 296.192H96.7742L100.542 308H103.782L106.494 299.936L109.254 308H112.446L116.142 296.192H112.974L110.79 303.8L108.246 296.192H104.886ZM126.609 300.848V308H129.921V300.848L135.921 290.984H132.201L128.385 297.728L124.569 290.984H120.681L126.609 300.848ZM139.849 305.456C138.289 305.456 136.849 304.304 136.849 302.096C136.849 299.864 138.289 298.736 139.849 298.736C141.409 298.736 142.849 299.864 142.849 302.096C142.849 304.328 141.409 305.456 139.849 305.456ZM139.849 295.832C136.321 295.832 133.657 298.448 133.657 302.096C133.657 305.72 136.321 308.36 139.849 308.36C143.377 308.36 146.041 305.72 146.041 302.096C146.041 298.448 143.377 295.832 139.849 295.832ZM154.8 296.144C154.56 296.12 154.32 296.096 154.056 296.096C153.048 296.096 151.416 296.384 150.696 297.944V296.192H147.6V308H150.792V302.6C150.792 300.056 152.208 299.264 153.84 299.264C154.128 299.264 154.44 299.288 154.8 299.36V296.144ZM167.534 296.192H163.358L159.278 300.584V290.624H156.086V308H159.278V304.88L160.598 303.488L163.718 308H167.63L162.806 301.16L167.534 296.192ZM168.151 306.08C168.151 307.232 168.967 308.072 170.143 308.072C170.407 308.072 170.671 308 170.767 307.928C170.719 309.248 169.567 310.28 168.487 310.52V312.056C170.263 311.84 172.711 310.352 172.711 306.824C172.711 305.264 171.823 304.064 170.335 304.064C169.087 304.064 168.151 304.928 168.151 306.08ZM194.637 308V290.984H191.325V302.24L184.245 290.984H180.117V308H183.429V295.928L191.157 308H194.637ZM201.78 300.848V308H205.092V300.848L211.092 290.984H207.372L203.556 297.728L199.74 290.984H195.852L201.78 300.848Z" fill="#222222"/>
<path fill-rule="evenodd" clip-rule="evenodd" d="M51 295C51 299.6 45.73 307.69 44 310C44 310 42.5 312 42 312C41.5 312 40 310 40 310C38.27 307.69 33 299.6 33 295C33 290.029 37.0294 286 42 286C46.9706 286 51 290.029 51 295ZM42 291C39.7909 291 38 292.791 38 295C38 297.209 39.7909 299 42 299C44.2091 299 46 297.209 46 295C46 292.791 44.2091 291 42 291Z" fill="#222222"/>
<path d="M102.291 55.666L111.774 50.0907C112.275 49.7983 112.585 49.2579 112.585 48.6794V45.5325C112.585 44.8904 112.066 44.3691 111.426 44.3691H102.158C101.519 44.3691 101 44.8904 101 45.5325V54.9286C101 55.5897 101.715 56.003 102.291 55.666ZM128.506 61.2159L116.927 54.5026C116.029 53.9813 114.921 53.9813 114.022 54.509L102.437 61.2795C101.551 61.8008 101 62.7544 101 63.7906V75.2846C101 75.9267 101.519 76.448 102.158 76.448H111.42C112.059 76.448 112.578 75.9267 112.578 75.2846V67.8593C112.578 67.2935 113.034 66.8294 113.604 66.8294H117.345C117.909 66.8294 118.371 67.2871 118.371 67.8593V75.2909C118.371 75.933 118.89 76.4543 119.529 76.4543H128.791C129.43 76.4543 129.949 75.933 129.949 75.2909V63.7334C129.949 62.6972 129.399 61.7372 128.506 61.2159ZM128.791 44.3691H119.529C118.89 44.3691 118.371 44.8904 118.371 45.5325V48.673C118.371 49.2579 118.681 49.7983 119.181 50.0907L128.664 55.6215C129.234 55.9521 129.949 55.5389 129.949 54.8777V45.5325C129.949 44.8904 129.43 44.3691 128.791 44.3691Z" fill="#222222"/>
<path fill-rule="evenodd" clip-rule="evenodd" d="M33 60.5001C33 50.8352 40.8352 43 50.4999 43L50.4997 43.0008C60.1657 43.0008 68 50.8358 68 60.5001C68 70.1655 60.1657 78 50.4999 78C40.8352 78 33 70.1655 33 60.5001ZM56.7162 68.2302C57.2348 68.5477 57.9136 68.3837 58.2298 67.8664C58.5481 67.3491 58.3837 66.6741 57.8651 66.3566C53.2117 63.52 47.4432 62.8595 40.7184 64.3926C40.1247 64.5272 39.7552 65.116 39.8907 65.7069C40.0257 66.2977 40.6159 66.6678 41.2081 66.5333C47.3532 65.1328 52.5712 65.7048 56.7162 68.2302ZM60.9354 63.5855C60.5405 64.2644 59.7006 64.4785 59.0591 64.0613C54.3559 61.006 47.1866 60.1213 41.6237 61.9056C40.9022 62.1359 40.1402 61.7063 39.9212 60.9453C39.7039 60.1829 40.1108 59.3793 40.831 59.1475C47.1854 57.1102 55.0851 58.0971 60.4862 61.6041C61.1276 62.0213 61.3303 62.9088 60.9354 63.5857V63.5855ZM40.5844 56.6386C45.9241 55.0823 55.1511 55.3756 60.7438 58.5656H60.7446C61.5133 59.0053 62.5121 58.7612 62.968 58.0205C63.4259 57.2809 63.1731 56.3244 62.4002 55.8848C55.9613 52.2141 45.7718 51.8689 39.6423 53.6558C38.7842 53.9061 38.3006 54.7763 38.5604 55.6001C38.8203 56.4235 39.727 56.8883 40.5844 56.6386Z" fill="#222222"/>
<path fill-rule="evenodd" clip-rule="evenodd" d="M80.9059 56.6172L84.0981 59.8093L87.2902 56.6172L87.5961 56.923L84.4039 60.1152L87.5961 63.3073L87.2902 63.6132L84.0981 60.421L80.9059 63.6132L80.6001 63.3073L83.7922 60.1152L80.6001 56.923L80.9059 56.6172Z" fill="#222222" stroke="#222222" stroke-width="1.05"/>
<path d="M51.4 113.64L50.6 107.32C48.84 106.64 46.52 106.12 44.12 106.12C39.16 106.12 35.2 108.36 35.2 113.36C35.2 118.52 39.4 120.24 43.44 122.16C47.08 123.76 50.4 125.52 50.4 129.88C50.4 133.28 48.36 135.8 44.08 135.8C39.92 135.8 37.12 133.6 34.72 128.48L34.4 128.6L35.2 135.08C37.6 136 40.4 136.6 43.12 136.6C48.6 136.6 53.4 134.28 53.4 128.4C53.4 123 49.24 120.92 45.2 119.12C41.36 117.4 37.76 115.92 37.76 111.88C37.76 109.16 39.48 106.92 43.16 106.92C46.16 106.92 48.92 108.48 51.08 113.76L51.4 113.64ZM65.7997 135.88C63.6797 135.88 61.6797 134.76 60.5997 132.16V120.6C61.5197 119.44 63.3597 118.28 65.7597 118.28C69.4397 118.28 72.2397 121.04 72.2397 126.68C72.2397 132.32 69.6397 135.88 65.7997 135.88ZM56.7997 145H61.4797V144.92C60.6797 143.16 60.5997 141.56 60.5997 138.84V135.4C61.7597 136.08 63.3197 136.6 65.5197 136.6C72.1997 136.6 75.4397 131.64 75.4397 126.08C75.4397 120.32 72.1197 116.36 67.3597 116.36C64.4797 116.36 62.1197 117.72 60.7197 119.76L60.4397 119.72V116.16L55.9197 118.28V118.36C56.8397 119.16 57.6797 120.32 57.6797 122.36V138.88C57.6797 141.6 57.5597 143.2 56.7997 144.92V145ZM88.0681 136.6C93.5481 136.6 98.1081 132.04 98.1081 126.52C98.1081 121 93.5481 116.36 88.0681 116.36C82.6681 116.36 78.0281 121 78.0281 126.52C78.0281 132.04 82.5881 136.6 88.0681 136.6ZM88.0681 135.84C83.5481 135.84 81.3881 131.48 81.3881 126.52C81.3881 121.52 83.5881 117.12 88.0681 117.12C92.5481 117.12 94.7481 121.52 94.7481 126.52C94.7481 131.48 92.5881 135.84 88.0681 135.84ZM106.494 136.6C108.734 136.6 110.374 135.48 111.174 134.4L111.094 134.24C110.654 134.52 109.494 135 108.054 135C106.014 135 105.174 133.96 105.174 132V117.68H110.774V116.96H105.174V113.32H104.974L100.094 117.52V117.68H102.254V132C102.254 135.6 104.374 136.6 106.494 136.6ZM118.264 109.64C118.264 108.56 117.384 107.64 116.304 107.64C115.224 107.64 114.304 108.56 114.304 109.64C114.304 110.76 115.224 111.64 116.304 111.64C117.384 111.64 118.264 110.76 118.264 109.64ZM114.104 135.92V136H118.784V135.92C117.984 134.16 117.904 132.56 117.904 129.8V116.16L113.224 118.28V118.44C114.144 119.24 114.984 120.44 114.984 122.4V129.84C114.984 132.6 114.744 134.16 114.104 135.92ZM123.145 135.92V136H127.945V135.92C127.345 134.84 127.025 133.48 127.025 130.44V117.68H131.745V116.96H127.025V111.84C127.025 107.72 128.345 105.64 129.945 105.64C131.505 105.64 132.665 107.4 133.865 109.16L134.105 109.08L133.625 105.4C133.185 105.12 132.105 104.84 130.945 104.84C126.985 104.84 124.105 108.12 124.105 113.6V116.96H121.585V117.68H124.105V130.44C124.105 133.48 123.825 134.84 123.145 135.92ZM133.496 142.04L133.576 145C136.336 144.68 138.376 143.28 140.176 138.64L146.776 121.56C147.616 119.2 148.216 118.2 149.496 117.04V116.96H145.296V117.04C146.296 117.84 146.656 119.52 145.816 121.8L141.936 132.12L138.016 121.64C137.096 119.24 137.376 117.8 138.056 117.04V116.96H132.416V117.04C133.416 117.92 133.856 118.96 134.816 121.4L140.416 136.12L139.856 137.6C138.376 141.44 134.936 142.04 133.496 142.04ZM157.892 135.92V136H164.372V135.92C163.052 133.84 162.772 132.76 162.772 130V121.28H178.252V130C178.252 132.76 177.972 133.84 176.652 135.92V136H183.132V135.92C181.812 133.84 181.532 132.76 181.532 130V112.72C181.532 109.96 181.812 108.88 183.132 106.8V106.72H176.652V106.8C177.932 108.84 178.252 110 178.252 112.72V120.48H162.772V112.72C162.772 109.96 163.052 108.88 164.372 106.8V106.72H157.892V106.8C159.132 108.8 159.492 110.04 159.492 112.72V130C159.492 132.72 159.172 133.92 157.892 135.92ZM196.232 136.6C201.712 136.6 206.272 132.04 206.272 126.52C206.272 121 201.712 116.36 196.232 116.36C190.832 116.36 186.192 121 186.192 126.52C186.192 132.04 190.752 136.6 196.232 136.6ZM196.232 135.84C191.712 135.84 189.552 131.48 189.552 126.52C189.552 121.52 191.752 117.12 196.232 117.12C200.712 117.12 202.912 121.52 202.912 126.52C202.912 131.48 200.752 135.84 196.232 135.84ZM214.293 136V135.92C213.493 134.2 213.413 132.6 213.413 129.88V120.76C214.573 119.28 216.213 118.32 218.173 118.32C220.853 118.32 221.453 120.16 221.453 122.4V129.92C221.453 132.52 221.333 134.2 220.573 135.92V136H225.293V135.92C224.453 134.2 224.373 132.68 224.373 129.88V120.8C225.613 119.32 227.213 118.32 229.173 118.32C231.853 118.32 232.453 120.16 232.453 122.4V129.92C232.453 132.52 232.333 134.2 231.573 135.92V136H236.253V135.92C235.413 134.24 235.373 132.64 235.373 129.88V121.76C235.373 118.4 234.093 116.36 230.693 116.36C228.013 116.36 225.933 117.72 224.373 119.96L224.253 119.92C223.813 117.68 222.453 116.36 219.693 116.36C217.013 116.36 214.893 117.68 213.413 119.92L213.253 119.88V116.12L208.693 118.24V118.32C209.653 119.16 210.493 120.32 210.493 122.4V129.92C210.493 132.68 210.333 134.2 209.573 135.92V136H214.293ZM255.956 131.16L255.756 131.04C254.356 133.08 252.036 134.04 249.596 134.04C245.076 134.04 242.516 130.84 242.516 125.44V124.76C242.516 124.52 242.516 124.28 242.556 124.08H255.876C256.196 120.36 253.196 116.36 248.556 116.36C243.916 116.36 239.476 120.44 239.476 126.8C239.476 132.56 242.996 136.6 248.276 136.6C252.236 136.6 254.956 134.32 255.956 131.16ZM248.396 117.08C251.156 117.08 252.636 118.92 252.636 122.92V123.24L242.636 123.44C243.156 119.6 245.196 117.08 248.396 117.08Z" fill="#222222"/>
<defs>
<linearGradient id="paint0_linear" x1="0" y1="0" x2="450.336" y2="218.992" gradientUnits="userSpaceOnUse">
<stop stop-color="#00FFA5"/>
<stop offset="1" stop-color="#529977"/>
</linearGradient>
</defs>
</svg>
