<svg width="360" height="222" viewBox="0 0 360 222" fill="none" xmlns="http://www.w3.org/2000/svg">
<g id="Group 25 Copy 11">
<g id="Group 23">
<rect id="Mask" width="360" height="222" rx="20" fill="white"/>
<mask id="mask0" mask-type="alpha" maskUnits="userSpaceOnUse" x="0" y="0" width="360" height="222">
<rect id="Mask_2" width="360" height="222" rx="20" fill="white"/>
</mask>
<g mask="url(#mask0)">
<g id="Group 23_2">
<rect id="Rectangle" width="360" height="222" fill="#2EC58E"/>
<path id="Gradient BG Copy" fill-rule="evenodd" clip-rule="evenodd" d="M0 0H360V54.5L0 168.5L0 0Z" fill="#39D59C"/>
</g>
</g>
</g>
<g id="Group 141">
<g id="gsx">
<g id="Group 6">
<g id="noun_Home_2534630">
<g id="Group">
<path id="Vector" d="M101.291 41.666L110.774 36.0907C111.275 35.7983 111.585 35.2579 111.585 34.6794V31.5325C111.585 30.8904 111.066 30.3691 110.426 30.3691H101.158C100.519 30.3691 99.9999 30.8904 99.9999 31.5325V40.9286C99.9999 41.5897 100.715 42.003 101.291 41.666ZM127.506 47.2159L115.927 40.5026C115.029 39.9813 113.921 39.9813 113.022 40.509L101.437 47.2795C100.551 47.8008 99.9999 48.7544 99.9999 49.7906V61.2846C99.9999 61.9267 100.519 62.448 101.158 62.448H110.42C111.059 62.448 111.578 61.9267 111.578 61.2846V53.8593C111.578 53.2935 112.034 52.8294 112.604 52.8294H116.345C116.909 52.8294 117.371 53.2871 117.371 53.8593V61.2909C117.371 61.933 117.89 62.4543 118.529 62.4543H127.791C128.43 62.4543 128.949 61.933 128.949 61.2909V49.7334C128.949 48.6972 128.398 47.7372 127.506 47.2159ZM127.791 30.3691H118.529C117.89 30.3691 117.371 30.8904 117.371 31.5325V34.673C117.371 35.2579 117.681 35.7983 118.181 36.0907L127.664 41.6215C128.234 41.9521 128.949 41.5389 128.949 40.8777V31.5325C128.949 30.8904 128.43 30.3691 127.791 30.3691Z" fill="#111111"/>
</g>
</g>
<path id="Shape" fill-rule="evenodd" clip-rule="evenodd" d="M32 46.5001C32 36.8352 39.8352 29 49.4999 29L49.4997 29.0008C59.1657 29.0008 67 36.8358 67 46.5001C67 56.1655 59.1657 64 49.4999 64C39.8352 64 32 56.1655 32 46.5001ZM55.7162 54.2302C56.2348 54.5477 56.9136 54.3837 57.2298 53.8664C57.5481 53.3491 57.3837 52.6741 56.8651 52.3566C52.2117 49.52 46.4432 48.8595 39.7184 50.3926C39.1247 50.5272 38.7552 51.116 38.8907 51.7069C39.0257 52.2977 39.6159 52.6678 40.2081 52.5333C46.3532 51.1328 51.5712 51.7048 55.7162 54.2302ZM59.9354 49.5855C59.5405 50.2644 58.7006 50.4785 58.0591 50.0613C53.3559 47.006 46.1866 46.1213 40.6237 47.9056C39.9022 48.1359 39.1402 47.7063 38.9212 46.9453C38.7039 46.1829 39.1108 45.3793 39.831 45.1475C46.1854 43.1102 54.0851 44.0971 59.4862 47.6041C60.1276 48.0213 60.3303 48.9088 59.9354 49.5857V49.5855ZM39.5844 42.6386C44.9241 41.0823 54.1511 41.3756 59.7438 44.5656H59.7446C60.5133 45.0053 61.5121 44.7612 61.968 44.0205C62.4259 43.2809 62.1731 42.3244 61.4002 41.8848C54.9613 38.2141 44.7718 37.8689 38.6423 39.6558C37.7842 39.9061 37.3006 40.7763 37.5604 41.6001C37.8203 42.4235 38.727 42.8883 39.5844 42.6386Z" fill="#111111"/>
<g id="Group 5">
<path id="Close" fill-rule="evenodd" clip-rule="evenodd" d="M79.9058 42.6172L83.098 45.8093L86.2901 42.6172L86.596 42.923L83.4038 46.1152L86.596 49.3073L86.2901 49.6132L83.098 46.421L79.9058 49.6132L79.6 49.3073L82.7922 46.1152L79.6 42.923L79.9058 42.6172Z" fill="#111111" stroke="#111111" stroke-width="1.05"/>
</g>
</g>
</g>
<path id="Spotify Home" d="M50.4 98.64L49.6 92.32C47.84 91.64 45.52 91.12 43.12 91.12C38.16 91.12 34.2 93.36 34.2 98.36C34.2 103.52 38.4 105.24 42.44 107.16C46.08 108.76 49.4 110.52 49.4 114.88C49.4 118.28 47.36 120.8 43.08 120.8C38.92 120.8 36.12 118.6 33.72 113.48L33.4 113.6L34.2 120.08C36.6 121 39.4 121.6 42.12 121.6C47.6 121.6 52.4 119.28 52.4 113.4C52.4 108 48.24 105.92 44.2 104.12C40.36 102.4 36.76 100.92 36.76 96.88C36.76 94.16 38.48 91.92 42.16 91.92C45.16 91.92 47.92 93.48 50.08 98.76L50.4 98.64ZM64.7997 120.88C62.6797 120.88 60.6797 119.76 59.5997 117.16V105.6C60.5197 104.44 62.3597 103.28 64.7597 103.28C68.4397 103.28 71.2397 106.04 71.2397 111.68C71.2397 117.32 68.6397 120.88 64.7997 120.88ZM55.7997 130H60.4797V129.92C59.6797 128.16 59.5997 126.56 59.5997 123.84V120.4C60.7597 121.08 62.3197 121.6 64.5197 121.6C71.1997 121.6 74.4397 116.64 74.4397 111.08C74.4397 105.32 71.1197 101.36 66.3597 101.36C63.4797 101.36 61.1197 102.72 59.7197 104.76L59.4397 104.72V101.16L54.9197 103.28V103.36C55.8397 104.16 56.6797 105.32 56.6797 107.36V123.88C56.6797 126.6 56.5597 128.2 55.7997 129.92V130ZM87.0681 121.6C92.5481 121.6 97.1081 117.04 97.1081 111.52C97.1081 106 92.5481 101.36 87.0681 101.36C81.6681 101.36 77.0281 106 77.0281 111.52C77.0281 117.04 81.5881 121.6 87.0681 121.6ZM87.0681 120.84C82.5481 120.84 80.3881 116.48 80.3881 111.52C80.3881 106.52 82.5881 102.12 87.0681 102.12C91.5481 102.12 93.7481 106.52 93.7481 111.52C93.7481 116.48 91.5881 120.84 87.0681 120.84ZM105.494 121.6C107.734 121.6 109.374 120.48 110.174 119.4L110.094 119.24C109.654 119.52 108.494 120 107.054 120C105.014 120 104.174 118.96 104.174 117V102.68H109.774V101.96H104.174V98.32H103.974L99.0938 102.52V102.68H101.254V117C101.254 120.6 103.374 121.6 105.494 121.6ZM117.264 94.64C117.264 93.56 116.384 92.64 115.304 92.64C114.224 92.64 113.304 93.56 113.304 94.64C113.304 95.76 114.224 96.64 115.304 96.64C116.384 96.64 117.264 95.76 117.264 94.64ZM113.104 120.92V121H117.784V120.92C116.984 119.16 116.904 117.56 116.904 114.8V101.16L112.224 103.28V103.44C113.144 104.24 113.984 105.44 113.984 107.4V114.84C113.984 117.6 113.744 119.16 113.104 120.92ZM122.145 120.92V121H126.945V120.92C126.345 119.84 126.025 118.48 126.025 115.44V102.68H130.745V101.96H126.025V96.84C126.025 92.72 127.345 90.64 128.945 90.64C130.505 90.64 131.665 92.4 132.865 94.16L133.105 94.08L132.625 90.4C132.185 90.12 131.105 89.84 129.945 89.84C125.985 89.84 123.105 93.12 123.105 98.6V101.96H120.585V102.68H123.105V115.44C123.105 118.48 122.825 119.84 122.145 120.92ZM132.496 127.04L132.576 130C135.336 129.68 137.376 128.28 139.176 123.64L145.776 106.56C146.616 104.2 147.216 103.2 148.496 102.04V101.96H144.296V102.04C145.296 102.84 145.656 104.52 144.816 106.8L140.936 117.12L137.016 106.64C136.096 104.24 136.376 102.8 137.056 102.04V101.96H131.416V102.04C132.416 102.92 132.856 103.96 133.816 106.4L139.416 121.12L138.856 122.6C137.376 126.44 133.936 127.04 132.496 127.04ZM156.892 120.92V121H163.372V120.92C162.052 118.84 161.772 117.76 161.772 115V106.28H177.252V115C177.252 117.76 176.972 118.84 175.652 120.92V121H182.132V120.92C180.812 118.84 180.532 117.76 180.532 115V97.72C180.532 94.96 180.812 93.88 182.132 91.8V91.72H175.652V91.8C176.932 93.84 177.252 95 177.252 97.72V105.48H161.772V97.72C161.772 94.96 162.052 93.88 163.372 91.8V91.72H156.892V91.8C158.132 93.8 158.492 95.04 158.492 97.72V115C158.492 117.72 158.172 118.92 156.892 120.92ZM195.232 121.6C200.712 121.6 205.272 117.04 205.272 111.52C205.272 106 200.712 101.36 195.232 101.36C189.832 101.36 185.192 106 185.192 111.52C185.192 117.04 189.752 121.6 195.232 121.6ZM195.232 120.84C190.712 120.84 188.552 116.48 188.552 111.52C188.552 106.52 190.752 102.12 195.232 102.12C199.712 102.12 201.912 106.52 201.912 111.52C201.912 116.48 199.752 120.84 195.232 120.84ZM213.293 121V120.92C212.493 119.2 212.413 117.6 212.413 114.88V105.76C213.573 104.28 215.213 103.32 217.173 103.32C219.853 103.32 220.453 105.16 220.453 107.4V114.92C220.453 117.52 220.333 119.2 219.573 120.92V121H224.293V120.92C223.453 119.2 223.373 117.68 223.373 114.88V105.8C224.613 104.32 226.213 103.32 228.173 103.32C230.853 103.32 231.453 105.16 231.453 107.4V114.92C231.453 117.52 231.333 119.2 230.573 120.92V121H235.253V120.92C234.413 119.24 234.373 117.64 234.373 114.88V106.76C234.373 103.4 233.093 101.36 229.693 101.36C227.013 101.36 224.933 102.72 223.373 104.96L223.253 104.92C222.813 102.68 221.453 101.36 218.693 101.36C216.013 101.36 213.893 102.68 212.413 104.92L212.253 104.88V101.12L207.693 103.24V103.32C208.653 104.16 209.493 105.32 209.493 107.4V114.92C209.493 117.68 209.333 119.2 208.573 120.92V121H213.293ZM254.956 116.16L254.756 116.04C253.356 118.08 251.036 119.04 248.596 119.04C244.076 119.04 241.516 115.84 241.516 110.44V109.76C241.516 109.52 241.516 109.28 241.556 109.08H254.876C255.196 105.36 252.196 101.36 247.556 101.36C242.916 101.36 238.476 105.44 238.476 111.8C238.476 117.56 241.996 121.6 247.276 121.6C251.236 121.6 253.956 119.32 254.956 116.16ZM247.396 102.08C250.156 102.08 251.636 103.92 251.636 107.92V108.24L241.636 108.44C242.156 104.6 244.196 102.08 247.396 102.08Z" fill="#111111"/>
</g>
</g>
</svg>
