<?xml version="1.0" encoding="UTF-8"?>
<svg width="343px" height="222px" viewBox="0 0 343 222" version="1.1" xmlns="http://www.w3.org/2000/svg" xmlns:xlink="http://www.w3.org/1999/xlink">
    <!-- Generator: Sketch 63.1 (92452) - https://sketch.com -->
    <title>Group 25 Copy 7</title>
    <desc>Created with Sketch.</desc>
    <defs>
        <rect id="path-1" x="0" y="0" width="343" height="222" rx="20"></rect>
    </defs>
    <g id="V3" stroke="none" stroke-width="1" fill="none" fill-rule="evenodd">
        <g id="Intro-Copy-7" transform="translate(-548.000000, -4503.000000)">
            <g id="Group-42-Copy-2" transform="translate(165.000000, 3863.000000)">
                <g id="Group-25-Copy-7" transform="translate(383.000000, 640.000000)">
                    <g id="Group-23">
                        <mask id="mask-2" fill="white">
                            <use xlink:href="#path-1"></use>
                        </mask>
                        <use id="Mask" fill="#FFFFFF" xlink:href="#path-1"></use>
                        <g mask="url(#mask-2)">
                            <rect id="Rectangle" fill="#484B66" x="0" y="0" width="343" height="222"></rect>
                            <polygon id="Gradient-BG-Copy" fill="#585B77" points="-2.38004061e-15 0 343 0 343 54.5 0 168.5"></polygon>
                        </g>
                    </g>
                    <g id="gsx" transform="translate(25.000000, 37.000000)">
                        <g id="Group-6">
                            <path d="M101.103321,19.6670935 L88,19.6670935 L88.051285,19.2573624 L93.2823564,9.83354673 C93.7952091,8.8945749 94.3166015,8.019637 94.8465493,7.20870679 C95.376497,6.39777657 95.9149843,5.62527042 96.4620272,4.89116517 L90.9488883,4.89116517 L91.5130234,0.358514725 L104.129137,0.358514725 L104.052209,0.896286812 L98.0775051,11.4212548 C97.9749345,11.6090492 97.8424496,11.8309846 97.6800462,12.0870679 C97.5176429,12.3431511 97.3424208,12.6419104 97.1543749,12.9833547 L95.795322,15.262484 C96.3252698,15.2283396 96.7483669,15.1984636 97.0646261,15.1728553 C97.3808852,15.147247 97.5817495,15.134443 97.667225,15.134443 L101.693099,15.134443 L101.103321,19.6670935 Z M108.697777,20 C107.774642,20 106.928444,19.8250124 106.159168,19.475032 C105.389889,19.1250516 104.731738,18.6171608 104.184695,17.9513444 C103.637652,17.2855314 103.210282,16.457538 102.90257,15.4673496 C102.594858,14.4771611 102.441005,13.3418758 102.441005,12.0614597 C102.441005,10.2176604 102.676059,8.55314443 103.146174,7.06786172 C103.616289,5.582579 104.248798,4.31498604 105.043719,3.26504481 C105.838641,2.21510359 106.757488,1.40845352 107.800289,0.845070423 C108.843089,0.281687324 109.937159,0 111.08253,0 C112.039855,0 112.89887,0.18352356 113.659602,0.550576184 C114.420333,0.917628809 115.061389,1.43832356 115.58279,2.11267606 C116.10419,2.78702855 116.501645,3.6022146 116.775166,4.55825864 C117.048688,5.51430269 117.185446,6.57276415 117.185446,7.73367478 C117.185446,9.44089629 116.976034,11.0371245 116.557205,12.5224072 C116.138375,14.0076899 115.552877,15.3051588 114.800693,16.4148528 C114.048509,17.5245467 113.155304,18.3994846 112.121051,19.0396927 C111.086798,19.6799008 109.945718,20 108.697777,20 Z M111.851805,7.86171575 C111.851805,5.86426658 111.407339,4.86555698 110.518394,4.86555698 C110.125209,4.86555698 109.761942,5.0661525 109.428588,5.46734955 C109.095234,5.86854661 108.808895,6.40204533 108.569564,7.06786172 C108.330233,7.7336781 108.137916,8.49338455 107.992608,9.34699104 C107.847299,10.2006018 107.774646,11.0798077 107.774646,11.9846351 C107.774646,14.0845175 108.236207,15.134443 109.159342,15.134443 C109.535434,15.134443 109.885878,14.9381155 110.210684,14.5454545 C110.535491,14.1527936 110.82183,13.6235629 111.069708,12.9577465 C111.317587,12.2919301 111.509904,11.5194239 111.646665,10.6402049 C111.783425,9.76098579 111.851805,8.83483201 111.851805,7.86171575 Z M116.112735,19.6670935 L118.471845,0.358514725 L122.907999,0.358514725 C124.207226,0.358514725 125.335485,0.550574264 126.29281,0.934699104 C127.250135,1.31882394 128.045045,1.85232608 128.677563,2.53521127 C129.310081,3.21809987 129.780189,4.03755391 130.087901,4.99359795 C130.395612,5.949642 130.549466,6.9910315 130.549466,8.1177977 C130.549466,10.9347132 129.951147,13.3589314 128.75449,15.390525 C127.865546,16.8928799 126.801392,17.9812173 125.561998,18.6555698 C124.322604,19.3299223 122.771248,19.6670935 120.907883,19.6670935 L116.112735,19.6670935 Z M121.831014,15.006402 C122.343866,14.9893299 122.813974,14.8186102 123.241351,14.4942382 C123.668729,14.1698661 124.031994,13.7345311 124.331158,13.1882202 C124.630322,12.6419121 124.861102,11.9931749 125.023506,11.2419974 C125.185909,10.49082 125.267109,9.67136594 125.267109,8.78361076 C125.267109,7.60562791 125.087614,6.70935006 124.728617,6.09475032 C124.36962,5.48015058 123.856775,5.17285531 123.190066,5.17285531 L123.036211,5.17285531 L121.831014,15.006402 Z M134.784753,19.6670935 L129.656252,19.6670935 L132.015362,0.358514725 L137.143864,0.358514725 L134.784753,19.6670935 Z M149.353971,19.6670935 L143.969044,19.6670935 L143.969044,17.2087068 L140.481663,17.2087068 L139.789316,19.6670935 L134.481317,19.6670935 L141.404794,0.358514725 L147.71285,0.358514725 L149.353971,19.6670935 Z M143.892117,13.0857875 L143.825874,5.06828852 C143.764617,5.46806015 143.714044,5.74192557 143.674155,5.88988476 C143.614323,6.11182356 143.567312,6.30815109 143.533122,6.47887324 L141.686861,13.0857875 L143.892117,13.0857875 Z M159.615247,19.3085787 C158.435686,19.7695286 157.384353,20 156.461219,20 C155.418418,20 154.482476,19.8122085 153.653364,19.4366197 C152.824252,19.061031 152.11909,18.5275323 151.537857,17.8361076 C150.956624,17.1446828 150.507885,16.3166928 150.191626,15.3521127 C149.875367,14.3875325 149.717239,13.3162671 149.717239,12.1382843 C149.717239,10.3798461 149.960841,8.75800999 150.448051,7.27272727 C150.935261,5.78744456 151.61478,4.50704763 152.48663,3.43149808 C153.35848,2.35594853 154.388443,1.51515455 155.576552,0.909090909 C156.764661,0.303027273 158.059594,0 159.461392,0 C160.316146,0 161.162341,0.162183611 162,0.486555698 L161.333295,5.99231754 C160.666586,5.22406786 159.922961,4.83994878 159.102397,4.83994878 C158.504069,4.83994878 157.957034,4.9978644 157.461276,5.31370038 C156.965519,5.62953636 156.538148,6.07767529 156.179151,6.6581306 C155.820154,7.23858592 155.542363,7.92573227 155.34577,8.71959027 C155.149176,9.51344827 155.050881,10.3798502 155.050881,11.318822 C155.050881,12.5138771 155.281661,13.4229589 155.743228,14.0460948 C156.204796,14.6692306 156.880042,14.9807939 157.768986,14.9807939 C158.657931,14.9807939 159.606694,14.5625309 160.615305,13.7259923 L159.615247,19.3085787 Z" id="ZODIAC" fill="#C8DDF2" fill-rule="nonzero"></path>
                            <path d="M5.84629659,17.6594855 C4.26711533,17.6008102 2.9751071,17.196659 1.96486375,16.4460202 C1.77206302,16.3026199 1.31264026,15.8726718 1.15850784,15.6913349 C0.748840098,15.2095401 0.470320116,14.7406438 0.284549992,14.2204066 C-0.287091991,12.6189764 0.00711164076,10.5175419 1.12605891,8.21124976 C2.08411357,6.23677639 3.56243274,4.2784893 6.14158185,1.5662756 C6.52150474,1.16718261 7.65289077,-3.05533376e-13 7.66019178,-3.05533376e-13 C7.66289585,-3.05533376e-13 7.60124289,0.099899703 7.52363586,0.221549721 C6.85302464,1.27214052 6.2792194,2.50963229 5.96662804,3.58096176 C5.46448085,5.29999538 5.52505218,6.77522315 6.14401552,7.91913797 C6.57098936,8.70720753 7.30298314,9.38981335 8.12610433,9.76715602 C9.56710723,10.4275057 11.6768285,10.4821344 14.2532735,9.92699555 C14.430661,9.88855313 23.2205353,7.70618721 33.7864477,5.07718111 C44.3523602,2.44792209 52.998648,0.298434556 53,0.30020493 C53.0029745,0.302481126 28.4523845,10.1280595 15.7077968,15.2254735 C13.6894734,16.0325113 13.1497395,16.2363573 12.2008787,16.5479432 C9.77532119,17.3446117 7.60259492,17.7247364 5.84629659,17.6594855 Z" id="Path-Copy" fill="#C8DDF2"></path>
                            <g id="Group-5" transform="translate(66.333333, 5.666667)" stroke="#C8DDF2">
                                <polygon id="Close" points="0.341333333 0 3.904 3.56266667 7.46666667 0 7.808 0.341333333 4.24533333 3.904 7.808 7.46666667 7.46666667 7.808 3.904 4.24533333 0.341333333 7.808 0 7.46666667 3.56266667 3.904 0 0.341333333"></polygon>
                            </g>
                        </g>
                    </g>
                    <text id="Zodiac-Data-Science" font-family="Canela-Light, Canela" font-size="40" font-weight="300" fill="#C8DDF2">
                        <tspan x="24" y="129">Zodiac Data </tspan>
                        <tspan x="24" y="177">Science</tspan>
                    </text>
                </g>
            </g>
        </g>
    </g>
</svg>