<svg width="360" height="400" viewBox="0 0 360 400" fill="none" xmlns="http://www.w3.org/2000/svg">
<rect width="360" height="400" rx="20" fill="url(#paint0_linear)"/>
<path fill-rule="evenodd" clip-rule="evenodd" d="M140.698 72C139.775 72 138.928 71.825 138.159 71.475C137.39 71.1251 136.732 70.6172 136.185 69.9513C135.638 69.2855 135.21 68.4575 134.903 67.4674C134.595 66.4772 134.441 65.3419 134.441 64.0615C134.441 62.2177 134.676 60.5531 135.146 59.0679C135.616 57.5826 136.249 56.315 137.044 55.265C137.839 54.2151 138.757 53.4085 139.8 52.8451C140.843 52.2817 141.937 52 143.083 52C144.04 52 144.899 52.1835 145.66 52.5506C146.42 52.9176 147.061 53.4383 147.583 54.1127C148.104 54.787 148.502 55.6022 148.775 56.5583C149.049 57.5143 149.185 58.5728 149.185 59.7337C149.185 61.4409 148.976 63.0371 148.557 64.5224C148.138 66.0077 147.553 67.3052 146.801 68.4149C146.049 69.5245 145.155 70.3995 144.121 71.0397C143.087 71.6799 141.946 72 140.698 72ZM133.103 71.6671H120L120.051 71.2574L125.282 61.8335C125.795 60.8946 126.317 60.0196 126.847 59.2087C127.376 58.3978 127.915 57.6253 128.462 56.8912H122.949L123.513 52.3585H136.129L136.052 52.8963L130.078 63.4213C129.975 63.609 129.842 63.831 129.68 64.0871C129.518 64.3432 129.342 64.6419 129.154 64.9834L127.795 67.2625C128.325 67.2283 128.748 67.1985 129.065 67.1729C129.381 67.1472 129.582 67.1344 129.667 67.1344H133.693L133.103 71.6671ZM142.518 56.8656C143.407 56.8656 143.852 57.8643 143.852 59.8617C143.852 60.8348 143.783 61.761 143.647 62.6402C143.51 63.5194 143.318 64.2919 143.07 64.9577C142.822 65.6236 142.535 66.1528 142.211 66.5455C141.886 66.9381 141.535 67.1344 141.159 67.1344C140.236 67.1344 139.775 66.0845 139.775 63.9846C139.775 63.0798 139.847 62.2006 139.993 61.347C140.138 60.4934 140.33 59.7337 140.57 59.0679C140.809 58.402 141.095 57.8685 141.429 57.4674C141.762 57.0662 142.125 56.8656 142.518 56.8656ZM148.113 71.6671L150.472 52.3585H154.908C156.207 52.3585 157.335 52.5506 158.293 52.9347C159.25 53.3188 160.045 53.8523 160.678 54.5352C161.31 55.2181 161.78 56.0376 162.088 56.9936C162.396 57.9496 162.549 58.991 162.549 60.1178C162.549 62.9347 161.951 65.3589 160.754 67.3905C159.866 68.8929 158.801 69.9812 157.562 70.6556C156.323 71.3299 154.771 71.6671 152.908 71.6671H148.113ZM155.241 66.4942C154.814 66.8186 154.344 66.9893 153.831 67.0064L155.036 57.1729H155.19C155.857 57.1729 156.37 57.4802 156.729 58.0948C157.088 58.7094 157.267 59.6056 157.267 60.7836C157.267 61.6714 157.186 62.4908 157.024 63.242C156.861 63.9932 156.63 64.6419 156.331 65.1882C156.032 65.7345 155.669 66.1699 155.241 66.4942ZM166.481 71.6671H161.656L164.015 52.3585H169.144L166.942 70.3835L166.481 71.6671ZM166.942 70.3835L173.405 52.3585H179.713L181.354 71.6671H175.969V69.2087H172.482L171.789 71.6671H166.785L166.942 70.3835ZM175.892 65.0858L175.826 57.0683C175.826 57.0683 175.734 57.6679 175.674 57.8899C175.614 58.1118 175.567 58.3082 175.533 58.4789L173.687 65.0858H175.892ZM188.461 72C189.384 72 190.436 71.7695 191.615 71.3086L192.615 65.726C191.607 66.5625 190.658 66.9808 189.769 66.9808C188.88 66.9808 188.205 66.6692 187.743 66.0461C187.282 65.423 187.051 64.5139 187.051 63.3188C187.051 62.3799 187.149 61.5134 187.346 60.7196C187.542 59.9257 187.82 59.2386 188.179 58.6581C188.538 58.0777 188.966 57.6295 189.461 57.3137C189.957 56.9979 190.504 56.8399 191.102 56.8399C191.923 56.8399 192.667 57.2241 193.333 57.9923L194 52.4866C193.162 52.1622 192.316 52 191.461 52C190.06 52 188.765 52.303 187.577 52.9091C186.388 53.5152 185.358 54.3559 184.487 55.4315C183.615 56.507 182.935 57.7874 182.448 59.2727C181.961 60.758 181.717 62.3798 181.717 64.1383C181.717 65.3163 181.875 66.3875 182.192 67.3521C182.508 68.3167 182.957 69.1447 183.538 69.8361C184.119 70.5275 184.824 71.061 185.653 71.4366C186.482 71.8122 187.418 72 188.461 72Z" fill="#C8DDF2"/>
<path fill-rule="evenodd" clip-rule="evenodd" d="M37.8463 69.6595C36.2671 69.6008 34.9751 69.1967 33.9649 68.446C33.7721 68.3026 33.3126 67.8727 33.1585 67.6913C32.7488 67.2095 32.4703 66.7406 32.2845 66.2204C31.7129 64.619 32.0071 62.5175 33.1261 60.2112C34.0841 58.2368 35.5624 56.2785 38.1416 53.5663C38.5215 53.1672 39.6529 52 39.6602 52C39.6629 52 39.6012 52.0999 39.5236 52.2215C38.853 53.2721 38.2792 54.5096 37.9666 55.581C37.4645 57.3 37.5251 58.7752 38.144 59.9191C38.571 60.7072 39.303 61.3898 40.1261 61.7672C41.5671 62.4275 43.6768 62.4821 46.2533 61.927C46.4307 61.8886 55.2205 59.7062 65.7864 57.0772C76.3524 54.4479 84.9986 52.2984 85 52.3002C85.003 52.3025 60.4524 62.1281 47.7078 67.2255C45.6895 68.0325 45.1497 68.2364 44.2009 68.5479C41.7753 69.3446 39.6026 69.7247 37.8463 69.6595Z" fill="#C8DDF2"/>
<path fill-rule="evenodd" clip-rule="evenodd" d="M98.6748 57.667L102.237 61.2297L105.8 57.667L106.141 58.0083L102.579 61.571L106.141 65.1337L105.8 65.475L102.237 61.9123L98.6748 65.475L98.3335 65.1337L101.896 61.571L98.3335 58.0083L98.6748 57.667Z" stroke="#C8DDF2"/>
<path d="M33 136H53.72L55.68 128.32L55.36 128.2C53.24 132 50.64 135 46.44 135.12L37.04 135.4L55.12 107.16V106.72H35.8L33.92 113.96L34.24 114.08C36.32 110.6 38.8 107.8 43.08 107.6L51.12 107.36L33 135.56V136ZM68.0447 136.6C73.5247 136.6 78.0847 132.04 78.0847 126.52C78.0847 121 73.5247 116.36 68.0447 116.36C62.6447 116.36 58.0047 121 58.0047 126.52C58.0047 132.04 62.5647 136.6 68.0447 136.6ZM68.0447 135.84C63.5247 135.84 61.3647 131.48 61.3647 126.52C61.3647 121.52 63.5647 117.12 68.0447 117.12C72.5247 117.12 74.7247 121.52 74.7247 126.52C74.7247 131.48 72.5647 135.84 68.0447 135.84ZM90.1456 134.64C86.2656 134.64 83.8656 131.4 83.8656 126.24C83.8656 120.92 86.6256 117.08 90.5856 117.08C92.6656 117.08 94.9856 118.12 95.5056 121.8V131.76C94.2656 133.48 92.4256 134.64 90.1456 134.64ZM95.5856 132.56H95.7056V136.48L100.226 135.24V135.16C98.9056 134.28 98.4256 133.68 98.4256 129.76V104.84L93.7456 106.76V106.84C94.6656 107.6 95.5056 108.64 95.5056 110.56V117.24C94.2656 116.64 92.8256 116.36 91.1456 116.36C84.5856 116.36 80.6656 121.52 80.6656 127.24C80.6656 132.84 83.7856 136.6 88.5456 136.6C92.0656 136.6 94.4256 134.64 95.5856 132.56ZM107.499 109.64C107.499 108.56 106.619 107.64 105.539 107.64C104.459 107.64 103.539 108.56 103.539 109.64C103.539 110.76 104.459 111.64 105.539 111.64C106.619 111.64 107.499 110.76 107.499 109.64ZM103.339 135.92V136H108.019V135.92C107.219 134.16 107.139 132.56 107.139 129.8V116.16L102.459 118.28V118.44C103.379 119.24 104.219 120.44 104.219 122.4V129.84C104.219 132.6 103.979 134.16 103.339 135.92ZM117.41 134.84C115.17 134.84 114.13 133.64 114.13 131.92C114.13 128.72 118.09 127.16 121.81 126.52V133.16C120.89 134.08 119.21 134.84 117.41 134.84ZM124.77 136.48C126.89 136.48 127.93 134.96 128.33 133.92L128.21 133.84C127.61 134.32 127.05 134.68 126.29 134.68C125.17 134.68 124.73 133.96 124.73 132.96V121.2C124.73 118.68 123.73 116.36 119.41 116.36C116.21 116.36 113.61 117.72 112.01 119.64L112.21 119.88C113.77 118.72 115.81 118.12 117.69 118.12C120.89 118.12 121.81 119.8 121.81 121.92V125.92C117.41 126.44 111.29 128.44 111.29 132.84C111.29 135.28 113.17 136.6 115.77 136.6C118.33 136.6 120.49 135.32 121.81 133.84C121.97 135.32 122.89 136.48 124.77 136.48ZM145.459 131.56L145.219 131.44C143.899 133.32 141.459 134.04 139.219 134.04C134.699 134.04 132.179 130.72 132.179 125.56C132.179 120.24 134.739 117.08 138.619 117.08C141.179 117.08 143.179 119.2 144.659 121.72L144.979 121.64L144.579 117.56C143.659 117.12 141.939 116.36 139.259 116.36C133.979 116.36 129.179 120.56 129.179 126.92C129.179 132.84 132.739 136.6 137.979 136.6C141.819 136.6 144.379 134.6 145.459 131.56ZM155.134 135.92V136H165.814C175.574 136 181.014 130.8 181.014 121.24C181.014 111.76 175.454 106.56 166.214 106.56C160.894 106.56 160.254 106.72 155.134 106.72V106.8C156.374 108.8 156.734 110.04 156.734 112.72V130C156.734 132.72 156.414 133.92 155.134 135.92ZM160.014 107.32L165.854 107.36C173.494 107.4 177.254 111.88 177.254 121.8C177.254 130.52 173.974 135.08 165.454 135.2L160.014 135.28V107.32ZM189.168 134.84C186.928 134.84 185.888 133.64 185.888 131.92C185.888 128.72 189.848 127.16 193.568 126.52V133.16C192.648 134.08 190.968 134.84 189.168 134.84ZM196.528 136.48C198.648 136.48 199.688 134.96 200.088 133.92L199.968 133.84C199.368 134.32 198.808 134.68 198.048 134.68C196.928 134.68 196.488 133.96 196.488 132.96V121.2C196.488 118.68 195.488 116.36 191.168 116.36C187.968 116.36 185.368 117.72 183.768 119.64L183.968 119.88C185.528 118.72 187.567 118.12 189.448 118.12C192.648 118.12 193.568 119.8 193.568 121.92V125.92C189.168 126.44 183.048 128.44 183.048 132.84C183.048 135.28 184.928 136.6 187.528 136.6C190.088 136.6 192.247 135.32 193.568 133.84C193.728 135.32 194.648 136.48 196.528 136.48ZM207.408 136.6C209.648 136.6 211.288 135.48 212.088 134.4L212.008 134.24C211.568 134.52 210.408 135 208.968 135C206.928 135 206.088 133.96 206.088 132V117.68H211.688V116.96H206.088V113.32H205.888L201.008 117.52V117.68H203.168V132C203.168 135.6 205.288 136.6 207.408 136.6ZM220.183 134.84C217.943 134.84 216.903 133.64 216.903 131.92C216.903 128.72 220.863 127.16 224.583 126.52V133.16C223.663 134.08 221.983 134.84 220.183 134.84ZM227.543 136.48C229.663 136.48 230.703 134.96 231.103 133.92L230.983 133.84C230.383 134.32 229.823 134.68 229.063 134.68C227.943 134.68 227.503 133.96 227.503 132.96V121.2C227.503 118.68 226.503 116.36 222.183 116.36C218.983 116.36 216.383 117.72 214.783 119.64L214.983 119.88C216.543 118.72 218.583 118.12 220.463 118.12C223.663 118.12 224.583 119.8 224.583 121.92V125.92C220.183 126.44 214.063 128.44 214.063 132.84C214.063 135.28 215.943 136.6 218.543 136.6C221.103 136.6 223.263 135.32 224.583 133.84C224.743 135.32 225.663 136.48 227.543 136.48ZM50.4 153.64L49.6 147.32C47.84 146.64 45.52 146.12 43.12 146.12C38.16 146.12 34.2 148.36 34.2 153.36C34.2 158.52 38.4 160.24 42.44 162.16C46.08 163.76 49.4 165.52 49.4 169.88C49.4 173.28 47.36 175.8 43.08 175.8C38.92 175.8 36.12 173.6 33.72 168.48L33.4 168.6L34.2 175.08C36.6 176 39.4 176.6 42.12 176.6C47.6 176.6 52.4 174.28 52.4 168.4C52.4 163 48.24 160.92 44.2 159.12C40.36 157.4 36.76 155.92 36.76 151.88C36.76 149.16 38.48 146.92 42.16 146.92C45.16 146.92 47.92 148.48 50.08 153.76L50.4 153.64ZM71.475 171.56L71.235 171.44C69.915 173.32 67.475 174.04 65.235 174.04C60.715 174.04 58.195 170.72 58.195 165.56C58.195 160.24 60.755 157.08 64.635 157.08C67.195 157.08 69.195 159.2 70.675 161.72L70.995 161.64L70.595 157.56C69.675 157.12 67.955 156.36 65.275 156.36C59.995 156.36 55.195 160.56 55.195 166.92C55.195 172.84 58.755 176.6 63.995 176.6C67.835 176.6 70.395 174.6 71.475 171.56ZM79.0222 149.64C79.0222 148.56 78.1422 147.64 77.0622 147.64C75.9822 147.64 75.0622 148.56 75.0622 149.64C75.0622 150.76 75.9822 151.64 77.0622 151.64C78.1422 151.64 79.0222 150.76 79.0222 149.64ZM74.8622 175.92V176H79.5422V175.92C78.7422 174.16 78.6622 172.56 78.6622 169.8V156.16L73.9822 158.28V158.44C74.9022 159.24 75.7422 160.44 75.7422 162.4V169.84C75.7422 172.6 75.5022 174.16 74.8622 175.92ZM99.0578 171.16L98.8578 171.04C97.4578 173.08 95.1378 174.04 92.6978 174.04C88.1778 174.04 85.6178 170.84 85.6178 165.44V164.76C85.6178 164.52 85.6178 164.28 85.6578 164.08H98.9778C99.2978 160.36 96.2978 156.36 91.6578 156.36C87.0178 156.36 82.5778 160.44 82.5778 166.8C82.5778 172.56 86.0978 176.6 91.3778 176.6C95.3378 176.6 98.0578 174.32 99.0578 171.16ZM91.4978 157.08C94.2578 157.08 95.7378 158.92 95.7378 162.92V163.24L85.7378 163.44C86.2578 159.6 88.2978 157.08 91.4978 157.08ZM107.081 176V175.92C106.281 174.16 106.201 172.56 106.201 169.8V160.68C107.761 159.08 109.761 158.32 111.641 158.32C114.681 158.32 115.761 160.4 115.761 162.84V169.84C115.761 172.52 115.641 174.16 114.881 175.92V176H119.561V175.92C118.721 174.2 118.681 172.64 118.681 169.8V162.2C118.681 158.56 116.721 156.36 113.041 156.36C110.361 156.36 108.081 157.68 106.201 159.92L106.041 159.88V156.16L101.521 158.28V158.36C102.441 159.16 103.281 160.32 103.281 162.36V169.84C103.281 172.6 103.161 174.2 102.401 175.92V176H107.081ZM139.092 171.56L138.852 171.44C137.532 173.32 135.092 174.04 132.852 174.04C128.332 174.04 125.812 170.72 125.812 165.56C125.812 160.24 128.372 157.08 132.252 157.08C134.812 157.08 136.812 159.2 138.292 161.72L138.612 161.64L138.212 157.56C137.292 157.12 135.572 156.36 132.892 156.36C127.612 156.36 122.812 160.56 122.812 166.92C122.812 172.84 126.372 176.6 131.612 176.6C135.452 176.6 138.012 174.6 139.092 171.56ZM157.769 171.16L157.569 171.04C156.169 173.08 153.849 174.04 151.409 174.04C146.889 174.04 144.329 170.84 144.329 165.44V164.76C144.329 164.52 144.329 164.28 144.369 164.08H157.689C158.009 160.36 155.009 156.36 150.369 156.36C145.729 156.36 141.289 160.44 141.289 166.8C141.289 172.56 144.809 176.6 150.089 176.6C154.049 176.6 156.769 174.32 157.769 171.16ZM150.209 157.08C152.969 157.08 154.449 158.92 154.449 162.92V163.24L144.449 163.44C144.969 159.6 147.009 157.08 150.209 157.08Z" fill="#C8DDF2"/>
<path d="M34.87 333.638V330.558H36.62C37.684 330.558 38.328 331.16 38.328 332.112C38.328 333.05 37.684 333.638 36.62 333.638H34.87ZM36.872 335.122C38.776 335.122 40.036 333.848 40.036 332.098C40.036 330.362 38.776 329.074 36.872 329.074H33.19V339H34.87V335.122H36.872ZM49.3965 339H51.3005L49.0605 334.912C50.4465 334.576 51.3005 333.498 51.3005 332.084C51.3005 330.404 50.1105 329.074 48.1925 329.074H44.3845V339H46.0785V335.08H47.3105L49.3965 339ZM46.0785 333.596V330.558H47.8845C48.9205 330.558 49.5925 331.16 49.5925 332.084C49.5925 332.994 48.9205 333.596 47.8845 333.596H46.0785ZM56.9452 334.03C56.9452 331.636 58.5972 330.446 60.2632 330.446C61.9432 330.446 63.5952 331.636 63.5952 334.03C63.5952 336.424 61.9432 337.614 60.2632 337.614C58.5972 337.614 56.9452 336.424 56.9452 334.03ZM55.2232 334.03C55.2232 337.292 57.6592 339.21 60.2632 339.21C62.8672 339.21 65.3172 337.292 65.3172 334.03C65.3172 330.782 62.8672 328.864 60.2632 328.864C57.6592 328.864 55.2232 330.782 55.2232 334.03ZM68.9808 336.004C68.9808 337.936 70.2128 339.21 72.1588 339.21C74.0488 339.21 75.2808 337.74 75.2808 335.976V329.074H73.6008V336.018C73.6008 337.026 73.0408 337.628 72.1448 337.628C71.2768 337.628 70.6188 337.11 70.6188 335.948V335.024L68.9808 335.36V336.004ZM86.479 339V337.432H82.027V334.8H86.059V333.274H82.027V330.642H86.479V329.074H80.347V339H86.479ZM95.6645 339.21C98.1985 339.21 99.7105 337.6 100.158 335.92L98.6185 335.416C98.2825 336.536 97.3305 337.6 95.6645 337.6C93.9705 337.6 92.3745 336.368 92.3745 334.044C92.3745 331.636 94.0125 330.446 95.6505 330.446C97.3165 330.446 98.2405 331.412 98.5345 332.616L100.116 332.084C99.6685 330.348 98.1705 328.864 95.6505 328.864C93.0745 328.864 90.6525 330.81 90.6525 334.044C90.6525 337.278 92.9905 339.21 95.6645 339.21ZM111.694 330.656V329.074H103.56V330.656H106.78V339H108.46V330.656H111.694ZM114.91 337.964C114.91 338.58 115.414 339.084 116.044 339.084C116.66 339.084 117.178 338.58 117.178 337.964C117.178 337.334 116.66 336.83 116.044 336.83C115.414 336.83 114.91 337.334 114.91 337.964ZM114.896 333.232C114.896 333.848 115.4 334.352 116.03 334.352C116.646 334.352 117.164 333.848 117.164 333.232C117.164 332.602 116.646 332.098 116.03 332.098C115.4 332.098 114.896 332.602 114.896 333.232ZM131.456 339V329.928H130C129.804 330.88 128.908 331.608 127.606 331.636V332.784H129.804V339H131.456ZM145.162 334.8V339H146.842V334.8L150.342 329.074H148.452L146.058 333.232L143.678 329.074H141.69L145.162 334.8ZM160.6 339V337.432H156.148V334.8H160.18V333.274H156.148V330.642H160.6V329.074H154.468V339H160.6ZM172.206 339H174.04L170.176 329.074H168.23L164.366 339H166.144L167.068 336.508H171.268L172.206 339ZM169.168 330.894L170.68 334.954H167.656L169.168 330.894ZM183.181 339H185.085L182.845 334.912C184.231 334.576 185.085 333.498 185.085 332.084C185.085 330.404 183.895 329.074 181.977 329.074H178.169V339H179.863V335.08H181.095L183.181 339ZM179.863 333.596V330.558H181.669C182.705 330.558 183.377 331.16 183.377 332.084C183.377 332.994 182.705 333.596 181.669 333.596H179.863ZM197.323 341.142V327.814H195.951V341.142H197.323ZM215.896 330.656V329.074H207.762V330.656H210.982V339H212.662V330.656H215.896ZM226.206 339V337.432H221.754V334.8H225.786V333.274H221.754V330.642H226.206V329.074H220.074V339H226.206ZM237.812 339H239.646L235.782 329.074H233.836L229.972 339H231.75L232.674 336.508H236.874L237.812 339ZM234.774 330.894L236.286 334.954H233.262L234.774 330.894ZM254.695 339V329.074H252.413L249.235 336.648L246.015 329.074H243.775V339H245.413V331.72L248.479 339H249.935L253.029 331.692V339H254.695ZM39.714 347.398C39.49 346.292 38.58 344.864 36.242 344.864C34.394 344.864 32.868 346.236 32.868 347.902C32.868 349.386 33.876 350.38 35.388 350.688L36.788 350.982C37.642 351.164 38.118 351.682 38.118 352.326C38.118 353.096 37.502 353.698 36.312 353.698C34.884 353.698 34.142 352.746 34.044 351.71L32.476 352.158C32.63 353.586 33.792 355.21 36.312 355.21C38.58 355.21 39.826 353.74 39.826 352.2C39.826 350.8 38.888 349.694 37.138 349.344L35.71 349.05C34.94 348.882 34.548 348.406 34.548 347.776C34.548 347.02 35.248 346.348 36.256 346.348C37.586 346.348 38.104 347.258 38.202 347.874L39.714 347.398ZM46.0789 355V345.074H44.3709V355H46.0789ZM58.3988 355V353.404H52.7568L58.3288 346.67V345.074H50.8108V346.656H56.1588L50.6568 353.348V355H58.3988ZM69.0911 355V353.432H64.6391V350.8H68.6711V349.274H64.6391V346.642H69.0911V345.074H62.9591V355H69.0911ZM73.7116 353.964C73.7116 354.58 74.2156 355.084 74.8456 355.084C75.4616 355.084 75.9796 354.58 75.9796 353.964C75.9796 353.334 75.4616 352.83 74.8456 352.83C74.2156 352.83 73.7116 353.334 73.7116 353.964ZM73.6976 349.232C73.6976 349.848 74.2016 350.352 74.8316 350.352C75.4476 350.352 75.9656 349.848 75.9656 349.232C75.9656 348.602 75.4476 348.098 74.8316 348.098C74.2016 348.098 73.6976 348.602 73.6976 349.232ZM93.4628 346.166C93.0708 345.914 92.3708 345.718 91.5308 345.718C88.7168 345.718 86.6588 347.706 86.6588 350.996C86.6588 353.32 87.9748 355.21 90.2848 355.21C92.1888 355.21 93.7288 353.95 93.7288 352.06C93.7288 350.198 92.4548 348.994 90.6488 348.994C89.6828 348.994 88.8148 349.344 88.3388 350.072C88.4928 348.308 89.7248 347.174 91.4328 347.174C92.1748 347.174 92.6508 347.356 92.9868 347.538L93.4628 346.166ZM88.5208 352.088C88.5208 351.024 89.3328 350.394 90.2848 350.394C91.2368 350.394 92.0488 351.024 92.0488 352.088C92.0488 353.138 91.2368 353.782 90.2848 353.782C89.3608 353.782 88.5208 353.124 88.5208 352.088ZM106.092 349.638V346.558H107.842C108.906 346.558 109.55 347.16 109.55 348.112C109.55 349.05 108.906 349.638 107.842 349.638H106.092ZM108.094 351.122C109.998 351.122 111.258 349.848 111.258 348.098C111.258 346.362 109.998 345.074 108.094 345.074H104.412V355H106.092V351.122H108.094ZM121.739 355V353.432H117.287V350.8H121.319V349.274H117.287V346.642H121.739V345.074H115.607V355H121.739ZM127.634 350.03C127.634 347.636 129.286 346.446 130.952 346.446C132.632 346.446 134.284 347.636 134.284 350.03C134.284 352.424 132.632 353.614 130.952 353.614C129.286 353.614 127.634 352.424 127.634 350.03ZM125.912 350.03C125.912 353.292 128.348 355.21 130.952 355.21C133.556 355.21 136.006 353.292 136.006 350.03C136.006 346.782 133.556 344.864 130.952 344.864C128.348 344.864 125.912 346.782 125.912 350.03ZM142.26 349.638V346.558H144.01C145.074 346.558 145.718 347.16 145.718 348.112C145.718 349.05 145.074 349.638 144.01 349.638H142.26ZM144.262 351.122C146.166 351.122 147.426 349.848 147.426 348.098C147.426 346.362 146.166 345.074 144.262 345.074H140.58V355H142.26V351.122H144.262ZM158.004 355V353.404H153.454V345.074H151.774V355H158.004ZM168.472 355V353.432H164.02V350.8H168.052V349.274H164.02V346.642H168.472V345.074H162.34V355H168.472Z" fill="#C8DDF2" fill-opacity="0.5"/>
<path d="M82.464 308V290.984H79.152V302.24L72.072 290.984H67.944V308H71.256V295.928L78.984 308H82.464ZM87.4001 300.752C87.4721 299.672 88.3841 298.424 90.0401 298.424C91.8641 298.424 92.6321 299.576 92.6801 300.752H87.4001ZM92.9921 303.824C92.6081 304.88 91.7921 305.624 90.3041 305.624C88.7201 305.624 87.4001 304.496 87.3281 302.936H95.7761C95.7761 302.888 95.8241 302.408 95.8241 301.952C95.8241 298.16 93.6401 295.832 89.9921 295.832C86.9681 295.832 84.1841 298.28 84.1841 302.048C84.1841 306.032 87.0401 308.36 90.2801 308.36C93.1841 308.36 95.0561 306.656 95.6561 304.616L92.9921 303.824ZM103.886 296.192L101.318 303.776L99.1343 296.192H95.7742L99.5423 308H102.782L105.494 299.936L108.254 308H111.446L115.142 296.192H111.974L109.79 303.8L107.246 296.192H103.886ZM125.609 300.848V308H128.921V300.848L134.921 290.984H131.201L127.385 297.728L123.569 290.984H119.681L125.609 300.848ZM138.849 305.456C137.289 305.456 135.849 304.304 135.849 302.096C135.849 299.864 137.289 298.736 138.849 298.736C140.409 298.736 141.849 299.864 141.849 302.096C141.849 304.328 140.409 305.456 138.849 305.456ZM138.849 295.832C135.321 295.832 132.657 298.448 132.657 302.096C132.657 305.72 135.321 308.36 138.849 308.36C142.377 308.36 145.041 305.72 145.041 302.096C145.041 298.448 142.377 295.832 138.849 295.832ZM153.8 296.144C153.56 296.12 153.32 296.096 153.056 296.096C152.048 296.096 150.416 296.384 149.696 297.944V296.192H146.6V308H149.792V302.6C149.792 300.056 151.208 299.264 152.84 299.264C153.128 299.264 153.44 299.288 153.8 299.36V296.144ZM166.534 296.192H162.358L158.278 300.584V290.624H155.086V308H158.278V304.88L159.598 303.488L162.718 308H166.63L161.806 301.16L166.534 296.192ZM167.151 306.08C167.151 307.232 167.967 308.072 169.143 308.072C169.407 308.072 169.671 308 169.767 307.928C169.719 309.248 168.567 310.28 167.487 310.52V312.056C169.263 311.84 171.711 310.352 171.711 306.824C171.711 305.264 170.823 304.064 169.335 304.064C168.087 304.064 167.151 304.928 167.151 306.08ZM193.637 308V290.984H190.325V302.24L183.245 290.984H179.117V308H182.429V295.928L190.157 308H193.637ZM208.1 308H211.7L205.22 290.984H201.38L194.852 308H198.356L199.772 304.112H206.684L208.1 308ZM203.228 294.656L205.58 301.088H200.876L203.228 294.656Z" fill="#C8DDF2"/>
<path fill-rule="evenodd" clip-rule="evenodd" d="M50 295C50 299.6 44.73 307.69 43 310C43 310 41.5 312 41 312C40.5 312 39 310 39 310C37.27 307.69 32 299.6 32 295C32 290.029 36.0294 286 41 286C45.9706 286 50 290.029 50 295ZM41 291C38.7909 291 37 292.791 37 295C37 297.209 38.7909 299 41 299C43.2091 299 45 297.209 45 295C45 292.791 43.2091 291 41 291Z" fill="#C8DDF2"/>
<defs>
<linearGradient id="paint0_linear" x1="0" y1="0" x2="450.336" y2="218.992" gradientUnits="userSpaceOnUse">
<stop stop-color="#585B77"/>
<stop offset="1" stop-color="#484B66"/>
</linearGradient>
</defs>
</svg>
