<svg width="359" height="222" viewBox="0 0 359 222" fill="none" xmlns="http://www.w3.org/2000/svg">
<g id="Group 25 Copy 7">
<g id="Group 23">
<rect id="Mask" width="359" height="222" rx="20" fill="white"/>
<mask id="mask0" mask-type="alpha" maskUnits="userSpaceOnUse" x="0" y="0" width="359" height="222">
<rect id="Mask_2" width="359" height="222" rx="20" fill="white"/>
</mask>
<g mask="url(#mask0)">
<g id="Group 23_2">
<rect id="Rectangle" width="359" height="222" fill="#484B66"/>
<path id="Gradient BG Copy" fill-rule="evenodd" clip-rule="evenodd" d="M0 0H359V54.5L0 168.5L0 0Z" fill="#585B77"/>
</g>
</g>
</g>
<g id="Group 144">
<g id="gsx">
<g id="Group 6">
<path id="ZODIAC" fill-rule="evenodd" clip-rule="evenodd" d="M140.698 57C139.775 57 138.928 56.825 138.159 56.475C137.39 56.1251 136.732 55.6172 136.185 54.9513C135.638 54.2855 135.21 53.4575 134.903 52.4674C134.595 51.4772 134.441 50.3419 134.441 49.0615C134.441 47.2177 134.676 45.5531 135.146 44.0679C135.616 42.5826 136.249 41.315 137.044 40.265C137.839 39.2151 138.757 38.4085 139.8 37.8451C140.843 37.2817 141.937 37 143.083 37C144.04 37 144.899 37.1835 145.66 37.5506C146.42 37.9176 147.061 38.4383 147.583 39.1127C148.104 39.787 148.502 40.6022 148.775 41.5583C149.049 42.5143 149.185 43.5728 149.185 44.7337C149.185 46.4409 148.976 48.0371 148.557 49.5224C148.138 51.0077 147.553 52.3052 146.801 53.4149C146.049 54.5245 145.155 55.3995 144.121 56.0397C143.087 56.6799 141.946 57 140.698 57ZM133.103 56.6671H120L120.051 56.2574L125.282 46.8335C125.795 45.8946 126.317 45.0196 126.847 44.2087C127.376 43.3978 127.915 42.6253 128.462 41.8912H122.949L123.513 37.3585H136.129L136.052 37.8963L130.078 48.4213C129.975 48.609 129.842 48.831 129.68 49.0871C129.518 49.3432 129.342 49.6419 129.154 49.9834L127.795 52.2625C128.325 52.2283 128.748 52.1985 129.065 52.1729C129.381 52.1472 129.582 52.1344 129.667 52.1344H133.693L133.103 56.6671ZM142.518 41.8656C143.407 41.8656 143.852 42.8643 143.852 44.8617C143.852 45.8348 143.783 46.761 143.647 47.6402C143.51 48.5194 143.318 49.2919 143.07 49.9577C142.822 50.6236 142.535 51.1528 142.211 51.5455C141.886 51.9381 141.535 52.1344 141.159 52.1344C140.236 52.1344 139.775 51.0845 139.775 48.9846C139.775 48.0798 139.847 47.2006 139.993 46.347C140.138 45.4934 140.33 44.7337 140.57 44.0679C140.809 43.402 141.095 42.8685 141.429 42.4674C141.762 42.0662 142.125 41.8656 142.518 41.8656ZM148.113 56.6671L150.472 37.3585H154.908C156.207 37.3585 157.335 37.5506 158.293 37.9347C159.25 38.3188 160.045 38.8523 160.678 39.5352C161.31 40.2181 161.78 41.0376 162.088 41.9936C162.396 42.9496 162.549 43.991 162.549 45.1178C162.549 47.9347 161.951 50.3589 160.754 52.3905C159.866 53.8929 158.801 54.9812 157.562 55.6556C156.323 56.3299 154.771 56.6671 152.908 56.6671H148.113ZM155.241 51.4942C154.814 51.8186 154.344 51.9893 153.831 52.0064L155.036 42.1729H155.19C155.857 42.1729 156.37 42.4802 156.729 43.0948C157.088 43.7094 157.267 44.6056 157.267 45.7836C157.267 46.6714 157.186 47.4908 157.024 48.242C156.861 48.9932 156.63 49.6419 156.331 50.1882C156.032 50.7345 155.669 51.1699 155.241 51.4942ZM166.481 56.6671H161.656L164.015 37.3585H169.144L166.942 55.3835L166.481 56.6671ZM166.942 55.3835L173.405 37.3585H179.713L181.354 56.6671H175.969V54.2087H172.482L171.789 56.6671H166.785L166.942 55.3835ZM175.892 50.0858L175.826 42.0683C175.826 42.0683 175.734 42.6679 175.674 42.8899C175.614 43.1118 175.567 43.3082 175.533 43.4789L173.687 50.0858H175.892ZM188.461 57C189.384 57 190.436 56.7695 191.615 56.3086L192.615 50.726C191.607 51.5625 190.658 51.9808 189.769 51.9808C188.88 51.9808 188.205 51.6692 187.743 51.0461C187.282 50.423 187.051 49.5139 187.051 48.3188C187.051 47.3799 187.149 46.5134 187.346 45.7196C187.542 44.9257 187.82 44.2386 188.179 43.6581C188.538 43.0777 188.966 42.6295 189.461 42.3137C189.957 41.9979 190.504 41.8399 191.102 41.8399C191.923 41.8399 192.667 42.2241 193.333 42.9923L194 37.4866C193.162 37.1622 192.316 37 191.461 37C190.06 37 188.765 37.303 187.577 37.9091C186.388 38.5152 185.358 39.3559 184.487 40.4315C183.615 41.507 182.935 42.7874 182.448 44.2727C181.961 45.758 181.717 47.3798 181.717 49.1383C181.717 50.3163 181.875 51.3875 182.192 52.3521C182.508 53.3167 182.957 54.1447 183.538 54.8361C184.119 55.5275 184.824 56.061 185.653 56.4366C186.482 56.8122 187.418 57 188.461 57Z" fill="#C8DDF2"/>
<path id="Path Copy" fill-rule="evenodd" clip-rule="evenodd" d="M37.8463 54.6595C36.2671 54.6008 34.9751 54.1967 33.9649 53.446C33.7721 53.3026 33.3126 52.8727 33.1585 52.6913C32.7488 52.2095 32.4703 51.7406 32.2845 51.2204C31.7129 49.619 32.0071 47.5175 33.1261 45.2112C34.0841 43.2368 35.5624 41.2785 38.1416 38.5663C38.5215 38.1672 39.6529 37 39.6602 37C39.6629 37 39.6012 37.0999 39.5236 37.2215C38.853 38.2721 38.2792 39.5096 37.9666 40.581C37.4645 42.3 37.5251 43.7752 38.144 44.9191C38.571 45.7072 39.303 46.3898 40.1261 46.7672C41.5671 47.4275 43.6768 47.4821 46.2533 46.927C46.4307 46.8886 55.2205 44.7062 65.7864 42.0772C76.3524 39.4479 84.9986 37.2984 85 37.3002C85.003 37.3025 60.4524 47.1281 47.7078 52.2255C45.6895 53.0325 45.1497 53.2364 44.2009 53.5479C41.7753 54.3446 39.6026 54.7247 37.8463 54.6595Z" fill="#C8DDF2"/>
<g id="Group 5">
<path id="Close" fill-rule="evenodd" clip-rule="evenodd" d="M98.6747 42.666L102.237 46.2287L105.8 42.666L106.141 43.0073L102.579 46.57L106.141 50.1327L105.8 50.474L102.237 46.9113L98.6747 50.474L98.3333 50.1327L101.896 46.57L98.3333 43.0073L98.6747 42.666Z" stroke="#C8DDF2"/>
</g>
</g>
</g>
<path id="Zodiac Data Science" d="M33 121H53.72L55.68 113.32L55.36 113.2C53.24 117 50.64 120 46.44 120.12L37.04 120.4L55.12 92.16V91.72H35.8L33.92 98.96L34.24 99.08C36.32 95.6 38.8 92.8 43.08 92.6L51.12 92.36L33 120.56V121ZM68.0447 121.6C73.5247 121.6 78.0847 117.04 78.0847 111.52C78.0847 106 73.5247 101.36 68.0447 101.36C62.6447 101.36 58.0047 106 58.0047 111.52C58.0047 117.04 62.5647 121.6 68.0447 121.6ZM68.0447 120.84C63.5247 120.84 61.3647 116.48 61.3647 111.52C61.3647 106.52 63.5647 102.12 68.0447 102.12C72.5247 102.12 74.7247 106.52 74.7247 111.52C74.7247 116.48 72.5647 120.84 68.0447 120.84ZM90.1456 119.64C86.2656 119.64 83.8656 116.4 83.8656 111.24C83.8656 105.92 86.6256 102.08 90.5856 102.08C92.6656 102.08 94.9856 103.12 95.5056 106.8V116.76C94.2656 118.48 92.4256 119.64 90.1456 119.64ZM95.5856 117.56H95.7056V121.48L100.226 120.24V120.16C98.9056 119.28 98.4256 118.68 98.4256 114.76V89.84L93.7456 91.76V91.84C94.6656 92.6 95.5056 93.64 95.5056 95.56V102.24C94.2656 101.64 92.8256 101.36 91.1456 101.36C84.5856 101.36 80.6656 106.52 80.6656 112.24C80.6656 117.84 83.7856 121.6 88.5456 121.6C92.0656 121.6 94.4256 119.64 95.5856 117.56ZM107.499 94.64C107.499 93.56 106.619 92.64 105.539 92.64C104.459 92.64 103.539 93.56 103.539 94.64C103.539 95.76 104.459 96.64 105.539 96.64C106.619 96.64 107.499 95.76 107.499 94.64ZM103.339 120.92V121H108.019V120.92C107.219 119.16 107.139 117.56 107.139 114.8V101.16L102.459 103.28V103.44C103.379 104.24 104.219 105.44 104.219 107.4V114.84C104.219 117.6 103.979 119.16 103.339 120.92ZM117.41 119.84C115.17 119.84 114.13 118.64 114.13 116.92C114.13 113.72 118.09 112.16 121.81 111.52V118.16C120.89 119.08 119.21 119.84 117.41 119.84ZM124.77 121.48C126.89 121.48 127.93 119.96 128.33 118.92L128.21 118.84C127.61 119.32 127.05 119.68 126.29 119.68C125.17 119.68 124.73 118.96 124.73 117.96V106.2C124.73 103.68 123.73 101.36 119.41 101.36C116.21 101.36 113.61 102.72 112.01 104.64L112.21 104.88C113.77 103.72 115.81 103.12 117.69 103.12C120.89 103.12 121.81 104.8 121.81 106.92V110.92C117.41 111.44 111.29 113.44 111.29 117.84C111.29 120.28 113.17 121.6 115.77 121.6C118.33 121.6 120.49 120.32 121.81 118.84C121.97 120.32 122.89 121.48 124.77 121.48ZM145.459 116.56L145.219 116.44C143.899 118.32 141.459 119.04 139.219 119.04C134.699 119.04 132.179 115.72 132.179 110.56C132.179 105.24 134.739 102.08 138.619 102.08C141.179 102.08 143.179 104.2 144.659 106.72L144.979 106.64L144.579 102.56C143.659 102.12 141.939 101.36 139.259 101.36C133.979 101.36 129.179 105.56 129.179 111.92C129.179 117.84 132.739 121.6 137.979 121.6C141.819 121.6 144.379 119.6 145.459 116.56ZM155.134 120.92V121H165.814C175.574 121 181.014 115.8 181.014 106.24C181.014 96.76 175.454 91.56 166.214 91.56C160.894 91.56 160.254 91.72 155.134 91.72V91.8C156.374 93.8 156.734 95.04 156.734 97.72V115C156.734 117.72 156.414 118.92 155.134 120.92ZM160.014 92.32L165.854 92.36C173.494 92.4 177.254 96.88 177.254 106.8C177.254 115.52 173.974 120.08 165.454 120.2L160.014 120.28V92.32ZM189.168 119.84C186.928 119.84 185.888 118.64 185.888 116.92C185.888 113.72 189.848 112.16 193.568 111.52V118.16C192.648 119.08 190.968 119.84 189.168 119.84ZM196.528 121.48C198.648 121.48 199.688 119.96 200.088 118.92L199.968 118.84C199.368 119.32 198.808 119.68 198.048 119.68C196.928 119.68 196.488 118.96 196.488 117.96V106.2C196.488 103.68 195.488 101.36 191.168 101.36C187.968 101.36 185.368 102.72 183.768 104.64L183.968 104.88C185.528 103.72 187.567 103.12 189.448 103.12C192.648 103.12 193.568 104.8 193.568 106.92V110.92C189.168 111.44 183.048 113.44 183.048 117.84C183.048 120.28 184.928 121.6 187.528 121.6C190.088 121.6 192.247 120.32 193.568 118.84C193.728 120.32 194.648 121.48 196.528 121.48ZM207.408 121.6C209.648 121.6 211.288 120.48 212.088 119.4L212.008 119.24C211.568 119.52 210.408 120 208.968 120C206.928 120 206.088 118.96 206.088 117V102.68H211.688V101.96H206.088V98.32H205.888L201.008 102.52V102.68H203.168V117C203.168 120.6 205.288 121.6 207.408 121.6ZM220.183 119.84C217.943 119.84 216.903 118.64 216.903 116.92C216.903 113.72 220.863 112.16 224.583 111.52V118.16C223.663 119.08 221.983 119.84 220.183 119.84ZM227.543 121.48C229.663 121.48 230.703 119.96 231.103 118.92L230.983 118.84C230.383 119.32 229.823 119.68 229.063 119.68C227.943 119.68 227.503 118.96 227.503 117.96V106.2C227.503 103.68 226.503 101.36 222.183 101.36C218.983 101.36 216.383 102.72 214.783 104.64L214.983 104.88C216.543 103.72 218.583 103.12 220.463 103.12C223.663 103.12 224.583 104.8 224.583 106.92V110.92C220.183 111.44 214.063 113.44 214.063 117.84C214.063 120.28 215.943 121.6 218.543 121.6C221.103 121.6 223.263 120.32 224.583 118.84C224.743 120.32 225.663 121.48 227.543 121.48ZM50.4 138.64L49.6 132.32C47.84 131.64 45.52 131.12 43.12 131.12C38.16 131.12 34.2 133.36 34.2 138.36C34.2 143.52 38.4 145.24 42.44 147.16C46.08 148.76 49.4 150.52 49.4 154.88C49.4 158.28 47.36 160.8 43.08 160.8C38.92 160.8 36.12 158.6 33.72 153.48L33.4 153.6L34.2 160.08C36.6 161 39.4 161.6 42.12 161.6C47.6 161.6 52.4 159.28 52.4 153.4C52.4 148 48.24 145.92 44.2 144.12C40.36 142.4 36.76 140.92 36.76 136.88C36.76 134.16 38.48 131.92 42.16 131.92C45.16 131.92 47.92 133.48 50.08 138.76L50.4 138.64ZM71.475 156.56L71.235 156.44C69.915 158.32 67.475 159.04 65.235 159.04C60.715 159.04 58.195 155.72 58.195 150.56C58.195 145.24 60.755 142.08 64.635 142.08C67.195 142.08 69.195 144.2 70.675 146.72L70.995 146.64L70.595 142.56C69.675 142.12 67.955 141.36 65.275 141.36C59.995 141.36 55.195 145.56 55.195 151.92C55.195 157.84 58.755 161.6 63.995 161.6C67.835 161.6 70.395 159.6 71.475 156.56ZM79.0222 134.64C79.0222 133.56 78.1422 132.64 77.0622 132.64C75.9822 132.64 75.0622 133.56 75.0622 134.64C75.0622 135.76 75.9822 136.64 77.0622 136.64C78.1422 136.64 79.0222 135.76 79.0222 134.64ZM74.8622 160.92V161H79.5422V160.92C78.7422 159.16 78.6622 157.56 78.6622 154.8V141.16L73.9822 143.28V143.44C74.9022 144.24 75.7422 145.44 75.7422 147.4V154.84C75.7422 157.6 75.5022 159.16 74.8622 160.92ZM99.0578 156.16L98.8578 156.04C97.4578 158.08 95.1378 159.04 92.6978 159.04C88.1778 159.04 85.6178 155.84 85.6178 150.44V149.76C85.6178 149.52 85.6178 149.28 85.6578 149.08H98.9778C99.2978 145.36 96.2978 141.36 91.6578 141.36C87.0178 141.36 82.5778 145.44 82.5778 151.8C82.5778 157.56 86.0978 161.6 91.3778 161.6C95.3378 161.6 98.0578 159.32 99.0578 156.16ZM91.4978 142.08C94.2578 142.08 95.7378 143.92 95.7378 147.92V148.24L85.7378 148.44C86.2578 144.6 88.2978 142.08 91.4978 142.08ZM107.081 161V160.92C106.281 159.16 106.201 157.56 106.201 154.8V145.68C107.761 144.08 109.761 143.32 111.641 143.32C114.681 143.32 115.761 145.4 115.761 147.84V154.84C115.761 157.52 115.641 159.16 114.881 160.92V161H119.561V160.92C118.721 159.2 118.681 157.64 118.681 154.8V147.2C118.681 143.56 116.721 141.36 113.041 141.36C110.361 141.36 108.081 142.68 106.201 144.92L106.041 144.88V141.16L101.521 143.28V143.36C102.441 144.16 103.281 145.32 103.281 147.36V154.84C103.281 157.6 103.161 159.2 102.401 160.92V161H107.081ZM139.092 156.56L138.852 156.44C137.532 158.32 135.092 159.04 132.852 159.04C128.332 159.04 125.812 155.72 125.812 150.56C125.812 145.24 128.372 142.08 132.252 142.08C134.812 142.08 136.812 144.2 138.292 146.72L138.612 146.64L138.212 142.56C137.292 142.12 135.572 141.36 132.892 141.36C127.612 141.36 122.812 145.56 122.812 151.92C122.812 157.84 126.372 161.6 131.612 161.6C135.452 161.6 138.012 159.6 139.092 156.56ZM157.769 156.16L157.569 156.04C156.169 158.08 153.849 159.04 151.409 159.04C146.889 159.04 144.329 155.84 144.329 150.44V149.76C144.329 149.52 144.329 149.28 144.369 149.08H157.689C158.009 145.36 155.009 141.36 150.369 141.36C145.729 141.36 141.289 145.44 141.289 151.8C141.289 157.56 144.809 161.6 150.089 161.6C154.049 161.6 156.769 159.32 157.769 156.16ZM150.209 142.08C152.969 142.08 154.449 143.92 154.449 147.92V148.24L144.449 148.44C144.969 144.6 147.009 142.08 150.209 142.08Z" fill="#C8DDF2"/>
</g>
</g>
</svg>
