<svg width="36" height="36" viewBox="0 0 36 36" fill="none" xmlns="http://www.w3.org/2000/svg">
<g clip-path="url(#clip0_2140_2370)">
<path fill-rule="evenodd" clip-rule="evenodd" d="M6.85195 0H29.1515C32.9344 0 36 3.06563 36 6.85195V29.1515C36 32.9344 32.9344 36.0035 29.148 36.0035H6.85195C3.06563 36 0 32.9344 0 29.1481V6.85195C0 3.06563 3.06563 0 6.85195 0Z" fill="#50C800"/>
<path fill-rule="evenodd" clip-rule="evenodd" d="M36.0015 23.2565V12.8432C35.5937 11.8483 34.9925 10.9518 34.2473 10.1995C34.3141 9.08148 34.0644 7.94945 33.4844 6.94047C33.1047 6.27953 32.1871 6.1846 31.6739 6.75414L30.5102 8.04438C30.5032 8.04086 30.4961 8.04086 30.4891 8.03735C30.6403 6.8596 30.4398 5.64321 29.8632 4.55687C29.5047 3.88187 28.7278 3.76235 28.1934 4.31079L22.6035 9.97445C22.5403 10.0342 22.4734 10.0975 22.4102 10.1608C22.4066 10.1643 22.3996 10.1678 22.3961 10.1713C19.9668 12.3721 16.1805 12.4635 13.8672 10.442C13.723 10.2838 13.5719 10.1327 13.4137 9.98499L7.81328 4.3143C7.27891 3.76586 6.50195 3.8854 6.14336 4.5604C5.57032 5.64321 5.36641 6.85258 5.51407 8.02328C5.50351 8.02679 5.49297 8.02679 5.48242 8.03031L4.33281 6.75414C3.81954 6.1846 2.90195 6.27953 2.51875 6.94047C1.94922 7.92836 1.69961 9.03577 1.75234 10.1326C1.01758 10.8569 0.419921 11.7217 -0.00195312 12.6815V23.4216C1.26016 26.3011 4.13593 28.3155 7.4793 28.3155H7.83788C11.1531 28.3155 14.0078 26.3362 15.284 23.4955C16.511 23.4885 17.4003 23.485 17.9524 23.485C19.1476 23.4815 20.0793 23.4815 20.7473 23.4815C22.02 26.3291 24.8817 28.3155 28.2003 28.3155H28.4535C31.8602 28.3155 34.7781 26.2236 36.0015 23.2565Z" fill="#8EE000"/>
<path fill-rule="evenodd" clip-rule="evenodd" d="M7.98593 10.6875C11.1219 10.6875 13.6672 13.2293 13.6672 16.3688V19.7332C13.6672 22.8691 11.1254 25.4145 7.98593 25.4145C4.85 25.4145 2.30469 22.8727 2.30469 19.7332V16.3688C2.30469 13.2293 4.85 10.6875 7.98593 10.6875Z" fill="white"/>
<path fill-rule="evenodd" clip-rule="evenodd" d="M27.9441 10.6875C31.08 10.6875 33.6253 13.2293 33.6253 16.3688V19.7332C33.6253 22.8691 31.0834 25.4145 27.9441 25.4145C24.808 25.4145 22.2627 22.8727 22.2627 19.7332V16.3688C22.2627 13.2293 24.8046 10.6875 27.9441 10.6875Z" fill="white"/>
<path fill-rule="evenodd" clip-rule="evenodd" d="M8.86053 13.9502C10.3477 13.9502 11.557 15.1561 11.557 16.6467V19.526C11.557 21.0131 10.3512 22.2224 8.86053 22.2224C7.37343 22.2224 6.16406 21.0166 6.16406 19.526V16.6467C6.16406 15.1561 7.37343 13.9502 8.86053 13.9502Z" fill="#4B4B4B"/>
<path fill-rule="evenodd" clip-rule="evenodd" d="M18.0008 20.4863C19.7058 20.4863 21.0875 21.868 21.0875 23.573V24.6453C21.0875 26.3504 19.7058 27.732 18.0008 27.732C16.2957 27.732 14.9141 26.3504 14.9141 24.6453V23.573C14.9141 21.868 16.2957 20.4863 18.0008 20.4863Z" fill="#F48000"/>
<path d="M13.7402 23.8685C14.1094 21.8999 15.934 20.4795 18.1172 20.4795C20.1035 20.4795 21.9 21.935 22.2621 23.8685V24.0268C22.2621 24.1499 22.2199 24.199 22.1074 24.185L18.1208 24.8951C18.0118 24.8951 17.9976 24.8951 17.8852 24.8951L13.8949 24.1814C13.7824 24.1956 13.7402 24.1463 13.7402 24.0233V23.8685Z" fill="#FFC200"/>
<path fill-rule="evenodd" clip-rule="evenodd" d="M17.347 21.1613C17.5545 21.1122 17.7689 21.084 17.9833 21.084C18.2118 21.084 18.444 21.1122 18.6725 21.172C19.1365 21.2915 19.4599 21.7098 19.4599 22.1879C19.4599 22.5747 19.147 22.884 18.7638 22.884H17.2381C16.8513 22.884 16.542 22.5711 16.542 22.1879C16.5384 21.7028 16.8725 21.2774 17.347 21.1613Z" fill="#FFE747"/>
<path fill-rule="evenodd" clip-rule="evenodd" d="M27.0685 13.9502C28.5557 13.9502 29.765 15.1561 29.765 16.6467V19.526C29.765 21.0131 28.5592 22.2224 27.0685 22.2224C25.5814 22.2224 24.3721 21.0166 24.3721 19.526V16.6467C24.3755 15.1561 25.5814 13.9502 27.0685 13.9502Z" fill="#4B4B4B"/>
<path d="M6.58202 17.2193C7.54314 17.2193 8.32226 16.4433 8.32226 15.4861C8.32226 14.529 7.54314 13.7529 6.58202 13.7529C5.62092 13.7529 4.8418 14.529 4.8418 15.4861C4.8418 16.4433 5.62092 17.2193 6.58202 17.2193Z" fill="white"/>
<path d="M24.5264 17.2193C25.4874 17.2193 26.2666 16.4433 26.2666 15.4861C26.2666 14.529 25.4874 13.7529 24.5264 13.7529C23.5652 13.7529 22.7861 14.529 22.7861 15.4861C22.7861 16.4433 23.5652 17.2193 24.5264 17.2193Z" fill="white"/>
</g>
<defs>
<clipPath id="clip0_2140_2370">
<rect width="36" height="36" fill="white"/>
</clipPath>
</defs>
</svg>
