<svg width="440" height="365" viewBox="0 0 440 365" fill="none" xmlns="http://www.w3.org/2000/svg">
<rect width="440" height="365" rx="8" fill="#9069CD"/>
<path d="M47.5327 302.295H45.5064L41.2876 317.969H43.3139L47.5327 302.295ZM52.1363 316H54.5078V311.577H57.0135C60.0369 311.577 61.6605 309.761 61.6605 307.243C61.6605 304.744 60.0561 302.909 57.0454 302.909H52.1363V316ZM54.5078 309.627V304.891H56.6811C58.4581 304.891 59.2443 305.849 59.2443 307.243C59.2443 308.636 58.4581 309.627 56.6939 309.627H54.5078ZM62.8981 316H65.212V310.228C65.212 308.982 66.1516 308.099 67.4236 308.099C67.8135 308.099 68.2993 308.17 68.4975 308.234V306.105C68.2866 306.067 67.9222 306.041 67.6665 306.041C66.5415 306.041 65.6019 306.68 65.2439 307.818H65.1417V306.182H62.8981V316ZM73.1932 316.192C76.0696 316.192 77.8977 314.165 77.8977 311.129C77.8977 308.087 76.0696 306.054 73.1932 306.054C70.3167 306.054 68.4886 308.087 68.4886 311.129C68.4886 314.165 70.3167 316.192 73.1932 316.192ZM73.2059 314.338C71.6143 314.338 70.8345 312.919 70.8345 311.123C70.8345 309.327 71.6143 307.888 73.2059 307.888C74.772 307.888 75.5518 309.327 75.5518 311.123C75.5518 312.919 74.772 314.338 73.2059 314.338ZM79.1417 306.182V316.531C79.1417 317.355 78.7901 317.796 77.9016 317.796C77.7865 317.796 77.6971 317.79 77.5692 317.783V319.669C77.7354 319.682 77.876 319.682 78.0422 319.682C80.2091 319.682 81.4556 318.685 81.4556 316.562V306.182H79.1417ZM80.2922 304.788C81.0273 304.788 81.6282 304.226 81.6282 303.536C81.6282 302.839 81.0273 302.276 80.2922 302.276C79.5507 302.276 78.9499 302.839 78.9499 303.536C78.9499 304.226 79.5507 304.788 80.2922 304.788ZM87.4616 316.192C89.75 316.192 91.3224 315.073 91.7315 313.366L89.571 313.124C89.2578 313.955 88.4907 314.389 87.4936 314.389C85.9978 314.389 85.0071 313.405 84.9879 311.724H91.8274V311.014C91.8274 307.569 89.7563 306.054 87.3402 306.054C84.5277 306.054 82.6931 308.119 82.6931 311.148C82.6931 314.229 84.5021 316.192 87.4616 316.192ZM84.9943 310.164C85.0646 308.911 85.9914 307.857 87.3721 307.857C88.7017 307.857 89.5965 308.828 89.6093 310.164H84.9943ZM97.3476 316.192C99.8149 316.192 101.387 314.728 101.554 312.644H99.3419C99.1438 313.699 98.3831 314.306 97.3668 314.306C95.9222 314.306 94.9889 313.098 94.9889 311.091C94.9889 309.109 95.9414 307.92 97.3668 307.92C98.479 307.92 99.1629 308.636 99.3419 309.582H101.554C101.394 307.454 99.7318 306.054 97.3348 306.054C94.4584 306.054 92.6431 308.131 92.6431 311.129C92.6431 314.102 94.4137 316.192 97.3476 316.192ZM107.636 306.182H105.7V303.83H103.386V306.182H101.992V307.972H103.386V313.43C103.373 315.278 104.715 316.185 106.454 316.134C107.112 316.115 107.566 315.987 107.815 315.904L107.425 314.095C107.298 314.127 107.035 314.185 106.748 314.185C106.166 314.185 105.7 313.98 105.7 313.047V307.972H107.636V306.182ZM110.277 316.141C111.031 316.141 111.677 315.514 111.683 314.734C111.677 313.967 111.031 313.341 110.277 313.341C109.497 313.341 108.864 313.967 108.871 314.734C108.864 315.514 109.497 316.141 110.277 316.141ZM110.277 309.129C111.031 309.129 111.677 308.502 111.683 307.722C111.677 306.955 111.031 306.329 110.277 306.329C109.497 306.329 108.864 306.955 108.871 307.722C108.864 308.502 109.497 309.129 110.277 309.129ZM128.405 307.326C128.002 304.418 125.765 302.73 122.863 302.73C119.443 302.73 116.867 305.223 116.867 309.455C116.867 313.68 119.411 316.179 122.863 316.179C125.976 316.179 128.04 314.165 128.405 311.666L126.014 311.653C125.714 313.188 124.461 314.05 122.895 314.05C120.772 314.05 119.251 312.459 119.251 309.455C119.251 306.501 120.76 304.859 122.901 304.859C124.493 304.859 125.739 305.76 126.014 307.326H128.405ZM136.012 311.871C136.012 313.366 134.944 314.108 133.922 314.108C132.809 314.108 132.068 313.322 132.068 312.075V306.182H129.754V312.433C129.754 314.792 131.096 316.128 133.027 316.128C134.497 316.128 135.532 315.354 135.98 314.255H136.082V316H138.326V306.182H136.012V311.871ZM139.985 316H142.299V310.228C142.299 308.982 143.239 308.099 144.511 308.099C144.901 308.099 145.386 308.17 145.585 308.234V306.105C145.374 306.067 145.009 306.041 144.754 306.041C143.629 306.041 142.689 306.68 142.331 307.818H142.229V306.182H139.985V316ZM146.402 316H148.716V310.228C148.716 308.982 149.655 308.099 150.927 308.099C151.317 308.099 151.803 308.17 152.001 308.234V306.105C151.79 306.067 151.426 306.041 151.17 306.041C150.045 306.041 149.106 306.68 148.748 307.818H148.645V306.182H146.402V316ZM156.761 316.192C159.049 316.192 160.622 315.073 161.031 313.366L158.87 313.124C158.557 313.955 157.79 314.389 156.793 314.389C155.297 314.389 154.306 313.405 154.287 311.724H161.127V311.014C161.127 307.569 159.056 306.054 156.639 306.054C153.827 306.054 151.992 308.119 151.992 311.148C151.992 314.229 153.801 316.192 156.761 316.192ZM154.294 310.164C154.364 308.911 155.291 307.857 156.671 307.857C158.001 307.857 158.896 308.828 158.909 310.164H154.294ZM164.678 310.247C164.678 308.828 165.535 308.01 166.756 308.01C167.951 308.01 168.667 308.796 168.667 310.107V316H170.981V309.749C170.987 307.396 169.645 306.054 167.618 306.054C166.148 306.054 165.138 306.757 164.691 307.85H164.576V306.182H162.364V316H164.678V310.247ZM177.516 306.182H175.579V303.83H173.265V306.182H171.872V307.972H173.265V313.43C173.252 315.278 174.595 316.185 176.333 316.134C176.992 316.115 177.445 315.987 177.695 315.904L177.305 314.095C177.177 314.127 176.915 314.185 176.627 314.185C176.046 314.185 175.579 313.98 175.579 313.047V307.972H177.516V306.182Z" fill="white" fill-opacity="0.5"/>
<path d="M201.533 302.295H199.506L195.288 317.969H197.314L201.533 302.295ZM205.561 304.897H209.607V316H211.96V304.897H216.006V302.909H205.561V304.897ZM220.12 316.192C222.408 316.192 223.98 315.073 224.39 313.366L222.229 313.124C221.916 313.955 221.149 314.389 220.152 314.389C218.656 314.389 217.665 313.405 217.646 311.724H224.485V311.014C224.485 307.569 222.414 306.054 219.998 306.054C217.186 306.054 215.351 308.119 215.351 311.148C215.351 314.229 217.16 316.192 220.12 316.192ZM217.652 310.164C217.723 308.911 218.649 307.857 220.03 307.857C221.36 307.857 222.255 308.828 222.267 310.164H217.652ZM228.548 316.198C230.089 316.198 231.009 315.476 231.431 314.651H231.508V316H233.732V309.429C233.732 306.834 231.616 306.054 229.744 306.054C227.679 306.054 226.094 306.974 225.582 308.764L227.743 309.071C227.973 308.4 228.625 307.825 229.756 307.825C230.83 307.825 231.418 308.374 231.418 309.339V309.378C231.418 310.043 230.722 310.075 228.989 310.26C227.084 310.464 225.263 311.033 225.263 313.245C225.263 315.175 226.675 316.198 228.548 316.198ZM229.149 314.498C228.184 314.498 227.494 314.057 227.494 313.207C227.494 312.318 228.267 311.947 229.303 311.8C229.91 311.717 231.124 311.564 231.425 311.321V312.478C231.425 313.571 230.543 314.498 229.149 314.498ZM235.339 316H237.653V310.03C237.653 308.822 238.458 308.004 239.455 308.004C240.433 308.004 241.105 308.662 241.105 309.672V316H243.374V309.876C243.374 308.771 244.032 308.004 245.151 308.004C246.084 308.004 246.825 308.553 246.825 309.768V316H249.146V309.41C249.146 307.217 247.88 306.054 246.078 306.054C244.652 306.054 243.565 306.757 243.131 307.85H243.029C242.651 306.738 241.699 306.054 240.376 306.054C239.059 306.054 238.075 306.732 237.666 307.85H237.551V306.182H235.339V316ZM261.735 306.508H264.017C263.972 304.296 262.086 302.73 259.299 302.73C256.551 302.73 254.486 304.277 254.492 306.591C254.492 308.47 255.828 309.55 257.983 310.107L259.472 310.49C260.885 310.848 261.818 311.289 261.824 312.305C261.818 313.424 260.757 314.172 259.21 314.172C257.727 314.172 256.576 313.507 256.48 312.133H254.147C254.243 314.734 256.18 316.198 259.229 316.198C262.367 316.198 264.189 314.632 264.196 312.325C264.189 310.055 262.316 309.02 260.348 308.553L259.12 308.246C258.046 307.991 256.883 307.537 256.896 306.444C256.902 305.46 257.784 304.737 259.267 304.737C260.68 304.737 261.613 305.396 261.735 306.508ZM265.488 316H267.801V306.182H265.488V316ZM266.651 304.788C267.386 304.788 267.987 304.226 267.987 303.536C267.987 302.839 267.386 302.276 266.651 302.276C265.909 302.276 265.309 302.839 265.309 303.536C265.309 304.226 265.909 304.788 266.651 304.788ZM269.333 316H277.393V314.082H272.408V313.999L277.227 307.761V306.182H269.499V308.099H274.396V308.183L269.333 314.53V316ZM282.914 316.192C285.202 316.192 286.774 315.073 287.184 313.366L285.023 313.124C284.71 313.955 283.943 314.389 282.946 314.389C281.45 314.389 280.459 313.405 280.44 311.724H287.279V311.014C287.279 307.569 285.208 306.054 282.792 306.054C279.98 306.054 278.145 308.119 278.145 311.148C278.145 314.229 279.954 316.192 282.914 316.192ZM280.446 310.164C280.517 308.911 281.443 307.857 282.824 307.857C284.154 307.857 285.049 308.828 285.061 310.164H280.446ZM289.942 316.141C290.697 316.141 291.342 315.514 291.349 314.734C291.342 313.967 290.697 313.341 289.942 313.341C289.163 313.341 288.53 313.967 288.536 314.734C288.53 315.514 289.163 316.141 289.942 316.141ZM289.942 309.129C290.697 309.129 291.342 308.502 291.349 307.722C291.342 306.955 290.697 306.329 289.942 306.329C289.163 306.329 288.53 306.955 288.536 307.722C288.53 308.502 289.163 309.129 289.942 309.129ZM301.288 316.179C304.056 316.179 305.986 314.3 305.986 311.698C305.986 309.18 304.235 307.364 301.857 307.364C300.796 307.364 299.856 307.786 299.37 308.362H299.294L299.671 304.891H305.302V302.909H297.709L297.025 309.659L299.166 310.011C299.607 309.525 300.438 309.199 301.224 309.205C302.662 309.212 303.698 310.273 303.691 311.756C303.698 313.219 302.688 314.261 301.288 314.261C300.106 314.261 299.153 313.513 299.07 312.44H296.769C296.833 314.613 298.731 316.179 301.288 316.179ZM312.246 316.249C315.404 316.256 317.29 313.763 317.29 309.467C317.29 305.197 315.391 302.73 312.246 302.73C309.101 302.73 307.209 305.191 307.203 309.467C307.203 313.756 309.089 316.249 312.246 316.249ZM312.246 314.249C310.616 314.249 309.594 312.612 309.6 309.467C309.606 306.348 310.623 304.705 312.246 304.705C313.876 304.705 314.893 306.348 314.899 309.467C314.899 312.612 313.883 314.249 312.246 314.249Z" fill="white" fill-opacity="0.5"/>
<path d="M52.4545 161H43.5824V134.818H52.6335C55.233 134.818 57.4659 135.342 59.3324 136.391C61.2074 137.43 62.6477 138.926 63.6534 140.878C64.6591 142.83 65.1619 145.165 65.1619 147.884C65.1619 150.611 64.6548 152.955 63.6406 154.915C62.6349 156.875 61.1818 158.379 59.2812 159.428C57.3892 160.476 55.1136 161 52.4545 161ZM48.3253 156.896H52.2244C54.0483 156.896 55.5696 156.564 56.7884 155.899C58.0071 155.226 58.9233 154.224 59.5369 152.895C60.1506 151.557 60.4574 149.886 60.4574 147.884C60.4574 145.881 60.1506 144.219 59.5369 142.898C58.9233 141.568 58.0156 140.575 56.8139 139.919C55.6207 139.254 54.1378 138.922 52.3651 138.922H48.3253V156.896ZM80.5394 152.741V141.364H85.1672V161H80.68V157.51H80.4755C80.0323 158.609 79.3036 159.509 78.2894 160.207C77.2837 160.906 76.0437 161.256 74.5692 161.256C73.2823 161.256 72.1445 160.97 71.1559 160.399C70.1758 159.82 69.4087 158.98 68.8547 157.881C68.3008 156.773 68.0238 155.435 68.0238 153.866V141.364H72.6516V153.151C72.6516 154.395 72.9925 155.384 73.6743 156.116C74.3562 156.849 75.2511 157.216 76.359 157.216C77.0408 157.216 77.7013 157.05 78.3405 156.717C78.9797 156.385 79.5039 155.891 79.913 155.234C80.3306 154.57 80.5394 153.739 80.5394 152.741ZM97.0515 161.384C95.1338 161.384 93.4719 160.962 92.0657 160.118C90.6594 159.274 89.5685 158.094 88.7929 156.577C88.0259 155.06 87.6424 153.287 87.6424 151.259C87.6424 149.23 88.0259 147.453 88.7929 145.928C89.5685 144.402 90.6594 143.217 92.0657 142.374C93.4719 141.53 95.1338 141.108 97.0515 141.108C98.9691 141.108 100.631 141.53 102.037 142.374C103.444 143.217 104.53 144.402 105.297 145.928C106.073 147.453 106.461 149.23 106.461 151.259C106.461 153.287 106.073 155.06 105.297 156.577C104.53 158.094 103.444 159.274 102.037 160.118C100.631 160.962 98.9691 161.384 97.0515 161.384ZM97.077 157.676C98.1168 157.676 98.9861 157.391 99.685 156.82C100.384 156.24 100.904 155.464 101.245 154.493C101.594 153.521 101.769 152.439 101.769 151.246C101.769 150.044 101.594 148.957 101.245 147.986C100.904 147.006 100.384 146.226 99.685 145.646C98.9861 145.067 98.1168 144.777 97.077 144.777C96.0117 144.777 95.1253 145.067 94.4179 145.646C93.7191 146.226 93.1949 147.006 92.8455 147.986C92.5046 148.957 92.3341 150.044 92.3341 151.246C92.3341 152.439 92.5046 153.521 92.8455 154.493C93.1949 155.464 93.7191 156.24 94.4179 156.82C95.1253 157.391 96.0117 157.676 97.077 157.676ZM113.576 134.818V161H108.948V134.818H113.576ZM116.895 161V141.364H121.523V161H116.895ZM119.222 138.577C118.489 138.577 117.858 138.334 117.33 137.848C116.801 137.354 116.537 136.761 116.537 136.071C116.537 135.372 116.801 134.78 117.33 134.294C117.858 133.8 118.489 133.553 119.222 133.553C119.963 133.553 120.594 133.8 121.114 134.294C121.642 134.78 121.907 135.372 121.907 136.071C121.907 136.761 121.642 137.354 121.114 137.848C120.594 138.334 119.963 138.577 119.222 138.577ZM129.47 149.494V161H124.842V141.364H129.265V144.7H129.495C129.947 143.601 130.667 142.727 131.656 142.08C132.653 141.432 133.885 141.108 135.35 141.108C136.706 141.108 137.886 141.398 138.892 141.977C139.906 142.557 140.69 143.396 141.244 144.496C141.806 145.595 142.083 146.929 142.075 148.497V161H137.447V149.213C137.447 147.901 137.106 146.874 136.424 146.132C135.751 145.391 134.818 145.02 133.625 145.02C132.815 145.02 132.095 145.199 131.464 145.557C130.842 145.906 130.352 146.413 129.994 147.078C129.644 147.743 129.47 148.548 129.47 149.494ZM153.879 168.773C152.217 168.773 150.79 168.547 149.597 168.095C148.403 167.652 147.445 167.055 146.72 166.305C145.996 165.555 145.493 164.724 145.212 163.812L149.379 162.803C149.567 163.186 149.839 163.565 150.197 163.94C150.555 164.324 151.037 164.639 151.642 164.886C152.256 165.142 153.027 165.27 153.956 165.27C155.268 165.27 156.355 164.95 157.216 164.311C158.077 163.68 158.507 162.641 158.507 161.192V157.472H158.277C158.038 157.949 157.689 158.439 157.229 158.942C156.777 159.445 156.176 159.866 155.426 160.207C154.685 160.548 153.751 160.719 152.626 160.719C151.118 160.719 149.75 160.365 148.523 159.658C147.304 158.942 146.332 157.876 145.608 156.462C144.892 155.038 144.534 153.257 144.534 151.118C144.534 148.962 144.892 147.142 145.608 145.659C146.332 144.168 147.308 143.038 148.535 142.271C149.763 141.496 151.131 141.108 152.639 141.108C153.79 141.108 154.736 141.304 155.477 141.696C156.227 142.08 156.824 142.544 157.267 143.089C157.71 143.626 158.047 144.134 158.277 144.611H158.533V141.364H163.097V161.32C163.097 162.999 162.696 164.388 161.895 165.487C161.094 166.587 159.998 167.409 158.609 167.955C157.22 168.5 155.643 168.773 153.879 168.773ZM153.918 157.088C154.898 157.088 155.733 156.849 156.423 156.372C157.114 155.895 157.638 155.209 157.996 154.314C158.354 153.419 158.533 152.345 158.533 151.092C158.533 149.857 158.354 148.774 157.996 147.845C157.646 146.916 157.126 146.196 156.436 145.685C155.754 145.165 154.915 144.905 153.918 144.905C152.886 144.905 152.025 145.173 151.335 145.71C150.645 146.247 150.125 146.984 149.775 147.922C149.426 148.851 149.251 149.908 149.251 151.092C149.251 152.294 149.426 153.347 149.775 154.25C150.133 155.145 150.658 155.844 151.348 156.347C152.047 156.841 152.903 157.088 153.918 157.088ZM174.965 161.384C173.047 161.384 171.385 160.962 169.979 160.118C168.573 159.274 167.482 158.094 166.706 156.577C165.939 155.06 165.556 153.287 165.556 151.259C165.556 149.23 165.939 147.453 166.706 145.928C167.482 144.402 168.573 143.217 169.979 142.374C171.385 141.53 173.047 141.108 174.965 141.108C176.882 141.108 178.544 141.53 179.951 142.374C181.357 143.217 182.443 144.402 183.21 145.928C183.986 147.453 184.374 149.23 184.374 151.259C184.374 153.287 183.986 155.06 183.21 156.577C182.443 158.094 181.357 159.274 179.951 160.118C178.544 160.962 176.882 161.384 174.965 161.384ZM174.99 157.676C176.03 157.676 176.899 157.391 177.598 156.82C178.297 156.24 178.817 155.464 179.158 154.493C179.507 153.521 179.682 152.439 179.682 151.246C179.682 150.044 179.507 148.957 179.158 147.986C178.817 147.006 178.297 146.226 177.598 145.646C176.899 145.067 176.03 144.777 174.99 144.777C173.925 144.777 173.039 145.067 172.331 145.646C171.632 146.226 171.108 147.006 170.759 147.986C170.418 148.957 170.247 150.044 170.247 151.246C170.247 152.439 170.418 153.521 170.759 154.493C171.108 155.464 171.632 156.24 172.331 156.82C173.039 157.391 173.925 157.676 174.99 157.676Z" fill="white" fill-opacity="0.5"/>
<path d="M53.9119 177.818H58.6165V196.227C58.608 197.915 58.25 199.368 57.5426 200.587C56.8352 201.797 55.8466 202.73 54.5767 203.386C53.3153 204.034 51.8452 204.358 50.1662 204.358C48.6321 204.358 47.2514 204.085 46.0241 203.54C44.8054 202.986 43.8381 202.168 43.1222 201.085C42.4063 200.003 42.0483 198.656 42.0483 197.045H46.7656C46.7741 197.753 46.9276 198.362 47.2259 198.874C47.5327 199.385 47.9545 199.777 48.4915 200.05C49.0284 200.322 49.6463 200.459 50.3452 200.459C51.1037 200.459 51.7472 200.301 52.2756 199.986C52.804 199.662 53.2045 199.185 53.4773 198.554C53.7585 197.923 53.9034 197.148 53.9119 196.227V177.818ZM74.6332 195.741V184.364H79.261V204H74.7738V200.51H74.5692C74.1261 201.609 73.3974 202.509 72.3832 203.207C71.3775 203.906 70.1374 204.256 68.663 204.256C67.3761 204.256 66.2383 203.97 65.2496 203.399C64.2695 202.82 63.5025 201.98 62.9485 200.881C62.3945 199.773 62.1175 198.435 62.1175 196.866V184.364H66.7454V196.151C66.7454 197.395 67.0863 198.384 67.7681 199.116C68.4499 199.849 69.3448 200.216 70.4528 200.216C71.1346 200.216 71.7951 200.05 72.4343 199.717C73.0735 199.385 73.5976 198.891 74.0067 198.234C74.4243 197.57 74.6332 196.739 74.6332 195.741ZM82.5799 204V184.364H87.2077V204H82.5799ZM84.9066 181.577C84.1736 181.577 83.5429 181.334 83.0145 180.848C82.4861 180.354 82.2219 179.761 82.2219 179.071C82.2219 178.372 82.4861 177.78 83.0145 177.294C83.5429 176.8 84.1736 176.553 84.9066 176.553C85.6481 176.553 86.2787 176.8 86.7986 177.294C87.327 177.78 87.5912 178.372 87.5912 179.071C87.5912 179.761 87.327 180.354 86.7986 180.848C86.2787 181.334 85.6481 181.577 84.9066 181.577ZM99.0919 204.384C97.1317 204.384 95.4485 203.953 94.0422 203.092C92.6445 202.232 91.5664 201.043 90.8078 199.526C90.0578 198 89.6828 196.244 89.6828 194.259C89.6828 192.264 90.0664 190.504 90.8334 188.979C91.6005 187.445 92.6828 186.251 94.0806 185.399C95.4868 184.538 97.1488 184.108 99.0664 184.108C100.66 184.108 102.071 184.402 103.298 184.99C104.534 185.57 105.518 186.392 106.251 187.457C106.984 188.514 107.402 189.75 107.504 191.165H103.081C102.902 190.219 102.475 189.43 101.802 188.8C101.137 188.161 100.247 187.841 99.1303 187.841C98.1843 187.841 97.3533 188.097 96.6374 188.608C95.9215 189.111 95.3632 189.835 94.9627 190.781C94.5706 191.727 94.3746 192.861 94.3746 194.182C94.3746 195.52 94.5706 196.67 94.9627 197.634C95.3547 198.588 95.9044 199.325 96.6118 199.845C97.3277 200.357 98.1672 200.612 99.1303 200.612C99.8121 200.612 100.421 200.484 100.958 200.229C101.504 199.964 101.96 199.585 102.326 199.091C102.693 198.597 102.944 197.996 103.081 197.288H107.504C107.393 198.678 106.984 199.909 106.277 200.983C105.569 202.048 104.606 202.884 103.387 203.489C102.169 204.085 100.737 204.384 99.0919 204.384ZM112.74 211.364C112.11 211.364 111.526 211.313 110.989 211.21C110.461 211.116 110.039 211.006 109.723 210.878L110.797 207.273C111.47 207.469 112.071 207.563 112.6 207.554C113.128 207.545 113.593 207.379 113.993 207.055C114.402 206.74 114.747 206.212 115.029 205.47L115.425 204.409L108.304 184.364H113.213L117.739 199.193H117.943L122.482 184.364H127.404L119.541 206.378C119.175 207.418 118.689 208.308 118.084 209.05C117.479 209.8 116.738 210.371 115.86 210.763C114.99 211.163 113.951 211.364 112.74 211.364ZM145.733 204H136.86V177.818H145.911C148.511 177.818 150.744 178.342 152.61 179.391C154.485 180.43 155.926 181.926 156.931 183.878C157.937 185.83 158.44 188.165 158.44 190.884C158.44 193.611 157.933 195.955 156.919 197.915C155.913 199.875 154.46 201.379 152.559 202.428C150.667 203.476 148.392 204 145.733 204ZM141.603 199.896H145.502C147.326 199.896 148.848 199.564 150.066 198.899C151.285 198.226 152.201 197.224 152.815 195.895C153.429 194.557 153.735 192.886 153.735 190.884C153.735 188.881 153.429 187.219 152.815 185.898C152.201 184.568 151.294 183.575 150.092 182.919C148.899 182.254 147.416 181.922 145.643 181.922H141.603V199.896ZM169.995 204.384C168.026 204.384 166.326 203.974 164.894 203.156C163.471 202.33 162.376 201.162 161.609 199.653C160.842 198.136 160.458 196.351 160.458 194.297C160.458 192.277 160.842 190.504 161.609 188.979C162.384 187.445 163.467 186.251 164.856 185.399C166.245 184.538 167.877 184.108 169.752 184.108C170.962 184.108 172.104 184.304 173.178 184.696C174.261 185.08 175.215 185.676 176.042 186.486C176.877 187.295 177.533 188.327 178.011 189.58C178.488 190.824 178.726 192.307 178.726 194.028V195.447H162.631V192.328H174.29C174.282 191.442 174.09 190.653 173.715 189.963C173.34 189.264 172.816 188.714 172.143 188.314C171.478 187.913 170.702 187.713 169.816 187.713C168.87 187.713 168.039 187.943 167.323 188.403C166.607 188.855 166.049 189.452 165.648 190.193C165.256 190.926 165.056 191.732 165.047 192.609V195.332C165.047 196.474 165.256 197.455 165.674 198.273C166.092 199.082 166.675 199.705 167.425 200.139C168.175 200.565 169.053 200.778 170.059 200.778C170.732 200.778 171.342 200.685 171.887 200.497C172.432 200.301 172.905 200.016 173.306 199.641C173.707 199.266 174.009 198.801 174.214 198.247L178.535 198.733C178.262 199.875 177.742 200.872 176.975 201.724C176.217 202.568 175.245 203.224 174.06 203.693C172.876 204.153 171.52 204.384 169.995 204.384ZM196.721 189.554L192.503 190.014C192.383 189.588 192.175 189.188 191.876 188.812C191.587 188.438 191.194 188.135 190.7 187.905C190.206 187.675 189.601 187.56 188.885 187.56C187.922 187.56 187.112 187.768 186.456 188.186C185.808 188.604 185.489 189.145 185.497 189.81C185.489 190.381 185.697 190.845 186.123 191.203C186.558 191.561 187.274 191.855 188.271 192.085L191.621 192.801C193.479 193.202 194.859 193.837 195.763 194.706C196.675 195.575 197.135 196.713 197.143 198.119C197.135 199.355 196.773 200.446 196.057 201.392C195.349 202.33 194.365 203.062 193.104 203.591C191.842 204.119 190.393 204.384 188.757 204.384C186.354 204.384 184.419 203.881 182.953 202.875C181.487 201.861 180.614 200.45 180.332 198.643L184.845 198.209C185.05 199.095 185.484 199.764 186.149 200.216C186.814 200.668 187.679 200.893 188.744 200.893C189.844 200.893 190.726 200.668 191.391 200.216C192.064 199.764 192.4 199.206 192.4 198.541C192.4 197.979 192.183 197.514 191.748 197.148C191.322 196.781 190.658 196.5 189.754 196.304L186.405 195.601C184.521 195.209 183.128 194.548 182.224 193.619C181.321 192.682 180.873 191.497 180.882 190.065C180.873 188.855 181.202 187.807 181.866 186.92C182.54 186.026 183.473 185.335 184.666 184.849C185.868 184.355 187.253 184.108 188.821 184.108C191.122 184.108 192.933 184.598 194.254 185.578C195.584 186.558 196.406 187.884 196.721 189.554ZM199.519 204V184.364H204.147V204H199.519ZM201.846 181.577C201.113 181.577 200.482 181.334 199.954 180.848C199.426 180.354 199.161 179.761 199.161 179.071C199.161 178.372 199.426 177.78 199.954 177.294C200.482 176.8 201.113 176.553 201.846 176.553C202.588 176.553 203.218 176.8 203.738 177.294C204.267 177.78 204.531 178.372 204.531 179.071C204.531 179.761 204.267 180.354 203.738 180.848C203.218 181.334 202.588 181.577 201.846 181.577ZM216.006 211.773C214.344 211.773 212.916 211.547 211.723 211.095C210.53 210.652 209.571 210.055 208.847 209.305C208.122 208.555 207.62 207.724 207.338 206.812L211.506 205.803C211.693 206.186 211.966 206.565 212.324 206.94C212.682 207.324 213.164 207.639 213.769 207.886C214.382 208.142 215.154 208.27 216.083 208.27C217.395 208.27 218.482 207.95 219.343 207.311C220.203 206.68 220.634 205.641 220.634 204.192V200.472H220.404C220.165 200.949 219.816 201.439 219.355 201.942C218.904 202.445 218.303 202.866 217.553 203.207C216.811 203.548 215.878 203.719 214.753 203.719C213.245 203.719 211.877 203.365 210.649 202.658C209.431 201.942 208.459 200.876 207.735 199.462C207.019 198.038 206.661 196.257 206.661 194.118C206.661 191.962 207.019 190.142 207.735 188.659C208.459 187.168 209.435 186.038 210.662 185.271C211.889 184.496 213.257 184.108 214.766 184.108C215.916 184.108 216.862 184.304 217.604 184.696C218.354 185.08 218.951 185.544 219.394 186.089C219.837 186.626 220.174 187.134 220.404 187.611H220.659V184.364H225.223V204.32C225.223 205.999 224.823 207.388 224.022 208.487C223.22 209.587 222.125 210.409 220.736 210.955C219.347 211.5 217.77 211.773 216.006 211.773ZM216.044 200.088C217.024 200.088 217.86 199.849 218.55 199.372C219.24 198.895 219.764 198.209 220.122 197.314C220.48 196.419 220.659 195.345 220.659 194.092C220.659 192.857 220.48 191.774 220.122 190.845C219.773 189.916 219.253 189.196 218.563 188.685C217.881 188.165 217.041 187.905 216.044 187.905C215.013 187.905 214.152 188.173 213.462 188.71C212.772 189.247 212.252 189.984 211.902 190.922C211.553 191.851 211.378 192.908 211.378 194.092C211.378 195.294 211.553 196.347 211.902 197.25C212.26 198.145 212.784 198.844 213.475 199.347C214.174 199.841 215.03 200.088 216.044 200.088ZM233.154 192.494V204H228.526V184.364H232.949V187.7H233.18C233.631 186.601 234.351 185.727 235.34 185.08C236.337 184.432 237.569 184.108 239.035 184.108C240.39 184.108 241.57 184.398 242.576 184.977C243.59 185.557 244.374 186.396 244.928 187.496C245.491 188.595 245.768 189.929 245.759 191.497V204H241.131V192.213C241.131 190.901 240.79 189.874 240.109 189.132C239.435 188.391 238.502 188.02 237.309 188.02C236.499 188.02 235.779 188.199 235.148 188.557C234.526 188.906 234.036 189.413 233.678 190.078C233.329 190.743 233.154 191.548 233.154 192.494ZM57.8111 228.016C57.6918 226.899 57.1889 226.03 56.3026 225.408C55.4247 224.786 54.2827 224.474 52.8764 224.474C51.8878 224.474 51.0398 224.624 50.3324 224.922C49.625 225.22 49.0838 225.625 48.7088 226.136C48.3338 226.648 48.142 227.232 48.1335 227.888C48.1335 228.433 48.2571 228.906 48.5043 229.307C48.7599 229.707 49.1051 230.048 49.5398 230.33C49.9744 230.602 50.456 230.832 50.9844 231.02C51.5128 231.207 52.0455 231.365 52.5824 231.493L55.0369 232.107C56.0256 232.337 56.9759 232.648 57.8878 233.04C58.8082 233.432 59.6307 233.926 60.3551 234.523C61.0881 235.119 61.6676 235.839 62.0938 236.683C62.5199 237.527 62.733 238.516 62.733 239.649C62.733 241.183 62.3409 242.534 61.5568 243.702C60.7727 244.861 59.6392 245.768 58.1562 246.425C56.6818 247.072 54.8963 247.396 52.7997 247.396C50.7628 247.396 48.9943 247.081 47.4943 246.45C46.0028 245.82 44.8352 244.899 43.9915 243.689C43.1563 242.479 42.7045 241.004 42.6364 239.266H47.3026C47.3707 240.178 47.652 240.936 48.1463 241.541C48.6406 242.146 49.2841 242.598 50.0767 242.896C50.8778 243.195 51.7727 243.344 52.7614 243.344C53.7926 243.344 54.696 243.19 55.4716 242.884C56.2557 242.568 56.8693 242.134 57.3125 241.58C57.7557 241.017 57.9815 240.361 57.9901 239.611C57.9815 238.929 57.7813 238.366 57.3892 237.923C56.9972 237.472 56.4474 237.097 55.7401 236.798C55.0412 236.491 54.223 236.219 53.2855 235.98L50.3068 235.213C48.1506 234.659 46.446 233.82 45.1932 232.695C43.9489 231.561 43.3267 230.057 43.3267 228.182C43.3267 226.639 43.7443 225.288 44.5795 224.129C45.4233 222.97 46.5696 222.071 48.0185 221.432C49.4673 220.784 51.108 220.46 52.9403 220.46C54.7983 220.46 56.4261 220.784 57.8239 221.432C59.2301 222.071 60.3338 222.962 61.1349 224.104C61.9361 225.237 62.3494 226.541 62.375 228.016H57.8111ZM68.1932 254.364C67.5625 254.364 66.9787 254.313 66.4417 254.21C65.9133 254.116 65.4915 254.006 65.1761 253.878L66.25 250.273C66.9233 250.469 67.5241 250.563 68.0525 250.554C68.581 250.545 69.0454 250.379 69.446 250.055C69.8551 249.74 70.2003 249.212 70.4815 248.47L70.8778 247.409L63.7571 227.364H68.6662L73.1917 242.193H73.3963L77.9346 227.364H82.8565L74.9943 249.378C74.6278 250.418 74.142 251.308 73.5369 252.05C72.9318 252.8 72.1903 253.371 71.3125 253.763C70.4432 254.163 69.4034 254.364 68.1932 254.364ZM100.139 232.554L95.9201 233.014C95.8008 232.588 95.5919 232.188 95.2936 231.812C95.0039 231.438 94.6118 231.135 94.1175 230.905C93.6232 230.675 93.0181 230.56 92.3022 230.56C91.3391 230.56 90.5294 230.768 89.8732 231.186C89.2255 231.604 88.9059 232.145 88.9144 232.81C88.9059 233.381 89.1147 233.845 89.5408 234.203C89.9755 234.561 90.6914 234.855 91.6885 235.085L95.038 235.801C96.8959 236.202 98.2766 236.837 99.18 237.706C100.092 238.575 100.552 239.713 100.561 241.119C100.552 242.355 100.19 243.446 99.474 244.392C98.7667 245.33 97.7823 246.062 96.5209 246.591C95.2596 247.119 93.8107 247.384 92.1743 247.384C89.7709 247.384 87.8363 246.881 86.3704 245.875C84.9044 244.861 84.0309 243.45 83.7496 241.643L88.2624 241.209C88.4669 242.095 88.9016 242.764 89.5664 243.216C90.2311 243.668 91.0962 243.893 92.1615 243.893C93.261 243.893 94.1431 243.668 94.8079 243.216C95.4811 242.764 95.8178 242.206 95.8178 241.541C95.8178 240.979 95.6005 240.514 95.1658 240.148C94.7397 239.781 94.0749 239.5 93.1715 239.304L89.8221 238.601C87.9385 238.209 86.5451 237.548 85.6417 236.619C84.7383 235.682 84.2908 234.497 84.2993 233.065C84.2908 231.855 84.6189 230.807 85.2837 229.92C85.957 229.026 86.8902 228.335 88.0834 227.849C89.2851 227.355 90.6701 227.108 92.2383 227.108C94.5394 227.108 96.3505 227.598 97.6715 228.578C99.001 229.558 99.8235 230.884 100.139 232.554ZM112.742 227.364V230.943H101.454V227.364H112.742ZM104.241 222.659H108.869V241.094C108.869 241.716 108.962 242.193 109.15 242.526C109.346 242.849 109.602 243.071 109.917 243.19C110.232 243.31 110.582 243.369 110.965 243.369C111.255 243.369 111.519 243.348 111.758 243.305C112.005 243.263 112.192 243.224 112.32 243.19L113.1 246.808C112.853 246.893 112.499 246.987 112.039 247.089C111.587 247.192 111.033 247.251 110.377 247.268C109.218 247.303 108.174 247.128 107.245 246.744C106.316 246.352 105.579 245.747 105.033 244.929C104.496 244.111 104.232 243.088 104.241 241.861V222.659ZM123.655 247.384C121.686 247.384 119.986 246.974 118.554 246.156C117.131 245.33 116.035 244.162 115.268 242.653C114.501 241.136 114.118 239.351 114.118 237.297C114.118 235.277 114.501 233.504 115.268 231.979C116.044 230.445 117.126 229.251 118.516 228.399C119.905 227.538 121.537 227.108 123.412 227.108C124.622 227.108 125.764 227.304 126.838 227.696C127.92 228.08 128.875 228.676 129.702 229.486C130.537 230.295 131.193 231.327 131.67 232.58C132.148 233.824 132.386 235.307 132.386 237.028V238.447H116.291V235.328H127.95C127.942 234.442 127.75 233.653 127.375 232.963C127 232.264 126.476 231.714 125.802 231.314C125.138 230.913 124.362 230.713 123.476 230.713C122.53 230.713 121.699 230.943 120.983 231.403C120.267 231.855 119.709 232.452 119.308 233.193C118.916 233.926 118.716 234.732 118.707 235.609V238.332C118.707 239.474 118.916 240.455 119.334 241.273C119.751 242.082 120.335 242.705 121.085 243.139C121.835 243.565 122.713 243.778 123.719 243.778C124.392 243.778 125.001 243.685 125.547 243.497C126.092 243.301 126.565 243.016 126.966 242.641C127.366 242.266 127.669 241.801 127.874 241.247L132.195 241.733C131.922 242.875 131.402 243.872 130.635 244.724C129.876 245.568 128.905 246.224 127.72 246.693C126.535 247.153 125.18 247.384 123.655 247.384ZM134.861 247V227.364H139.285V230.7H139.515C139.924 229.575 140.601 228.697 141.548 228.067C142.494 227.428 143.623 227.108 144.935 227.108C146.265 227.108 147.386 227.432 148.298 228.08C149.218 228.719 149.866 229.592 150.241 230.7H150.445C150.88 229.609 151.613 228.74 152.644 228.092C153.684 227.436 154.915 227.108 156.339 227.108C158.146 227.108 159.62 227.679 160.762 228.821C161.904 229.963 162.475 231.629 162.475 233.82V247H157.834V234.536C157.834 233.317 157.511 232.426 156.863 231.864C156.215 231.293 155.423 231.007 154.485 231.007C153.369 231.007 152.495 231.357 151.864 232.055C151.242 232.746 150.931 233.645 150.931 234.753V247H146.393V234.344C146.393 233.33 146.086 232.52 145.472 231.915C144.867 231.31 144.075 231.007 143.094 231.007C142.43 231.007 141.825 231.178 141.279 231.518C140.734 231.851 140.299 232.324 139.975 232.938C139.651 233.543 139.489 234.25 139.489 235.06V247H134.861Z" fill="white"/>
<g clip-path="url(#clip0_2_18954)">
<path fill-rule="evenodd" clip-rule="evenodd" d="M47.852 47H70.1515C73.9344 47 77 50.0656 77 53.852V76.1515C77 79.9344 73.9344 83.0035 70.148 83.0035H47.852C44.0656 83 41 79.9344 41 76.1481V53.852C41 50.0656 44.0656 47 47.852 47Z" fill="#50C800"/>
<path fill-rule="evenodd" clip-rule="evenodd" d="M77.0015 70.2565V59.8432C76.5937 58.8483 75.9925 57.9518 75.2473 57.1995C75.3141 56.0815 75.0644 54.9495 74.4844 53.9405C74.1047 53.2795 73.1871 53.1846 72.6739 53.7541L71.5102 55.0444C71.5032 55.0409 71.4961 55.0409 71.4891 55.0373C71.6403 53.8596 71.4398 52.6432 70.8632 51.5569C70.5047 50.8819 69.7278 50.7624 69.1934 51.3108L63.6035 56.9745C63.5403 57.0342 63.4734 57.0975 63.4102 57.1608C63.4066 57.1643 63.3996 57.1678 63.3961 57.1713C60.9668 59.3721 57.1805 59.4635 54.8672 57.442C54.7231 57.2838 54.5719 57.1327 54.4137 56.985L48.8133 51.3143C48.2789 50.7659 47.502 50.8854 47.1434 51.5604C46.5703 52.6432 46.3664 53.8526 46.5141 55.0233C46.5035 55.0268 46.493 55.0268 46.4824 55.0303L45.3328 53.7541C44.8195 53.1846 43.902 53.2795 43.5188 53.9405C42.9492 54.9284 42.6996 56.0358 42.7523 57.1326C42.0176 57.8569 41.4199 58.7217 40.998 59.6815V70.4216C42.2602 73.3011 45.1359 75.3155 48.4793 75.3155H48.8379C52.1531 75.3155 55.0078 73.3362 56.284 70.4955C57.511 70.4885 58.4003 70.485 58.9524 70.485C60.1476 70.4816 61.0793 70.4816 61.7473 70.4816C63.02 73.3291 65.8817 75.3155 69.2003 75.3155H69.4535C72.8602 75.3155 75.7781 73.2236 77.0015 70.2565Z" fill="#8EE000"/>
<path fill-rule="evenodd" clip-rule="evenodd" d="M48.9854 57.6875C52.1214 57.6875 54.6667 60.2293 54.6667 63.3688V66.7332C54.6667 69.8691 52.1249 72.4145 48.9854 72.4145C45.8495 72.4145 43.3042 69.8727 43.3042 66.7332V63.3688C43.3042 60.2293 45.8495 57.6875 48.9854 57.6875Z" fill="white"/>
<path fill-rule="evenodd" clip-rule="evenodd" d="M68.9436 57.6875C72.0795 57.6875 74.6248 60.2293 74.6248 63.3688V66.7332C74.6248 69.8691 72.0829 72.4145 68.9436 72.4145C65.8076 72.4145 63.2622 69.8727 63.2622 66.7332V63.3688C63.2622 60.2293 65.8041 57.6875 68.9436 57.6875Z" fill="white"/>
<path fill-rule="evenodd" clip-rule="evenodd" d="M49.8605 60.9502C51.3477 60.9502 52.557 62.1561 52.557 63.6467V66.526C52.557 68.0131 51.3512 69.2224 49.8605 69.2224C48.3734 69.2224 47.1641 68.0166 47.1641 66.526V63.6467C47.1641 62.1561 48.3734 60.9502 49.8605 60.9502Z" fill="#4B4B4B"/>
<path fill-rule="evenodd" clip-rule="evenodd" d="M59.0013 67.4863C60.7063 67.4863 62.088 68.868 62.088 70.573V71.6453C62.088 73.3504 60.7063 74.732 59.0013 74.732C57.2962 74.732 55.9146 73.3504 55.9146 71.6453V70.573C55.9146 68.868 57.2962 67.4863 59.0013 67.4863Z" fill="#F48000"/>
<path d="M54.7402 70.8685C55.1094 68.8999 56.934 67.4795 59.1172 67.4795C61.1035 67.4795 62.9 68.935 63.2621 70.8685V71.0268C63.2621 71.1499 63.2199 71.199 63.1074 71.185L59.1208 71.8951C59.0118 71.8951 58.9976 71.8951 58.8852 71.8951L54.8949 71.1814C54.7824 71.1956 54.7402 71.1463 54.7402 71.0233V70.8685Z" fill="#FFC200"/>
<path fill-rule="evenodd" clip-rule="evenodd" d="M58.347 68.1613C58.5545 68.1122 58.7689 68.084 58.9833 68.084C59.2118 68.084 59.444 68.1122 59.6725 68.172C60.1365 68.2915 60.4599 68.7098 60.4599 69.1879C60.4599 69.5747 60.147 69.884 59.7638 69.884H58.2381C57.8513 69.884 57.542 69.5711 57.542 69.1879C57.5384 68.7028 57.8725 68.2774 58.347 68.1613Z" fill="#FFE747"/>
<path fill-rule="evenodd" clip-rule="evenodd" d="M68.068 60.9502C69.5552 60.9502 70.7645 62.1561 70.7645 63.6467V66.526C70.7645 68.0131 69.5587 69.2224 68.068 69.2224C66.5809 69.2224 65.3716 68.0166 65.3716 66.526V63.6467C65.375 62.1561 66.5809 60.9502 68.068 60.9502Z" fill="#4B4B4B"/>
<path d="M47.5825 64.2193C48.5436 64.2193 49.3228 63.4433 49.3228 62.4861C49.3228 61.529 48.5436 60.7529 47.5825 60.7529C46.6214 60.7529 45.8423 61.529 45.8423 62.4861C45.8423 63.4433 46.6214 64.2193 47.5825 64.2193Z" fill="white"/>
<path d="M65.5264 64.2193C66.4874 64.2193 67.2666 63.4433 67.2666 62.4861C67.2666 61.529 66.4874 60.7529 65.5264 60.7529C64.5652 60.7529 63.7861 61.529 63.7861 62.4861C63.7861 63.4433 64.5652 64.2193 65.5264 64.2193Z" fill="white"/>
</g>
<defs>
<clipPath id="clip0_2_18954">
<rect width="36" height="36" fill="white" transform="translate(41 47)"/>
</clipPath>
</defs>
</svg>
