<?xml version="1.0" encoding="UTF-8"?>
<svg width="104px" height="104px" viewBox="0 0 104 104" version="1.1" xmlns="http://www.w3.org/2000/svg" xmlns:xlink="http://www.w3.org/1999/xlink">
    <!-- Generator: Sketch 40.1 (33804) - http://www.bohemiancoding.com/sketch -->
    <title>Group 5</title>
    <desc>Created with Sketch.</desc>
    <defs></defs>
    <g id="icons" stroke="none" stroke-width="1" fill="none" fill-rule="evenodd">
        <g id="Group-5" transform="translate(2.000000, 2.000000)" stroke="#2196F3">
            <g id="Group-4-Copy" stroke-width="3">
                <g id="Group-3-Copy">
                    <g id="Group-2-Copy">
                        <g id="mental_models_i-copy">
                            <circle id="Oval-43-Copy-8" cx="50" cy="50" r="50"></circle>
                        </g>
                    </g>
                </g>
            </g>
            <g id="noun_11219_cc" transform="translate(50.500000, 52.500000) scale(1, -1) rotate(-137.000000) translate(-50.500000, -52.500000) translate(16.000000, 36.000000)" stroke-width="2.31192661">
                <g id="Group" transform="translate(0.000000, -0.000000)">
                    <path d="M68.3479556,18.8710949 L62.8540107,24.3788206 L30.2963045,24.3788206 C27.5496766,29.238416 22.2170143,32.5592201 16.1578912,32.5592201 C7.27080981,32.5592201 7.95807864e-13,25.2694815 7.95807864e-13,16.2792646 C7.95807864e-13,7.28904763 7.27080981,7.10542736e-15 16.1578912,7.10542736e-15 C22.2976555,7.10542736e-15 27.6303179,3.40164769 30.3769458,8.42293019 L39.9105358,8.42293019 L44.8386134,15.4694472 L49.2015128,10.9339169 L50.4938408,10.9339169 L55.0986641,15.5502907 L61.6430132,10.9339169 L62.6127762,10.9339169 L68.3486449,16.4416427 C69.0751056,17.2507691 69.1557468,17.9804339 68.3479556,18.8710949 L68.3479556,18.8710949 Z M10.0987682,22.0295209 C13.2492916,22.0295209 15.8346369,19.4376907 15.8346369,16.2792646 C15.8346369,13.1208385 13.2492916,10.5290082 10.0987682,10.5290082 C6.94755549,10.5290082 4.36289943,13.1208385 4.36289943,16.2792646 C4.36289943,19.4376907 6.94755549,22.0295209 10.0987682,22.0295209 L10.0987682,22.0295209 Z" id="Shape"></path>
                </g>
            </g>
        </g>
    </g>
</svg>