<?xml version="1.0" encoding="UTF-8" standalone="no"?>
<svg width="104px" height="132px" viewBox="0 0 104 132" version="1.1" xmlns="http://www.w3.org/2000/svg" xmlns:xlink="http://www.w3.org/1999/xlink">
    <!-- Generator: Sketch 3.7.1 (28215) - http://www.bohemiancoding.com/sketch -->
    <title>Group 2</title>
    <desc>Created with Sketch.</desc>
    <defs></defs>
    <g id="icons" stroke="none" stroke-width="1" fill="none" fill-rule="evenodd">
        <g id="Group-2" transform="translate(2.000000, 2.000000)">
            <g id="mental_models_i-copy">
                <circle id="Oval-43-Copy-8" stroke="#2196F3" stroke-width="3" cx="50" cy="50" r="50"></circle>
                <text id="Corp-SSO" font-family="Lato-Light, Lato" font-size="14" font-weight="300" fill="#2196F3">
                    <tspan x="21" y="127">Corp SSO</tspan>
                </text>
            </g>
            <g id="noun_167372_cc" transform="translate(21.000000, 19.000000)" fill="#2196F3">
                <g id="buildings-2">
                    <g id="Group">
                        <g id="Shape">
                            <path d="M3.15,24.15 L30.45,24.15 L30.45,63 L3.15,63 L3.15,24.15 L3.15,24.15 Z M5.25,60.9 L28.35,60.9 L28.35,26.25 L5.25,26.25 L5.25,60.9 L5.25,60.9 Z"></path>
                            <path d="M28.35,12.6 L55.65,12.6 L55.65,63 L28.35,63 L28.35,12.6 L28.35,12.6 Z M30.45,60.9 L53.55,60.9 L53.55,14.7 L30.45,14.7 L30.45,60.9 L30.45,60.9 Z"></path>
                            <path d="M57.75,63 L1.05,63 C0.4704,63 0,62.5296 0,61.95 C0,61.3704 0.4704,60.9 1.05,60.9 L57.75,60.9 C58.3296,60.9 58.8,61.3704 58.8,61.95 C58.8,62.5296 58.3296,63 57.75,63"></path>
                            <path d="M32.55,6.3 L51.45,6.3 L51.45,14.7 L32.55,14.7 L32.55,6.3 L32.55,6.3 Z M34.65,12.6 L49.35,12.6 L49.35,8.4 L34.65,8.4 L34.65,12.6 L34.65,12.6 Z"></path>
                            <path d="M42,8.4 C41.4204,8.4 40.95,7.9296 40.95,7.35 L40.95,1.05 C40.95,0.4704 41.4204,0 42,0 C42.5796,0 43.05,0.4704 43.05,1.05 L43.05,7.35 C43.05,7.9296 42.5796,8.4 42,8.4"></path>
                            <path d="M7.35,29.4 L15.75,29.4 L15.75,42 L7.35,42 L7.35,29.4 L7.35,29.4 Z M9.45,39.9 L13.65,39.9 L13.65,31.5 L9.45,31.5 L9.45,39.9 L9.45,39.9 Z"></path>
                            <path d="M17.85,29.4 L26.25,29.4 L26.25,42 L17.85,42 L17.85,29.4 L17.85,29.4 Z M19.95,39.9 L24.15,39.9 L24.15,31.5 L19.95,31.5 L19.95,39.9 L19.95,39.9 Z"></path>
                            <path d="M7.35,45.15 L15.75,45.15 L15.75,57.75 L7.35,57.75 L7.35,45.15 L7.35,45.15 Z M9.45,55.65 L13.65,55.65 L13.65,47.25 L9.45,47.25 L9.45,55.65 L9.45,55.65 Z"></path>
                            <path d="M17.85,45.15 L26.25,45.15 L26.25,57.75 L17.85,57.75 L17.85,45.15 L17.85,45.15 Z M19.95,55.65 L24.15,55.65 L24.15,47.25 L19.95,47.25 L19.95,55.65 L19.95,55.65 Z"></path>
                            <path d="M32.55,16.8 L40.95,16.8 L40.95,29.4 L32.55,29.4 L32.55,16.8 L32.55,16.8 Z M34.65,27.3 L38.85,27.3 L38.85,18.9 L34.65,18.9 L34.65,27.3 L34.65,27.3 Z"></path>
                            <path d="M43.05,16.8 L51.45,16.8 L51.45,29.4 L43.05,29.4 L43.05,16.8 L43.05,16.8 Z M45.15,27.3 L49.35,27.3 L49.35,18.9 L45.15,18.9 L45.15,27.3 L45.15,27.3 Z"></path>
                            <path d="M32.55,31.5 L40.95,31.5 L40.95,44.1 L32.55,44.1 L32.55,31.5 L32.55,31.5 Z M34.65,42 L38.85,42 L38.85,33.6 L34.65,33.6 L34.65,42 L34.65,42 Z"></path>
                            <path d="M43.05,31.5 L51.45,31.5 L51.45,44.1 L43.05,44.1 L43.05,31.5 L43.05,31.5 Z M45.15,42 L49.35,42 L49.35,33.6 L45.15,33.6 L45.15,42 L45.15,42 Z"></path>
                            <path d="M32.55,46.2 L40.95,46.2 L40.95,58.8 L32.55,58.8 L32.55,46.2 L32.55,46.2 Z M34.65,56.7 L38.85,56.7 L38.85,48.3 L34.65,48.3 L34.65,56.7 L34.65,56.7 Z"></path>
                            <path d="M43.05,46.2 L51.45,46.2 L51.45,58.8 L43.05,58.8 L43.05,46.2 L43.05,46.2 Z M45.15,56.7 L49.35,56.7 L49.35,48.3 L45.15,48.3 L45.15,56.7 L45.15,56.7 Z"></path>
                        </g>
                    </g>
                </g>
            </g>
        </g>
    </g>
</svg>