<?xml version="1.0" encoding="UTF-8"?>
<svg width="104px" height="104px" viewBox="0 0 104 104" version="1.1" xmlns="http://www.w3.org/2000/svg" xmlns:xlink="http://www.w3.org/1999/xlink">
    <!-- Generator: Sketch 40.1 (33804) - http://www.bohemiancoding.com/sketch -->
    <title>Group 3</title>
    <desc>Created with Sketch.</desc>
    <defs></defs>
    <g id="icons" stroke="none" stroke-width="1" fill="none" fill-rule="evenodd">
        <g id="Group-3" transform="translate(2.000000, 2.000000)">
            <g id="Group-2-Copy" stroke-width="3" stroke="#2196F3">
                <g id="mental_models_i-copy">
                    <circle id="Oval-43-Copy-8" cx="50" cy="50" r="50"></circle>
                </g>
            </g>
            <g id="noun_114076_cc" transform="translate(25.000000, 24.000000)" fill="#2196F3">
                <g id="Group">
                    <g id="Shape">
                        <path d="M24.6315789,0.442684211 C16.7152632,0.442684211 10.2747895,6.88315789 10.2747895,14.7994737 C10.2747895,18.1055789 11.4092105,21.1448421 13.2942105,23.5744737 C13.7293684,24.1355263 14.2014737,24.6644211 14.7132632,25.155 C17.2934211,27.6270526 20.7842632,29.1569474 24.6315789,29.1569474 C28.4788947,29.1569474 31.9704211,27.6277368 34.5498947,25.1543158 C35.0616842,24.6644211 35.5337895,24.1362105 35.9689474,23.5744737 C37.8539474,21.1448421 38.9883684,18.1055789 38.9883684,14.7994737 C38.9883684,6.88384211 32.5478947,0.442684211 24.6315789,0.442684211 L24.6315789,0.442684211 Z M34.0702632,22.6802105 C33.5906316,23.2535789 33.0603684,23.7838421 32.4856316,24.2621053 C30.3529474,26.0355789 27.6147368,27.1043158 24.6315789,27.1043158 C21.6477368,27.1043158 18.9108947,26.0355789 16.7775263,24.2627895 C16.2021053,23.7845263 15.6725263,23.2535789 15.1928947,22.6808947 C13.4064211,20.5441053 12.3274211,17.7963158 12.3274211,14.8001579 C12.3274211,8.01552632 17.8469474,2.496 24.6315789,2.496 C31.4162105,2.496 36.9357368,8.01552632 36.9357368,14.8001579 C36.9357368,17.7963158 35.8567368,20.5434211 34.0702632,22.6802105 L34.0702632,22.6802105 Z"></path>
                        <path d="M37.5912105,24.8327368 C37.2176316,25.3144211 36.8146316,25.7632632 36.4006842,26.1922632 C42.7207368,30.0854211 46.9895263,36.9993684 47.1434737,44.915 C43.9461579,47.632 34.6046316,49.5046842 24.0595789,49.5046842 C13.8456842,49.5046842 5.33957895,47.7147895 2.11968421,44.9184211 C2.27294737,37.0014211 6.54173684,30.0861053 12.8624737,26.1922632 C12.4478421,25.7625789 12.0448421,25.3137368 11.6719474,24.8334211 C11.6165263,24.7622632 11.5693158,24.6856316 11.5152632,24.6137895 C4.64236842,28.9735789 0.0629473684,36.6367368 0.0629473684,45.3611053 C0.0629473684,45.6327368 0.171052632,45.8941053 0.363315789,46.0870526 C5.43947368,51.1632105 19.7839474,51.558 24.0595789,51.558 C32.9946842,51.558 44.8616316,50.1252632 48.8998421,46.0870526 C49.0921053,45.8947895 49.2002105,45.6334211 49.2002105,45.3611053 C49.2002105,36.6367368 44.6207895,28.9735789 37.7478947,24.6137895 C37.6938421,24.6856316 37.6473158,24.7615789 37.5912105,24.8327368 Z"></path>
                    </g>
                </g>
            </g>
        </g>
    </g>
</svg>