<?xml version="1.0" encoding="UTF-8"?>
<svg width="104px" height="104px" viewBox="0 0 104 104" version="1.1" xmlns="http://www.w3.org/2000/svg" xmlns:xlink="http://www.w3.org/1999/xlink">
    <!-- Generator: Sketch 40.1 (33804) - http://www.bohemiancoding.com/sketch -->
    <title>Group 6</title>
    <desc>Created with Sketch.</desc>
    <defs></defs>
    <g id="icons" stroke="none" stroke-width="1" fill="none" fill-rule="evenodd">
        <g id="Group-6" transform="translate(2.000000, 2.000000)">
            <g id="Group-5-Copy" stroke-width="3" stroke="#2196F3">
                <circle id="Oval-43-Copy-8" cx="50" cy="50" r="50"></circle>
            </g>
            <g id="noun_337516_cc" transform="translate(18.000000, 31.000000)" fill="#2196F3">
                <g id="Group">
                    <path d="M19.3818182,13 C15.3636364,13 12.0545455,16.3090909 12.0545455,20.3272727 C12.0545455,24.3454545 15.3636364,27.6545455 19.3818182,27.6545455 C23.4,27.6545455 26.7090909,24.3454545 26.7090909,20.3272727 C26.7090909,16.3090909 23.5181818,13 19.3818182,13 L19.3818182,13 Z M19.3818182,26.5909091 C15.9545455,26.5909091 13.2363636,23.7545455 13.2363636,20.4454545 C13.2363636,17.0181818 16.0727273,14.3 19.3818182,14.3 C22.6909091,14.3 25.5272727,17.1363636 25.5272727,20.4454545 C25.6454545,23.7545455 22.8090909,26.5909091 19.3818182,26.5909091 L19.3818182,26.5909091 Z" id="Shape"></path>
                    <path d="M45.3818182,13 C41.3636364,13 38.0545455,16.3090909 38.0545455,20.3272727 C38.0545455,24.3454545 41.3636364,27.6545455 45.3818182,27.6545455 C49.4,27.6545455 52.7090909,24.3454545 52.7090909,20.3272727 C52.7090909,16.3090909 49.5181818,13 45.3818182,13 L45.3818182,13 Z M45.3818182,26.5909091 C41.9545455,26.5909091 39.2363636,23.7545455 39.2363636,20.4454545 C39.2363636,17.0181818 42.0727273,14.3 45.3818182,14.3 C48.8090909,14.3 51.5272727,17.1363636 51.5272727,20.4454545 C51.6454545,23.7545455 48.8090909,26.5909091 45.3818182,26.5909091 L45.3818182,26.5909091 Z" id="Shape"></path>
                    <path d="M58.3818182,0.590909091 L6.38181818,0.590909091 C3.30909091,0.590909091 0.827272727,3.07272727 0.827272727,6.14545455 L0.827272727,32.8545455 C0.827272727,35.9272727 3.30909091,38.4090909 6.38181818,38.4090909 L22.2181818,38.4090909 C23.9909091,38.4090909 25.5272727,37.3454545 26.3545455,35.8090909 L29.9,26.9454545 C30.3727273,26 31.3181818,25.4090909 32.3818182,25.4090909 C33.2090909,25.4090909 34.3909091,25.8818182 34.8636364,27.0636364 L37.9363636,35.8090909 C38.6454545,37.4636364 40.1818182,38.5272727 42.0727273,38.5272727 L58.5,38.5272727 C61.5727273,38.5272727 64.0545455,36.0454545 64.0545455,32.9727273 L64.0545455,6.26363636 C64.0545455,3.07272727 61.4545455,0.590909091 58.3818182,0.590909091 L58.3818182,0.590909091 Z M61.6909091,32.9727273 C61.6909091,34.7454545 60.2727273,36.1636364 58.5,36.1636364 L41.9545455,36.1636364 C41.1272727,36.1636364 40.4181818,35.6909091 40.0636364,34.9818182 L36.9909091,26.2363636 C36.1636364,24.3454545 34.3909091,23.0454545 32.2636364,23.0454545 C30.2545455,23.0454545 28.4818182,24.2272727 27.6545455,26 L24.1090909,34.8636364 C23.7545455,35.5727273 23.0454545,36.0454545 22.2181818,36.0454545 L6.38181818,36.0454545 C4.60909091,36.0454545 3.19090909,34.6272727 3.19090909,32.8545455 L3.19090909,6.26363636 C3.19090909,4.49090909 4.60909091,3.07272727 6.38181818,3.07272727 L58.3818182,3.07272727 C60.1545455,3.07272727 61.5727273,4.49090909 61.5727273,6.26363636 L61.5727273,32.9727273 L61.6909091,32.9727273 Z" id="Shape"></path>
                </g>
            </g>
        </g>
    </g>
</svg>