<?xml version="1.0" encoding="UTF-8" standalone="no"?>
<svg width="104px" height="129px" viewBox="0 0 104 129" version="1.1" xmlns="http://www.w3.org/2000/svg" xmlns:xlink="http://www.w3.org/1999/xlink">
    <!-- Generator: Sketch 3.7.1 (28215) - http://www.bohemiancoding.com/sketch -->
    <title>wireframing_i</title>
    <desc>Created with Sketch.</desc>
    <defs></defs>
    <g id="icons" stroke="none" stroke-width="1" fill="none" fill-rule="evenodd">
        <g id="wireframing_i" transform="translate(2.000000, 2.000000)">
            <g id="Wireframe">
                <g id="Group" transform="translate(14.000000, 25.000000)" fill="#2196F3">
                    <path d="M71.1724138,8.19672131 L0.827586207,8.19672131 C0.370758621,8.19672131 0,7.8295082 0,7.37704918 L0,0.819672131 C0,0.367213115 0.370758621,0 0.827586207,0 L71.1724138,0 C71.630069,0 72,0.367213115 72,0.819672131 L72,7.37704918 C72,7.8295082 71.630069,8.19672131 71.1724138,8.19672131 L71.1724138,8.19672131 Z M1.65517241,6.55737705 L70.3448276,6.55737705 L70.3448276,1.63934426 L1.65517241,1.63934426 L1.65517241,6.55737705 L1.65517241,6.55737705 Z" id="Shape"></path>
                    <path d="M71.1724138,50 L0.827586207,50 C0.370758621,50 0,49.6336066 0,49.1803279 L0,7.37704918 C0,6.92459016 0.370758621,6.55737705 0.827586207,6.55737705 L71.1724138,6.55737705 C71.630069,6.55737705 72,6.92459016 72,7.37704918 L72,49.1803279 C72,49.6336066 71.630069,50 71.1724138,50 L71.1724138,50 Z M1.65517241,48.3606557 L70.3448276,48.3606557 L70.3448276,8.19672131 L1.65517241,8.19672131 L1.65517241,48.3606557 L1.65517241,48.3606557 Z" id="Shape"></path>
                    <ellipse id="Oval" cx="61.0344828" cy="4.09836066" rx="1.24137931" ry="1.2295082"></ellipse>
                    <ellipse id="Oval" cx="64.3448276" cy="4.09836066" rx="1.24137931" ry="1.2295082"></ellipse>
                    <ellipse id="Oval" cx="67.6551724" cy="4.09836066" rx="1.24137931" ry="1.2295082"></ellipse>
                    <path d="M16.5517241,50 L0.827586207,50 C0.370758621,50 0,49.6336066 0,49.1803279 L0,7.37704918 C0,6.92459016 0.370758621,6.55737705 0.827586207,6.55737705 L16.5517241,6.55737705 C17.0085517,6.55737705 17.3793103,6.92459016 17.3793103,7.37704918 L17.3793103,49.1803279 C17.3793103,49.6336066 17.0085517,50 16.5517241,50 L16.5517241,50 Z M1.65517241,48.3606557 L15.7241379,48.3606557 L15.7241379,8.19672131 L1.65517241,8.19672131 L1.65517241,48.3606557 L1.65517241,48.3606557 Z" id="Shape"></path>
                    <path d="M11.5862069,19.6721311 L4.96551724,19.6721311 C4.50868966,19.6721311 4.13793103,19.304918 4.13793103,18.852459 L4.13793103,13.1147541 C4.13793103,12.6622951 4.50868966,12.295082 4.96551724,12.295082 L11.5862069,12.295082 C12.0430345,12.295082 12.4137931,12.6622951 12.4137931,13.1147541 L12.4137931,18.852459 C12.4137931,19.304918 12.0430345,19.6721311 11.5862069,19.6721311 L11.5862069,19.6721311 Z M5.79310345,18.0327869 L10.7586207,18.0327869 L10.7586207,13.9344262 L5.79310345,13.9344262 L5.79310345,18.0327869 L5.79310345,18.0327869 Z" id="Shape"></path>
                    <path d="M11.5862069,30.3278689 L4.96551724,30.3278689 C4.50868966,30.3278689 4.13793103,29.9614754 4.13793103,29.5081967 L4.13793103,23.7704918 C4.13793103,23.3180328 4.50868966,22.9508197 4.96551724,22.9508197 L11.5862069,22.9508197 C12.0430345,22.9508197 12.4137931,23.3180328 12.4137931,23.7704918 L12.4137931,29.5081967 C12.4137931,29.9614754 12.0430345,30.3278689 11.5862069,30.3278689 L11.5862069,30.3278689 Z M5.79310345,28.6885246 L10.7586207,28.6885246 L10.7586207,24.5901639 L5.79310345,24.5901639 L5.79310345,28.6885246 L5.79310345,28.6885246 Z" id="Shape"></path>
                    <path d="M11.5862069,40.9836066 L4.96551724,40.9836066 C4.50868966,40.9836066 4.13793103,40.6172131 4.13793103,40.1639344 L4.13793103,34.4262295 C4.13793103,33.9729508 4.50868966,33.6065574 4.96551724,33.6065574 L11.5862069,33.6065574 C12.0430345,33.6065574 12.4137931,33.9729508 12.4137931,34.4262295 L12.4137931,40.1639344 C12.4137931,40.6172131 12.0430345,40.9836066 11.5862069,40.9836066 L11.5862069,40.9836066 Z M5.79310345,39.3442623 L10.7586207,39.3442623 L10.7586207,35.2459016 L5.79310345,35.2459016 L5.79310345,39.3442623 L5.79310345,39.3442623 Z" id="Shape"></path>
                    <path d="M61.2413793,40.1639344 L25.6551724,40.1639344 C25.1983448,40.1639344 24.8275862,39.797541 24.8275862,39.3442623 L24.8275862,13.9344262 C24.8275862,13.4819672 25.1983448,13.1147541 25.6551724,13.1147541 L61.2413793,13.1147541 C61.6990345,13.1147541 62.0689655,13.4819672 62.0689655,13.9344262 L62.0689655,39.3442623 C62.0689655,39.797541 61.6990345,40.1639344 61.2413793,40.1639344 L61.2413793,40.1639344 Z M26.4827586,38.5245902 L60.4137931,38.5245902 L60.4137931,14.7540984 L26.4827586,14.7540984 L26.4827586,38.5245902 L26.4827586,38.5245902 Z" id="Shape"></path>
                    <path d="M57.48,39.7401639 C57.2234483,39.7401639 56.9726897,39.6229508 56.8096552,39.4032787 L47.6855172,26.9909836 L42.1754483,32.9188525 C42.0016552,33.1065574 41.7467586,33.2057377 41.4918621,33.1795082 C41.2344828,33.1565574 41.0035862,33.0155738 40.8662069,32.7991803 L32.4695172,19.5729508 L26.1351724,24.0401639 C25.7627586,24.3032787 25.2455172,24.2163934 24.9806897,23.8483607 C24.7158621,23.4795082 24.8027586,22.9680328 25.1743448,22.704918 L32.2228966,17.7336066 C32.4082759,17.602459 32.6416552,17.5540984 32.8634483,17.5967213 C33.0868966,17.6401639 33.2822069,17.7737705 33.4038621,17.9647541 L41.6913103,31.0188525 L47.1525517,25.1442623 C47.3197241,24.9631148 47.5481379,24.8655738 47.8088276,24.8811475 C48.0562759,24.8959016 48.2838621,25.0188525 48.4303448,25.2172131 L58.1486897,38.4377049 C58.4176552,38.8040984 58.3365517,39.3163934 57.9666207,39.5827869 C57.8193103,39.6893443 57.6488276,39.7401639 57.48,39.7401639 L57.48,39.7401639 Z" id="Shape"></path>
                    <path d="M53.448,22.9508197 C51.5081379,22.9508197 49.9307586,21.3877049 49.9307586,19.4672131 C49.9307586,17.5467213 51.5081379,15.9836066 53.448,15.9836066 C55.3878621,15.9836066 56.9652414,17.5467213 56.9652414,19.4672131 C56.9652414,21.3877049 55.3878621,22.9508197 53.448,22.9508197 L53.448,22.9508197 Z M53.448,17.6229508 C52.4217931,17.6229508 51.585931,18.45 51.585931,19.4672131 C51.585931,20.4844262 52.4217931,21.3114754 53.448,21.3114754 C54.4742069,21.3114754 55.310069,20.4844262 55.310069,19.4672131 C55.310069,18.45 54.4742069,17.6229508 53.448,17.6229508 L53.448,17.6229508 Z" id="Shape"></path>
                </g>
                <circle id="Oval-43-Copy-7" stroke="#2196F3" stroke-width="3" cx="50" cy="50" r="50"></circle>
            </g>
            <text id="Wireframes" font-family="Lato-Light, Lato" font-size="14" font-weight="300" fill="#2196F3">
                <tspan x="15" y="126">Wireframes</tspan>
            </text>
        </g>
    </g>
</svg>