<svg width="440" height="365" viewBox="0 0 440 365" fill="none" xmlns="http://www.w3.org/2000/svg">
<rect width="440" height="365" rx="8" fill="#7B7559"/>
<path d="M46.5327 302.295H44.5064L40.2876 317.969H42.3139L46.5327 302.295ZM51.1363 316H53.5078V311.577H56.0135C59.0369 311.577 60.6605 309.761 60.6605 307.243C60.6605 304.744 59.0561 302.909 56.0454 302.909H51.1363V316ZM53.5078 309.627V304.891H55.6811C57.4581 304.891 58.2443 305.849 58.2443 307.243C58.2443 308.636 57.4581 309.627 55.6939 309.627H53.5078ZM61.8981 316H64.212V310.228C64.212 308.982 65.1516 308.099 66.4236 308.099C66.8135 308.099 67.2993 308.17 67.4975 308.234V306.105C67.2866 306.067 66.9222 306.041 66.6665 306.041C65.5415 306.041 64.6019 306.68 64.2439 307.818H64.1417V306.182H61.8981V316ZM72.1932 316.192C75.0696 316.192 76.8977 314.165 76.8977 311.129C76.8977 308.087 75.0696 306.054 72.1932 306.054C69.3167 306.054 67.4886 308.087 67.4886 311.129C67.4886 314.165 69.3167 316.192 72.1932 316.192ZM72.2059 314.338C70.6143 314.338 69.8345 312.919 69.8345 311.123C69.8345 309.327 70.6143 307.888 72.2059 307.888C73.772 307.888 74.5518 309.327 74.5518 311.123C74.5518 312.919 73.772 314.338 72.2059 314.338ZM78.1417 306.182V316.531C78.1417 317.355 77.7901 317.796 76.9016 317.796C76.7865 317.796 76.6971 317.79 76.5692 317.783V319.669C76.7354 319.682 76.876 319.682 77.0422 319.682C79.2091 319.682 80.4556 318.685 80.4556 316.562V306.182H78.1417ZM79.2922 304.788C80.0273 304.788 80.6282 304.226 80.6282 303.536C80.6282 302.839 80.0273 302.276 79.2922 302.276C78.5507 302.276 77.9499 302.839 77.9499 303.536C77.9499 304.226 78.5507 304.788 79.2922 304.788ZM86.4616 316.192C88.75 316.192 90.3224 315.073 90.7315 313.366L88.571 313.124C88.2578 313.955 87.4907 314.389 86.4936 314.389C84.9978 314.389 84.0071 313.405 83.9879 311.724H90.8274V311.014C90.8274 307.569 88.7563 306.054 86.3402 306.054C83.5277 306.054 81.6931 308.119 81.6931 311.148C81.6931 314.229 83.5021 316.192 86.4616 316.192ZM83.9943 310.164C84.0646 308.911 84.9914 307.857 86.3721 307.857C87.7017 307.857 88.5965 308.828 88.6093 310.164H83.9943ZM96.3476 316.192C98.8149 316.192 100.387 314.728 100.554 312.644H98.3419C98.1438 313.699 97.3831 314.306 96.3668 314.306C94.9222 314.306 93.9889 313.098 93.9889 311.091C93.9889 309.109 94.9414 307.92 96.3668 307.92C97.479 307.92 98.1629 308.636 98.3419 309.582H100.554C100.394 307.454 98.7318 306.054 96.3348 306.054C93.4584 306.054 91.6431 308.131 91.6431 311.129C91.6431 314.102 93.4137 316.192 96.3476 316.192ZM106.636 306.182H104.7V303.83H102.386V306.182H100.992V307.972H102.386V313.43C102.373 315.278 103.715 316.185 105.454 316.134C106.112 316.115 106.566 315.987 106.815 315.904L106.425 314.095C106.298 314.127 106.035 314.185 105.748 314.185C105.166 314.185 104.7 313.98 104.7 313.047V307.972H106.636V306.182ZM109.277 316.141C110.031 316.141 110.677 315.514 110.683 314.734C110.677 313.967 110.031 313.341 109.277 313.341C108.497 313.341 107.864 313.967 107.871 314.734C107.864 315.514 108.497 316.141 109.277 316.141ZM109.277 309.129C110.031 309.129 110.677 308.502 110.683 307.722C110.677 306.955 110.031 306.329 109.277 306.329C108.497 306.329 107.864 306.955 107.871 307.722C107.864 308.502 108.497 309.129 109.277 309.129ZM121.396 302.909H119.14L115.886 304.999V307.173L118.948 305.217H119.025V316H121.396V302.909ZM129.209 319.682C131.011 319.682 132.053 318.755 132.609 317.189L136.553 306.195L134.079 306.182L131.81 313.597H131.708L129.445 306.182H126.99L130.551 316.205L130.353 316.735C129.924 317.854 129.247 317.93 128.237 317.636L127.7 319.439C128.013 319.567 128.576 319.682 129.209 319.682ZM141.452 316.192C143.74 316.192 145.312 315.073 145.721 313.366L143.561 313.124C143.248 313.955 142.481 314.389 141.484 314.389C139.988 314.389 138.997 313.405 138.978 311.724H145.817V311.014C145.817 307.569 143.746 306.054 141.33 306.054C138.518 306.054 136.683 308.119 136.683 311.148C136.683 314.229 138.492 316.192 141.452 316.192ZM138.984 310.164C139.055 308.911 139.981 307.857 141.362 307.857C142.692 307.857 143.587 308.828 143.599 310.164H138.984ZM149.88 316.198C151.421 316.198 152.341 315.476 152.763 314.651H152.84V316H155.064V309.429C155.064 306.834 152.948 306.054 151.076 306.054C149.011 306.054 147.426 306.974 146.914 308.764L149.075 309.071C149.305 308.4 149.957 307.825 151.088 307.825C152.162 307.825 152.75 308.374 152.75 309.339V309.378C152.75 310.043 152.054 310.075 150.321 310.26C148.416 310.464 146.595 311.033 146.595 313.245C146.595 315.175 148.007 316.198 149.88 316.198ZM150.481 314.498C149.516 314.498 148.826 314.057 148.826 313.207C148.826 312.318 149.599 311.947 150.634 311.8C151.242 311.717 152.456 311.564 152.757 311.321V312.478C152.757 313.571 151.875 314.498 150.481 314.498ZM156.671 316H158.985V310.228C158.985 308.982 159.924 308.099 161.196 308.099C161.586 308.099 162.072 308.17 162.27 308.234V306.105C162.059 306.067 161.695 306.041 161.439 306.041C160.314 306.041 159.375 306.68 159.017 307.818H158.914V306.182H156.671V316Z" fill="white" fill-opacity="0.5"/>
<path d="M185.533 302.295H183.506L179.288 317.969H181.314L185.533 302.295ZM189.561 304.897H193.607V316H195.96V304.897H200.006V302.909H189.561V304.897ZM204.12 316.192C206.408 316.192 207.98 315.073 208.39 313.366L206.229 313.124C205.916 313.955 205.149 314.389 204.152 314.389C202.656 314.389 201.665 313.405 201.646 311.724H208.485V311.014C208.485 307.569 206.414 306.054 203.998 306.054C201.186 306.054 199.351 308.119 199.351 311.148C199.351 314.229 201.16 316.192 204.12 316.192ZM201.652 310.164C201.723 308.911 202.649 307.857 204.03 307.857C205.36 307.857 206.255 308.828 206.267 310.164H201.652ZM212.548 316.198C214.089 316.198 215.009 315.476 215.431 314.651H215.508V316H217.732V309.429C217.732 306.834 215.616 306.054 213.744 306.054C211.679 306.054 210.094 306.974 209.582 308.764L211.743 309.071C211.973 308.4 212.625 307.825 213.756 307.825C214.83 307.825 215.418 308.374 215.418 309.339V309.378C215.418 310.043 214.722 310.075 212.989 310.26C211.084 310.464 209.263 311.033 209.263 313.245C209.263 315.175 210.675 316.198 212.548 316.198ZM213.149 314.498C212.184 314.498 211.494 314.057 211.494 313.207C211.494 312.318 212.267 311.947 213.303 311.8C213.91 311.717 215.124 311.564 215.425 311.321V312.478C215.425 313.571 214.543 314.498 213.149 314.498ZM219.339 316H221.653V310.03C221.653 308.822 222.458 308.004 223.455 308.004C224.433 308.004 225.105 308.662 225.105 309.672V316H227.374V309.876C227.374 308.771 228.032 308.004 229.151 308.004C230.084 308.004 230.825 308.553 230.825 309.768V316H233.146V309.41C233.146 307.217 231.88 306.054 230.078 306.054C228.652 306.054 227.565 306.757 227.131 307.85H227.029C226.651 306.738 225.699 306.054 224.376 306.054C223.059 306.054 222.075 306.732 221.666 307.85H221.551V306.182H219.339V316ZM245.735 306.508H248.017C247.972 304.296 246.086 302.73 243.299 302.73C240.551 302.73 238.486 304.277 238.492 306.591C238.492 308.47 239.828 309.55 241.983 310.107L243.472 310.49C244.885 310.848 245.818 311.289 245.824 312.305C245.818 313.424 244.757 314.172 243.21 314.172C241.727 314.172 240.576 313.507 240.48 312.133H238.147C238.243 314.734 240.18 316.198 243.229 316.198C246.367 316.198 248.189 314.632 248.196 312.325C248.189 310.055 246.316 309.02 244.348 308.553L243.12 308.246C242.046 307.991 240.883 307.537 240.896 306.444C240.902 305.46 241.784 304.737 243.267 304.737C244.68 304.737 245.613 305.396 245.735 306.508ZM249.488 316H251.801V306.182H249.488V316ZM250.651 304.788C251.386 304.788 251.987 304.226 251.987 303.536C251.987 302.839 251.386 302.276 250.651 302.276C249.909 302.276 249.309 302.839 249.309 303.536C249.309 304.226 249.909 304.788 250.651 304.788ZM253.333 316H261.393V314.082H256.408V313.999L261.227 307.761V306.182H253.499V308.099H258.396V308.183L253.333 314.53V316ZM266.914 316.192C269.202 316.192 270.774 315.073 271.184 313.366L269.023 313.124C268.71 313.955 267.943 314.389 266.946 314.389C265.45 314.389 264.459 313.405 264.44 311.724H271.279V311.014C271.279 307.569 269.208 306.054 266.792 306.054C263.98 306.054 262.145 308.119 262.145 311.148C262.145 314.229 263.954 316.192 266.914 316.192ZM264.446 310.164C264.517 308.911 265.443 307.857 266.824 307.857C268.154 307.857 269.049 308.828 269.061 310.164H264.446ZM273.942 316.141C274.697 316.141 275.342 315.514 275.349 314.734C275.342 313.967 274.697 313.341 273.942 313.341C273.163 313.341 272.53 313.967 272.536 314.734C272.53 315.514 273.163 316.141 273.942 316.141ZM273.942 309.129C274.697 309.129 275.342 308.502 275.349 307.722C275.342 306.955 274.697 306.329 273.942 306.329C273.163 306.329 272.53 306.955 272.536 307.722C272.53 308.502 273.163 309.129 273.942 309.129ZM286.062 302.909H283.805L280.552 304.999V307.173L283.613 305.217H283.69V316H286.062V302.909ZM293.504 316.249C296.662 316.256 298.547 313.763 298.547 309.467C298.547 305.197 296.649 302.73 293.504 302.73C290.359 302.73 288.467 305.191 288.461 309.467C288.461 313.756 290.346 316.249 293.504 316.249ZM293.504 314.249C291.874 314.249 290.851 312.612 290.858 309.467C290.864 306.348 291.881 304.705 293.504 304.705C295.134 304.705 296.15 306.348 296.157 309.467C296.157 312.612 295.141 314.249 293.504 314.249Z" fill="white" fill-opacity="0.5"/>
<path fill-rule="evenodd" clip-rule="evenodd" d="M145.937 62.1143V65.0852H150.116V66.0965H144.709V57.2471H150.09V58.2584H145.937V61.1029H149.559V62.1143H145.937Z" fill="white" stroke="white" stroke-width="0.276545"/>
<path fill-rule="evenodd" clip-rule="evenodd" d="M134.386 72.476C133.908 72.5178 133.487 72.1641 133.445 71.6859L131.91 54.1449C131.868 53.6667 132.222 53.2452 132.7 53.2033L160.354 50.7839C160.833 50.7421 161.254 51.0958 161.296 51.574L162.831 69.115C162.873 69.5932 162.519 70.0147 162.041 70.0566L134.386 72.476Z" stroke="white" stroke-width="0.276545"/>
<path fill-rule="evenodd" clip-rule="evenodd" d="M131.46 67.3812C130.996 67.257 130.721 66.7804 130.845 66.3167L135.402 49.3087C135.527 48.845 136.003 48.5699 136.467 48.6941L163.281 55.8789C163.744 56.0031 164.02 56.4797 163.895 56.9434L159.338 73.9514C159.214 74.4151 158.737 74.6902 158.274 74.566L131.46 67.3812Z" stroke="white" stroke-width="0.276545"/>
<path fill-rule="evenodd" clip-rule="evenodd" d="M130.452 61.5923C130.059 61.3169 129.963 60.775 130.239 60.3818L140.338 45.9582C140.614 45.565 141.156 45.4694 141.549 45.7447L164.288 61.6671C164.682 61.9425 164.777 62.4844 164.502 62.8776L154.402 77.3012C154.127 77.6944 153.585 77.79 153.192 77.5147L130.452 61.5923Z" stroke="white" stroke-width="0.276545"/>
<path fill-rule="evenodd" clip-rule="evenodd" d="M131.485 55.8086C131.21 55.4154 131.305 54.8735 131.698 54.5982L146.122 44.4986C146.515 44.2233 147.057 44.3189 147.332 44.7121L163.255 67.4516C163.53 67.8448 163.435 68.3868 163.041 68.6621L148.618 78.7616C148.225 79.037 147.683 78.9414 147.407 78.5482L131.485 55.8086Z" stroke="white" stroke-width="0.276545"/>
<path fill-rule="evenodd" clip-rule="evenodd" d="M134.434 50.7262C134.31 50.2626 134.585 49.786 135.049 49.6618L152.057 45.1045C152.52 44.9802 152.997 45.2554 153.121 45.7191L160.306 72.533C160.43 72.9967 160.155 73.4733 159.691 73.5975L142.683 78.1548C142.22 78.279 141.743 78.0039 141.619 77.5402L134.434 50.7262Z" stroke="white" stroke-width="0.276545"/>
<path fill-rule="evenodd" clip-rule="evenodd" d="M138.944 46.9596C138.986 46.4814 139.407 46.1277 139.885 46.1695L157.426 47.7041C157.905 47.746 158.258 48.1675 158.216 48.6457L155.797 76.3C155.755 76.7782 155.334 77.1319 154.855 77.0901L137.314 75.5554C136.836 75.5136 136.483 75.092 136.524 74.6138L138.944 46.9596Z" stroke="white" stroke-width="0.276545"/>
<path fill-rule="evenodd" clip-rule="evenodd" d="M144.47 44.9625C144.672 44.5275 145.19 44.3393 145.625 44.5421L161.583 51.9836C162.018 52.1864 162.206 52.7036 162.003 53.1386L150.271 78.2976C150.069 78.7326 149.551 78.9209 149.116 78.718L133.158 71.2765C132.723 71.0737 132.535 70.5566 132.738 70.1215L144.47 44.9625Z" stroke="white" stroke-width="0.276545"/>
<path fill-rule="evenodd" clip-rule="evenodd" d="M150.344 44.9759C150.684 44.6365 151.234 44.6365 151.574 44.9759L164.024 57.4266C164.364 57.7661 164.364 58.3164 164.024 58.6558L144.395 78.285C144.056 78.6244 143.505 78.6244 143.166 78.285L130.715 65.8343C130.376 65.4948 130.376 64.9445 130.715 64.6051L150.344 44.9759Z" stroke="white" stroke-width="0.276545"/>
<path fill-rule="evenodd" clip-rule="evenodd" d="M155.862 46.9972C156.297 46.7943 156.814 46.9826 157.017 47.4176L164.458 63.3759C164.661 63.8109 164.473 64.328 164.038 64.5309L138.879 76.2627C138.444 76.4656 137.927 76.2774 137.724 75.8423L130.282 59.8841C130.079 59.449 130.268 58.9319 130.703 58.729L155.862 46.9972Z" stroke="white" stroke-width="0.276545"/>
<path fill-rule="evenodd" clip-rule="evenodd" d="M160.354 50.7838C160.832 50.7419 161.254 51.0957 161.295 51.5738L162.83 69.1148C162.872 69.593 162.518 70.0146 162.04 70.0564L134.386 72.4759C133.908 72.5177 133.486 72.164 133.444 71.6858L131.91 54.1448C131.868 53.6666 132.221 53.245 132.7 53.2032L160.354 50.7838Z" stroke="white" stroke-width="0.276545"/>
<path fill-rule="evenodd" clip-rule="evenodd" d="M80.0144 66.1481C77.4969 67.9104 74.5228 69.7547 71.3275 71.6947L71.203 71.763C71.1615 71.7903 71.1477 71.845 71.1753 71.8996C71.203 71.9406 71.2583 71.9543 71.3137 71.9269L71.4243 71.8723C74.1355 70.4788 77.2617 68.8121 80.3879 67.1044C80.4017 67.0907 80.4156 67.0907 80.4432 67.0771C80.2634 66.7902 80.1112 66.476 80.0144 66.1481ZM96.5031 52.9647C92.547 48.6476 67.081 52.5275 56.25 54.8637L56.001 54.9183C55.9456 54.932 55.918 54.973 55.918 55.0276C55.9318 55.0823 55.9733 55.1096 56.0286 55.1096L56.2776 55.0549C65.2412 53.4839 83.9015 51.298 87.9268 55.2325C89.158 56.4348 88.8536 57.9785 87.4427 59.7955C88.2035 60.2873 88.7568 61.0524 89.0058 62.0087C94.5389 58.361 98.2599 54.891 96.5031 52.9647Z" fill="#A12830"/>
<path fill-rule="evenodd" clip-rule="evenodd" d="M81.6192 65.0145C81.6746 66.5309 82.6428 67.7741 83.9155 67.7741C86.3777 67.7741 87.4151 64.7959 87.346 62.8013C87.2906 61.2849 86.2947 60.0416 85.0359 60.0416C82.9057 60.0416 81.5501 63.0062 81.6192 65.0145ZM80.3189 64.9325C80.2221 62.3368 82.2832 59.7001 85.271 59.7001C87.263 59.7001 88.5771 61.0116 88.6462 63.0199C88.743 65.7522 86.8203 68.2522 83.6941 68.2522C81.7022 68.2522 80.3881 66.9407 80.3189 64.9325ZM52.0587 64.2494C51.948 64.2904 51.8097 64.3313 51.6437 64.3587C51.4777 64.3997 51.1596 64.4543 50.7169 64.5226C50.4126 64.5773 50.1913 64.6319 50.0668 64.7275C49.9423 64.8095 49.8731 64.9188 49.8593 65.0417C49.8316 65.1784 49.8731 65.2877 49.9976 65.3696C50.1221 65.4516 50.3158 65.4926 50.5924 65.4926C50.7999 65.4926 51.0074 65.4653 51.2149 65.3969C51.4224 65.3286 51.5884 65.2467 51.7267 65.1374C51.8236 65.0554 51.8927 64.9461 51.948 64.8232C51.9619 64.7275 52.0034 64.5363 52.0587 64.2494ZM54.6593 62.651C54.6455 62.8833 54.604 63.1018 54.5486 63.457L54.106 65.8888C54.0645 66.1074 54.1475 66.2713 54.355 66.3943L54.3411 66.4899H51.8236L51.7959 65.8751C51.4363 66.0937 50.9936 66.2713 50.5925 66.3806C50.1913 66.4763 49.8732 66.5309 49.389 66.5309C48.5729 66.5309 48.1164 66.4489 47.7983 66.1757C47.4663 65.8888 47.3141 65.6975 47.328 65.3014C47.3418 65.0691 47.4525 64.7822 47.6323 64.5773C47.8121 64.3724 48.0473 64.2358 48.2963 64.1128C48.5591 63.9898 48.8634 63.9079 49.306 63.8396C49.7487 63.7713 50.3712 63.703 51.2011 63.6346C51.6299 63.5937 51.9066 63.498 52.0311 63.457C52.2109 63.3887 52.2662 63.3204 52.2939 63.1838C52.3354 62.9379 52.2662 62.7876 51.9204 62.7193C51.0213 62.5417 49.3199 62.8286 48.4484 63.0472L48.9187 61.7767C50.0668 61.6127 51.1596 61.5034 52.2939 61.5034C54.0922 61.4898 54.6731 61.9953 54.6593 62.651ZM61.9353 66.4899L62.8067 61.6264H65.2136L64.3421 66.4899H61.9353ZM62.9451 60.5061C63.0143 60.1099 63.6506 59.782 64.3699 59.782C65.0892 59.782 65.601 60.1099 65.5319 60.5061C65.4627 60.9023 64.8126 61.2302 64.1071 61.2302C63.3878 61.2302 62.8621 60.9023 62.9451 60.5061ZM73.7622 64.2631C73.6516 64.3041 73.5133 64.345 73.3473 64.3724C73.1813 64.4134 72.8631 64.468 72.4066 64.5363C72.1023 64.591 71.881 64.6456 71.7565 64.7412C71.6458 64.8232 71.5767 64.9325 71.549 65.0555C71.5213 65.1921 71.5767 65.3014 71.6873 65.3833C71.8118 65.4653 72.0055 65.5063 72.296 65.5063C72.5035 65.5063 72.711 65.479 72.9184 65.4107C73.1259 65.3423 73.2919 65.2604 73.4303 65.1511C73.5271 65.0691 73.5963 64.9598 73.6378 64.8369C73.6654 64.7412 73.7069 64.55 73.7622 64.2631ZM76.349 62.6646C76.3352 62.8969 76.2937 63.1155 76.2245 63.4707L75.7957 65.9024C75.7542 66.121 75.8372 66.285 76.0447 66.4079L76.0309 66.4899H73.5133L73.4995 65.8751C73.126 66.0937 72.6833 66.2713 72.296 66.3806C71.8949 66.4899 71.5767 66.5309 71.0926 66.5309C70.2764 66.5309 69.82 66.4489 69.5018 66.1757C69.1698 65.8888 69.0177 65.6975 69.0315 65.3013C69.0453 65.0691 69.156 64.7822 69.3358 64.5773C69.5156 64.3723 69.7508 64.2357 69.9998 64.1128C70.2626 63.9898 70.5669 63.9079 71.0096 63.8259C71.4522 63.7576 72.0747 63.6893 72.9047 63.621C73.3335 63.58 73.5963 63.4843 73.7208 63.4434C73.9006 63.3751 73.9698 63.3067 73.9974 63.1565C74.0389 62.9106 73.9559 62.7603 73.624 62.692C72.711 62.5144 71.0234 62.8013 70.152 63.0199L70.6223 61.7493C71.7842 61.5854 72.8493 61.4761 73.9974 61.4761C75.7819 61.5034 76.3628 62.0089 76.349 62.6646ZM46.996 64.7412C46.2075 64.8915 45.7787 64.9598 45.0041 64.9598C43.856 64.9598 42.943 64.3997 42.9845 63.3614C43.026 62.6783 43.8421 61.2165 45.9447 61.2165C46.6087 61.2165 47.1205 61.3258 47.8121 61.722L48.1164 60.0416C47.1758 59.6864 46.5533 59.6318 45.7372 59.6454C42.9845 59.6727 40.3425 60.9023 40.0243 63.416C39.6923 65.9707 42.8462 66.6128 44.2433 66.5992C45.0456 66.5992 45.8894 66.5582 46.6778 66.4899L46.996 64.7412ZM66.5416 61.599L66.7075 60.6154L69.2251 60.0689L68.9623 61.599H70.1934L69.9582 62.5827H68.7686L68.0493 66.4899C68.0493 66.4899 65.6286 66.4762 65.6148 66.4899L66.3341 62.5963H65.4211L65.6009 61.6127H66.5416V61.599ZM78.7974 66.4899H76.3352L77.5663 59.7137L79.9594 59.782L78.7974 66.4899ZM58.7538 62.7739C58.4357 62.7739 58.159 62.8696 57.8962 63.0608C57.6472 63.2521 57.4812 63.5253 57.4259 63.8942C57.3567 64.3177 57.3982 64.6183 57.5642 64.8095C57.7302 65.0008 57.9792 65.0964 58.3112 65.0964C58.5325 65.0964 58.7538 65.0554 58.9198 64.9735C59.1273 64.8642 59.2656 64.7549 59.3901 64.5773C59.5284 64.386 59.6114 64.1811 59.6529 63.9352C59.7221 63.5527 59.6668 63.2658 59.4869 63.0745C59.3071 62.8696 59.072 62.7739 58.7538 62.7739ZM54.3689 68.1703L55.5447 61.6537H57.6611L57.4951 62.4871C57.6749 62.2412 57.9654 62.0362 58.3804 61.8723C58.7815 61.7084 59.2518 61.5854 59.7498 61.5854C60.3031 61.5854 60.6351 61.6127 61.0501 61.8313C61.4651 62.0499 61.7417 62.3504 61.9077 62.7603C62.0599 63.1565 62.1014 63.5937 62.0184 64.0855C61.88 64.8915 61.4789 65.5199 60.8288 65.9844C60.1786 66.4489 59.5976 66.5719 58.7815 66.5719C58.491 66.5719 58.242 66.5446 58.0345 66.4899C57.8409 66.4353 57.6749 66.3806 57.5504 66.2987C57.4397 66.2167 57.3152 66.1211 57.1493 65.9434L56.7619 68.1703H54.3689ZM98.0525 63.3751C98.0387 62.9789 97.845 62.7193 97.4301 62.7193C96.4479 62.7193 95.3967 64.632 95.2168 65.397C96.8214 65.397 98.0802 64.4407 98.0525 63.3751ZM98.2599 66.367L98.4536 66.4899C97.9694 67.4599 96.9873 68.2386 95.8392 68.2386C94.8986 68.2386 94.124 67.6238 94.0825 66.4626C94.0133 64.386 95.9775 62.4461 97.596 62.4461C98.2876 62.4461 98.9377 62.7466 98.9654 63.4844C99.0207 65.1374 96.6692 65.6429 95.1199 65.6839C95.0646 65.8615 95.0507 66.0254 95.0646 66.2987C95.0922 66.9817 95.5072 67.5692 96.3787 67.5692C97.1256 67.5419 97.8726 66.9544 98.2599 66.367Z" fill="white"/>
<path fill-rule="evenodd" clip-rule="evenodd" d="M88.6043 63.3206C88.7703 63.2933 89.047 63.266 89.1576 63.266C89.3374 63.266 89.5034 63.2933 89.5034 63.4709C89.5034 63.5802 89.3236 64.3179 89.2821 64.4819L88.9086 66.1213C88.7565 66.7907 88.5905 67.4874 88.4521 68.0476H89.4204L89.9599 65.4655C91.6198 63.7715 92.2561 63.2113 92.6435 63.2113C92.8233 63.2113 92.9339 63.307 92.9478 63.5119C92.9616 63.8125 92.768 64.4955 92.6988 64.6868L92.1455 66.5721C92.021 66.9956 91.9242 67.3781 91.938 67.6514C91.9518 68.0612 92.2146 68.2525 92.5881 68.2525C93.2936 68.2525 93.8054 67.5284 94.2481 66.818L94.1236 66.5858C93.9437 66.8727 93.5287 67.5011 93.1968 67.5011C93.0861 67.5011 92.9893 67.4328 92.9893 67.2552C92.9754 67.0366 93.0723 66.7087 93.1414 66.4901L93.7501 64.277C93.9161 63.6622 93.9991 63.2797 93.9852 63.0611C93.9714 62.6512 93.7224 62.46 93.3489 62.46C92.7126 62.46 91.8688 62.9108 90.0844 64.9464H90.0567L90.2781 63.9627C90.4026 63.4163 90.5132 62.8561 90.6377 62.4736C90.0152 62.6922 89.1438 62.9381 88.5905 63.0474L88.6043 63.3206Z" fill="white"/>
<path fill-rule="evenodd" clip-rule="evenodd" d="M111.094 57.5L114.247 60.6528L117.4 57.5L117.702 57.8021L114.549 60.9548L117.702 64.1076L117.4 64.4097L114.247 61.2569L111.094 64.4097L110.792 64.1076L113.945 60.9548L110.792 57.8021L111.094 57.5Z" fill="white" stroke="white" stroke-width="1.10618"/>
<path d="M64.9929 143.652C64.1875 137.835 59.7131 134.46 53.9091 134.46C47.0696 134.46 41.9176 139.446 41.9176 147.909C41.9176 156.359 47.0057 161.358 53.9091 161.358C60.1349 161.358 64.2642 157.331 64.9929 152.332L60.2116 152.307C59.6108 155.375 57.1051 157.101 53.973 157.101C49.7287 157.101 46.6861 153.918 46.6861 147.909C46.6861 142.003 49.7031 138.717 53.9858 138.717C57.169 138.717 59.6619 140.52 60.2116 143.652H64.9929ZM73.3423 161.396C76.4233 161.396 78.2642 159.952 79.1079 158.303H79.2613V161H83.7102V147.858C83.7102 142.668 79.4787 141.108 75.7329 141.108C71.6037 141.108 68.4332 142.949 67.4105 146.528L71.7315 147.142C72.1917 145.8 73.4957 144.649 75.7585 144.649C77.9062 144.649 79.0824 145.749 79.0824 147.679V147.756C79.0824 149.085 77.6889 149.149 74.2244 149.52C70.4148 149.929 66.7713 151.067 66.7713 155.49C66.7713 159.351 69.5966 161.396 73.3423 161.396ZM74.544 157.996C72.6136 157.996 71.2329 157.114 71.2329 155.413C71.2329 153.636 72.7798 152.895 74.8508 152.601C76.0653 152.435 78.4943 152.128 79.0952 151.642V153.956C79.0952 156.142 77.331 157.996 74.544 157.996ZM86.9236 168.364H91.5515V157.906H91.7432C92.4719 159.338 93.9932 161.345 97.3682 161.345C101.996 161.345 105.461 157.676 105.461 151.207C105.461 144.662 101.894 141.108 97.3554 141.108C93.891 141.108 92.4463 143.192 91.7432 144.611H91.4748V141.364H86.9236V168.364ZM91.462 151.182C91.462 147.372 93.0983 144.905 96.077 144.905C99.158 144.905 100.743 147.526 100.743 151.182C100.743 154.864 99.1324 157.548 96.077 157.548C93.1239 157.548 91.462 154.991 91.462 151.182ZM107.984 161H112.611V141.364H107.984V161ZM110.31 138.577C111.78 138.577 112.982 137.452 112.982 136.071C112.982 134.678 111.78 133.553 110.31 133.553C108.827 133.553 107.626 134.678 107.626 136.071C107.626 137.452 108.827 138.577 110.31 138.577ZM125.736 141.364H121.862V136.659H117.234V141.364H114.447V144.943H117.234V155.861C117.209 159.555 119.893 161.371 123.371 161.268C124.687 161.23 125.595 160.974 126.094 160.808L125.314 157.19C125.058 157.254 124.534 157.369 123.959 157.369C122.795 157.369 121.862 156.96 121.862 155.094V144.943H125.736V141.364ZM133.817 161.396C136.898 161.396 138.739 159.952 139.582 158.303H139.736V161H144.185V147.858C144.185 142.668 139.953 141.108 136.207 141.108C132.078 141.108 128.908 142.949 127.885 146.528L132.206 147.142C132.666 145.8 133.97 144.649 136.233 144.649C138.381 144.649 139.557 145.749 139.557 147.679V147.756C139.557 149.085 138.163 149.149 134.699 149.52C130.889 149.929 127.246 151.067 127.246 155.49C127.246 159.351 130.071 161.396 133.817 161.396ZM135.018 157.996C133.088 157.996 131.707 157.114 131.707 155.413C131.707 153.636 133.254 152.895 135.325 152.601C136.54 152.435 138.969 152.128 139.57 151.642V153.956C139.57 156.142 137.805 157.996 135.018 157.996ZM152.026 134.818H147.398V161H152.026V134.818ZM186.434 147.909C186.434 139.446 181.269 134.46 174.404 134.46C167.526 134.46 162.374 139.446 162.374 147.909C162.374 156.359 167.526 161.358 174.404 161.358C181.269 161.358 186.434 156.372 186.434 147.909ZM181.665 147.909C181.665 153.866 178.674 157.101 174.404 157.101C170.147 157.101 167.143 153.866 167.143 147.909C167.143 141.952 170.147 138.717 174.404 138.717C178.674 138.717 181.665 141.952 181.665 147.909ZM193.901 149.494C193.901 146.656 195.614 145.02 198.056 145.02C200.447 145.02 201.878 146.592 201.878 149.213V161H206.506V148.497C206.519 143.793 203.834 141.108 199.782 141.108C196.841 141.108 194.822 142.514 193.927 144.7H193.697V141.364H189.273V161H193.901V149.494ZM218.464 161.384C223.041 161.384 226.186 159.146 227.004 155.733L222.683 155.247C222.056 156.909 220.522 157.778 218.528 157.778C215.536 157.778 213.555 155.81 213.517 152.447H227.196V151.028C227.196 144.138 223.053 141.108 218.221 141.108C212.596 141.108 208.927 145.237 208.927 151.297C208.927 157.459 212.545 161.384 218.464 161.384ZM213.529 149.328C213.67 146.822 215.524 144.713 218.285 144.713C220.944 144.713 222.734 146.656 222.759 149.328H213.529Z" fill="white" fill-opacity="0.5"/>
<path d="M64.9929 187.652C64.1875 181.835 59.7131 178.46 53.9091 178.46C47.0696 178.46 41.9176 183.446 41.9176 191.909C41.9176 200.359 47.0057 205.358 53.9091 205.358C60.1349 205.358 64.2642 201.331 64.9929 196.332L60.2116 196.307C59.6108 199.375 57.1051 201.101 53.973 201.101C49.7287 201.101 46.6861 197.918 46.6861 191.909C46.6861 186.003 49.7031 182.717 53.9858 182.717C57.169 182.717 59.6619 184.52 60.2116 187.652H64.9929ZM73.3423 205.396C76.4233 205.396 78.2642 203.952 79.1079 202.303H79.2613V205H83.7102V191.858C83.7102 186.668 79.4787 185.108 75.7329 185.108C71.6037 185.108 68.4332 186.949 67.4105 190.528L71.7315 191.142C72.1917 189.8 73.4957 188.649 75.7585 188.649C77.9062 188.649 79.0824 189.749 79.0824 191.679V191.756C79.0824 193.085 77.6889 193.149 74.2244 193.52C70.4148 193.929 66.7713 195.067 66.7713 199.49C66.7713 203.351 69.5966 205.396 73.3423 205.396ZM74.544 201.996C72.6136 201.996 71.2329 201.114 71.2329 199.413C71.2329 197.636 72.7798 196.895 74.8508 196.601C76.0653 196.435 78.4943 196.128 79.0952 195.642V197.956C79.0952 200.142 77.331 201.996 74.544 201.996ZM86.9236 212.364H91.5515V201.906H91.7432C92.4719 203.338 93.9932 205.345 97.3682 205.345C101.996 205.345 105.461 201.676 105.461 195.207C105.461 188.662 101.894 185.108 97.3554 185.108C93.891 185.108 92.4463 187.192 91.7432 188.611H91.4748V185.364H86.9236V212.364ZM91.462 195.182C91.462 191.372 93.0983 188.905 96.077 188.905C99.158 188.905 100.743 191.526 100.743 195.182C100.743 198.864 99.1324 201.548 96.077 201.548C93.1239 201.548 91.462 198.991 91.462 195.182ZM107.984 205H112.611V185.364H107.984V205ZM110.31 182.577C111.78 182.577 112.982 181.452 112.982 180.071C112.982 178.678 111.78 177.553 110.31 177.553C108.827 177.553 107.626 178.678 107.626 180.071C107.626 181.452 108.827 182.577 110.31 182.577ZM125.736 185.364H121.862V180.659H117.234V185.364H114.447V188.943H117.234V199.861C117.209 203.555 119.893 205.371 123.371 205.268C124.687 205.23 125.595 204.974 126.094 204.808L125.314 201.19C125.058 201.254 124.534 201.369 123.959 201.369C122.795 201.369 121.862 200.96 121.862 199.094V188.943H125.736V185.364ZM133.817 205.396C136.898 205.396 138.739 203.952 139.582 202.303H139.736V205H144.185V191.858C144.185 186.668 139.953 185.108 136.207 185.108C132.078 185.108 128.908 186.949 127.885 190.528L132.206 191.142C132.666 189.8 133.97 188.649 136.233 188.649C138.381 188.649 139.557 189.749 139.557 191.679V191.756C139.557 193.085 138.163 193.149 134.699 193.52C130.889 193.929 127.246 195.067 127.246 199.49C127.246 203.351 130.071 205.396 133.817 205.396ZM135.018 201.996C133.088 201.996 131.707 201.114 131.707 199.413C131.707 197.636 133.254 196.895 135.325 196.601C136.54 196.435 138.969 196.128 139.57 195.642V197.956C139.57 200.142 137.805 201.996 135.018 201.996ZM152.026 178.818H147.398V205H152.026V178.818ZM186.434 191.909C186.434 183.446 181.269 178.46 174.404 178.46C167.526 178.46 162.374 183.446 162.374 191.909C162.374 200.359 167.526 205.358 174.404 205.358C181.269 205.358 186.434 200.372 186.434 191.909ZM181.665 191.909C181.665 197.866 178.674 201.101 174.404 201.101C170.147 201.101 167.143 197.866 167.143 191.909C167.143 185.952 170.147 182.717 174.404 182.717C178.674 182.717 181.665 185.952 181.665 191.909ZM193.901 193.494C193.901 190.656 195.614 189.02 198.056 189.02C200.447 189.02 201.878 190.592 201.878 193.213V205H206.506V192.497C206.519 187.793 203.834 185.108 199.782 185.108C196.841 185.108 194.822 186.514 193.927 188.7H193.697V185.364H189.273V205H193.901V193.494ZM218.464 205.384C223.041 205.384 226.186 203.146 227.004 199.733L222.683 199.247C222.056 200.909 220.522 201.778 218.528 201.778C215.536 201.778 213.555 199.81 213.517 196.447H227.196V195.028C227.196 188.138 223.053 185.108 218.221 185.108C212.596 185.108 208.927 189.237 208.927 195.297C208.927 201.459 212.545 205.384 218.464 205.384ZM213.529 193.328C213.67 190.822 215.524 188.713 218.285 188.713C220.944 188.713 222.734 190.656 222.759 193.328H213.529ZM42.5824 249H59.7131V245.024H47.3253V237.878H58.7287V233.902H47.3253V226.794H59.6108V222.818H42.5824V249ZM67.4329 222.818H62.805V249H67.4329V222.818ZM79.4449 249.384C84.0216 249.384 87.1665 247.146 87.9847 243.733L83.6637 243.247C83.0373 244.909 81.5032 245.778 79.5088 245.778C76.5174 245.778 74.5358 243.81 74.4975 240.447H88.1765V239.028C88.1765 232.138 84.0344 229.108 79.202 229.108C73.577 229.108 69.908 233.237 69.908 239.297C69.908 245.459 73.5259 249.384 79.4449 249.384ZM74.5103 237.328C74.6509 234.822 76.5046 232.713 79.266 232.713C81.925 232.713 83.7148 234.656 83.7404 237.328H74.5103ZM90.6516 249H95.2794V237.06C95.2794 234.643 96.8902 233.007 98.8845 233.007C100.841 233.007 102.183 234.324 102.183 236.344V249H106.721V236.753C106.721 234.541 108.038 233.007 110.275 233.007C112.142 233.007 113.625 234.107 113.625 236.536V249H118.265V235.82C118.265 231.435 115.734 229.108 112.129 229.108C109.278 229.108 107.105 230.514 106.235 232.7H106.031C105.277 230.476 103.372 229.108 100.725 229.108C98.0919 229.108 96.1232 230.463 95.305 232.7H95.0749V229.364H90.6516V249ZM130.213 249.384C134.79 249.384 137.935 247.146 138.753 243.733L134.432 243.247C133.806 244.909 132.272 245.778 130.277 245.778C127.286 245.778 125.304 243.81 125.266 240.447H138.945V239.028C138.945 232.138 134.803 229.108 129.97 229.108C124.345 229.108 120.676 233.237 120.676 239.297C120.676 245.459 124.294 249.384 130.213 249.384ZM125.279 237.328C125.419 234.822 127.273 232.713 130.034 232.713C132.693 232.713 134.483 234.656 134.509 237.328H125.279ZM146.048 237.494C146.048 234.656 147.761 233.02 150.203 233.02C152.593 233.02 154.025 234.592 154.025 237.213V249H158.653V236.497C158.666 231.793 155.981 229.108 151.929 229.108C148.988 229.108 146.968 230.514 146.073 232.7H145.843V229.364H141.42V249H146.048V237.494ZM171.723 229.364H167.849V224.659H163.222V229.364H160.435V232.943H163.222V243.861C163.196 247.555 165.881 249.371 169.358 249.268C170.675 249.23 171.582 248.974 172.081 248.808L171.301 245.19C171.045 245.254 170.521 245.369 169.946 245.369C168.783 245.369 167.849 244.96 167.849 243.094V232.943H171.723V229.364ZM189.392 234.554C188.753 231.23 186.094 229.108 181.491 229.108C176.761 229.108 173.54 231.435 173.552 235.065C173.54 237.929 175.304 239.821 179.075 240.601L182.425 241.304C184.227 241.7 185.071 242.429 185.071 243.541C185.071 244.884 183.614 245.893 181.415 245.893C179.293 245.893 177.912 244.973 177.516 243.209L173.003 243.643C173.578 247.249 176.608 249.384 181.427 249.384C186.337 249.384 189.801 246.839 189.814 243.119C189.801 240.32 187.998 238.607 184.291 237.801L180.942 237.085C178.947 236.638 178.155 235.947 178.168 234.81C178.155 233.48 179.625 232.56 181.555 232.56C183.69 232.56 184.815 233.723 185.173 235.014L189.392 234.554Z" fill="white"/>
</svg>
