<svg width="496" height="82" viewBox="0 0 496 82" fill="none" xmlns="http://www.w3.org/2000/svg">
<path fill-rule="evenodd" clip-rule="evenodd" d="M105.937 18.1145V21.0854H110.116V22.0968H104.709V13.2473H110.09V14.2587H105.937V17.1031H109.559V18.1145H105.937Z" fill="white" stroke="white" stroke-width="0.276545"/>
<path fill-rule="evenodd" clip-rule="evenodd" d="M94.3863 28.476C93.9082 28.5178 93.4866 28.1641 93.4448 27.6859L91.9101 10.1449C91.8683 9.66673 92.222 9.24517 92.7002 9.20333L120.354 6.7839C120.833 6.74206 121.254 7.0958 121.296 7.57398L122.831 25.115C122.873 25.5932 122.519 26.0147 122.041 26.0566L94.3863 28.476Z" stroke="white" stroke-width="0.276545"/>
<path fill-rule="evenodd" clip-rule="evenodd" d="M91.4596 23.3811C90.996 23.2568 90.7208 22.7803 90.8451 22.3166L95.4024 5.30857C95.5266 4.84491 96.0032 4.56976 96.4668 4.694L123.281 11.8788C123.744 12.003 124.02 12.4796 123.895 12.9433L119.338 29.9513C119.214 30.4149 118.737 30.6901 118.274 30.5659L91.4596 23.3811Z" stroke="white" stroke-width="0.276545"/>
<path fill-rule="evenodd" clip-rule="evenodd" d="M90.4522 17.5925C90.059 17.3172 89.9634 16.7752 90.2388 16.382L100.338 1.9584C100.614 1.56519 101.156 1.46963 101.549 1.74496L124.288 17.6674C124.682 17.9427 124.777 18.4846 124.502 18.8779L114.402 33.3015C114.127 33.6947 113.585 33.7903 113.192 33.5149L90.4522 17.5925Z" stroke="white" stroke-width="0.276545"/>
<path fill-rule="evenodd" clip-rule="evenodd" d="M91.4848 11.8085C91.2095 11.4153 91.3051 10.8734 91.6983 10.598L106.122 0.4985C106.515 0.223175 107.057 0.318736 107.332 0.71194L123.255 23.4515C123.53 23.8447 123.435 24.3867 123.041 24.662L108.618 34.7615C108.225 35.0368 107.683 34.9413 107.407 34.5481L91.4848 11.8085Z" stroke="white" stroke-width="0.276545"/>
<path fill-rule="evenodd" clip-rule="evenodd" d="M94.4339 6.72661C94.3097 6.26295 94.5849 5.78637 95.0485 5.66213L112.057 1.10485C112.52 0.98061 112.997 1.25577 113.121 1.71942L120.306 28.5334C120.43 28.9971 120.155 29.4737 119.691 29.5979L102.683 34.1552C102.22 34.2794 101.743 34.0043 101.619 33.5406L94.4339 6.72661Z" stroke="white" stroke-width="0.276545"/>
<path fill-rule="evenodd" clip-rule="evenodd" d="M98.9438 2.95983C98.9856 2.48164 99.4072 2.12791 99.8854 2.16974L117.426 3.70438C117.905 3.74622 118.258 4.16778 118.216 4.64597L115.797 32.3002C115.755 32.7784 115.334 33.1321 114.855 33.0903L97.3144 31.5557C96.8362 31.5138 96.4825 31.0923 96.5243 30.6141L98.9438 2.95983Z" stroke="white" stroke-width="0.276545"/>
<path fill-rule="evenodd" clip-rule="evenodd" d="M104.47 0.962394C104.672 0.527353 105.19 0.339135 105.625 0.541998L121.583 7.98346C122.018 8.18633 122.206 8.70345 122.003 9.13849L110.271 34.2975C110.069 34.7325 109.551 34.9207 109.116 34.7179L93.1582 27.2764C92.7231 27.0736 92.5349 26.5564 92.7378 26.1214L104.47 0.962394Z" stroke="white" stroke-width="0.276545"/>
<path fill-rule="evenodd" clip-rule="evenodd" d="M110.344 0.975417C110.684 0.635996 111.234 0.635995 111.574 0.975416L124.024 13.4262C124.364 13.7656 124.364 14.3159 124.024 14.6553L104.395 34.2845C104.056 34.6239 103.505 34.6239 103.166 34.2845L90.7152 21.8338C90.3758 21.4943 90.3758 20.944 90.7152 20.6046L110.344 0.975417Z" stroke="white" stroke-width="0.276545"/>
<path fill-rule="evenodd" clip-rule="evenodd" d="M115.862 2.9972C116.297 2.79434 116.814 2.98255 117.017 3.41759L124.458 19.3759C124.661 19.8109 124.473 20.328 124.038 20.5309L98.8788 32.2627C98.4438 32.4656 97.9266 32.2774 97.7238 31.8423L90.2823 15.8841C90.0794 15.449 90.2677 14.9319 90.7027 14.729L115.862 2.9972Z" stroke="white" stroke-width="0.276545"/>
<path fill-rule="evenodd" clip-rule="evenodd" d="M120.354 6.78388C120.832 6.74204 121.254 7.09578 121.295 7.57397L122.83 25.115C122.872 25.5932 122.518 26.0147 122.04 26.0566L94.3858 28.476C93.9076 28.5178 93.486 28.1641 93.4442 27.6859L91.9096 10.1449C91.8677 9.66671 92.2215 9.24515 92.6996 9.20331L120.354 6.78388Z" stroke="white" stroke-width="0.276545"/>
<path fill-rule="evenodd" clip-rule="evenodd" d="M40.0144 22.1482C37.4969 23.9106 34.5228 25.7549 31.3275 27.6948L31.203 27.7631C31.1615 27.7904 31.1477 27.8451 31.1753 27.8997C31.203 27.9407 31.2583 27.9544 31.3137 27.9271L31.4243 27.8724C34.1355 26.4789 37.2617 24.8122 40.3879 23.1045C40.4017 23.0909 40.4156 23.0909 40.4432 23.0772C40.2634 22.7903 40.1112 22.4761 40.0144 22.1482ZM56.5031 8.96483C52.547 4.64777 27.081 8.52766 16.25 10.8638L16.001 10.9184C15.9456 10.9321 15.918 10.9731 15.918 11.0277C15.9318 11.0824 15.9733 11.1097 16.0286 11.1097L16.2776 11.0551C25.2412 9.48397 43.9015 7.29812 47.9268 11.2327C49.158 12.4349 48.8536 13.9786 47.4427 15.7956C48.2035 16.2875 48.7568 17.0525 49.0058 18.0088C54.5389 14.3612 58.2599 10.8911 56.5031 8.96483Z" fill="#A12830"/>
<path fill-rule="evenodd" clip-rule="evenodd" d="M41.6192 21.0143C41.6746 22.5308 42.6428 23.774 43.9155 23.774C46.3777 23.774 47.4151 20.7958 47.346 18.8012C47.2906 17.2847 46.2947 16.0415 45.0359 16.0415C42.9057 16.0415 41.5501 19.0061 41.6192 21.0143ZM40.3189 20.9324C40.2221 18.3366 42.2832 15.7 45.271 15.7C47.263 15.7 48.5771 17.0115 48.6462 19.0197C48.743 21.7521 46.8203 24.2521 43.6941 24.2521C41.7022 24.2521 40.3881 22.9406 40.3189 20.9324ZM12.0587 20.2493C11.948 20.2902 11.8097 20.3312 11.6437 20.3585C11.4777 20.3995 11.1596 20.4542 10.7169 20.5225C10.4126 20.5771 10.1913 20.6318 10.0668 20.7274C9.9423 20.8094 9.87314 20.9187 9.85931 21.0416C9.83164 21.1782 9.87314 21.2875 9.99763 21.3695C10.1221 21.4515 10.3158 21.4925 10.5924 21.4925C10.7999 21.4925 11.0074 21.4651 11.2149 21.3968C11.4224 21.3285 11.5884 21.2465 11.7267 21.1373C11.8236 21.0553 11.8927 20.946 11.948 20.823C11.9619 20.7274 12.0034 20.5361 12.0587 20.2493ZM14.6593 18.6509C14.6455 18.8831 14.604 19.1017 14.5486 19.4569L14.106 21.8887C14.0645 22.1073 14.1475 22.2712 14.355 22.3942L14.3411 22.4898H11.8236L11.7959 21.875C11.4363 22.0936 10.9936 22.2712 10.5925 22.3805C10.1913 22.4761 9.87318 22.5308 9.38904 22.5308C8.57291 22.5308 8.11643 22.4488 7.79828 22.1756C7.46629 21.8887 7.31413 21.6974 7.32796 21.3012C7.3418 21.069 7.45246 20.7821 7.63228 20.5772C7.81211 20.3722 8.04726 20.2356 8.29625 20.1127C8.55907 19.9897 8.86339 19.9078 9.30604 19.8394C9.74869 19.7711 10.3712 19.7028 11.2011 19.6345C11.6299 19.5935 11.9066 19.4979 12.0311 19.4569C12.2109 19.3886 12.2662 19.3203 12.2939 19.1837C12.3354 18.9378 12.2662 18.7875 11.9204 18.7192C11.0213 18.5416 9.31987 18.8285 8.44841 19.0471L8.91872 17.7765C10.0668 17.6126 11.1596 17.5033 12.2939 17.5033C14.0922 17.4896 14.6731 17.9951 14.6593 18.6509ZM21.9353 22.4898L22.8067 17.6263H25.2136L24.3421 22.4898H21.9353ZM22.9451 16.506C23.0143 16.1098 23.6506 15.7819 24.3699 15.7819C25.0892 15.7819 25.601 16.1098 25.5319 16.506C25.4627 16.9022 24.8126 17.2301 24.1071 17.2301C23.3878 17.2301 22.8621 16.9022 22.9451 16.506ZM33.7622 20.263C33.6516 20.3039 33.5133 20.3449 33.3473 20.3723C33.1813 20.4132 32.8631 20.4679 32.4066 20.5362C32.1023 20.5908 31.881 20.6455 31.7565 20.7411C31.6458 20.8231 31.5767 20.9324 31.549 21.0553C31.5213 21.1919 31.5767 21.3012 31.6873 21.3832C31.8118 21.4652 32.0055 21.5062 32.296 21.5062C32.5035 21.5062 32.711 21.4788 32.9184 21.4105C33.1259 21.3422 33.2919 21.2603 33.4303 21.151C33.5271 21.069 33.5963 20.9597 33.6378 20.8367C33.6654 20.7411 33.7069 20.5499 33.7622 20.263ZM36.349 18.6645C36.3352 18.8968 36.2937 19.1154 36.2245 19.4706L35.7957 21.9023C35.7542 22.1209 35.8372 22.2849 36.0447 22.4078L36.0309 22.4898H33.5133L33.4995 21.875C33.126 22.0936 32.6833 22.2712 32.296 22.3805C31.8949 22.4898 31.5767 22.5308 31.0926 22.5308C30.2764 22.5308 29.82 22.4488 29.5018 22.1756C29.1698 21.8887 29.0177 21.6974 29.0315 21.3012C29.0453 21.069 29.156 20.7821 29.3358 20.5772C29.5156 20.3722 29.7508 20.2356 29.9998 20.1127C30.2626 19.9897 30.5669 19.9077 31.0096 19.8258C31.4522 19.7575 32.0747 19.6891 32.9047 19.6208C33.3335 19.5799 33.5963 19.4842 33.7208 19.4432C33.9006 19.3749 33.9698 19.3066 33.9974 19.1563C34.0389 18.9104 33.9559 18.7602 33.624 18.6918C32.711 18.5142 31.0234 18.8011 30.152 19.0197L30.6223 17.7492C31.7842 17.5853 32.8493 17.476 33.9974 17.476C35.7819 17.5033 36.3628 18.0088 36.349 18.6645ZM6.99599 20.7411C6.20753 20.8914 5.77872 20.9597 5.00408 20.9597C3.85597 20.9597 2.94301 20.3995 2.98451 19.3613C3.02601 18.6782 3.84214 17.2164 5.94471 17.2164C6.60868 17.2164 7.12049 17.3257 7.81212 17.7219L8.11644 16.0415C7.17582 15.6863 6.55335 15.6316 5.73722 15.6453C2.98451 15.6726 0.342464 16.9022 0.0243121 19.4159C-0.307673 21.9706 2.84618 22.6127 4.24329 22.5991C5.04558 22.5991 5.88938 22.5581 6.67784 22.4898L6.99599 20.7411ZM26.5416 17.5989L26.7075 16.6153L29.2251 16.0688L28.9623 17.5989H30.1934L29.9582 18.5825H28.7686L28.0493 22.4898C28.0493 22.4898 25.6286 22.4761 25.6148 22.4898L26.3341 18.5962H25.4211L25.6009 17.6126H26.5416V17.5989ZM38.7974 22.4898H36.3352L37.5663 15.7136L39.9594 15.7819L38.7974 22.4898ZM18.7538 18.7738C18.4357 18.7738 18.159 18.8695 17.8962 19.0607C17.6472 19.252 17.4812 19.5252 17.4259 19.8941C17.3567 20.3176 17.3982 20.6181 17.5642 20.8094C17.7302 21.0007 17.9792 21.0963 18.3112 21.0963C18.5325 21.0963 18.7538 21.0553 18.9198 20.9733C19.1273 20.8641 19.2656 20.7548 19.3901 20.5772C19.5284 20.3859 19.6114 20.181 19.6529 19.9351C19.7221 19.5525 19.6668 19.2656 19.4869 19.0744C19.3071 18.8695 19.072 18.7738 18.7538 18.7738ZM14.3689 24.1702L15.5447 17.6536H17.6611L17.4951 18.4869C17.6749 18.241 17.9654 18.0361 18.3804 17.8722C18.7815 17.7082 19.2518 17.5853 19.7498 17.5853C20.3031 17.5853 20.6351 17.6126 21.0501 17.8312C21.4651 18.0498 21.7417 18.3503 21.9077 18.7602C22.0599 19.1564 22.1014 19.5935 22.0184 20.0853C21.88 20.8914 21.4789 21.5198 20.8288 21.9843C20.1786 22.4488 19.5976 22.5718 18.7815 22.5718C18.491 22.5718 18.242 22.5444 18.0345 22.4898C17.8409 22.4351 17.6749 22.3805 17.5504 22.2985C17.4397 22.2166 17.3152 22.1209 17.1493 21.9433L16.7619 24.1702H14.3689ZM58.0525 19.375C58.0387 18.9788 57.845 18.7192 57.4301 18.7192C56.4479 18.7192 55.3967 20.6318 55.2168 21.3969C56.8214 21.3969 58.0802 20.4406 58.0525 19.375ZM58.2599 22.3668L58.4536 22.4898C57.9694 23.4598 56.9873 24.2385 55.8392 24.2385C54.8986 24.2385 54.124 23.6237 54.0825 22.4625C54.0133 20.3859 55.9775 18.446 57.596 18.446C58.2876 18.446 58.9377 18.7465 58.9654 19.4843C59.0207 21.1373 56.6692 21.6428 55.1199 21.6838C55.0646 21.8614 55.0507 22.0253 55.0646 22.2985C55.0922 22.9816 55.5072 23.5691 56.3787 23.5691C57.1256 23.5417 57.8726 22.9543 58.2599 22.3668Z" fill="white"/>
<path fill-rule="evenodd" clip-rule="evenodd" d="M48.6043 19.3203C48.7703 19.293 49.047 19.2656 49.1576 19.2656C49.3374 19.2656 49.5034 19.293 49.5034 19.4706C49.5034 19.5798 49.3236 20.3176 49.2821 20.4815L48.9086 22.1209C48.7565 22.7903 48.5905 23.4871 48.4521 24.0472H49.4204L49.9599 21.4651C51.6198 19.7711 52.2561 19.211 52.6435 19.211C52.8233 19.211 52.9339 19.3066 52.9478 19.5115C52.9616 19.8121 52.768 20.4952 52.6988 20.6864L52.1455 22.5717C52.021 22.9952 51.9242 23.3778 51.938 23.651C51.9518 24.0609 52.2146 24.2521 52.5881 24.2521C53.2936 24.2521 53.8054 23.528 54.2481 22.8176L54.1236 22.5854C53.9437 22.8723 53.5287 23.5007 53.1968 23.5007C53.0861 23.5007 52.9893 23.4324 52.9893 23.2548C52.9754 23.0362 53.0723 22.7084 53.1414 22.4898L53.7501 20.2766C53.9161 19.6618 53.9991 19.2793 53.9852 19.0607C53.9714 18.6509 53.7224 18.4596 53.3489 18.4596C52.7126 18.4596 51.8688 18.9104 50.0844 20.946H50.0567L50.2781 19.9624C50.4026 19.4159 50.5132 18.8558 50.6377 18.4733C50.0152 18.6918 49.1438 18.9378 48.5905 19.047L48.6043 19.3203Z" fill="white"/>
<path fill-rule="evenodd" clip-rule="evenodd" d="M71.0941 13.5002L74.2468 16.653L77.3996 13.5002L77.7016 13.8023L74.5489 16.9551L77.7016 20.1078L77.3996 20.4099L74.2468 17.2571L71.0941 20.4099L70.792 20.1078L73.9448 16.9551L70.792 13.8023L71.0941 13.5002Z" fill="white" stroke="white" stroke-width="1.10618"/>
<path d="M6.53267 63.5555H4.50639L0.287642 79.2288H2.31392L6.53267 63.5555ZM11.1363 77.26H13.5078V72.8367H16.0135C19.0369 72.8367 20.6605 71.0214 20.6605 68.5029C20.6605 66.0036 19.0561 64.1691 16.0454 64.1691H11.1363V77.26ZM13.5078 70.8871V66.1506H15.6811C17.4581 66.1506 18.2443 67.1094 18.2443 68.5029C18.2443 69.8964 17.4581 70.8871 15.6939 70.8871H13.5078ZM21.8981 77.26H24.212V71.488C24.212 70.2415 25.1516 69.3594 26.4236 69.3594C26.8135 69.3594 27.2993 69.4298 27.4975 69.4937V67.3651C27.2866 67.3268 26.9222 67.3012 26.6665 67.3012C25.5415 67.3012 24.6019 67.9404 24.2439 69.0782H24.1417V67.4418H21.8981V77.26ZM32.1932 77.4518C35.0696 77.4518 36.8977 75.4255 36.8977 72.3893C36.8977 69.3467 35.0696 67.314 32.1932 67.314C29.3167 67.314 27.4886 69.3467 27.4886 72.3893C27.4886 75.4255 29.3167 77.4518 32.1932 77.4518ZM32.2059 75.5981C30.6143 75.5981 29.8345 74.179 29.8345 72.3829C29.8345 70.5867 30.6143 69.1485 32.2059 69.1485C33.772 69.1485 34.5518 70.5867 34.5518 72.3829C34.5518 74.179 33.772 75.5981 32.2059 75.5981ZM38.1417 67.4418V77.7905C38.1417 78.6151 37.7901 79.0562 36.9016 79.0562C36.7865 79.0562 36.6971 79.0498 36.5692 79.0434V80.929C36.7354 80.9418 36.876 80.9418 37.0422 80.9418C39.2091 80.9418 40.4556 79.9447 40.4556 77.8225V67.4418H38.1417ZM39.2922 66.0484C40.0273 66.0484 40.6282 65.4859 40.6282 64.7955C40.6282 64.0988 40.0273 63.5363 39.2922 63.5363C38.5507 63.5363 37.9499 64.0988 37.9499 64.7955C37.9499 65.4859 38.5507 66.0484 39.2922 66.0484ZM46.4616 77.4518C48.75 77.4518 50.3224 76.3332 50.7315 74.6265L48.571 74.3836C48.2578 75.2146 47.4907 75.6492 46.4936 75.6492C44.9978 75.6492 44.0071 74.6648 43.9879 72.9837H50.8274V72.2742C50.8274 68.8289 48.7563 67.314 46.3402 67.314C43.5277 67.314 41.6931 69.3786 41.6931 72.4084C41.6931 75.4894 43.5021 77.4518 46.4616 77.4518ZM43.9943 71.4241C44.0646 70.1712 44.9914 69.1165 46.3721 69.1165C47.7017 69.1165 48.5965 70.0881 48.6093 71.4241H43.9943ZM56.3476 77.4518C58.8149 77.4518 60.3874 75.988 60.5536 73.9042H58.3419C58.1438 74.9589 57.3831 75.5661 56.3668 75.5661C54.9222 75.5661 53.9889 74.358 53.9889 72.3509C53.9889 70.3694 54.9414 69.1805 56.3668 69.1805C57.479 69.1805 58.1629 69.8964 58.3419 70.8424H60.5536C60.3938 68.7138 58.7318 67.314 56.3348 67.314C53.4584 67.314 51.6431 69.3914 51.6431 72.3893C51.6431 75.3616 53.4137 77.4518 56.3476 77.4518ZM66.6363 67.4418H64.6995V65.0896H62.3856V67.4418H60.9921V69.2316H62.3856V74.6904C62.3728 76.5377 63.7151 77.4454 65.4538 77.3942C66.1122 77.3751 66.566 77.2472 66.8153 77.1641L66.4254 75.3552C66.2975 75.3871 66.0355 75.4447 65.7478 75.4447C65.1661 75.4447 64.6995 75.2401 64.6995 74.3069V69.2316H66.6363V67.4418ZM75.4708 70.037C75.1512 68.3751 73.8217 67.314 71.5205 67.314C69.1555 67.314 67.5447 68.4773 67.5511 70.2927C67.5447 71.7245 68.4268 72.6705 70.3124 73.0604L71.9871 73.412C72.8884 73.6102 73.3103 73.9745 73.3103 74.5306C73.3103 75.2018 72.5816 75.7067 71.4822 75.7067C70.4211 75.7067 69.7308 75.2465 69.5326 74.3644L67.2762 74.5817C67.5639 76.3843 69.0788 77.4518 71.4886 77.4518C73.9431 77.4518 75.6754 76.1798 75.6818 74.3197C75.6754 72.9198 74.7741 72.0633 72.9204 71.6606L71.2457 71.3026C70.2485 71.0789 69.8522 70.7337 69.8586 70.1648C69.8522 69.5001 70.5873 69.0398 71.5525 69.0398C72.62 69.0398 73.1825 69.6215 73.3614 70.2671L75.4708 70.037Z" fill="white"/>
<path d="M103.533 63.5555H101.506L97.2876 79.2288H99.3139L103.533 63.5555ZM119.342 68.586C118.939 65.6776 116.702 63.9901 113.8 63.9901C110.38 63.9901 107.804 66.483 107.804 70.7146C107.804 74.9397 110.348 77.439 113.8 77.439C116.913 77.439 118.977 75.4255 119.342 72.9262L116.951 72.9134C116.651 74.4475 115.398 75.3104 113.832 75.3104C111.71 75.3104 110.188 73.7188 110.188 70.7146C110.188 67.7614 111.697 66.1187 113.838 66.1187C115.43 66.1187 116.676 67.02 116.951 68.586H119.342ZM123.516 77.4582C125.057 77.4582 125.977 76.7359 126.399 75.9113H126.476V77.26H128.7V70.689C128.7 68.0938 126.584 67.314 124.712 67.314C122.647 67.314 121.062 68.2344 120.55 70.0242L122.711 70.331C122.941 69.6599 123.593 69.0846 124.724 69.0846C125.798 69.0846 126.386 69.6343 126.386 70.5995V70.6379C126.386 71.3026 125.69 71.3346 123.957 71.52C122.053 71.7245 120.231 72.2934 120.231 74.505C120.231 76.4354 121.643 77.4582 123.516 77.4582ZM124.117 75.7579C123.152 75.7579 122.462 75.3168 122.462 74.4667C122.462 73.5782 123.235 73.2075 124.271 73.0604C124.878 72.9773 126.092 72.8239 126.393 72.581V73.738C126.393 74.831 125.511 75.7579 124.117 75.7579ZM130.307 80.9418H132.621V75.7131H132.717C133.081 76.429 133.842 77.4326 135.529 77.4326C137.843 77.4326 139.575 75.5981 139.575 72.3637C139.575 69.091 137.792 67.314 135.523 67.314C133.791 67.314 133.068 68.3559 132.717 69.0654H132.583V67.4418H130.307V80.9418ZM132.576 72.3509C132.576 70.4461 133.394 69.2124 134.884 69.2124C136.424 69.2124 137.217 70.5228 137.217 72.3509C137.217 74.1918 136.411 75.5342 134.884 75.5342C133.407 75.5342 132.576 74.2557 132.576 72.3509ZM140.837 77.26H143.151V67.4418H140.837V77.26ZM142 66.0484C142.735 66.0484 143.336 65.4859 143.336 64.7955C143.336 64.0988 142.735 63.5363 142 63.5363C141.259 63.5363 140.658 64.0988 140.658 64.7955C140.658 65.4859 141.259 66.0484 142 66.0484ZM149.713 67.4418H147.776V65.0896H145.462V67.4418H144.069V69.2316H145.462V74.6904C145.45 76.5377 146.792 77.4454 148.53 77.3942C149.189 77.3751 149.643 77.2472 149.892 77.1641L149.502 75.3552C149.374 75.3871 149.112 75.4447 148.825 75.4447C148.243 75.4447 147.776 75.2401 147.776 74.3069V69.2316H149.713V67.4418ZM153.754 77.4582C155.294 77.4582 156.214 76.7359 156.636 75.9113H156.713V77.26H158.937V70.689C158.937 68.0938 156.822 67.314 154.949 67.314C152.884 67.314 151.299 68.2344 150.788 70.0242L152.948 70.331C153.178 69.6599 153.83 69.0846 154.962 69.0846C156.035 69.0846 156.624 69.6343 156.624 70.5995V70.6379C156.624 71.3026 155.927 71.3346 154.195 71.52C152.29 71.7245 150.468 72.2934 150.468 74.505C150.468 76.4354 151.881 77.4582 153.754 77.4582ZM154.354 75.7579C153.389 75.7579 152.699 75.3168 152.699 74.4667C152.699 73.5782 153.472 73.2075 154.508 73.0604C155.115 72.9773 156.329 72.8239 156.63 72.581V73.738C156.63 74.831 155.748 75.7579 154.354 75.7579ZM162.858 64.1691H160.544V77.26H162.858V64.1691ZM180.062 70.7146C180.062 66.483 177.48 63.9901 174.047 63.9901C170.608 63.9901 168.032 66.483 168.032 70.7146C168.032 74.9397 170.608 77.439 174.047 77.439C177.48 77.439 180.062 74.9461 180.062 70.7146ZM177.678 70.7146C177.678 73.6932 176.182 75.3104 174.047 75.3104C171.919 75.3104 170.416 73.6932 170.416 70.7146C170.416 67.7359 171.919 66.1187 174.047 66.1187C176.182 66.1187 177.678 67.7359 177.678 70.7146ZM183.796 71.5072C183.796 70.0881 184.652 69.27 185.873 69.27C187.068 69.27 187.784 70.0562 187.784 71.3665V77.26H190.098V71.0086C190.105 68.6563 188.762 67.314 186.736 67.314C185.266 67.314 184.256 68.0171 183.809 69.1102H183.693V67.4418H181.482V77.26H183.796V71.5072ZM196.077 77.4518C198.366 77.4518 199.938 76.3332 200.347 74.6265L198.187 74.3836C197.873 75.2146 197.106 75.6492 196.109 75.6492C194.613 75.6492 193.623 74.6648 193.603 72.9837H200.443V72.2742C200.443 68.8289 198.372 67.314 195.956 67.314C193.143 67.314 191.309 69.3786 191.309 72.4084C191.309 75.4894 193.118 77.4518 196.077 77.4518ZM193.61 71.4241C193.68 70.1712 194.607 69.1165 195.988 69.1165C197.317 69.1165 198.212 70.0881 198.225 71.4241H193.61Z" fill="white"/>
<path d="M474.934 63.5555H472.907L468.689 79.2288H470.715L474.934 63.5555ZM480.503 77.5093C483.661 77.5157 485.547 75.0228 485.547 70.7273C485.547 66.4575 483.648 63.9901 480.503 63.9901C477.358 63.9901 475.466 66.4511 475.46 70.7273C475.46 75.0164 477.346 77.5093 480.503 77.5093ZM480.503 75.5086C478.873 75.5086 477.851 73.8722 477.857 70.7273C477.863 67.608 478.88 65.9653 480.503 65.9653C482.133 65.9653 483.15 67.608 483.156 70.7273C483.156 73.8722 482.14 75.5086 480.503 75.5086ZM487.078 77.26H489.539L495.1 66.1954V64.1691H486.183V66.1506H492.646V66.2401L487.078 77.26Z" fill="white"/>
</svg>
