<svg width="126" height="37" viewBox="0 0 126 37" fill="none" xmlns="http://www.w3.org/2000/svg">
<path fill-rule="evenodd" clip-rule="evenodd" d="M105.937 19.1145V22.0854H110.116V23.0968H104.709V14.2473H110.09V15.2587H105.937V18.1031H109.559V19.1145H105.937Z" fill="white" stroke="white" stroke-width="0.276545"/>
<path fill-rule="evenodd" clip-rule="evenodd" d="M94.3863 29.476C93.9082 29.5178 93.4866 29.1641 93.4448 28.6859L91.9101 11.1449C91.8683 10.6667 92.222 10.2452 92.7002 10.2033L120.354 7.7839C120.833 7.74206 121.254 8.0958 121.296 8.57398L122.831 26.115C122.873 26.5932 122.519 27.0147 122.041 27.0566L94.3863 29.476Z" stroke="white" stroke-width="0.276545"/>
<path fill-rule="evenodd" clip-rule="evenodd" d="M91.4596 24.3811C90.996 24.2568 90.7208 23.7803 90.8451 23.3166L95.4024 6.30857C95.5266 5.84491 96.0032 5.56976 96.4668 5.694L123.281 12.8788C123.744 13.003 124.02 13.4796 123.895 13.9433L119.338 30.9513C119.214 31.4149 118.737 31.6901 118.274 31.5659L91.4596 24.3811Z" stroke="white" stroke-width="0.276545"/>
<path fill-rule="evenodd" clip-rule="evenodd" d="M90.4522 18.5925C90.059 18.3172 89.9634 17.7752 90.2388 17.382L100.338 2.9584C100.614 2.56519 101.156 2.46963 101.549 2.74496L124.288 18.6674C124.682 18.9427 124.777 19.4846 124.502 19.8779L114.402 34.3015C114.127 34.6947 113.585 34.7903 113.192 34.5149L90.4522 18.5925Z" stroke="white" stroke-width="0.276545"/>
<path fill-rule="evenodd" clip-rule="evenodd" d="M91.4848 12.8085C91.2095 12.4153 91.3051 11.8734 91.6983 11.598L106.122 1.4985C106.515 1.22318 107.057 1.31874 107.332 1.71194L123.255 24.4515C123.53 24.8447 123.435 25.3867 123.041 25.662L108.618 35.7615C108.225 36.0368 107.683 35.9413 107.407 35.5481L91.4848 12.8085Z" stroke="white" stroke-width="0.276545"/>
<path fill-rule="evenodd" clip-rule="evenodd" d="M94.4339 7.72661C94.3097 7.26295 94.5849 6.78637 95.0485 6.66213L112.057 2.10485C112.52 1.98061 112.997 2.25577 113.121 2.71942L120.306 29.5334C120.43 29.9971 120.155 30.4737 119.691 30.5979L102.683 35.1552C102.22 35.2794 101.743 35.0043 101.619 34.5406L94.4339 7.72661Z" stroke="white" stroke-width="0.276545"/>
<path fill-rule="evenodd" clip-rule="evenodd" d="M98.9438 3.95983C98.9856 3.48164 99.4072 3.12791 99.8854 3.16974L117.426 4.70438C117.905 4.74622 118.258 5.16778 118.216 5.64597L115.797 33.3002C115.755 33.7784 115.334 34.1321 114.855 34.0903L97.3144 32.5557C96.8362 32.5138 96.4825 32.0923 96.5243 31.6141L98.9438 3.95983Z" stroke="white" stroke-width="0.276545"/>
<path fill-rule="evenodd" clip-rule="evenodd" d="M104.47 1.96239C104.672 1.52735 105.19 1.33914 105.625 1.542L121.583 8.98346C122.018 9.18633 122.206 9.70345 122.003 10.1385L110.271 35.2975C110.069 35.7325 109.551 35.9207 109.116 35.7179L93.1582 28.2764C92.7231 28.0736 92.5349 27.5564 92.7378 27.1214L104.47 1.96239Z" stroke="white" stroke-width="0.276545"/>
<path fill-rule="evenodd" clip-rule="evenodd" d="M110.344 1.97542C110.684 1.636 111.234 1.636 111.574 1.97542L124.024 14.4262C124.364 14.7656 124.364 15.3159 124.024 15.6553L104.395 35.2845C104.056 35.6239 103.505 35.6239 103.166 35.2845L90.7152 22.8338C90.3758 22.4943 90.3758 21.944 90.7152 21.6046L110.344 1.97542Z" stroke="white" stroke-width="0.276545"/>
<path fill-rule="evenodd" clip-rule="evenodd" d="M115.862 3.9972C116.297 3.79434 116.814 3.98255 117.017 4.41759L124.458 20.3759C124.661 20.8109 124.473 21.328 124.038 21.5309L98.8788 33.2627C98.4438 33.4656 97.9266 33.2774 97.7238 32.8423L90.2823 16.8841C90.0794 16.449 90.2677 15.9319 90.7027 15.729L115.862 3.9972Z" stroke="white" stroke-width="0.276545"/>
<path fill-rule="evenodd" clip-rule="evenodd" d="M120.354 7.78388C120.832 7.74204 121.254 8.09578 121.295 8.57397L122.83 26.115C122.872 26.5932 122.518 27.0147 122.04 27.0566L94.3858 29.476C93.9076 29.5178 93.486 29.1641 93.4442 28.6859L91.9096 11.1449C91.8677 10.6667 92.2215 10.2451 92.6996 10.2033L120.354 7.78388Z" stroke="white" stroke-width="0.276545"/>
<path fill-rule="evenodd" clip-rule="evenodd" d="M40.0144 23.1482C37.4969 24.9106 34.5228 26.7549 31.3275 28.6948L31.203 28.7631C31.1615 28.7904 31.1477 28.8451 31.1753 28.8997C31.203 28.9407 31.2583 28.9544 31.3137 28.9271L31.4243 28.8724C34.1355 27.4789 37.2617 25.8122 40.3879 24.1045C40.4017 24.0909 40.4156 24.0909 40.4432 24.0772C40.2634 23.7903 40.1112 23.4761 40.0144 23.1482ZM56.5031 9.96483C52.547 5.64777 27.081 9.52766 16.25 11.8638L16.001 11.9184C15.9456 11.9321 15.918 11.9731 15.918 12.0277C15.9318 12.0824 15.9733 12.1097 16.0286 12.1097L16.2776 12.0551C25.2412 10.484 43.9015 8.29812 47.9268 12.2327C49.158 13.4349 48.8536 14.9786 47.4427 16.7956C48.2035 17.2875 48.7568 18.0525 49.0058 19.0088C54.5389 15.3612 58.2599 11.8911 56.5031 9.96483Z" fill="#A12830"/>
<path fill-rule="evenodd" clip-rule="evenodd" d="M41.6192 22.0143C41.6746 23.5308 42.6428 24.774 43.9155 24.774C46.3777 24.774 47.4151 21.7958 47.346 19.8012C47.2906 18.2847 46.2947 17.0415 45.0359 17.0415C42.9057 17.0415 41.5501 20.0061 41.6192 22.0143ZM40.3189 21.9324C40.2221 19.3366 42.2832 16.7 45.271 16.7C47.263 16.7 48.5771 18.0115 48.6462 20.0197C48.743 22.7521 46.8203 25.2521 43.6941 25.2521C41.7022 25.2521 40.3881 23.9406 40.3189 21.9324ZM12.0587 21.2493C11.948 21.2902 11.8097 21.3312 11.6437 21.3585C11.4777 21.3995 11.1596 21.4542 10.7169 21.5225C10.4126 21.5771 10.1913 21.6318 10.0668 21.7274C9.9423 21.8094 9.87314 21.9187 9.85931 22.0416C9.83164 22.1782 9.87314 22.2875 9.99763 22.3695C10.1221 22.4515 10.3158 22.4925 10.5924 22.4925C10.7999 22.4925 11.0074 22.4651 11.2149 22.3968C11.4224 22.3285 11.5884 22.2465 11.7267 22.1373C11.8236 22.0553 11.8927 21.946 11.948 21.823C11.9619 21.7274 12.0034 21.5361 12.0587 21.2493ZM14.6593 19.6509C14.6455 19.8831 14.604 20.1017 14.5486 20.4569L14.106 22.8887C14.0645 23.1073 14.1475 23.2712 14.355 23.3942L14.3411 23.4898H11.8236L11.7959 22.875C11.4363 23.0936 10.9936 23.2712 10.5925 23.3805C10.1913 23.4761 9.87318 23.5308 9.38904 23.5308C8.57291 23.5308 8.11643 23.4488 7.79828 23.1756C7.46629 22.8887 7.31413 22.6974 7.32796 22.3012C7.3418 22.069 7.45246 21.7821 7.63228 21.5772C7.81211 21.3722 8.04726 21.2356 8.29625 21.1127C8.55907 20.9897 8.86339 20.9078 9.30604 20.8394C9.74869 20.7711 10.3712 20.7028 11.2011 20.6345C11.6299 20.5935 11.9066 20.4979 12.0311 20.4569C12.2109 20.3886 12.2662 20.3203 12.2939 20.1837C12.3354 19.9378 12.2662 19.7875 11.9204 19.7192C11.0213 19.5416 9.31987 19.8285 8.44841 20.0471L8.91872 18.7765C10.0668 18.6126 11.1596 18.5033 12.2939 18.5033C14.0922 18.4896 14.6731 18.9951 14.6593 19.6509ZM21.9353 23.4898L22.8067 18.6263H25.2136L24.3421 23.4898H21.9353ZM22.9451 17.506C23.0143 17.1098 23.6506 16.7819 24.3699 16.7819C25.0892 16.7819 25.601 17.1098 25.5319 17.506C25.4627 17.9022 24.8126 18.2301 24.1071 18.2301C23.3878 18.2301 22.8621 17.9022 22.9451 17.506ZM33.7622 21.263C33.6516 21.3039 33.5133 21.3449 33.3473 21.3723C33.1813 21.4132 32.8631 21.4679 32.4066 21.5362C32.1023 21.5908 31.881 21.6455 31.7565 21.7411C31.6458 21.8231 31.5767 21.9324 31.549 22.0553C31.5213 22.1919 31.5767 22.3012 31.6873 22.3832C31.8118 22.4652 32.0055 22.5062 32.296 22.5062C32.5035 22.5062 32.711 22.4788 32.9184 22.4105C33.1259 22.3422 33.2919 22.2603 33.4303 22.151C33.5271 22.069 33.5963 21.9597 33.6378 21.8367C33.6654 21.7411 33.7069 21.5499 33.7622 21.263ZM36.349 19.6645C36.3352 19.8968 36.2937 20.1154 36.2245 20.4706L35.7957 22.9023C35.7542 23.1209 35.8372 23.2849 36.0447 23.4078L36.0309 23.4898H33.5133L33.4995 22.875C33.126 23.0936 32.6833 23.2712 32.296 23.3805C31.8949 23.4898 31.5767 23.5308 31.0926 23.5308C30.2764 23.5308 29.82 23.4488 29.5018 23.1756C29.1698 22.8887 29.0177 22.6974 29.0315 22.3012C29.0453 22.069 29.156 21.7821 29.3358 21.5772C29.5156 21.3722 29.7508 21.2356 29.9998 21.1127C30.2626 20.9897 30.5669 20.9077 31.0096 20.8258C31.4522 20.7575 32.0747 20.6891 32.9047 20.6208C33.3335 20.5799 33.5963 20.4842 33.7208 20.4432C33.9006 20.3749 33.9698 20.3066 33.9974 20.1563C34.0389 19.9104 33.9559 19.7602 33.624 19.6918C32.711 19.5142 31.0234 19.8011 30.152 20.0197L30.6223 18.7492C31.7842 18.5853 32.8493 18.476 33.9974 18.476C35.7819 18.5033 36.3628 19.0088 36.349 19.6645ZM6.99599 21.7411C6.20753 21.8914 5.77872 21.9597 5.00408 21.9597C3.85597 21.9597 2.94301 21.3995 2.98451 20.3613C3.02601 19.6782 3.84214 18.2164 5.94471 18.2164C6.60868 18.2164 7.12049 18.3257 7.81212 18.7219L8.11644 17.0415C7.17582 16.6863 6.55335 16.6316 5.73722 16.6453C2.98451 16.6726 0.342464 17.9022 0.0243121 20.4159C-0.307673 22.9706 2.84618 23.6127 4.24329 23.5991C5.04558 23.5991 5.88938 23.5581 6.67784 23.4898L6.99599 21.7411ZM26.5416 18.5989L26.7075 17.6153L29.2251 17.0688L28.9623 18.5989H30.1934L29.9582 19.5825H28.7686L28.0493 23.4898C28.0493 23.4898 25.6286 23.4761 25.6148 23.4898L26.3341 19.5962H25.4211L25.6009 18.6126H26.5416V18.5989ZM38.7974 23.4898H36.3352L37.5663 16.7136L39.9594 16.7819L38.7974 23.4898ZM18.7538 19.7738C18.4357 19.7738 18.159 19.8695 17.8962 20.0607C17.6472 20.252 17.4812 20.5252 17.4259 20.8941C17.3567 21.3176 17.3982 21.6181 17.5642 21.8094C17.7302 22.0007 17.9792 22.0963 18.3112 22.0963C18.5325 22.0963 18.7538 22.0553 18.9198 21.9733C19.1273 21.8641 19.2656 21.7548 19.3901 21.5772C19.5284 21.3859 19.6114 21.181 19.6529 20.9351C19.7221 20.5525 19.6668 20.2656 19.4869 20.0744C19.3071 19.8695 19.072 19.7738 18.7538 19.7738ZM14.3689 25.1702L15.5447 18.6536H17.6611L17.4951 19.4869C17.6749 19.241 17.9654 19.0361 18.3804 18.8722C18.7815 18.7082 19.2518 18.5853 19.7498 18.5853C20.3031 18.5853 20.6351 18.6126 21.0501 18.8312C21.4651 19.0498 21.7417 19.3503 21.9077 19.7602C22.0599 20.1564 22.1014 20.5935 22.0184 21.0853C21.88 21.8914 21.4789 22.5198 20.8288 22.9843C20.1786 23.4488 19.5976 23.5718 18.7815 23.5718C18.491 23.5718 18.242 23.5444 18.0345 23.4898C17.8409 23.4351 17.6749 23.3805 17.5504 23.2985C17.4397 23.2166 17.3152 23.1209 17.1493 22.9433L16.7619 25.1702H14.3689ZM58.0525 20.375C58.0387 19.9788 57.845 19.7192 57.4301 19.7192C56.4479 19.7192 55.3967 21.6318 55.2168 22.3969C56.8214 22.3969 58.0802 21.4406 58.0525 20.375ZM58.2599 23.3668L58.4536 23.4898C57.9694 24.4598 56.9873 25.2385 55.8392 25.2385C54.8986 25.2385 54.124 24.6237 54.0825 23.4625C54.0133 21.3859 55.9775 19.446 57.596 19.446C58.2876 19.446 58.9377 19.7465 58.9654 20.4843C59.0207 22.1373 56.6692 22.6428 55.1199 22.6838C55.0646 22.8614 55.0507 23.0253 55.0646 23.2985C55.0922 23.9816 55.5072 24.5691 56.3787 24.5691C57.1256 24.5417 57.8726 23.9543 58.2599 23.3668Z" fill="white"/>
<path fill-rule="evenodd" clip-rule="evenodd" d="M48.6043 20.3203C48.7703 20.293 49.047 20.2656 49.1576 20.2656C49.3374 20.2656 49.5034 20.293 49.5034 20.4706C49.5034 20.5798 49.3236 21.3176 49.2821 21.4815L48.9086 23.1209C48.7565 23.7903 48.5905 24.4871 48.4521 25.0472H49.4204L49.9599 22.4651C51.6198 20.7711 52.2561 20.211 52.6435 20.211C52.8233 20.211 52.9339 20.3066 52.9478 20.5115C52.9616 20.8121 52.768 21.4952 52.6988 21.6864L52.1455 23.5717C52.021 23.9952 51.9242 24.3778 51.938 24.651C51.9518 25.0609 52.2146 25.2521 52.5881 25.2521C53.2936 25.2521 53.8054 24.528 54.2481 23.8176L54.1236 23.5854C53.9437 23.8723 53.5287 24.5007 53.1968 24.5007C53.0861 24.5007 52.9893 24.4324 52.9893 24.2548C52.9754 24.0362 53.0723 23.7084 53.1414 23.4898L53.7501 21.2766C53.9161 20.6618 53.9991 20.2793 53.9852 20.0607C53.9714 19.6509 53.7224 19.4596 53.3489 19.4596C52.7126 19.4596 51.8688 19.9104 50.0844 21.946H50.0567L50.2781 20.9624C50.4026 20.4159 50.5132 19.8558 50.6377 19.4733C50.0152 19.6918 49.1438 19.9378 48.5905 20.047L48.6043 20.3203Z" fill="white"/>
<path fill-rule="evenodd" clip-rule="evenodd" d="M71.0941 14.5002L74.2468 17.653L77.3996 14.5002L77.7016 14.8023L74.5489 17.9551L77.7016 21.1078L77.3996 21.4099L74.2468 18.2571L71.0941 21.4099L70.792 21.1078L73.9448 17.9551L70.792 14.8023L71.0941 14.5002Z" fill="white" stroke="white" stroke-width="1.10618"/>
</svg>
