<svg width="440" height="365" viewBox="0 0 440 365" fill="none" xmlns="http://www.w3.org/2000/svg">
<rect width="440" height="365" rx="8" fill="#1A3749"/>
<path d="M46.5327 302.295H44.5064L40.2876 317.969H42.3139L46.5327 302.295ZM51.1363 316H53.5078V311.577H56.0135C59.0369 311.577 60.6605 309.761 60.6605 307.243C60.6605 304.744 59.0561 302.909 56.0454 302.909H51.1363V316ZM53.5078 309.627V304.891H55.6811C57.4581 304.891 58.2443 305.849 58.2443 307.243C58.2443 308.636 57.4581 309.627 55.6939 309.627H53.5078ZM61.8981 316H64.212V310.228C64.212 308.982 65.1516 308.099 66.4236 308.099C66.8135 308.099 67.2993 308.17 67.4975 308.234V306.105C67.2866 306.067 66.9222 306.041 66.6665 306.041C65.5415 306.041 64.6019 306.68 64.2439 307.818H64.1417V306.182H61.8981V316ZM72.1932 316.192C75.0696 316.192 76.8977 314.165 76.8977 311.129C76.8977 308.087 75.0696 306.054 72.1932 306.054C69.3167 306.054 67.4886 308.087 67.4886 311.129C67.4886 314.165 69.3167 316.192 72.1932 316.192ZM72.2059 314.338C70.6143 314.338 69.8345 312.919 69.8345 311.123C69.8345 309.327 70.6143 307.888 72.2059 307.888C73.772 307.888 74.5518 309.327 74.5518 311.123C74.5518 312.919 73.772 314.338 72.2059 314.338ZM78.1417 306.182V316.531C78.1417 317.355 77.7901 317.796 76.9016 317.796C76.7865 317.796 76.6971 317.79 76.5692 317.783V319.669C76.7354 319.682 76.876 319.682 77.0422 319.682C79.2091 319.682 80.4556 318.685 80.4556 316.562V306.182H78.1417ZM79.2922 304.788C80.0273 304.788 80.6282 304.226 80.6282 303.536C80.6282 302.839 80.0273 302.276 79.2922 302.276C78.5507 302.276 77.9499 302.839 77.9499 303.536C77.9499 304.226 78.5507 304.788 79.2922 304.788ZM86.4616 316.192C88.75 316.192 90.3224 315.073 90.7315 313.366L88.571 313.124C88.2578 313.955 87.4907 314.389 86.4936 314.389C84.9978 314.389 84.0071 313.405 83.9879 311.724H90.8274V311.014C90.8274 307.569 88.7563 306.054 86.3402 306.054C83.5277 306.054 81.6931 308.119 81.6931 311.148C81.6931 314.229 83.5021 316.192 86.4616 316.192ZM83.9943 310.164C84.0646 308.911 84.9914 307.857 86.3721 307.857C87.7017 307.857 88.5965 308.828 88.6093 310.164H83.9943ZM96.3476 316.192C98.8149 316.192 100.387 314.728 100.554 312.644H98.3419C98.1438 313.699 97.3831 314.306 96.3668 314.306C94.9222 314.306 93.9889 313.098 93.9889 311.091C93.9889 309.109 94.9414 307.92 96.3668 307.92C97.479 307.92 98.1629 308.636 98.3419 309.582H100.554C100.394 307.454 98.7318 306.054 96.3348 306.054C93.4584 306.054 91.6431 308.131 91.6431 311.129C91.6431 314.102 93.4137 316.192 96.3476 316.192ZM106.636 306.182H104.7V303.83H102.386V306.182H100.992V307.972H102.386V313.43C102.373 315.278 103.715 316.185 105.454 316.134C106.112 316.115 106.566 315.987 106.815 315.904L106.425 314.095C106.298 314.127 106.035 314.185 105.748 314.185C105.166 314.185 104.7 313.98 104.7 313.047V307.972H106.636V306.182ZM109.277 316.141C110.031 316.141 110.677 315.514 110.683 314.734C110.677 313.967 110.031 313.341 109.277 313.341C108.497 313.341 107.864 313.967 107.871 314.734C107.864 315.514 108.497 316.141 109.277 316.141ZM109.277 309.129C110.031 309.129 110.677 308.502 110.683 307.722C110.677 306.955 110.031 306.329 109.277 306.329C108.497 306.329 107.864 306.955 107.871 307.722C107.864 308.502 108.497 309.129 109.277 309.129ZM121.396 302.909H119.14L115.886 304.999V307.173L118.948 305.217H119.025V316H121.396V302.909ZM129.209 319.682C131.011 319.682 132.053 318.755 132.609 317.189L136.553 306.195L134.079 306.182L131.81 313.597H131.708L129.445 306.182H126.99L130.551 316.205L130.353 316.735C129.924 317.854 129.247 317.93 128.237 317.636L127.7 319.439C128.013 319.567 128.576 319.682 129.209 319.682ZM141.452 316.192C143.74 316.192 145.312 315.073 145.721 313.366L143.561 313.124C143.248 313.955 142.481 314.389 141.484 314.389C139.988 314.389 138.997 313.405 138.978 311.724H145.817V311.014C145.817 307.569 143.746 306.054 141.33 306.054C138.518 306.054 136.683 308.119 136.683 311.148C136.683 314.229 138.492 316.192 141.452 316.192ZM138.984 310.164C139.055 308.911 139.981 307.857 141.362 307.857C142.692 307.857 143.587 308.828 143.599 310.164H138.984ZM149.88 316.198C151.421 316.198 152.341 315.476 152.763 314.651H152.84V316H155.064V309.429C155.064 306.834 152.948 306.054 151.076 306.054C149.011 306.054 147.426 306.974 146.914 308.764L149.075 309.071C149.305 308.4 149.957 307.825 151.088 307.825C152.162 307.825 152.75 308.374 152.75 309.339V309.378C152.75 310.043 152.054 310.075 150.321 310.26C148.416 310.464 146.595 311.033 146.595 313.245C146.595 315.175 148.007 316.198 149.88 316.198ZM150.481 314.498C149.516 314.498 148.826 314.057 148.826 313.207C148.826 312.318 149.599 311.947 150.634 311.8C151.242 311.717 152.456 311.564 152.757 311.321V312.478C152.757 313.571 151.875 314.498 150.481 314.498ZM156.671 316H158.985V310.228C158.985 308.982 159.924 308.099 161.196 308.099C161.586 308.099 162.072 308.17 162.27 308.234V306.105C162.059 306.067 161.695 306.041 161.439 306.041C160.314 306.041 159.375 306.68 159.017 307.818H158.914V306.182H156.671V316Z" fill="white" fill-opacity="0.5"/>
<path d="M185.533 302.295H183.506L179.288 317.969H181.314L185.533 302.295ZM189.561 304.897H193.607V316H195.96V304.897H200.006V302.909H189.561V304.897ZM204.12 316.192C206.408 316.192 207.98 315.073 208.39 313.366L206.229 313.124C205.916 313.955 205.149 314.389 204.152 314.389C202.656 314.389 201.665 313.405 201.646 311.724H208.485V311.014C208.485 307.569 206.414 306.054 203.998 306.054C201.186 306.054 199.351 308.119 199.351 311.148C199.351 314.229 201.16 316.192 204.12 316.192ZM201.652 310.164C201.723 308.911 202.649 307.857 204.03 307.857C205.36 307.857 206.255 308.828 206.267 310.164H201.652ZM212.548 316.198C214.089 316.198 215.009 315.476 215.431 314.651H215.508V316H217.732V309.429C217.732 306.834 215.616 306.054 213.744 306.054C211.679 306.054 210.094 306.974 209.582 308.764L211.743 309.071C211.973 308.4 212.625 307.825 213.756 307.825C214.83 307.825 215.418 308.374 215.418 309.339V309.378C215.418 310.043 214.722 310.075 212.989 310.26C211.084 310.464 209.263 311.033 209.263 313.245C209.263 315.175 210.675 316.198 212.548 316.198ZM213.149 314.498C212.184 314.498 211.494 314.057 211.494 313.207C211.494 312.318 212.267 311.947 213.303 311.8C213.91 311.717 215.124 311.564 215.425 311.321V312.478C215.425 313.571 214.543 314.498 213.149 314.498ZM219.339 316H221.653V310.03C221.653 308.822 222.458 308.004 223.455 308.004C224.433 308.004 225.105 308.662 225.105 309.672V316H227.374V309.876C227.374 308.771 228.032 308.004 229.151 308.004C230.084 308.004 230.825 308.553 230.825 309.768V316H233.146V309.41C233.146 307.217 231.88 306.054 230.078 306.054C228.652 306.054 227.565 306.757 227.131 307.85H227.029C226.651 306.738 225.699 306.054 224.376 306.054C223.059 306.054 222.075 306.732 221.666 307.85H221.551V306.182H219.339V316ZM245.735 306.508H248.017C247.972 304.296 246.086 302.73 243.299 302.73C240.551 302.73 238.486 304.277 238.492 306.591C238.492 308.47 239.828 309.55 241.983 310.107L243.472 310.49C244.885 310.848 245.818 311.289 245.824 312.305C245.818 313.424 244.757 314.172 243.21 314.172C241.727 314.172 240.576 313.507 240.48 312.133H238.147C238.243 314.734 240.18 316.198 243.229 316.198C246.367 316.198 248.189 314.632 248.196 312.325C248.189 310.055 246.316 309.02 244.348 308.553L243.12 308.246C242.046 307.991 240.883 307.537 240.896 306.444C240.902 305.46 241.784 304.737 243.267 304.737C244.68 304.737 245.613 305.396 245.735 306.508ZM249.488 316H251.801V306.182H249.488V316ZM250.651 304.788C251.386 304.788 251.987 304.226 251.987 303.536C251.987 302.839 251.386 302.276 250.651 302.276C249.909 302.276 249.309 302.839 249.309 303.536C249.309 304.226 249.909 304.788 250.651 304.788ZM253.333 316H261.393V314.082H256.408V313.999L261.227 307.761V306.182H253.499V308.099H258.396V308.183L253.333 314.53V316ZM266.914 316.192C269.202 316.192 270.774 315.073 271.184 313.366L269.023 313.124C268.71 313.955 267.943 314.389 266.946 314.389C265.45 314.389 264.459 313.405 264.44 311.724H271.279V311.014C271.279 307.569 269.208 306.054 266.792 306.054C263.98 306.054 262.145 308.119 262.145 311.148C262.145 314.229 263.954 316.192 266.914 316.192ZM264.446 310.164C264.517 308.911 265.443 307.857 266.824 307.857C268.154 307.857 269.049 308.828 269.061 310.164H264.446ZM273.942 316.141C274.697 316.141 275.342 315.514 275.349 314.734C275.342 313.967 274.697 313.341 273.942 313.341C273.163 313.341 272.53 313.967 272.536 314.734C272.53 315.514 273.163 316.141 273.942 316.141ZM273.942 309.129C274.697 309.129 275.342 308.502 275.349 307.722C275.342 306.955 274.697 306.329 273.942 306.329C273.163 306.329 272.53 306.955 272.536 307.722C272.53 308.502 273.163 309.129 273.942 309.129ZM286.062 302.909H283.805L280.552 304.999V307.173L283.613 305.217H283.69V316H286.062V302.909ZM293.504 316.249C296.662 316.256 298.547 313.763 298.547 309.467C298.547 305.197 296.649 302.73 293.504 302.73C290.359 302.73 288.467 305.191 288.461 309.467C288.461 313.756 290.346 316.249 293.504 316.249ZM293.504 314.249C291.874 314.249 290.851 312.612 290.858 309.467C290.864 306.348 291.881 304.705 293.504 304.705C295.134 304.705 296.15 306.348 296.157 309.467C296.157 312.612 295.141 314.249 293.504 314.249Z" fill="white" fill-opacity="0.5"/>
<path fill-rule="evenodd" clip-rule="evenodd" d="M141.316 70.8217C140.456 70.8217 139.667 70.6586 138.95 70.3323C138.233 70.0061 137.62 69.5327 137.11 68.9121C136.6 68.2915 136.202 67.5197 135.915 66.5968C135.628 65.6738 135.485 64.6156 135.485 63.4222C135.485 61.7036 135.704 60.1521 136.142 58.7676C136.58 57.3832 137.17 56.2017 137.911 55.223C138.651 54.2444 139.508 53.4925 140.48 52.9674C141.452 52.4422 142.472 52.1797 143.539 52.1797C144.432 52.1797 145.232 52.3507 145.941 52.6929C146.65 53.035 147.248 53.5203 147.734 54.1489C148.22 54.7775 148.59 55.5373 148.845 56.4284C149.1 57.3196 149.228 58.3062 149.228 59.3882C149.228 60.9795 149.033 62.4674 148.642 63.8518C148.252 65.2362 147.706 66.4456 147.005 67.48C146.304 68.5143 145.471 69.3298 144.507 69.9266C143.543 70.5233 142.48 70.8217 141.316 70.8217ZM134.237 70.5102H122.023L122.071 70.1283L126.947 61.3444C127.425 60.4691 127.911 59.6536 128.405 58.8978C128.899 58.1419 129.401 57.4218 129.911 56.7376H124.772L125.298 52.5127H137.057L136.986 53.014L131.417 62.8243C131.321 62.9993 131.198 63.2062 131.046 63.4449C130.895 63.6836 130.731 63.962 130.556 64.2803L129.289 66.4047C129.783 66.3728 130.178 66.345 130.473 66.3211C130.767 66.2973 130.955 66.2853 131.034 66.2853H134.787L134.237 70.5102ZM143.015 56.7148C143.843 56.7148 144.258 57.6457 144.258 59.5076C144.258 60.4146 144.194 61.2779 144.066 62.0974C143.939 62.9169 143.76 63.637 143.529 64.2576C143.297 64.8782 143.031 65.3715 142.728 65.7375C142.425 66.1035 142.098 66.2865 141.748 66.2865C140.887 66.2865 140.457 65.3078 140.457 63.3505C140.457 62.5071 140.525 61.6876 140.66 60.892C140.796 60.0963 140.975 59.3882 141.198 58.7676C141.421 58.147 141.688 57.6497 141.999 57.2758C142.31 56.9018 142.648 56.7148 143.015 56.7148ZM148.227 70.5102L150.426 52.5127H154.561C155.772 52.5127 156.823 52.6917 157.716 53.0498C158.608 53.4078 159.349 53.9051 159.938 54.5416C160.528 55.1781 160.966 55.9419 161.253 56.8331C161.54 57.7242 161.683 58.6949 161.683 59.7451C161.683 62.3708 161.125 64.6304 160.01 66.524C159.182 67.9244 158.19 68.9388 157.034 69.5674C155.879 70.1959 154.433 70.5102 152.696 70.5102H148.227ZM154.873 65.6909C154.475 65.9932 154.037 66.1524 153.559 66.1683L154.682 57.0024H154.826C155.447 57.0024 155.925 57.2889 156.26 57.8617C156.594 58.4346 156.762 59.27 156.762 60.368C156.762 61.1955 156.686 61.9593 156.534 62.6595C156.383 63.3597 156.168 63.9643 155.889 64.4736C155.61 64.9828 155.272 65.3885 154.873 65.6909ZM165.348 70.5102H160.852L163.051 52.5127H167.831L165.779 69.3081L165.348 70.5102ZM165.779 69.3081L171.801 52.5127H177.681L179.211 70.5102H174.191V68.2187H170.941L170.295 70.5102H165.632L165.779 69.3081ZM174.122 64.3779L174.06 56.9048C174.06 56.9048 173.975 57.4637 173.919 57.6706C173.863 57.8775 173.819 58.0605 173.787 58.2196L172.067 64.3779H174.122ZM185.837 70.8217C186.697 70.8217 187.677 70.6068 188.777 70.1772L189.709 64.9737C188.769 65.7534 187.885 66.1433 187.056 66.1433C186.227 66.1433 185.598 65.8529 185.168 65.272C184.738 64.6912 184.522 63.8439 184.522 62.7299C184.522 61.8547 184.614 61.0472 184.797 60.3072C184.981 59.5673 185.239 58.9268 185.574 58.3857C185.909 57.8447 186.307 57.427 186.769 57.1326C187.231 56.8382 187.741 56.691 188.299 56.691C189.064 56.691 189.757 57.049 190.378 57.7651L191 52.6332C190.219 52.3309 189.43 52.1797 188.633 52.1797C187.327 52.1797 186.12 52.4621 185.012 53.0271C183.905 53.592 182.945 54.3757 182.132 55.3782C181.32 56.3807 180.686 57.5742 180.232 58.9586C179.778 60.343 179.551 61.8547 179.551 63.4938C179.551 64.5918 179.698 65.5903 179.993 66.4894C180.288 67.3885 180.706 68.1602 181.248 68.8047C181.79 69.4492 182.447 69.9465 183.22 70.2965C183.993 70.6466 184.865 70.8217 185.837 70.8217Z" fill="white"/>
<path fill-rule="evenodd" clip-rule="evenodd" d="M45.4493 68.6401C43.9774 68.5854 42.7731 68.2087 41.8314 67.509C41.6517 67.3753 41.2235 66.9746 41.0798 66.8056C40.698 66.3565 40.4384 65.9194 40.2652 65.4345C39.7324 63.9418 40.0066 61.9831 41.0496 59.8334C41.9426 57.993 43.3205 56.1677 45.7246 53.6396C46.0787 53.2676 47.1333 52.1797 47.1401 52.1797C47.1426 52.1797 47.0851 52.2728 47.0128 52.3862C46.3877 53.3654 45.8529 54.5189 45.5615 55.5175C45.0934 57.1198 45.1499 58.4949 45.7268 59.5611C46.1248 60.2957 46.8071 60.9319 47.5743 61.2836C48.9175 61.8992 50.884 61.9501 53.2855 61.4326C53.4508 61.3968 61.6438 59.3626 71.4923 56.9121C81.3408 54.4614 89.4 52.4579 89.4012 52.4595C89.404 52.4616 66.5204 61.62 54.6412 66.3713C52.7599 67.1236 52.2569 67.3136 51.3724 67.604C49.1116 68.3466 47.0864 68.7009 45.4493 68.6401Z" fill="white"/>
<path fill-rule="evenodd" clip-rule="evenodd" d="M102.148 57.4619L105.469 60.7827L108.79 57.4619L109.108 57.7801L105.787 61.1008L109.108 64.4216L108.79 64.7397L105.469 61.419L102.148 64.7397L101.83 64.4216L105.151 61.1008L101.83 57.7801L102.148 57.4619Z" stroke="white" stroke-width="0.745679"/>
<path d="M64.098 134.818H59.3807V152.665H59.1506L46.8267 134.818H42.5824V161H47.3253V143.166H47.5426L59.8793 161H64.098V134.818ZM67.6214 161H72.2493V141.364H67.6214V161ZM69.9481 138.577C71.4183 138.577 72.62 137.452 72.62 136.071C72.62 134.678 71.4183 133.553 69.9481 133.553C68.4652 133.553 67.2635 134.678 67.2635 136.071C67.2635 137.452 68.4652 138.577 69.9481 138.577ZM75.5682 161H80.196V154.403L81.8835 152.601L87.892 161H93.4275L85.3736 149.839L92.9801 141.364H87.5724L80.5156 149.251H80.196V134.818H75.5682V161ZM102.509 161.384C107.086 161.384 110.23 159.146 111.049 155.733L106.728 155.247C106.101 156.909 104.567 157.778 102.573 157.778C99.5813 157.778 97.5997 155.81 97.5614 152.447H111.24V151.028C111.24 144.138 107.098 141.108 102.266 141.108C96.6409 141.108 92.9719 145.237 92.9719 151.297C92.9719 157.459 96.5898 161.384 102.509 161.384ZM97.5742 149.328C97.7148 146.822 99.5685 144.713 102.33 144.713C104.989 144.713 106.779 146.656 106.804 149.328H97.5742Z" fill="white" fill-opacity="0.5"/>
<path d="M42.0966 205H61.4773V201.024H47.9901L61.4006 181.771V178.818H42.0199V182.794H55.5199L42.0966 202.047V205ZM72.9876 205.384C78.7404 205.384 82.3966 201.331 82.3966 195.259C82.3966 189.173 78.7404 185.108 72.9876 185.108C67.2347 185.108 63.5785 189.173 63.5785 195.259C63.5785 201.331 67.2347 205.384 72.9876 205.384ZM73.0131 201.676C69.8299 201.676 68.2702 198.838 68.2702 195.246C68.2702 191.653 69.8299 188.777 73.0131 188.777C76.1452 188.777 77.7049 191.653 77.7049 195.246C77.7049 198.838 76.1452 201.676 73.0131 201.676ZM92.1715 205.345C95.5465 205.345 97.0678 203.338 97.7965 201.906H98.0777V205H102.629V178.818H97.9883V188.611H97.7965C97.0934 187.192 95.6488 185.108 92.1843 185.108C87.6459 185.108 84.0792 188.662 84.0792 195.207C84.0792 201.676 87.5436 205.345 92.1715 205.345ZM93.4627 201.548C90.4073 201.548 88.7965 198.864 88.7965 195.182C88.7965 191.526 90.3817 188.905 93.4627 188.905C96.4414 188.905 98.0777 191.372 98.0777 195.182C98.0777 198.991 96.4158 201.548 93.4627 201.548ZM106.12 205H110.748V185.364H106.12V205ZM108.447 182.577C109.917 182.577 111.119 181.452 111.119 180.071C111.119 178.678 109.917 177.553 108.447 177.553C106.964 177.553 105.762 178.678 105.762 180.071C105.762 181.452 106.964 182.577 108.447 182.577ZM119.718 205.396C122.799 205.396 124.64 203.952 125.483 202.303H125.637V205H130.086V191.858C130.086 186.668 125.854 185.108 122.108 185.108C117.979 185.108 114.809 186.949 113.786 190.528L118.107 191.142C118.567 189.8 119.871 188.649 122.134 188.649C124.282 188.649 125.458 189.749 125.458 191.679V191.756C125.458 193.085 124.064 193.149 120.6 193.52C116.79 193.929 113.147 195.067 113.147 199.49C113.147 203.351 115.972 205.396 119.718 205.396ZM120.919 201.996C118.989 201.996 117.608 201.114 117.608 199.413C117.608 197.636 119.155 196.895 121.226 196.601C122.441 196.435 124.87 196.128 125.47 195.642V197.956C125.47 200.142 123.706 201.996 120.919 201.996ZM141.864 205.384C146.799 205.384 149.944 202.456 150.276 198.288H145.853C145.457 200.398 143.935 201.612 141.903 201.612C139.013 201.612 137.147 199.196 137.147 195.182C137.147 191.219 139.052 188.841 141.903 188.841C144.127 188.841 145.495 190.273 145.853 192.165H150.276C149.957 187.908 146.633 185.108 141.839 185.108C136.086 185.108 132.455 189.263 132.455 195.259C132.455 201.203 135.996 205.384 141.864 205.384ZM169.203 205C177.18 205 181.91 200.065 181.91 191.884C181.91 183.727 177.18 178.818 169.382 178.818H160.331V205H169.203ZM165.073 200.896V182.922H169.113C174.431 182.922 177.206 185.888 177.206 191.884C177.206 197.905 174.431 200.896 168.973 200.896H165.073ZM190.422 205.396C193.503 205.396 195.344 203.952 196.188 202.303H196.342V205H200.79V191.858C200.79 186.668 196.559 185.108 192.813 185.108C188.684 185.108 185.513 186.949 184.491 190.528L188.812 191.142C189.272 189.8 190.576 188.649 192.839 188.649C194.986 188.649 196.163 189.749 196.163 191.679V191.756C196.163 193.085 194.769 193.149 191.305 193.52C187.495 193.929 183.851 195.067 183.851 199.49C183.851 203.351 186.677 205.396 190.422 205.396ZM191.624 201.996C189.694 201.996 188.313 201.114 188.313 199.413C188.313 197.636 189.86 196.895 191.931 196.601C193.145 196.435 195.574 196.128 196.175 195.642V197.956C196.175 200.142 194.411 201.996 191.624 201.996ZM213.809 185.364H209.936V180.659H205.308V185.364H202.521V188.943H205.308V199.861C205.282 203.555 207.967 205.371 211.444 205.268C212.761 205.23 213.669 204.974 214.167 204.808L213.387 201.19C213.132 201.254 212.607 201.369 212.032 201.369C210.869 201.369 209.936 200.96 209.936 199.094V188.943H213.809V185.364ZM221.89 205.396C224.971 205.396 226.812 203.952 227.656 202.303H227.809V205H232.258V191.858C232.258 186.668 228.026 185.108 224.281 185.108C220.151 185.108 216.981 186.949 215.958 190.528L220.279 191.142C220.74 189.8 222.044 188.649 224.306 188.649C226.454 188.649 227.63 189.749 227.63 191.679V191.756C227.63 193.085 226.237 193.149 222.772 193.52C218.963 193.929 215.319 195.067 215.319 199.49C215.319 203.351 218.144 205.396 221.89 205.396ZM223.092 201.996C221.161 201.996 219.781 201.114 219.781 199.413C219.781 197.636 221.328 196.895 223.399 196.601C224.613 196.435 227.042 196.128 227.643 195.642V197.956C227.643 200.142 225.879 201.996 223.092 201.996ZM56.8111 230.016H61.375C61.2855 225.592 57.5142 222.46 51.9403 222.46C46.4432 222.46 42.3139 225.554 42.3267 230.182C42.3267 233.94 44.9986 236.101 49.3068 237.213L52.2855 237.98C55.1108 238.696 56.9773 239.578 56.9901 241.611C56.9773 243.848 54.8551 245.344 51.7614 245.344C48.7955 245.344 46.4943 244.014 46.3026 241.266H41.6364C41.8281 246.469 45.7017 249.396 51.7997 249.396C58.0767 249.396 61.7202 246.264 61.733 241.649C61.7202 237.111 57.9744 235.04 54.0369 234.107L51.5824 233.493C49.4347 232.982 47.108 232.074 47.1335 229.888C47.1463 227.919 48.9105 226.474 51.8764 226.474C54.7017 226.474 56.5682 227.791 56.8111 230.016ZM72.8821 249.384C77.8167 249.384 80.9616 246.456 81.294 242.288H76.8707C76.4744 244.398 74.9531 245.612 72.9204 245.612C70.0312 245.612 68.1648 243.196 68.1648 239.182C68.1648 235.219 70.0696 232.841 72.9204 232.841C75.1449 232.841 76.5128 234.273 76.8707 236.165H81.294C80.9744 231.908 77.6506 229.108 72.8565 229.108C67.1037 229.108 63.473 233.263 63.473 239.259C63.473 245.203 67.0142 249.384 72.8821 249.384ZM83.6541 249H88.2819V229.364H83.6541V249ZM85.9808 226.577C87.451 226.577 88.6527 225.452 88.6527 224.071C88.6527 222.678 87.451 221.553 85.9808 221.553C84.4978 221.553 83.2961 222.678 83.2961 224.071C83.2961 225.452 84.4978 226.577 85.9808 226.577ZM100.294 249.384C104.871 249.384 108.016 247.146 108.834 243.733L104.513 243.247C103.886 244.909 102.352 245.778 100.358 245.778C97.3664 245.778 95.3849 243.81 95.3465 240.447H109.026V239.028C109.026 232.138 104.883 229.108 100.051 229.108C94.4261 229.108 90.7571 233.237 90.7571 239.297C90.7571 245.459 94.375 249.384 100.294 249.384ZM95.3593 237.328C95.5 234.822 97.3537 232.713 100.115 232.713C102.774 232.713 104.564 234.656 104.589 237.328H95.3593ZM116.128 237.494C116.128 234.656 117.842 233.02 120.283 233.02C122.674 233.02 124.106 234.592 124.106 237.213V249H128.734V236.497C128.746 231.793 126.062 229.108 122.009 229.108C119.069 229.108 117.049 230.514 116.154 232.7H115.924V229.364H111.501V249H116.128V237.494ZM140.563 249.384C145.498 249.384 148.643 246.456 148.975 242.288H144.552C144.156 244.398 142.635 245.612 140.602 245.612C137.713 245.612 135.846 243.196 135.846 239.182C135.846 235.219 137.751 232.841 140.602 232.841C142.826 232.841 144.194 234.273 144.552 236.165H148.975C148.656 231.908 145.332 229.108 140.538 229.108C134.785 229.108 131.154 233.263 131.154 239.259C131.154 245.203 134.696 249.384 140.563 249.384ZM160.029 249.384C164.605 249.384 167.75 247.146 168.568 243.733L164.247 243.247C163.621 244.909 162.087 245.778 160.093 245.778C157.101 245.778 155.12 243.81 155.081 240.447H168.76V239.028C168.76 232.138 164.618 229.108 159.786 229.108C154.161 229.108 150.492 233.237 150.492 239.297C150.492 245.459 154.11 249.384 160.029 249.384ZM155.094 237.328C155.235 234.822 157.088 232.713 159.85 232.713C162.509 232.713 164.299 234.656 164.324 237.328H155.094Z" fill="white"/>
</svg>
