<svg width="154" height="19" viewBox="0 0 154 19" fill="none" xmlns="http://www.w3.org/2000/svg">
<path fill-rule="evenodd" clip-rule="evenodd" d="M103.263 19C102.386 19 101.582 18.8338 100.851 18.5013C100.12 18.1688 99.4948 17.6863 98.9751 17.0538C98.4554 16.4213 98.0494 15.6347 97.7571 14.694C97.4647 13.7533 97.3186 12.6748 97.3186 11.4584C97.3186 9.70678 97.5419 8.12549 97.9885 6.71447C98.4351 5.30345 99.036 4.09924 99.7912 3.10179C100.546 2.10435 101.419 1.33803 102.41 0.802817C103.401 0.267603 104.44 0 105.528 0C106.437 0 107.254 0.174347 107.976 0.523047C108.699 0.871747 109.308 1.36641 109.803 2.00704C110.299 2.64768 110.676 3.4221 110.936 4.33035C111.196 5.23859 111.326 6.24413 111.326 7.34699C111.326 8.96885 111.127 10.4853 110.729 11.8963C110.331 13.3073 109.775 14.5399 109.06 15.5941C108.346 16.6483 107.497 17.4795 106.515 18.0877C105.532 18.6959 104.448 19 103.263 19ZM96.0478 18.6831H83.5996L83.6483 18.2938L88.6178 9.3412C89.1051 8.44918 89.6004 7.61799 90.1038 6.8476C90.6073 6.07722 91.1188 5.34334 91.6385 4.64594H86.4011L86.937 0.339922H98.9223L98.8492 0.850805L93.1732 10.8495C93.0758 11.0279 92.9499 11.2388 92.7957 11.482C92.6414 11.7253 92.4749 12.0091 92.2963 12.3335L91.0052 14.4987C91.5086 14.4663 91.9106 14.4379 92.211 14.4135C92.5114 14.3892 92.7023 14.3771 92.7835 14.3771H96.6081L96.0478 18.6831ZM104.992 4.62234C105.837 4.62234 106.259 5.57112 106.259 7.46869C106.259 8.39316 106.194 9.273 106.064 10.1083C105.934 10.9435 105.751 11.6774 105.516 12.3099C105.28 12.9424 105.008 13.4452 104.7 13.8182C104.391 14.1913 104.058 14.3778 103.701 14.3778C102.824 14.3778 102.385 13.3804 102.385 11.3855C102.385 10.5259 102.455 9.69064 102.593 8.87971C102.731 8.06878 102.913 7.34706 103.141 6.71453C103.368 6.08201 103.64 5.57518 103.957 5.19405C104.273 4.81291 104.619 4.62234 104.992 4.62234ZM110.307 18.6831L112.548 0.339922H116.762C117.996 0.339922 119.068 0.522378 119.978 0.887297C120.887 1.25222 121.642 1.75904 122.243 2.40778C122.844 3.05653 123.291 3.83501 123.583 4.74325C123.875 5.65149 124.022 6.64081 124.022 7.71124C124.022 10.3873 123.453 12.6903 122.316 14.6203C121.472 16.0476 120.461 17.0815 119.283 17.7221C118.106 18.3628 116.632 18.6831 114.862 18.6831H110.307ZM117.079 13.7701C116.673 14.0782 116.226 14.2404 115.739 14.2566L116.884 4.91477H117.03C117.664 4.91477 118.151 5.2067 118.492 5.79057C118.833 6.37444 119.003 7.2259 119.003 8.34498C119.003 9.18835 118.926 9.96683 118.772 10.6805C118.618 11.3941 118.398 12.0104 118.114 12.5294C117.83 13.0484 117.485 13.4619 117.079 13.7701ZM127.757 18.6831H123.173L125.414 0.339922H130.286L128.194 17.4638L127.757 18.6831ZM128.194 17.4638L134.334 0.339922H140.327L141.886 18.6831H136.77V16.3476H133.457L132.799 18.6831H128.045L128.194 17.4638ZM136.697 12.4319L136.634 4.81531C136.634 4.81531 136.547 5.38499 136.49 5.59583C136.433 5.80667 136.389 5.99318 136.356 6.15537L134.602 12.4319H136.697ZM148.638 19C149.515 19 150.513 18.7811 151.634 18.3431L152.584 13.0397C151.626 13.8344 150.725 14.2318 149.88 14.2318C149.036 14.2318 148.394 13.9358 147.956 13.3438C147.517 12.7518 147.298 11.8882 147.298 10.7529C147.298 9.86086 147.391 9.03778 147.578 8.28361C147.765 7.52945 148.029 6.87666 148.37 6.32522C148.711 5.77379 149.117 5.34806 149.588 5.04802C150.059 4.74797 150.578 4.59795 151.147 4.59795C151.926 4.59795 152.633 4.96286 153.266 5.6927L153.9 0.462228C153.104 0.154074 152.3 0 151.488 0C150.156 0 148.926 0.287876 147.797 0.863636C146.669 1.4394 145.69 2.23815 144.862 3.25992C144.034 4.28169 143.388 5.49807 142.925 6.90909C142.462 8.32011 142.231 9.86085 142.231 11.5314C142.231 12.6505 142.381 13.6682 142.682 14.5845C142.982 15.5009 143.408 16.2874 143.961 16.9443C144.513 17.6012 145.183 18.108 145.97 18.4648C146.758 18.8216 147.647 19 148.638 19Z" fill="white"/>
<path fill-rule="evenodd" clip-rule="evenodd" d="M5.55398 16.7765C4.05376 16.7208 2.82635 16.3368 1.86662 15.6237C1.68346 15.4875 1.24701 15.079 1.10058 14.9068C0.711398 14.4491 0.446804 14.0036 0.270323 13.5094C-0.272737 11.988 0.00675597 9.99166 1.06976 7.80069C1.97991 5.92494 3.38431 4.06457 5.8345 1.48796C6.19543 1.10882 7.27025 0 7.27718 0C7.27975 0 7.22118 0.0949047 7.14745 0.210472C6.51037 1.20853 5.96526 2.38415 5.6683 3.40191C5.19126 5.035 5.2488 6.43646 5.83681 7.52318C6.24244 8.27185 6.93783 8.92032 7.7198 9.2788C9.08875 9.90613 11.093 9.95803 13.5406 9.43065C13.7091 9.39413 22.0595 7.32088 32.0971 4.82332C42.1347 2.32553 50.3487 0.283513 50.35 0.285195C50.3528 0.287357 27.0298 9.62166 14.9224 14.4642C13.005 15.2309 12.4923 15.4245 11.5908 15.7205C9.28656 16.4774 7.22247 16.8385 5.55398 16.7765Z" fill="white"/>
<path fill-rule="evenodd" clip-rule="evenodd" d="M63.3409 5.38379L66.7254 8.76832L70.1099 5.38379L70.4342 5.70806L67.0497 9.09259L70.4342 12.4771L70.1099 12.8014L66.7254 9.41686L63.3409 12.8014L63.0166 12.4771L66.4011 9.09259L63.0166 5.70806L63.3409 5.38379Z" stroke="white" stroke-width="0.76"/>
</svg>
