<svg width="496" height="65" viewBox="0 0 496 65" fill="none" xmlns="http://www.w3.org/2000/svg">
<path fill-rule="evenodd" clip-rule="evenodd" d="M103.263 19C102.386 19 101.582 18.8338 100.851 18.5013C100.12 18.1688 99.4948 17.6863 98.9751 17.0538C98.4554 16.4213 98.0494 15.6347 97.7571 14.694C97.4647 13.7533 97.3186 12.6748 97.3186 11.4584C97.3186 9.70678 97.5419 8.12549 97.9885 6.71447C98.4351 5.30345 99.036 4.09924 99.7912 3.10179C100.546 2.10435 101.419 1.33803 102.41 0.802817C103.401 0.267603 104.44 0 105.528 0C106.437 0 107.254 0.174347 107.976 0.523047C108.699 0.871747 109.308 1.36641 109.803 2.00704C110.299 2.64768 110.676 3.4221 110.936 4.33035C111.196 5.23859 111.326 6.24413 111.326 7.34699C111.326 8.96885 111.127 10.4853 110.729 11.8963C110.331 13.3073 109.775 14.5399 109.06 15.5941C108.346 16.6483 107.497 17.4795 106.515 18.0877C105.532 18.6959 104.448 19 103.263 19ZM96.0478 18.6831H83.5996L83.6483 18.2938L88.6178 9.3412C89.1051 8.44918 89.6004 7.61799 90.1038 6.8476C90.6073 6.07722 91.1188 5.34334 91.6385 4.64594H86.4011L86.937 0.339922H98.9223L98.8492 0.850805L93.1732 10.8495C93.0758 11.0279 92.9499 11.2388 92.7957 11.482C92.6414 11.7253 92.4749 12.0091 92.2963 12.3335L91.0052 14.4987C91.5086 14.4663 91.9106 14.4379 92.211 14.4135C92.5114 14.3892 92.7023 14.3771 92.7835 14.3771H96.6081L96.0478 18.6831ZM104.992 4.62234C105.837 4.62234 106.259 5.57112 106.259 7.46869C106.259 8.39316 106.194 9.273 106.064 10.1083C105.934 10.9435 105.751 11.6774 105.516 12.3099C105.28 12.9424 105.008 13.4452 104.7 13.8182C104.391 14.1913 104.058 14.3778 103.701 14.3778C102.824 14.3778 102.385 13.3804 102.385 11.3855C102.385 10.5259 102.455 9.69064 102.593 8.87971C102.731 8.06878 102.913 7.34706 103.141 6.71453C103.368 6.08201 103.64 5.57518 103.957 5.19405C104.273 4.81291 104.619 4.62234 104.992 4.62234ZM110.307 18.6831L112.548 0.339922H116.762C117.996 0.339922 119.068 0.522378 119.978 0.887297C120.887 1.25222 121.642 1.75904 122.243 2.40778C122.844 3.05653 123.291 3.83501 123.583 4.74325C123.875 5.65149 124.022 6.64081 124.022 7.71124C124.022 10.3873 123.453 12.6903 122.316 14.6203C121.472 16.0476 120.461 17.0815 119.283 17.7221C118.106 18.3628 116.632 18.6831 114.862 18.6831H110.307ZM117.079 13.7701C116.673 14.0782 116.226 14.2404 115.739 14.2566L116.884 4.91477H117.03C117.664 4.91477 118.151 5.2067 118.492 5.79057C118.833 6.37444 119.003 7.2259 119.003 8.34498C119.003 9.18835 118.926 9.96683 118.772 10.6805C118.618 11.3941 118.398 12.0104 118.114 12.5294C117.83 13.0484 117.485 13.4619 117.079 13.7701ZM127.757 18.6831H123.173L125.414 0.339922H130.286L128.194 17.4638L127.757 18.6831ZM128.194 17.4638L134.334 0.339922H140.327L141.886 18.6831H136.77V16.3476H133.457L132.799 18.6831H128.045L128.194 17.4638ZM136.697 12.4319L136.634 4.81531C136.634 4.81531 136.547 5.38499 136.49 5.59583C136.433 5.80667 136.389 5.99318 136.356 6.15537L134.602 12.4319H136.697ZM148.638 19C149.515 19 150.513 18.7811 151.634 18.3431L152.584 13.0397C151.626 13.8344 150.725 14.2318 149.88 14.2318C149.036 14.2318 148.394 13.9358 147.956 13.3438C147.517 12.7518 147.298 11.8882 147.298 10.7529C147.298 9.86086 147.391 9.03778 147.578 8.28361C147.765 7.52945 148.029 6.87666 148.37 6.32522C148.711 5.77379 149.117 5.34806 149.588 5.04802C150.059 4.74797 150.578 4.59795 151.147 4.59795C151.926 4.59795 152.633 4.96286 153.266 5.6927L153.9 0.462228C153.104 0.154074 152.3 0 151.488 0C150.156 0 148.926 0.287876 147.797 0.863636C146.669 1.4394 145.69 2.23815 144.862 3.25992C144.034 4.28169 143.388 5.49807 142.925 6.90909C142.462 8.32011 142.231 9.86085 142.231 11.5314C142.231 12.6505 142.381 13.6682 142.682 14.5845C142.982 15.5009 143.408 16.2874 143.961 16.9443C144.513 17.6012 145.183 18.108 145.97 18.4648C146.758 18.8216 147.647 19 148.638 19Z" fill="white"/>
<path fill-rule="evenodd" clip-rule="evenodd" d="M5.55398 16.7765C4.05376 16.7208 2.82635 16.3368 1.86662 15.6237C1.68346 15.4875 1.24701 15.079 1.10058 14.9068C0.711398 14.4491 0.446804 14.0036 0.270323 13.5094C-0.272737 11.988 0.00675597 9.99166 1.06976 7.80069C1.97991 5.92494 3.38431 4.06457 5.8345 1.48796C6.19543 1.10882 7.27025 0 7.27718 0C7.27975 0 7.22118 0.0949047 7.14745 0.210472C6.51037 1.20853 5.96526 2.38415 5.6683 3.40191C5.19126 5.035 5.2488 6.43646 5.83681 7.52318C6.24244 8.27185 6.93783 8.92032 7.7198 9.2788C9.08875 9.90613 11.093 9.95803 13.5406 9.43065C13.7091 9.39413 22.0595 7.32088 32.0971 4.82332C42.1347 2.32553 50.3487 0.283513 50.35 0.285195C50.3528 0.287357 27.0298 9.62166 14.9224 14.4642C13.005 15.2309 12.4923 15.4245 11.5908 15.7205C9.28656 16.4774 7.22247 16.8385 5.55398 16.7765Z" fill="white"/>
<path fill-rule="evenodd" clip-rule="evenodd" d="M63.3409 5.38379L66.7254 8.76832L70.1099 5.38379L70.4342 5.70806L67.0497 9.09259L70.4342 12.4771L70.1099 12.8014L66.7254 9.41686L63.3409 12.8014L63.0166 12.4771L66.4011 9.09259L63.0166 5.70806L63.3409 5.38379Z" stroke="white" stroke-width="0.76"/>
<path d="M6.53267 47.2955H4.50639L0.287642 62.9688H2.31392L6.53267 47.2955ZM11.1363 61H13.5078V56.5767H16.0135C19.0369 56.5767 20.6605 54.7614 20.6605 52.2429C20.6605 49.7436 19.0561 47.9091 16.0454 47.9091H11.1363V61ZM13.5078 54.6271V49.8906H15.6811C17.4581 49.8906 18.2443 50.8494 18.2443 52.2429C18.2443 53.6364 17.4581 54.6271 15.6939 54.6271H13.5078ZM21.8981 61H24.212V55.228C24.212 53.9815 25.1516 53.0994 26.4236 53.0994C26.8135 53.0994 27.2993 53.1697 27.4975 53.2337V51.1051C27.2866 51.0668 26.9222 51.0412 26.6665 51.0412C25.5415 51.0412 24.6019 51.6804 24.2439 52.8182H24.1417V51.1818H21.8981V61ZM32.1932 61.1918C35.0696 61.1918 36.8977 59.1655 36.8977 56.1293C36.8977 53.0866 35.0696 51.054 32.1932 51.054C29.3167 51.054 27.4886 53.0866 27.4886 56.1293C27.4886 59.1655 29.3167 61.1918 32.1932 61.1918ZM32.2059 59.3381C30.6143 59.3381 29.8345 57.919 29.8345 56.1229C29.8345 54.3267 30.6143 52.8885 32.2059 52.8885C33.772 52.8885 34.5518 54.3267 34.5518 56.1229C34.5518 57.919 33.772 59.3381 32.2059 59.3381ZM38.1417 51.1818V61.5305C38.1417 62.3551 37.7901 62.7962 36.9016 62.7962C36.7865 62.7962 36.6971 62.7898 36.5692 62.7834V64.669C36.7354 64.6818 36.876 64.6818 37.0422 64.6818C39.2091 64.6818 40.4556 63.6847 40.4556 61.5625V51.1818H38.1417ZM39.2922 49.7884C40.0273 49.7884 40.6282 49.2259 40.6282 48.5355C40.6282 47.8388 40.0273 47.2763 39.2922 47.2763C38.5507 47.2763 37.9499 47.8388 37.9499 48.5355C37.9499 49.2259 38.5507 49.7884 39.2922 49.7884ZM46.4616 61.1918C48.75 61.1918 50.3224 60.0732 50.7315 58.3665L48.571 58.1236C48.2578 58.9545 47.4907 59.3892 46.4936 59.3892C44.9978 59.3892 44.0071 58.4048 43.9879 56.7237H50.8274V56.0142C50.8274 52.5689 48.7563 51.054 46.3402 51.054C43.5277 51.054 41.6931 53.1186 41.6931 56.1484C41.6931 59.2294 43.5021 61.1918 46.4616 61.1918ZM43.9943 55.1641C44.0646 53.9112 44.9914 52.8565 46.3721 52.8565C47.7017 52.8565 48.5965 53.8281 48.6093 55.1641H43.9943ZM56.3476 61.1918C58.8149 61.1918 60.3874 59.728 60.5536 57.6442H58.3419C58.1438 58.6989 57.3831 59.3061 56.3668 59.3061C54.9222 59.3061 53.9889 58.098 53.9889 56.0909C53.9889 54.1094 54.9414 52.9205 56.3668 52.9205C57.479 52.9205 58.1629 53.6364 58.3419 54.5824H60.5536C60.3938 52.4538 58.7318 51.054 56.3348 51.054C53.4584 51.054 51.6431 53.1314 51.6431 56.1293C51.6431 59.1016 53.4137 61.1918 56.3476 61.1918ZM66.6363 51.1818H64.6995V48.8295H62.3856V51.1818H60.9921V52.9716H62.3856V58.4304C62.3728 60.2777 63.7151 61.1854 65.4538 61.1342C66.1122 61.1151 66.566 60.9872 66.8153 60.9041L66.4254 59.0952C66.2975 59.1271 66.0355 59.1847 65.7478 59.1847C65.1661 59.1847 64.6995 58.9801 64.6995 58.0469V52.9716H66.6363V51.1818ZM75.4708 53.777C75.1512 52.1151 73.8217 51.054 71.5205 51.054C69.1555 51.054 67.5447 52.2173 67.5511 54.0327C67.5447 55.4645 68.4268 56.4105 70.3124 56.8004L71.9871 57.152C72.8884 57.3501 73.3103 57.7145 73.3103 58.2706C73.3103 58.9418 72.5816 59.4467 71.4822 59.4467C70.4211 59.4467 69.7308 58.9865 69.5326 58.1044L67.2762 58.3217C67.5639 60.1243 69.0788 61.1918 71.4886 61.1918C73.9431 61.1918 75.6754 59.9197 75.6818 58.0597C75.6754 56.6598 74.7741 55.8033 72.9204 55.4006L71.2457 55.0426C70.2485 54.8189 69.8522 54.4737 69.8586 53.9048C69.8522 53.2401 70.5873 52.7798 71.5525 52.7798C72.62 52.7798 73.1825 53.3615 73.3614 54.0071L75.4708 53.777Z" fill="white"/>
<path d="M103.533 47.2955H101.506L97.2876 62.9688H99.3139L103.533 47.2955ZM118.894 47.9091H116.535V56.8324H116.42L110.259 47.9091H108.136V61H110.508V52.0831H110.616L116.785 61H118.894V47.9091ZM120.656 61H122.97V51.1818H120.656V61ZM121.819 49.7884C122.554 49.7884 123.155 49.2259 123.155 48.5355C123.155 47.8388 122.554 47.2763 121.819 47.2763C121.078 47.2763 120.477 47.8388 120.477 48.5355C120.477 49.2259 121.078 49.7884 121.819 49.7884ZM124.629 61H126.943V57.7017L127.787 56.8004L130.791 61H133.559L129.532 55.4197L133.335 51.1818H130.631L127.103 55.1257H126.943V47.9091H124.629V61ZM138.1 61.1918C140.388 61.1918 141.96 60.0732 142.369 58.3665L140.209 58.1236C139.896 58.9545 139.129 59.3892 138.132 59.3892C136.636 59.3892 135.645 58.4048 135.626 56.7237H142.465V56.0142C142.465 52.5689 140.394 51.054 137.978 51.054C135.166 51.054 133.331 53.1186 133.331 56.1484C133.331 59.2294 135.14 61.1918 138.1 61.1918ZM135.632 55.1641C135.703 53.9112 136.629 52.8565 138.01 52.8565C139.34 52.8565 140.235 53.8281 140.247 55.1641H135.632Z" fill="white"/>
<path d="M473.527 47.2955H471.501L467.282 62.9688H469.309L473.527 47.2955ZM479.097 61.2493C482.255 61.2557 484.14 58.7628 484.14 54.4673C484.14 50.1974 482.242 47.7301 479.097 47.7301C475.952 47.7301 474.06 50.1911 474.054 54.4673C474.054 58.7564 475.939 61.2493 479.097 61.2493ZM479.097 59.2486C477.467 59.2486 476.444 57.6122 476.451 54.4673C476.457 51.348 477.474 49.7053 479.097 49.7053C480.727 49.7053 481.743 51.348 481.75 54.4673C481.75 57.6122 480.733 59.2486 479.097 59.2486ZM490.198 61.179C493.029 61.179 495.056 59.6193 495.062 57.4908C495.056 55.8544 493.847 54.4865 492.326 54.2308V54.1413C493.649 53.8473 494.57 52.6584 494.576 51.2393C494.57 49.2259 492.716 47.7301 490.198 47.7301C487.66 47.7301 485.806 49.2195 485.813 51.2393C485.806 52.6584 486.714 53.8473 488.063 54.1413V54.2308C486.516 54.4865 485.32 55.8544 485.327 57.4908C485.32 59.6193 487.34 61.179 490.198 61.179ZM490.198 59.3509C488.715 59.3509 487.756 58.5327 487.769 57.3246C487.756 56.0717 488.785 55.1832 490.198 55.1832C491.591 55.1832 492.614 56.0781 492.627 57.3246C492.614 58.5327 491.661 59.3509 490.198 59.3509ZM490.198 53.3871C488.983 53.3871 488.114 52.6009 488.127 51.4631C488.114 50.3381 488.958 49.5838 490.198 49.5838C491.419 49.5838 492.256 50.3381 492.269 51.4631C492.256 52.6072 491.393 53.3871 490.198 53.3871Z" fill="white"/>
</svg>
