<?xml version="1.0" encoding="UTF-8" standalone="no"?>
<svg width="125px" height="130px" viewBox="0 0 125 130" version="1.1" xmlns="http://www.w3.org/2000/svg" xmlns:xlink="http://www.w3.org/1999/xlink" xmlns:sketch="http://www.bohemiancoding.com/sketch/ns">
    <!-- Generator: Sketch 3.3.3 (12081) - http://www.bohemiancoding.com/sketch -->
    <title>competitive_analysis_n</title>
    <desc>Created with Sketch.</desc>
    <defs></defs>
    <g id="icons" stroke="none" stroke-width="1" fill="none" fill-rule="evenodd" sketch:type="MSPage">
        <g id="competitive_analysis_n" sketch:type="MSLayerGroup" transform="translate(0.000000, 2.000000)">
            <g id="Group" transform="translate(13.000000, 0.000000)" sketch:type="MSShapeGroup">
                <circle id="Oval-43-Copy" stroke="#72BA43" stroke-width="3" cx="50" cy="50" r="50"></circle>
                <g transform="translate(23.000000, 21.000000)" id="Shape" fill="#72BA43">
                    <path d="M53.9388947,5.35806818 L52.9100526,0 L1.08994737,0 L0.0611052632,5.35806818 C-0.117947368,6.29018182 0.110842105,7.71829545 0.576236842,8.556 L4.40171053,15.4415227 C5.97197368,18.5859091 7.79944737,23.9968182 8.48226316,27.5244773 L9.15371053,30.9887273 C10.3495263,37.1675909 15.8333684,42.1881818 21.4429737,42.2713182 C21.8621842,42.2713182 22.9414737,42.2727273 22.9414737,42.2727273 C22.9414737,42.2727273 22.6963421,42.9519091 22.6963421,43.6818182 C22.6963421,44.4110227 22.8199737,44.8358636 23.0437895,45.3473636 C21.5225526,46.1850682 20.5441579,47.4941136 20.5441579,48.9659091 C20.5441579,50.0466818 21.0720789,51.0400909 21.9552632,51.8235455 C21.2525526,52.84725 20.1633158,53.74625 19.0968158,54.0935909 L13.0331842,55.8831364 C12.1123421,56.1832727 11.3662895,57.2013409 11.3662895,58.1440227 L11.3662895,62 L42.6365526,62 L42.6365526,58.1440227 C42.6365526,57.195 41.8926316,56.1839773 40.9696579,55.8831364 L34.9060263,54.0935909 C33.8445,53.7476591 32.7524211,52.8493636 32.0475789,51.8235455 C32.9307632,51.0400909 33.4586842,50.0466818 33.4586842,48.9659091 C33.4586842,47.4941136 32.4802895,46.1850682 30.9590526,45.3473636 C31.1821579,44.8358636 31.3057895,44.4089091 31.3057895,43.6818182 C31.3057895,42.9547273 31.0613684,42.2727273 31.0613684,42.2727273 C31.0613684,42.2727273 31.8472105,42.2713182 32.5598684,42.2713182 C38.1687632,42.1860682 43.6504737,37.1668864 44.847,30.9887273 L45.5177368,27.5244773 C46.2005526,23.9968182 48.0280263,18.5859091 49.5982895,15.4415227 L53.4237632,8.556 C53.8877368,7.72181818 54.1186579,6.29159091 53.9388947,5.35806818 L53.9388947,5.35806818 L53.9388947,5.35806818 Z M8.00194737,20.5043864 L8.16892105,20.4564773 C8.39344737,20.3916591 8.57107895,20.2211591 8.64497368,20.0006364 L9.58215789,17.1831591 L11.2504737,19.6377955 C11.3819211,19.8294318 11.6000526,19.9442727 11.8338158,19.9456818 L14.8187368,19.9442727 L12.9877105,22.2904091 C12.8441842,22.4735909 12.8015526,22.71525 12.8726053,22.9364773 L13.7962895,25.7504318 L10.9797632,24.7485682 C10.7595,24.6703636 10.5150789,24.7041818 10.3253684,24.8401591 L9.48410526,25.4467727 C9.09757895,23.8988864 8.57960526,22.1819091 8.00194737,20.5043864 L8.00194737,20.5043864 L8.00194737,20.5043864 Z M12.7894737,59.1818182 L41.2105263,59.1818182 L41.2105263,60.5909091 L12.7894737,60.5909091 L12.7894737,59.1818182 L12.7894737,59.1818182 Z M34.4541316,55.4308182 L40.5177632,57.0681818 C40.7835,57.1632955 41.0989737,57.7727273 41.0989737,57.7727273 L12.9045789,57.7727273 C13.0374474,57.5254318 13.2655263,57.2922273 13.4850789,57.2210682 L19.5487105,55.4308182 C20.9100789,54.9876591 22.2558158,53.9068864 23.1453947,52.6105227 L23.4708158,52.1363636 L30.5320263,52.1363636 L30.8581579,52.6105227 C31.7477368,53.9068864 33.0956053,54.9883636 34.4541316,55.4308182 L34.4541316,55.4308182 L34.4541316,55.4308182 Z M32.0234211,48.9659091 C32.0234211,49.5781591 31.7257105,50.1882955 31.1416579,50.7272727 L22.8611842,50.7272727 C22.2771316,50.1882955 21.9794211,49.5781591 21.9794211,48.9659091 C21.9794211,48.08875 22.6018421,47.2059545 23.7457895,46.5760909 L23.8836316,46.5 L30.1192105,46.5 L30.2570526,46.5760909 C31.401,47.2059545 32.0234211,48.08875 32.0234211,48.9659091 L32.0234211,48.9659091 L32.0234211,48.9659091 Z M24.1316053,43.6818182 C24.1316053,43.3563182 24.1870263,43.0406818 24.2943158,42.7419545 L24.4634211,42.2727273 L29.5394211,42.2727273 L29.7085263,42.7419545 C29.8158158,43.0406818 29.8712368,43.3563182 29.8712368,43.6818182 C29.8712368,44.0700227 29.7923684,44.4448409 29.6403158,44.7914773 L29.5095789,45.0909091 L24.4932632,45.0909091 L24.3625263,44.7914773 C24.2104737,44.4448409 24.1316053,44.0700227 24.1316053,43.6818182 L24.1316053,43.6818182 L24.1316053,43.6818182 Z M44.5400526,25.3530682 L43.8288158,24.8401591 C43.6391053,24.7041818 43.3939737,24.6703636 43.1737105,24.7485682 L40.3578947,25.7504318 L41.2808684,22.9364773 C41.3526316,22.71525 41.3092895,22.4735909 41.1664737,22.2904091 L39.3354474,19.9442727 L42.3196579,19.9456818 C42.5534211,19.9442727 42.7715526,19.8294318 42.9037105,19.6377955 L44.5713158,17.1831591 L45.5092105,20.0006364 C45.5823947,20.2211591 45.7600263,20.3916591 45.9845526,20.4564773 L46.0136842,20.4649318 C45.4402895,22.1241364 44.9265789,23.8192727 44.5400526,25.3530682 L44.5400526,25.3530682 L44.5400526,25.3530682 Z M52.1647105,7.88104545 L48.3392368,14.7665682 C47.7686842,15.9072273 47.1746842,17.3127955 46.6098158,18.8120682 L45.9206053,16.7421136 C45.4893158,15.44575 44.1876316,15.2667955 43.4138684,16.3926591 L41.9615526,18.538 L39.3212368,18.5499773 C37.9442368,18.5570227 37.3708421,19.7286818 38.2113947,20.8066364 L39.8164737,22.8519318 L39.0164211,25.3326364 C38.5972105,26.6332273 39.5443421,27.5364545 40.8375,27.0763864 L43.3136842,26.1957045 L44.1968684,26.8312045 C44.1663158,26.9749318 44.1350526,27.1221818 44.1080526,27.2609773 L43.4373158,30.7259318 C42.3537632,36.3214318 37.3495263,40.8636364 32.4149211,40.8636364 L21.5857895,40.8636364 C16.6504737,40.8636364 11.6462368,36.3214318 10.5633947,30.7259318 L9.89194737,27.2609773 C9.87134211,27.1531818 9.84576316,27.0383409 9.82302632,26.9270227 L10.8397895,26.1957045 L13.3166842,27.0763864 C14.6098421,27.5364545 15.5569737,26.6332273 15.1377632,25.3326364 L14.3377105,22.8519318 L15.9420789,20.8066364 C16.7833421,19.7286818 16.2092368,18.5570227 14.8329474,18.5499773 L12.1926316,18.538 L10.7403158,16.3926591 C9.96655263,15.2667955 8.66486842,15.44575 8.23286842,16.7421136 L7.47260526,19.0255455 C6.89068421,17.4593409 6.27465789,15.9924773 5.68989474,14.8208182 L1.836,7.88104545 C1.71592105,7.66545455 1.61573684,7.36672727 1.54610526,7.04545455 L52.4538947,7.04545455 C52.3835526,7.36672727 52.2840789,7.66615909 52.1647105,7.88104545 L52.1647105,7.88104545 L52.1647105,7.88104545 Z M1.46794737,5.63636364 C1.46865789,5.63072727 1.47007895,5.62509091 1.47078947,5.61875 L2.2815,1.40909091 L51.7575789,1.40909091 L52.5292105,5.61875 C52.5306316,5.62509091 52.5313421,5.63072727 52.5320526,5.63636364 L1.46794737,5.63636364 L1.46794737,5.63636364 Z M22.1826316,22.3326818 L21.6490263,25.4207045 C21.3506053,27.1426136 22.6437632,28.07825 24.2069211,27.2637955 L27.0028421,25.8060909 L29.7937895,27.2637955 C31.3533947,28.0768409 32.6501053,27.1461364 32.3516842,25.4207045 L31.8187895,22.3355 L34.0782632,20.1521136 C35.3401579,18.9325455 34.8484737,17.422 33.1005789,17.1704773 L29.9742632,16.7125227 L28.5809211,13.9140682 C27.8014737,12.3471591 26.2006579,12.3443409 25.4190789,13.9140682 L24.0371053,16.7181591 L20.8994211,17.1704773 C19.1557895,17.4212955 18.6577105,18.9297273 19.9224474,20.1521136 L22.1826316,22.3326818 L22.1826316,22.3326818 Z M21.1033421,18.5647727 L24.5962895,18.0610227 C24.8279211,18.0279091 25.0275789,17.8841818 25.1313158,17.6756364 L26.6937632,14.5375909 C26.9531053,14.0162273 27.0476053,14.0169318 27.3069474,14.5375909 L28.8686842,17.6756364 C28.9724211,17.8841818 29.1720789,18.0279091 29.4037105,18.0610227 L32.8966579,18.5647727 C33.4764474,18.6479091 33.5055789,18.7373864 33.0863684,19.1432045 L30.5583158,21.5858636 C30.3913421,21.7479091 30.3146053,21.9811136 30.3543947,22.2093864 L30.9512368,25.6588409 C31.05,26.2316364 30.9732632,26.2865909 30.4545789,26.0160455 L27.3303947,24.3878409 C27.1236316,24.2800455 26.8763684,24.2800455 26.6696053,24.3878409 L23.5454211,26.0160455 C23.0267368,26.2865909 22.95,26.2316364 23.0494737,25.6588409 L23.6456053,22.2093864 C23.6853947,21.9811136 23.6093684,21.7479091 23.4416842,21.5858636 L20.9143421,19.1432045 C20.4944211,18.7373864 20.5235526,18.6479091 21.1033421,18.5647727 L21.1033421,18.5647727 L21.1033421,18.5647727 Z"></path>
                </g>
            </g>
            <text id="Competitive-Analysis" sketch:type="MSTextLayer" font-family="Lato" font-size="14" font-weight="260" fill="#72BA43">
                <tspan x="0" y="125">Competitive Analysis</tspan>
            </text>
        </g>
    </g>
</svg>