<?xml version="1.0" encoding="UTF-8" standalone="no"?>
<svg width="103px" height="128px" viewBox="0 0 103 128" version="1.1" xmlns="http://www.w3.org/2000/svg" xmlns:xlink="http://www.w3.org/1999/xlink" xmlns:sketch="http://www.bohemiancoding.com/sketch/ns">
    <!-- Generator: Sketch 3.3.3 (12081) - http://www.bohemiancoding.com/sketch -->
    <title>personas_n</title>
    <desc>Created with Sketch.</desc>
    <defs></defs>
    <g id="icons" stroke="none" stroke-width="1" fill="none" fill-rule="evenodd" sketch:type="MSPage">
        <g id="personas_n" sketch:type="MSLayerGroup" transform="translate(1.000000, 2.000000)">
            <circle id="Oval-43" stroke="#72BA43" stroke-width="3" sketch:type="MSShapeGroup" cx="50.5" cy="50" r="50"></circle>
            <g id="personas" transform="translate(16.000000, 25.000000)" stroke="#72BA43" fill="#72BA43" sketch:type="MSShapeGroup">
                <g id="Group">
                    <path d="M25.7646,23.3318182 C25.4709667,22.9689394 25.1773333,22.5340909 24.8837,22.0984848 C24.5164667,22.7515152 24.0764,23.3318182 23.7091667,23.6939394 C23.6355667,23.7666667 23.1219,24.3469697 22.9754667,24.7090909 C22.9018667,25.0719697 22.9018667,25.7242424 22.9754667,25.7969697 C23.0490667,26.6674242 23.5627333,27.8280303 24.3700333,28.4810606 C24.8837,28.2636364 25.2509333,28.1181818 25.4709667,27.9734848 C25.5445667,27.9007576 25.691,27.8287879 25.7646,27.7560606 C25.691,27.6833333 25.5445667,27.6833333 25.4709667,27.6113636 C24.9573,27.3212121 24.4436333,26.3780303 24.3700333,25.7257576 L24.3700333,25.2181818 C24.4436333,25.0734848 24.6636667,24.855303 24.8101,24.7106061 C25.1045,24.3469697 25.3981333,23.9121212 25.7646,23.3318182 L25.7646,23.3318182 Z" id="Shape"></path>
                    <path d="M2.12903333,35.2272727 C2.6427,33.8492424 3.22996667,33.2689394 3.96443333,32.7613636 C4.33166667,32.5439394 6.3871,31.7462121 8.22173333,31.0931818 C10.4972,30.2227273 12.9198667,29.3522727 13.8736,28.844697 C14.9009333,28.2643939 15.5618,26.8863636 15.709,25.8704545 C15.709,25.8704545 15.7826,25.1454545 15.709,24.7825758 C15.6354,24.5651515 15.5625667,24.419697 15.4153667,24.2022727 L15.3417667,24.1295455 C15.2681667,24.0568182 14.9745333,23.7666667 14.9745333,23.7666667 C14.0936333,22.8234848 12.9191,21.0106061 12.4790333,19.269697 C11.8181667,16.8037879 11.3045,11.9439394 13.5063667,8.96969697 C14.7545,7.37424242 16.6627333,6.50378788 19.2318333,6.43106061 L19.3054333,6.43106061 L19.4518667,6.43106061 C20.7,6.50378788 21.8009333,6.72121212 22.7554333,7.08409091 C22.9018667,6.64924242 23.0490667,6.21363636 23.1955,5.70606061 C22.3146,5.34318182 21.2872667,5.12575758 20.1855667,4.98106061 L20.1855667,4.90833333 L19.3046667,4.90833333 L19.2310667,4.90833333 L18.4973667,4.90833333 L18.4973667,4.98106061 C15.7810667,5.19848485 13.7264,6.21439394 12.3310667,8.1 C9.1747,12.3068182 10.8629,18.9075758 11.0101,19.6325758 C11.5237667,21.6636364 12.8455,23.6219697 13.8728333,24.7825758 C13.9464333,24.855303 14.0928667,25 14.2400667,25.1454545 C14.2400667,25.2181818 14.3136667,25.2181818 14.3136667,25.2181818 L14.3136667,25.7257576 C14.2400667,26.3787879 13.8,27.3212121 13.2127333,27.6113636 C12.4054333,28.0462121 9.90916667,28.9893939 7.7809,29.7871212 C5.2854,30.730303 3.74363333,31.3106061 3.22996667,31.6007576 C2.05543333,32.3984848 1.39456667,33.2689394 0.8073,34.7924242 C0.220033333,36.2424242 0,42.8431818 0,43.0606061 L0,43.205303 L0.0736,43.2780303 C0.293633333,43.8583333 1.54176667,45.3818182 9.02903333,46.1068182 C9.02903333,45.8166667 9.10263333,45.3090909 9.17546667,44.6560606 C3.45,44.1484848 1.8354,43.1325758 1.46816667,42.8424242 C1.54176667,41.6825758 1.7618,36.2424242 2.12903333,35.2272727 L2.12903333,35.2272727 Z" id="Shape"></path>
                    <path d="M57.9163,45.5272727 C57.6962667,42.0454545 57.4762333,38.3462121 57.0354,37.1136364 C56.3017,35.155303 55.4208,34.2848485 54.3927,33.5598485 C53.8790333,33.1969697 51.8972,32.4719697 48.8136667,31.3113636 C45.9509333,30.2234848 43.0146,29.1356061 41.9136667,28.555303 C40.8863333,27.975 40.0782667,25.3636364 40.1518667,24.4931818 C40.1518667,24.4204545 40.3719,24.0583333 40.8855667,23.55 C42.0601,22.3166667 43.6018667,19.8507576 44.2619667,17.4568182 C45.1428667,14.2651515 45.8037333,7.73712121 42.7938,3.67575758 C41.1056,1.42727273 38.3893,0.193939394 34.8664667,0.0492424242 L34.5728333,0.0492424242 L34.5,0.0492424242 C30.9764,0.193939394 28.2608667,1.35454545 26.5726667,3.67575758 C23.5627333,7.66515152 24.2236,14.1931818 25.1045,17.4568182 C25.6917667,19.705303 27.1599333,22.0992424 28.3344667,23.4045455 L28.3344667,23.4045455 L28.4080667,23.4772727 C28.6281,23.7674242 29.0689333,24.2022727 29.1417667,24.4204545 C29.4354,25.3636364 28.3344667,27.9022727 27.3063667,28.4825758 C26.2054333,29.1356061 23.2691,30.2234848 20.3327667,31.2386364 C17.3228333,32.3265152 15.341,33.1242424 14.8273333,33.4143939 C13.7264,34.1393939 12.8455,35.0098485 12.1846333,36.9681818 C11.7445667,38.2015152 11.5237667,41.9727273 11.3037333,45.4545455 C11.3037333,45.8174242 11.3037333,46.0348485 11.2301333,46.1795455 L11.2301333,46.5424242 L11.4501667,46.7598485 C12.2574667,47.4848485 16.2947333,49.9515152 34.6456667,49.9515152 C52.7765667,49.9515152 56.9602667,47.4856061 57.7683333,46.6871212 L58.0619667,46.469697 L58.0619667,46.1068182 C57.9163,46.1075758 57.9163,45.8893939 57.9163,45.5272727 L57.9163,45.5272727 Z M34.5736,48.6462121 C18.2045,48.6462121 13.6535667,46.6151515 12.6990667,45.9621212 L12.6990667,45.5992424 C12.7726667,43.8583333 13.0663,38.7083333 13.5063667,37.5477273 C14.0936333,35.9522727 14.6809,35.2992424 15.6354,34.7189394 C16.0754667,34.4287879 18.9389667,33.3409091 20.9208,32.6151515 C23.8571333,31.5272727 26.8663,30.4393939 28.0408333,29.7863636 C29.509,28.9159091 31.1236,25.7242424 30.4635,23.9833333 C30.3170667,23.5484848 29.8762333,23.0401515 29.4361667,22.5325758 L29.4361667,22.5325758 C28.4088333,21.3719697 27.0135,19.1962121 26.4262333,17.0924242 C25.6181667,14.119697 24.9573,8.1719697 27.6736,4.54545455 C29.0681667,2.65984848 31.4172333,1.64393939 34.5,1.49924242 L34.5736,1.49924242 L34.7936333,1.49924242 C37.8764,1.5719697 40.1518667,2.58712121 41.5472,4.54545455 C44.2635,8.09924242 43.6026333,14.119697 42.7953333,17.0939394 C42.2080667,19.1977273 40.8135,21.4462121 39.7854,22.5340909 C39.0517,23.3318182 38.6844667,23.7674242 38.6844667,24.419697 C38.6844667,25.5075758 39.4917667,28.7719697 41.2535667,29.7871212 C42.5017,30.4401515 45.5108667,31.6007576 48.4472,32.6886364 C50.3554333,33.4136364 53.2181667,34.4295455 53.659,34.719697 C54.5399,35.3 55.2007667,35.9530303 55.7880333,37.5484848 C56.2281,38.7090909 56.4489,43.8590909 56.5953333,45.5272727 L56.5953333,45.8901515 C55.4200333,46.6878788 50.8691,48.6462121 34.5736,48.6462121 L34.5736,48.6462121 Z" id="Shape"></path>
                    <path d="M43.5290333,27.1757576 C43.4554333,27.2484848 43.309,27.2484848 43.2354,27.3204545 C43.309,27.3931818 43.4554333,27.5378788 43.5290333,27.5378788 C43.8226667,27.6825758 44.1899,27.9007576 44.6299667,28.0454545 C45.4372667,27.3924242 45.9509333,26.2318182 46.0245333,25.3613636 C46.0245333,25.2886364 46.0981333,24.6363636 46.0245333,24.2734848 C45.9509333,23.9106061 45.3636667,23.330303 45.2908333,23.2583333 C44.9236,22.8234848 44.4835333,22.3151515 44.1163,21.6628788 C43.8226667,22.0977273 43.5290333,22.5333333 43.2354,22.8962121 C43.6026333,23.4037879 43.9691,23.8393939 44.2627333,24.2015152 C44.4091667,24.3462121 44.5563667,24.5643939 44.7028,24.7090909 L44.7028,25.2166667 C44.5563667,25.9431818 44.1163,26.8856061 43.5290333,27.1757576 L43.5290333,27.1757576 Z" id="Shape"></path>
                    <path d="M69,42.6257576 C69,42.4810606 68.7799667,35.880303 68.1927,34.3568182 C67.6790333,32.9060606 66.9445667,31.9628788 65.7700333,31.1651515 C65.2563667,30.8022727 63.7146,30.2219697 61.2191,29.3515152 C59.0900667,28.5537879 56.6681667,27.6833333 55.7872667,27.1757576 C55.2736,26.8856061 54.7599333,25.9424242 54.6863333,25.2901515 L54.6863333,24.7825758 C54.6863333,24.7825758 54.6863333,24.7825758 54.7599333,24.7098485 C54.8335333,24.6371212 55.0535667,24.419697 55.1271667,24.3469697 C56.1545,23.2590909 57.4026333,21.2280303 57.9899,19.1969697 C58.2099333,18.4719697 59.8253,11.8712121 56.6689333,7.66439394 C55.2743667,5.85075758 53.2189333,4.76287879 50.5026333,4.54545455 L50.5026333,4.47272727 L49.7689333,4.47272727 L49.6953333,4.47272727 L48.8136667,4.47272727 L48.8136667,4.54545455 C47.7127333,4.61818182 46.6846333,4.90833333 45.8037333,5.27045455 C45.9501667,5.70530303 46.1709667,6.14090909 46.2438,6.64848485 C47.1983,6.21363636 48.2992333,5.99545455 49.5473667,5.99545455 L49.6938,5.99545455 L49.7674,5.99545455 C52.3365,6.06818182 54.2447333,6.93863636 55.4928667,8.53409091 C57.6947333,11.5083333 57.1810667,16.4401515 56.5202,18.8340909 C56.0801333,20.575 54.9056,22.3878788 54.0247,23.3310606 C54.0247,23.3310606 53.7310667,23.6212121 53.6574667,23.6939394 L53.5838667,23.7666667 C53.4374333,23.9840909 53.3638333,24.1295455 53.2902333,24.3469697 C53.2166333,24.7098485 53.2166333,25.3621212 53.2902333,25.4348485 C53.3638333,26.45 54.0239333,27.8287879 55.1256333,28.4090909 C56.0801333,28.9166667 58.4292,29.7871212 60.7775,30.6575758 C62.6129,31.3106061 64.6675667,32.1083333 65.0348,32.3257576 C65.7685,32.8333333 66.3557667,33.4136364 66.8702,34.7916667 C67.2374333,35.8068182 67.4574667,41.2469697 67.5310667,42.4075758 C67.1638333,42.6977273 65.5492333,43.7128788 59.8237667,44.2931818 C59.8973667,44.8734848 59.8973667,45.3810606 59.9702,45.7439394 C67.4574667,45.0189394 68.7056,43.4227273 68.9256333,42.9151515 L69,42.7704545 L69,42.6257576 L69,42.6257576 Z" id="Shape"></path>
                </g>
            </g>
            <text id="Personas" sketch:type="MSTextLayer" font-family="Lato" font-size="14" font-weight="260" fill="#72BA43">
                <tspan x="23" y="125">Personas</tspan>
            </text>
        </g>
    </g>
</svg>