<svg width="440" height="365" viewBox="0 0 440 365" fill="none" xmlns="http://www.w3.org/2000/svg">
<rect width="440" height="365" rx="8" fill="#004977"/>
<path d="M47.5327 305.295H45.5064L41.2876 320.969H43.3139L47.5327 305.295ZM52.1363 319H54.5078V314.577H57.0135C60.0369 314.577 61.6605 312.761 61.6605 310.243C61.6605 307.744 60.0561 305.909 57.0454 305.909H52.1363V319ZM54.5078 312.627V307.891H56.6811C58.4581 307.891 59.2443 308.849 59.2443 310.243C59.2443 311.636 58.4581 312.627 56.6939 312.627H54.5078ZM62.8981 319H65.212V313.228C65.212 311.982 66.1516 311.099 67.4236 311.099C67.8135 311.099 68.2993 311.17 68.4975 311.234V309.105C68.2866 309.067 67.9222 309.041 67.6665 309.041C66.5415 309.041 65.6019 309.68 65.2439 310.818H65.1417V309.182H62.8981V319ZM73.1932 319.192C76.0696 319.192 77.8977 317.165 77.8977 314.129C77.8977 311.087 76.0696 309.054 73.1932 309.054C70.3167 309.054 68.4886 311.087 68.4886 314.129C68.4886 317.165 70.3167 319.192 73.1932 319.192ZM73.2059 317.338C71.6143 317.338 70.8345 315.919 70.8345 314.123C70.8345 312.327 71.6143 310.888 73.2059 310.888C74.772 310.888 75.5518 312.327 75.5518 314.123C75.5518 315.919 74.772 317.338 73.2059 317.338ZM79.1417 309.182V319.531C79.1417 320.355 78.7901 320.796 77.9016 320.796C77.7865 320.796 77.6971 320.79 77.5692 320.783V322.669C77.7354 322.682 77.876 322.682 78.0422 322.682C80.2091 322.682 81.4556 321.685 81.4556 319.562V309.182H79.1417ZM80.2922 307.788C81.0273 307.788 81.6282 307.226 81.6282 306.536C81.6282 305.839 81.0273 305.276 80.2922 305.276C79.5507 305.276 78.9499 305.839 78.9499 306.536C78.9499 307.226 79.5507 307.788 80.2922 307.788ZM87.4616 319.192C89.75 319.192 91.3224 318.073 91.7315 316.366L89.571 316.124C89.2578 316.955 88.4907 317.389 87.4936 317.389C85.9978 317.389 85.0071 316.405 84.9879 314.724H91.8274V314.014C91.8274 310.569 89.7563 309.054 87.3402 309.054C84.5277 309.054 82.6931 311.119 82.6931 314.148C82.6931 317.229 84.5021 319.192 87.4616 319.192ZM84.9943 313.164C85.0646 311.911 85.9914 310.857 87.3721 310.857C88.7017 310.857 89.5965 311.828 89.6093 313.164H84.9943ZM97.3476 319.192C99.8149 319.192 101.387 317.728 101.554 315.644H99.3419C99.1438 316.699 98.3831 317.306 97.3668 317.306C95.9222 317.306 94.9889 316.098 94.9889 314.091C94.9889 312.109 95.9414 310.92 97.3668 310.92C98.479 310.92 99.1629 311.636 99.3419 312.582H101.554C101.394 310.454 99.7318 309.054 97.3348 309.054C94.4584 309.054 92.6431 311.131 92.6431 314.129C92.6431 317.102 94.4137 319.192 97.3476 319.192ZM107.636 309.182H105.7V306.83H103.386V309.182H101.992V310.972H103.386V316.43C103.373 318.278 104.715 319.185 106.454 319.134C107.112 319.115 107.566 318.987 107.815 318.904L107.425 317.095C107.298 317.127 107.035 317.185 106.748 317.185C106.166 317.185 105.7 316.98 105.7 316.047V310.972H107.636V309.182ZM110.277 319.141C111.031 319.141 111.677 318.514 111.683 317.734C111.677 316.967 111.031 316.341 110.277 316.341C109.497 316.341 108.864 316.967 108.871 317.734C108.864 318.514 109.497 319.141 110.277 319.141ZM110.277 312.129C111.031 312.129 111.677 311.502 111.683 310.722C111.677 309.955 111.031 309.329 110.277 309.329C109.497 309.329 108.864 309.955 108.871 310.722C108.864 311.502 109.497 312.129 110.277 312.129ZM117.071 319H126.046V317.018H120.344V316.929L122.601 314.634C125.145 312.192 125.848 311.004 125.848 309.527C125.848 307.335 124.064 305.73 121.431 305.73C118.836 305.73 116.995 307.341 116.995 309.827H119.251C119.251 308.491 120.095 307.654 121.399 307.654C122.645 307.654 123.572 308.415 123.572 309.648C123.572 310.741 122.907 311.521 121.616 312.832L117.071 317.287V319ZM132.74 322.682C134.542 322.682 135.584 321.755 136.14 320.189L140.084 309.195L137.611 309.182L135.341 316.597H135.239L132.976 309.182H130.522L134.082 319.205L133.884 319.735C133.456 320.854 132.778 320.93 131.768 320.636L131.231 322.439C131.544 322.567 132.107 322.682 132.74 322.682ZM144.983 319.192C147.271 319.192 148.844 318.073 149.253 316.366L147.092 316.124C146.779 316.955 146.012 317.389 145.015 317.389C143.519 317.389 142.528 316.405 142.509 314.724H149.349V314.014C149.349 310.569 147.278 309.054 144.861 309.054C142.049 309.054 140.214 311.119 140.214 314.148C140.214 317.229 142.023 319.192 144.983 319.192ZM142.516 313.164C142.586 311.911 143.513 310.857 144.893 310.857C146.223 310.857 147.118 311.828 147.131 313.164H142.516ZM153.411 319.198C154.952 319.198 155.872 318.476 156.294 317.651H156.371V319H158.595V312.429C158.595 309.834 156.48 309.054 154.607 309.054C152.542 309.054 150.957 309.974 150.446 311.764L152.606 312.071C152.836 311.4 153.488 310.825 154.62 310.825C155.693 310.825 156.281 311.374 156.281 312.339V312.378C156.281 313.043 155.585 313.075 153.853 313.26C151.948 313.464 150.126 314.033 150.126 316.245C150.126 318.175 151.539 319.198 153.411 319.198ZM154.012 317.498C153.047 317.498 152.357 317.057 152.357 316.207C152.357 315.318 153.13 314.947 154.166 314.8C154.773 314.717 155.987 314.564 156.288 314.321V315.478C156.288 316.571 155.406 317.498 154.012 317.498ZM160.202 319H162.516V313.228C162.516 311.982 163.456 311.099 164.728 311.099C165.118 311.099 165.603 311.17 165.802 311.234V309.105C165.591 309.067 165.226 309.041 164.971 309.041C163.846 309.041 162.906 309.68 162.548 310.818H162.446V309.182H160.202V319ZM174.379 311.777C174.059 310.115 172.73 309.054 170.429 309.054C168.063 309.054 166.453 310.217 166.459 312.033C166.453 313.464 167.335 314.411 169.22 314.8L170.895 315.152C171.796 315.35 172.218 315.714 172.218 316.271C172.218 316.942 171.49 317.447 170.39 317.447C169.329 317.447 168.639 316.987 168.441 316.104L166.184 316.322C166.472 318.124 167.987 319.192 170.397 319.192C172.851 319.192 174.583 317.92 174.59 316.06C174.583 314.66 173.682 313.803 171.828 313.401L170.154 313.043C169.156 312.819 168.76 312.474 168.767 311.905C168.76 311.24 169.495 310.78 170.46 310.78C171.528 310.78 172.09 311.362 172.269 312.007L174.379 311.777Z" fill="white" fill-opacity="0.5"/>
<path d="M198.533 305.295H196.506L192.288 320.969H194.314L198.533 305.295ZM202.561 307.897H206.607V319H208.96V307.897H213.006V305.909H202.561V307.897ZM217.12 319.192C219.408 319.192 220.98 318.073 221.39 316.366L219.229 316.124C218.916 316.955 218.149 317.389 217.152 317.389C215.656 317.389 214.665 316.405 214.646 314.724H221.485V314.014C221.485 310.569 219.414 309.054 216.998 309.054C214.186 309.054 212.351 311.119 212.351 314.148C212.351 317.229 214.16 319.192 217.12 319.192ZM214.652 313.164C214.723 311.911 215.649 310.857 217.03 310.857C218.36 310.857 219.255 311.828 219.267 313.164H214.652ZM225.548 319.198C227.089 319.198 228.009 318.476 228.431 317.651H228.508V319H230.732V312.429C230.732 309.834 228.616 309.054 226.744 309.054C224.679 309.054 223.094 309.974 222.582 311.764L224.743 312.071C224.973 311.4 225.625 310.825 226.756 310.825C227.83 310.825 228.418 311.374 228.418 312.339V312.378C228.418 313.043 227.722 313.075 225.989 313.26C224.084 313.464 222.263 314.033 222.263 316.245C222.263 318.175 223.675 319.198 225.548 319.198ZM226.149 317.498C225.184 317.498 224.494 317.057 224.494 316.207C224.494 315.318 225.267 314.947 226.303 314.8C226.91 314.717 228.124 314.564 228.425 314.321V315.478C228.425 316.571 227.543 317.498 226.149 317.498ZM232.339 319H234.653V313.03C234.653 311.822 235.458 311.004 236.455 311.004C237.433 311.004 238.105 311.662 238.105 312.672V319H240.374V312.876C240.374 311.771 241.032 311.004 242.151 311.004C243.084 311.004 243.825 311.553 243.825 312.768V319H246.146V312.41C246.146 310.217 244.88 309.054 243.078 309.054C241.652 309.054 240.565 309.757 240.131 310.85H240.029C239.651 309.738 238.699 309.054 237.376 309.054C236.059 309.054 235.075 309.732 234.666 310.85H234.551V309.182H232.339V319ZM258.735 309.508H261.017C260.972 307.296 259.086 305.73 256.299 305.73C253.551 305.73 251.486 307.277 251.492 309.591C251.492 311.47 252.828 312.55 254.983 313.107L256.472 313.49C257.885 313.848 258.818 314.289 258.824 315.305C258.818 316.424 257.757 317.172 256.21 317.172C254.727 317.172 253.576 316.507 253.48 315.133H251.147C251.243 317.734 253.18 319.198 256.229 319.198C259.367 319.198 261.189 317.632 261.196 315.325C261.189 313.055 259.316 312.02 257.348 311.553L256.12 311.246C255.046 310.991 253.883 310.537 253.896 309.444C253.902 308.46 254.784 307.737 256.267 307.737C257.68 307.737 258.613 308.396 258.735 309.508ZM262.488 319H264.801V309.182H262.488V319ZM263.651 307.788C264.386 307.788 264.987 307.226 264.987 306.536C264.987 305.839 264.386 305.276 263.651 305.276C262.909 305.276 262.309 305.839 262.309 306.536C262.309 307.226 262.909 307.788 263.651 307.788ZM266.333 319H274.393V317.082H269.408V316.999L274.227 310.761V309.182H266.499V311.099H271.396V311.183L266.333 317.53V319ZM279.914 319.192C282.202 319.192 283.774 318.073 284.184 316.366L282.023 316.124C281.71 316.955 280.943 317.389 279.946 317.389C278.45 317.389 277.459 316.405 277.44 314.724H284.279V314.014C284.279 310.569 282.208 309.054 279.792 309.054C276.98 309.054 275.145 311.119 275.145 314.148C275.145 317.229 276.954 319.192 279.914 319.192ZM277.446 313.164C277.517 311.911 278.443 310.857 279.824 310.857C281.154 310.857 282.049 311.828 282.061 313.164H277.446ZM286.942 319.141C287.697 319.141 288.342 318.514 288.349 317.734C288.342 316.967 287.697 316.341 286.942 316.341C286.163 316.341 285.53 316.967 285.536 317.734C285.53 318.514 286.163 319.141 286.942 319.141ZM286.942 312.129C287.697 312.129 288.342 311.502 288.349 310.722C288.342 309.955 287.697 309.329 286.942 309.329C286.163 309.329 285.53 309.955 285.536 310.722C285.53 311.502 286.163 312.129 286.942 312.129ZM293.5 316.571H299.745V319H302.008V316.571H303.683V314.621H302.008V305.909H299.055L293.5 314.685V316.571ZM299.771 314.621H295.929V314.519L299.669 308.594H299.771V314.621ZM309.844 319.249C313.002 319.256 314.887 316.763 314.887 312.467C314.887 308.197 312.989 305.73 309.844 305.73C306.699 305.73 304.807 308.191 304.801 312.467C304.801 316.756 306.686 319.249 309.844 319.249ZM309.844 317.249C308.214 317.249 307.191 315.612 307.198 312.467C307.204 309.348 308.22 307.705 309.844 307.705C311.474 307.705 312.49 309.348 312.497 312.467C312.497 315.612 311.48 317.249 309.844 317.249Z" fill="white" fill-opacity="0.5"/>
<path fill-rule="evenodd" clip-rule="evenodd" d="M87.9694 70.5398C85.0143 72.6085 81.5233 74.7734 77.7726 77.0505L77.6265 77.1307C77.5777 77.1627 77.5615 77.2269 77.594 77.291C77.6265 77.3391 77.6914 77.3552 77.7563 77.3231L77.8862 77.259C81.0687 75.6233 84.7383 73.6669 88.4078 71.6623C88.4241 71.6463 88.4403 71.6463 88.4728 71.6303C88.2617 71.2935 88.0831 70.9247 87.9694 70.5398ZM107.324 55.0647C102.68 49.9973 72.7878 54.5515 60.0743 57.2937L59.782 57.3579C59.717 57.3739 59.6846 57.422 59.6846 57.4862C59.7008 57.5503 59.7495 57.5824 59.8145 57.5824L60.1067 57.5182C70.6283 55.6741 92.532 53.1083 97.257 57.7267C98.7021 59.1379 98.3449 60.95 96.6887 63.0828C97.5817 63.6601 98.2312 64.5581 98.5235 65.6806C105.018 61.399 109.386 57.3258 107.324 55.0647Z" fill="#A12830"/>
<path fill-rule="evenodd" clip-rule="evenodd" d="M89.8532 69.2089C89.9182 70.9889 91.0548 72.4482 92.5486 72.4482C95.4388 72.4482 96.6565 68.9523 96.5753 66.6111C96.5104 64.8311 95.3413 63.3718 93.8638 63.3718C91.3633 63.3718 89.772 66.8516 89.8532 69.2089ZM88.3269 69.1125C88.2133 66.0656 90.6326 62.9707 94.1398 62.9707C96.4779 62.9707 98.0204 64.5101 98.1016 66.8675C98.2153 70.0747 95.9583 73.0093 92.2888 73.0093C89.9506 73.0093 88.4081 71.4698 88.3269 69.1125ZM55.1547 68.3109C55.0248 68.3591 54.8624 68.4072 54.6676 68.4392C54.4727 68.4873 54.0993 68.5515 53.5797 68.6317C53.2225 68.6958 52.9627 68.76 52.8166 68.8722C52.6704 68.9684 52.5893 69.0967 52.573 69.241C52.5405 69.4014 52.5893 69.5297 52.7354 69.6259C52.8815 69.7221 53.1088 69.7702 53.4336 69.7702C53.6771 69.7702 53.9207 69.7382 54.1642 69.658C54.4078 69.5778 54.6026 69.4816 54.765 69.3533C54.8787 69.2571 54.9599 69.1288 55.0248 68.9845C55.041 68.8722 55.0898 68.6477 55.1547 68.3109ZM58.2073 66.4343C58.191 66.7069 58.1423 66.9635 58.0774 67.3804L57.5578 70.2349C57.5091 70.4914 57.6065 70.6839 57.8501 70.8282L57.8338 70.9405H54.8787L54.8462 70.2188C54.4241 70.4754 53.9045 70.6839 53.4336 70.8122C52.9627 70.9244 52.5893 70.9886 52.021 70.9886C51.063 70.9886 50.5272 70.8923 50.1537 70.5716C49.764 70.2349 49.5854 70.0104 49.6017 69.5453C49.6179 69.2727 49.7478 68.9359 49.9589 68.6954C50.17 68.4548 50.446 68.2945 50.7383 68.1502C51.0468 68.0058 51.404 67.9096 51.9236 67.8294C52.4431 67.7493 53.1738 67.6691 54.148 67.5889C54.6514 67.5408 54.9761 67.4285 55.1223 67.3804C55.3333 67.3002 55.3983 67.2201 55.4308 67.0597C55.4795 66.771 55.3983 66.5946 54.9924 66.5145C53.9369 66.306 51.9398 66.6428 50.9169 66.8993L51.4689 65.408C52.8166 65.2155 54.0993 65.0872 55.4308 65.0872C57.5416 65.0712 58.2235 65.6646 58.2073 66.4343ZM66.748 70.9407L67.7709 65.2318H70.5961L69.5732 70.9407H66.748ZM67.9332 63.9167C68.0144 63.4517 68.7613 63.0668 69.6056 63.0668C70.45 63.0668 71.0507 63.4517 70.9695 63.9167C70.8884 64.3818 70.1252 64.7667 69.2971 64.7667C68.4528 64.7667 67.8358 64.3818 67.9332 63.9167ZM80.6306 68.3268C80.5007 68.3749 80.3383 68.423 80.1435 68.4551C79.9486 68.5032 79.5752 68.5673 79.0393 68.6475C78.6821 68.7116 78.4223 68.7758 78.2762 68.888C78.1463 68.9842 78.0651 69.1125 78.0327 69.2569C78.0002 69.4172 78.0651 69.5455 78.195 69.6417C78.3412 69.7379 78.5685 69.7861 78.9095 69.7861C79.153 69.7861 79.3966 69.754 79.6401 69.6738C79.8837 69.5936 80.0785 69.4974 80.2409 69.3691C80.3545 69.2729 80.4357 69.1446 80.4844 69.0003C80.5169 68.888 80.5656 68.6635 80.6306 68.3268ZM83.6669 66.4504C83.6507 66.723 83.602 66.9796 83.5208 67.3966L83.0174 70.251C82.9687 70.5076 83.0662 70.7 83.3097 70.8443L83.2935 70.9406H80.3383L80.3221 70.2189C79.8837 70.4755 79.3641 70.684 78.9095 70.8123C78.4386 70.9406 78.0652 70.9887 77.4969 70.9887C76.5389 70.9887 76.0031 70.8924 75.6296 70.5717C75.2399 70.235 75.0613 70.0105 75.0776 69.5454C75.0938 69.2728 75.2237 68.936 75.4348 68.6955C75.6459 68.4549 75.9219 68.2946 76.2141 68.1503C76.5226 68.0059 76.8799 67.9097 77.3994 67.8135C77.919 67.7333 78.6497 67.6531 79.6239 67.573C80.1273 67.5249 80.4358 67.4126 80.5819 67.3645C80.793 67.2843 80.8742 67.2041 80.9066 67.0277C80.9553 66.7391 80.8579 66.5627 80.4682 66.4825C79.3966 66.274 77.4157 66.6108 76.3928 66.8674L76.9448 65.376C78.3087 65.1836 79.559 65.0553 80.9066 65.0553C83.0012 65.0874 83.6832 65.6807 83.6669 66.4504ZM49.212 68.888C48.2865 69.0644 47.7831 69.1446 46.8739 69.1446C45.5262 69.1446 44.4545 68.4871 44.5033 67.2683C44.552 66.4665 45.51 64.7506 47.978 64.7506C48.7574 64.7506 49.3581 64.8789 50.17 65.344L50.5272 63.3715C49.4231 62.9546 48.6924 62.8904 47.7344 62.9065C44.5033 62.9386 41.402 64.3818 41.0285 67.3325C40.6388 70.3312 44.3409 71.0849 45.9808 71.0689C46.9226 71.0689 47.913 71.0208 48.8385 70.9406L49.212 68.888ZM72.1549 65.1995L72.3497 64.0449L75.3048 63.4034L74.9963 65.1995H76.4414L76.1654 66.3541H74.769L73.9247 70.9404C73.9247 70.9404 71.0832 70.9244 71.067 70.9404L71.9113 66.3701H70.8397L71.0507 65.2155H72.1549V65.1995ZM86.5408 70.9404H83.6506L85.0957 62.9865L87.9047 63.0667L86.5408 70.9404ZM63.0134 66.5787C62.64 66.5787 62.3152 66.691 62.0067 66.9155C61.7145 67.14 61.5196 67.4607 61.4547 67.8937C61.3735 68.3908 61.4222 68.7436 61.6171 68.9681C61.8119 69.1926 62.1042 69.3049 62.4938 69.3049C62.7536 69.3049 63.0134 69.2568 63.2083 69.1606C63.4518 69.0323 63.6142 68.904 63.7603 68.6955C63.9227 68.471 64.0201 68.2305 64.0688 67.9418C64.15 67.4928 64.0851 67.156 63.874 66.9315C63.6629 66.691 63.3869 66.5787 63.0134 66.5787ZM57.8663 72.9131L59.2465 65.2639H61.7307L61.5359 66.2421C61.747 65.9534 62.0879 65.7129 62.5751 65.5205C63.0459 65.328 63.598 65.1837 64.1825 65.1837C64.832 65.1837 65.2217 65.2158 65.7088 65.4724C66.1959 65.7289 66.5206 66.0817 66.7155 66.5628C66.8941 67.0279 66.9428 67.541 66.8454 68.1183C66.683 69.0645 66.2121 69.8021 65.449 70.3474C64.6859 70.8926 64.0039 71.0369 63.0459 71.0369C62.705 71.0369 62.4127 71.0048 62.1691 70.9407C61.9418 70.8765 61.747 70.8124 61.6008 70.7162C61.4709 70.62 61.3248 70.5077 61.13 70.2992L60.6753 72.9131H57.8663ZM109.143 67.2846C109.127 66.8195 108.899 66.5148 108.412 66.5148C107.259 66.5148 106.025 68.7599 105.814 69.6579C107.698 69.6579 109.175 68.5354 109.143 67.2846ZM109.386 70.7964L109.614 70.9408C109.045 72.0793 107.893 72.9934 106.545 72.9934C105.441 72.9934 104.531 72.2718 104.483 70.9087C104.402 68.4712 106.707 66.1941 108.607 66.1941C109.419 66.1941 110.182 66.5469 110.214 67.4128C110.279 69.3532 107.519 69.9465 105.701 69.9946C105.636 70.2031 105.619 70.3955 105.636 70.7163C105.668 71.5181 106.155 72.2076 107.178 72.2076C108.055 72.1756 108.932 71.486 109.386 70.7964Z" fill="white"/>
<path fill-rule="evenodd" clip-rule="evenodd" d="M98.0526 67.2202C98.2475 67.1882 98.5722 67.1561 98.7021 67.1561C98.9132 67.1561 99.108 67.1882 99.108 67.3966C99.108 67.5249 98.897 68.3909 98.8482 68.5833L98.4098 70.5077C98.2312 71.2934 98.0364 72.1113 97.874 72.7688H99.0106L99.6439 69.7379C101.592 67.7494 102.339 67.0919 102.794 67.0919C103.005 67.0919 103.135 67.2042 103.151 67.4447C103.167 67.7975 102.94 68.5993 102.859 68.8239L102.209 71.0368C102.063 71.534 101.95 71.983 101.966 72.3037C101.982 72.7848 102.29 73.0093 102.729 73.0093C103.557 73.0093 104.158 72.1594 104.677 71.3255L104.531 71.0529C104.32 71.3896 103.833 72.1273 103.443 72.1273C103.313 72.1273 103.2 72.0471 103.2 71.8387C103.184 71.5821 103.297 71.1972 103.378 70.9406L104.093 68.3428C104.288 67.6211 104.385 67.1721 104.369 66.9156C104.353 66.4345 104.06 66.21 103.622 66.21C102.875 66.21 101.885 66.7392 99.79 69.1285H99.7575L100.017 67.9739C100.163 67.3325 100.293 66.675 100.439 66.226C99.7088 66.4826 98.6859 66.7712 98.0364 66.8995L98.0526 67.2202Z" fill="white"/>
<path fill-rule="evenodd" clip-rule="evenodd" d="M127.914 61.0811L131.615 64.7818L135.316 61.0811L135.67 61.4356L131.969 65.1364L135.67 68.8371L135.316 69.1917L131.615 65.4909L127.914 69.1917L127.56 68.8371L131.26 65.1364L127.56 61.4356L127.914 61.0811Z" fill="white" stroke="white" stroke-width="1.24651" stroke-linejoin="round"/>
<path fill-rule="evenodd" clip-rule="evenodd" d="M178.804 64.542L187.807 79.7771H169.802L178.804 64.542Z" fill="#C13D3A"/>
<path fill-rule="evenodd" clip-rule="evenodd" d="M153.182 79.7778H161.243L171.248 63.124L174.948 68.9997L178.804 63.124L171.248 50L153.182 79.7778Z" fill="white"/>
<path d="M65.9929 146.652C65.1875 140.835 60.7131 137.46 54.9091 137.46C48.0696 137.46 42.9176 142.446 42.9176 150.909C42.9176 159.359 48.0057 164.358 54.9091 164.358C61.1349 164.358 65.2642 160.331 65.9929 155.332L61.2116 155.307C60.6108 158.375 58.1051 160.101 54.973 160.101C50.7287 160.101 47.6861 156.918 47.6861 150.909C47.6861 145.003 50.7031 141.717 54.9858 141.717C58.169 141.717 60.6619 143.52 61.2116 146.652H65.9929ZM74.3423 164.396C77.4233 164.396 79.2642 162.952 80.1079 161.303H80.2613V164H84.7102V150.858C84.7102 145.668 80.4787 144.108 76.7329 144.108C72.6037 144.108 69.4332 145.949 68.4105 149.528L72.7315 150.142C73.1917 148.8 74.4957 147.649 76.7585 147.649C78.9062 147.649 80.0824 148.749 80.0824 150.679V150.756C80.0824 152.085 78.6889 152.149 75.2244 152.52C71.4148 152.929 67.7713 154.067 67.7713 158.49C67.7713 162.351 70.5966 164.396 74.3423 164.396ZM75.544 160.996C73.6136 160.996 72.2329 160.114 72.2329 158.413C72.2329 156.636 73.7798 155.895 75.8508 155.601C77.0653 155.435 79.4943 155.128 80.0952 154.642V156.956C80.0952 159.142 78.331 160.996 75.544 160.996ZM87.9236 171.364H92.5515V160.906H92.7432C93.4719 162.338 94.9932 164.345 98.3682 164.345C102.996 164.345 106.461 160.676 106.461 154.207C106.461 147.662 102.894 144.108 98.3554 144.108C94.891 144.108 93.4463 146.192 92.7432 147.611H92.4748V144.364H87.9236V171.364ZM92.462 154.182C92.462 150.372 94.0983 147.905 97.077 147.905C100.158 147.905 101.743 150.526 101.743 154.182C101.743 157.864 100.132 160.548 97.077 160.548C94.1239 160.548 92.462 157.991 92.462 154.182ZM108.984 164H113.611V144.364H108.984V164ZM111.31 141.577C112.78 141.577 113.982 140.452 113.982 139.071C113.982 137.678 112.78 136.553 111.31 136.553C109.827 136.553 108.626 137.678 108.626 139.071C108.626 140.452 109.827 141.577 111.31 141.577ZM126.736 144.364H122.862V139.659H118.234V144.364H115.447V147.943H118.234V158.861C118.209 162.555 120.893 164.371 124.371 164.268C125.687 164.23 126.595 163.974 127.094 163.808L126.314 160.19C126.058 160.254 125.534 160.369 124.959 160.369C123.795 160.369 122.862 159.96 122.862 158.094V147.943H126.736V144.364ZM134.817 164.396C137.898 164.396 139.739 162.952 140.582 161.303H140.736V164H145.185V150.858C145.185 145.668 140.953 144.108 137.207 144.108C133.078 144.108 129.908 145.949 128.885 149.528L133.206 150.142C133.666 148.8 134.97 147.649 137.233 147.649C139.381 147.649 140.557 148.749 140.557 150.679V150.756C140.557 152.085 139.163 152.149 135.699 152.52C131.889 152.929 128.246 154.067 128.246 158.49C128.246 162.351 131.071 164.396 134.817 164.396ZM136.018 160.996C134.088 160.996 132.707 160.114 132.707 158.413C132.707 156.636 134.254 155.895 136.325 155.601C137.54 155.435 139.969 155.128 140.57 154.642V156.956C140.57 159.142 138.805 160.996 136.018 160.996ZM153.026 137.818H148.398V164H153.026V137.818ZM187.434 150.909C187.434 142.446 182.269 137.46 175.404 137.46C168.526 137.46 163.374 142.446 163.374 150.909C163.374 159.359 168.526 164.358 175.404 164.358C182.269 164.358 187.434 159.372 187.434 150.909ZM182.665 150.909C182.665 156.866 179.674 160.101 175.404 160.101C171.147 160.101 168.143 156.866 168.143 150.909C168.143 144.952 171.147 141.717 175.404 141.717C179.674 141.717 182.665 144.952 182.665 150.909ZM194.901 152.494C194.901 149.656 196.614 148.02 199.056 148.02C201.447 148.02 202.878 149.592 202.878 152.213V164H207.506V151.497C207.519 146.793 204.834 144.108 200.782 144.108C197.841 144.108 195.822 145.514 194.927 147.7H194.697V144.364H190.273V164H194.901V152.494ZM219.464 164.384C224.041 164.384 227.186 162.146 228.004 158.733L223.683 158.247C223.056 159.909 221.522 160.778 219.528 160.778C216.536 160.778 214.555 158.81 214.517 155.447H228.196V154.028C228.196 147.138 224.053 144.108 219.221 144.108C213.596 144.108 209.927 148.237 209.927 154.297C209.927 160.459 213.545 164.384 219.464 164.384ZM214.529 152.328C214.67 149.822 216.524 147.713 219.285 147.713C221.944 147.713 223.734 149.656 223.759 152.328H214.529Z" fill="white" fill-opacity="0.5"/>
<path d="M65.9929 190.652C65.1875 184.835 60.7131 181.46 54.9091 181.46C48.0696 181.46 42.9176 186.446 42.9176 194.909C42.9176 203.359 48.0057 208.358 54.9091 208.358C61.1349 208.358 65.2642 204.331 65.9929 199.332L61.2116 199.307C60.6108 202.375 58.1051 204.101 54.973 204.101C50.7287 204.101 47.6861 200.918 47.6861 194.909C47.6861 189.003 50.7031 185.717 54.9858 185.717C58.169 185.717 60.6619 187.52 61.2116 190.652H65.9929ZM74.3423 208.396C77.4233 208.396 79.2642 206.952 80.1079 205.303H80.2613V208H84.7102V194.858C84.7102 189.668 80.4787 188.108 76.7329 188.108C72.6037 188.108 69.4332 189.949 68.4105 193.528L72.7315 194.142C73.1917 192.8 74.4957 191.649 76.7585 191.649C78.9062 191.649 80.0824 192.749 80.0824 194.679V194.756C80.0824 196.085 78.6889 196.149 75.2244 196.52C71.4148 196.929 67.7713 198.067 67.7713 202.49C67.7713 206.351 70.5966 208.396 74.3423 208.396ZM75.544 204.996C73.6136 204.996 72.2329 204.114 72.2329 202.413C72.2329 200.636 73.7798 199.895 75.8508 199.601C77.0653 199.435 79.4943 199.128 80.0952 198.642V200.956C80.0952 203.142 78.331 204.996 75.544 204.996ZM87.9236 215.364H92.5515V204.906H92.7432C93.4719 206.338 94.9932 208.345 98.3682 208.345C102.996 208.345 106.461 204.676 106.461 198.207C106.461 191.662 102.894 188.108 98.3554 188.108C94.891 188.108 93.4463 190.192 92.7432 191.611H92.4748V188.364H87.9236V215.364ZM92.462 198.182C92.462 194.372 94.0983 191.905 97.077 191.905C100.158 191.905 101.743 194.526 101.743 198.182C101.743 201.864 100.132 204.548 97.077 204.548C94.1239 204.548 92.462 201.991 92.462 198.182ZM108.984 208H113.611V188.364H108.984V208ZM111.31 185.577C112.78 185.577 113.982 184.452 113.982 183.071C113.982 181.678 112.78 180.553 111.31 180.553C109.827 180.553 108.626 181.678 108.626 183.071C108.626 184.452 109.827 185.577 111.31 185.577ZM126.736 188.364H122.862V183.659H118.234V188.364H115.447V191.943H118.234V202.861C118.209 206.555 120.893 208.371 124.371 208.268C125.687 208.23 126.595 207.974 127.094 207.808L126.314 204.19C126.058 204.254 125.534 204.369 124.959 204.369C123.795 204.369 122.862 203.96 122.862 202.094V191.943H126.736V188.364ZM134.817 208.396C137.898 208.396 139.739 206.952 140.582 205.303H140.736V208H145.185V194.858C145.185 189.668 140.953 188.108 137.207 188.108C133.078 188.108 129.908 189.949 128.885 193.528L133.206 194.142C133.666 192.8 134.97 191.649 137.233 191.649C139.381 191.649 140.557 192.749 140.557 194.679V194.756C140.557 196.085 139.163 196.149 135.699 196.52C131.889 196.929 128.246 198.067 128.246 202.49C128.246 206.351 131.071 208.396 134.817 208.396ZM136.018 204.996C134.088 204.996 132.707 204.114 132.707 202.413C132.707 200.636 134.254 199.895 136.325 199.601C137.54 199.435 139.969 199.128 140.57 198.642V200.956C140.57 203.142 138.805 204.996 136.018 204.996ZM153.026 181.818H148.398V208H153.026V181.818ZM187.434 194.909C187.434 186.446 182.269 181.46 175.404 181.46C168.526 181.46 163.374 186.446 163.374 194.909C163.374 203.359 168.526 208.358 175.404 208.358C182.269 208.358 187.434 203.372 187.434 194.909ZM182.665 194.909C182.665 200.866 179.674 204.101 175.404 204.101C171.147 204.101 168.143 200.866 168.143 194.909C168.143 188.952 171.147 185.717 175.404 185.717C179.674 185.717 182.665 188.952 182.665 194.909ZM194.901 196.494C194.901 193.656 196.614 192.02 199.056 192.02C201.447 192.02 202.878 193.592 202.878 196.213V208H207.506V195.497C207.519 190.793 204.834 188.108 200.782 188.108C197.841 188.108 195.822 189.514 194.927 191.7H194.697V188.364H190.273V208H194.901V196.494ZM219.464 208.384C224.041 208.384 227.186 206.146 228.004 202.733L223.683 202.247C223.056 203.909 221.522 204.778 219.528 204.778C216.536 204.778 214.555 202.81 214.517 199.447H228.196V198.028C228.196 191.138 224.053 188.108 219.221 188.108C213.596 188.108 209.927 192.237 209.927 198.297C209.927 204.459 213.545 208.384 219.464 208.384ZM214.529 196.328C214.67 193.822 216.524 191.713 219.285 191.713C221.944 191.713 223.734 193.656 223.759 196.328H214.529ZM241.727 208L243.888 201.544H253.731L255.905 208H260.967L251.737 181.818H245.882L236.665 208H241.727ZM245.166 197.734L248.707 187.188H248.912L252.453 197.734H245.166ZM262.771 215.364H267.399V204.906H267.591C268.319 206.338 269.841 208.345 273.216 208.345C277.844 208.345 281.308 204.676 281.308 198.207C281.308 191.662 277.741 188.108 273.203 188.108C269.738 188.108 268.294 190.192 267.591 191.611H267.322V188.364H262.771V215.364ZM267.309 198.182C267.309 194.372 268.946 191.905 271.925 191.905C275.005 191.905 276.591 194.526 276.591 198.182C276.591 201.864 274.98 204.548 271.925 204.548C268.971 204.548 267.309 201.991 267.309 198.182ZM292.524 208.384C297.101 208.384 300.246 206.146 301.064 202.733L296.743 202.247C296.117 203.909 294.583 204.778 292.588 204.778C289.597 204.778 287.615 202.81 287.577 199.447H301.256V198.028C301.256 191.138 297.114 188.108 292.281 188.108C286.656 188.108 282.987 192.237 282.987 198.297C282.987 204.459 286.605 208.384 292.524 208.384ZM287.59 196.328C287.73 193.822 289.584 191.713 292.345 191.713C295.004 191.713 296.794 193.656 296.82 196.328H287.59ZM307.128 188.364H302.219L308.049 198.182L302.066 208H306.975L311.091 200.93L315.246 208H320.117L314.096 198.182L320.015 188.364H315.118L311.091 195.612L307.128 188.364Z" fill="white"/>
</svg>
