<svg width="440" height="365" viewBox="0 0 440 365" fill="none" xmlns="http://www.w3.org/2000/svg">
<rect width="440" height="365" rx="8" fill="#004977"/>
<path d="M47.5327 305.295H45.5064L41.2876 320.969H43.3139L47.5327 305.295ZM52.1363 319H54.5078V314.577H57.0135C60.0369 314.577 61.6605 312.761 61.6605 310.243C61.6605 307.744 60.0561 305.909 57.0454 305.909H52.1363V319ZM54.5078 312.627V307.891H56.6811C58.4581 307.891 59.2443 308.849 59.2443 310.243C59.2443 311.636 58.4581 312.627 56.6939 312.627H54.5078ZM62.8981 319H65.212V313.228C65.212 311.982 66.1516 311.099 67.4236 311.099C67.8135 311.099 68.2993 311.17 68.4975 311.234V309.105C68.2866 309.067 67.9222 309.041 67.6665 309.041C66.5415 309.041 65.6019 309.68 65.2439 310.818H65.1417V309.182H62.8981V319ZM73.1932 319.192C76.0696 319.192 77.8977 317.165 77.8977 314.129C77.8977 311.087 76.0696 309.054 73.1932 309.054C70.3167 309.054 68.4886 311.087 68.4886 314.129C68.4886 317.165 70.3167 319.192 73.1932 319.192ZM73.2059 317.338C71.6143 317.338 70.8345 315.919 70.8345 314.123C70.8345 312.327 71.6143 310.888 73.2059 310.888C74.772 310.888 75.5518 312.327 75.5518 314.123C75.5518 315.919 74.772 317.338 73.2059 317.338ZM79.1417 309.182V319.531C79.1417 320.355 78.7901 320.796 77.9016 320.796C77.7865 320.796 77.6971 320.79 77.5692 320.783V322.669C77.7354 322.682 77.876 322.682 78.0422 322.682C80.2091 322.682 81.4556 321.685 81.4556 319.562V309.182H79.1417ZM80.2922 307.788C81.0273 307.788 81.6282 307.226 81.6282 306.536C81.6282 305.839 81.0273 305.276 80.2922 305.276C79.5507 305.276 78.9499 305.839 78.9499 306.536C78.9499 307.226 79.5507 307.788 80.2922 307.788ZM87.4616 319.192C89.75 319.192 91.3224 318.073 91.7315 316.366L89.571 316.124C89.2578 316.955 88.4907 317.389 87.4936 317.389C85.9978 317.389 85.0071 316.405 84.9879 314.724H91.8274V314.014C91.8274 310.569 89.7563 309.054 87.3402 309.054C84.5277 309.054 82.6931 311.119 82.6931 314.148C82.6931 317.229 84.5021 319.192 87.4616 319.192ZM84.9943 313.164C85.0646 311.911 85.9914 310.857 87.3721 310.857C88.7017 310.857 89.5965 311.828 89.6093 313.164H84.9943ZM97.3476 319.192C99.8149 319.192 101.387 317.728 101.554 315.644H99.3419C99.1438 316.699 98.3831 317.306 97.3668 317.306C95.9222 317.306 94.9889 316.098 94.9889 314.091C94.9889 312.109 95.9414 310.92 97.3668 310.92C98.479 310.92 99.1629 311.636 99.3419 312.582H101.554C101.394 310.454 99.7318 309.054 97.3348 309.054C94.4584 309.054 92.6431 311.131 92.6431 314.129C92.6431 317.102 94.4137 319.192 97.3476 319.192ZM107.636 309.182H105.7V306.83H103.386V309.182H101.992V310.972H103.386V316.43C103.373 318.278 104.715 319.185 106.454 319.134C107.112 319.115 107.566 318.987 107.815 318.904L107.425 317.095C107.298 317.127 107.035 317.185 106.748 317.185C106.166 317.185 105.7 316.98 105.7 316.047V310.972H107.636V309.182ZM110.277 319.141C111.031 319.141 111.677 318.514 111.683 317.734C111.677 316.967 111.031 316.341 110.277 316.341C109.497 316.341 108.864 316.967 108.871 317.734C108.864 318.514 109.497 319.141 110.277 319.141ZM110.277 312.129C111.031 312.129 111.677 311.502 111.683 310.722C111.677 309.955 111.031 309.329 110.277 309.329C109.497 309.329 108.864 309.955 108.871 310.722C108.864 311.502 109.497 312.129 110.277 312.129ZM122.396 305.909H120.14L116.886 307.999V310.173L119.948 308.217H120.025V319H122.396V305.909ZM130.209 322.682C132.011 322.682 133.053 321.755 133.609 320.189L137.553 309.195L135.079 309.182L132.81 316.597H132.708L130.445 309.182H127.99L131.551 319.205L131.353 319.735C130.924 320.854 130.247 320.93 129.237 320.636L128.7 322.439C129.013 322.567 129.576 322.682 130.209 322.682ZM142.452 319.192C144.74 319.192 146.312 318.073 146.721 316.366L144.561 316.124C144.248 316.955 143.481 317.389 142.484 317.389C140.988 317.389 139.997 316.405 139.978 314.724H146.817V314.014C146.817 310.569 144.746 309.054 142.33 309.054C139.518 309.054 137.683 311.119 137.683 314.148C137.683 317.229 139.492 319.192 142.452 319.192ZM139.984 313.164C140.055 311.911 140.981 310.857 142.362 310.857C143.692 310.857 144.587 311.828 144.599 313.164H139.984ZM150.88 319.198C152.421 319.198 153.341 318.476 153.763 317.651H153.84V319H156.064V312.429C156.064 309.834 153.948 309.054 152.076 309.054C150.011 309.054 148.426 309.974 147.914 311.764L150.075 312.071C150.305 311.4 150.957 310.825 152.088 310.825C153.162 310.825 153.75 311.374 153.75 312.339V312.378C153.75 313.043 153.054 313.075 151.321 313.26C149.416 313.464 147.595 314.033 147.595 316.245C147.595 318.175 149.007 319.198 150.88 319.198ZM151.481 317.498C150.516 317.498 149.826 317.057 149.826 316.207C149.826 315.318 150.599 314.947 151.634 314.8C152.242 314.717 153.456 314.564 153.757 314.321V315.478C153.757 316.571 152.875 317.498 151.481 317.498ZM157.671 319H159.985V313.228C159.985 311.982 160.924 311.099 162.196 311.099C162.586 311.099 163.072 311.17 163.27 311.234V309.105C163.059 309.067 162.695 309.041 162.439 309.041C161.314 309.041 160.375 309.68 160.017 310.818H159.914V309.182H157.671V319Z" fill="white" fill-opacity="0.5"/>
<path d="M186.533 305.295H184.506L180.288 320.969H182.314L186.533 305.295ZM190.561 307.897H194.607V319H196.96V307.897H201.006V305.909H190.561V307.897ZM205.12 319.192C207.408 319.192 208.98 318.073 209.39 316.366L207.229 316.124C206.916 316.955 206.149 317.389 205.152 317.389C203.656 317.389 202.665 316.405 202.646 314.724H209.485V314.014C209.485 310.569 207.414 309.054 204.998 309.054C202.186 309.054 200.351 311.119 200.351 314.148C200.351 317.229 202.16 319.192 205.12 319.192ZM202.652 313.164C202.723 311.911 203.649 310.857 205.03 310.857C206.36 310.857 207.255 311.828 207.267 313.164H202.652ZM213.548 319.198C215.089 319.198 216.009 318.476 216.431 317.651H216.508V319H218.732V312.429C218.732 309.834 216.616 309.054 214.744 309.054C212.679 309.054 211.094 309.974 210.582 311.764L212.743 312.071C212.973 311.4 213.625 310.825 214.756 310.825C215.83 310.825 216.418 311.374 216.418 312.339V312.378C216.418 313.043 215.722 313.075 213.989 313.26C212.084 313.464 210.263 314.033 210.263 316.245C210.263 318.175 211.675 319.198 213.548 319.198ZM214.149 317.498C213.184 317.498 212.494 317.057 212.494 316.207C212.494 315.318 213.267 314.947 214.303 314.8C214.91 314.717 216.124 314.564 216.425 314.321V315.478C216.425 316.571 215.543 317.498 214.149 317.498ZM220.339 319H222.653V313.03C222.653 311.822 223.458 311.004 224.455 311.004C225.433 311.004 226.105 311.662 226.105 312.672V319H228.374V312.876C228.374 311.771 229.032 311.004 230.151 311.004C231.084 311.004 231.825 311.553 231.825 312.768V319H234.146V312.41C234.146 310.217 232.88 309.054 231.078 309.054C229.652 309.054 228.565 309.757 228.131 310.85H228.029C227.651 309.738 226.699 309.054 225.376 309.054C224.059 309.054 223.075 309.732 222.666 310.85H222.551V309.182H220.339V319ZM246.735 309.508H249.017C248.972 307.296 247.086 305.73 244.299 305.73C241.551 305.73 239.486 307.277 239.492 309.591C239.492 311.47 240.828 312.55 242.983 313.107L244.472 313.49C245.885 313.848 246.818 314.289 246.824 315.305C246.818 316.424 245.757 317.172 244.21 317.172C242.727 317.172 241.576 316.507 241.48 315.133H239.147C239.243 317.734 241.18 319.198 244.229 319.198C247.367 319.198 249.189 317.632 249.196 315.325C249.189 313.055 247.316 312.02 245.348 311.553L244.12 311.246C243.046 310.991 241.883 310.537 241.896 309.444C241.902 308.46 242.784 307.737 244.267 307.737C245.68 307.737 246.613 308.396 246.735 309.508ZM250.488 319H252.801V309.182H250.488V319ZM251.651 307.788C252.386 307.788 252.987 307.226 252.987 306.536C252.987 305.839 252.386 305.276 251.651 305.276C250.909 305.276 250.309 305.839 250.309 306.536C250.309 307.226 250.909 307.788 251.651 307.788ZM254.333 319H262.393V317.082H257.408V316.999L262.227 310.761V309.182H254.499V311.099H259.396V311.183L254.333 317.53V319ZM267.914 319.192C270.202 319.192 271.774 318.073 272.184 316.366L270.023 316.124C269.71 316.955 268.943 317.389 267.946 317.389C266.45 317.389 265.459 316.405 265.44 314.724H272.279V314.014C272.279 310.569 270.208 309.054 267.792 309.054C264.98 309.054 263.145 311.119 263.145 314.148C263.145 317.229 264.954 319.192 267.914 319.192ZM265.446 313.164C265.517 311.911 266.443 310.857 267.824 310.857C269.154 310.857 270.049 311.828 270.061 313.164H265.446ZM274.942 319.141C275.697 319.141 276.342 318.514 276.349 317.734C276.342 316.967 275.697 316.341 274.942 316.341C274.163 316.341 273.53 316.967 273.536 317.734C273.53 318.514 274.163 319.141 274.942 319.141ZM274.942 312.129C275.697 312.129 276.342 311.502 276.349 310.722C276.342 309.955 275.697 309.329 274.942 309.329C274.163 309.329 273.53 309.955 273.536 310.722C273.53 311.502 274.163 312.129 274.942 312.129ZM287.062 305.909H284.805L281.552 307.999V310.173L284.613 308.217H284.69V319H287.062V305.909ZM294.504 319.249C297.662 319.256 299.547 316.763 299.547 312.467C299.547 308.197 297.649 305.73 294.504 305.73C291.359 305.73 289.467 308.191 289.461 312.467C289.461 316.756 291.346 319.249 294.504 319.249ZM294.504 317.249C292.874 317.249 291.851 315.612 291.858 312.467C291.864 309.348 292.881 307.705 294.504 307.705C296.134 307.705 297.15 309.348 297.157 312.467C297.157 315.612 296.141 317.249 294.504 317.249Z" fill="white" fill-opacity="0.5"/>
<path fill-rule="evenodd" clip-rule="evenodd" d="M87.9704 70.5396C85.0153 72.6082 81.5243 74.7731 77.7736 77.0503L77.6274 77.1304C77.5787 77.1625 77.5625 77.2267 77.595 77.2908C77.6274 77.3389 77.6924 77.3549 77.7573 77.3229L77.8872 77.2587C81.0697 75.623 84.7392 73.6666 88.4088 71.6621C88.425 71.6461 88.4413 71.6461 88.4737 71.63C88.2627 71.2933 88.0841 70.9244 87.9704 70.5396ZM107.325 55.0645C102.681 49.997 72.7888 54.5513 60.0752 57.2935L59.783 57.3576C59.718 57.3737 59.6855 57.4218 59.6855 57.4859C59.7018 57.5501 59.7505 57.5821 59.8154 57.5821L60.1077 57.518C70.6293 55.6738 92.533 53.108 97.258 57.7265C98.7031 59.1376 98.3458 60.9497 96.6897 63.0825C97.5827 63.6598 98.2322 64.5579 98.5245 65.6804C105.019 61.3987 109.387 57.3256 107.325 55.0645Z" fill="#A12830"/>
<path fill-rule="evenodd" clip-rule="evenodd" d="M89.8532 69.2082C89.9182 70.9882 91.0548 72.4475 92.5486 72.4475C95.4388 72.4475 96.6565 68.9516 96.5753 66.6103C96.5104 64.8303 95.3413 63.371 93.8638 63.371C91.3633 63.371 89.772 66.8509 89.8532 69.2082ZM88.3269 69.1118C88.2133 66.0649 90.6326 62.9699 94.1398 62.9699C96.4779 62.9699 98.0204 64.5094 98.1016 66.8667C98.2153 70.074 95.9583 73.0086 92.2888 73.0086C89.9506 73.0086 88.4081 71.4691 88.3269 69.1118ZM55.1547 68.3102C55.0248 68.3583 54.8624 68.4064 54.6676 68.4385C54.4727 68.4866 54.0993 68.5508 53.5797 68.6309C53.2225 68.6951 52.9627 68.7592 52.8166 68.8715C52.6704 68.9677 52.5893 69.096 52.573 69.2403C52.5405 69.4007 52.5893 69.529 52.7354 69.6252C52.8815 69.7214 53.1088 69.7695 53.4336 69.7695C53.6771 69.7695 53.9207 69.7374 54.1642 69.6572C54.4078 69.5771 54.6026 69.4808 54.765 69.3526C54.8787 69.2563 54.9599 69.1281 55.0248 68.9837C55.041 68.8715 55.0898 68.647 55.1547 68.3102ZM58.2073 66.4336C58.191 66.7062 58.1423 66.9627 58.0774 67.3797L57.5578 70.2341C57.5091 70.4907 57.6065 70.6831 57.8501 70.8275L57.8338 70.9397H54.8787L54.8462 70.2181C54.4241 70.4747 53.9045 70.6831 53.4336 70.8114C52.9627 70.9237 52.5893 70.9878 52.021 70.9878C51.063 70.9878 50.5272 70.8916 50.1537 70.5709C49.764 70.2341 49.5854 70.0096 49.6017 69.5446C49.6179 69.272 49.7478 68.9352 49.9589 68.6947C50.17 68.4541 50.446 68.2938 50.7383 68.1494C51.0468 68.0051 51.404 67.9089 51.9236 67.8287C52.4431 67.7485 53.1738 67.6683 54.148 67.5882C54.6514 67.5401 54.9761 67.4278 55.1223 67.3797C55.3333 67.2995 55.3983 67.2193 55.4308 67.059C55.4795 66.7703 55.3983 66.5939 54.9924 66.5137C53.9369 66.3053 51.9398 66.642 50.9169 66.8986L51.4689 65.4072C52.8166 65.2148 54.0993 65.0865 55.4308 65.0865C57.5416 65.0705 58.2235 65.6638 58.2073 66.4336ZM66.748 70.9399L67.7709 65.2311H70.5961L69.5732 70.9399H66.748ZM67.9332 63.916C68.0144 63.451 68.7613 63.0661 69.6056 63.0661C70.45 63.0661 71.0507 63.451 70.9695 63.916C70.8884 64.3811 70.1252 64.7659 69.2971 64.7659C68.4528 64.7659 67.8358 64.3811 67.9332 63.916ZM80.6306 68.326C80.5007 68.3741 80.3383 68.4223 80.1435 68.4543C79.9486 68.5024 79.5752 68.5666 79.0393 68.6468C78.6821 68.7109 78.4223 68.775 78.2762 68.8873C78.1463 68.9835 78.0651 69.1118 78.0327 69.2561C78.0002 69.4165 78.0651 69.5448 78.195 69.641C78.3412 69.7372 78.5685 69.7853 78.9095 69.7853C79.153 69.7853 79.3966 69.7533 79.6401 69.6731C79.8837 69.5929 80.0785 69.4967 80.2409 69.3684C80.3545 69.2722 80.4357 69.1439 80.4844 68.9996C80.5169 68.8873 80.5656 68.6628 80.6306 68.326ZM83.6669 66.4497C83.6507 66.7223 83.602 66.9789 83.5208 67.3958L83.0174 70.2503C82.9687 70.5068 83.0662 70.6993 83.3097 70.8436L83.2935 70.9398H80.3383L80.3221 70.2182C79.8837 70.4748 79.3641 70.6832 78.9095 70.8115C78.4386 70.9398 78.0652 70.9879 77.4969 70.9879C76.5389 70.9879 76.0031 70.8917 75.6296 70.571C75.2399 70.2342 75.0613 70.0097 75.0776 69.5447C75.0938 69.2721 75.2237 68.9353 75.4348 68.6948C75.6459 68.4542 75.9219 68.2939 76.2141 68.1495C76.5226 68.0052 76.8799 67.909 77.3994 67.8128C77.919 67.7326 78.6497 67.6524 79.6239 67.5722C80.1273 67.5241 80.4358 67.4119 80.5819 67.3638C80.793 67.2836 80.8742 67.2034 80.9066 67.027C80.9553 66.7383 80.8579 66.5619 80.4682 66.4818C79.3966 66.2733 77.4157 66.6101 76.3928 66.8666L76.9448 65.3753C78.3087 65.1828 79.559 65.0546 80.9066 65.0546C83.0012 65.0866 83.6832 65.68 83.6669 66.4497ZM49.212 68.8872C48.2865 69.0636 47.7831 69.1438 46.8739 69.1438C45.5262 69.1438 44.4545 68.4863 44.5033 67.2676C44.552 66.4658 45.51 64.7499 47.978 64.7499C48.7574 64.7499 49.3581 64.8782 50.17 65.3432L50.5272 63.3708C49.4231 62.9539 48.6924 62.8897 47.7344 62.9057C44.5033 62.9378 41.402 64.3811 41.0285 67.3317C40.6388 70.3305 44.3409 71.0842 45.9808 71.0682C46.9226 71.0682 47.913 71.0201 48.8385 70.9399L49.212 68.8872ZM72.1549 65.1987L72.3497 64.0441L75.3048 63.4027L74.9963 65.1987H76.4414L76.1654 66.3533H74.769L73.9247 70.9397C73.9247 70.9397 71.0832 70.9236 71.067 70.9397L71.9113 66.3694H70.8397L71.0507 65.2148H72.1549V65.1987ZM86.5408 70.9397H83.6506L85.0957 62.9858L87.9047 63.0659L86.5408 70.9397ZM63.0134 66.578C62.64 66.578 62.3152 66.6903 62.0067 66.9148C61.7145 67.1393 61.5196 67.46 61.4547 67.893C61.3735 68.3901 61.4222 68.7429 61.6171 68.9674C61.8119 69.1919 62.1042 69.3041 62.4938 69.3041C62.7536 69.3041 63.0134 69.256 63.2083 69.1598C63.4518 69.0315 63.6142 68.9032 63.7603 68.6948C63.9227 68.4703 64.0201 68.2297 64.0688 67.9411C64.15 67.4921 64.0851 67.1553 63.874 66.9308C63.6629 66.6903 63.3869 66.578 63.0134 66.578ZM57.8663 72.9124L59.2465 65.2632H61.7307L61.5359 66.2414C61.747 65.9527 62.0879 65.7122 62.5751 65.5197C63.0459 65.3273 63.598 65.183 64.1825 65.183C64.832 65.183 65.2217 65.215 65.7088 65.4716C66.1959 65.7282 66.5206 66.081 66.7155 66.5621C66.8941 67.0271 66.9428 67.5403 66.8454 68.1176C66.683 69.0637 66.2121 69.8014 65.449 70.3466C64.6859 70.8918 64.0039 71.0362 63.0459 71.0362C62.705 71.0362 62.4127 71.0041 62.1691 70.94C61.9418 70.8758 61.747 70.8117 61.6008 70.7155C61.4709 70.6192 61.3248 70.507 61.13 70.2985L60.6753 72.9124H57.8663ZM109.143 67.2838C109.127 66.8188 108.899 66.5141 108.412 66.5141C107.259 66.5141 106.025 68.7592 105.814 69.6572C107.698 69.6572 109.175 68.5346 109.143 67.2838ZM109.386 70.7957L109.614 70.94C109.045 72.0786 107.893 72.9927 106.545 72.9927C105.441 72.9927 104.531 72.271 104.483 70.908C104.402 68.4705 106.707 66.1933 108.607 66.1933C109.419 66.1933 110.182 66.5461 110.214 67.4121C110.279 69.3525 107.519 69.9458 105.701 69.9939C105.636 70.2024 105.619 70.3948 105.636 70.7155C105.668 71.5173 106.155 72.2069 107.178 72.2069C108.055 72.1748 108.932 71.4853 109.386 70.7957Z" fill="white"/>
<path fill-rule="evenodd" clip-rule="evenodd" d="M98.0536 67.2195C98.2485 67.1874 98.5732 67.1554 98.7031 67.1554C98.9142 67.1554 99.109 67.1874 99.109 67.3959C99.109 67.5242 98.8979 68.3901 98.8492 68.5826L98.4108 70.5069C98.2322 71.2927 98.0374 72.1105 97.875 72.768H99.0116L99.6448 69.7372C101.593 67.7487 102.34 67.0912 102.795 67.0912C103.006 67.0912 103.136 67.2035 103.152 67.444C103.168 67.7968 102.941 68.5986 102.86 68.8231L102.21 71.0361C102.064 71.5332 101.95 71.9822 101.967 72.303C101.983 72.7841 102.291 73.0086 102.73 73.0086C103.558 73.0086 104.159 72.1586 104.678 71.3248L104.532 71.0522C104.321 71.3889 103.834 72.1266 103.444 72.1266C103.314 72.1266 103.201 72.0464 103.201 71.8379C103.184 71.5813 103.298 71.1965 103.379 70.9399L104.094 68.342C104.289 67.6204 104.386 67.1714 104.37 66.9148C104.354 66.4337 104.061 66.2092 103.623 66.2092C102.876 66.2092 101.886 66.7384 99.791 69.1278H99.7585L100.018 67.9732C100.164 67.3318 100.294 66.6743 100.44 66.2253C99.7098 66.4818 98.6869 66.7705 98.0374 66.8988L98.0536 67.2195Z" fill="white"/>
<path fill-rule="evenodd" clip-rule="evenodd" d="M127.913 61.0808L131.614 64.7816L135.315 61.0808L135.669 61.4354L131.968 65.1361L135.669 68.8369L135.315 69.1914L131.614 65.4907L127.913 69.1914L127.559 68.8369L131.259 65.1361L127.559 61.4354L127.913 61.0808Z" fill="white" stroke="white" stroke-width="1.24651" stroke-linejoin="round"/>
<path fill-rule="evenodd" clip-rule="evenodd" d="M178.803 64.5425L187.806 79.7776H169.801L178.803 64.5425Z" fill="#C13D3A"/>
<path fill-rule="evenodd" clip-rule="evenodd" d="M153.182 79.7778H161.243L171.248 63.124L174.948 68.9997L178.804 63.124L171.248 50L153.182 79.7778Z" fill="white"/>
<path d="M65.9929 146.652C65.1875 140.835 60.7131 137.46 54.9091 137.46C48.0696 137.46 42.9176 142.446 42.9176 150.909C42.9176 159.359 48.0057 164.358 54.9091 164.358C61.1349 164.358 65.2642 160.331 65.9929 155.332L61.2116 155.307C60.6108 158.375 58.1051 160.101 54.973 160.101C50.7287 160.101 47.6861 156.918 47.6861 150.909C47.6861 145.003 50.7031 141.717 54.9858 141.717C58.169 141.717 60.6619 143.52 61.2116 146.652H65.9929ZM74.3423 164.396C77.4233 164.396 79.2642 162.952 80.1079 161.303H80.2613V164H84.7102V150.858C84.7102 145.668 80.4787 144.108 76.7329 144.108C72.6037 144.108 69.4332 145.949 68.4105 149.528L72.7315 150.142C73.1917 148.8 74.4957 147.649 76.7585 147.649C78.9062 147.649 80.0824 148.749 80.0824 150.679V150.756C80.0824 152.085 78.6889 152.149 75.2244 152.52C71.4148 152.929 67.7713 154.067 67.7713 158.49C67.7713 162.351 70.5966 164.396 74.3423 164.396ZM75.544 160.996C73.6136 160.996 72.2329 160.114 72.2329 158.413C72.2329 156.636 73.7798 155.895 75.8508 155.601C77.0653 155.435 79.4943 155.128 80.0952 154.642V156.956C80.0952 159.142 78.331 160.996 75.544 160.996ZM87.9236 171.364H92.5515V160.906H92.7432C93.4719 162.338 94.9932 164.345 98.3682 164.345C102.996 164.345 106.461 160.676 106.461 154.207C106.461 147.662 102.894 144.108 98.3554 144.108C94.891 144.108 93.4463 146.192 92.7432 147.611H92.4748V144.364H87.9236V171.364ZM92.462 154.182C92.462 150.372 94.0983 147.905 97.077 147.905C100.158 147.905 101.743 150.526 101.743 154.182C101.743 157.864 100.132 160.548 97.077 160.548C94.1239 160.548 92.462 157.991 92.462 154.182ZM108.984 164H113.611V144.364H108.984V164ZM111.31 141.577C112.78 141.577 113.982 140.452 113.982 139.071C113.982 137.678 112.78 136.553 111.31 136.553C109.827 136.553 108.626 137.678 108.626 139.071C108.626 140.452 109.827 141.577 111.31 141.577ZM126.736 144.364H122.862V139.659H118.234V144.364H115.447V147.943H118.234V158.861C118.209 162.555 120.893 164.371 124.371 164.268C125.687 164.23 126.595 163.974 127.094 163.808L126.314 160.19C126.058 160.254 125.534 160.369 124.959 160.369C123.795 160.369 122.862 159.96 122.862 158.094V147.943H126.736V144.364ZM134.817 164.396C137.898 164.396 139.739 162.952 140.582 161.303H140.736V164H145.185V150.858C145.185 145.668 140.953 144.108 137.207 144.108C133.078 144.108 129.908 145.949 128.885 149.528L133.206 150.142C133.666 148.8 134.97 147.649 137.233 147.649C139.381 147.649 140.557 148.749 140.557 150.679V150.756C140.557 152.085 139.163 152.149 135.699 152.52C131.889 152.929 128.246 154.067 128.246 158.49C128.246 162.351 131.071 164.396 134.817 164.396ZM136.018 160.996C134.088 160.996 132.707 160.114 132.707 158.413C132.707 156.636 134.254 155.895 136.325 155.601C137.54 155.435 139.969 155.128 140.57 154.642V156.956C140.57 159.142 138.805 160.996 136.018 160.996ZM153.026 137.818H148.398V164H153.026V137.818ZM187.434 150.909C187.434 142.446 182.269 137.46 175.404 137.46C168.526 137.46 163.374 142.446 163.374 150.909C163.374 159.359 168.526 164.358 175.404 164.358C182.269 164.358 187.434 159.372 187.434 150.909ZM182.665 150.909C182.665 156.866 179.674 160.101 175.404 160.101C171.147 160.101 168.143 156.866 168.143 150.909C168.143 144.952 171.147 141.717 175.404 141.717C179.674 141.717 182.665 144.952 182.665 150.909ZM194.901 152.494C194.901 149.656 196.614 148.02 199.056 148.02C201.447 148.02 202.878 149.592 202.878 152.213V164H207.506V151.497C207.519 146.793 204.834 144.108 200.782 144.108C197.841 144.108 195.822 145.514 194.927 147.7H194.697V144.364H190.273V164H194.901V152.494ZM219.464 164.384C224.041 164.384 227.186 162.146 228.004 158.733L223.683 158.247C223.056 159.909 221.522 160.778 219.528 160.778C216.536 160.778 214.555 158.81 214.517 155.447H228.196V154.028C228.196 147.138 224.053 144.108 219.221 144.108C213.596 144.108 209.927 148.237 209.927 154.297C209.927 160.459 213.545 164.384 219.464 164.384ZM214.529 152.328C214.67 149.822 216.524 147.713 219.285 147.713C221.944 147.713 223.734 149.656 223.759 152.328H214.529Z" fill="white" fill-opacity="0.5"/>
<path d="M65.9929 190.652C65.1875 184.835 60.7131 181.46 54.9091 181.46C48.0696 181.46 42.9176 186.446 42.9176 194.909C42.9176 203.359 48.0057 208.358 54.9091 208.358C61.1349 208.358 65.2642 204.331 65.9929 199.332L61.2116 199.307C60.6108 202.375 58.1051 204.101 54.973 204.101C50.7287 204.101 47.6861 200.918 47.6861 194.909C47.6861 189.003 50.7031 185.717 54.9858 185.717C58.169 185.717 60.6619 187.52 61.2116 190.652H65.9929ZM74.3423 208.396C77.4233 208.396 79.2642 206.952 80.1079 205.303H80.2613V208H84.7102V194.858C84.7102 189.668 80.4787 188.108 76.7329 188.108C72.6037 188.108 69.4332 189.949 68.4105 193.528L72.7315 194.142C73.1917 192.8 74.4957 191.649 76.7585 191.649C78.9062 191.649 80.0824 192.749 80.0824 194.679V194.756C80.0824 196.085 78.6889 196.149 75.2244 196.52C71.4148 196.929 67.7713 198.067 67.7713 202.49C67.7713 206.351 70.5966 208.396 74.3423 208.396ZM75.544 204.996C73.6136 204.996 72.2329 204.114 72.2329 202.413C72.2329 200.636 73.7798 199.895 75.8508 199.601C77.0653 199.435 79.4943 199.128 80.0952 198.642V200.956C80.0952 203.142 78.331 204.996 75.544 204.996ZM87.9236 215.364H92.5515V204.906H92.7432C93.4719 206.338 94.9932 208.345 98.3682 208.345C102.996 208.345 106.461 204.676 106.461 198.207C106.461 191.662 102.894 188.108 98.3554 188.108C94.891 188.108 93.4463 190.192 92.7432 191.611H92.4748V188.364H87.9236V215.364ZM92.462 198.182C92.462 194.372 94.0983 191.905 97.077 191.905C100.158 191.905 101.743 194.526 101.743 198.182C101.743 201.864 100.132 204.548 97.077 204.548C94.1239 204.548 92.462 201.991 92.462 198.182ZM108.984 208H113.611V188.364H108.984V208ZM111.31 185.577C112.78 185.577 113.982 184.452 113.982 183.071C113.982 181.678 112.78 180.553 111.31 180.553C109.827 180.553 108.626 181.678 108.626 183.071C108.626 184.452 109.827 185.577 111.31 185.577ZM126.736 188.364H122.862V183.659H118.234V188.364H115.447V191.943H118.234V202.861C118.209 206.555 120.893 208.371 124.371 208.268C125.687 208.23 126.595 207.974 127.094 207.808L126.314 204.19C126.058 204.254 125.534 204.369 124.959 204.369C123.795 204.369 122.862 203.96 122.862 202.094V191.943H126.736V188.364ZM134.817 208.396C137.898 208.396 139.739 206.952 140.582 205.303H140.736V208H145.185V194.858C145.185 189.668 140.953 188.108 137.207 188.108C133.078 188.108 129.908 189.949 128.885 193.528L133.206 194.142C133.666 192.8 134.97 191.649 137.233 191.649C139.381 191.649 140.557 192.749 140.557 194.679V194.756C140.557 196.085 139.163 196.149 135.699 196.52C131.889 196.929 128.246 198.067 128.246 202.49C128.246 206.351 131.071 208.396 134.817 208.396ZM136.018 204.996C134.088 204.996 132.707 204.114 132.707 202.413C132.707 200.636 134.254 199.895 136.325 199.601C137.54 199.435 139.969 199.128 140.57 198.642V200.956C140.57 203.142 138.805 204.996 136.018 204.996ZM153.026 181.818H148.398V208H153.026V181.818ZM187.434 194.909C187.434 186.446 182.269 181.46 175.404 181.46C168.526 181.46 163.374 186.446 163.374 194.909C163.374 203.359 168.526 208.358 175.404 208.358C182.269 208.358 187.434 203.372 187.434 194.909ZM182.665 194.909C182.665 200.866 179.674 204.101 175.404 204.101C171.147 204.101 168.143 200.866 168.143 194.909C168.143 188.952 171.147 185.717 175.404 185.717C179.674 185.717 182.665 188.952 182.665 194.909ZM194.901 196.494C194.901 193.656 196.614 192.02 199.056 192.02C201.447 192.02 202.878 193.592 202.878 196.213V208H207.506V195.497C207.519 190.793 204.834 188.108 200.782 188.108C197.841 188.108 195.822 189.514 194.927 191.7H194.697V188.364H190.273V208H194.901V196.494ZM219.464 208.384C224.041 208.384 227.186 206.146 228.004 202.733L223.683 202.247C223.056 203.909 221.522 204.778 219.528 204.778C216.536 204.778 214.555 202.81 214.517 199.447H228.196V198.028C228.196 191.138 224.053 188.108 219.221 188.108C213.596 188.108 209.927 192.237 209.927 198.297C209.927 204.459 213.545 208.384 219.464 208.384ZM214.529 196.328C214.67 193.822 216.524 191.713 219.285 191.713C221.944 191.713 223.734 193.656 223.759 196.328H214.529ZM241.727 208L243.888 201.544H253.731L255.905 208H260.967L251.737 181.818H245.882L236.665 208H241.727ZM245.166 197.734L248.707 187.188H248.912L252.453 197.734H245.166ZM262.771 215.364H267.399V204.906H267.591C268.319 206.338 269.841 208.345 273.216 208.345C277.844 208.345 281.308 204.676 281.308 198.207C281.308 191.662 277.741 188.108 273.203 188.108C269.738 188.108 268.294 190.192 267.591 191.611H267.322V188.364H262.771V215.364ZM267.309 198.182C267.309 194.372 268.946 191.905 271.925 191.905C275.005 191.905 276.591 194.526 276.591 198.182C276.591 201.864 274.98 204.548 271.925 204.548C268.971 204.548 267.309 201.991 267.309 198.182ZM292.524 208.384C297.101 208.384 300.246 206.146 301.064 202.733L296.743 202.247C296.117 203.909 294.583 204.778 292.588 204.778C289.597 204.778 287.615 202.81 287.577 199.447H301.256V198.028C301.256 191.138 297.114 188.108 292.281 188.108C286.656 188.108 282.987 192.237 282.987 198.297C282.987 204.459 286.605 208.384 292.524 208.384ZM287.59 196.328C287.73 193.822 289.584 191.713 292.345 191.713C295.004 191.713 296.794 193.656 296.82 196.328H287.59ZM307.128 188.364H302.219L308.049 198.182L302.066 208H306.975L311.091 200.93L315.246 208H320.117L314.096 198.182L320.015 188.364H315.118L311.091 195.612L307.128 188.364Z" fill="white"/>
</svg>
