<svg width="147" height="30" viewBox="0 0 147 30" fill="none" xmlns="http://www.w3.org/2000/svg">
<path fill-rule="evenodd" clip-rule="evenodd" d="M46.9694 20.5396C44.0143 22.6082 40.5233 24.7731 36.7726 27.0503L36.6265 27.1304C36.5777 27.1625 36.5615 27.2267 36.594 27.2908C36.6265 27.3389 36.6914 27.3549 36.7563 27.3229L36.8862 27.2587C40.0687 25.623 43.7383 23.6666 47.4078 21.6621C47.4241 21.6461 47.4403 21.6461 47.4728 21.63C47.2617 21.2933 47.0831 20.9244 46.9694 20.5396ZM66.3239 5.06445C61.6801 -0.0029757 31.7878 4.5513 19.0743 7.29348L18.782 7.35762C18.717 7.37366 18.6846 7.42177 18.6846 7.48591C18.7008 7.55006 18.7495 7.58213 18.8145 7.58213L19.1067 7.51799C29.6283 5.67383 51.532 3.10804 56.257 7.72646C57.7021 9.13764 57.3449 10.9497 55.6887 13.0825C56.5817 13.6598 57.2312 14.5579 57.5235 15.6804C64.0183 11.3987 68.386 7.32555 66.3239 5.06445Z" fill="#A12830"/>
<path fill-rule="evenodd" clip-rule="evenodd" d="M48.8532 19.2082C48.9182 20.9882 50.0548 22.4475 51.5486 22.4475C54.4388 22.4475 55.6565 18.9516 55.5753 16.6103C55.5104 14.8303 54.3413 13.371 52.8638 13.371C50.3633 13.371 48.772 16.8509 48.8532 19.2082ZM47.3269 19.1118C47.2133 16.0649 49.6326 12.9699 53.1398 12.9699C55.4779 12.9699 57.0204 14.5094 57.1016 16.8667C57.2153 20.074 54.9583 23.0086 51.2888 23.0086C48.9506 23.0086 47.4081 21.4691 47.3269 19.1118ZM14.1547 18.3102C14.0248 18.3583 13.8624 18.4064 13.6676 18.4385C13.4727 18.4866 13.0993 18.5508 12.5797 18.6309C12.2225 18.6951 11.9627 18.7592 11.8166 18.8715C11.6704 18.9677 11.5893 19.096 11.573 19.2403C11.5405 19.4007 11.5893 19.529 11.7354 19.6252C11.8815 19.7214 12.1088 19.7695 12.4336 19.7695C12.6771 19.7695 12.9207 19.7374 13.1642 19.6572C13.4078 19.5771 13.6026 19.4808 13.765 19.3526C13.8787 19.2563 13.9599 19.1281 14.0248 18.9837C14.041 18.8715 14.0898 18.647 14.1547 18.3102ZM17.2073 16.4336C17.191 16.7062 17.1423 16.9627 17.0774 17.3797L16.5578 20.2341C16.5091 20.4907 16.6065 20.6831 16.8501 20.8275L16.8338 20.9397H13.8787L13.8462 20.2181C13.4241 20.4747 12.9045 20.6831 12.4336 20.8114C11.9627 20.9237 11.5893 20.9878 11.021 20.9878C10.063 20.9878 9.52718 20.8916 9.15373 20.5709C8.76404 20.2341 8.58543 20.0096 8.60167 19.5446C8.61791 19.272 8.7478 18.9352 8.95888 18.6947C9.16996 18.4541 9.44599 18.2938 9.73826 18.1494C10.0468 18.0051 10.404 17.9089 10.9236 17.8287C11.4431 17.7485 12.1738 17.6683 13.148 17.5882C13.6514 17.5401 13.9761 17.4278 14.1223 17.3797C14.3333 17.2995 14.3983 17.2193 14.4308 17.059C14.4795 16.7703 14.3983 16.5939 13.9924 16.5137C12.9369 16.3053 10.9398 16.642 9.91687 16.8986L10.4689 15.4072C11.8166 15.2148 13.0993 15.0865 14.4308 15.0865C16.5416 15.0705 17.2235 15.6638 17.2073 16.4336ZM25.748 20.9399L26.7709 15.2311H29.5961L28.5732 20.9399H25.748ZM26.9332 13.916C27.0144 13.451 27.7613 13.0661 28.6056 13.0661C29.45 13.0661 30.0507 13.451 29.9695 13.916C29.8884 14.3811 29.1252 14.7659 28.2971 14.7659C27.4528 14.7659 26.8358 14.3811 26.9332 13.916ZM39.6306 18.326C39.5007 18.3741 39.3383 18.4223 39.1435 18.4543C38.9486 18.5024 38.5752 18.5666 38.0393 18.6468C37.6821 18.7109 37.4223 18.775 37.2762 18.8873C37.1463 18.9835 37.0651 19.1118 37.0327 19.2561C37.0002 19.4165 37.0651 19.5448 37.195 19.641C37.3412 19.7372 37.5685 19.7853 37.9095 19.7853C38.153 19.7853 38.3966 19.7533 38.6401 19.6731C38.8837 19.5929 39.0785 19.4967 39.2409 19.3684C39.3545 19.2722 39.4357 19.1439 39.4844 18.9996C39.5169 18.8873 39.5656 18.6628 39.6306 18.326ZM42.6669 16.4497C42.6507 16.7223 42.602 16.9789 42.5208 17.3958L42.0174 20.2503C41.9687 20.5068 42.0662 20.6993 42.3097 20.8436L42.2935 20.9398H39.3383L39.3221 20.2182C38.8837 20.4748 38.3641 20.6832 37.9095 20.8115C37.4386 20.9398 37.0652 20.9879 36.4969 20.9879C35.5389 20.9879 35.0031 20.8917 34.6296 20.571C34.2399 20.2342 34.0613 20.0097 34.0776 19.5447C34.0938 19.2721 34.2237 18.9353 34.4348 18.6948C34.6459 18.4542 34.9219 18.2939 35.2141 18.1495C35.5226 18.0052 35.8799 17.909 36.3994 17.8128C36.919 17.7326 37.6497 17.6524 38.6239 17.5722C39.1273 17.5241 39.4358 17.4119 39.5819 17.3638C39.793 17.2836 39.8742 17.2034 39.9066 17.027C39.9553 16.7383 39.8579 16.5619 39.4682 16.4818C38.3966 16.2733 36.4157 16.6101 35.3928 16.8666L35.9448 15.3753C37.3087 15.1828 38.559 15.0546 39.9066 15.0546C42.0012 15.0866 42.6832 15.68 42.6669 16.4497ZM8.21199 18.8872C7.28648 19.0636 6.78313 19.1438 5.87386 19.1438C4.52619 19.1438 3.45454 18.4863 3.50326 17.2676C3.55197 16.4658 4.50995 14.7499 6.97797 14.7499C7.75735 14.7499 8.35812 14.8782 9.16997 15.3432L9.52718 13.3708C8.42307 12.9539 7.6924 12.8897 6.73442 12.9057C3.50326 12.9378 0.401989 14.3811 0.0285378 17.3317C-0.36115 20.3305 3.34089 21.0842 4.98082 21.0682C5.92257 21.0682 6.91303 21.0201 7.83854 20.9399L8.21199 18.8872ZM31.1549 15.1987L31.3497 14.0441L34.3048 13.4027L33.9963 15.1987H35.4414L35.1654 16.3533H33.769L32.9247 20.9397C32.9247 20.9397 30.0832 20.9236 30.067 20.9397L30.9113 16.3694H29.8397L30.0507 15.2148H31.1549V15.1987ZM45.5408 20.9397H42.6506L44.0957 12.9858L46.9047 13.0659L45.5408 20.9397ZM22.0134 16.578C21.64 16.578 21.3152 16.6903 21.0067 16.9148C20.7145 17.1393 20.5196 17.46 20.4547 17.893C20.3735 18.3901 20.4222 18.7429 20.6171 18.9674C20.8119 19.1919 21.1042 19.3041 21.4938 19.3041C21.7536 19.3041 22.0134 19.256 22.2083 19.1598C22.4518 19.0315 22.6142 18.9032 22.7603 18.6948C22.9227 18.4703 23.0201 18.2297 23.0688 17.9411C23.15 17.4921 23.0851 17.1553 22.874 16.9308C22.6629 16.6903 22.3869 16.578 22.0134 16.578ZM16.8663 22.9124L18.2465 15.2632H20.7307L20.5359 16.2414C20.747 15.9527 21.0879 15.7122 21.5751 15.5197C22.0459 15.3273 22.598 15.183 23.1825 15.183C23.832 15.183 24.2217 15.215 24.7088 15.4716C25.1959 15.7282 25.5206 16.081 25.7155 16.5621C25.8941 17.0271 25.9428 17.5403 25.8454 18.1176C25.683 19.0637 25.2121 19.8014 24.449 20.3466C23.6859 20.8918 23.0039 21.0362 22.0459 21.0362C21.705 21.0362 21.4127 21.0041 21.1691 20.94C20.9418 20.8758 20.747 20.8117 20.6008 20.7155C20.4709 20.6192 20.3248 20.507 20.13 20.2985L19.6753 22.9124H16.8663ZM68.1428 17.2838C68.1265 16.8188 67.8992 16.5141 67.4121 16.5141C66.2593 16.5141 65.0253 18.7592 64.8142 19.6572C66.6977 19.6572 68.1753 18.5346 68.1428 17.2838ZM68.3863 20.7957L68.6136 20.94C68.0453 22.0786 66.8925 22.9927 65.5448 22.9927C64.4407 22.9927 63.5314 22.271 63.4827 20.908C63.4015 18.4705 65.7072 16.1933 67.6069 16.1933C68.4188 16.1933 69.1819 16.5461 69.2144 17.4121C69.2793 19.3525 66.5191 19.9458 64.7005 19.9939C64.6356 20.2024 64.6193 20.3948 64.6356 20.7155C64.668 21.5173 65.1551 22.2069 66.1781 22.2069C67.0549 22.1748 67.9317 21.4853 68.3863 20.7957Z" fill="white"/>
<path fill-rule="evenodd" clip-rule="evenodd" d="M57.0526 17.2195C57.2475 17.1874 57.5722 17.1554 57.7021 17.1554C57.9132 17.1554 58.108 17.1874 58.108 17.3959C58.108 17.5242 57.897 18.3901 57.8482 18.5826L57.4098 20.5069C57.2312 21.2927 57.0364 22.1105 56.874 22.768H58.0106L58.6439 19.7372C60.5923 17.7487 61.3392 17.0912 61.7938 17.0912C62.0049 17.0912 62.1348 17.2035 62.151 17.444C62.1673 17.7968 61.94 18.5986 61.8588 18.8231L61.2093 21.0361C61.0632 21.5332 60.9495 21.9822 60.9657 22.303C60.982 22.7841 61.2905 23.0086 61.7289 23.0086C62.557 23.0086 63.1577 22.1586 63.6773 21.3248L63.5312 21.0522C63.3201 21.3889 62.833 22.1266 62.4433 22.1266C62.3134 22.1266 62.1998 22.0464 62.1998 21.8379C62.1835 21.5813 62.2972 21.1965 62.3784 20.9399L63.0928 18.342C63.2876 17.6204 63.3851 17.1714 63.3688 16.9148C63.3526 16.4337 63.0603 16.2092 62.6219 16.2092C61.875 16.2092 60.8846 16.7384 58.79 19.1278H58.7575L59.0173 17.9732C59.1634 17.3318 59.2933 16.6743 59.4395 16.2253C58.7088 16.4818 57.6859 16.7705 57.0364 16.8988L57.0526 17.2195Z" fill="white"/>
<path fill-rule="evenodd" clip-rule="evenodd" d="M86.9141 11.0808L90.6149 14.7816L94.3156 11.0808L94.6702 11.4354L90.9695 15.1361L94.6702 18.8369L94.3156 19.1914L90.6149 15.4907L86.9141 19.1914L86.5596 18.8369L90.2603 15.1361L86.5596 11.4354L86.9141 11.0808Z" fill="white" stroke="white" stroke-width="1.24651" stroke-linejoin="round"/>
<path fill-rule="evenodd" clip-rule="evenodd" d="M137.804 14.5425L146.807 29.7776H128.802L137.804 14.5425Z" fill="#C13D3A"/>
<path fill-rule="evenodd" clip-rule="evenodd" d="M112.182 29.7778H120.243L130.248 13.124L133.948 18.9997L137.804 13.124L130.248 0L112.182 29.7778Z" fill="white"/>
</svg>
