<?xml version="1.0" encoding="UTF-8"?>
<svg width="104px" height="104px" viewBox="0 0 104 104" version="1.1" xmlns="http://www.w3.org/2000/svg" xmlns:xlink="http://www.w3.org/1999/xlink">
    <!-- Generator: Sketch 40.1 (33804) - http://www.bohemiancoding.com/sketch -->
    <title>mental_models</title>
    <desc>Created with Sketch.</desc>
    <defs></defs>
    <g id="icons" stroke="none" stroke-width="1" fill="none" fill-rule="evenodd">
        <g id="mental_models" transform="translate(2.000000, 2.000000)">
            <circle id="Oval-43-Copy-8" stroke="#51A6FA" stroke-width="3" cx="50" cy="50" r="50"></circle>
            <g id="Mental-Model" transform="translate(20.000000, 14.000000)" fill="#51A6FA">
                <path d="M59.0571429,36.7714286 C59.5714286,35.8285714 59.8285714,34.8857143 59.8285714,33.7714286 C59.8285714,32.3142857 59.3142857,30.9428571 58.3714286,29.8285714 C58.8,28.9714286 59.0571429,28.0285714 59.0571429,27 C59.0571429,25.8857143 58.7142857,24.7714286 58.2,23.8285714 C58.2857143,23.4 58.3714286,22.9714286 58.3714286,22.4571429 C58.3714286,20.5714286 57.5142857,18.8571429 56.0571429,17.7428571 C56.1428571,17.3142857 56.2285714,16.8857143 56.2285714,16.5428571 C56.2285714,14.7428571 55.3714286,13.0285714 54,11.9142857 C53.9142857,9.42857143 52.2857143,7.2 49.9714286,6.42857143 C49.1142857,3.85714286 46.6285714,2.14285714 43.8857143,2.4 C42.7714286,0.942857143 41.1428571,0.171428571 39.2571429,0.171428571 C38.6571429,0.171428571 37.9714286,0.257142857 37.3714286,0.514285714 C36.7714286,0.342857143 36.1714286,0.171428571 35.4857143,0.171428571 C33.1714286,0.171428571 31.0285714,2.4 30.1714286,4.54285714 C30.0857143,4.54285714 30.0857143,4.62857143 30,4.62857143 C29.9142857,4.62857143 29.9142857,4.54285714 29.8285714,4.54285714 C28.8857143,2.4 26.8285714,0.171428571 24.5142857,0.171428571 C23.9142857,0.171428571 23.2285714,0.257142857 22.6285714,0.514285714 C22.0285714,0.342857143 21.4285714,0.171428571 20.7428571,0.171428571 C18.9428571,0.171428571 17.2285714,1.02857143 16.1142857,2.4 C13.3714286,2.14285714 10.8857143,3.85714286 10.0285714,6.42857143 C7.71428571,7.2 6.08571429,9.42857143 6,11.9142857 C4.62857143,13.0285714 3.77142857,14.7428571 3.77142857,16.5428571 C3.77142857,16.9714286 3.85714286,17.4 3.94285714,17.7428571 C2.48571429,18.8571429 1.62857143,20.5714286 1.62857143,22.4571429 C1.62857143,22.8857143 1.71428571,23.4 1.8,23.8285714 C1.2,24.7714286 0.942857143,25.8857143 0.942857143,27 C0.942857143,28.0285714 1.2,28.9714286 1.62857143,29.8285714 C0.685714286,30.9428571 0.171428571,32.3142857 0.171428571,33.7714286 C0.171428571,34.8 0.428571429,35.8285714 0.942857143,36.7714286 C0.428571429,37.7142857 0.171428571,38.6571429 0.171428571,39.7714286 C0.171428571,40.8857143 0.514285714,42 1.02857143,42.9428571 C0.942857143,43.3714286 0.857142857,43.8 0.857142857,44.3142857 C0.857142857,45.5142857 1.2,46.7142857 1.88571429,47.6571429 C1.71428571,48.2571429 1.54285714,48.8571429 1.54285714,49.5428571 C1.54285714,51.4285714 2.4,53.1428571 3.85714286,54.2571429 C4.02857143,55.1142857 4.28571429,55.9714286 4.8,56.6571429 C4.62857143,57.2571429 4.45714286,57.8571429 4.45714286,58.5428571 C4.45714286,60.7714286 5.65714286,62.7428571 7.62857143,63.7714286 C8.31428571,66.3428571 10.5428571,68.1428571 13.1142857,68.1428571 C13.9714286,69.2571429 15.2571429,70.0285714 16.6285714,70.2857143 C17.7428571,71.3142857 19.1142857,71.9142857 20.6571429,71.9142857 C21.7714286,71.9142857 22.8,71.5714286 23.7428571,70.9714286 C24.1714286,71.0571429 24.6,71.1428571 25.0285714,71.1428571 C26.8285714,71.1428571 28.5428571,69.4285714 29.6571429,68.0571429 L30.0857143,68.0571429 C31.2,69.5142857 32.8285714,71.1428571 34.7142857,71.1428571 C35.1428571,71.1428571 35.5714286,71.0571429 36,70.9714286 C36.9428571,71.5714286 37.9714286,71.9142857 39.0857143,71.9142857 C40.6285714,71.9142857 42,71.3142857 43.1142857,70.2857143 C44.4857143,70.0285714 45.7714286,69.2571429 46.6285714,68.1428571 C49.2857143,68.0571429 51.5142857,66.2571429 52.1142857,63.7714286 C54.0857143,62.7428571 55.2857143,60.7714286 55.2857143,58.5428571 C55.2857143,57.9428571 55.2,57.2571429 54.9428571,56.6571429 C55.4571429,55.9714286 55.8,55.1142857 55.8857143,54.2571429 C57.3428571,53.1428571 58.2,51.4285714 58.2,49.5428571 C58.2,48.9428571 58.1142857,48.2571429 57.8571429,47.6571429 C58.5428571,46.6285714 58.8857143,45.5142857 58.8857143,44.3142857 C58.8857143,43.8857143 58.8,43.3714286 58.7142857,42.9428571 C59.3142857,42 59.5714286,40.8857143 59.5714286,39.7714286 C59.8285714,38.6571429 59.5714286,37.6285714 59.0571429,36.7714286 L59.0571429,36.7714286 Z M56.9142857,37.3714286 C57.4285714,38.0571429 57.6857143,38.8285714 57.6857143,39.6857143 C57.6857143,40.5428571 57.4285714,41.3142857 56.9142857,42 L56.5714286,42.5142857 L56.7428571,43.0285714 C56.9142857,43.4571429 56.9142857,43.8 56.9142857,44.2285714 C56.9142857,45.1714286 56.5714286,46.0285714 55.9714286,46.7142857 L55.5428571,47.2285714 L55.8,47.8285714 C56.0571429,48.3428571 56.1428571,48.8571429 56.1428571,49.4571429 C56.1428571,50.7428571 55.4571429,51.9428571 54.4285714,52.6285714 L54,52.8857143 L54,53.4 C53.9142857,54.2571429 53.6571429,55.0285714 53.0571429,55.6285714 L52.6285714,56.1428571 L52.8857143,56.7428571 C53.1428571,57.2571429 53.2285714,57.7714286 53.2285714,58.3714286 C53.2285714,59.9142857 52.2857143,61.2857143 50.9142857,61.8857143 L50.3142857,62.1428571 L50.2285714,62.7428571 C49.9714286,64.6285714 48.4285714,65.9142857 46.5428571,65.9142857 L46.2857143,65.9142857 L45.6,65.8285714 L45.2571429,66.3428571 C44.6571429,67.2857143 43.6285714,67.9714286 42.5142857,68.0571429 L42.0857143,68.1428571 L41.8285714,68.4 C41.1428571,69.1714286 40.1142857,69.6 39.0857143,69.6 C38.2285714,69.6 37.4571429,69.3428571 36.8571429,68.8285714 L36.5142857,68.5714286 L36,68.7428571 C34.3714286,69.2571429 32.1428571,67.5428571 31.2,66.1714286 L31.2,64.5428571 L31.2,62.4 L31.2857143,62.3142857 L37.2,56.4 L43.5428571,56.4 C43.7142857,56.7428571 43.8857143,57.0857143 44.2285714,57.4285714 C44.7428571,57.9428571 45.5142857,58.2857143 46.2857143,58.2857143 C47.0571429,58.2857143 47.8285714,57.9428571 48.3428571,57.4285714 C48.8571429,56.9142857 49.2,56.1428571 49.2,55.3714286 C49.2,54.6 48.8571429,53.8285714 48.3428571,53.3142857 C47.8285714,52.8 47.0571429,52.4571429 46.2857143,52.4571429 C45,52.4571429 43.9714286,53.2285714 43.5428571,54.3428571 L36.9428571,54.3428571 C36.6,54.2571429 36.2571429,54.3428571 36.0857143,54.6 L31.1142857,59.5714286 L31.1142857,52.6285714 C31.2,52.5428571 31.2857143,52.5428571 31.3714286,52.4571429 L37.9714286,45.8571429 L49.0285714,45.8571429 C49.2,46.2 49.3714286,46.5428571 49.7142857,46.8857143 C50.2285714,47.4 51,47.7428571 51.7714286,47.7428571 C52.5428571,47.7428571 53.3142857,47.4 53.8285714,46.8857143 C54.3428571,46.3714286 54.6857143,45.6 54.6857143,44.8285714 C54.6857143,44.0571429 54.3428571,43.2857143 53.8285714,42.7714286 C53.3142857,42.2571429 52.5428571,41.9142857 51.7714286,41.9142857 C50.4857143,41.9142857 49.4571429,42.6857143 49.0285714,43.8 L40.0285714,43.8 L45.8571429,37.9714286 C46.1142857,37.7142857 46.2,37.4571429 46.1142857,37.2 L46.1142857,37.0285714 L46.1142857,31.7142857 L50.4857143,27.3428571 C50.8285714,27.5142857 51.2571429,27.6 51.6857143,27.6 C52.4571429,27.6 53.2285714,27.2571429 53.7428571,26.7428571 C54.2571429,26.2285714 54.6,25.4571429 54.6,24.6857143 C54.6,23.9142857 54.2571429,23.1428571 53.7428571,22.6285714 C53.2285714,22.1142857 52.4571429,21.7714286 51.6857143,21.7714286 C50.9142857,21.7714286 50.1428571,22.1142857 49.6285714,22.6285714 C48.7714286,23.4857143 48.5142857,24.8571429 49.0285714,25.8857143 L46.1142857,28.8 L46.1142857,19.2 L46.1142857,19.2 C46.4571429,19.0285714 46.8,18.8571429 47.0571429,18.6 C47.5714286,18.0857143 47.9142857,17.3142857 47.9142857,16.5428571 C47.9142857,15.7714286 47.5714286,15 47.0571429,14.4857143 C46.5428571,13.9714286 45.7714286,13.6285714 45,13.6285714 C44.2285714,13.6285714 43.4571429,13.9714286 42.9428571,14.4857143 C42.4285714,15 42.0857143,15.7714286 42.0857143,16.5428571 C42.0857143,17.7428571 42.8571429,18.7714286 43.8857143,19.2 C43.8857143,19.2 43.8857143,19.2 43.8857143,19.2857143 L43.8857143,28.8 L41.1428571,25.8 C41.6571429,24.6857143 41.4857143,23.4 40.5428571,22.5428571 C40.0285714,22.0285714 39.2571429,21.6857143 38.4857143,21.6857143 C37.7142857,21.6857143 36.9428571,22.0285714 36.4285714,22.5428571 C35.9142857,23.0571429 35.5714286,23.8285714 35.5714286,24.6 C35.5714286,25.3714286 35.9142857,26.1428571 36.4285714,26.6571429 C36.9428571,27.1714286 37.7142857,27.5142857 38.4857143,27.5142857 C38.9142857,27.5142857 39.2571429,27.4285714 39.6857143,27.2571429 L44.0571429,31.6285714 L44.0571429,36.8571429 L38.3142857,42.6 L38.3142857,37.9714286 C38.6571429,37.8 39,37.6285714 39.3428571,37.2857143 C39.8571429,36.7714286 40.2,36 40.2,35.2285714 C40.2,34.4571429 39.8571429,33.6857143 39.3428571,33.1714286 C38.8285714,32.6571429 38.0571429,32.3142857 37.2857143,32.3142857 C36.5142857,32.3142857 35.7428571,32.6571429 35.2285714,33.1714286 C34.7142857,33.6857143 34.3714286,34.4571429 34.3714286,35.2285714 C34.3714286,36.5142857 35.1428571,37.5428571 36.2571429,37.9714286 L36.2571429,44.6571429 L31.2,49.7142857 L31.2,42.8571429 L31.2,18.6857143 L35.5714286,14.3142857 C35.9142857,14.4857143 36.3428571,14.5714286 36.7714286,14.5714286 C37.5428571,14.5714286 38.3142857,14.2285714 38.8285714,13.7142857 C39.3428571,13.2 39.6857143,12.4285714 39.6857143,11.6571429 C39.6857143,10.8857143 39.3428571,10.1142857 38.8285714,9.6 C38.3142857,9.08571429 37.5428571,8.74285714 36.7714286,8.74285714 C36,8.74285714 35.2285714,9.08571429 34.7142857,9.6 C33.8571429,10.4571429 33.6,11.8285714 34.1142857,12.8571429 L30.0857143,16.8857143 L26.0571429,12.8571429 C26.5714286,11.7428571 26.4,10.4571429 25.4571429,9.6 C24.9428571,9.08571429 24.1714286,8.74285714 23.4,8.74285714 C22.6285714,8.74285714 21.8571429,9.08571429 21.3428571,9.6 C20.8285714,10.1142857 20.4857143,10.8857143 20.4857143,11.6571429 C20.4857143,12.4285714 20.8285714,13.2 21.3428571,13.7142857 C21.8571429,14.2285714 22.6285714,14.5714286 23.4,14.5714286 C23.8285714,14.5714286 24.1714286,14.4857143 24.6,14.3142857 L28.9714286,18.6857143 L28.9714286,40.6285714 L21.5142857,33.1714286 L21.5142857,26.9142857 C21.8571429,26.7428571 22.2,26.5714286 22.5428571,26.2285714 C23.0571429,25.7142857 23.4,24.9428571 23.4,24.1714286 C23.4,23.4 23.0571429,22.6285714 22.5428571,22.1142857 C22.0285714,21.6 21.2571429,21.2571429 20.4857143,21.2571429 C19.7142857,21.2571429 18.9428571,21.6 18.4285714,22.1142857 C17.9142857,22.6285714 17.5714286,23.4 17.5714286,24.1714286 C17.5714286,25.4571429 18.3428571,26.4857143 19.4571429,26.9142857 L19.4571429,31.1142857 L13.3714286,25.1142857 L13.3714286,19.1142857 C13.7142857,18.9428571 14.0571429,18.7714286 14.4,18.4285714 C14.9142857,17.9142857 15.2571429,17.1428571 15.2571429,16.3714286 C15.2571429,15.6 14.9142857,14.8285714 14.4,14.3142857 C13.8857143,13.8 13.1142857,13.4571429 12.3428571,13.4571429 C11.5714286,13.4571429 10.8,13.8 10.2857143,14.3142857 C9.77142857,14.8285714 9.42857143,15.6 9.42857143,16.3714286 C9.42857143,17.6571429 10.2,18.6857143 11.3142857,19.1142857 L11.3142857,25.8 C11.3142857,26.2285714 11.5714286,26.5714286 11.9142857,26.7428571 L17.8285714,32.6571429 L13.8,32.6571429 C13.3714286,31.5428571 12.3428571,30.7714286 11.0571429,30.7714286 C10.2857143,30.7714286 9.51428571,31.1142857 9,31.6285714 C8.48571429,32.1428571 8.14285714,32.9142857 8.14285714,33.6857143 C8.14285714,34.4571429 8.48571429,35.2285714 9,35.7428571 C9.51428571,36.2571429 10.2857143,36.6 11.0571429,36.6 C11.8285714,36.6 12.6,36.2571429 13.1142857,35.7428571 C13.3714286,35.4857143 13.6285714,35.1428571 13.8,34.7142857 L19.9714286,34.7142857 L28.9714286,43.7142857 L28.9714286,59.4857143 L24.3428571,54.8571429 L24.3428571,48.5142857 C24.6857143,48.3428571 25.0285714,48.1714286 25.3714286,47.8285714 C25.8857143,47.3142857 26.2285714,46.5428571 26.2285714,45.7714286 C26.2285714,45 25.8857143,44.2285714 25.3714286,43.7142857 C24.8571429,43.2 24.0857143,42.8571429 23.3142857,42.8571429 C22.5428571,42.8571429 21.7714286,43.2 21.2571429,43.7142857 C20.7428571,44.2285714 20.4,45 20.4,45.7714286 C20.4,47.0571429 21.1714286,48.0857143 22.2857143,48.5142857 L22.2857143,52.7142857 L14.9142857,45.4285714 C15.0857143,45.0857143 15.1714286,44.6571429 15.1714286,44.2285714 C15.1714286,42.6 13.8857143,41.3142857 12.2571429,41.3142857 C10.6285714,41.3142857 9.34285714,42.6 9.34285714,44.2285714 C9.34285714,45.8571429 10.6285714,47.1428571 12.2571429,47.1428571 C12.6857143,47.1428571 13.1142857,47.0571429 13.4571429,46.8857143 L20.8285714,54.1714286 L16.6285714,54.1714286 C16.2,53.0571429 15.1714286,52.2857143 13.8857143,52.2857143 C13.1142857,52.2857143 12.3428571,52.6285714 11.8285714,53.1428571 C11.3142857,53.6571429 10.9714286,54.4285714 10.9714286,55.2 C10.9714286,55.9714286 11.3142857,56.7428571 11.8285714,57.2571429 C12.3428571,57.7714286 13.1142857,58.1142857 13.8857143,58.1142857 C14.6571429,58.1142857 15.4285714,57.7714286 15.9428571,57.2571429 C16.2,57 16.4571429,56.6571429 16.6285714,56.2285714 L22.9714286,56.2285714 L29.0571429,62.3142857 L29.0571429,64.3714286 L29.0571429,66 C28.2,67.4571429 25.8,69.1714286 24.0857143,68.5714286 L23.4857143,68.5714286 L23.0571429,68.9142857 C22.3714286,69.4285714 21.6,69.6857143 20.8285714,69.6857143 C19.8,69.6857143 18.8571429,69.2571429 18.0857143,68.4857143 L17.8285714,68.2285714 L17.4,68.1428571 C16.2857143,68.0571429 15.2571429,67.3714286 14.6571429,66.4285714 L14.3142857,65.9142857 L13.7142857,65.9142857 L13.4571429,65.9142857 C11.6571429,65.9142857 10.1142857,64.5428571 9.77142857,62.7428571 L9.68571429,62.1428571 L9.08571429,61.8857143 C7.62857143,61.2857143 6.77142857,59.9142857 6.77142857,58.3714286 C6.77142857,57.8571429 6.85714286,57.2571429 7.11428571,56.7428571 L7.37142857,56.1428571 L6.94285714,55.7142857 C6.42857143,55.1142857 6.08571429,54.3428571 6,53.4857143 L6,52.9714286 L5.57142857,52.7142857 C4.45714286,52.0285714 3.85714286,50.8285714 3.85714286,49.5428571 C3.85714286,49.0285714 3.94285714,48.4285714 4.2,47.9142857 L4.45714286,47.3142857 L4.02857143,46.8 C3.42857143,46.1142857 3.08571429,45.2571429 3.08571429,44.3142857 C3.08571429,43.8857143 3.17142857,43.5428571 3.25714286,43.1142857 L3.42857143,42.6 L3.08571429,42 C2.57142857,41.3142857 2.31428571,40.5428571 2.31428571,39.6857143 C2.31428571,38.8285714 2.57142857,38.0571429 3.08571429,37.3714286 L3.6,36.6857143 L3.08571429,36 C2.57142857,35.3142857 2.31428571,34.5428571 2.31428571,33.6857143 C2.31428571,32.5714286 2.82857143,31.4571429 3.68571429,30.7714286 L4.45714286,30.0857143 L3.85714286,29.2285714 C3.34285714,28.5428571 3.08571429,27.7714286 3.08571429,26.9142857 C3.08571429,26.0571429 3.34285714,25.2857143 3.85714286,24.6 L4.2,24.1714286 L4.02857143,23.6571429 C3.85714286,23.2285714 3.85714286,22.8857143 3.85714286,22.4571429 C3.85714286,21.0857143 4.62857143,19.8 5.82857143,19.1142857 L6.6,18.6857143 L6.25714286,17.8285714 C6.08571429,17.4 6,16.9714286 6,16.4571429 C6,15.1714286 6.68571429,13.9714286 7.71428571,13.2857143 L8.22857143,12.9428571 L8.14285714,12.3428571 L8.14285714,12.0857143 C8.14285714,10.2857143 9.34285714,8.74285714 11.0571429,8.4 L11.7428571,8.22857143 L11.9142857,7.54285714 C12.3428571,5.57142857 14.3142857,4.2 16.3714286,4.62857143 L17.1428571,4.8 L17.5714286,4.11428571 C18.2571429,3 19.4571429,2.31428571 20.7428571,2.31428571 C21.2571429,2.31428571 21.6857143,2.4 22.2,2.57142857 L22.6285714,2.74285714 L23.0571429,2.57142857 C23.4857143,2.4 24,2.31428571 24.5142857,2.31428571 C26.0571429,2.31428571 27.5142857,4.2 28.0285714,5.74285714 L28.2,6.25714286 L28.7142857,6.42857143 C28.9714286,6.51428571 29.2285714,6.68571429 29.4857143,6.77142857 L30.0857143,7.11428571 L30.6857143,6.77142857 C30.9428571,6.6 31.2,6.51428571 31.4571429,6.42857143 L31.9714286,6.25714286 L32.1428571,5.74285714 C32.6571429,4.2 34.1142857,2.31428571 35.6571429,2.31428571 C36.1714286,2.31428571 36.6,2.4 37.1142857,2.57142857 L37.5428571,2.74285714 L37.9714286,2.57142857 C38.4,2.4 38.9142857,2.31428571 39.4285714,2.31428571 C40.7142857,2.31428571 41.9142857,3 42.6,4.11428571 L43.0285714,4.8 L43.8,4.62857143 C45.9428571,4.11428571 47.8285714,5.57142857 48.2571429,7.54285714 L48.4285714,8.22857143 L49.1142857,8.4 C50.8285714,8.74285714 52.0285714,10.2857143 52.0285714,12.0857143 L52.0285714,12.3428571 L51.9428571,12.9428571 L52.4571429,13.2857143 C53.5714286,13.9714286 54.1714286,15.1714286 54.1714286,16.4571429 C54.1714286,16.8857143 54.0857143,17.3142857 53.9142857,17.8285714 L53.5714286,18.6857143 L54.3428571,19.1142857 C55.5428571,19.8 56.3142857,21.0857143 56.3142857,22.4571429 C56.3142857,22.8857143 56.2285714,23.2285714 56.1428571,23.6571429 L55.9714286,24.1714286 L56.3142857,24.6 C56.8285714,25.2857143 57.0857143,26.0571429 57.0857143,26.9142857 C57.0857143,27.7714286 56.8285714,28.5428571 56.3142857,29.2285714 L55.7142857,30.0857143 L56.4857143,30.7714286 C57.3428571,31.4571429 57.8571429,32.5714286 57.8571429,33.6857143 C57.8571429,34.5428571 57.6,35.3142857 57.0857143,36 L56.5714286,36.6857143 L56.9142857,37.3714286 L56.9142857,37.3714286 Z M45.0857143,55.2857143 C45.0857143,54.6 45.6857143,54 46.3714286,54 C46.7142857,54 47.0571429,54.1714286 47.2285714,54.3428571 C47.4857143,54.6 47.5714286,54.8571429 47.5714286,55.2 C47.5714286,55.8857143 46.9714286,56.4857143 46.2857143,56.4857143 C45.9428571,56.4857143 45.6,56.3142857 45.4285714,56.1428571 C45.2571429,55.9714286 45.0857143,55.7142857 45.0857143,55.2857143 L45.0857143,55.2857143 Z M35.9142857,35.3142857 C35.9142857,34.9714286 36.0857143,34.6285714 36.2571429,34.4571429 C36.5142857,34.2 36.7714286,34.1142857 37.1142857,34.1142857 C37.8,34.1142857 38.4,34.7142857 38.4,35.4 C38.4,35.7428571 38.2285714,36.0857143 38.0571429,36.2571429 C37.8,36.5142857 37.5428571,36.6 37.2,36.6 C36.5142857,36.6 35.9142857,36 35.9142857,35.3142857 L35.9142857,35.3142857 Z M50.5714286,44.7428571 C50.5714286,44.0571429 51.1714286,43.4571429 51.8571429,43.4571429 C52.2,43.4571429 52.5428571,43.6285714 52.7142857,43.8 C52.9714286,44.0571429 53.0571429,44.3142857 53.0571429,44.6571429 C53.0571429,45.3428571 52.4571429,45.9428571 51.7714286,45.9428571 C51.4285714,45.9428571 51.0857143,45.7714286 50.9142857,45.6 C50.6571429,45.4285714 50.5714286,45.0857143 50.5714286,44.7428571 L50.5714286,44.7428571 Z M43.8857143,16.4571429 C43.8857143,16.1142857 44.0571429,15.7714286 44.2285714,15.6 C44.4,15.4285714 44.7428571,15.2571429 45.0857143,15.2571429 C45.7714286,15.2571429 46.3714286,15.8571429 46.3714286,16.5428571 C46.3714286,16.8857143 46.2,17.2285714 46.0285714,17.4 C45.7714286,17.6571429 45.5142857,17.7428571 45.1714286,17.7428571 C44.4,17.7428571 43.8857143,17.1428571 43.8857143,16.4571429 L43.8857143,16.4571429 Z M50.9142857,23.6571429 C51.1714286,23.4 51.5142857,23.3142857 51.7714286,23.3142857 C52.1142857,23.3142857 52.4571429,23.4 52.6285714,23.6571429 C53.1428571,24.1714286 53.1428571,24.9428571 52.6285714,25.4571429 C52.3714286,25.7142857 52.0285714,25.8 51.7714286,25.8 C51.4285714,25.8 51.0857143,25.7142857 50.9142857,25.4571429 C50.4,24.9428571 50.4,24.1714286 50.9142857,23.6571429 L50.9142857,23.6571429 Z M39.3428571,25.4571429 C39.0857143,25.7142857 38.7428571,25.8 38.4857143,25.8 C38.1428571,25.8 37.8,25.7142857 37.6285714,25.4571429 C37.1142857,24.9428571 37.1142857,24.1714286 37.6285714,23.6571429 C37.8857143,23.4 38.2285714,23.3142857 38.4857143,23.3142857 C38.8285714,23.3142857 39.1714286,23.4 39.3428571,23.6571429 C39.8571429,24.1714286 39.8571429,24.9428571 39.3428571,25.4571429 L39.3428571,25.4571429 Z M35.8285714,10.7142857 C36.0857143,10.4571429 36.4285714,10.3714286 36.6857143,10.3714286 C37.0285714,10.3714286 37.3714286,10.4571429 37.5428571,10.7142857 C38.0571429,11.2285714 38.0571429,12 37.5428571,12.5142857 C37.2857143,12.7714286 36.9428571,12.8571429 36.6857143,12.8571429 C36.3428571,12.8571429 36,12.7714286 35.8285714,12.5142857 C35.4,12 35.4,11.2285714 35.8285714,10.7142857 L35.8285714,10.7142857 Z M24.2571429,12.5142857 C24,12.7714286 23.6571429,12.8571429 23.4,12.8571429 C23.0571429,12.8571429 22.7142857,12.7714286 22.5428571,12.5142857 C22.0285714,12 22.0285714,11.2285714 22.5428571,10.7142857 C22.8,10.4571429 23.1428571,10.3714286 23.4,10.3714286 C23.7428571,10.3714286 24.0857143,10.4571429 24.2571429,10.7142857 C24.7714286,11.2285714 24.7714286,12 24.2571429,12.5142857 L24.2571429,12.5142857 Z M21.2571429,25.1142857 C21,25.3714286 20.7428571,25.4571429 20.4,25.4571429 C19.7142857,25.4571429 19.1142857,24.8571429 19.1142857,24.1714286 C19.1142857,23.8285714 19.2857143,23.4857143 19.4571429,23.3142857 C19.7142857,23.0571429 19.9714286,22.9714286 20.3142857,22.9714286 C21,22.9714286 21.6,23.5714286 21.6,24.2571429 C21.6857143,24.6 21.5142857,24.8571429 21.2571429,25.1142857 L21.2571429,25.1142857 Z M13.1142857,17.2285714 C12.8571429,17.4857143 12.6,17.5714286 12.2571429,17.5714286 C11.5714286,17.5714286 10.9714286,16.9714286 10.9714286,16.2857143 C10.9714286,15.9428571 11.1428571,15.6 11.3142857,15.4285714 C11.4857143,15.2571429 11.8285714,15.0857143 12.1714286,15.0857143 C12.8571429,15.0857143 13.4571429,15.6857143 13.4571429,16.3714286 C13.5428571,16.7142857 13.3714286,17.0571429 13.1142857,17.2285714 L13.1142857,17.2285714 Z M12.2571429,33.6857143 C12.2571429,34.0285714 12.0857143,34.3714286 11.9142857,34.5428571 C11.6571429,34.8 11.4,34.8857143 11.0571429,34.8857143 C10.3714286,34.8857143 9.77142857,34.2857143 9.77142857,33.6 C9.77142857,33.2571429 9.94285714,32.9142857 10.1142857,32.7428571 C10.3714286,32.4857143 10.6285714,32.4 10.9714286,32.4 C11.6571429,32.4 12.2571429,32.9142857 12.2571429,33.6857143 L12.2571429,33.6857143 Z M24.1714286,46.8 C23.9142857,47.0571429 23.6571429,47.1428571 23.3142857,47.1428571 C22.6285714,47.1428571 22.0285714,46.5428571 22.0285714,45.8571429 C22.0285714,45.5142857 22.2,45.1714286 22.3714286,45 C22.6285714,44.7428571 22.8857143,44.6571429 23.2285714,44.6571429 C23.9142857,44.6571429 24.5142857,45.2571429 24.5142857,45.9428571 C24.5142857,46.2857143 24.4285714,46.5428571 24.1714286,46.8 L24.1714286,46.8 Z M13.5428571,44.4 C13.5428571,45.0857143 12.9428571,45.6857143 12.2571429,45.6857143 C11.5714286,45.6857143 10.9714286,45.0857143 10.9714286,44.4 C10.9714286,43.7142857 11.5714286,43.1142857 12.2571429,43.1142857 C12.9428571,43.1142857 13.5428571,43.7142857 13.5428571,44.4 L13.5428571,44.4 Z M15.0857143,55.3714286 C15.0857143,55.7142857 14.9142857,56.0571429 14.7428571,56.2285714 C14.4857143,56.4857143 14.2285714,56.5714286 13.8857143,56.5714286 C13.2,56.5714286 12.6,55.9714286 12.6,55.2857143 C12.6,54.9428571 12.7714286,54.6 12.9428571,54.4285714 C13.2,54.1714286 13.4571429,54.0857143 13.8,54.0857143 C14.5714286,54.0857143 15.0857143,54.6857143 15.0857143,55.3714286 L15.0857143,55.3714286 Z" id="Shape"></path>
            </g>
        </g>
    </g>
</svg>