<?xml version="1.0" encoding="UTF-8"?>
<svg width="104px" height="104px" viewBox="0 0 104 104" version="1.1" xmlns="http://www.w3.org/2000/svg" xmlns:xlink="http://www.w3.org/1999/xlink">
    <!-- Generator: Sketch 40.1 (33804) - http://www.bohemiancoding.com/sketch -->
    <title>ideation_i</title>
    <desc>Created with Sketch.</desc>
    <defs></defs>
    <g id="icons" stroke="none" stroke-width="1" fill="none" fill-rule="evenodd">
        <g id="ideation_i" transform="translate(2.000000, 2.000000)">
            <ellipse id="Oval-43-Copy-13" stroke="#E7C59F" stroke-width="3" cx="50" cy="50" rx="50" ry="50"></ellipse>
            <g id="Group" transform="translate(13.000000, 21.000000)" fill="#E7C59F">
                <path d="M65.170694,22.3127366 C70.7817837,23.7802523 74.1484375,28.1827997 74.1484375,34.3118361 C74.1484375,41.9083884 69.2279434,46.8288824 61.6313912,46.8288824 C58.955333,46.8288824 56.5382482,46.3109357 54.2938124,45.2750422 C51.3587808,50.7998074 43.6759041,54.5117591 34.784485,54.5117591 C25.3751192,54.5117591 17.0879713,50.1955362 14.757211,44.0664998 C7.16065874,45.1887177 0.6,39.1460057 0.6,31.5494535 C0.6,24.8161458 5.69314297,19.377705 12.1674773,18.9460827 C13.1170463,8.41449897 21.6631675,0.3 32.1084269,0.3 C38.2374633,0.3 43.848553,3.06238263 47.6468292,7.89655223 C49.4596428,6.9469832 51.5314297,6.42903646 53.6032167,6.42903646 C60.4228488,6.42903646 65.5159918,12.0401262 65.5159918,19.4640295 C65.5159918,20.4135985 65.3433429,21.3631675 65.170694,22.3127366 L65.170694,22.3127366 Z M72.5082728,34.3981606 C72.5082728,28.7870709 69.4005924,24.9024703 63.9621516,23.8665768 L63.098907,23.6076034 L63.3578804,22.7443589 C63.7031782,21.7084654 63.8758271,20.5862474 63.8758271,19.4640295 C63.8758271,12.9896952 59.4732798,8.1555256 53.6032167,8.1555256 C51.6177542,8.1555256 49.6322917,8.7597968 47.9058025,9.79569029 L47.7331536,9.88201474 L47.042558,9.88201474 L46.7835846,9.53671692 C43.3306063,4.78887177 37.97849,2.02648914 32.1084269,2.02648914 C22.3537632,2.02648914 14.3255887,9.88201474 13.8076419,19.8093273 L13.8076419,20.5862474 L13.0307218,20.5862474 C7.16065874,20.5862474 2.32648914,25.5067415 2.32648914,31.5494535 C2.32648914,38.2827612 8.36920114,43.721202 15.1888333,42.2536862 L15.8794289,42.0810373 L16.1384023,42.7716329 C17.9512159,48.5553716 25.8067415,52.78527 34.8708095,52.78527 C43.3306063,52.78527 50.8408341,49.0733183 53.2579189,43.8075264 L53.6032167,43.0306063 L54.3801368,43.4622286 C56.5382482,44.5844465 58.955333,45.1887177 61.7177157,45.1887177 C69.6595657,45.1887177 72.5082728,39.577628 72.5082728,34.3981606 L72.5082728,34.3981606 Z" id="Shape"></path>
                <path d="M55.4160303,27.0605817 C56.3655993,26.9742573 56.3655993,28.441773 55.4160303,28.5280975 C53.5168922,28.7007464 51.6177542,28.9597198 49.8049406,29.1323687 C48.8553716,29.2186931 48.8553716,27.7511774 49.8049406,27.6648529 C51.6177542,27.4058795 53.5168922,27.2332306 55.4160303,27.0605817 L55.4160303,27.0605817 Z" id="Shape"></path>
                <path d="M49.2869938,14.7161843 C49.891265,13.9392642 51.1861319,14.7161843 50.5818607,15.4931045 C49.4596428,17.0469447 48.3374248,18.5144605 47.1288824,20.0683007 C46.5246112,20.8452208 45.2297444,20.0683007 45.8340156,19.2913806 C47.042558,17.7375403 48.1647759,16.1837001 49.2869938,14.7161843 L49.2869938,14.7161843 Z" id="Shape"></path>
                <path d="M32.9716714,39.3186546 C33.1443203,40.3545481 33.2306448,41.3904416 33.2306448,42.3400106 L33.2306448,42.5126596 C33.2306448,43.9801753 34.4391872,45.1887177 35.906703,45.1887177 L37.4605432,45.1887177 C38.7554101,45.1887177 39.877628,44.2391487 40.1366014,42.9442818 L39.9639525,42.9442818 L35.3887562,42.9442818 C34.4391872,42.9442818 34.4391872,41.4767661 35.3887562,41.4767661 L39.9639525,41.4767661 C40.0502769,41.4767661 40.1366014,41.4767661 40.2229258,41.5630905 C40.3092503,39.4049791 40.827197,36.6425965 41.5177927,35.6930274 L41.6041172,35.606703 C41.6041172,35.606703 42.0357394,35.0887562 42.1220639,35.0887562 C43.848553,33.6212405 44.7117976,31.6357779 44.7117976,29.2186931 C44.7117976,24.9024703 41.1724949,21.3631675 36.856272,21.3631675 C32.5400491,21.3631675 29.0007464,24.9024703 29.0007464,29.2186931 C29.0007464,31.6357779 29.9503154,33.6212405 31.6768046,35.0887562 L31.763129,35.1750807 L32.1947513,35.6930274 C32.4537247,36.1246497 32.7990225,36.9878943 32.9716714,37.9374633 C33.0579959,37.9374633 33.1443203,37.8511389 33.2306448,37.8511389 L37.805841,37.8511389 C38.7554101,37.8511389 38.7554101,39.3186546 37.805841,39.3186546 L32.9716714,39.3186546 L32.9716714,39.3186546 Z M46.2656378,29.1323687 C46.2656378,32.0674002 45.2297444,34.484485 43.1579574,36.2109742 L42.8126596,36.6425965 C42.4673617,37.3331921 41.8630905,40.0955748 41.8630905,42.3400106 L41.8630905,42.5126596 C41.8630905,44.9297444 39.877628,46.9152069 37.4605432,46.9152069 L35.906703,46.9152069 C33.4896182,46.9152069 31.5041557,44.9297444 31.5041557,42.5126596 L31.5041557,42.3400106 C31.5041557,40.0955748 30.8998845,37.3331921 30.5545866,36.6425965 L30.2092888,36.2972986 C28.1375018,34.484485 27.0152839,32.0674002 27.0152839,29.1323687 C27.0152839,23.8665768 31.3315067,19.5503539 36.5972986,19.5503539 C41.949415,19.5503539 46.2656378,23.7802523 46.2656378,29.1323687 L46.2656378,29.1323687 Z" id="Shape"></path>
                <path d="M37.2878943,9.45039246 L37.2878943,15.1478066 C37.2878943,16.0973757 35.8203785,16.0973757 35.8203785,15.1478066 L35.8203785,9.45039246 C35.8203785,8.41449897 37.2878943,8.41449897 37.2878943,9.45039246 L37.2878943,9.45039246 Z" id="Shape"></path>
                <path d="M27.792204,19.2913806 C28.3964752,20.0683007 27.1016083,20.7588963 26.4973371,20.0683007 C25.3751192,18.6007849 24.2529013,17.0469447 23.0443589,15.4931045 C22.5264121,14.7161843 23.821279,13.9392642 24.3392257,14.7161843 C25.5477681,16.1837001 26.6699861,17.7375403 27.792204,19.2913806 L27.792204,19.2913806 Z" id="Shape"></path>
                <path d="M23.9076034,27.6648529 C24.8571725,27.7511774 24.8571725,29.3050176 23.9076034,29.1323687 C22.0084654,28.9597198 20.1093273,28.7007464 18.2965137,28.5280975 C17.3469447,28.441773 17.3469447,26.9742573 18.2965137,27.0605817 C20.1956518,27.2332306 22.0084654,27.4058795 23.9076034,27.6648529 L23.9076034,27.6648529 Z" id="Shape"></path>
            </g>
        </g>
    </g>
</svg>