<svg width="31" height="31" viewBox="0 0 31 31" fill="none" xmlns="http://www.w3.org/2000/svg">
<path fill-rule="evenodd" clip-rule="evenodd" d="M13.6385 6.82L15.4315 2.03739L17.127 6.82H18.4036L20.4597 0H19.1149L17.6825 4.95478L15.9674 0H14.9248L13.1318 4.8687L11.9039 0H10.5397L12.3522 6.82H13.6385ZM5.82212 5.87473L7.99014 10.588L7.08452 11.4976L0.916641 7.86616L1.87716 6.90145L6.23377 9.54062L4.00401 4.76531L4.73812 4.028L9.49952 6.38464L6.95416 1.80228L7.90095 0.851351L11.3451 7.21843L10.4463 8.12112L5.82212 5.87473ZM5.82212 25.0264L7.99014 20.3131L7.08452 19.4035L0.916641 23.0349L1.87716 23.9997L6.23377 21.3605L4.00401 26.1358L4.73812 26.8731L9.49952 24.5165L6.95416 29.0988L7.90095 30.0498L11.3451 23.6827L10.4463 22.78L5.82212 25.0264ZM15.4315 28.9626L13.6385 24.18H12.3522L10.5397 31H11.9039L13.1318 26.1313L14.9248 31H15.9674L17.6825 26.0452L19.1149 31H20.4597L18.4036 24.18H17.127L15.4315 28.9626ZM6.82 17.362L2.03739 15.569L6.82 13.8735V12.5969L0 10.5408V11.8856L4.95478 13.318L0 15.0331V16.0757L4.8687 17.8687L0 19.0966V20.4608L6.82 18.6483V17.362ZM25.1779 5.87473L23.0099 10.588L23.9155 11.4976L30.0834 7.86616L29.1228 6.90145L24.7662 9.54062L26.996 4.76531L26.2619 4.028L21.5005 6.38464L24.0458 1.80228L23.099 0.851351L19.6549 7.21843L20.5537 8.12112L25.1779 5.87473ZM23.0099 20.3131L25.1779 25.0264L20.5537 22.78L19.6549 23.6827L23.099 30.0498L24.0458 29.0988L21.5005 24.5165L26.2619 26.8731L26.996 26.1358L24.7662 21.3605L29.1228 23.9997L30.0834 23.0349L23.9155 19.4035L23.0099 20.3131ZM28.9626 15.569L24.18 17.362V18.6483L31 20.4608V19.0966L26.1313 17.8687L31 16.0757V15.0331L26.0452 13.318L31 11.8856V10.5408L24.18 12.5969V13.8735L28.9626 15.569Z" fill="white"/>
</svg>
