<svg width="440" height="365" viewBox="0 0 440 365" fill="none" xmlns="http://www.w3.org/2000/svg">
<rect width="440" height="365" rx="8" fill="#ECC271"/>
<path d="M47.5327 302.295H45.5064L41.2876 317.969H43.3139L47.5327 302.295ZM52.1363 316H54.5078V311.577H57.0135C60.0369 311.577 61.6605 309.761 61.6605 307.243C61.6605 304.744 60.0561 302.909 57.0454 302.909H52.1363V316ZM54.5078 309.627V304.891H56.6811C58.4581 304.891 59.2443 305.849 59.2443 307.243C59.2443 308.636 58.4581 309.627 56.6939 309.627H54.5078ZM62.8981 316H65.212V310.228C65.212 308.982 66.1516 308.099 67.4236 308.099C67.8135 308.099 68.2993 308.17 68.4975 308.234V306.105C68.2866 306.067 67.9222 306.041 67.6665 306.041C66.5415 306.041 65.6019 306.68 65.2439 307.818H65.1417V306.182H62.8981V316ZM73.1932 316.192C76.0696 316.192 77.8977 314.165 77.8977 311.129C77.8977 308.087 76.0696 306.054 73.1932 306.054C70.3167 306.054 68.4886 308.087 68.4886 311.129C68.4886 314.165 70.3167 316.192 73.1932 316.192ZM73.2059 314.338C71.6143 314.338 70.8345 312.919 70.8345 311.123C70.8345 309.327 71.6143 307.888 73.2059 307.888C74.772 307.888 75.5518 309.327 75.5518 311.123C75.5518 312.919 74.772 314.338 73.2059 314.338ZM79.1417 306.182V316.531C79.1417 317.355 78.7901 317.796 77.9016 317.796C77.7865 317.796 77.6971 317.79 77.5692 317.783V319.669C77.7354 319.682 77.876 319.682 78.0422 319.682C80.2091 319.682 81.4556 318.685 81.4556 316.562V306.182H79.1417ZM80.2922 304.788C81.0273 304.788 81.6282 304.226 81.6282 303.536C81.6282 302.839 81.0273 302.276 80.2922 302.276C79.5507 302.276 78.9499 302.839 78.9499 303.536C78.9499 304.226 79.5507 304.788 80.2922 304.788ZM87.4616 316.192C89.75 316.192 91.3224 315.073 91.7315 313.366L89.571 313.124C89.2578 313.955 88.4907 314.389 87.4936 314.389C85.9978 314.389 85.0071 313.405 84.9879 311.724H91.8274V311.014C91.8274 307.569 89.7563 306.054 87.3402 306.054C84.5277 306.054 82.6931 308.119 82.6931 311.148C82.6931 314.229 84.5021 316.192 87.4616 316.192ZM84.9943 310.164C85.0646 308.911 85.9914 307.857 87.3721 307.857C88.7017 307.857 89.5965 308.828 89.6093 310.164H84.9943ZM97.3476 316.192C99.8149 316.192 101.387 314.728 101.554 312.644H99.3419C99.1438 313.699 98.3831 314.306 97.3668 314.306C95.9222 314.306 94.9889 313.098 94.9889 311.091C94.9889 309.109 95.9414 307.92 97.3668 307.92C98.479 307.92 99.1629 308.636 99.3419 309.582H101.554C101.394 307.454 99.7318 306.054 97.3348 306.054C94.4584 306.054 92.6431 308.131 92.6431 311.129C92.6431 314.102 94.4137 316.192 97.3476 316.192ZM107.636 306.182H105.7V303.83H103.386V306.182H101.992V307.972H103.386V313.43C103.373 315.278 104.715 316.185 106.454 316.134C107.112 316.115 107.566 315.987 107.815 315.904L107.425 314.095C107.298 314.127 107.035 314.185 106.748 314.185C106.166 314.185 105.7 313.98 105.7 313.047V307.972H107.636V306.182ZM110.277 316.141C111.031 316.141 111.677 315.514 111.683 314.734C111.677 313.967 111.031 313.341 110.277 313.341C109.497 313.341 108.864 313.967 108.871 314.734C108.864 315.514 109.497 316.141 110.277 316.141ZM110.277 309.129C111.031 309.129 111.677 308.502 111.683 307.722C111.677 306.955 111.031 306.329 110.277 306.329C109.497 306.329 108.864 306.955 108.871 307.722C108.864 308.502 109.497 309.129 110.277 309.129ZM122.396 302.909H120.14L116.886 304.999V307.173L119.948 305.217H120.025V316H122.396V302.909ZM130.209 319.682C132.011 319.682 133.053 318.755 133.609 317.189L137.553 306.195L135.079 306.182L132.81 313.597H132.708L130.445 306.182H127.99L131.551 316.205L131.353 316.735C130.924 317.854 130.247 317.93 129.237 317.636L128.7 319.439C129.013 319.567 129.576 319.682 130.209 319.682ZM142.452 316.192C144.74 316.192 146.312 315.073 146.721 313.366L144.561 313.124C144.248 313.955 143.481 314.389 142.484 314.389C140.988 314.389 139.997 313.405 139.978 311.724H146.817V311.014C146.817 307.569 144.746 306.054 142.33 306.054C139.518 306.054 137.683 308.119 137.683 311.148C137.683 314.229 139.492 316.192 142.452 316.192ZM139.984 310.164C140.055 308.911 140.981 307.857 142.362 307.857C143.692 307.857 144.587 308.828 144.599 310.164H139.984ZM150.88 316.198C152.421 316.198 153.341 315.476 153.763 314.651H153.84V316H156.064V309.429C156.064 306.834 153.948 306.054 152.076 306.054C150.011 306.054 148.426 306.974 147.914 308.764L150.075 309.071C150.305 308.4 150.957 307.825 152.088 307.825C153.162 307.825 153.75 308.374 153.75 309.339V309.378C153.75 310.043 153.054 310.075 151.321 310.26C149.416 310.464 147.595 311.033 147.595 313.245C147.595 315.175 149.007 316.198 150.88 316.198ZM151.481 314.498C150.516 314.498 149.826 314.057 149.826 313.207C149.826 312.318 150.599 311.947 151.634 311.8C152.242 311.717 153.456 311.564 153.757 311.321V312.478C153.757 313.571 152.875 314.498 151.481 314.498ZM157.671 316H159.985V310.228C159.985 308.982 160.924 308.099 162.196 308.099C162.586 308.099 163.072 308.17 163.27 308.234V306.105C163.059 306.067 162.695 306.041 162.439 306.041C161.314 306.041 160.375 306.68 160.017 307.818H159.914V306.182H157.671V316Z" fill="white" fill-opacity="0.5"/>
<path d="M186.533 302.295H184.506L180.288 317.969H182.314L186.533 302.295ZM190.561 304.897H194.607V316H196.96V304.897H201.006V302.909H190.561V304.897ZM205.12 316.192C207.408 316.192 208.98 315.073 209.39 313.366L207.229 313.124C206.916 313.955 206.149 314.389 205.152 314.389C203.656 314.389 202.665 313.405 202.646 311.724H209.485V311.014C209.485 307.569 207.414 306.054 204.998 306.054C202.186 306.054 200.351 308.119 200.351 311.148C200.351 314.229 202.16 316.192 205.12 316.192ZM202.652 310.164C202.723 308.911 203.649 307.857 205.03 307.857C206.36 307.857 207.255 308.828 207.267 310.164H202.652ZM213.548 316.198C215.089 316.198 216.009 315.476 216.431 314.651H216.508V316H218.732V309.429C218.732 306.834 216.616 306.054 214.744 306.054C212.679 306.054 211.094 306.974 210.582 308.764L212.743 309.071C212.973 308.4 213.625 307.825 214.756 307.825C215.83 307.825 216.418 308.374 216.418 309.339V309.378C216.418 310.043 215.722 310.075 213.989 310.26C212.084 310.464 210.263 311.033 210.263 313.245C210.263 315.175 211.675 316.198 213.548 316.198ZM214.149 314.498C213.184 314.498 212.494 314.057 212.494 313.207C212.494 312.318 213.267 311.947 214.303 311.8C214.91 311.717 216.124 311.564 216.425 311.321V312.478C216.425 313.571 215.543 314.498 214.149 314.498ZM220.339 316H222.653V310.03C222.653 308.822 223.458 308.004 224.455 308.004C225.433 308.004 226.105 308.662 226.105 309.672V316H228.374V309.876C228.374 308.771 229.032 308.004 230.151 308.004C231.084 308.004 231.825 308.553 231.825 309.768V316H234.146V309.41C234.146 307.217 232.88 306.054 231.078 306.054C229.652 306.054 228.565 306.757 228.131 307.85H228.029C227.651 306.738 226.699 306.054 225.376 306.054C224.059 306.054 223.075 306.732 222.666 307.85H222.551V306.182H220.339V316ZM246.735 306.508H249.017C248.972 304.296 247.086 302.73 244.299 302.73C241.551 302.73 239.486 304.277 239.492 306.591C239.492 308.47 240.828 309.55 242.983 310.107L244.472 310.49C245.885 310.848 246.818 311.289 246.824 312.305C246.818 313.424 245.757 314.172 244.21 314.172C242.727 314.172 241.576 313.507 241.48 312.133H239.147C239.243 314.734 241.18 316.198 244.229 316.198C247.367 316.198 249.189 314.632 249.196 312.325C249.189 310.055 247.316 309.02 245.348 308.553L244.12 308.246C243.046 307.991 241.883 307.537 241.896 306.444C241.902 305.46 242.784 304.737 244.267 304.737C245.68 304.737 246.613 305.396 246.735 306.508ZM250.488 316H252.801V306.182H250.488V316ZM251.651 304.788C252.386 304.788 252.987 304.226 252.987 303.536C252.987 302.839 252.386 302.276 251.651 302.276C250.909 302.276 250.309 302.839 250.309 303.536C250.309 304.226 250.909 304.788 251.651 304.788ZM254.333 316H262.393V314.082H257.408V313.999L262.227 307.761V306.182H254.499V308.099H259.396V308.183L254.333 314.53V316ZM267.914 316.192C270.202 316.192 271.774 315.073 272.184 313.366L270.023 313.124C269.71 313.955 268.943 314.389 267.946 314.389C266.45 314.389 265.459 313.405 265.44 311.724H272.279V311.014C272.279 307.569 270.208 306.054 267.792 306.054C264.98 306.054 263.145 308.119 263.145 311.148C263.145 314.229 264.954 316.192 267.914 316.192ZM265.446 310.164C265.517 308.911 266.443 307.857 267.824 307.857C269.154 307.857 270.049 308.828 270.061 310.164H265.446ZM274.942 316.141C275.697 316.141 276.342 315.514 276.349 314.734C276.342 313.967 275.697 313.341 274.942 313.341C274.163 313.341 273.53 313.967 273.536 314.734C273.53 315.514 274.163 316.141 274.942 316.141ZM274.942 309.129C275.697 309.129 276.342 308.502 276.349 307.722C276.342 306.955 275.697 306.329 274.942 306.329C274.163 306.329 273.53 306.955 273.536 307.722C273.53 308.502 274.163 309.129 274.942 309.129ZM287.062 302.909H284.805L281.552 304.999V307.173L284.613 305.217H284.69V316H287.062V302.909ZM294.504 316.249C297.662 316.256 299.547 313.763 299.547 309.467C299.547 305.197 297.649 302.73 294.504 302.73C291.359 302.73 289.467 305.191 289.461 309.467C289.461 313.756 291.346 316.249 294.504 316.249ZM294.504 314.249C292.874 314.249 291.851 312.612 291.858 309.467C291.864 306.348 292.881 304.705 294.504 304.705C296.134 304.705 297.15 306.348 297.157 309.467C297.157 312.612 296.141 314.249 294.504 314.249Z" fill="white" fill-opacity="0.5"/>
<path d="M49.0923 161H53.7713L59.0256 142.629H59.2301L64.4716 161H69.1506L76.5398 134.818H71.4389L66.7216 154.071H66.4915L61.4418 134.818H56.8011L51.7642 154.058H51.5213L46.804 134.818H41.7031L49.0923 161ZM84.8732 161.384C89.4499 161.384 92.5948 159.146 93.413 155.733L89.092 155.247C88.4655 156.909 86.9315 157.778 84.9371 157.778C81.9457 157.778 79.9641 155.81 79.9258 152.447H93.6047V151.028C93.6047 144.138 89.4627 141.108 84.6303 141.108C79.0053 141.108 75.3363 145.237 75.3363 151.297C75.3363 157.459 78.9542 161.384 84.8732 161.384ZM79.9386 149.328C80.0792 146.822 81.9329 144.713 84.6942 144.713C87.3533 144.713 89.1431 146.656 89.1687 149.328H79.9386ZM111.6 146.554C110.961 143.23 108.301 141.108 103.699 141.108C98.9691 141.108 95.7475 143.435 95.7603 147.065C95.7475 149.929 97.5117 151.821 101.283 152.601L104.632 153.304C106.435 153.7 107.279 154.429 107.279 155.541C107.279 156.884 105.821 157.893 103.622 157.893C101.5 157.893 100.12 156.973 99.7233 155.209L95.2106 155.643C95.7858 159.249 98.8157 161.384 103.635 161.384C108.544 161.384 112.009 158.839 112.022 155.119C112.009 152.32 110.206 150.607 106.499 149.801L103.149 149.085C101.155 148.638 100.363 147.947 100.375 146.81C100.363 145.48 101.833 144.56 103.763 144.56C105.898 144.56 107.023 145.723 107.381 147.014L111.6 146.554ZM119.026 134.818H114.398V161H119.026V134.818ZM131.038 161.384C135.614 161.384 138.759 159.146 139.577 155.733L135.256 155.247C134.63 156.909 133.096 157.778 131.102 157.778C128.11 157.778 126.128 155.81 126.09 152.447H139.769V151.028C139.769 144.138 135.627 141.108 130.795 141.108C125.17 141.108 121.501 145.237 121.501 151.297C121.501 157.459 125.119 161.384 131.038 161.384ZM126.103 149.328C126.244 146.822 128.097 144.713 130.859 144.713C133.518 144.713 135.307 146.656 135.333 149.328H126.103ZM144.558 168.364C148.163 168.364 150.247 166.51 151.359 163.378L159.247 141.389L154.3 141.364L149.761 156.193H149.557L145.031 141.364H140.122L147.243 161.409L146.847 162.47C145.99 164.707 144.635 164.861 142.615 164.273L141.541 167.878C142.168 168.134 143.293 168.364 144.558 168.364ZM168.713 161H173.456V149.878H185.588V161H190.344V134.818H185.588V145.902H173.456V134.818H168.713V161ZM199.508 161.396C202.589 161.396 204.43 159.952 205.274 158.303H205.427V161H209.876V147.858C209.876 142.668 205.645 141.108 201.899 141.108C197.77 141.108 194.599 142.949 193.577 146.528L197.898 147.142C198.358 145.8 199.662 144.649 201.925 144.649C204.072 144.649 205.248 145.749 205.248 147.679V147.756C205.248 149.085 203.855 149.149 200.391 149.52C196.581 149.929 192.937 151.067 192.937 155.49C192.937 159.351 195.763 161.396 199.508 161.396ZM200.71 157.996C198.78 157.996 197.399 157.114 197.399 155.413C197.399 153.636 198.946 152.895 201.017 152.601C202.231 152.435 204.66 152.128 205.261 151.642V153.956C205.261 156.142 203.497 157.996 200.71 157.996ZM213.09 161H217.718V141.364H213.09V161ZM215.416 138.577C216.887 138.577 218.088 137.452 218.088 136.071C218.088 134.678 216.887 133.553 215.416 133.553C213.933 133.553 212.732 134.678 212.732 136.071C212.732 137.452 213.933 138.577 215.416 138.577ZM225.664 149.494C225.664 146.656 227.377 145.02 229.819 145.02C232.21 145.02 233.642 146.592 233.642 149.213V161H238.269V148.497C238.282 143.793 235.598 141.108 231.545 141.108C228.605 141.108 226.585 142.514 225.69 144.7H225.46V141.364H221.036V161H225.664V149.494ZM250.227 161.384C254.804 161.384 257.949 159.146 258.767 155.733L254.446 155.247C253.819 156.909 252.285 157.778 250.291 157.778C247.3 157.778 245.318 155.81 245.28 152.447H258.959V151.028C258.959 144.138 254.817 141.108 249.984 141.108C244.359 141.108 240.69 145.237 240.69 151.297C240.69 157.459 244.308 161.384 250.227 161.384ZM245.292 149.328C245.433 146.822 247.287 144.713 250.048 144.713C252.707 144.713 254.497 146.656 254.523 149.328H245.292ZM276.954 146.554C276.314 143.23 273.655 141.108 269.053 141.108C264.323 141.108 261.101 143.435 261.114 147.065C261.101 149.929 262.866 151.821 266.637 152.601L269.986 153.304C271.789 153.7 272.633 154.429 272.633 155.541C272.633 156.884 271.175 157.893 268.976 157.893C266.854 157.893 265.474 156.973 265.077 155.209L260.564 155.643C261.14 159.249 264.17 161.384 268.989 161.384C273.898 161.384 277.363 158.839 277.376 155.119C277.363 152.32 275.56 150.607 271.853 149.801L268.503 149.085C266.509 148.638 265.716 147.947 265.729 146.81C265.716 145.48 267.187 144.56 269.117 144.56C271.252 144.56 272.377 145.723 272.735 147.014L276.954 146.554Z" fill="white" fill-opacity="0.5"/>
<path d="M43.5824 205H48.3253V193.878H59.2045V189.902H48.3253V182.794H60.3551V178.818H43.5824V205ZM62.7503 205H67.3782V193.456C67.3782 190.963 69.2574 189.199 71.8015 189.199C72.5813 189.199 73.5529 189.339 73.9492 189.467V185.21C73.5273 185.134 72.7986 185.082 72.2873 185.082C70.0373 185.082 68.158 186.361 67.4421 188.636H67.2376V185.364H62.7503V205ZM83.4684 205.384C88.0451 205.384 91.19 203.146 92.0081 199.733L87.6871 199.247C87.0607 200.909 85.5266 201.778 83.5323 201.778C80.5408 201.778 78.5593 199.81 78.5209 196.447H92.1999V195.028C92.1999 188.138 88.0579 185.108 83.2255 185.108C77.6005 185.108 73.9314 189.237 73.9314 195.297C73.9314 201.459 77.5493 205.384 83.4684 205.384ZM78.5337 193.328C78.6743 190.822 80.528 188.713 83.2894 188.713C85.9485 188.713 87.7383 190.656 87.7638 193.328H78.5337ZM103.368 205.384C107.945 205.384 111.09 203.146 111.908 199.733L107.587 199.247C106.961 200.909 105.426 201.778 103.432 201.778C100.441 201.778 98.4591 199.81 98.4208 196.447H112.1V195.028C112.1 188.138 107.958 185.108 103.125 185.108C97.5003 185.108 93.8313 189.237 93.8313 195.297C93.8313 201.459 97.4492 205.384 103.368 205.384ZM98.4336 193.328C98.5742 190.822 100.428 188.713 103.189 188.713C105.848 188.713 107.638 190.656 107.664 193.328H98.4336ZM119.203 178.818H114.575V205H119.203V178.818ZM128.172 205.396C131.253 205.396 133.094 203.952 133.938 202.303H134.091V205H138.54V191.858C138.54 186.668 134.309 185.108 130.563 185.108C126.434 185.108 123.263 186.949 122.24 190.528L126.561 191.142C127.022 189.8 128.326 188.649 130.588 188.649C132.736 188.649 133.912 189.749 133.912 191.679V191.756C133.912 193.085 132.519 193.149 129.054 193.52C125.245 193.929 121.601 195.067 121.601 199.49C121.601 203.351 124.426 205.396 128.172 205.396ZM129.374 201.996C127.443 201.996 126.063 201.114 126.063 199.413C126.063 197.636 127.61 196.895 129.681 196.601C130.895 196.435 133.324 196.128 133.925 195.642V197.956C133.925 200.142 132.161 201.996 129.374 201.996ZM146.381 193.494C146.381 190.656 148.094 189.02 150.536 189.02C152.927 189.02 154.359 190.592 154.359 193.213V205H158.986V192.497C158.999 187.793 156.315 185.108 152.262 185.108C149.322 185.108 147.302 186.514 146.407 188.7H146.177V185.364H141.753V205H146.381V193.494ZM170.816 205.384C175.751 205.384 178.896 202.456 179.228 198.288H174.805C174.409 200.398 172.887 201.612 170.855 201.612C167.965 201.612 166.099 199.196 166.099 195.182C166.099 191.219 168.004 188.841 170.855 188.841C173.079 188.841 174.447 190.273 174.805 192.165H179.228C178.909 187.908 175.585 185.108 170.791 185.108C165.038 185.108 161.407 189.263 161.407 195.259C161.407 201.203 164.948 205.384 170.816 205.384ZM190.281 205.384C194.858 205.384 198.003 203.146 198.821 199.733L194.5 199.247C193.874 200.909 192.34 201.778 190.345 201.778C187.354 201.778 185.372 199.81 185.334 196.447H199.013V195.028C199.013 188.138 194.871 185.108 190.039 185.108C184.414 185.108 180.745 189.237 180.745 195.297C180.745 201.459 184.362 205.384 190.281 205.384ZM185.347 193.328C185.487 190.822 187.341 188.713 190.103 188.713C192.762 188.713 194.551 190.656 194.577 193.328H185.347ZM43.5824 249H48.3253V240.153H53.3366C59.3835 240.153 62.6307 236.523 62.6307 231.486C62.6307 226.487 59.4219 222.818 53.4006 222.818H43.5824V249ZM48.3253 236.254V226.781H52.6719C56.2259 226.781 57.7983 228.699 57.7983 231.486C57.7983 234.273 56.2259 236.254 52.6974 236.254H48.3253ZM65.1058 249H69.7337V237.456C69.7337 234.963 71.6129 233.199 74.1569 233.199C74.9368 233.199 75.9084 233.339 76.3047 233.467V229.21C75.8828 229.134 75.1541 229.082 74.6427 229.082C72.3927 229.082 70.5135 230.361 69.7976 232.636H69.593V229.364H65.1058V249ZM85.696 249.384C91.4488 249.384 95.1051 245.331 95.1051 239.259C95.1051 233.173 91.4488 229.108 85.696 229.108C79.9432 229.108 76.2869 233.173 76.2869 239.259C76.2869 245.331 79.9432 249.384 85.696 249.384ZM85.7216 245.676C82.5383 245.676 80.9787 242.838 80.9787 239.246C80.9787 235.653 82.5383 232.777 85.7216 232.777C88.8537 232.777 90.4133 235.653 90.4133 239.246C90.4133 242.838 88.8537 245.676 85.7216 245.676ZM97.593 229.364V250.061C97.593 251.71 96.8899 252.592 95.1129 252.592C94.8828 252.592 94.7038 252.58 94.4481 252.567V256.338C94.7805 256.364 95.0617 256.364 95.3941 256.364C99.7279 256.364 102.221 254.369 102.221 250.125V229.364H97.593ZM99.8941 226.577C101.364 226.577 102.566 225.452 102.566 224.071C102.566 222.678 101.364 221.553 99.8941 221.553C98.4112 221.553 97.2095 222.678 97.2095 224.071C97.2095 225.452 98.4112 226.577 99.8941 226.577ZM114.233 249.384C118.81 249.384 121.954 247.146 122.773 243.733L118.452 243.247C117.825 244.909 116.291 245.778 114.297 245.778C111.305 245.778 109.324 243.81 109.285 240.447H122.964V239.028C122.964 232.138 118.822 229.108 113.99 229.108C108.365 229.108 104.696 233.237 104.696 239.297C104.696 245.459 108.314 249.384 114.233 249.384ZM109.298 237.328C109.439 234.822 111.293 232.713 114.054 232.713C116.713 232.713 118.503 234.656 118.528 237.328H109.298ZM134.005 249.384C138.94 249.384 142.084 246.456 142.417 242.288H137.994C137.597 244.398 136.076 245.612 134.043 245.612C131.154 245.612 129.288 243.196 129.288 239.182C129.288 235.219 131.192 232.841 134.043 232.841C136.268 232.841 137.636 234.273 137.994 236.165H142.417C142.097 231.908 138.773 229.108 133.979 229.108C128.226 229.108 124.596 233.263 124.596 239.259C124.596 245.203 128.137 249.384 134.005 249.384ZM154.582 229.364H150.709V224.659H146.081V229.364H143.294V232.943H146.081V243.861C146.055 247.555 148.74 249.371 152.217 249.268C153.534 249.23 154.442 248.974 154.94 248.808L154.16 245.19C153.905 245.254 153.381 245.369 152.805 245.369C151.642 245.369 150.709 244.96 150.709 243.094V232.943H154.582V229.364ZM172.251 234.554C171.612 231.23 168.953 229.108 164.351 229.108C159.621 229.108 156.399 231.435 156.412 235.065C156.399 237.929 158.163 239.821 161.935 240.601L165.284 241.304C167.087 241.7 167.93 242.429 167.93 243.541C167.93 244.884 166.473 245.893 164.274 245.893C162.152 245.893 160.771 244.973 160.375 243.209L155.862 243.643C156.437 247.249 159.467 249.384 164.287 249.384C169.196 249.384 172.66 246.839 172.673 243.119C172.66 240.32 170.858 238.607 167.15 237.801L163.801 237.085C161.807 236.638 161.014 235.947 161.027 234.81C161.014 233.48 162.484 232.56 164.415 232.56C166.55 232.56 167.675 233.723 168.033 235.014L172.251 234.554Z" fill="white"/>
<path fill-rule="evenodd" clip-rule="evenodd" d="M54.6385 53.82L56.4315 49.0374L58.127 53.82H59.4036L61.4597 47H60.1149L58.6825 51.9548L56.9674 47H55.9248L54.1318 51.8687L52.9039 47H51.5397L53.3522 53.82H54.6385ZM46.8221 52.8747L48.9901 57.588L48.0845 58.4976L41.9166 54.8662L42.8772 53.9015L47.2338 56.5406L45.004 51.7653L45.7381 51.028L50.4995 53.3846L47.9542 48.8023L48.901 47.8514L52.3451 54.2184L51.4463 55.1211L46.8221 52.8747ZM46.8221 72.0264L48.9901 67.3131L48.0845 66.4035L41.9166 70.0349L42.8772 70.9997L47.2338 68.3605L45.004 73.1358L45.7381 73.8731L50.4995 71.5165L47.9542 76.0988L48.901 77.0498L52.3451 70.6827L51.4463 69.78L46.8221 72.0264ZM56.4315 75.9626L54.6385 71.18H53.3522L51.5397 78H52.9039L54.1318 73.1313L55.9248 78H56.9674L58.6825 73.0452L60.1149 78H61.4597L59.4036 71.18H58.127L56.4315 75.9626ZM47.82 64.362L43.0374 62.569L47.82 60.8735V59.5969L41 57.5408V58.8856L45.9548 60.318L41 62.0331V63.0757L45.8687 64.8687L41 66.0966V67.4608L47.82 65.6483V64.362ZM66.1779 52.8747L64.0099 57.588L64.9155 58.4976L71.0834 54.8662L70.1228 53.9015L65.7662 56.5406L67.996 51.7653L67.2619 51.028L62.5005 53.3846L65.0458 48.8023L64.099 47.8514L60.6549 54.2184L61.5537 55.1211L66.1779 52.8747ZM64.0099 67.3131L66.1779 72.0264L61.5537 69.78L60.6549 70.6827L64.099 77.0498L65.0458 76.0988L62.5005 71.5165L67.2619 73.8731L67.996 73.1358L65.7662 68.3605L70.1228 70.9997L71.0834 70.0349L64.9155 66.4035L64.0099 67.3131ZM69.9626 62.569L65.18 64.362V65.6483L72 67.4608V66.0966L67.1313 64.8687L72 63.0757V62.0331L67.0452 60.318L72 58.8856V57.5408L65.18 59.5969V60.8735L69.9626 62.569Z" fill="white"/>
</svg>
