<svg width="496" height="65" viewBox="0 0 496 65" fill="none" xmlns="http://www.w3.org/2000/svg">
<path fill-rule="evenodd" clip-rule="evenodd" d="M92.0649 12.3643C91.5155 12.8981 91.0203 13.3695 90.5473 13.8072L90.0098 13.2305C90.4777 12.7975 90.9684 12.3303 91.5135 11.8007C91.6062 11.7107 91.8913 11.4299 92.2662 11.0607C93.1936 10.1475 94.6702 8.6935 95.141 8.24835C98.0389 5.50831 98.6517 4.97392 99.801 4.33275C100.755 3.80067 101.696 3.54883 102.785 3.54883C106.324 3.54883 106.913 4.70592 106.789 10.8293C106.753 12.3615 106.735 13.2611 106.735 13.5188H105.945C105.945 13.2518 105.963 12.3523 105.999 10.8121C106.116 5.07215 105.741 4.33593 102.785 4.33593C101.833 4.33593 101.024 4.55232 100.187 5.01955C99.1221 5.61352 98.5177 6.14064 95.6847 8.81932C95.2212 9.25756 93.7591 10.6973 92.8312 11.611L92.8307 11.6115C92.4505 11.9859 92.1601 12.2718 92.0649 12.3643ZM139.218 3.67981C139.088 3.67981 138.983 3.78479 138.983 3.91428V13.4153C138.983 13.5448 139.088 13.6498 139.218 13.6498H141.382C141.511 13.6498 141.616 13.5448 141.616 13.4153V11.2887H149.413C149.514 11.2887 149.601 11.2241 149.633 11.1337C150.229 11.0737 151.392 10.8611 152.148 10.1078C153.202 9.05833 153.202 8.00886 153.202 7.48412C153.202 6.95938 153.202 5.90991 152.148 4.86043C151.392 4.10699 150.229 3.89446 149.633 3.83451C149.6 3.74452 149.514 3.68026 149.413 3.68026H141.397C141.392 3.67996 141.387 3.67981 141.382 3.67981H139.218ZM149.547 6.26135C149.509 6.28819 149.463 6.30395 149.413 6.30395H141.616V8.66497H149.413C149.462 8.66497 149.509 8.68056 149.547 8.70713C149.935 8.56154 150.569 8.2123 150.569 7.48412C150.569 6.75634 149.935 6.40708 149.547 6.26135ZM163.499 3.81141L163.508 3.81158H168.765C168.895 3.81158 168.999 3.91656 168.999 4.04606V6.9879C168.999 7.1174 168.895 7.22238 168.765 7.22238H163.733V13.547C163.733 13.6765 163.628 13.7814 163.499 13.7814H160.545C160.416 13.7814 160.311 13.6765 160.311 13.547V7.22238H155.279C155.15 7.22238 155.045 7.1174 155.045 6.9879V4.04606C155.045 3.91656 155.15 3.81158 155.279 3.81158H160.536L160.545 3.81141H163.499ZM103.838 10.5013H96.7294C96.5112 10.5013 96.3344 10.3251 96.3344 10.1078C96.3344 9.89044 96.5112 9.71424 96.7294 9.71424H103.838C104.057 9.71424 104.233 9.89044 104.233 10.1078C104.233 10.3251 104.057 10.5013 103.838 10.5013ZM108.939 3.81118C108.809 3.81118 108.704 3.91616 108.704 4.04566V4.04572V4.8886V12.7041V13.5467V13.547C108.704 13.6765 108.809 13.7815 108.939 13.7815H118.212C118.281 13.7815 118.343 13.7517 118.386 13.7043C120.342 13.3317 121.342 11.6197 121.342 8.79642C121.342 5.97318 120.342 4.2612 118.386 3.88857C118.343 3.84108 118.281 3.81124 118.212 3.81124H109.791L109.786 3.81118H108.939ZM117.517 12.4696L117.525 12.4696C119.214 12.4696 120.026 11.3571 120.026 8.79642C120.026 6.23575 119.214 5.12326 117.525 5.12326L117.509 5.12308H110.021V12.4696H117.517ZM135.083 9.92357C135.002 8.59844 134.781 7.59734 134.434 7.04736C133.885 6.17665 132.555 5.67197 130.334 5.64789L130.341 5.64776L130.327 5.64782L130.313 5.64787L130.321 5.64794C128.024 5.69029 126.638 6.20274 126.069 7.06521C125.647 7.7055 125.404 8.78385 125.324 10.2467C125.285 10.9629 125.284 11.6021 125.306 12.7441C125.318 13.3776 125.321 13.5256 125.321 13.7812H123.214C123.214 13.5448 123.212 13.4008 123.2 12.784C123.177 11.5929 123.178 10.9149 123.221 10.1326C123.32 8.33004 123.633 6.9376 124.309 5.91251C125.341 4.34679 127.371 3.59932 130.305 3.54894L130.333 3.54883C133.21 3.5761 135.209 4.33141 136.218 5.93036C136.799 6.85217 137.084 8.14655 137.186 9.79472C137.243 10.7142 137.239 11.5859 137.198 12.7905L137.195 12.8813C137.19 13.0249 137.18 13.2916 137.178 13.3734C137.172 13.5573 137.169 13.6852 137.169 13.7812H135.063C135.063 13.6577 135.066 13.511 135.072 13.3066C135.075 13.2213 135.085 12.9501 135.09 12.807L135.09 12.8021L135.093 12.7192C135.132 11.5762 135.135 10.7605 135.083 9.92357ZM130.321 5.64794L130.327 5.64782L130.334 5.64789L130.327 5.64801L130.321 5.64794ZM126.345 9.78968C126.345 9.53069 126.555 9.32073 126.814 9.32073H133.512C133.771 9.32073 133.981 9.53069 133.981 9.78968V10.9507C133.981 11.2097 133.771 11.4197 133.512 11.4197H126.814C126.555 11.4197 126.345 11.2097 126.345 10.9507V9.78968Z" fill="white"/>
<path fill-rule="evenodd" clip-rule="evenodd" d="M68.1334 4.23291L71.7881 7.88764L75.4428 4.23291L75.793 4.58306L72.1382 8.23779L75.793 11.8925L75.4428 12.2427L71.7881 8.58795L68.1334 12.2427L67.7832 11.8925L71.4379 8.23779L67.7832 4.58306L68.1334 4.23291Z" fill="white" stroke="white" stroke-width="1.28963" stroke-linejoin="round"/>
<path fill-rule="evenodd" clip-rule="evenodd" d="M5.97474 18.0475C4.36086 17.9875 3.04047 17.5745 2.00803 16.8073C1.811 16.6608 1.34148 16.2214 1.18396 16.0361C0.765292 15.5437 0.480653 15.0645 0.290802 14.5328C-0.293399 12.8962 0.00726793 10.7486 1.1508 8.39165C2.1299 6.3738 3.6407 4.37249 6.27651 1.60069C6.66478 1.19283 7.82102 0 7.82849 0C7.83125 0 7.76824 0.102095 7.68893 0.226417C7.00359 1.30009 6.41717 2.56477 6.09771 3.65964C5.58454 5.41644 5.64644 6.92408 6.279 8.09312C6.71535 8.89851 7.46343 9.59611 8.30463 9.98174C9.7773 10.6566 11.9334 10.7124 14.5664 10.1451C14.7477 10.1058 23.7307 7.87549 34.5287 5.18873C45.3268 2.5017 54.163 0.304991 54.1644 0.3068C54.1674 0.309127 29.0775 10.3506 16.0529 15.56C13.9902 16.3847 13.4386 16.5931 12.4689 16.9115C9.99008 17.7257 7.76962 18.1141 5.97474 18.0475Z" fill="white"/>
<path d="M6.53267 46.3501H4.50639L0.287642 62.0234H2.31392L6.53267 46.3501ZM11.1363 60.0547H13.5078V55.6314H16.0135C19.0369 55.6314 20.6605 53.8161 20.6605 51.2976C20.6605 48.7983 19.0561 46.9638 16.0454 46.9638H11.1363V60.0547ZM13.5078 53.6818V48.9453H15.6811C17.4581 48.9453 18.2443 49.9041 18.2443 51.2976C18.2443 52.6911 17.4581 53.6818 15.6939 53.6818H13.5078ZM21.8981 60.0547H24.212V54.2827C24.212 53.0362 25.1516 52.1541 26.4236 52.1541C26.8135 52.1541 27.2993 52.2244 27.4975 52.2884V50.1598C27.2866 50.1214 26.9222 50.0959 26.6665 50.0959C25.5415 50.0959 24.6019 50.7351 24.2439 51.8729H24.1417V50.2365H21.8981V60.0547ZM32.1932 60.2464C35.0696 60.2464 36.8977 58.2202 36.8977 55.1839C36.8977 52.1413 35.0696 50.1087 32.1932 50.1087C29.3167 50.1087 27.4886 52.1413 27.4886 55.1839C27.4886 58.2202 29.3167 60.2464 32.1932 60.2464ZM32.2059 58.3928C30.6143 58.3928 29.8345 56.9737 29.8345 55.1776C29.8345 53.3814 30.6143 51.9432 32.2059 51.9432C33.772 51.9432 34.5518 53.3814 34.5518 55.1776C34.5518 56.9737 33.772 58.3928 32.2059 58.3928ZM38.1417 50.2365V60.5852C38.1417 61.4098 37.7901 61.8509 36.9016 61.8509C36.7865 61.8509 36.6971 61.8445 36.5692 61.8381V63.7237C36.7354 63.7365 36.876 63.7365 37.0422 63.7365C39.2091 63.7365 40.4556 62.7393 40.4556 60.6172V50.2365H38.1417ZM39.2922 48.843C40.0273 48.843 40.6282 48.2805 40.6282 47.5902C40.6282 46.8935 40.0273 46.331 39.2922 46.331C38.5507 46.331 37.9499 46.8935 37.9499 47.5902C37.9499 48.2805 38.5507 48.843 39.2922 48.843ZM46.4616 60.2464C48.75 60.2464 50.3224 59.1278 50.7315 57.4212L48.571 57.1783C48.2578 58.0092 47.4907 58.4439 46.4936 58.4439C44.9978 58.4439 44.0071 57.4595 43.9879 55.7784H50.8274V55.0689C50.8274 51.6236 48.7563 50.1087 46.3402 50.1087C43.5277 50.1087 41.6931 52.1733 41.6931 55.2031C41.6931 58.2841 43.5021 60.2464 46.4616 60.2464ZM43.9943 54.2188C44.0646 52.9659 44.9914 51.9112 46.3721 51.9112C47.7017 51.9112 48.5965 52.8828 48.6093 54.2188H43.9943ZM56.3476 60.2464C58.8149 60.2464 60.3874 58.7827 60.5536 56.6989H58.3419C58.1438 57.7536 57.3831 58.3608 56.3668 58.3608C54.9222 58.3608 53.9889 57.1527 53.9889 55.1456C53.9889 53.1641 54.9414 51.9751 56.3668 51.9751C57.479 51.9751 58.1629 52.6911 58.3419 53.6371H60.5536C60.3938 51.5085 58.7318 50.1087 56.3348 50.1087C53.4584 50.1087 51.6431 52.1861 51.6431 55.1839C51.6431 58.1562 53.4137 60.2464 56.3476 60.2464ZM66.6363 50.2365H64.6995V47.8842H62.3856V50.2365H60.9921V52.0263H62.3856V57.4851C62.3728 59.3324 63.7151 60.2401 65.4538 60.1889C66.1122 60.1697 66.566 60.0419 66.8153 59.9588L66.4254 58.1499C66.2975 58.1818 66.0355 58.2393 65.7478 58.2393C65.1661 58.2393 64.6995 58.0348 64.6995 57.1016V52.0263H66.6363V50.2365ZM75.4708 52.8317C75.1512 51.1697 73.8217 50.1087 71.5205 50.1087C69.1555 50.1087 67.5447 51.272 67.5511 53.0874C67.5447 54.5192 68.4268 55.4652 70.3124 55.8551L71.9871 56.2067C72.8884 56.4048 73.3103 56.7692 73.3103 57.3253C73.3103 57.9964 72.5816 58.5014 71.4822 58.5014C70.4211 58.5014 69.7308 58.0412 69.5326 57.1591L67.2762 57.3764C67.5639 59.179 69.0788 60.2464 71.4886 60.2464C73.9431 60.2464 75.6754 58.9744 75.6818 57.1143C75.6754 55.7145 74.7741 54.858 72.9204 54.4553L71.2457 54.0973C70.2485 53.8736 69.8522 53.5284 69.8586 52.9595C69.8522 52.2947 70.5873 51.8345 71.5525 51.8345C72.62 51.8345 73.1825 52.4162 73.3614 53.0618L75.4708 52.8317Z" fill="white"/>
<path d="M103.533 46.3501H101.506L97.2876 62.0234H99.3139L103.533 46.3501ZM118.894 46.9638H116.535V55.8871H116.42L110.259 46.9638H108.136V60.0547H110.508V51.1378H110.616L116.785 60.0547H118.894V46.9638ZM120.656 60.0547H122.97V50.2365H120.656V60.0547ZM121.819 48.843C122.554 48.843 123.155 48.2805 123.155 47.5902C123.155 46.8935 122.554 46.331 121.819 46.331C121.078 46.331 120.477 46.8935 120.477 47.5902C120.477 48.2805 121.078 48.843 121.819 48.843ZM124.629 60.0547H126.943V56.7564L127.787 55.8551L130.791 60.0547H133.559L129.532 54.4744L133.335 50.2365H130.631L127.103 54.1804H126.943V46.9638H124.629V60.0547ZM138.1 60.2464C140.388 60.2464 141.96 59.1278 142.369 57.4212L140.209 57.1783C139.896 58.0092 139.129 58.4439 138.132 58.4439C136.636 58.4439 135.645 57.4595 135.626 55.7784H142.465V55.0689C142.465 51.6236 140.394 50.1087 137.978 50.1087C135.166 50.1087 133.331 52.1733 133.331 55.2031C133.331 58.2841 135.14 60.2464 138.1 60.2464ZM135.632 54.2188C135.703 52.9659 136.629 51.9112 138.01 51.9112C139.34 51.9112 140.235 52.8828 140.247 54.2188H135.632Z" fill="white"/>
<path d="M473.967 46.3501H471.941L467.722 62.0234H469.748L473.967 46.3501ZM479.537 60.304C482.694 60.3104 484.58 57.8175 484.58 53.522C484.58 49.2521 482.681 46.7848 479.537 46.7848C476.392 46.7848 474.5 49.2457 474.493 53.522C474.493 57.8111 476.379 60.304 479.537 60.304ZM479.537 58.3033C477.907 58.3033 476.884 56.6669 476.89 53.522C476.897 50.4027 477.913 48.7599 479.537 48.7599C481.167 48.7599 482.183 50.4027 482.189 53.522C482.189 56.6669 481.173 58.3033 479.537 58.3033ZM485.984 60.0547H494.958V58.0732H489.256V57.9837L491.513 55.6889C494.057 53.2472 494.76 52.0582 494.76 50.5817C494.76 48.3892 492.977 46.7848 490.343 46.7848C487.748 46.7848 485.907 48.3956 485.907 50.8821H488.163C488.163 49.5462 489.007 48.7088 490.311 48.7088C491.558 48.7088 492.484 49.4695 492.484 50.7031C492.484 51.7962 491.82 52.576 490.528 53.8864L485.984 58.3416V60.0547Z" fill="white"/>
</svg>
