<svg width="496" height="76" viewBox="0 0 496 76" fill="none" xmlns="http://www.w3.org/2000/svg">
<path fill-rule="evenodd" clip-rule="evenodd" d="M46.9694 20.5396C44.0143 22.6082 40.5233 24.7731 36.7726 27.0503L36.6265 27.1304C36.5777 27.1625 36.5615 27.2267 36.594 27.2908C36.6265 27.3389 36.6914 27.3549 36.7563 27.3229L36.8862 27.2587C40.0687 25.623 43.7383 23.6666 47.4078 21.6621C47.4241 21.6461 47.4403 21.6461 47.4728 21.63C47.2617 21.2933 47.0831 20.9244 46.9694 20.5396ZM66.3239 5.06445C61.6801 -0.0029757 31.7878 4.5513 19.0743 7.29348L18.782 7.35762C18.717 7.37366 18.6846 7.42177 18.6846 7.48591C18.7008 7.55006 18.7495 7.58213 18.8145 7.58213L19.1067 7.51799C29.6283 5.67383 51.532 3.10804 56.257 7.72646C57.7021 9.13764 57.3449 10.9497 55.6887 13.0825C56.5817 13.6598 57.2312 14.5579 57.5235 15.6804C64.0183 11.3987 68.386 7.32555 66.3239 5.06445Z" fill="#A12830"/>
<path fill-rule="evenodd" clip-rule="evenodd" d="M48.8532 19.2082C48.9182 20.9882 50.0548 22.4475 51.5486 22.4475C54.4388 22.4475 55.6565 18.9516 55.5753 16.6103C55.5104 14.8303 54.3413 13.371 52.8638 13.371C50.3633 13.371 48.772 16.8509 48.8532 19.2082ZM47.3269 19.1118C47.2133 16.0649 49.6326 12.9699 53.1398 12.9699C55.4779 12.9699 57.0204 14.5094 57.1016 16.8667C57.2153 20.074 54.9583 23.0086 51.2888 23.0086C48.9506 23.0086 47.4081 21.4691 47.3269 19.1118ZM14.1547 18.3102C14.0248 18.3583 13.8624 18.4064 13.6676 18.4385C13.4727 18.4866 13.0993 18.5508 12.5797 18.6309C12.2225 18.6951 11.9627 18.7592 11.8166 18.8715C11.6704 18.9677 11.5893 19.096 11.573 19.2403C11.5405 19.4007 11.5893 19.529 11.7354 19.6252C11.8815 19.7214 12.1088 19.7695 12.4336 19.7695C12.6771 19.7695 12.9207 19.7374 13.1642 19.6572C13.4078 19.5771 13.6026 19.4808 13.765 19.3526C13.8787 19.2563 13.9599 19.1281 14.0248 18.9837C14.041 18.8715 14.0898 18.647 14.1547 18.3102ZM17.2073 16.4336C17.191 16.7062 17.1423 16.9627 17.0774 17.3797L16.5578 20.2341C16.5091 20.4907 16.6065 20.6831 16.8501 20.8275L16.8338 20.9397H13.8787L13.8462 20.2181C13.4241 20.4747 12.9045 20.6831 12.4336 20.8114C11.9627 20.9237 11.5893 20.9878 11.021 20.9878C10.063 20.9878 9.52718 20.8916 9.15373 20.5709C8.76404 20.2341 8.58543 20.0096 8.60167 19.5446C8.61791 19.272 8.7478 18.9352 8.95888 18.6947C9.16996 18.4541 9.44599 18.2938 9.73826 18.1494C10.0468 18.0051 10.404 17.9089 10.9236 17.8287C11.4431 17.7485 12.1738 17.6683 13.148 17.5882C13.6514 17.5401 13.9761 17.4278 14.1223 17.3797C14.3333 17.2995 14.3983 17.2193 14.4308 17.059C14.4795 16.7703 14.3983 16.5939 13.9924 16.5137C12.9369 16.3053 10.9398 16.642 9.91687 16.8986L10.4689 15.4072C11.8166 15.2148 13.0993 15.0865 14.4308 15.0865C16.5416 15.0705 17.2235 15.6638 17.2073 16.4336ZM25.748 20.9399L26.7709 15.2311H29.5961L28.5732 20.9399H25.748ZM26.9332 13.916C27.0144 13.451 27.7613 13.0661 28.6056 13.0661C29.45 13.0661 30.0507 13.451 29.9695 13.916C29.8884 14.3811 29.1252 14.7659 28.2971 14.7659C27.4528 14.7659 26.8358 14.3811 26.9332 13.916ZM39.6306 18.326C39.5007 18.3741 39.3383 18.4223 39.1435 18.4543C38.9486 18.5024 38.5752 18.5666 38.0393 18.6468C37.6821 18.7109 37.4223 18.775 37.2762 18.8873C37.1463 18.9835 37.0651 19.1118 37.0327 19.2561C37.0002 19.4165 37.0651 19.5448 37.195 19.641C37.3412 19.7372 37.5685 19.7853 37.9095 19.7853C38.153 19.7853 38.3966 19.7533 38.6401 19.6731C38.8837 19.5929 39.0785 19.4967 39.2409 19.3684C39.3545 19.2722 39.4357 19.1439 39.4844 18.9996C39.5169 18.8873 39.5656 18.6628 39.6306 18.326ZM42.6669 16.4497C42.6507 16.7223 42.602 16.9789 42.5208 17.3958L42.0174 20.2503C41.9687 20.5068 42.0662 20.6993 42.3097 20.8436L42.2935 20.9398H39.3383L39.3221 20.2182C38.8837 20.4748 38.3641 20.6832 37.9095 20.8115C37.4386 20.9398 37.0652 20.9879 36.4969 20.9879C35.5389 20.9879 35.0031 20.8917 34.6296 20.571C34.2399 20.2342 34.0613 20.0097 34.0776 19.5447C34.0938 19.2721 34.2237 18.9353 34.4348 18.6948C34.6459 18.4542 34.9219 18.2939 35.2141 18.1495C35.5226 18.0052 35.8799 17.909 36.3994 17.8128C36.919 17.7326 37.6497 17.6524 38.6239 17.5722C39.1273 17.5241 39.4358 17.4119 39.5819 17.3638C39.793 17.2836 39.8742 17.2034 39.9066 17.027C39.9553 16.7383 39.8579 16.5619 39.4682 16.4818C38.3966 16.2733 36.4157 16.6101 35.3928 16.8666L35.9448 15.3753C37.3087 15.1828 38.559 15.0546 39.9066 15.0546C42.0012 15.0866 42.6832 15.68 42.6669 16.4497ZM8.21199 18.8872C7.28648 19.0636 6.78313 19.1438 5.87386 19.1438C4.52619 19.1438 3.45454 18.4863 3.50326 17.2676C3.55197 16.4658 4.50995 14.7499 6.97797 14.7499C7.75735 14.7499 8.35812 14.8782 9.16997 15.3432L9.52718 13.3708C8.42307 12.9539 7.6924 12.8897 6.73442 12.9057C3.50326 12.9378 0.401989 14.3811 0.0285378 17.3317C-0.36115 20.3305 3.34089 21.0842 4.98082 21.0682C5.92257 21.0682 6.91303 21.0201 7.83854 20.9399L8.21199 18.8872ZM31.1549 15.1987L31.3497 14.0441L34.3048 13.4027L33.9963 15.1987H35.4414L35.1654 16.3533H33.769L32.9247 20.9397C32.9247 20.9397 30.0832 20.9236 30.067 20.9397L30.9113 16.3694H29.8397L30.0507 15.2148H31.1549V15.1987ZM45.5408 20.9397H42.6506L44.0957 12.9858L46.9047 13.0659L45.5408 20.9397ZM22.0134 16.578C21.64 16.578 21.3152 16.6903 21.0067 16.9148C20.7145 17.1393 20.5196 17.46 20.4547 17.893C20.3735 18.3901 20.4222 18.7429 20.6171 18.9674C20.8119 19.1919 21.1042 19.3041 21.4938 19.3041C21.7536 19.3041 22.0134 19.256 22.2083 19.1598C22.4518 19.0315 22.6142 18.9032 22.7603 18.6948C22.9227 18.4703 23.0201 18.2297 23.0688 17.9411C23.15 17.4921 23.0851 17.1553 22.874 16.9308C22.6629 16.6903 22.3869 16.578 22.0134 16.578ZM16.8663 22.9124L18.2465 15.2632H20.7307L20.5359 16.2414C20.747 15.9527 21.0879 15.7122 21.5751 15.5197C22.0459 15.3273 22.598 15.183 23.1825 15.183C23.832 15.183 24.2217 15.215 24.7088 15.4716C25.1959 15.7282 25.5206 16.081 25.7155 16.5621C25.8941 17.0271 25.9428 17.5403 25.8454 18.1176C25.683 19.0637 25.2121 19.8014 24.449 20.3466C23.6859 20.8918 23.0039 21.0362 22.0459 21.0362C21.705 21.0362 21.4127 21.0041 21.1691 20.94C20.9418 20.8758 20.747 20.8117 20.6008 20.7155C20.4709 20.6192 20.3248 20.507 20.13 20.2985L19.6753 22.9124H16.8663ZM68.1428 17.2838C68.1265 16.8188 67.8992 16.5141 67.4121 16.5141C66.2593 16.5141 65.0253 18.7592 64.8142 19.6572C66.6977 19.6572 68.1753 18.5346 68.1428 17.2838ZM68.3863 20.7957L68.6136 20.94C68.0453 22.0786 66.8925 22.9927 65.5448 22.9927C64.4407 22.9927 63.5314 22.271 63.4827 20.908C63.4015 18.4705 65.7072 16.1933 67.6069 16.1933C68.4188 16.1933 69.1819 16.5461 69.2144 17.4121C69.2793 19.3525 66.5191 19.9458 64.7005 19.9939C64.6356 20.2024 64.6193 20.3948 64.6356 20.7155C64.668 21.5173 65.1551 22.2069 66.1781 22.2069C67.0549 22.1748 67.9317 21.4853 68.3863 20.7957Z" fill="white"/>
<path fill-rule="evenodd" clip-rule="evenodd" d="M57.0526 17.2195C57.2475 17.1874 57.5722 17.1554 57.7021 17.1554C57.9132 17.1554 58.108 17.1874 58.108 17.3959C58.108 17.5242 57.897 18.3901 57.8482 18.5826L57.4098 20.5069C57.2312 21.2927 57.0364 22.1105 56.874 22.768H58.0106L58.6439 19.7372C60.5923 17.7487 61.3392 17.0912 61.7938 17.0912C62.0049 17.0912 62.1348 17.2035 62.151 17.444C62.1673 17.7968 61.94 18.5986 61.8588 18.8231L61.2093 21.0361C61.0632 21.5332 60.9495 21.9822 60.9657 22.303C60.982 22.7841 61.2905 23.0086 61.7289 23.0086C62.557 23.0086 63.1577 22.1586 63.6773 21.3248L63.5312 21.0522C63.3201 21.3889 62.833 22.1266 62.4433 22.1266C62.3134 22.1266 62.1998 22.0464 62.1998 21.8379C62.1835 21.5813 62.2972 21.1965 62.3784 20.9399L63.0928 18.342C63.2876 17.6204 63.3851 17.1714 63.3688 16.9148C63.3526 16.4337 63.0603 16.2092 62.6219 16.2092C61.875 16.2092 60.8846 16.7384 58.79 19.1278H58.7575L59.0173 17.9732C59.1634 17.3318 59.2933 16.6743 59.4395 16.2253C58.7088 16.4818 57.6859 16.7705 57.0364 16.8988L57.0526 17.2195Z" fill="white"/>
<path fill-rule="evenodd" clip-rule="evenodd" d="M86.9141 11.0808L90.6149 14.7816L94.3156 11.0808L94.6702 11.4354L90.9695 15.1361L94.6702 18.8369L94.3156 19.1914L90.6149 15.4907L86.9141 19.1914L86.5596 18.8369L90.2603 15.1361L86.5596 11.4354L86.9141 11.0808Z" fill="white" stroke="white" stroke-width="1.24651" stroke-linejoin="round"/>
<path fill-rule="evenodd" clip-rule="evenodd" d="M137.804 14.5425L146.807 29.7776H128.802L137.804 14.5425Z" fill="#C13D3A"/>
<path fill-rule="evenodd" clip-rule="evenodd" d="M112.182 29.7778H120.243L130.248 13.124L133.948 18.9997L137.804 13.124L130.248 0L112.182 29.7778Z" fill="white"/>
<path d="M6.53267 58.0733H4.50639L0.287642 73.7466H2.31392L6.53267 58.0733ZM11.1363 71.7778H13.5078V67.3545H16.0135C19.0369 67.3545 20.6605 65.5392 20.6605 63.0207C20.6605 60.5214 19.0561 58.6869 16.0454 58.6869H11.1363V71.7778ZM13.5078 65.405V60.6685H15.6811C17.4581 60.6685 18.2443 61.6273 18.2443 63.0207C18.2443 64.4142 17.4581 65.405 15.6939 65.405H13.5078ZM21.8981 71.7778H24.212V66.0058C24.212 64.7594 25.1516 63.8773 26.4236 63.8773C26.8135 63.8773 27.2993 63.9476 27.4975 64.0115V61.8829C27.2866 61.8446 26.9222 61.819 26.6665 61.819C25.5415 61.819 24.6019 62.4582 24.2439 63.596H24.1417V61.9596H21.8981V71.7778ZM32.1932 71.9696C35.0696 71.9696 36.8977 69.9433 36.8977 66.9071C36.8977 63.8645 35.0696 61.8318 32.1932 61.8318C29.3167 61.8318 27.4886 63.8645 27.4886 66.9071C27.4886 69.9433 29.3167 71.9696 32.1932 71.9696ZM32.2059 70.1159C30.6143 70.1159 29.8345 68.6969 29.8345 66.9007C29.8345 65.1045 30.6143 63.6663 32.2059 63.6663C33.772 63.6663 34.5518 65.1045 34.5518 66.9007C34.5518 68.6969 33.772 70.1159 32.2059 70.1159ZM38.1417 61.9596V72.3084C38.1417 73.1329 37.7901 73.574 36.9016 73.574C36.7865 73.574 36.6971 73.5676 36.5692 73.5612V75.4469C36.7354 75.4597 36.876 75.4597 37.0422 75.4597C39.2091 75.4597 40.4556 74.4625 40.4556 72.3403V61.9596H38.1417ZM39.2922 60.5662C40.0273 60.5662 40.6282 60.0037 40.6282 59.3133C40.6282 58.6166 40.0273 58.0541 39.2922 58.0541C38.5507 58.0541 37.9499 58.6166 37.9499 59.3133C37.9499 60.0037 38.5507 60.5662 39.2922 60.5662ZM46.4616 71.9696C48.75 71.9696 50.3224 70.851 50.7315 69.1443L48.571 68.9014C48.2578 69.7324 47.4907 70.167 46.4936 70.167C44.9978 70.167 44.0071 69.1827 43.9879 67.5016H50.8274V66.792C50.8274 63.3467 48.7563 61.8318 46.3402 61.8318C43.5277 61.8318 41.6931 63.8964 41.6931 66.9263C41.6931 70.0072 43.5021 71.9696 46.4616 71.9696ZM43.9943 65.9419C44.0646 64.6891 44.9914 63.6344 46.3721 63.6344C47.7017 63.6344 48.5965 64.606 48.6093 65.9419H43.9943ZM56.3476 71.9696C58.8149 71.9696 60.3874 70.5058 60.5536 68.422H58.3419C58.1438 69.4767 57.3831 70.0839 56.3668 70.0839C54.9222 70.0839 53.9889 68.8758 53.9889 66.8687C53.9889 64.8872 54.9414 63.6983 56.3668 63.6983C57.479 63.6983 58.1629 64.4142 58.3419 65.3602H60.5536C60.3938 63.2317 58.7318 61.8318 56.3348 61.8318C53.4584 61.8318 51.6431 63.9092 51.6431 66.9071C51.6431 69.8794 53.4137 71.9696 56.3476 71.9696ZM66.6363 61.9596H64.6995V59.6074H62.3856V61.9596H60.9921V63.7494H62.3856V69.2082C62.3728 71.0555 63.7151 71.9632 65.4538 71.9121C66.1122 71.8929 66.566 71.765 66.8153 71.682L66.4254 69.873C66.2975 69.905 66.0355 69.9625 65.7478 69.9625C65.1661 69.9625 64.6995 69.7579 64.6995 68.8247V63.7494H66.6363V61.9596ZM75.4708 64.5548C75.1512 62.8929 73.8217 61.8318 71.5205 61.8318C69.1555 61.8318 67.5447 62.9952 67.5511 64.8105C67.5447 66.2423 68.4268 67.1883 70.3124 67.5783L71.9871 67.9298C72.8884 68.128 73.3103 68.4923 73.3103 69.0484C73.3103 69.7196 72.5816 70.2246 71.4822 70.2246C70.4211 70.2246 69.7308 69.7643 69.5326 68.8822L67.2762 69.0996C67.5639 70.9021 69.0788 71.9696 71.4886 71.9696C73.9431 71.9696 75.6754 70.6976 75.6818 68.8375C75.6754 67.4376 74.7741 66.5811 72.9204 66.1784L71.2457 65.8204C70.2485 65.5967 69.8522 65.2516 69.8586 64.6827C69.8522 64.0179 70.5873 63.5577 71.5525 63.5577C72.62 63.5577 73.1825 64.1393 73.3614 64.7849L75.4708 64.5548Z" fill="white"/>
<path d="M103.533 58.0733H101.506L97.2876 73.7466H99.3139L103.533 58.0733ZM119.342 63.1038C118.939 60.1954 116.702 58.5079 113.8 58.5079C110.38 58.5079 107.804 61.0008 107.804 65.2324C107.804 69.4575 110.348 71.9568 113.8 71.9568C116.913 71.9568 118.977 69.9433 119.342 67.444L116.951 67.4312C116.651 68.9653 115.398 69.8283 113.832 69.8283C111.71 69.8283 110.188 68.2366 110.188 65.2324C110.188 62.2793 111.697 60.6365 113.838 60.6365C115.43 60.6365 116.676 61.5378 116.951 63.1038H119.342ZM123.516 71.976C125.057 71.976 125.977 71.2537 126.399 70.4291H126.476V71.7778H128.7V65.2068C128.7 62.6116 126.584 61.8318 124.712 61.8318C122.647 61.8318 121.062 62.7523 120.55 64.542L122.711 64.8489C122.941 64.1777 123.593 63.6024 124.724 63.6024C125.798 63.6024 126.386 64.1521 126.386 65.1173V65.1557C126.386 65.8204 125.69 65.8524 123.957 66.0378C122.053 66.2423 120.231 66.8112 120.231 69.0229C120.231 70.9533 121.643 71.976 123.516 71.976ZM124.117 70.2757C123.152 70.2757 122.462 69.8347 122.462 68.9845C122.462 68.096 123.235 67.7253 124.271 67.5783C124.878 67.4952 126.092 67.3418 126.393 67.0989V68.2558C126.393 69.3489 125.511 70.2757 124.117 70.2757ZM130.307 75.4597H132.621V70.231H132.717C133.081 70.9469 133.842 71.9504 135.529 71.9504C137.843 71.9504 139.575 70.1159 139.575 66.8815C139.575 63.6088 137.792 61.8318 135.523 61.8318C133.791 61.8318 133.068 62.8737 132.717 63.5832H132.583V61.9596H130.307V75.4597ZM132.576 66.8687C132.576 64.9639 133.394 63.7302 134.884 63.7302C136.424 63.7302 137.217 65.0406 137.217 66.8687C137.217 68.7097 136.411 70.052 134.884 70.052C133.407 70.052 132.576 68.7736 132.576 66.8687ZM140.837 71.7778H143.151V61.9596H140.837V71.7778ZM142 60.5662C142.735 60.5662 143.336 60.0037 143.336 59.3133C143.336 58.6166 142.735 58.0541 142 58.0541C141.259 58.0541 140.658 58.6166 140.658 59.3133C140.658 60.0037 141.259 60.5662 142 60.5662ZM149.713 61.9596H147.776V59.6074H145.462V61.9596H144.069V63.7494H145.462V69.2082C145.45 71.0555 146.792 71.9632 148.53 71.9121C149.189 71.8929 149.643 71.765 149.892 71.682L149.502 69.873C149.374 69.905 149.112 69.9625 148.825 69.9625C148.243 69.9625 147.776 69.7579 147.776 68.8247V63.7494H149.713V61.9596ZM153.754 71.976C155.294 71.976 156.214 71.2537 156.636 70.4291H156.713V71.7778H158.937V65.2068C158.937 62.6116 156.822 61.8318 154.949 61.8318C152.884 61.8318 151.299 62.7523 150.788 64.542L152.948 64.8489C153.178 64.1777 153.83 63.6024 154.962 63.6024C156.035 63.6024 156.624 64.1521 156.624 65.1173V65.1557C156.624 65.8204 155.927 65.8524 154.195 66.0378C152.29 66.2423 150.468 66.8112 150.468 69.0229C150.468 70.9533 151.881 71.976 153.754 71.976ZM154.354 70.2757C153.389 70.2757 152.699 69.8347 152.699 68.9845C152.699 68.096 153.472 67.7253 154.508 67.5783C155.115 67.4952 156.329 67.3418 156.63 67.0989V68.2558C156.63 69.3489 155.748 70.2757 154.354 70.2757ZM162.858 58.6869H160.544V71.7778H162.858V58.6869ZM180.062 65.2324C180.062 61.0008 177.48 58.5079 174.047 58.5079C170.608 58.5079 168.032 61.0008 168.032 65.2324C168.032 69.4575 170.608 71.9568 174.047 71.9568C177.48 71.9568 180.062 69.4639 180.062 65.2324ZM177.678 65.2324C177.678 68.2111 176.182 69.8283 174.047 69.8283C171.919 69.8283 170.416 68.2111 170.416 65.2324C170.416 62.2537 171.919 60.6365 174.047 60.6365C176.182 60.6365 177.678 62.2537 177.678 65.2324ZM183.796 66.025C183.796 64.606 184.652 63.7878 185.873 63.7878C187.068 63.7878 187.784 64.574 187.784 65.8844V71.7778H190.098V65.5264C190.105 63.1741 188.762 61.8318 186.736 61.8318C185.266 61.8318 184.256 62.5349 183.809 63.628H183.693V61.9596H181.482V71.7778H183.796V66.025ZM196.077 71.9696C198.366 71.9696 199.938 70.851 200.347 69.1443L198.187 68.9014C197.873 69.7324 197.106 70.167 196.109 70.167C194.613 70.167 193.623 69.1827 193.603 67.5016H200.443V66.792C200.443 63.3467 198.372 61.8318 195.956 61.8318C193.143 61.8318 191.309 63.8964 191.309 66.9263C191.309 70.0072 193.118 71.9696 196.077 71.9696ZM193.61 65.9419C193.68 64.6891 194.607 63.6344 195.988 63.6344C197.317 63.6344 198.212 64.606 198.225 65.9419H193.61Z" fill="white"/>
<path d="M473.158 58.0733H471.132L466.913 73.7466H468.939L473.158 58.0733ZM478.728 72.0271C481.886 72.0335 483.771 69.5406 483.771 65.2452C483.771 60.9753 481.873 58.5079 478.728 58.5079C475.583 58.5079 473.691 60.9689 473.685 65.2452C473.685 69.5342 475.57 72.0271 478.728 72.0271ZM478.728 70.0264C477.098 70.0264 476.075 68.39 476.082 65.2452C476.088 62.1258 477.104 60.4831 478.728 60.4831C480.358 60.4831 481.374 62.1258 481.381 65.2452C481.381 68.39 480.364 70.0264 478.728 70.0264ZM484.939 69.3489H491.184V71.7778H493.446V69.3489H495.121V67.3993H493.446V58.6869H490.493L484.939 67.4632V69.3489ZM491.209 67.3993H487.368V67.297L491.107 61.3716H491.209V67.3993Z" fill="white"/>
</svg>
