<?xml version="1.0" encoding="UTF-8" standalone="no"?>
<svg width="89px" height="60px" viewBox="0 0 89 60" version="1.1" xmlns="http://www.w3.org/2000/svg" xmlns:xlink="http://www.w3.org/1999/xlink" xmlns:sketch="http://www.bohemiancoding.com/sketch/ns">
    <!-- Generator: Sketch 3.3.3 (12081) - http://www.bohemiancoding.com/sketch -->
    <title>arrows</title>
    <desc>Created with Sketch.</desc>
    <defs></defs>
    <g id="Page-1" stroke="none" stroke-width="1" fill="none" fill-rule="evenodd" sketch:type="MSPage">
        <g id="arrows" sketch:type="MSLayerGroup" fill="#FFFFFF">
            <path d="M56.8087,29.3677612 L32.08005,29.3677612 C30.97467,29.3677612 30.07577,28.4632836 30.07577,27.3510448 L30.07577,2.4680597 C30.07577,1.3558209 30.97467,0.451343284 32.08005,0.451343284 L56.8087,0.451343284 C57.91408,0.451343284 58.81387,1.3558209 58.81387,2.4680597 L58.81387,27.3510448 C58.81387,28.4632836 57.91408,29.3677612 56.8087,29.3677612 L56.8087,29.3677612 Z M32.08005,1.79641791 C31.71159,1.79641791 31.41255,2.09731343 31.41255,2.4680597 L31.41255,27.3510448 C31.41255,27.721791 31.71159,28.0235821 32.08005,28.0235821 L56.8087,28.0235821 C57.17627,28.0235821 57.47709,27.721791 57.47709,27.3510448 L57.47709,2.4680597 C57.47709,2.09641791 57.17627,1.79641791 56.8087,1.79641791 L32.08005,1.79641791 L32.08005,1.79641791 Z" id="Shape" sketch:type="MSShapeGroup"></path>
            <path d="M37.53753,19.0567164 C37.36665,19.0567164 37.19577,18.9913433 37.06494,18.8597015 C36.80417,18.5973134 36.80417,18.1710448 37.06494,17.9086567 L43.97134,10.959403 C44.22143,10.7068657 44.66554,10.7068657 44.91652,10.959403 L51.82292,17.9086567 C52.08458,18.1710448 52.08458,18.5973134 51.82292,18.8597015 C51.56215,19.1220896 51.13851,19.1220896 50.87774,18.8597015 L44.44393,12.3859701 L38.01012,18.8597015 C37.88018,18.9913433 37.7093,19.0567164 37.53753,19.0567164 L37.53753,19.0567164 Z" id="Shape" sketch:type="MSShapeGroup"></path>
            <path d="M56.8087,59.6301493 L32.08005,59.6301493 C30.97467,59.6301493 30.07577,58.7247761 30.07577,57.6125373 L30.07577,32.7304478 C30.07577,31.618209 30.97467,30.7128358 32.08005,30.7128358 L56.8087,30.7128358 C57.91408,30.7128358 58.81387,31.618209 58.81387,32.7304478 L58.81387,57.6125373 C58.81387,58.7247761 57.91408,59.6301493 56.8087,59.6301493 L56.8087,59.6301493 Z M32.08005,32.0579104 C31.71159,32.0579104 31.41255,32.3597015 31.41255,32.7304478 L31.41255,57.6125373 C31.41255,57.9832836 31.71159,58.2841791 32.08005,58.2841791 L56.8087,58.2841791 C57.17627,58.2841791 57.47709,57.9832836 57.47709,57.6125373 L57.47709,32.7304478 C57.47709,32.3597015 57.17627,32.0579104 56.8087,32.0579104 L32.08005,32.0579104 L32.08005,32.0579104 Z" id="Shape" sketch:type="MSShapeGroup"></path>
            <path d="M44.44482,49.318209 C44.26771,49.318209 44.09772,49.2474627 43.97223,49.121194 L37.06583,42.1710448 C36.80506,41.9086567 36.80506,41.4823881 37.06583,41.22 C37.3266,40.9567164 37.74935,40.9567164 38.01101,41.22 L44.44482,47.6937313 L50.87863,41.22 C51.1394,40.9567164 51.56304,40.9567164 51.82381,41.22 C52.08547,41.4823881 52.08547,41.9086567 51.82381,42.1710448 L44.91741,49.121194 C44.79192,49.2474627 44.62193,49.318209 44.44482,49.318209 L44.44482,49.318209 Z" id="Shape" sketch:type="MSShapeGroup"></path>
            <path d="M86.88358,59.6301493 L62.15493,59.6301493 C61.04955,59.6301493 60.15065,58.7247761 60.15065,57.6125373 L60.15065,32.7304478 C60.15065,31.618209 61.04955,30.7128358 62.15493,30.7128358 L86.88358,30.7128358 C87.98896,30.7128358 88.88875,31.618209 88.88875,32.7304478 L88.88875,57.6125373 C88.88875,58.7247761 87.98896,59.6301493 86.88358,59.6301493 L86.88358,59.6301493 Z M62.15493,32.0579104 C61.78736,32.0579104 61.48654,32.3597015 61.48654,32.7304478 L61.48654,57.6125373 C61.48654,57.9832836 61.78736,58.2841791 62.15493,58.2841791 L86.88358,58.2841791 C87.25204,58.2841791 87.55197,57.9832836 87.55197,57.6125373 L87.55197,32.7304478 C87.55197,32.3597015 87.25204,32.0579104 86.88358,32.0579104 L62.15493,32.0579104 L62.15493,32.0579104 Z" id="Shape" sketch:type="MSShapeGroup"></path>
            <path d="M71.0665,52.7928358 C70.89651,52.7928358 70.72474,52.7274627 70.5948,52.5958209 C70.33314,52.3334328 70.33314,51.9071642 70.5948,51.6447761 L77.02861,45.1710448 L70.5948,38.6973134 C70.33314,38.4340299 70.33314,38.0086567 70.5948,37.7462687 C70.85557,37.4829851 71.27921,37.4829851 71.53998,37.7462687 L78.44638,44.6955224 C78.70715,44.958806 78.70715,45.3841791 78.44638,45.6465672 L71.53998,52.5958209 C71.40826,52.7274627 71.23738,52.7928358 71.0665,52.7928358 L71.0665,52.7928358 Z" id="Shape" sketch:type="MSShapeGroup"></path>
            <path d="M26.73382,59.6301493 L2.00517,59.6301493 C0.89979,59.6301493 0,58.7247761 0,57.6125373 L0,32.7304478 C0,31.618209 0.89979,30.7128358 2.00517,30.7128358 L26.73382,30.7128358 C27.8392,30.7128358 28.73899,31.618209 28.73899,32.7304478 L28.73899,57.6125373 C28.73899,58.7247761 27.8392,59.6301493 26.73382,59.6301493 L26.73382,59.6301493 Z M2.00517,32.0579104 C1.63671,32.0579104 1.33678,32.3597015 1.33678,32.7304478 L1.33678,57.6125373 C1.33678,57.9832836 1.63671,58.2841791 2.00517,58.2841791 L26.73382,58.2841791 C27.10228,58.2841791 27.40221,57.9832836 27.40221,57.6125373 L27.40221,32.7304478 C27.40221,32.3597015 27.10228,32.0579104 26.73382,32.0579104 L2.00517,32.0579104 L2.00517,32.0579104 Z" id="Shape" sketch:type="MSShapeGroup"></path>
            <path d="M17.82225,52.7928358 C17.65226,52.7928358 17.48049,52.7274627 17.34966,52.5958209 L10.44326,45.6465672 C10.18249,45.3832836 10.18249,44.9579104 10.44326,44.6955224 L17.34966,37.7462687 C17.61043,37.4829851 18.03407,37.4829851 18.29484,37.7462687 C18.55561,38.0086567 18.55561,38.4340299 18.29484,38.6973134 L11.86014,45.1710448 L18.29484,51.6447761 C18.55561,51.9071642 18.55561,52.3334328 18.29484,52.5958209 C18.16401,52.7274627 17.99313,52.7928358 17.82225,52.7928358 L17.82225,52.7928358 Z" id="Shape" sketch:type="MSShapeGroup"></path>
        </g>
    </g>
</svg>