<svg width="392" height="72" viewBox="0 0 392 72" fill="none" xmlns="http://www.w3.org/2000/svg">
<rect width="392" height="72" rx="36" fill="white" fill-opacity="0.2"/>
<path d="M103.533 29.2955H101.506L97.2876 44.9688H99.3139L103.533 29.2955ZM119.342 34.326C118.939 31.4176 116.702 29.7301 113.8 29.7301C110.38 29.7301 107.804 32.223 107.804 36.4545C107.804 40.6797 110.348 43.179 113.8 43.179C116.913 43.179 118.977 41.1655 119.342 38.6662L116.951 38.6534C116.651 40.1875 115.398 41.0504 113.832 41.0504C111.71 41.0504 110.188 39.4588 110.188 36.4545C110.188 33.5014 111.697 31.8587 113.838 31.8587C115.43 31.8587 116.676 32.7599 116.951 34.326H119.342ZM126.949 38.8707C126.949 40.3665 125.881 41.108 124.859 41.108C123.746 41.108 123.005 40.3217 123.005 39.0753V33.1818H120.691V39.4332C120.691 41.7919 122.033 43.1278 123.964 43.1278C125.434 43.1278 126.469 42.3544 126.917 41.255H127.019V43H129.263V33.1818H126.949V38.8707ZM130.922 43H133.236V37.228C133.236 35.9815 134.176 35.0994 135.448 35.0994C135.838 35.0994 136.323 35.1697 136.522 35.2337V33.1051C136.311 33.0668 135.946 33.0412 135.691 33.0412C134.566 33.0412 133.626 33.6804 133.268 34.8182H133.166V33.1818H130.922V43ZM137.339 43H139.653V37.228C139.653 35.9815 140.592 35.0994 141.864 35.0994C142.254 35.0994 142.74 35.1697 142.938 35.2337V33.1051C142.727 33.0668 142.363 33.0412 142.107 33.0412C140.982 33.0412 140.043 33.6804 139.685 34.8182H139.583V33.1818H137.339V43ZM147.698 43.1918C149.986 43.1918 151.559 42.0732 151.968 40.3665L149.807 40.1236C149.494 40.9545 148.727 41.3892 147.73 41.3892C146.234 41.3892 145.243 40.4048 145.224 38.7237H152.064V38.0142C152.064 34.5689 149.993 33.054 147.576 33.054C144.764 33.054 142.929 35.1186 142.929 38.1484C142.929 41.2294 144.738 43.1918 147.698 43.1918ZM145.231 37.1641C145.301 35.9112 146.228 34.8565 147.608 34.8565C148.938 34.8565 149.833 35.8281 149.846 37.1641H145.231ZM155.615 37.2472C155.615 35.8281 156.472 35.0099 157.693 35.0099C158.888 35.0099 159.604 35.7962 159.604 37.1065V43H161.918V36.7486C161.924 34.3963 160.582 33.054 158.556 33.054C157.085 33.054 156.075 33.7571 155.628 34.8501H155.513V33.1818H153.301V43H155.615V37.2472ZM168.453 33.1818H166.516V30.8295H164.202V33.1818H162.809V34.9716H164.202V40.4304C164.189 42.2777 165.532 43.1854 167.27 43.1342C167.929 43.1151 168.382 42.9872 168.632 42.9041L168.242 41.0952C168.114 41.1271 167.852 41.1847 167.564 41.1847C166.983 41.1847 166.516 40.9801 166.516 40.0469V34.9716H168.453V33.1818ZM172.193 29.9091H169.879V43H172.193V29.9091ZM175.29 46.6818C177.093 46.6818 178.135 45.755 178.691 44.1889L182.635 33.1946L180.161 33.1818L177.892 40.5966H177.79L175.527 33.1818H173.072L176.633 43.2045L176.435 43.7351C176.006 44.8537 175.329 44.9304 174.319 44.6364L173.782 46.4389C174.095 46.5668 174.658 46.6818 175.29 46.6818ZM190.909 43.1726C192.597 43.1726 193.357 42.169 193.722 41.4531H193.862V43H196.138V29.9091H193.818V34.8054H193.722C193.37 34.0959 192.648 33.054 190.916 33.054C188.646 33.054 186.863 34.831 186.863 38.1037C186.863 41.3381 188.595 43.1726 190.909 43.1726ZM191.555 41.2741C190.027 41.2741 189.222 39.9318 189.222 38.0909C189.222 36.2628 190.014 34.9524 191.555 34.9524C193.044 34.9524 193.862 36.1861 193.862 38.0909C193.862 39.9957 193.031 41.2741 191.555 41.2741ZM202.23 43.1918C204.519 43.1918 206.091 42.0732 206.5 40.3665L204.34 40.1236C204.026 40.9545 203.259 41.3892 202.262 41.3892C200.766 41.3892 199.776 40.4048 199.756 38.7237H206.596V38.0142C206.596 34.5689 204.525 33.054 202.109 33.054C199.296 33.054 197.462 35.1186 197.462 38.1484C197.462 41.2294 199.271 43.1918 202.23 43.1918ZM199.763 37.1641C199.833 35.9112 200.76 34.8565 202.141 34.8565C203.47 34.8565 204.365 35.8281 204.378 37.1641H199.763ZM215.593 35.777C215.274 34.1151 213.944 33.054 211.643 33.054C209.278 33.054 207.667 34.2173 207.674 36.0327C207.667 37.4645 208.549 38.4105 210.435 38.8004L212.11 39.152C213.011 39.3501 213.433 39.7145 213.433 40.2706C213.433 40.9418 212.704 41.4467 211.605 41.4467C210.544 41.4467 209.853 40.9865 209.655 40.1044L207.399 40.3217C207.687 42.1243 209.201 43.1918 211.611 43.1918C214.066 43.1918 215.798 41.9197 215.804 40.0597C215.798 38.6598 214.897 37.8033 213.043 37.4006L211.368 37.0426C210.371 36.8189 209.975 36.4737 209.981 35.9048C209.975 35.2401 210.71 34.7798 211.675 34.7798C212.743 34.7798 213.305 35.3615 213.484 36.0071L215.593 35.777ZM216.992 43H219.306V33.1818H216.992V43ZM218.156 31.7884C218.891 31.7884 219.492 31.2259 219.492 30.5355C219.492 29.8388 218.891 29.2763 218.156 29.2763C217.414 29.2763 216.813 29.8388 216.813 30.5355C216.813 31.2259 217.414 31.7884 218.156 31.7884ZM225.236 46.8864C227.888 46.8864 229.844 45.6719 229.844 43.1598V33.1818H227.562V34.8054H227.435C227.083 34.0959 226.348 33.054 224.616 33.054C222.346 33.054 220.563 34.831 220.563 38.0589C220.563 41.2614 222.346 42.8594 224.609 42.8594C226.29 42.8594 227.077 41.9581 227.435 41.2358H227.55V43.0959C227.55 44.5405 226.591 45.1349 225.274 45.1349C223.881 45.1349 223.267 44.4766 222.986 43.9013L220.902 44.4062C221.324 45.7805 222.736 46.8864 225.236 46.8864ZM225.255 41.044C223.727 41.044 222.922 39.8551 222.922 38.0462C222.922 36.2628 223.714 34.9524 225.255 34.9524C226.744 34.9524 227.562 36.1861 227.562 38.0462C227.562 39.919 226.731 41.044 225.255 41.044ZM233.81 37.2472C233.81 35.8281 234.666 35.0099 235.887 35.0099C237.082 35.0099 237.798 35.7962 237.798 37.1065V43H240.112V36.7486C240.119 34.3963 238.776 33.054 236.75 33.054C235.28 33.054 234.27 33.7571 233.822 34.8501H233.707V33.1818H231.496V43H233.81V37.2472ZM241.745 43H244.058V33.1818H241.745V43ZM242.908 31.7884C243.643 31.7884 244.244 31.2259 244.244 30.5355C244.244 29.8388 243.643 29.2763 242.908 29.2763C242.166 29.2763 241.566 29.8388 241.566 30.5355C241.566 31.2259 242.166 31.7884 242.908 31.7884ZM248.032 37.2472C248.032 35.8281 248.888 35.0099 250.109 35.0099C251.305 35.0099 252.02 35.7962 252.02 37.1065V43H254.334V36.7486C254.341 34.3963 252.998 33.054 250.972 33.054C249.502 33.054 248.492 33.7571 248.045 34.8501H247.93V33.1818H245.718V43H248.032V37.2472ZM260.237 46.8864C262.889 46.8864 264.845 45.6719 264.845 43.1598V33.1818H262.563V34.8054H262.435C262.084 34.0959 261.349 33.054 259.617 33.054C257.347 33.054 255.564 34.831 255.564 38.0589C255.564 41.2614 257.347 42.8594 259.61 42.8594C261.291 42.8594 262.077 41.9581 262.435 41.2358H262.55V43.0959C262.55 44.5405 261.592 45.1349 260.275 45.1349C258.881 45.1349 258.268 44.4766 257.987 43.9013L255.903 44.4062C256.325 45.7805 257.737 46.8864 260.237 46.8864ZM260.256 41.044C258.728 41.044 257.923 39.8551 257.923 38.0462C257.923 36.2628 258.715 34.9524 260.256 34.9524C261.745 34.9524 262.563 36.1861 262.563 38.0462C262.563 39.919 261.732 41.044 260.256 41.044ZM273.067 43.1982C274.607 43.1982 275.528 42.4759 275.95 41.6513H276.026V43H278.251V36.429C278.251 33.8338 276.135 33.054 274.262 33.054C272.197 33.054 270.612 33.9744 270.101 35.7642L272.261 36.071C272.492 35.3999 273.143 34.8246 274.275 34.8246C275.349 34.8246 275.937 35.3743 275.937 36.3395V36.3778C275.937 37.0426 275.24 37.0746 273.508 37.2599C271.603 37.4645 269.781 38.0334 269.781 40.245C269.781 42.1754 271.194 43.1982 273.067 43.1982ZM273.668 41.4979C272.702 41.4979 272.012 41.0568 272.012 40.2067C272.012 39.3182 272.786 38.9474 273.821 38.8004C274.428 38.7173 275.643 38.5639 275.943 38.321V39.478C275.943 40.571 275.061 41.4979 273.668 41.4979ZM284.76 33.1818H282.823V30.8295H280.509V33.1818H279.116V34.9716H280.509V40.4304C280.497 42.2777 281.839 43.1854 283.578 43.1342C284.236 43.1151 284.69 42.9872 284.939 42.9041L284.549 41.0952C284.421 41.1271 284.159 41.1847 283.872 41.1847C283.29 41.1847 282.823 40.9801 282.823 40.0469V34.9716H284.76V33.1818ZM294.259 43C298.247 43 300.612 40.5327 300.612 36.4418C300.612 32.3636 298.247 29.9091 294.348 29.9091H289.822V43H294.259ZM292.194 40.9482V31.9609H294.214C296.873 31.9609 298.26 33.4439 298.26 36.4418C298.26 39.4524 296.873 40.9482 294.143 40.9482H292.194ZM308.301 38.8707C308.301 40.3665 307.233 41.108 306.211 41.108C305.099 41.108 304.357 40.3217 304.357 39.0753V33.1818H302.043V39.4332C302.043 41.7919 303.385 43.1278 305.316 43.1278C306.786 43.1278 307.822 42.3544 308.269 41.255H308.371V43H310.615V33.1818H308.301V38.8707ZM316.557 43.1918C319.433 43.1918 321.262 41.1655 321.262 38.1293C321.262 35.0866 319.433 33.054 316.557 33.054C313.681 33.054 311.852 35.0866 311.852 38.1293C311.852 41.1655 313.681 43.1918 316.557 43.1918ZM316.57 41.3381C314.978 41.3381 314.198 39.919 314.198 38.1229C314.198 36.3267 314.978 34.8885 316.57 34.8885C318.136 34.8885 318.916 36.3267 318.916 38.1229C318.916 39.919 318.136 41.3381 316.57 41.3381ZM324.819 29.9091H322.505V43H324.819V29.9091ZM326.479 43H328.793V33.1818H326.479V43ZM327.642 31.7884C328.377 31.7884 328.978 31.2259 328.978 30.5355C328.978 29.8388 328.377 29.2763 327.642 29.2763C326.901 29.2763 326.3 29.8388 326.3 30.5355C326.3 31.2259 326.901 31.7884 327.642 31.7884ZM332.766 37.2472C332.766 35.8281 333.623 35.0099 334.844 35.0099C336.039 35.0099 336.755 35.7962 336.755 37.1065V43H339.069V36.7486C339.075 34.3963 337.733 33.054 335.706 33.054C334.236 33.054 333.226 33.7571 332.779 34.8501H332.664V33.1818H330.452V43H332.766V37.2472ZM344.971 46.8864C347.624 46.8864 349.579 45.6719 349.579 43.1598V33.1818H347.298V34.8054H347.17C346.818 34.0959 346.083 33.054 344.351 33.054C342.082 33.054 340.298 34.831 340.298 38.0589C340.298 41.2614 342.082 42.8594 344.344 42.8594C346.026 42.8594 346.812 41.9581 347.17 41.2358H347.285V43.0959C347.285 44.5405 346.326 45.1349 345.009 45.1349C343.616 45.1349 343.002 44.4766 342.721 43.9013L340.637 44.4062C341.059 45.7805 342.472 46.8864 344.971 46.8864ZM344.99 41.044C343.462 41.044 342.657 39.8551 342.657 38.0462C342.657 36.2628 343.45 34.9524 344.99 34.9524C346.479 34.9524 347.298 36.1861 347.298 38.0462C347.298 39.919 346.467 41.044 344.99 41.044ZM355.514 43.1918C358.39 43.1918 360.218 41.1655 360.218 38.1293C360.218 35.0866 358.39 33.054 355.514 33.054C352.637 33.054 350.809 35.0866 350.809 38.1293C350.809 41.1655 352.637 43.1918 355.514 43.1918ZM355.526 41.3381C353.935 41.3381 353.155 39.919 353.155 38.1229C353.155 36.3267 353.935 34.8885 355.526 34.8885C357.092 34.8885 357.872 36.3267 357.872 38.1229C357.872 39.919 357.092 41.3381 355.526 41.3381Z" fill="white"/>
<circle cx="36" cy="36" r="28" fill="#FBBC05"/>
<g clip-path="url(#clip0_1665_2)">
<path fill-rule="evenodd" clip-rule="evenodd" d="M18.6586 8H53.3468C59.2313 8 64 12.7688 64 18.6586V53.3468C64 59.2313 59.2313 64.0054 53.3414 64.0054H18.6586C12.7688 64 8 59.2313 8 53.3414V18.6586C8 12.7688 12.7688 8 18.6586 8Z" fill="#50C800"/>
<path fill-rule="evenodd" clip-rule="evenodd" d="M64.0015 44.1772V27.9788C63.3671 26.4311 62.4319 25.0366 61.2727 23.8662C61.3767 22.1272 60.9883 20.3662 60.086 18.7967C59.4953 17.7686 58.068 17.6209 57.2696 18.5069L55.4595 20.5139C55.4485 20.5084 55.4375 20.5084 55.4266 20.503C55.6618 18.6709 55.3499 16.7788 54.4531 15.0889C53.8953 14.0389 52.6868 13.853 51.8555 14.7061L43.1601 23.5162C43.0618 23.6092 42.9578 23.7077 42.8595 23.8061C42.8539 23.8116 42.8429 23.817 42.8375 23.8225C39.0587 27.2459 33.1688 27.3881 29.5703 24.2436C29.3461 23.9975 29.1109 23.7623 28.8648 23.5326L20.1531 14.7116C19.3219 13.8584 18.1133 14.0444 17.5555 15.0944C16.6641 16.7788 16.3469 18.66 16.5766 20.4811C16.5602 20.4866 16.5438 20.4866 16.5273 20.492L14.7391 18.5069C13.9406 17.6209 12.5133 17.7686 11.9172 18.7967C11.0313 20.3334 10.643 22.0561 10.725 23.7623C9.58203 24.8889 8.65234 26.2342 7.99609 27.7272V44.4341C9.95938 48.9132 14.4328 52.0467 19.6336 52.0467H20.1914C25.3484 52.0467 29.7891 48.9679 31.7742 44.549C33.6829 44.538 35.0663 44.5327 35.9251 44.5327C37.7843 44.5273 39.2336 44.5273 40.2727 44.5273C42.2524 48.9569 46.704 52.0467 51.8663 52.0467H52.2601C57.5595 52.0467 62.0984 48.7927 64.0015 44.1772Z" fill="#8EE000"/>
<path fill-rule="evenodd" clip-rule="evenodd" d="M20.4234 24.625C25.3016 24.625 29.2609 28.5789 29.2609 33.4626V38.6961C29.2609 43.5742 25.307 47.5336 20.4234 47.5336C15.5453 47.5336 11.5859 43.5798 11.5859 38.6961V33.4626C11.5859 28.5789 15.5453 24.625 20.4234 24.625Z" fill="white"/>
<path fill-rule="evenodd" clip-rule="evenodd" d="M51.4666 24.625C56.3446 24.625 60.3041 28.5789 60.3041 33.4626V38.6961C60.3041 43.5742 56.35 47.5336 51.4666 47.5336C46.5883 47.5336 42.6289 43.5798 42.6289 38.6961V33.4626C42.6289 28.5789 46.583 24.625 51.4666 24.625Z" fill="white"/>
<path fill-rule="evenodd" clip-rule="evenodd" d="M21.7824 29.7002C24.0957 29.7002 25.9769 31.576 25.9769 33.8948V38.3737C25.9769 40.6869 24.1012 42.5681 21.7824 42.5681C19.4691 42.5681 17.5879 40.6923 17.5879 38.3737V33.8948C17.5879 31.576 19.4691 29.7002 21.7824 29.7002Z" fill="#4B4B4B"/>
<path fill-rule="evenodd" clip-rule="evenodd" d="M36.0009 39.8672C38.653 39.8672 40.8023 42.0165 40.8023 44.6686V46.3368C40.8023 48.9891 38.653 51.1382 36.0009 51.1382C33.3485 51.1382 31.1992 48.9891 31.1992 46.3368V44.6686C31.1992 42.0165 33.3485 39.8672 36.0009 39.8672Z" fill="#F48000"/>
<path d="M29.373 45.1293C29.9473 42.067 32.7855 39.8574 36.1816 39.8574C39.2715 39.8574 42.0661 42.1216 42.6292 45.1293V45.3754C42.6292 45.567 42.5636 45.6433 42.3886 45.6216L36.1872 46.7262C36.0176 46.7262 35.9957 46.7262 35.8207 46.7262L29.6137 45.616C29.4387 45.638 29.373 45.5614 29.373 45.3701V45.1293Z" fill="#FFC200"/>
<path fill-rule="evenodd" clip-rule="evenodd" d="M34.9866 40.9172C35.3094 40.8408 35.6429 40.7969 35.9764 40.7969C36.3319 40.7969 36.693 40.8408 37.0485 40.9337C37.7702 41.1197 38.2733 41.7704 38.2733 42.5141C38.2733 43.1157 37.7866 43.5969 37.1905 43.5969H34.8172C34.2156 43.5969 33.7344 43.1101 33.7344 42.5141C33.7288 41.7594 34.2485 41.0977 34.9866 40.9172Z" fill="#FFE747"/>
<path fill-rule="evenodd" clip-rule="evenodd" d="M50.1046 29.7002C52.418 29.7002 54.2992 31.576 54.2992 33.8948V38.3737C54.2992 40.6869 52.4234 42.5681 50.1046 42.5681C47.7913 42.5681 45.9102 40.6923 45.9102 38.3737V33.8948C45.9155 31.576 47.7913 29.7002 50.1046 29.7002Z" fill="#4B4B4B"/>
<path d="M18.2383 34.7857C19.7333 34.7857 20.9453 33.5786 20.9453 32.0897C20.9453 30.6007 19.7333 29.3936 18.2383 29.3936C16.7432 29.3936 15.5312 30.6007 15.5312 32.0897C15.5312 33.5786 16.7432 34.7857 18.2383 34.7857Z" fill="white"/>
<path d="M46.1504 34.7857C47.6454 34.7857 48.8574 33.5786 48.8574 32.0897C48.8574 30.6007 47.6454 29.3936 46.1504 29.3936C44.6552 29.3936 43.4434 30.6007 43.4434 32.0897C43.4434 33.5786 44.6552 34.7857 46.1504 34.7857Z" fill="white"/>
</g>
<defs>
<clipPath id="clip0_1665_2">
<rect x="8" y="8" width="56" height="56" rx="28" fill="white"/>
</clipPath>
</defs>
</svg>
