<?xml version="1.0" encoding="UTF-8"?>
<svg width="1130px" height="359px" viewBox="0 0 1130 359" version="1.1" xmlns="http://www.w3.org/2000/svg" xmlns:xlink="http://www.w3.org/1999/xlink">
    <!-- Generator: Sketch 64 (93537) - https://sketch.com -->
    <title>Group 3</title>
    <desc>Created with Sketch.</desc>
    <defs>
        <rect id="path-1" x="0" y="0" width="1110" height="339" rx="20"></rect>
        <filter x="-1.6%" y="-3.8%" width="103.2%" height="110.6%" filterUnits="objectBoundingBox" id="filter-2">
            <feMorphology radius="0.5" operator="dilate" in="SourceAlpha" result="shadowSpreadOuter1"></feMorphology>
            <feOffset dx="0" dy="5" in="shadowSpreadOuter1" result="shadowOffsetOuter1"></feOffset>
            <feGaussianBlur stdDeviation="5" in="shadowOffsetOuter1" result="shadowBlurOuter1"></feGaussianBlur>
            <feComposite in="shadowBlurOuter1" in2="SourceAlpha" operator="out" result="shadowBlurOuter1"></feComposite>
            <feColorMatrix values="0 0 0 0 0   0 0 0 0 0   0 0 0 0 0  0 0 0 0.05 0" type="matrix" in="shadowBlurOuter1"></feColorMatrix>
        </filter>
        <path d="M41.2219642,17.4200435 L21.3384285,17.4200435 L21.3384285,25.6461752 L32.7835856,25.6461752 C31.7166642,30.8721882 27.2549928,33.8723068 21.3384285,33.8723068 C14.3549428,33.8723068 8.72935712,28.2591817 8.72935712,21.2911643 C8.72935712,14.3231469 14.3549428,8.71002175 21.3384285,8.71002175 C24.3452071,8.71002175 27.0610071,9.77457997 29.1948499,11.5165843 L35.4023928,5.32279107 C31.6196714,2.03233841 26.7700285,0 21.3384285,0 C9.50529998,0 0,9.48424591 0,21.2911643 C0,33.0980827 9.50529998,42.5823286 21.3384285,42.5823286 C32.0076428,42.5823286 41.7069285,34.840087 41.7069285,21.2911643 C41.7069285,20.03305 41.5129428,18.6781578 41.2219642,17.4200435 Z" id="path-3"></path>
        <path d="M41.2219642,17.4200435 L21.3384285,17.4200435 L21.3384285,25.6461752 L32.7835856,25.6461752 C31.7166642,30.8721882 27.2549928,33.8723068 21.3384285,33.8723068 C14.3549428,33.8723068 8.72935712,28.2591817 8.72935712,21.2911643 C8.72935712,14.3231469 14.3549428,8.71002175 21.3384285,8.71002175 C24.3452071,8.71002175 27.0610071,9.77457997 29.1948499,11.5165843 L35.4023928,5.32279107 C31.6196714,2.03233841 26.7700285,0 21.3384285,0 C9.50529998,0 0,9.48424591 0,21.2911643 C0,33.0980827 9.50529998,42.5823286 21.3384285,42.5823286 C32.0076428,42.5823286 41.7069285,34.840087 41.7069285,21.2911643 C41.7069285,20.03305 41.5129428,18.6781578 41.2219642,17.4200435 Z" id="path-5"></path>
        <path d="M41.2219642,17.4200435 L21.3384285,17.4200435 L21.3384285,25.6461752 L32.7835856,25.6461752 C31.7166642,30.8721882 27.2549928,33.8723068 21.3384285,33.8723068 C14.3549428,33.8723068 8.72935712,28.2591817 8.72935712,21.2911643 C8.72935712,14.3231469 14.3549428,8.71002175 21.3384285,8.71002175 C24.3452071,8.71002175 27.0610071,9.77457997 29.1948499,11.5165843 L35.4023928,5.32279107 C31.6196714,2.03233841 26.7700285,0 21.3384285,0 C9.50529998,0 0,9.48424591 0,21.2911643 C0,33.0980827 9.50529998,42.5823286 21.3384285,42.5823286 C32.0076428,42.5823286 41.7069285,34.840087 41.7069285,21.2911643 C41.7069285,20.03305 41.5129428,18.6781578 41.2219642,17.4200435 Z" id="path-7"></path>
        <path d="M41.2219642,17.4200435 L21.3384285,17.4200435 L21.3384285,25.6461752 L32.7835856,25.6461752 C31.7166642,30.8721882 27.2549928,33.8723068 21.3384285,33.8723068 C14.3549428,33.8723068 8.72935712,28.2591817 8.72935712,21.2911643 C8.72935712,14.3231469 14.3549428,8.71002175 21.3384285,8.71002175 C24.3452071,8.71002175 27.0610071,9.77457997 29.1948499,11.5165843 L35.4023928,5.32279107 C31.6196714,2.03233841 26.7700285,0 21.3384285,0 C9.50529998,0 0,9.48424591 0,21.2911643 C0,33.0980827 9.50529998,42.5823286 21.3384285,42.5823286 C32.0076428,42.5823286 41.7069285,34.840087 41.7069285,21.2911643 C41.7069285,20.03305 41.5129428,18.6781578 41.2219642,17.4200435 Z" id="path-9"></path>
    </defs>
    <g id="V3" stroke="none" stroke-width="1" fill="none" fill-rule="evenodd">
        <g id="Intro-Copy-7" transform="translate(-155.000000, -1408.000000)">
            <g id="Group-4" transform="translate(165.000000, 564.000000)">
                <g id="Group-3" transform="translate(0.000000, 849.000000)">
                    <g id="Rectangle">
                        <use fill="black" fill-opacity="1" filter="url(#filter-2)" xlink:href="#path-1"></use>
                        <use stroke="#F0F0F0" stroke-width="1" fill="#FFFFFF" fill-rule="evenodd" xlink:href="#path-1"></use>
                    </g>
                    <g id="Group-21" transform="translate(53.000000, 73.000000)">
                        <g id="Group-19" transform="translate(0.000000, 151.967402)">
                            <g id="Combined-Shape-6" transform="translate(706.000000, 10.000000)" fill="#034EA2">
                                <path d="M5.38809824,-2.30926389e-14 C7.49868741,-2.30926389e-14 10.4120288,0.503626286 10.4120288,3.72998218 L10.4120288,3.72998218 L10.4120288,4.77028523 L6.69593519,4.77028523 L6.69593519,3.85588875 C6.69593519,3.04693903 6.18135043,2.5118361 5.31051469,2.5118361 C4.37792878,2.5118361 4.05176121,3.03277454 3.94884426,3.50492418 C3.91401083,3.67332422 3.89342744,3.98809065 3.96467764,4.28554493 C4.38584547,6.01990795 10.0415278,6.94532125 10.6701129,10.0457706 C10.731863,10.3621108 10.8664467,11.1993895 10.6859462,12.4789151 C10.3328619,14.9466839 8.11302245,15.8626542 5.41818166,15.8626542 C2.6156739,15.8626542 -3.81679538e-14,14.8664184 -3.81679538e-14,11.5645186 L-3.81679538e-14,11.5645186 L0.00316667543,10.417195 L3.99951106,10.417195 L3.99951106,11.850956 C3.99951106,12.6646273 4.56634597,13.1965825 5.50051522,13.1965825 C6.49168463,13.1965825 6.82735222,12.6945301 6.9524359,12.2019206 C7.02051942,11.9233523 7.06485288,11.4622195 6.91918581,11.1033858 C6.15285036,9.18645822 0.859752379,8.30983372 0.209000578,5.28335451 C0.0522501446,4.54050573 0.0680835217,3.94717102 0.175750486,3.28144002 C0.571584915,0.870329175 2.73759091,-2.30926389e-14 5.38809824,-2.30926389e-14 Z M53.8540657,0.0818392715 C55.9440714,0.0818392715 58.8336628,0.582317893 58.8336628,3.77404948 L58.8336628,3.77404948 L58.8336628,4.8033357 L55.1460692,4.8033357 L55.1460692,3.89838222 C55.1460692,3.09572783 54.6425678,2.57321555 53.7796488,2.57321555 C52.8565629,2.57321555 52.5367287,3.08156334 52.4306451,3.55686064 C52.3942283,3.71581769 52.3736449,4.02743646 52.4448951,4.3233169 C52.8613129,6.04036777 58.4599951,6.95633807 59.0854135,10.0284584 C59.1503303,10.3385034 59.2785807,11.1647652 59.0980802,12.4348478 C58.7513292,14.8805829 56.5520731,15.7839626 53.8857324,15.7839626 C51.1117247,15.7839626 48.5198009,14.7971698 48.5198009,11.5283205 L48.5198009,11.5283205 L48.5245509,10.3967351 L52.4797285,10.3967351 L52.4828952,11.8179056 C52.4828952,12.6126908 53.0449801,13.1446461 53.9664826,13.1446461 C54.9513187,13.1446461 55.2838196,12.6504628 55.4057366,12.1594271 C55.4722368,11.8808589 55.5197369,11.4323167 55.3724865,11.0766306 C54.6140678,9.17858906 49.3732199,8.30825989 48.7319682,5.31325732 C48.5783844,4.57355621 48.5894678,3.99123832 48.6971347,3.33495031 C49.0850525,0.941151622 51.2336417,0.0818392715 53.8540657,0.0818392715 Z M66.4178504,0.464280482 L66.4178504,11.4244475 C66.4178504,11.6164551 66.4241838,11.8320701 66.4526838,11.9910271 C66.5334341,12.3545823 66.8469349,13.0659545 67.8887712,13.0659545 C68.9226907,13.0659545 69.2456916,12.3545823 69.3169418,11.9910271 C69.3395043,11.8706289 69.3495981,11.7201312 69.3518989,11.5714041 L69.3517752,0.464280482 L73.120119,0.464280482 L73.120119,11.0892213 C73.1280356,11.3614942 73.1011189,11.9217785 73.0884522,12.0618495 C72.8240348,14.8270726 70.6247787,15.7241569 67.8871878,15.7241569 C65.1464302,15.7241569 62.9455908,14.8270726 62.6843401,12.0618495 C62.6716734,11.9217785 62.6447566,11.3614942 62.6526733,11.0892213 L62.6526733,0.464280482 L66.4178504,0.464280482 Z M98.9918572,0.0645271179 C101.634448,0.0645271179 103.947704,0.950594615 104.221622,3.72368685 C104.270705,4.19583649 104.254872,4.69946278 104.254872,4.69946278 L104.254872,5.19364607 L100.497611,5.19364607 L100.497611,4.36423653 C100.500778,4.36581037 100.492861,4.01169813 100.448528,3.80080463 C100.385194,3.47344754 100.09861,2.72115578 98.9633571,2.72115578 C97.8771875,2.72115578 97.5589366,3.43252791 97.4797697,3.80080463 C97.4338529,3.99595981 97.4164362,4.26036361 97.4164362,4.4995861 L97.4164362,11.2733596 C97.4132695,11.4606457 97.4243529,11.6668177 97.4544363,11.8367916 C97.5193531,12.2333973 97.8946042,12.9101451 98.9728571,12.9101451 C100.052693,12.9101451 100.429528,12.2318234 100.499195,11.8367916 C100.526111,11.6668177 100.534028,11.4606457 100.532445,11.2733596 L100.532445,9.12350494 L99.0029406,9.12350494 L99.0029406,6.96105957 L104.286539,6.96105957 L104.286539,10.9365596 C104.283372,11.213554 104.277038,11.4181522 104.232705,11.9123355 C103.984121,14.6067361 101.632865,15.5683476 98.9918572,15.5683476 C96.3460999,15.5683476 93.9980101,14.6067361 93.7462594,11.9123355 C93.7035092,11.4181522 93.6971759,11.213554 93.6924259,10.9365596 L93.6955925,4.69946278 C93.6955925,4.43663281 93.7288426,3.9707785 93.7573427,3.72368685 C94.0882603,0.955316111 96.3460999,0.0645271179 98.9918572,0.0645271179 Z M22.5847291,0.470575811 L25.3349868,15.2819101 L21.327559,15.2819101 L19.3420535,1.84295744 L19.2581366,1.84295744 L17.2172143,15.2819101 L13.1939532,15.2819101 L15.9568775,0.470575811 L22.5847291,0.470575811 Z M34.7162627,0.470575811 L36.5561011,11.7927243 L36.635268,11.7927243 L38.4766898,0.470575811 L44.5535399,0.470575811 L44.8765408,15.2819101 L41.1525305,15.2819101 L41.0543636,1.96571635 L40.97678,1.96571635 L38.4861898,15.2819101 L34.7051793,15.2819101 L32.2130058,1.96571635 L32.1322556,1.96571635 L32.0388386,15.2819101 L28.3069116,15.2819101 L28.6362459,0.470575811 L34.7162627,0.470575811 Z M82.8101458,0.470575811 L86.2349052,12.0996215 L86.3172388,12.0996215 L86.1129882,0.470575811 L89.8021651,0.470575811 L89.8021651,15.1276746 L84.4979838,15.1276746 L80.8167236,3.09887549 L80.7375567,3.09887549 L80.9418073,15.1276746 L77.2763805,15.1276746 L77.2763805,0.470575811 L82.8101458,0.470575811 Z" id="Combined-Shape"></path>
                            </g>
                            <g id="Combined-Shape-5" transform="translate(251.000000, 2.000000)" fill="#4665B9">
                                <path d="M63.1787385,15.8669646 C66.4192571,16.3002509 69.2613257,14.4692668 69.2613257,14.4692668 C62.6324263,26.4754907 53.3731348,20.7200818 45.8897471,17.2103074 C38.8203738,13.9086347 34.0934502,23.5325604 26.6147318,22.2839504 C26.3906037,22.2342544 26.2583059,22.4516741 26.4232891,22.5526189 C35.2608462,27.969288 38.9262743,25.2655193 42.7317824,22.7714052 C51.9303725,16.7613048 57.1475763,24.8570809 63.0776319,25.6553216 C66.3150375,26.093267 69.1633319,24.2576239 69.1633319,24.2576239 C61.5850011,37.9830161 51.9008001,29.4989905 47.868051,27.6431585 C44.682008,26.1802348 42.9621363,24.3461447 35.8133842,27.7969052 C29.5673703,30.8205914 21.2979779,33.3286825 13.7149777,31.0566471 C13.7149777,31.0566471 13.6869616,31.0479503 13.654214,31.0303082 C14.5304926,28.6153971 15.8861562,25.4426231 18.2317189,25.4783421 C18.9165547,25.4808268 22.659805,25.7283747 23.0489163,25.6693607 C23.5002853,25.6103468 23.792897,25.2888764 23.8738321,24.9410049 C24.0559362,24.1318932 23.7244134,23.9439805 23.6886152,23.6815239 C23.6558676,23.4237263 23.9158561,23.3383114 24.1306456,23.1643757 C24.4839586,22.8801772 24.5166439,22.6689695 24.4388217,22.4313609 C24.3703381,22.2248122 23.8925095,22.1580333 23.7337521,22.0695125 C23.5749947,21.9779477 23.6200693,21.707664 23.8738321,21.6750511 C25.1516735,21.5057744 25.0831899,20.8302204 24.9384405,20.5910588 C24.415475,19.6452833 25.1003108,19.5179375 25.4411723,19.4573706 C25.4411723,19.4573706 25.8987671,19.4697946 26.2162819,19.4123958 C26.9400288,19.281944 26.6209576,18.4573023 26.6209576,18.4573023 L26.6123919,18.4059508 C26.5312118,17.9196711 25.8967588,14.127946 25.7322275,13.4131663 C25.5734701,12.7096584 25.9330089,12.4968978 26.5727078,12.7686724 C26.6349656,12.7966263 26.6893789,12.8338982 26.7485861,12.8789973 C26.7510764,12.8789973 26.7548119,12.8876941 26.7610377,12.8945273 C35.1113653,18.0163131 36.250683,17.6637827 43.189315,13.1181589 C52.1310917,7.2695702 57.0167726,15.0392169 63.1787385,15.8669646 Z M0.0198178223,15.0840674 C0.435388646,6.23042849 7.85963145,-0.396211982 16.6130783,0.0184383591 C16.6130783,0.0184383591 22.2769818,0.484337619 27.1439854,3.47230487 C36.8764362,9.44351827 38.72238,6.74440856 43.6407463,3.52349167 C51.718696,-1.75669994 55.852614,4.6400969 63.4216062,5.66041628 C63.7323021,5.67966777 64.0570297,5.68795638 64.4039509,5.68861872 C64.7475233,5.68936265 65.0458261,5.68693884 65.3094647,5.67999418 C67.6906566,5.43280686 69.5150885,4.26743961 69.5150885,4.26743961 C62.3678929,17.1976971 52.3459434,10.3738259 46.3427349,7.62036129 C46.0583712,7.48945474 45.7783137,7.37696873 45.5026573,7.28149954 C45.4781766,7.27326709 45.4544181,7.26519377 45.4307723,7.25722402 C41.581868,5.96112574 38.5968916,7.97863311 36.7379126,9.45445138 C32.3347296,12.9440368 29.5455801,12.9207419 25.7322898,11.7544407 C24.1369336,11.2699055 22.3625863,10.5788216 20.2146921,9.8784197 C13.5375429,7.6762692 10.830885,14.720666 10.830885,14.720666 L10.830885,14.720666 L5.83780935,26.708254 L5.74753554,26.9256736 C5.54052835,27.320135 5.10161085,27.3915729 4.7093867,27.0669964 C1.47976326,24.0557342 -0.204310262,19.8408989 0.0198178223,15.0840674 Z" id="Combined-Shape"></path>
                            </g>
                            <g id="path21-2" transform="translate(491.000000, 0.000000)" fill="#77B900">
                                <path d="M5.49168584,15.1234501 C5.49168584,15.1234501 10.3514931,8.04122517 20.0549111,7.30853707 L20.0549111,4.73911618 C9.30714417,5.5916793 1.59872116e-13,14.5827327 1.59872116e-13,14.5827327 C1.59872116e-13,14.5827327 5.27141373,29.6343005 20.0549111,31.0124367 L20.0549111,28.2813338 C9.20607814,26.933273 5.49168584,15.1234501 5.49168584,15.1234501 Z M20.0549111,22.8498434 L20.0549111,25.351008 C11.855606,23.9071752 9.5796769,15.488621 9.5796769,15.488621 C9.5796769,15.488621 13.5165008,11.1810123 20.0549111,10.4824523 L20.0549111,13.2269931 C20.0499442,13.2269931 20.0464889,13.2255 20.0423858,13.2255 C16.610676,12.8187355 13.929835,15.9851852 13.929835,15.9851852 C13.929835,15.9851852 15.4324362,21.3157844 20.0549111,22.8498434 L20.0549111,22.8498434 Z M20.0549111,0 L20.0549111,4.73911618 C20.3704185,4.71522649 20.6859259,4.69496292 21.0031609,4.68429788 C33.2222158,4.27753334 41.1837566,14.5827327 41.1837566,14.5827327 C41.1837566,14.5827327 32.039657,25.565162 22.5131045,25.565162 C21.6400064,25.565162 20.8226241,25.4851742 20.0549111,25.3507947 L20.0549111,28.2813338 C20.7114083,28.3636679 21.3920923,28.4120872 22.1023619,28.4120872 C30.9674501,28.4120872 37.3784481,23.9402369 43.5862342,18.6476052 C44.6154664,19.4617742 48.8291421,21.442485 49.6953298,22.3095526 C43.7929013,27.1905138 30.0369085,31.1250595 22.2381963,31.1250595 C21.4864638,31.1250595 20.7645328,31.080053 20.0549111,31.0124367 L20.0549111,35.1304211 L53.750496,35.1304211 L53.750496,0 L20.0549111,0 Z M20.0549111,10.4824523 L20.0549111,7.30875037 C20.3671792,7.287207 20.6818227,7.27056954 21.0031609,7.2605444 C29.7898582,6.98794604 35.5545087,14.7186053 35.5545087,14.7186053 C35.5545087,14.7186053 29.3281506,23.2598074 22.6521783,23.2598074 C21.6914032,23.2598074 20.8299665,23.1072974 20.0546951,22.8498434 L20.0546951,13.2269931 C23.4753913,13.6352508 24.1638496,15.1277162 26.2203704,18.5138656 L30.7942558,14.7045275 C30.7942558,14.7045275 27.4554058,10.379428 21.8270217,10.379428 C21.2152268,10.3792147 20.6297781,10.4216616 20.0549111,10.4824523 L20.0549111,10.4824523 Z" id="path21"></path>
                            </g>
                            <g id="capital-one-logo-(1)" transform="translate(0.000000, 2.000000)">
                                <path d="M60.0853421,22.6781392 C56.3053447,25.3183677 51.8399633,28.0813975 47.0422744,30.9876955 L46.8553514,31.0900299 C46.7930438,31.1309637 46.7722746,31.2128312 46.813813,31.2946988 C46.8553514,31.3560994 46.9384283,31.3765663 47.0215052,31.3356326 L47.1876589,31.253765 C51.2584252,29.1661425 55.9522681,26.6691823 60.6461109,24.1108214 C60.6668801,24.0903545 60.6876493,24.0903545 60.7291877,24.0698876 C60.4591879,23.6400829 60.2307266,23.1693445 60.0853421,22.6781392 L60.0853421,22.6781392 Z M84.8422476,2.92759302 C78.9022518,-3.53994336 40.666125,2.27265263 24.4038289,5.77249035 L24.029983,5.8543579 C23.9469061,5.87482479 23.9053677,5.93622545 23.9053677,6.018093 C23.9261369,6.09996055 23.9884445,6.14089432 24.0715214,6.14089432 L24.4453673,6.05902677 C37.9038193,3.70533474 65.9214918,0.430632773 71.9653336,6.32509631 C73.8137939,8.12618239 73.3568711,10.4389407 71.2384111,13.1610367 C72.380718,13.8978446 73.2114866,15.0439903 73.5853325,16.4766724 C81.8930189,11.0120135 87.479938,5.81342413 84.8422476,2.92759302 Z" id="Shape" fill="#DE4953"></path>
                                <g id="Group" transform="translate(0.000000, 12.915434)" fill="#003A6F">
                                    <path d="M62.4945711,8.06395359 C62.577648,10.3357781 64.0314931,12.1982648 65.942261,12.1982648 C69.6391814,12.1982648 71.1968726,7.73648339 71.0930266,4.74831785 C71.0099497,2.47649336 69.5145661,0.614006618 67.6245675,0.614006618 C64.4261082,0.614006618 62.390725,5.05532116 62.4945711,8.06395359 L62.4945711,8.06395359 Z M60.5422648,7.94115226 C60.3968803,4.05244368 63.4914935,0.102334436 67.9776442,0.102334436 C70.9684113,0.102334436 72.9414868,2.06715561 73.0453329,5.07578804 C73.1907174,9.1691655 70.3037964,12.9146059 65.6099535,12.9146059 C62.6191864,12.9146059 60.6461109,10.9497847 60.5422648,7.94115226 Z M18.1107564,6.9178079 C17.9446027,6.97920856 17.7369105,7.04060922 17.4876799,7.081543 C17.2384493,7.14294366 16.7607574,7.22481121 16.0961424,7.32714564 C15.6392197,7.40901319 15.3069122,7.49088074 15.1199893,7.63414895 C14.9330663,7.75695028 14.8292203,7.92068538 14.808451,8.10488736 C14.7669126,8.30955623 14.8292203,8.47329133 15.0161432,8.59609266 C15.2030662,8.71889398 15.4938352,8.78029464 15.9092195,8.78029464 C16.2207577,8.78029464 16.532296,8.73936087 16.8438342,8.63702643 C17.1553725,8.53469199 17.4046031,8.41189067 17.6122952,8.24815557 C17.7576797,8.12535425 17.8615258,7.96161915 17.9446027,7.77741717 C17.9653719,7.63414895 18.0276795,7.34761253 18.1107564,6.9178079 L18.1107564,6.9178079 Z M22.015369,4.52318209 C21.9945998,4.87111917 21.9322922,5.19858937 21.8492153,5.73072844 L21.1846004,9.37383437 C21.1222927,9.70130457 21.246908,9.94690722 21.5584463,10.1311092 L21.5376771,10.2743774 L17.7576797,10.2743774 L17.7161413,9.35336749 C17.1761417,9.68083768 16.5115268,9.94690722 15.9092195,10.1106423 C15.3069122,10.2539105 14.8292203,10.3357781 14.1022977,10.3357781 C12.876914,10.3357781 12.1915298,10.2129768 11.7138379,9.80363901 C11.2153767,9.37383437 10.9869153,9.08729795 11.0076845,8.49375822 C11.0284537,8.14582114 11.1946075,7.7160165 11.4646073,7.40901319 C11.7346071,7.10200988 12.0876837,6.89734101 12.4615296,6.71313903 C12.8561447,6.52893704 13.3130675,6.40613572 13.9776824,6.30380128 C14.6422973,6.20146684 15.576912,6.09913241 16.823065,5.99679797 C17.4669107,5.93539731 17.882295,5.7921291 18.069218,5.73072844 C18.3392178,5.628394 18.4222946,5.52605956 18.4638331,5.32139069 C18.5261407,4.95298672 18.4222946,4.72785096 17.9030642,4.62551652 C16.5530652,4.35944699 13.9984516,4.78925162 12.689991,5.11672182 L13.3961444,3.2133013 C15.1199893,2.96769866 16.7607574,2.80396356 18.4638331,2.80396356 C21.1638312,2.78349667 22.0361382,3.5407715 22.015369,4.52318209 L22.015369,4.52318209 Z M32.9399767,10.2743774 L34.2484373,2.98816554 L37.8622809,2.98816554 L36.5538203,10.2743774 L32.9399767,10.2743774 Z M34.4561294,1.30988079 C34.5599755,0.716341055 35.5153595,0.22513576 36.5953587,0.22513576 C37.6753579,0.22513576 38.4438189,0.716341055 38.3399728,1.30988079 C38.2361268,1.90342052 37.2599736,2.39462581 36.2007436,2.39462581 C35.1207444,2.39462581 34.3315141,1.90342052 34.4561294,1.30988079 Z M50.6976564,6.93827479 C50.5315027,6.99967545 50.3238105,7.06107611 50.0745799,7.10200988 C49.8253493,7.16341055 49.3476574,7.2452781 48.6622732,7.34761253 C48.2053505,7.42948008 47.873043,7.51134763 47.6861201,7.65461584 C47.5199663,7.77741717 47.4161203,7.94115226 47.3745818,8.12535425 C47.3330434,8.33002312 47.4161203,8.49375822 47.582274,8.61655954 C47.7691969,8.73936087 48.059966,8.80076153 48.4961195,8.80076153 C48.8076577,8.80076153 49.119196,8.75982775 49.4307342,8.65749332 C49.7422725,8.55515888 49.991503,8.43235756 50.1991952,8.26862246 C50.3445797,8.14582114 50.4484258,7.98208604 50.5107334,7.79788405 C50.5522719,7.65461584 50.6145795,7.36807942 50.6976564,6.93827479 Z M54.5814998,4.54364898 C54.5607306,4.89158606 54.4984229,5.21905626 54.3945769,5.75119532 L53.7507312,9.39430126 C53.6884235,9.72177146 53.8130388,9.9673741 54.124577,10.1515761 L54.1038078,10.2743774 L50.3238105,10.2743774 L50.3030413,9.35336749 C49.7422725,9.68083768 49.0776575,9.94690722 48.4961195,10.1106423 C47.8938122,10.2743774 47.4161203,10.3357781 46.6891977,10.3357781 C45.4638139,10.3357781 44.7784298,10.2129768 44.3007378,9.80363901 C43.8022767,9.37383437 43.5738153,9.08729795 43.5945845,8.49375822 C43.6153537,8.14582114 43.7815074,7.7160165 44.0515073,7.40901319 C44.3215071,7.10200988 44.6745837,6.89734101 45.0484296,6.71313903 C45.4430447,6.52893704 45.8999675,6.40613572 46.5645824,6.28333439 C47.2291973,6.18099996 48.163812,6.07866552 49.409965,5.97633108 C50.0538107,5.91493042 50.4484258,5.77166221 50.6353487,5.71026155 C50.9053486,5.60792711 51.0091946,5.50559268 51.0507331,5.28045692 C51.1130407,4.91205295 50.9884254,4.68691719 50.4899642,4.58458275 C49.119196,4.31851322 46.5853516,4.74831785 45.276891,5.07578804 L45.9830443,3.17236753 C47.7276585,2.92676488 49.3268881,2.76302978 51.0507331,2.76302978 C53.7299619,2.80396356 54.602269,3.56123839 54.5814998,4.54364898 L54.5814998,4.54364898 Z M10.5092233,7.65461584 C9.32537801,7.8797516 8.68153231,7.98208604 7.51845621,7.98208604 C5.79461128,7.98208604 4.42384302,7.14294366 4.48615067,5.58746023 C4.54845832,4.56411586 5.77384206,2.37415892 8.9307629,2.37415892 C9.92768528,2.37415892 10.6961463,2.53789402 11.7346071,3.13143375 L12.1915298,0.614006618 C10.7792231,0.0818675491 9.84460841,-5.02375919e-15 8.61922466,0.0204668873 C4.48615067,0.0614006618 0.519230401,1.90342052 0.0415384321,5.66932778 C-0.456922753,9.4966357 4.27845851,10.4585794 6.37614933,10.4381125 C7.58076386,10.4381125 8.84768604,10.3767118 10.0315314,10.2743774 L10.5092233,7.65461584 Z M39.8561256,2.94723177 L40.1053562,1.47361588 L43.8853535,0.654940393 L43.4907384,2.94723177 L45.3391987,2.94723177 L44.986122,4.42084765 L43.1999694,4.42084765 L42.1199702,10.2743774 C42.1199702,10.2743774 38.4853574,10.2539105 38.4645881,10.2743774 L39.5445874,4.44131454 L38.1738191,4.44131454 L38.4438189,2.96769866 L39.8561256,2.96769866 L39.8561256,2.94723177 Z M58.257651,10.2743774 L54.5607306,10.2743774 L56.4091908,0.122801324 L60.0022652,0.22513576 L58.257651,10.2743774 Z M28.163057,4.70738407 C27.685365,4.70738407 27.2699807,4.85065228 26.8753656,5.13718871 C26.5015197,5.42372513 26.2522891,5.83306287 26.1692122,6.38566883 C26.0653662,7.02014234 26.1276738,7.47041386 26.3769044,7.75695028 C26.626135,8.0434867 26.9999809,8.18675491 27.4984421,8.18675491 C27.8307495,8.18675491 28.163057,8.12535425 28.4122876,8.00255293 C28.7238258,7.83881783 28.931518,7.67508273 29.1184409,7.40901319 C29.3261331,7.12247677 29.4507484,6.81547346 29.513056,6.44706949 C29.6169021,5.87399665 29.5338252,5.44419202 29.2638254,5.15765559 C28.9938256,4.85065228 28.6407489,4.70738407 28.163057,4.70738407 L28.163057,4.70738407 Z M21.5792155,12.7918045 L23.3445988,3.02909932 L26.5222889,3.02909932 L26.2730583,4.27757944 C26.5430581,3.90917547 26.9792117,3.60217216 27.6022881,3.35656951 C28.2045954,3.11096687 28.9107488,2.92676488 29.6584405,2.92676488 C30.4892092,2.92676488 30.9876704,2.96769866 31.6107468,3.29516885 C32.2338233,3.62263905 32.6492076,4.07291057 32.8984382,4.68691719 C33.1268996,5.28045692 33.1892073,5.93539731 33.064592,6.67220525 C32.8568998,7.8797516 32.2545925,8.82122842 31.2784394,9.51710258 C30.3022862,10.2129768 29.4299792,10.3971787 28.2045954,10.3971787 C27.7684419,10.3971787 27.394596,10.356245 27.0830577,10.2743774 C26.7922887,10.1925099 26.5430581,10.1106423 26.3561352,9.98784099 C26.1899814,9.86503967 26.0030585,9.72177146 25.7538279,9.45570192 L25.1722899,12.7918045 L21.5792155,12.7918045 L21.5792155,12.7918045 Z M87.1683998,5.60792711 C87.1476306,5.01438738 86.8568615,4.62551652 86.2337851,4.62551652 C84.7591707,4.62551652 83.1807103,7.49088074 82.9107105,8.63702643 C85.3199396,8.63702643 87.2099382,7.20434432 87.1683998,5.60792711 L87.1683998,5.60792711 Z M87.479938,10.0901754 L87.7707071,10.2743774 C87.0437845,11.7275264 85.5691702,12.894139 83.8453252,12.894139 C82.4330185,12.894139 81.2699424,11.9731291 81.2076348,10.2334436 C81.1037887,7.12247677 84.0530174,4.21617878 86.4830157,4.21617878 C87.5214765,4.21617878 88.4976296,4.6664503 88.539168,5.77166221 C88.6222449,8.24815557 85.0914782,9.0054304 82.765326,9.06683106 C82.6822491,9.3329006 82.6614799,9.57850325 82.6822491,9.98784099 C82.7237876,11.0111854 83.346864,11.8912615 84.6553246,11.8912615 C85.7768623,11.8503277 86.8984,10.9702516 87.479938,10.0901754 Z" id="Shape"></path>
                                    <path d="M72.9830252,5.52605956 C73.2322558,5.48512579 73.6476401,5.44419202 73.8137939,5.44419202 C74.0837937,5.44419202 74.3330243,5.48512579 74.3330243,5.75119532 C74.3330243,5.91493042 74.0630245,7.02014234 74.0007168,7.26574498 L73.439948,9.72177146 C73.2114866,10.7246489 72.962256,11.7684602 72.7545638,12.6076026 L74.208409,12.6076026 L75.0184084,8.73936087 C77.5107143,6.20146684 78.4660983,5.36232447 79.0476363,5.36232447 C79.3176361,5.36232447 79.4837898,5.50559268 79.5045591,5.81259599 C79.5253283,6.26286751 79.2345593,7.28621187 79.1307132,7.57274829 L78.2999445,10.3971787 C78.1130216,11.0316522 77.9676371,11.6047251 77.9884063,12.0140628 C78.0091755,12.6280694 78.4037906,12.9146059 78.9645594,12.9146059 C80.0237895,12.9146059 80.7922505,11.8298608 81.4568654,10.7655827 L81.2699424,10.4176456 C80.9999426,10.8474503 80.3768661,11.7889271 79.878405,11.7889271 C79.7122512,11.7889271 79.5668667,11.6865926 79.5668667,11.4205231 C79.5460975,11.0930529 79.691482,10.6018476 79.7953281,10.2743774 L80.7091736,6.95874167 C80.9584042,6.03773175 81.0830195,5.4646589 81.0622503,5.13718871 C81.0414811,4.52318209 80.6676352,4.23664567 80.1068663,4.23664567 C79.1514824,4.23664567 77.8845602,4.91205295 75.2053313,7.96161915 L75.1637929,7.96161915 L75.4961004,6.48800327 C75.6830233,5.66932778 75.849177,4.8301854 76.0361,4.25711255 C75.1014853,4.58458275 73.7930246,4.95298672 72.962256,5.11672182 L72.9830252,5.52605956 L72.9830252,5.52605956 Z" id="Shape"></path>
                                </g>
                            </g>
                        </g>
                        <path d="M1003,148 L1003,192.900326 L1003,192.900326 L958,192.900326 L958,192.900326 L958,148 L958,148 L1003,148 L1003,148 Z M969.956745,160.590924 C968.689577,160.590924 967.784308,161.263938 967.829488,162.027043 C967.87491,162.520836 968.237077,162.700298 968.553795,162.745103 C969.006322,162.745103 969.504245,162.520836 969.458822,161.937193 C969.413642,161.533491 969.096924,161.533491 969.142078,161.219133 C969.142078,160.994892 969.458822,160.905042 969.640027,160.905042 C970.092285,160.860236 970.318643,161.039671 970.318643,161.488445 L970.318643,161.488445 L970.318643,162.475791 C970.318643,162.790149 970.22831,162.834954 969.323309,163.238896 C968.418039,163.642865 967.557923,163.912151 967.557923,165.213614 C967.557923,166.604662 968.463193,166.829169 969.051475,166.829169 C969.730629,166.829169 970.22831,166.515078 970.409272,166.06633 L970.409272,166.06633 L970.409272,166.739585 L971.857375,166.739585 L971.857375,162.251284 C971.857375,161.44364 971.63126,161.129522 971.22394,160.860236 C970.906926,160.680774 970.545028,160.590924 969.956745,160.590924 Z M979.369806,159.424116 L977.831074,159.424116 L977.831074,163.553014 L977.826316,163.728607 C977.747538,165.187238 976.703333,166.513345 975.658905,166.470032 C974.889391,166.470032 974.708456,165.886629 974.618122,165.25842 C974.48234,164.360658 974.48234,163.328507 974.572673,162.206478 C974.663276,161.488445 974.844238,160.905042 975.387341,160.905042 C975.794688,160.905042 975.839841,161.174327 975.658905,161.353789 C975.477674,161.578296 975.206405,161.802536 975.342161,162.296329 C975.477674,162.834954 976.337521,162.924538 976.745111,162.520836 C977.061855,162.1617 977.016675,161.578296 976.790291,161.219133 C976.518726,160.770385 976.066226,160.590924 975.387341,160.590924 C974.527493,160.590924 972.898427,161.353789 972.898427,163.777521 C972.898427,166.380421 974.572673,166.829169 975.523123,166.829169 C976.609328,166.829169 977.559536,165.886629 977.831074,165.123763 L977.831074,165.123763 L977.831074,166.739585 L979.369806,166.739585 L979.369806,162.206478 L979.374141,162.046347 C979.394574,161.691109 979.488673,161.460382 979.686524,161.263938 C979.867756,161.129522 980.093871,161.084476 980.229654,161.129522 C980.561615,161.211665 980.589279,161.595583 980.591584,162.073857 L980.591584,162.073857 L980.591794,166.739585 L982.175599,166.739585 L982.175599,162.386207 L982.17102,162.210964 C982.110235,161.071298 981.44941,160.505351 980.501191,160.590924 C980.003511,160.635729 979.596191,160.860236 979.369806,161.174327 L979.369806,161.174327 L979.369806,159.424116 Z M966.336204,150.896795 L964.254343,150.896795 C962.036994,150.896795 960.905609,152.961364 960.905609,154.89101 C960.860429,156.821216 961.448711,158.616206 963.439944,158.840713 C962.489763,159.109758 961.629674,159.783013 961.584494,160.860236 C961.584494,162.116628 962.218225,162.475791 963.575726,163.238896 C964.526176,163.732449 965.204792,164.091346 965.249972,165.078958 C965.249972,165.841823 964.842894,166.380421 963.983074,166.380421 C963.304162,166.380421 962.308559,165.976479 961.901212,163.642865 L961.901212,163.642865 L961.584494,163.642865 L961.584494,166.739585 L963.983074,166.739585 C965.476357,166.739585 966.788705,165.797018 966.788705,164.271047 C966.788705,162.700298 965.566959,162.251284 964.61651,161.712686 C963.620907,161.174327 963.077777,160.950087 963.077777,160.052325 C963.077777,159.379311 963.620907,158.930323 964.344972,158.975369 C965.023857,158.975369 965.431177,159.424116 965.657562,159.827818 C965.883677,160.23176 965.974306,160.590924 966.10982,161.084476 L966.10982,161.084476 L966.426807,161.084476 L966.426807,154.66677 L963.892444,154.66677 L963.892444,154.980887 C964.028227,155.025666 964.299792,155.025666 964.480727,155.115517 C964.707112,155.250173 964.842894,155.519486 964.842894,155.968233 L964.842894,155.968233 L964.842894,157.180113 C964.842894,157.539009 964.797741,158.077607 964.571356,158.34692 C964.435574,158.526355 964.209189,158.616206 963.892444,158.616206 C963.304162,158.616206 963.077777,158.122413 962.987444,157.808295 C962.851661,157.13504 962.806239,156.19274 962.806239,154.936082 C962.806239,153.589573 962.942264,152.467545 963.213559,151.929213 C963.485393,151.480199 963.801842,151.166081 964.344972,151.210886 C965.159639,151.255692 965.747922,152.198259 966.01946,153.454917 L966.01946,153.454917 L966.336204,153.454917 L966.336204,150.896795 Z M986.927301,160.590924 L985.343577,160.590924 C984.121832,160.590924 983.352156,161.263938 983.352156,162.341135 C983.352156,163.149045 983.940842,163.507942 984.890969,164.091346 C985.750736,164.585165 986.112715,164.944328 986.112715,165.527732 C986.112715,166.111136 985.705556,166.425227 985.162588,166.425227 C984.302821,166.380421 983.940842,165.662362 983.714404,164.495314 L983.714404,164.495314 L983.397336,164.495314 L983.397336,166.739585 L985.207768,166.739585 C986.158164,166.739585 987.289549,166.111136 987.289549,164.809672 C987.289549,163.597793 986.474962,163.328507 985.434206,162.745103 C984.619351,162.296329 984.483541,161.937193 984.528721,161.533491 C984.574171,161.129522 984.981598,160.860236 985.434206,160.905042 C986.158164,160.950087 986.429782,161.533491 986.610772,162.206478 L986.610772,162.206478 L986.927301,162.206478 L986.927301,160.590924 Z M970.318643,163.10424 L970.318643,164.944328 C970.318643,165.617583 970.137707,166.155914 969.77554,166.290571 C969.504245,166.425227 969.187258,166.335643 969.187258,165.797018 C969.142078,165.303225 969.142078,164.944328 969.187258,164.585165 C969.232707,164.136418 969.323309,163.732449 969.82099,163.418358 C969.82099,163.418358 970.318643,163.10424 970.318643,163.10424 L970.318643,163.10424 Z M969.77554,152.153453 C969.232707,152.153453 968.82536,152.37796 968.418039,152.692052 C967.784308,153.230677 967.37723,154.218022 967.37723,155.294979 C967.37723,156.416981 967.784308,157.359281 968.418039,157.898146 C968.82536,158.212264 969.232707,158.436504 969.77554,158.436504 C970.318643,158.436504 970.771412,158.212264 971.13331,157.898146 C971.812222,157.359281 972.17412,156.416981 972.17412,155.294979 C972.17412,154.218022 971.812222,153.230677 971.13331,152.692052 C970.771412,152.37796 970.318643,152.153453 969.77554,152.153453 Z M992.358066,152.153453 C991.090872,152.153453 990.185925,152.826441 990.231105,153.634619 C990.276285,154.128171 990.638264,154.307606 990.955332,154.307606 C991.407671,154.352412 991.905459,154.128171 991.860278,153.499962 C991.814829,153.09602 991.498031,153.09602 991.54348,152.826441 C991.54348,152.602201 991.860278,152.51235 992.041268,152.467545 C992.494145,152.467545 992.720045,152.647273 992.720045,153.050948 L992.720045,153.050948 L992.720045,154.038321 C992.720045,154.397217 992.629685,154.442529 991.769918,154.801426 C990.819522,155.205395 989.959487,155.474414 989.959487,156.776144 C989.959487,158.167458 990.909882,158.436504 991.452851,158.436504 C992.131897,158.436504 992.629685,158.122413 992.810674,157.62886 L992.810674,157.62886 L992.810674,158.301848 L994.304038,158.301848 L994.304038,153.858859 C994.304038,153.050948 994.03242,152.692052 993.625261,152.467545 C993.308462,152.28811 992.946484,152.153453 992.358066,152.153453 Z M980.410858,151.031451 L978.826704,151.031451 L978.826704,152.736857 L978.774873,152.635663 C978.61907,152.375647 978.323899,152.198259 977.921676,152.198259 C976.790291,152.198259 975.885021,153.365066 975.839841,155.160322 C975.794688,156.372202 976.202008,158.391699 977.785894,158.391699 C978.419356,158.391699 978.781523,158.032802 978.917306,157.718444 L978.917,157.719 L978.917306,158.301848 L980.410858,158.301848 L980.410858,151.031451 Z M998.569336,152.15145 L998.422421,152.153453 C997.834004,152.198259 997.381396,152.557395 997.200406,152.961364 L997.200406,152.961364 L997.200406,152.28811 L995.752222,152.28811 L995.752222,158.301848 L997.290767,158.301848 L997.290767,153.769275 C997.290767,153.320261 997.381396,153.050948 997.607565,152.826441 C997.788823,152.692052 998.014993,152.647273 998.150802,152.692052 C998.512781,152.781902 998.512781,153.230677 998.512781,153.769275 L998.512781,158.301848 L1000.09677,158.301848 L1000.09677,153.94871 C1000.09677,152.692052 999.417997,152.108648 998.422421,152.153453 Z M984.68043,152.148676 L984.528721,152.153453 C983.940842,152.198259 983.487965,152.557395 983.306976,152.961364 L983.306976,152.961364 L983.306976,152.28811 L981.904241,152.28811 L981.904241,158.301848 L983.442785,158.301848 L983.442785,153.769275 L983.444707,153.626074 C983.455621,153.260967 983.518145,153.026003 983.759584,152.826441 C983.940842,152.692052 984.121832,152.647273 984.257372,152.692052 C984.619351,152.781902 984.619351,153.230677 984.619351,153.769275 L984.619351,158.301848 L986.158164,158.301848 L986.158164,153.724469 L986.162489,153.579038 C986.18288,153.253633 986.276829,153.022885 986.474962,152.826441 C986.655952,152.692052 986.836941,152.647273 986.97275,152.692052 C987.334729,152.781902 987.379909,153.230677 987.379909,153.769275 L987.379909,153.769275 L987.379909,158.301848 L988.918722,158.301848 L988.918722,153.94871 L988.913675,153.765255 C988.850026,152.635282 988.189897,152.110888 987.2441,152.153453 C986.565323,152.198259 986.158164,152.647273 985.976905,153.006169 C985.750736,152.37796 985.252948,152.108648 984.528721,152.153453 Z M974.799058,151.031451 L973.215172,151.031451 L973.215172,158.301848 L974.799058,158.301848 L974.799058,151.031451 Z M969.77554,152.467545 C970.092285,152.467545 970.22831,152.602201 970.363823,152.826441 C970.590477,153.275455 970.545028,154.218022 970.545028,155.294979 L970.545028,155.294979 L970.544368,155.796085 C970.540739,156.682588 970.51715,157.383784 970.363823,157.763516 C970.22831,157.987757 970.092285,158.122413 969.77554,158.122413 C969.504245,158.122413 969.323309,157.987757 969.232707,157.763516 C969.041151,157.383784 969.01168,156.682588 969.007147,155.796085 L969.007147,155.796085 L969.007147,154.808772 C969.01168,153.939683 969.041151,153.206376 969.232707,152.826441 C969.323309,152.602201 969.504245,152.467545 969.77554,152.467545 Z M978.102638,152.557395 C978.329023,152.557395 978.419356,152.647273 978.555139,152.781902 C978.872126,153.230677 978.872126,154.307606 978.872126,155.160322 C978.872126,156.057817 978.917306,157.224891 978.555139,157.718444 C978.419356,157.898146 978.283843,157.987757 978.057458,157.987757 C977.74074,157.987757 977.559536,157.62886 977.469176,157.045456 C977.423754,156.506831 977.423754,155.833577 977.423754,155.115517 C977.423754,153.903931 977.514356,152.557395 978.102638,152.557395 Z M992.720045,154.711575 L992.720045,156.551637 C992.720045,157.180113 992.539325,157.763516 992.222257,157.898146 C991.950908,157.987757 991.63384,157.898146 991.58866,157.404353 C991.54348,156.865995 991.54348,156.551637 991.58866,156.19274 C991.63384,155.743726 991.724469,155.340024 992.222257,155.025666 C992.222257,155.025666 992.720045,154.711575 992.720045,154.711575 L992.720045,154.711575 Z" id="Combined-Shape" fill="#64A8F0"></path>
                        <g id="Group-20" transform="translate(10.395939, 0.000000)">
                            <g id="Combined-Shape-2" transform="translate(480.000000, 1.000000)" fill="#013791">
                                <path d="M20.2715071,0 C23.3770947,0.646151288 27.217286,1.71650917 31.8010045,3.17884275 C35.4667873,4.44335101 37.9412174,5.97599007 39.3461877,7.86466827 C40.9056002,9.61205857 41.6099356,12.2766313 41.6099356,15.7712425 C41.6099356,19.1207686 40.6217988,21.3640685 38.7888868,22.6146626 C37.0262308,23.9487563 34.6220534,23.8066016 31.9443696,22.5552835 L31.9443696,22.5552835 L31.9443696,9.82382614 C31.9443696,8.07726167 31.3738346,7.02743703 30.1816964,6.67354275 C29.681359,6.4720903 29.3369212,6.54167514 28.9799522,7.02743703 C28.6229819,7.37907374 28.5520519,7.93514794 28.5520519,8.77472555 L28.5520519,8.77472555 L28.5520519,40.4532121 L20.2715071,37.9410539 Z M39.9032342,25.5775664 C43.0247232,25.4440232 46.3735554,25.7765317 49.7224456,26.7630205 C52.6842531,27.6173721 54.3275421,28.6038609 54.4015567,29.8471599 C54.5526299,31.1654641 53.2091788,32.217375 50.2364974,33.2031834 L50.2364974,33.2031834 L48.7551743,33.7931825 L36.1883628,37.7302544 L30.9407214,39.3886539 L30.9407214,34.7307998 L42.1337691,31.1654641 L44.8814056,30.2450456 C45.9974191,29.9125371 46.5246979,29.5800317 46.3735808,29.191084 C46.2225076,28.858578 45.8487023,28.5935429 45.0324824,28.5377841 C45.0324824,28.5377841 43.6150523,28.0909924 42.2856592,28.4042053 C41.4141656,28.6038539 40.2023126,28.8585783 40.2023126,28.8585783 L40.2023126,28.8585783 L37.0785545,29.8471532 L30.9407214,31.75338 L30.9407214,26.9619858 C34.0208931,26.0994091 37.0154167,25.6333252 39.9032342,25.5775664 Z M18.1376642,22.3557225 L18.1376642,27.3467253 L11.7308313,29.5369662 L9.77447549,30.2347997 C9.20175685,30.4473793 8.69883114,30.7288518 8.33244653,30.930412 C7.96835699,31.2851807 8.11320845,31.6392249 8.69883114,31.9830142 L8.69883114,31.9830142 L11.5942902,32.3348782 L14.6262479,31.7712034 L16.4460661,31.0726455 L18.1376642,30.48843 L18.1376642,34.7809261 C13.7486449,35.4171683 9.45055862,35.1848134 5.21704567,34.0830927 C1.95823971,33.2452469 0.149031521,32.123023 0.00188392519,30.5895684 C-0.0595420615,29.5369697 1.3824869,28.3451241 4.13075698,27.2250804 L4.13075698,27.2250804 L5.93996624,26.5272469 L16.4460732,22.8907818 L18.1376642,22.3557225 Z" id="Combined-Shape"></path>
                            </g>
                            <g id="Group-5" transform="translate(253.000000, 0.000000)">
                                <mask id="mask-4" fill="white">
                                    <use xlink:href="#path-3"></use>
                                </mask>
                                <g id="a"></g>
                                <polygon id="Path" fill="#FBBC05" mask="url(#mask-4)" points="-1.93985714 33.8723068 -1.93985714 8.71002175 14.5489285 21.2911643"></polygon>
                                <mask id="mask-6" fill="white">
                                    <use xlink:href="#path-5"></use>
                                </mask>
                                <g id="a"></g>
                                <polygon id="Path" fill="#EA4335" mask="url(#mask-6)" points="-1.93985714 8.71002175 14.5489285 21.2911643 21.3384285 15.3877051 44.6167142 11.6133623 44.6167142 -1.93556039 -1.93985714 -1.93556039"></polygon>
                                <mask id="mask-8" fill="white">
                                    <use xlink:href="#path-7"></use>
                                </mask>
                                <g id="a"></g>
                                <polygon id="Path" fill="#34A853" mask="url(#mask-8)" points="-1.93985714 33.8723068 27.1579999 11.6133623 34.8204356 12.5811425 44.6167142 -1.93556039 44.6167142 44.517889 -1.93985714 44.517889"></polygon>
                                <mask id="mask-10" fill="white">
                                    <use xlink:href="#path-9"></use>
                                </mask>
                                <g id="a"></g>
                                <polygon id="Path" fill="#4285F4" mask="url(#mask-10)" points="44.6167142 44.517889 14.5489285 21.2911643 10.6692143 18.3878237 44.6167142 8.71002175"></polygon>
                            </g>
                            <g id="Path-2" transform="translate(0.000000, 9.000000)" fill="#000000">
                                <path d="M7.49009075,24.3806351 C5.46689354,24.2996282 3.81161336,23.7416582 2.51732145,22.7053285 C2.27031124,22.5073504 1.68171328,21.9137653 1.48424369,21.663412 C0.959390309,20.9982476 0.602559295,20.3508906 0.364556473,19.6326527 C-0.367813201,17.4217227 0.00911120977,14.5204883 1.44267115,11.3364279 C2.67010055,8.61047566 4.56407643,5.9068701 7.86840091,2.16239561 C8.35514613,1.61140897 9.80464221,0 9.81399603,0 C9.81746041,0 9.73847257,0.137921244 9.6390449,0.305870911 C8.77987897,1.75631357 8.04473779,3.46479116 7.6442556,4.94386556 C7.00092046,7.31715847 7.07852255,9.3538537 7.87151885,10.9331392 C8.41854426,12.0211458 9.3563516,12.9635495 10.4109085,13.4845077 C12.2570759,14.3961846 14.9599843,14.4716048 18.2608444,13.7051817 C18.4881076,13.6521082 29.7494173,10.63914 43.2861309,7.00954172 C56.8228446,3.37959424 67.9001957,0.412017894 67.9019279,0.414462068 C67.9057387,0.417604578 36.4522973,13.98277 20.1243337,21.0202451 C17.5385214,22.1344393 16.8470314,22.4158685 15.6313809,22.8460431 C12.5238331,23.9459213 9.74020476,24.4707204 7.49009075,24.3806351 Z" id="Path"></path>
                            </g>
                            <g id="Combined-Shape-3" transform="translate(720.000000, 0.000000)">
                                <g id="spotty" transform="translate(227.604061, 0.000000)"></g>
                                <g id="Slack_Mark" fill-rule="nonzero">
                                    <g id="Group" transform="translate(0.000000, 23.064516)" fill="#E01E5A">
                                        <path d="M9.36774194,4.68387097 C9.36774194,7.20322581 7.30967742,9.26129032 4.79032258,9.26129032 C2.27096774,9.26129032 0.212903226,7.20322581 0.212903226,4.68387097 C0.212903226,2.16451613 2.27096774,0.106451613 4.79032258,0.106451613 L9.36774194,0.106451613 L9.36774194,4.68387097 Z" id="Path"></path>
                                        <path d="M11.6741935,4.68387097 C11.6741935,2.16451613 13.7322581,0.106451613 16.2516129,0.106451613 C18.7709677,0.106451613 20.8290323,2.16451613 20.8290323,4.68387097 L20.8290323,16.1451613 C20.8290323,18.6645161 18.7709677,20.7225806 16.2516129,20.7225806 C13.7322581,20.7225806 11.6741935,18.6645161 11.6741935,16.1451613 L11.6741935,4.68387097 Z" id="Path"></path>
                                    </g>
                                    <g id="Group" fill="#36C5F0">
                                        <path d="M16.2516129,9.36774194 C13.7322581,9.36774194 11.6741935,7.30967742 11.6741935,4.79032258 C11.6741935,2.27096774 13.7322581,0.212903226 16.2516129,0.212903226 C18.7709677,0.212903226 20.8290323,2.27096774 20.8290323,4.79032258 L20.8290323,9.36774194 L16.2516129,9.36774194 Z" id="Path"></path>
                                        <path d="M16.2516129,11.6741935 C18.7709677,11.6741935 20.8290323,13.7322581 20.8290323,16.2516129 C20.8290323,18.7709677 18.7709677,20.8290323 16.2516129,20.8290323 L4.79032258,20.8290323 C2.27096774,20.8290323 0.212903226,18.7709677 0.212903226,16.2516129 C0.212903226,13.7322581 2.27096774,11.6741935 4.79032258,11.6741935 L16.2516129,11.6741935 Z" id="Path"></path>
                                    </g>
                                    <g id="Group" transform="translate(23.064516, 0.000000)" fill="#2EB67D">
                                        <path d="M11.5677419,16.2516129 C11.5677419,13.7322581 13.6258065,11.6741935 16.1451613,11.6741935 C18.6645161,11.6741935 20.7225806,13.7322581 20.7225806,16.2516129 C20.7225806,18.7709677 18.6645161,20.8290323 16.1451613,20.8290323 L11.5677419,20.8290323 L11.5677419,16.2516129 Z" id="Path"></path>
                                        <path d="M9.26129032,16.2516129 C9.26129032,18.7709677 7.20322581,20.8290323 4.68387097,20.8290323 C2.16451613,20.8290323 0.106451613,18.7709677 0.106451613,16.2516129 L0.106451613,4.79032258 C0.106451613,2.27096774 2.16451613,0.212903226 4.68387097,0.212903226 C7.20322581,0.212903226 9.26129032,2.27096774 9.26129032,4.79032258 L9.26129032,16.2516129 Z" id="Path"></path>
                                    </g>
                                    <g id="Group" transform="translate(23.064516, 23.064516)" fill="#ECB22E">
                                        <path d="M4.68387097,11.5677419 C7.20322581,11.5677419 9.26129032,13.6258065 9.26129032,16.1451613 C9.26129032,18.6645161 7.20322581,20.7225806 4.68387097,20.7225806 C2.16451613,20.7225806 0.106451613,18.6645161 0.106451613,16.1451613 L0.106451613,11.5677419 L4.68387097,11.5677419 Z" id="Path"></path>
                                        <path d="M4.68387097,9.26129032 C2.16451613,9.26129032 0.106451613,7.20322581 0.106451613,4.68387097 C0.106451613,2.16451613 2.16451613,0.106451613 4.68387097,0.106451613 L16.1451613,0.106451613 C18.6645161,0.106451613 20.7225806,2.16451613 20.7225806,4.68387097 C20.7225806,7.20322581 18.6645161,9.26129032 16.1451613,9.26129032 L4.68387097,9.26129032 Z" id="Path"></path>
                                    </g>
                                </g>
                            </g>
                        </g>
                        <path d="M980.499866,0 C968.073797,0 958,10.0737687 958,22.5001343 C958,34.9270374 968.073797,45 980.499866,45 C992.927278,45 1003,34.9270374 1003,22.5001343 C1003,10.0745747 992.927278,0.00107473594 980.499597,0.00107473594 L980.499866,0 Z M990.818159,32.4516518 C990.415143,33.1126144 989.550001,33.3221879 988.889054,32.9164751 C983.606316,29.6895804 976.956009,28.95876 969.124057,30.7481953 C968.369342,30.9201531 967.617045,30.4472693 967.445091,29.6922673 C967.272332,28.9372653 967.743323,28.1849501 968.499919,28.0129924 C977.070734,26.0540174 984.422558,26.8979538 990.353347,30.5225008 C991.014294,30.9282136 991.223862,31.7906892 990.818159,32.4516518 L990.818159,32.4516518 Z M993.572104,26.3243135 C993.064303,27.1505168 991.98422,27.4111402 991.15938,26.9033275 C985.111447,23.1850098 975.892314,22.1083931 968.738774,24.2798971 C967.81103,24.5601345 966.831163,24.0372754 966.549589,23.1111217 C966.270164,22.1833559 966.793279,21.2053462 967.719411,20.923228 C975.890702,18.4438122 986.049132,19.6448296 992.994447,23.9128747 C993.819287,24.4206875 994.079905,25.5007971 993.572104,26.3245822 L993.572104,26.3243135 Z M993.80854,19.944681 C986.556933,15.637408 974.592721,15.2413678 967.669168,17.3427452 C966.557381,17.6799436 965.381648,17.0522978 965.044726,15.9404835 C964.707804,14.8281318 965.334898,13.6531767 966.447491,13.3151723 C974.395243,10.9023901 987.607462,11.3685568 995.956349,16.3249703 C996.958516,16.9184932 997.286303,18.2100571 996.692525,19.2087555 C996.101435,20.2087973 994.806409,20.5384726 993.809615,19.944681 L993.80854,19.944681 Z" id="Shape" fill="#1ED760" fill-rule="nonzero"></path>
                    </g>
                </g>
            </g>
        </g>
    </g>
</svg>