<?xml version="1.0" encoding="UTF-8"?>
<svg width="800px" height="45px" viewBox="0 0 800 45" version="1.1" xmlns="http://www.w3.org/2000/svg" xmlns:xlink="http://www.w3.org/1999/xlink">
    <!-- Generator: Sketch 49.3 (51167) - http://www.bohemiancoding.com/sketch -->
    <title>Group 10</title>
    <desc>Created with Sketch.</desc>
    <defs></defs>
    <g id="Page-1" stroke="none" stroke-width="1" fill="none" fill-rule="evenodd">
        <g id="Desktop-HD-Copy-3" transform="translate(-320.000000, -667.000000)">
            <g id="Group-7" transform="translate(28.000000, 98.000000)">
                <g id="Group-5" transform="translate(292.000000, 191.000000)">
                    <g id="Group-9" transform="translate(0.000000, 378.000000)">
                        <g id="Group-8">
                            <g id="Group-4">
                                <g id="Group-10">
                                    <g id="Group-2" transform="translate(0.000000, 8.246383)">
                                        <path d="M41.2196751,16.8012464 C41.2196751,21.3487647 37.6621411,24.6997552 33.2962386,24.6997552 C28.9303361,24.6997552 25.3728021,21.3487647 25.3728021,16.8012464 C25.3728021,12.2216782 28.9303361,8.90273759 33.2962386,8.90273759 C37.6621411,8.90273759 41.2196751,12.2216782 41.2196751,16.8012464 Z M37.7511685,16.8012464 C37.7511685,13.9594925 35.6892945,12.0151347 33.2962386,12.0151347 C30.9031827,12.0151347 28.8413087,13.9594925 28.8413087,16.8012464 C28.8413087,19.6145115 30.9031827,21.5873581 33.2962386,21.5873581 C35.6892945,21.5873581 37.7511685,19.6109504 37.7511685,16.8012464 Z" id="Shape" fill="#EA4335"></path>
                                        <path d="M58.3129312,16.8012464 C58.3129312,21.3487647 54.7553973,24.6997552 50.3894948,24.6997552 C46.0235923,24.6997552 42.4660583,21.3487647 42.4660583,16.8012464 C42.4660583,12.2252393 46.0235923,8.90273759 50.3894948,8.90273759 C54.7553973,8.90273759 58.3129312,12.2216782 58.3129312,16.8012464 Z M54.8444247,16.8012464 C54.8444247,13.9594925 52.7825506,12.0151347 50.3894948,12.0151347 C47.9964389,12.0151347 45.9345649,13.9594925 45.9345649,16.8012464 C45.9345649,19.6145115 47.9964389,21.5873581 50.3894948,21.5873581 C52.7825506,21.5873581 54.8444247,19.6109504 54.8444247,16.8012464 Z" id="Shape" fill="#FBBC05"></path>
                                        <path d="M74.6939684,9.37992433 L74.6939684,23.5602048 C74.6939684,29.3932784 71.2539506,31.775651 67.1871801,31.775651 C63.3590029,31.775651 61.0549744,29.2152237 60.1860672,27.1212998 L63.2058758,25.8642333 C63.7436012,27.1497886 65.0612063,28.666815 67.183619,28.666815 C69.7867794,28.666815 71.3999555,27.0607612 71.3999555,24.0373915 L71.3999555,22.9014022 L71.2788783,22.9014022 C70.5025595,23.8593367 69.0068996,24.6961941 67.1195193,24.6961941 C63.1702649,24.6961941 59.5521923,21.2561763 59.5521923,16.8297351 C59.5521923,12.3712442 63.1702649,8.90273759 67.1195193,8.90273759 C69.0033385,8.90273759 70.4989984,9.73959493 71.2788783,10.6690407 L71.3999555,10.6690407 L71.3999555,9.38348542 L74.6939684,9.38348542 L74.6939684,9.37992433 Z M71.645671,16.8297351 C71.645671,14.0485199 69.7903405,12.0151347 67.4293345,12.0151347 C65.0362787,12.0151347 63.0313822,14.0485199 63.0313822,16.8297351 C63.0313822,19.5824616 65.0362787,21.5873581 67.4293345,21.5873581 C69.7903405,21.5873581 71.645671,19.5824616 71.645671,16.8297351 Z" id="Shape" fill="#4285F4"></path>
                                        <polygon id="Shape" fill="#34A853" points="80.1246383 1.06832851 80.1246383 24.2154462 76.741598 24.2154462 76.741598 1.06832851"></polygon>
                                        <path d="M93.3078122,19.4008458 L96,21.1956377 C95.1310928,22.481193 93.0371689,24.6961941 89.4190964,24.6961941 C84.9321166,24.6961941 81.5811262,21.2276875 81.5811262,16.7976853 C81.5811262,12.1006009 84.9606054,8.8991765 89.030937,8.8991765 C93.1297574,8.8991765 95.1346539,12.1611396 95.7898954,13.9238816 L96.149566,14.8212775 L85.5909192,19.1943022 C86.3992878,20.7789895 87.6563543,21.5873581 89.4190964,21.5873581 C91.1853995,21.5873581 92.4104162,20.7184509 93.3078122,19.4008458 Z M85.021144,16.5590919 L92.0792344,13.6283107 C91.691075,12.6418874 90.5230358,11.954596 89.1484531,11.954596 C87.3857111,11.954596 84.9321166,13.5107946 85.021144,16.5590919 L85.021144,16.5590919 Z" id="Shape" fill="#EA4335"></path>
                                        <path d="M12.5671044,14.7464945 L12.5671044,11.3955041 L23.8593367,11.3955041 C23.9697307,11.9795237 24.0267082,12.6703761 24.0267082,13.4182061 C24.0267082,15.9323392 23.3394169,19.0411752 21.1244158,21.2561763 C18.9699533,23.4996661 16.2172268,24.6961941 12.5706655,24.6961941 C5.8117071,24.6961941 0.128199421,19.1907412 0.128199421,12.4317828 C0.128199421,5.67282439 5.8117071,0.167371467 12.5706655,0.167371467 C16.3098153,0.167371467 18.9735144,1.63454262 20.9748498,3.54685066 L18.6102827,5.91141776 C17.1751614,4.56532384 15.2308035,3.5183619 12.5671044,3.5183619 C7.63142666,3.5183619 3.77119964,7.49610505 3.77119964,12.4317828 C3.77119964,17.3674605 7.63142666,21.3452037 12.5671044,21.3452037 C15.7685288,21.3452037 17.5918095,20.0596483 18.7598487,18.8916092 C19.7070999,17.9443579 20.3302916,16.5911418 20.5760071,14.7429335 L12.5671044,14.7464945 L12.5671044,14.7464945 Z" id="Shape" fill="#4285F4"></path>
                                    </g>
                                    <path d="M320.844998,13.779393 C321.159214,13.798429 321.483863,13.8066739 321.830527,13.8073372 C322.180459,13.8080966 322.48374,13.8055843 322.751426,13.7983862 C325.144561,13.5457004 326.975517,12.3735693 326.975517,12.3735693 C319.780983,25.4183635 309.692654,18.5340462 303.649683,15.7561913 C303.374605,15.629278 303.103529,15.5195265 302.836541,15.4256801 C302.770772,15.4029395 302.70587,15.3809798 302.64179,15.3597914 C298.810372,14.1140485 295.837907,16.1292763 293.981244,17.6065278 C289.548897,21.1270242 286.741273,21.1035229 282.902726,19.9268906 C281.296803,19.4380633 279.510703,18.7408577 277.348583,18.0342517 C270.627208,15.8125944 267.902623,22.9193908 267.902623,22.9193908 L262.876476,35.0131653 L262.785604,35.2325109 C262.577226,35.6304664 262.135401,35.7025371 261.740579,35.3750855 C258.489564,32.3371494 256.794337,28.0849789 257.019949,23.2860112 C257.438272,14.3539464 264.911689,7.66860687 273.723114,8.0869302 C273.723114,8.0869302 279.424532,8.55695641 284.323772,11.5713912 C294.120685,17.5954979 295.978855,14.8724793 300.929798,11.6230314 C309.061252,6.29606765 313.22255,12.7495276 320.841675,13.778885 L320.841675,13.7789477 C320.842783,13.7790964 320.84389,13.7792448 320.844998,13.779393 Z M283.598365,30.8205315 C292.494394,36.2853696 296.1841,33.5576508 300.014814,31.0414438 C309.27433,24.9781056 314.52609,33.1455945 320.495423,33.9509061 C323.754271,34.3927307 326.621431,32.5408274 326.621431,32.5408274 C318.992906,46.3877997 309.244562,37.8286224 305.185102,35.9563513 C301.977957,34.4804689 300.246693,32.6301324 293.050592,36.1114599 C286.763208,39.16193 278.439044,41.6922378 270.805818,39.4000767 C270.805818,39.4000767 270.777616,39.3913028 270.744652,39.3735045 C271.626734,36.937202 272.991377,33.7363234 275.352476,33.7723588 C276.041847,33.7748656 279.809891,34.0246062 280.201579,33.9650695 C280.655938,33.9055329 280.950488,33.5812148 281.031959,33.2302619 C281.215269,32.413983 280.881551,32.2244058 280.845515,31.9596243 C280.812551,31.6995432 281.074261,31.6133717 281.290473,31.4378952 C281.646127,31.1511793 281.679028,30.9381007 281.600691,30.6983873 C281.531754,30.490009 281.05076,30.4226386 280.890951,30.3333336 C280.731142,30.2409578 280.776515,29.9682799 281.031959,29.9353781 C282.318264,29.7646019 282.249327,29.0830639 282.103619,28.8417838 C281.577189,27.8876306 282.266561,27.7591567 282.60968,27.6980533 C282.60968,27.6980533 283.070306,27.7105874 283.389924,27.6526801 C284.118464,27.5210728 283.79728,26.6891264 283.79728,26.6891264 C283.79728,26.6891264 283.079707,22.3711522 282.902663,21.6003092 C282.742854,20.8905696 283.104775,20.6759243 283.748711,20.9501063 C283.811381,20.9783079 283.866154,21.01591 283.925754,21.0614085 C283.928261,21.0614085 283.932021,21.0701823 283.938288,21.077076 C292.343923,26.2442309 293.490787,25.8885777 300.475377,21.3026886 C309.476379,15.4022929 314.39442,23.2407634 320.597199,24.0758433 C323.859181,24.5129677 326.720074,22.6657647 326.720074,22.6657647 C320.047268,34.7783402 310.726649,28.9719497 303.193695,25.4310856 C296.077498,22.1001664 291.319266,31.8093413 283.791013,30.549671 C283.5654,30.4995349 283.432226,30.7188805 283.598302,30.8207195 L283.598365,30.8205315 Z" id="Combined-Shape" fill="#4665B9"></path>
                                    <g id="Nvidia_logo" transform="translate(437.000000, 9.670821)">
                                        <g id="svg2">
                                            <path d="M103.007279,11.0843095 L104.879085,16.1533556 L101.077541,16.1533556 L103.007279,11.0843095 Z M101.002655,9.11057576 L96.6890934,19.9294828 L99.7350617,19.9294828 L100.41734,18.0178162 L105.522154,18.0178162 L106.167873,19.9294828 L109.47453,19.9294828 L105.128824,9.10917706 L101.002655,9.11057576 Z M92.3425041,19.9335041 L95.4328037,19.9335041 L95.4328037,9.10725385 L92.3419743,9.10655451 L92.3425041,19.9335041 Z M70.8891451,9.10655451 L68.3108635,17.6871996 L65.8410258,9.10725385 L62.506639,9.10655451 L66.0340702,19.9335041 L70.486101,19.9335041 L74.0419678,9.10655451 L70.8891451,9.10655451 L70.8891451,9.10655451 Z M83.3805116,11.4640552 L84.7086852,11.4640552 C86.6355966,11.4640552 87.881819,12.3204063 87.881819,14.5427581 C87.881819,16.7656344 86.6355966,17.6221603 84.7086852,17.6221603 L83.3805116,17.6221603 L83.3805116,11.4640552 Z M80.316175,9.10655451 L80.316175,19.9335041 L85.3261446,19.9335041 C87.9953849,19.9335041 88.8669988,19.4943138 89.8094369,18.508933 C90.4751133,17.8171034 90.90571,16.2988199 90.90571,14.6390932 C90.90571,13.1167884 90.5413453,11.7598792 89.9060474,10.914368 C88.7613808,9.4022037 87.1124674,9.10655451 84.6516373,9.10655451 L80.316175,9.10655451 L80.316175,9.10655451 Z M51.0428408,9.09151853 L51.0428408,19.9335041 L54.15928,19.9335041 L54.15928,11.701134 L56.5740126,11.7018334 C57.373566,11.7018334 57.943515,11.8990494 58.328544,12.3062445 C58.8168951,12.8211392 59.0162978,13.6523138 59.0162978,15.1726954 L59.0162978,19.9335041 L62.0361264,19.9335041 L62.0361264,13.9432424 C62.0361264,9.66795578 59.2833454,9.09151853 56.5899083,9.09151853 L51.0428408,9.09151853 L51.0428408,9.09151853 Z M75.3425888,9.10655451 L75.3438252,19.9335041 L78.4327118,19.9335041 L78.4327118,9.10655451 L75.3425888,9.10655451 L75.3425888,9.10655451 Z" id="path19" fill="#000000"></path>
                                            <path d="M4.62935606,12.485802 C4.62935606,12.485802 8.60398613,6.68069259 16.5399999,6.08012786 L16.5399999,3.97404262 C7.74985748,4.67286569 0.137939303,12.0425905 0.137939303,12.0425905 C0.137939303,12.0425905 4.44920486,24.379956 16.5399999,25.5095771 L16.5399999,23.2709655 C7.66719987,22.1659964 4.62935606,12.485802 4.62935606,12.485802 Z M16.5399999,18.8189189 L16.5399999,20.8690563 C9.83413625,19.6855853 7.97275044,12.7851228 7.97275044,12.7851228 C7.97275044,12.7851228 11.1925116,9.25429168 16.5399999,8.68170085 L16.5399999,10.9313272 C16.5359376,10.9313272 16.5331117,10.9301033 16.529756,10.9301033 C13.7231062,10.5966894 11.5305601,13.1921431 11.5305601,13.1921431 C11.5305601,13.1921431 12.7594739,17.5614919 16.5399999,18.8189189 L16.5399999,18.8189189 Z M16.5399999,0.0895164902 L16.5399999,3.97404262 C16.79804,3.95446089 17.0560801,3.93785138 17.3155331,3.92910954 C27.3089796,3.59569558 33.8203858,12.0425905 33.8203858,12.0425905 C33.8203858,12.0425905 26.3418149,21.0445925 18.550452,21.0445925 C17.836382,21.0445925 17.1678798,20.9790287 16.5399999,20.8688814 L16.5399999,23.2709655 C17.0769211,23.3384526 17.6336236,23.3781406 18.2145229,23.3781406 C25.4649024,23.3781406 30.7081855,19.7126851 35.7852703,15.3744572 C36.6270356,16.0418096 40.0732221,17.665345 40.7816403,18.376057 C35.9542945,22.3768497 24.7038519,25.601891 18.3256162,25.601891 C17.7108061,25.601891 17.1203693,25.5650004 16.5399999,25.5095771 L16.5399999,28.8849782 L44.0981886,28.8849782 L44.0981886,0.0895164902 L16.5399999,0.0895164902 Z M16.5399999,8.68170085 L16.5399999,6.08030269 C16.7953907,6.06264417 17.0527243,6.04900689 17.3155331,6.04078955 C24.5017999,5.817348 29.2164629,12.1539616 29.2164629,12.1539616 C29.2164629,12.1539616 24.1241889,19.1549554 18.6641945,19.1549554 C17.8784173,19.1549554 17.1738848,19.029947 16.5398232,18.8189189 L16.5398232,10.9313272 C19.3374654,11.265965 19.9005263,12.4892987 21.5824674,15.2648345 L25.3232541,12.1424223 C25.3232541,12.1424223 22.5925504,8.59725463 17.9893339,8.59725463 C17.4889728,8.59707979 17.0101592,8.63187234 16.5399999,8.68170085 L16.5399999,8.68170085 Z" id="path21" fill="#77B900"></path>
                                        </g>
                                    </g>
                                    <g id="Samsung_Logo" transform="translate(578.000000, 17.149121)" fill="#034EA2">
                                        <polygon id="Shape" points="76.6165508 10.8175949 76.4352637 0.473065408 79.7096742 0.473065408 79.7096742 13.5111766 75.0018308 13.5111766 71.7344469 2.81104948 71.6641806 2.81104948 71.8454677 13.5111766 68.5921371 13.5111766 68.5921371 0.473065408 73.5037528 0.473065408 76.5434738 10.8175949"></polygon>
                                        <polygon id="Shape" points="17.0967622 1.69385709 15.2852965 13.6483757 11.7143622 13.6483757 14.1666567 0.473065408 20.049353 0.473065408 22.4904049 13.6483757 18.9335238 13.6483757 17.1712445 1.69385709"></polygon>
                                        <polygon id="Shape" points="32.5202193 10.5445968 34.1546139 0.473065408 39.5482566 0.473065408 39.8349432 13.6483757 36.5296155 13.6483757 36.4424853 1.80305635 36.3736243 1.80305635 34.1630459 13.6483757 30.8071265 13.6483757 28.5951427 1.80305635 28.5234711 1.80305635 28.4405568 13.6483757 25.1282025 13.6483757 25.4205104 0.473065408 30.8169638 0.473065408 32.449953 10.5445968"></polygon>
                                        <path d="M6.14505368,9.93140098 C6.27434371,10.2505988 6.23499457,10.660796 6.17456553,10.9085943 C6.06354475,11.3467913 5.76561555,11.7933883 4.88588123,11.7933883 C4.05673866,11.7933883 3.55363182,11.3201915 3.55363182,10.5963965 L3.55363182,9.32100514 L0.00658801114,9.32100514 L0.00377735836,10.3415982 C0.00377735836,13.2787782 2.32537655,14.1649721 4.81280426,14.1649721 C7.20466977,14.1649721 9.17493737,13.3501777 9.48832516,11.1549926 C9.64853236,10.0168004 9.52907962,9.27200547 9.47427189,8.99060739 C8.91635732,6.23262618 3.89653146,5.40943178 3.52271464,3.86664229 C3.45947495,3.6020441 3.47774419,3.322046 3.50866137,3.17224702 C3.60000759,2.75224988 3.88950482,2.28885304 4.71724207,2.28885304 C5.49017158,2.28885304 5.94690266,2.7648498 5.94690266,3.4844449 L5.94690266,4.29783936 L9.24520369,4.29783936 L9.24520369,3.37244566 C9.24520369,0.502465208 6.65940314,0.0544682593 4.78610306,0.0544682593 C2.43358668,0.0544682593 0.511100185,0.828662986 0.159768588,2.97344838 C0.0642063931,3.56564434 0.0501531292,4.09344075 0.189280442,4.75423625 C0.766869588,7.44641791 5.46487571,8.2262126 6.14505368,9.93140098 Z" id="Shape"></path>
                                        <path d="M49.1508518,9.90760114 C49.2815472,10.223999 49.2393874,10.6229963 49.1803637,10.8707946 C49.0721536,11.3075916 48.777035,11.7471886 47.902922,11.7471886 C47.085022,11.7471886 46.5861312,11.2739918 46.5861312,10.5669967 L46.5833205,9.30280526 L43.0728152,9.30280526 L43.0685992,10.3093984 C43.0685992,13.2171786 45.3691185,14.0949726 47.8312503,14.0949726 C50.19782,14.0949726 52.1498183,13.2913781 52.4575848,11.1157929 C52.617792,9.98600061 52.5039606,9.25100562 52.4463422,8.9752075 C51.8912383,6.24242611 46.9220042,5.42763166 46.5524033,3.90024206 C46.4891636,3.63704386 46.5074329,3.35984574 46.5397554,3.21844671 C46.6339123,2.79564959 46.9177882,2.34345267 47.7370935,2.34345267 C48.5029964,2.34345267 48.9498902,2.8082495 48.9498902,3.52224464 L48.9498902,4.32723916 L52.2228953,4.32723916 L52.2228953,3.41164539 C52.2228953,0.572464731 49.6581747,0.127267763 47.8031438,0.127267763 C45.4773286,0.127267763 43.5703007,0.891662557 43.2259958,3.02104805 C43.1304336,3.60484408 43.1205963,4.12284055 43.256913,4.78083607 C43.8260701,7.44501792 48.4777005,8.21921265 49.1508518,9.90760114 Z" id="Shape"></path>
                                        <path d="M60.2599569,11.6771891 C61.1776351,11.6771891 61.4643216,11.0443934 61.5275613,10.7209956 C61.5542625,10.5781966 61.5612892,10.3877979 61.5584785,10.216999 L61.5584785,0.467465446 L64.9031553,0.467465446 L64.9031553,9.91880107 C64.910182,10.1609994 64.8862914,10.659396 64.8750488,10.7839952 C64.6403593,13.2437784 62.6883609,14.041773 60.2585516,14.041773 C57.8259316,14.041773 55.8725279,13.2437784 55.6406491,10.7839952 C55.6294065,10.659396 55.6055159,10.1609994 55.6125426,9.91880107 L55.6125426,0.467465446 L58.9544087,0.467465446 L58.9544087,10.216999 C58.9544087,10.3877979 58.96003,10.5795966 58.9853259,10.7209956 C59.0569975,11.0443934 59.3352522,11.6771891 60.2599569,11.6771891 Z" id="Shape"></path>
                                        <path d="M87.8493246,11.53859 C88.8077572,11.53859 89.1422249,10.9351941 89.2040592,10.5837965 C89.2279498,10.4325976 89.2349764,10.2491988 89.2335711,10.0826 L89.2335711,8.17021298 L87.8760258,8.17021298 L87.8760258,6.24662608 L92.5656,6.24662608 L92.5656,9.78300199 C92.5627893,10.0294003 92.557168,10.2113991 92.5178189,10.6509961 C92.2971826,13.0477798 90.2102729,13.9031739 87.8661885,13.9031739 C85.5178881,13.9031739 83.4337891,13.0477798 83.2103422,10.6509961 C83.1723984,10.2113991 83.1667771,10.0294003 83.1625611,9.78300199 L83.1653717,4.23483978 C83.1653717,4.00104138 83.1948836,3.5866442 83.2201795,3.3668457 C83.5138927,0.904262471 85.5178881,0.111867868 87.8661885,0.111867868 C90.2116783,0.111867868 92.2648601,0.9000625 92.5079816,3.3668457 C92.5515467,3.78684284 92.5374934,4.23483978 92.5374934,4.23483978 L92.5374934,4.67443679 L89.2026539,4.67443679 L89.2026539,3.93664182 C89.2054646,3.93804181 89.1984379,3.62304395 89.1590888,3.43544523 C89.1028757,3.14424721 88.8485117,2.47505177 87.8408926,2.47505177 C86.8768387,2.47505177 86.5943681,3.10784746 86.5241018,3.43544523 C86.4833473,3.60904405 86.4678888,3.84424245 86.4678888,4.057041 L86.4678888,10.0826 C86.4650781,10.2491988 86.4749154,10.4325976 86.5016166,10.5837965 C86.559235,10.9365941 86.8922973,11.53859 87.8493246,11.53859 Z" id="Shape"></path>
                                    </g>
                                    <g id="capital-one-logo-(1)" transform="translate(703.000000, 7.000000)">
                                        <path d="M65.7026506,24.8533418 C61.5692658,27.7468111 56.686421,30.7748604 51.4402018,33.9599196 L51.2358036,34.0720696 C51.1676709,34.1169296 51.14496,34.2066496 51.1903818,34.2963695 C51.2358036,34.3636595 51.3266472,34.3860895 51.4174909,34.3412295 L51.5991781,34.2515096 C56.0505157,31.9636501 61.1831804,29.2271907 66.3158451,26.4234414 C66.338556,26.4010114 66.3612669,26.4010114 66.4066887,26.3785814 C66.1114469,25.9075515 65.861627,25.3916616 65.7026506,24.8533418 L65.7026506,24.8533418 Z M92.7740504,3.20839682 C86.2787313,-3.87948152 44.4679537,2.49063699 26.6853144,6.32616609 L26.2765181,6.41588607 C26.1856745,6.43831607 26.1402526,6.50560605 26.1402526,6.59532603 C26.1629635,6.68504601 26.2310963,6.729906 26.3219399,6.729906 L26.7307362,6.64018602 C41.4474032,4.06073662 72.0844152,0.471937462 78.6932888,6.93177595 C80.7145594,8.90561549 80.2149195,11.4402049 77.8984071,14.4233942 C79.1475069,15.230874 80.0559431,16.4869537 80.4647395,18.0570533 C89.5491018,12.0682447 95.6583355,6.37102608 92.7740504,3.20839682 Z" id="Shape" fill="#A12830"></path>
                                        <g id="Group" transform="translate(0.000000, 14.154234)" fill="#003A6F">
                                            <path d="M68.3371157,8.83741793 C68.4279593,11.3271473 70.0177228,13.3682769 72.1071261,13.3682769 C76.1496673,13.3682769 77.8529853,8.47853802 77.7394307,5.20375878 C77.6485871,2.71402937 76.0134019,0.672899843 73.9467095,0.672899843 C70.44923,0.672899843 68.2235612,5.5402087 68.3371157,8.83741793 L68.3371157,8.83741793 Z M66.2022906,8.70283796 C66.0433142,4.44113896 69.4272392,0.112149974 74.3327949,0.112149974 C77.6031653,0.112149974 79.7607014,2.26542947 79.8742559,5.5626387 C80.0332322,10.0486376 76.8764163,14.1533267 71.7437516,14.1533267 C68.4733812,14.1533267 66.3158451,12.0000472 66.2022906,8.70283796 Z M19.8039099,7.58133823 C19.6222227,7.64862821 19.3951136,7.71591819 19.1225827,7.76077818 C18.8500519,7.82806817 18.327701,7.91778815 17.600952,8.02993812 C17.1013121,8.1196581 16.7379376,8.20937808 16.5335395,8.36638804 C16.3291413,8.50096801 16.2155868,8.68040797 16.1928759,8.88227792 C16.1474541,9.10657787 16.2155868,9.28601783 16.4199849,9.4205978 C16.6243831,9.55517776 16.9423358,9.62246775 17.3965539,9.62246775 C17.7372175,9.62246775 18.0778811,9.57760776 18.4185446,9.46545779 C18.7592082,9.35330781 19.0317391,9.21872784 19.2588482,9.03928789 C19.4178245,8.90470792 19.531379,8.72526796 19.6222227,8.52339801 C19.6449336,8.36638804 19.7130663,8.05236812 19.8039099,7.58133823 L19.8039099,7.58133823 Z M24.0735602,4.95702884 C24.0508493,5.33833875 23.9827166,5.69721867 23.891873,6.28039853 L23.165124,10.2729376 C23.0969913,10.6318175 23.2332567,10.9009774 23.5739203,11.1028474 L23.5512094,11.2598574 L19.4178245,11.2598574 L19.3724027,10.2505076 C18.7819191,10.6093875 18.0551702,10.9009774 17.3965539,11.0804174 C16.7379376,11.2374274 16.2155868,11.3271473 15.4207051,11.3271473 C14.0807616,11.3271473 13.3313017,11.1925674 12.8089509,10.7439675 C12.2638892,10.2729376 12.0140692,9.95891767 12.0367801,9.30844782 C12.059491,8.92713791 12.2411783,8.45610802 12.53642,8.1196581 C12.8316618,7.78320818 13.2177472,7.55890823 13.6265435,7.35703828 C14.0580507,7.15516833 14.5576907,7.02058836 15.2844396,6.90843838 C16.0111886,6.79628841 17.0331794,6.68413844 18.3958337,6.57198846 C19.0998718,6.50469848 19.5540899,6.34768851 19.7584881,6.28039853 C20.0537299,6.16824856 20.1445735,6.05609858 20.1899953,5.83179864 C20.258128,5.42805873 20.1445735,5.18132879 19.5768008,5.06917881 C18.100592,4.77758888 15.3071505,5.24861877 13.8763635,5.60749869 L14.6485343,3.52150918 C16.5335395,3.25234924 18.327701,3.07290928 20.1899953,3.07290928 C23.1424131,3.05047929 24.0962711,3.88038909 24.0735602,4.95702884 L24.0735602,4.95702884 Z M36.0194967,11.2598574 L37.4502838,3.27477923 L41.4019814,3.27477923 L39.9711943,11.2598574 L36.0194967,11.2598574 Z M37.6773928,1.43551966 C37.7909473,0.785049816 38.835649,0.246729942 40.0166161,0.246729942 C41.1975832,0.246729942 42.0378867,0.785049816 41.9243322,1.43551966 C41.8107777,2.08598951 40.7433651,2.62430939 39.5851089,2.62430939 C38.4041418,2.62430939 37.5411274,2.08598951 37.6773928,1.43551966 Z M55.4373212,7.60376822 C55.2556339,7.67105821 55.0285249,7.73834819 54.755994,7.78320818 C54.4834632,7.85049816 53.9611123,7.94021814 53.2116524,8.05236812 C52.7120125,8.1420881 52.348638,8.23180807 52.1442398,8.38881804 C51.9625526,8.52339801 51.8489981,8.70283796 51.8035763,8.90470792 C51.7581544,9.12900786 51.8489981,9.30844782 52.0306853,9.44302779 C52.2350835,9.57760776 52.5530362,9.64489774 53.0299652,9.64489774 C53.3706288,9.64489774 53.7112924,9.60003775 54.0519559,9.48788778 C54.3926195,9.37573781 54.6651504,9.24115784 54.8922595,9.06171788 C55.0512358,8.92713791 55.1647903,8.74769795 55.232923,8.545828 C55.2783449,8.38881804 55.3464776,8.07479811 55.4373212,7.60376822 Z M59.6842606,4.97945883 C59.6615497,5.36076875 59.593417,5.71964866 59.4798624,6.30282853 L58.7758244,10.2953676 C58.7076916,10.6542475 58.8439571,10.9234074 59.1846207,11.1252774 L59.1619098,11.2598574 L55.0285249,11.2598574 L55.005814,10.2505076 C54.3926195,10.6093875 53.6658705,10.9009774 53.0299652,11.0804174 C52.3713489,11.2598574 51.8489981,11.3271473 51.0541164,11.3271473 C49.7141729,11.3271473 48.964713,11.1925674 48.4423622,10.7439675 C47.8973005,10.2729376 47.6474805,9.95891767 47.6701914,9.30844782 C47.6929023,8.92713791 47.8745895,8.45610802 48.1698313,8.1196581 C48.4650731,7.78320818 48.8511585,7.55890823 49.2599548,7.35703828 C49.691462,7.15516833 50.1911019,7.02058836 50.9178509,6.88600839 C51.6445999,6.77385842 52.6665907,6.66170844 54.029245,6.54955847 C54.7332831,6.48226848 55.1647903,6.32525852 55.3691885,6.25796854 C55.6644303,6.14581856 55.7779848,6.03366859 55.8234066,5.78693865 C55.8915393,5.38319874 55.7552739,5.1364688 55.2102121,5.02431882 C53.7112924,4.73272889 50.9405618,5.20375878 49.5097748,5.5626387 L50.2819456,3.47664919 C52.1896617,3.20748925 53.9384014,3.02804929 55.8234066,3.02804929 C58.7531135,3.07290928 59.7069715,3.90281909 59.6842606,4.97945883 L59.6842606,4.97945883 Z M11.4917184,8.38881804 C10.1971967,8.63554798 9.49315865,8.74769795 8.22134792,8.74769795 C6.33634273,8.74769795 4.83742295,7.82806817 4.90555567,6.12338857 C4.97368838,5.00188883 6.31363183,2.60187939 9.76568952,2.60187939 C10.855813,2.60187939 11.6961165,2.78131935 12.8316618,3.4317892 L13.3313017,0.672899843 C11.7869601,0.089719979 10.7649694,-5.51642065e-15 9.42502593,0.0224299948 C4.90555567,0.0672899843 0.567772646,2.08598951 0.0454218117,6.21310855 C-0.499639929,10.4075176 4.67844661,11.4617273 6.9722481,11.4392973 C8.28948064,11.4392973 9.67484589,11.3720073 10.9693675,11.2598574 L11.4917184,8.38881804 Z M43.5822283,3.22991924 L43.8547592,1.61495962 L47.9881441,0.717759832 L47.5566369,3.22991924 L49.5779075,3.22991924 L49.1918221,4.84487887 L47.2386842,4.84487887 L46.0577171,11.2598574 C46.0577171,11.2598574 42.0833086,11.2374274 42.0605976,11.2598574 L43.2415648,4.86730886 L41.742645,4.86730886 L42.0378867,3.25234924 L43.5822283,3.25234924 L43.5822283,3.22991924 Z M63.7040909,11.2598574 L59.6615497,11.2598574 L61.6828203,0.134579969 L65.611807,0.246729942 L63.7040909,11.2598574 Z M30.7959883,5.15889879 C30.2736375,5.15889879 29.8194194,5.31590876 29.3879122,5.62992868 C28.9791159,5.94394861 28.706585,6.3925485 28.6157414,6.99815836 C28.5021869,7.6934882 28.5703196,8.18694808 28.8428504,8.50096801 C29.1153813,8.81498794 29.5241776,8.9719979 30.0692394,8.9719979 C30.4326138,8.9719979 30.7959883,8.90470792 31.0685192,8.77012795 C31.4091828,8.59068799 31.6362919,8.41124803 31.84069,8.1196581 C32.0677991,7.80563817 32.2040645,7.46918825 32.2721972,7.06544835 C32.3857518,6.43740849 32.2949081,5.9663786 31.9996664,5.65235868 C31.7044246,5.31590876 31.3183392,5.15889879 30.7959883,5.15889879 L30.7959883,5.15889879 Z M23.5966312,14.0187467 L25.5270582,3.31963922 L29.0018268,3.31963922 L28.7292959,4.6878689 C29.0245377,4.284129 29.5014667,3.94767908 30.1827939,3.67851914 C30.8414102,3.4093592 31.613581,3.20748925 32.4311736,3.20748925 C33.3396098,3.20748925 33.8846715,3.25234924 34.5659987,3.61122916 C35.2473259,3.97010907 35.701544,4.46356896 35.9740749,5.1364688 C36.2238948,5.78693865 36.2920276,6.50469848 36.1557621,7.31217829 C35.9286531,8.63554798 35.2700368,9.66732774 34.2026242,10.4299476 C33.1352116,11.1925674 32.1813536,11.3944373 30.8414102,11.3944373 C30.3644811,11.3944373 29.9556848,11.3495773 29.6150212,11.2598574 C29.2970686,11.1701374 29.0245377,11.0804174 28.8201395,10.9458374 C28.6384523,10.8112575 28.4340541,10.6542475 28.1615233,10.3626576 L27.5256179,14.0187467 L23.5966312,14.0187467 L23.5966312,14.0187467 Z M95.3176719,6.14581856 C95.294961,5.49534871 94.9770083,5.06917881 94.2956811,5.06917881 C92.6832068,5.06917881 90.957178,8.20937808 90.6619362,9.46545779 C93.2964013,9.46545779 95.3630937,7.89535815 95.3176719,6.14581856 L95.3176719,6.14581856 Z M95.6583355,11.0579874 L95.9762882,11.2598574 C95.1814064,12.852387 93.5689321,14.1308967 91.6839269,14.1308967 C90.1395853,14.1308967 88.8677746,13.1215469 88.7996419,11.2149974 C88.6860874,7.80563817 91.911036,4.62057892 94.568212,4.62057892 C95.7037573,4.62057892 96.7711699,5.1140388 96.8165917,6.32525852 C96.9074353,9.03928789 93.0465813,9.86919769 90.5029598,9.93648768 C90.4121162,10.2280776 90.3894053,10.4972375 90.4121162,10.9458374 C90.457538,12.0673372 91.1388652,13.031827 92.5696523,13.031827 C93.7960412,12.986967 95.0224301,12.0224772 95.6583355,11.0579874 Z" id="Shape"></path>
                                            <path d="M79.8061232,6.05609858 C80.0786541,6.01123859 80.5328722,5.9663786 80.7145594,5.9663786 C81.0098012,5.9663786 81.2823321,6.01123859 81.2823321,6.30282853 C81.2823321,6.48226848 80.9870903,7.6934882 80.9189576,7.96264814 L80.3057631,10.6542475 C80.0559431,11.7533173 79.7834123,12.897247 79.5563032,13.8168768 L81.1460666,13.8168768 L82.031792,9.57760776 C84.7571007,6.79628841 85.8018023,5.87665863 86.4377077,5.87665863 C86.7329495,5.87665863 86.9146367,6.03366859 86.9373476,6.37011851 C86.9600585,6.86357839 86.6421058,7.98507813 86.5285513,8.29909806 L85.6201151,11.3944373 C85.4157169,12.0897672 85.2567406,12.717807 85.2794515,13.1664069 C85.3021624,13.8393068 85.7336696,14.1533267 86.3468641,14.1533267 C87.5051203,14.1533267 88.3454238,12.964537 89.0721728,11.7981772 L88.8677746,11.4168673 C88.5725328,11.8878972 87.8912057,12.919677 87.3461439,12.919677 C87.1644567,12.919677 87.0054803,12.807527 87.0054803,12.5159371 C86.9827694,12.1570572 87.1417458,11.6187373 87.2553003,11.2598574 L88.2545802,7.62619822 C88.527111,6.61684845 88.6633765,5.9888086 88.6406656,5.62992868 C88.6179547,4.95702884 88.2091583,4.64300891 87.5959639,4.64300891 C86.5512622,4.64300891 85.165897,5.38319874 82.2361901,8.72526796 L82.1907683,8.72526796 L82.5541428,7.11030834 C82.7585409,6.21310855 82.9402282,5.29347876 83.1446263,4.66543891 C82.1226356,5.02431882 80.6918485,5.42805873 79.7834123,5.60749869 L79.8061232,6.05609858 L79.8061232,6.05609858 Z" id="Shape"></path>
                                        </g>
                                    </g>
                                    <path d="M163.253959,32.9279226 C159.770951,32.9279226 156.537777,31.8834063 154.379624,29.9463207 C152.749136,28.4828394 151.965652,26.4949761 151.965652,24.4489983 C151.965652,22.4279267 152.782924,20.4263553 154.379431,18.9705968 C156.383706,17.1439481 159.922319,16 163.253959,16 C166.940851,16 169.891754,16.9286735 172.147601,18.9756167 C173.752603,20.4321474 174.528557,22.4248375 174.528557,24.4491913 C174.528557,26.4113762 173.705108,28.5009881 172.147601,29.9463207 C170.046984,31.8959559 166.745849,32.9279226 163.253959,32.9279226 L163.253959,30.6952448 C165.102618,30.6952448 166.817478,30.0569506 168.0151,28.8653139 C169.20442,27.6817861 169.758535,26.226993 169.758535,24.4489983 C169.758535,22.7457222 169.160786,21.1532692 168.0151,20.0238014 C166.833503,18.8599669 165.077711,18.2050687 163.253959,18.2050687 C161.424607,18.2050687 159.667657,18.8532094 158.485095,20.0238014 C157.345587,21.152883 156.746294,22.7499698 156.746294,24.4489983 C156.746294,26.1428138 157.352538,27.7389352 158.485095,28.8655069 C159.668623,30.0428564 161.419394,30.6954378 163.253959,30.6954378 L163.253959,32.9281157 L163.253959,32.9279226 Z M137.79672,16.008109 C135.933581,16.008109 133.816939,16.3566029 132.018479,17.15978 C130.358644,17.900402 129,19.098217 129,21.0839565 C128.999228,22.8723771 130.13584,23.9197895 130.104948,23.8908288 C130.588399,24.3358584 131.36667,25.0936637 133.401449,25.5386934 C134.310816,25.7375569 136.255045,26.0429959 138.191165,26.2453347 C140.112998,26.4480597 142.004326,26.640745 142.774681,26.8357471 C143.386717,26.9915558 144.414822,27.2037412 144.414822,28.3571499 C144.414822,29.5059248 143.331692,29.8565425 143.143447,29.9326127 C142.955395,30.0069452 141.656025,30.6031497 139.320247,30.6031497 C137.595733,30.6031497 135.522532,30.0845599 134.766851,29.8142599 C133.895712,29.5041872 132.981905,29.0941035 132.129495,28.0528693 C131.917503,27.7947329 131.583103,27.0848093 131.583103,26.3818362 L129.469164,26.3818362 L129.469164,32.3052673 L131.818843,32.3052673 L131.818843,31.5049863 C131.818843,31.4138566 131.932755,31.0391049 132.3272,31.2173099 C132.817988,31.4403073 134.258687,32.0139225 135.76503,32.3284359 C137.000108,32.5867654 137.796527,32.7719209 139.332024,32.7719209 C141.837319,32.7719209 143.18322,32.3637679 144.113631,32.0981017 C144.990175,31.8471088 146.073306,31.3964801 146.953132,30.6948586 C147.429632,30.3154733 148.474535,29.3429725 148.474535,27.5777206 C148.474535,25.8833258 147.565169,24.8316658 147.245249,24.5117465 C146.809487,24.0757912 146.277189,23.7379162 145.722495,23.4774629 C145.239237,23.2500248 144.476605,22.9768287 143.852598,22.8241092 C142.641461,22.5267792 139.902936,22.1599436 138.593333,22.0228628 C137.220016,21.8794108 134.837708,21.6820918 133.886252,21.3876579 C133.597803,21.2982658 133.009708,21.0181192 133.009708,20.3354187 C133.009708,19.8498441 133.278656,19.4382158 133.810182,19.1055537 C134.653904,18.5769242 136.358145,18.2483166 138.134595,18.2483166 C140.234826,18.2405938 142.0134,18.7207624 143.144799,19.2266095 C143.52959,19.3984431 143.979832,19.6451884 144.337401,19.9371123 C144.74092,20.266106 145.307391,20.9497719 145.51224,21.9033516 L147.410132,21.9033516 L147.410132,16.7471864 L145.29098,16.7471864 L145.29098,17.3464801 C145.29098,17.5399376 145.091151,17.7913166 144.713311,17.5835718 C143.764944,17.0860267 141.083568,16.0125496 137.796334,16.008109 L137.79672,16.008109 Z M184.23696,16.9450846 L194.57439,26.2742954 L194.468201,19.993103 C194.457775,19.1694604 194.306021,18.8256002 193.415189,18.8256002 L191.47154,18.8256002 L191.47154,16.9466292 L200.310349,16.9466292 L200.310349,18.8256002 L198.414388,18.8256002 C197.505794,18.8256002 197.448451,19.1161727 197.437446,19.993103 L197.597696,31.9950015 L194.570722,31.9950015 L182.664008,21.3683507 L182.666518,28.9101064 C182.676943,29.7298877 182.715365,30.1160305 183.560052,30.1160305 L185.682872,30.1160305 L185.682872,31.9942292 L177.002381,31.9942292 L177.002381,30.1162236 L179.031562,30.1162236 C179.78956,30.1162236 179.759441,29.3935573 179.759441,28.8674376 L179.759441,20.0645395 C179.759441,19.4963303 179.679703,18.8269517 178.489611,18.8269517 L176.843097,18.8269517 L176.843097,16.9450846 L184.23696,16.9450846 Z M210.410494,30.1125552 C210.493515,30.1125552 210.862281,30.1019363 210.933718,30.0801192 C211.137794,30.0164057 211.276226,29.8708298 211.340326,29.7190757 C211.367356,29.6553621 211.380871,29.3734778 211.380871,29.3122742 L211.382416,26.3428358 C211.382416,26.2713994 211.377203,26.240508 211.255954,26.0814171 C211.122734,25.9076528 205.841266,19.9224389 205.59954,19.6588964 C205.299314,19.3316404 204.772229,18.8257933 203.971369,18.8257933 L202.134681,18.8257933 L202.134681,16.9460499 L212.500106,16.9460499 L212.500106,18.8234764 L211.250548,18.8234764 C210.96152,18.8234764 210.769414,19.0976378 211.016352,19.4023045 C211.016352,19.4023045 214.503801,23.5739986 214.536816,23.6176328 C214.569252,23.6620392 214.597055,23.6726581 214.641461,23.6321131 C214.685095,23.5906028 218.216371,19.4405326 218.244174,19.4077105 C218.412146,19.2065301 218.298234,18.8256002 217.936225,18.8256002 L216.654424,18.8256002 L216.654424,16.9460499 L225.149566,16.9460499 L225.149566,18.8256002 L223.251674,18.8256002 C222.563181,18.8256002 222.283035,18.9530273 221.765024,19.5386129 C221.528125,19.8065961 216.19028,25.8993508 216.04509,26.0644268 C215.96902,26.1507297 215.975585,26.2710132 215.975585,26.3424497 L215.975585,29.3115019 C215.975585,29.3717402 215.9891,29.6540106 216.01613,29.717338 C216.080422,29.8698644 216.219627,30.0154403 216.42351,30.0783816 C216.494947,30.1003917 216.858693,30.1112037 216.941521,30.1112037 L218.882854,30.1112037 L218.882854,31.9905609 L208.57091,31.9905609 L208.57091,30.1110106 L210.41088,30.1125552 L210.410494,30.1125552 Z" id="path4258" fill="#000000"></path>
                                    <g id="Group-14" transform="translate(360.000000, 0.000000)" fill-rule="nonzero">
                                        <path d="M29.1732787,2.78409836 C28.4894262,0.679057378 26.2287295,-0.472868852 24.1240574,0.21135246 C22.0190164,0.895204918 20.8670901,3.15590164 21.5513114,5.26057378 L31.9131148,37.1412295 C32.6246312,39.1075821 34.7488525,40.2126639 36.7878688,39.6258196 C38.9146721,39.0135247 40.2111886,36.7546721 39.5325,34.6658607 C39.5066804,34.5861886 29.1732787,2.78409836 29.1732787,2.78409836" id="Shape" fill="#DFA22F"></path>
                                        <path d="M13.1178689,8.00077869 C12.4336475,5.89610656 10.1729508,4.74418034 8.06827869,5.42803279 C5.9632377,6.11188525 4.81131148,8.37258196 5.49553279,10.477623 L15.8573361,42.3582787 C16.5688525,44.3246312 18.6930738,45.4297131 20.7320901,44.8425 C22.8588935,44.2305738 24.1554099,41.9717213 23.4767213,39.8825409 C23.4509017,39.8032378 13.1178689,8.00077869 13.1178689,8.00077869" id="Shape" fill="#3CB187"></path>
                                        <path d="M42.2159017,29.1876639 C44.3209426,28.5038114 45.4725,26.2431148 44.7886475,24.1380738 C44.1047951,22.0334017 41.8440983,20.8814753 39.7394262,21.5653279 L7.85877049,31.9275 C5.89241804,32.6386475 4.78733607,34.7628688 5.37418034,36.8018852 C5.9864754,38.9286886 8.24532787,40.2252049 10.3341393,39.5465164 C10.4138115,39.5206966 42.2159017,29.1876639 42.2159017,29.1876639" id="Shape" fill="#CE1E5B"></path>
                                        <path d="M14.5032787,38.1920901 C16.5784426,37.5178279 19.2529918,36.6488114 22.1230327,35.7163525 C21.4487705,33.6411886 20.579754,30.9662705 19.6469262,28.0958607 L12.0268033,30.5727049 L14.5032787,38.1920901" id="Shape" fill="#392538"></path>
                                        <path d="M30.5590574,32.9750409 C33.4397951,32.0392622 36.1172951,31.1691393 38.1788114,30.4993034 C37.5045492,28.4241393 36.6351639,25.7484836 35.7023361,22.8773361 L28.0822131,25.3541804 L30.5590574,32.9750409" id="Shape" fill="#BB242A"></path>
                                        <path d="M36.9992213,13.1318853 C39.1038935,12.4480328 40.2558196,10.1873361 39.5719673,8.08229508 C38.8881148,5.97762295 36.6274179,4.82569673 34.522377,5.50954918 L2.64172131,15.8717213 C0.675368852,16.5828689 -0.429713114,18.7070901 0.1575,20.7461065 C0.76942623,22.8729099 3.02827869,24.1694262 5.11745901,23.4907378 C5.1967623,23.4649179 36.9992213,13.1318853 36.9992213,13.1318853" id="Shape" fill="#72C5CD"></path>
                                        <path d="M9.28512295,22.1366804 C11.3602869,21.4624179 14.0355738,20.5930327 16.9059836,19.6605738 C15.9702049,16.7794672 15.100082,14.1019672 14.4302459,12.040082 L6.80827869,14.5172951 L9.28512295,22.1366804" id="Shape" fill="#248C73"></path>
                                        <path d="M25.3405327,16.92 C28.2220082,15.9838525 30.899877,15.1137295 32.9617622,14.4435246 C32.0256148,11.5620492 31.1554918,8.88381148 30.4852869,6.82155738 L22.8636886,9.29877049 L25.3405327,16.92" id="Shape" fill="#62803A"></path>
                                    </g>
                                </g>
                            </g>
                        </g>
                    </g>
                </g>
            </g>
        </g>
    </g>
</svg>