<svg width="1112" height="341" viewBox="0 0 1112 341" fill="none" xmlns="http://www.w3.org/2000/svg">
<rect x="1" y="1" width="1110" height="339" rx="20" fill="white" fill-opacity="0.05" stroke="white" stroke-opacity="0.2"/>
<path fill-rule="evenodd" clip-rule="evenodd" d="M767.914 248.071C768.06 248.43 768.016 248.891 767.948 249.17C767.822 249.662 767.487 250.164 766.496 250.164C765.561 250.164 764.995 249.632 764.995 248.819V247.385H760.998L760.995 248.532C760.995 251.834 763.611 252.83 766.413 252.83C769.108 252.83 771.328 251.914 771.681 249.447C771.862 248.167 771.727 247.33 771.665 247.014C771.304 245.231 769.28 244.167 767.545 243.255C766.263 242.581 765.139 241.99 764.96 241.253C764.889 240.956 764.909 240.641 764.944 240.473C765.047 240.001 765.373 239.48 766.306 239.48C767.176 239.48 767.691 240.015 767.691 240.824V241.738H771.407V240.698C771.407 237.471 768.494 236.968 766.383 236.968C763.733 236.968 761.567 237.838 761.171 240.249C761.063 240.915 761.047 241.508 761.204 242.251C761.576 243.981 763.465 245.009 765.159 245.93C766.427 246.62 767.586 247.25 767.914 248.071ZM780.253 238.811L778.212 252.25H774.189L776.952 237.438H783.58L786.33 252.25H782.323L780.337 238.811H780.253ZM847.312 249.067L847.108 237.438H850.797V252.095H845.493L841.812 240.067H841.733L841.937 252.095H838.271V237.438H843.805L847.23 249.067H847.312ZM799.472 237.438L797.63 248.76H797.551L795.711 237.438H789.631L789.302 252.25H793.034L793.127 238.933H793.208L795.7 252.25H799.481L801.972 238.933H802.049L802.148 252.25H805.872L805.549 237.438H799.472ZM816.401 249.127C816.467 248.849 816.515 248.4 816.368 248.044C816.043 247.231 814.896 246.607 813.64 245.923C811.964 245.011 810.094 243.993 809.727 242.281C809.574 241.541 809.585 240.959 809.692 240.303C810.08 237.909 812.229 237.05 814.849 237.05C816.939 237.05 819.829 237.55 819.829 240.742V241.771H816.141V240.866C816.141 240.064 815.638 239.541 814.775 239.541C813.852 239.541 813.532 240.049 813.426 240.525C813.389 240.684 813.369 240.995 813.44 241.291C813.617 242.021 814.73 242.606 815.999 243.273C817.717 244.176 819.721 245.23 820.081 246.996C820.145 247.306 820.274 248.133 820.093 249.403C819.746 251.848 817.547 252.752 814.881 252.752C812.107 252.752 809.515 251.765 809.515 248.496L809.52 247.365H813.475L813.478 248.786C813.478 249.58 814.04 250.112 814.962 250.112C815.946 250.112 816.279 249.618 816.401 249.127ZM828.884 250.034C829.918 250.034 830.241 249.322 830.312 248.959C830.342 248.798 830.35 248.584 830.347 248.392V237.432H834.115V248.057C834.123 248.329 834.096 248.89 834.084 249.03C833.819 251.795 831.62 252.692 828.882 252.692C826.142 252.692 823.941 251.795 823.679 249.03C823.667 248.89 823.64 248.329 823.648 248.057V237.432H827.413V248.392C827.413 248.584 827.419 248.8 827.448 248.959C827.529 249.322 827.842 250.034 828.884 250.034ZM861.494 248.805C861.425 249.2 861.048 249.878 859.968 249.878C858.89 249.878 858.514 249.201 858.45 248.805C858.419 248.635 858.408 248.428 858.412 248.241V241.467C858.412 241.228 858.429 240.964 858.475 240.769C858.554 240.4 858.872 239.689 859.958 239.689C861.094 239.689 861.38 240.441 861.444 240.769C861.488 240.979 861.496 241.334 861.493 241.332V242.161H865.25V241.667C865.25 241.667 865.266 241.164 865.217 240.691C864.943 237.918 862.63 237.032 859.987 237.032C857.341 237.032 855.083 237.923 854.752 240.691C854.724 240.939 854.691 241.404 854.691 241.667L854.688 247.904C854.692 248.181 854.699 248.386 854.741 248.88C854.993 251.575 857.341 252.536 859.987 252.536C862.628 252.536 864.979 251.575 865.228 248.88C865.272 248.386 865.278 248.181 865.282 247.904V243.929H859.998V246.091H861.528V248.241C861.529 248.428 861.521 248.635 861.494 248.805Z" fill="#D8D8D8"/>
<path fill-rule="evenodd" clip-rule="evenodd" d="M362.607 232.397C364.673 233.316 366.847 234.282 369.417 234.628C369.73 234.647 370.053 234.655 370.399 234.656C370.748 234.657 371.051 234.654 371.318 234.647C373.693 234.396 375.51 233.235 375.51 233.235C369.093 244.845 360.358 240.529 354.295 237.533C353.606 237.193 352.951 236.869 352.338 236.588C348.047 234.613 344.736 236.832 342.733 238.422C338.33 241.912 335.541 241.889 331.727 240.722C330.866 240.461 329.952 240.139 328.956 239.788C328.107 239.489 327.198 239.168 326.21 238.846C319.533 236.644 316.826 243.688 316.826 243.688L311.833 255.676L311.743 255.893C311.536 256.288 311.097 256.359 310.705 256.035C307.475 253.024 305.791 248.809 306.015 244.052C306.431 235.198 313.855 228.572 322.608 228.986C322.608 228.986 328.272 229.452 333.139 232.44C341.884 237.806 344.262 236.171 348.223 233.447C348.67 233.139 349.137 232.818 349.636 232.491C354.971 229.004 358.586 230.61 362.607 232.397ZM332.419 251.52C341.03 256.798 344.731 254.366 348.436 251.93C348.533 251.866 348.63 251.803 348.727 251.739C354.977 247.656 359.388 250.083 363.435 252.31C365.344 253.361 367.172 254.367 369.073 254.623C372.31 255.061 375.159 253.225 375.159 253.225C368.629 265.051 360.537 260.39 355.842 257.686C355.088 257.251 354.421 256.867 353.863 256.611C353.476 256.433 353.111 256.25 352.755 256.072C350.18 254.78 348.09 253.732 341.809 256.764C335.563 259.788 327.293 262.296 319.71 260.024C319.71 260.024 319.682 260.015 319.649 259.998C320.526 257.583 321.881 254.41 324.227 254.446C324.496 254.447 325.239 254.486 326.065 254.529H326.065L326.065 254.529C327.338 254.596 328.808 254.673 329.044 254.637C329.495 254.578 329.788 254.256 329.869 253.908C329.999 253.332 329.868 253.071 329.769 252.873C329.729 252.794 329.694 252.724 329.684 252.649C329.659 252.454 329.802 252.358 329.966 252.247C330.019 252.211 330.074 252.174 330.126 252.132C330.479 251.848 330.512 251.636 330.434 251.399C330.387 251.257 330.147 251.181 329.949 251.119C329.86 251.09 329.779 251.065 329.729 251.037C329.57 250.945 329.615 250.675 329.869 250.643C331.147 250.473 331.078 249.798 330.934 249.559C330.411 248.613 331.096 248.485 331.436 248.425C331.436 248.425 331.894 248.437 332.211 248.38C332.935 248.249 332.616 247.425 332.616 247.425C332.616 247.425 331.903 243.145 331.727 242.381C331.569 241.677 331.928 241.464 332.568 241.736C332.63 241.764 332.685 241.801 332.744 241.846C332.745 241.846 332.747 241.849 332.749 241.853L332.749 241.853C332.751 241.855 332.753 241.859 332.756 241.862C341.107 246.984 342.246 246.631 349.185 242.086C355.215 238.141 359.4 240.391 363.377 242.528C365.296 243.559 367.168 244.565 369.174 244.834C372.414 245.268 375.257 243.437 375.257 243.437C369.142 254.511 360.789 250.474 353.657 247.026L353.657 247.026C353.057 246.736 352.466 246.45 351.885 246.178C348.114 244.417 345.01 246.333 341.799 248.316C338.99 250.05 336.099 251.834 332.61 251.251C332.386 251.202 332.254 251.419 332.418 251.52L332.419 251.52Z" fill="#4665B9"/>
<path fill-rule="evenodd" clip-rule="evenodd" d="M551.487 242.091C551.487 242.091 556.347 235.009 566.05 234.276V231.707C555.302 232.559 545.995 241.551 545.995 241.551C545.995 241.551 551.267 256.602 566.05 257.98V255.249C555.201 253.901 551.487 242.091 551.487 242.091ZM566.05 249.818V252.319C557.851 250.875 555.575 242.456 555.575 242.456C555.575 242.456 559.512 238.149 566.05 237.45V240.195C566.045 240.195 566.042 240.193 566.038 240.193C562.606 239.787 559.925 242.953 559.925 242.953C559.925 242.953 561.428 248.284 566.05 249.818ZM566.05 226.968V231.707C566.366 231.683 566.681 231.663 566.998 231.652C579.217 231.245 587.179 241.551 587.179 241.551C587.179 241.551 578.035 252.533 568.508 252.533C567.635 252.533 566.818 252.453 566.05 252.319V255.249C566.707 255.331 567.387 255.38 568.097 255.38C576.963 255.38 583.374 250.908 589.581 245.615C590.611 246.43 594.824 248.41 595.69 249.277C589.788 254.158 576.032 258.093 568.233 258.093C567.482 258.093 566.76 258.048 566.05 257.98V262.098H599.746V226.968H566.05ZM566.05 237.45V234.277C566.362 234.255 566.677 234.238 566.998 234.228C575.785 233.956 581.55 241.686 581.55 241.686C581.55 241.686 575.323 250.228 568.647 250.228C567.687 250.228 566.825 250.075 566.05 249.818V240.195C569.471 240.603 570.159 242.095 572.215 245.482L576.789 241.672C576.789 241.672 573.451 237.347 567.822 237.347C567.21 237.347 566.625 237.389 566.05 237.45Z" fill="#77B900"/>
<path fill-rule="evenodd" clip-rule="evenodd" d="M115.08 251.646C111.3 254.286 106.835 257.049 102.037 259.955L101.85 260.058C101.788 260.098 101.767 260.18 101.809 260.262C101.85 260.324 101.933 260.344 102.017 260.303L102.183 260.221C106.253 258.134 110.947 255.637 115.641 253.078C115.662 253.058 115.683 253.058 115.724 253.037C115.454 252.608 115.226 252.137 115.08 251.646ZM139.837 231.895C133.897 225.428 95.6611 231.24 79.3989 234.74L79.025 234.822C78.9419 234.842 78.9004 234.904 78.9004 234.986C78.9212 235.067 78.9835 235.108 79.0665 235.108L79.4404 235.027C92.8988 232.673 120.917 229.398 126.96 235.293C128.809 237.094 128.352 239.406 126.233 242.129C127.376 242.865 128.207 244.011 128.58 245.444C136.888 239.98 142.475 234.781 139.837 231.895Z" fill="#DE4953"/>
<path fill-rule="evenodd" clip-rule="evenodd" d="M120.937 254.081C119.026 254.081 117.573 252.218 117.49 249.947C117.386 246.938 119.421 242.497 122.62 242.497C124.51 242.497 126.005 244.359 126.088 246.631C126.192 249.619 124.634 254.081 120.937 254.081ZM122.973 241.985C118.486 241.985 115.392 245.935 115.537 249.824C115.641 252.832 117.614 254.797 120.605 254.797C125.13 254.797 127.976 251.316 128.044 247.398C128.295 247.361 128.657 247.327 128.809 247.327C129.079 247.327 129.328 247.368 129.328 247.634C129.328 247.797 129.058 248.903 128.996 249.148L128.435 251.604C128.206 252.607 127.957 253.651 127.75 254.49H129.203L130.013 250.622C132.506 248.084 133.461 247.245 134.043 247.245C134.313 247.245 134.479 247.388 134.5 247.695C134.52 248.145 134.23 249.169 134.126 249.455L133.295 252.28C133.108 252.914 132.963 253.487 132.983 253.897C133.004 254.511 133.399 254.797 133.96 254.797C134.944 254.797 135.677 253.86 136.31 252.873C136.635 254.122 137.649 254.777 138.84 254.777C140.564 254.777 142.039 253.61 142.766 252.157L142.475 251.973C141.893 252.853 140.772 253.733 139.65 253.774C138.342 253.774 137.719 252.894 137.677 251.871C137.656 251.461 137.677 251.216 137.76 250.95C140.086 250.888 143.617 250.131 143.534 247.654C143.493 246.549 142.516 246.099 141.478 246.099C139.048 246.099 136.099 249.005 136.203 252.116C136.206 252.203 136.212 252.288 136.22 252.371C135.931 252.825 135.346 253.671 134.873 253.671C134.707 253.671 134.562 253.569 134.562 253.303C134.541 252.976 134.686 252.484 134.79 252.157L135.704 248.841C135.953 247.92 136.078 247.347 136.057 247.02C136.036 246.406 135.663 246.119 135.102 246.119C134.146 246.119 132.88 246.795 130.2 249.844H130.159L130.491 248.37C130.536 248.173 130.58 247.974 130.623 247.778C130.759 247.162 130.889 246.574 131.031 246.14C130.127 246.456 128.874 246.811 128.041 246.982C128.041 246.974 128.041 246.966 128.04 246.959C127.936 243.95 125.963 241.985 122.973 241.985ZM72.4826 248.964C72.7319 248.923 72.9396 248.862 73.1057 248.801C73.074 248.965 73.0453 249.108 73.0208 249.23C72.9811 249.428 72.9524 249.572 72.9396 249.66C72.8565 249.844 72.7526 250.008 72.6073 250.131C72.3996 250.295 72.1503 250.417 71.8388 250.52C71.5273 250.622 71.2157 250.663 70.9042 250.663C70.4888 250.663 70.198 250.602 70.0111 250.479C69.8242 250.356 69.7619 250.192 69.8034 249.988C69.8242 249.803 69.928 249.64 70.115 249.517C70.3019 249.374 70.6342 249.292 71.0911 249.21C71.7557 249.108 72.2334 249.026 72.4826 248.964ZM76.8944 247.298C76.952 246.94 76.994 246.679 77.0103 246.406C77.0311 245.423 76.1588 244.666 73.4588 244.687C71.7557 244.687 70.115 244.85 68.3911 245.096L67.685 246.999C68.9934 246.672 71.548 246.242 72.898 246.508C73.4173 246.611 73.5211 246.836 73.4588 247.204C73.4173 247.409 73.3342 247.511 73.0642 247.613C73.0568 247.616 73.049 247.618 73.0408 247.621C72.8439 247.686 72.4363 247.821 71.818 247.88C70.5719 247.982 69.6373 248.084 68.9726 248.187C68.308 248.289 67.8511 248.412 67.4565 248.596C67.0826 248.78 66.7296 248.985 66.4596 249.292C66.1896 249.599 66.0234 250.029 66.0027 250.376C65.9819 250.97 66.2103 251.257 66.7088 251.686C67.1865 252.096 67.8719 252.218 69.0973 252.218C69.8242 252.218 70.3019 252.137 70.9042 251.993C71.5065 251.83 72.1711 251.564 72.7111 251.236L72.7526 252.157H76.5326L76.5534 252.014C76.2419 251.83 76.1173 251.584 76.1796 251.257L76.8442 247.613C76.8619 247.5 76.8787 247.395 76.8944 247.298ZM89.2434 244.871L87.9349 252.157H91.5488L92.8572 244.871H89.2434ZM91.5903 242.108C90.5103 242.108 89.5549 242.599 89.4511 243.193C89.3265 243.786 90.1157 244.277 91.1957 244.277C92.2549 244.277 93.2311 243.786 93.3349 243.193C93.4388 242.599 92.6703 242.108 91.5903 242.108ZM105.07 248.985C105.319 248.944 105.526 248.882 105.693 248.821C105.61 249.251 105.547 249.537 105.506 249.681C105.443 249.865 105.34 250.029 105.194 250.151C104.986 250.315 104.737 250.438 104.426 250.54C104.114 250.643 103.803 250.683 103.491 250.683C103.055 250.683 102.764 250.622 102.577 250.499C102.411 250.376 102.328 250.213 102.37 250.008C102.411 249.824 102.515 249.66 102.681 249.537C102.868 249.394 103.2 249.312 103.657 249.23C104.343 249.128 104.82 249.046 105.07 248.985ZM109.39 247.634C109.493 247.102 109.556 246.774 109.576 246.426C109.597 245.444 108.725 244.687 106.046 244.646C104.322 244.646 102.723 244.809 100.978 245.055L100.272 246.959C101.58 246.631 104.114 246.201 105.485 246.467C105.983 246.57 106.108 246.795 106.046 247.163C106.004 247.388 105.9 247.491 105.63 247.593C105.617 247.597 105.603 247.602 105.587 247.607C105.386 247.674 105.003 247.802 104.405 247.859C103.159 247.961 102.224 248.064 101.56 248.166C100.895 248.289 100.438 248.412 100.043 248.596C99.6695 248.78 99.3165 248.985 99.0465 249.292C98.7765 249.599 98.6103 250.029 98.5896 250.376C98.5688 250.97 98.7972 251.257 99.2957 251.686C99.7734 252.096 100.459 252.218 101.684 252.218C102.411 252.218 102.889 252.157 103.491 251.993C104.073 251.83 104.737 251.564 105.298 251.236L105.319 252.157H109.099L109.12 252.034C108.808 251.85 108.683 251.604 108.746 251.277L109.39 247.634ZM62.5134 249.865C63.6765 249.865 64.3203 249.762 65.5042 249.537L65.0265 252.157C63.8427 252.259 62.5757 252.321 61.3711 252.321C59.2734 252.341 54.538 251.379 55.0365 247.552C55.5142 243.786 59.4811 241.944 63.6142 241.903C64.8396 241.883 65.7742 241.965 67.1865 242.497L66.7296 245.014C65.6911 244.421 64.9227 244.257 63.9257 244.257C60.7688 244.257 59.5434 246.447 59.4811 247.47C59.4188 249.026 60.7896 249.865 62.5134 249.865ZM95.1003 243.356L94.8511 244.83V244.85H93.4388L93.1688 246.324H94.5396L93.4596 252.157C93.4803 252.137 97.1149 252.157 97.1149 252.157L98.1949 246.304H99.9811L100.334 244.83H98.4857L98.8803 242.538L95.1003 243.356ZM111.404 242.006L109.556 252.157H113.253L114.997 242.108L111.404 242.006ZM81.8703 247.02C82.2649 246.733 82.6803 246.59 83.158 246.59C83.6357 246.59 83.9888 246.733 84.2588 247.04C84.5288 247.327 84.6119 247.757 84.508 248.33C84.4457 248.698 84.3211 249.005 84.1134 249.292C83.9265 249.558 83.7188 249.722 83.4073 249.885C83.158 250.008 82.8257 250.069 82.4934 250.069C81.9949 250.069 81.6211 249.926 81.3719 249.64C81.1226 249.353 81.0603 248.903 81.1642 248.268C81.2473 247.716 81.4965 247.306 81.8703 247.02ZM78.3396 244.912L76.5742 254.675H80.1673L80.7488 251.338C80.998 251.604 81.1849 251.748 81.3511 251.871C81.538 251.993 81.7873 252.075 82.078 252.157C82.3896 252.239 82.7634 252.28 83.1996 252.28C84.4249 252.28 85.2973 252.096 86.2734 251.4C87.2496 250.704 87.8519 249.762 88.0596 248.555C88.1842 247.818 88.1219 247.163 87.8934 246.57C87.6442 245.956 87.2288 245.505 86.6057 245.178C85.9826 244.85 85.4842 244.809 84.6534 244.809C83.9057 244.809 83.1996 244.994 82.5973 245.239C81.9742 245.485 81.538 245.792 81.268 246.16L81.5173 244.912H78.3396ZM141.229 246.508C141.852 246.508 142.143 246.897 142.163 247.491C142.205 249.087 140.315 250.52 137.906 250.52C138.176 249.374 139.754 246.508 141.229 246.508Z" fill="white"/>
<path fill-rule="evenodd" clip-rule="evenodd" d="M584.737 83.8647C583.332 81.976 580.858 80.4434 577.192 79.1788C572.608 77.7165 568.768 76.6462 565.663 76V113.941L573.943 116.453V84.7747C573.943 83.9351 574.014 83.3791 574.371 83.0274C574.728 82.5417 575.072 82.4721 575.573 82.6735C576.765 83.0274 577.335 84.0773 577.335 85.8238V98.5553C580.013 99.8066 582.417 99.9488 584.18 98.6147C586.013 97.3641 587.001 95.1208 587.001 91.7712C587.001 88.2766 586.297 85.6121 584.737 83.8648L584.737 83.8647ZM563.529 106.488L561.837 107.073L560.017 107.771L556.985 108.335L554.09 107.983C553.504 107.639 553.359 107.285 553.724 106.93L553.771 106.905L553.771 106.905C554.132 106.705 554.617 106.438 555.166 106.235L557.122 105.537L563.529 103.347V98.3557L561.837 98.8908L551.331 102.527L549.522 103.225C546.774 104.345 545.332 105.537 545.393 106.59C545.54 108.123 547.349 109.245 550.608 110.083C554.842 111.185 559.14 111.417 563.529 110.781L563.529 106.488ZM585.294 101.578C588.416 101.444 591.765 101.777 595.114 102.763C598.075 103.617 599.719 104.604 599.793 105.847C599.944 107.165 598.6 108.217 595.628 109.203L594.146 109.793L581.579 113.73L576.332 115.389V110.731L587.525 107.165L590.273 106.245C591.389 105.913 591.916 105.58 591.765 105.191C591.614 104.859 591.24 104.594 590.424 104.538C590.424 104.538 589.006 104.091 587.677 104.404C586.805 104.604 585.593 104.859 585.593 104.859L582.47 105.847L576.332 107.753V102.962C579.412 102.099 582.407 101.633 585.294 101.578Z" fill="#0FBDF0"/>
<mask id="mask0" mask-type="alpha" maskUnits="userSpaceOnUse" x="318" y="75" width="43" height="43">
<path fill-rule="evenodd" clip-rule="evenodd" d="M359.613 92.42H339.73V100.646H351.175C350.108 105.872 345.646 108.872 339.73 108.872C332.746 108.872 327.12 103.259 327.12 96.2912C327.12 89.3231 332.746 83.71 339.73 83.71C342.736 83.71 345.452 84.7746 347.586 86.5166L353.794 80.3228C350.011 77.0323 345.161 75 339.73 75C327.896 75 318.391 84.4842 318.391 96.2912C318.391 108.098 327.896 117.582 339.73 117.582C350.399 117.582 360.098 109.84 360.098 96.2912C360.098 95.0331 359.904 93.6782 359.613 92.42Z" fill="white"/>
</mask>
<g mask="url(#mask0)">
<path fill-rule="evenodd" clip-rule="evenodd" d="M316.451 108.872V83.71L332.94 96.2911L316.451 108.872Z" fill="#FBBC05"/>
</g>
<mask id="mask1" mask-type="alpha" maskUnits="userSpaceOnUse" x="318" y="75" width="43" height="43">
<path fill-rule="evenodd" clip-rule="evenodd" d="M359.613 92.42H339.73V100.646H351.175C350.108 105.872 345.646 108.872 339.73 108.872C332.746 108.872 327.12 103.259 327.12 96.2912C327.12 89.3231 332.746 83.71 339.73 83.71C342.736 83.71 345.452 84.7746 347.586 86.5166L353.794 80.3228C350.011 77.0323 345.161 75 339.73 75C327.896 75 318.391 84.4842 318.391 96.2912C318.391 108.098 327.896 117.582 339.73 117.582C350.399 117.582 360.098 109.84 360.098 96.2912C360.098 95.0331 359.904 93.6782 359.613 92.42Z" fill="white"/>
</mask>
<g mask="url(#mask1)">
<path fill-rule="evenodd" clip-rule="evenodd" d="M316.451 108.872L345.549 86.6134L353.212 87.5812L363.008 73.0645V119.518H316.451V108.872Z" fill="#34A853"/>
</g>
<mask id="mask2" mask-type="alpha" maskUnits="userSpaceOnUse" x="318" y="75" width="43" height="43">
<path fill-rule="evenodd" clip-rule="evenodd" d="M359.613 92.42H339.73V100.646H351.175C350.108 105.872 345.646 108.872 339.73 108.872C332.746 108.872 327.12 103.259 327.12 96.2912C327.12 89.3231 332.746 83.71 339.73 83.71C342.736 83.71 345.452 84.7746 347.586 86.5166L353.794 80.3228C350.011 77.0323 345.161 75 339.73 75C327.896 75 318.391 84.4842 318.391 96.2912C318.391 108.098 327.896 117.582 339.73 117.582C350.399 117.582 360.098 109.84 360.098 96.2912C360.098 95.0331 359.904 93.6782 359.613 92.42Z" fill="white"/>
</mask>
<g mask="url(#mask2)">
<path fill-rule="evenodd" clip-rule="evenodd" d="M316.451 83.71L332.94 96.2912L339.73 90.3877L363.008 86.6134V73.0645H316.451V83.71Z" fill="#EA4335"/>
</g>
<mask id="mask3" mask-type="alpha" maskUnits="userSpaceOnUse" x="318" y="75" width="43" height="43">
<path fill-rule="evenodd" clip-rule="evenodd" d="M359.613 92.42H339.73V100.646H351.175C350.108 105.872 345.646 108.872 339.73 108.872C332.746 108.872 327.12 103.259 327.12 96.2912C327.12 89.3231 332.746 83.71 339.73 83.71C342.736 83.71 345.452 84.7746 347.586 86.5166L353.794 80.3228C350.011 77.0323 345.161 75 339.73 75C327.896 75 318.391 84.4842 318.391 96.2912C318.391 108.098 327.896 117.582 339.73 117.582C350.399 117.582 360.098 109.84 360.098 96.2912C360.098 95.0331 359.904 93.6782 359.613 92.42Z" fill="white"/>
</mask>
<g mask="url(#mask3)">
<path fill-rule="evenodd" clip-rule="evenodd" d="M363.008 119.518L332.94 96.2911L329.06 93.3878L363.008 83.71V119.518Z" fill="#4285F4"/>
</g>
<path fill-rule="evenodd" clip-rule="evenodd" d="M72.8812 108.381C70.858 108.3 69.2027 107.742 67.9084 106.705C67.6614 106.507 67.0728 105.914 66.8754 105.663C66.3505 104.998 65.9937 104.351 65.7557 103.633C65.0233 101.422 65.4002 98.5205 66.8338 95.3364C68.0612 92.6105 69.9552 89.9069 73.2595 86.1624C73.7463 85.6114 75.1958 84 75.2051 84C75.2086 84 75.1296 84.1379 75.0302 84.3059C74.171 85.7563 73.4359 87.4648 73.0354 88.9439C72.392 91.3172 72.4696 93.3539 73.2626 94.9331C73.8097 96.0211 74.7475 96.9635 75.802 97.4845C77.6482 98.3962 80.3511 98.4716 83.652 97.7052C83.8792 97.6521 95.1405 94.6391 108.677 91.0095C122.214 87.3796 133.291 84.412 133.293 84.4145C133.297 84.4176 101.843 97.9828 85.5154 105.02C82.9296 106.134 82.2381 106.416 81.0225 106.846C77.9149 107.946 75.1313 108.471 72.8812 108.381Z" fill="white"/>
<path fill-rule="evenodd" clip-rule="evenodd" d="M1056.65 266.562H1013V223H1056.65V266.562ZM1021.08 225.81V228.292H1020.78C1020.51 227.073 1019.94 226.159 1019.15 226.115C1018.62 226.072 1018.32 226.376 1018.05 226.812C1017.79 227.334 1017.66 228.423 1017.66 229.729C1017.66 230.948 1017.7 231.863 1017.83 232.516C1017.92 232.821 1018.14 233.3 1018.71 233.3C1019.02 233.3 1019.24 233.213 1019.37 233.038C1019.59 232.777 1019.63 232.255 1019.63 231.906V230.731C1019.63 230.295 1019.5 230.034 1019.28 229.903C1019.17 229.85 1019.03 229.829 1018.91 229.811C1018.83 229.8 1018.76 229.79 1018.71 229.773V229.468H1021.17V235.694H1020.86L1020.84 235.607C1020.72 235.172 1020.63 234.843 1020.42 234.475C1020.2 234.084 1019.81 233.648 1019.15 233.648C1018.45 233.604 1017.92 234.04 1017.92 234.693C1017.92 235.504 1018.38 235.748 1019.22 236.2L1019.22 236.2C1019.28 236.233 1019.35 236.268 1019.41 236.304C1019.52 236.365 1019.63 236.425 1019.75 236.485L1019.75 236.485C1020.6 236.943 1021.52 237.44 1021.52 238.786C1021.52 240.266 1020.25 241.181 1018.8 241.181H1016.47V238.177H1016.78C1017.18 240.441 1018.14 240.832 1018.8 240.832C1019.63 240.832 1020.03 240.31 1020.03 239.57C1019.99 238.612 1019.33 238.263 1018.4 237.785C1017.09 237.044 1016.47 236.696 1016.47 235.477C1016.52 234.432 1017.35 233.779 1018.27 233.518C1016.34 233.3 1015.77 231.558 1015.81 229.686C1015.81 227.813 1016.91 225.81 1019.06 225.81H1021.08ZM1027.76 225.941H1029.29V232.995H1027.76V225.941ZM1042.99 228.771V232.995H1041.5V228.597C1041.5 228.075 1041.46 227.639 1041.1 227.552C1040.97 227.509 1040.8 227.552 1040.62 227.683C1040.4 227.9 1040.31 228.162 1040.31 228.554V232.995H1038.82V228.597C1038.82 228.075 1038.82 227.639 1038.47 227.552C1038.34 227.509 1038.16 227.552 1037.99 227.683C1037.72 227.9 1037.68 228.162 1037.68 228.597V232.995H1036.19V227.16H1037.55V227.813C1037.72 227.422 1038.16 227.073 1038.73 227.03C1039.44 226.986 1039.92 227.247 1040.14 227.857C1040.31 227.509 1040.71 227.073 1041.37 227.03C1042.33 226.986 1042.99 227.552 1042.99 228.771ZM1051.11 232.995H1049.62V227.16H1051.03V227.813C1051.2 227.422 1051.64 227.073 1052.21 227.03C1053.18 226.986 1053.84 227.552 1053.84 228.771V232.995H1052.3V228.597C1052.3 228.075 1052.3 227.639 1051.95 227.552C1051.82 227.509 1051.6 227.552 1051.42 227.683C1051.2 227.9 1051.11 228.162 1051.11 228.597V232.995ZM1025.74 227.552C1025.39 227.247 1024.95 227.03 1024.42 227.03C1023.89 227.03 1023.5 227.247 1023.1 227.552C1022.49 228.075 1022.09 229.033 1022.09 230.077C1022.09 231.166 1022.49 232.08 1023.1 232.603C1023.5 232.908 1023.89 233.125 1024.42 233.125C1024.95 233.125 1025.39 232.908 1025.74 232.603C1026.4 232.08 1026.75 231.166 1026.75 230.077C1026.75 229.033 1026.4 228.075 1025.74 227.552ZM1024.99 232.472C1025.17 232.037 1025.17 231.166 1025.17 230.077C1025.17 229.924 1025.17 229.774 1025.17 229.627V229.627V229.627V229.627V229.627V229.627V229.627V229.627V229.627V229.627V229.627V229.627V229.627C1025.17 228.774 1025.18 228.054 1024.99 227.683C1024.86 227.465 1024.73 227.334 1024.42 227.334C1024.16 227.334 1023.98 227.465 1023.89 227.683C1023.67 228.118 1023.67 229.033 1023.67 230.077C1023.67 231.166 1023.67 232.037 1023.89 232.472C1023.98 232.69 1024.16 232.821 1024.42 232.821C1024.73 232.821 1024.86 232.69 1024.99 232.472ZM1041.06 235.216V236.783H1040.75C1040.58 236.13 1040.31 235.564 1039.61 235.52C1039.17 235.477 1038.78 235.738 1038.73 236.13C1038.69 236.522 1038.82 236.87 1039.61 237.306C1039.73 237.375 1039.85 237.439 1039.97 237.502L1039.97 237.502L1039.97 237.502C1040.8 237.949 1041.41 238.277 1041.41 239.309C1041.41 240.571 1040.31 241.181 1039.39 241.181H1037.64V239.004H1037.94C1038.16 240.136 1038.51 240.832 1039.35 240.876C1039.87 240.876 1040.27 240.571 1040.27 240.005C1040.27 239.439 1039.92 239.091 1039.08 238.612L1039.08 238.606C1038.16 238.043 1037.59 237.695 1037.59 236.914C1037.59 235.869 1038.34 235.216 1039.52 235.216H1041.06ZM1034.74 225.941V232.995H1033.29V232.429C1033.16 232.734 1032.81 233.082 1032.19 233.082C1030.65 233.082 1030.26 231.123 1030.3 229.947C1030.35 228.205 1031.23 227.073 1032.32 227.073C1032.76 227.073 1033.07 227.291 1033.2 227.596V225.941H1034.74ZM1032.94 227.639C1033.24 228.075 1033.24 229.12 1033.24 229.947C1033.24 230.031 1033.25 230.119 1033.25 230.207V230.207L1033.25 230.209V230.209V230.209V230.209V230.209C1033.25 231.033 1033.25 231.997 1032.94 232.429C1032.81 232.603 1032.67 232.69 1032.45 232.69C1032.15 232.69 1031.97 232.342 1031.88 231.776C1031.84 231.253 1031.84 230.6 1031.84 229.903C1031.84 228.728 1031.93 227.422 1032.5 227.422C1032.72 227.422 1032.81 227.508 1032.94 227.639L1032.94 227.639ZM1048.22 228.684C1048.22 227.9 1047.95 227.552 1047.56 227.334C1047.25 227.16 1046.9 227.03 1046.33 227.03C1045.1 227.03 1044.22 227.683 1044.27 228.467C1044.31 228.945 1044.66 229.12 1044.97 229.12C1045.41 229.163 1045.89 228.945 1045.85 228.336C1045.82 228.135 1045.73 228.037 1045.65 227.954C1045.58 227.875 1045.52 227.81 1045.54 227.683C1045.54 227.465 1045.85 227.378 1046.02 227.334C1046.46 227.334 1046.68 227.509 1046.68 227.9V228.858C1046.68 229.206 1046.59 229.25 1045.76 229.599C1045.7 229.624 1045.64 229.649 1045.58 229.674L1045.58 229.674C1044.73 230.029 1044 230.334 1044 231.515C1044 232.864 1044.92 233.125 1045.45 233.125C1046.11 233.125 1046.59 232.821 1046.77 232.342V232.995H1048.22V228.684ZM1046.68 229.511L1046.2 229.816C1045.71 230.121 1045.63 230.513 1045.58 230.948C1045.54 231.297 1045.54 231.602 1045.58 232.124C1045.63 232.603 1045.93 232.69 1046.2 232.603C1046.5 232.472 1046.68 231.906 1046.68 231.297V229.511ZM1026.44 236.826C1026.44 236.043 1026.22 235.738 1025.82 235.477C1025.52 235.303 1025.17 235.216 1024.6 235.216C1023.37 235.216 1022.49 235.869 1022.53 236.609C1022.58 237.088 1022.93 237.262 1023.23 237.306C1023.67 237.306 1024.16 237.088 1024.11 236.522C1024.09 236.328 1024 236.23 1023.93 236.143C1023.85 236.055 1023.78 235.979 1023.81 235.825C1023.81 235.607 1024.11 235.52 1024.29 235.52C1024.73 235.477 1024.95 235.651 1024.95 236.086V237.044C1024.95 237.349 1024.86 237.393 1023.98 237.785C1023.91 237.814 1023.85 237.843 1023.78 237.872L1023.78 237.872C1022.98 238.222 1022.27 238.533 1022.27 239.7C1022.27 241.05 1023.15 241.268 1023.72 241.268C1024.38 241.268 1024.86 240.963 1025.03 240.528V241.181H1026.44V236.826ZM1024.95 237.654L1024.46 237.959C1023.98 238.263 1023.89 238.655 1023.85 239.091C1023.81 239.439 1023.81 239.787 1023.85 240.266C1023.85 240.789 1024.16 240.876 1024.42 240.745C1024.77 240.615 1024.95 240.092 1024.95 239.439V237.654ZM1034.83 235.216C1035.79 235.128 1036.45 235.738 1036.45 236.957V241.181H1034.91V236.783C1034.91 236.26 1034.91 235.825 1034.56 235.738C1034.43 235.694 1034.21 235.738 1034.04 235.869C1033.82 236.086 1033.73 236.348 1033.73 236.783V241.181H1032.23V239.613C1031.97 240.353 1031.05 241.268 1030 241.268C1029.07 241.268 1027.45 240.832 1027.45 238.307C1027.45 235.956 1029.03 235.216 1029.86 235.216C1030.52 235.216 1030.96 235.39 1031.23 235.825C1031.44 236.173 1031.49 236.74 1031.18 237.088C1030.79 237.48 1029.95 237.393 1029.82 236.87C1029.7 236.45 1029.89 236.231 1030.06 236.037L1030.06 236.037C1030.08 236.01 1030.11 235.983 1030.13 235.956C1030.3 235.782 1030.26 235.52 1029.86 235.52C1029.34 235.52 1029.16 236.086 1029.07 236.783C1028.99 237.872 1028.99 238.873 1029.12 239.744C1029.21 240.353 1029.38 240.919 1030.13 240.919C1031.18 240.963 1032.23 239.57 1032.23 238.089V234.084H1033.73V235.782C1033.95 235.477 1034.34 235.259 1034.83 235.216Z" fill="#64A8F0"/>
<path fill-rule="evenodd" clip-rule="evenodd" d="M1021.08 228.292V225.811H1019.06C1016.91 225.811 1015.81 227.814 1015.81 229.686C1015.77 231.558 1016.34 233.3 1018.27 233.518C1017.35 233.779 1016.52 234.432 1016.47 235.477C1016.47 236.696 1017.09 237.044 1018.4 237.785C1019.33 238.264 1019.99 238.612 1020.03 239.57C1020.03 240.31 1019.63 240.833 1018.8 240.833C1018.14 240.833 1017.18 240.441 1016.78 238.177H1016.47V241.181H1018.8C1020.25 241.181 1021.52 240.267 1021.52 238.786C1021.52 237.44 1020.6 236.943 1019.75 236.486C1019.63 236.425 1019.52 236.365 1019.41 236.304C1019.35 236.268 1019.28 236.233 1019.22 236.2C1018.38 235.748 1017.92 235.504 1017.92 234.693C1017.92 234.04 1018.45 233.605 1019.15 233.648C1019.81 233.648 1020.2 234.084 1020.42 234.475C1020.63 234.843 1020.72 235.172 1020.84 235.607C1020.85 235.636 1020.86 235.665 1020.86 235.695H1021.17V229.468H1018.71V229.773C1018.76 229.79 1018.83 229.8 1018.91 229.811C1019.03 229.829 1019.17 229.85 1019.28 229.903C1019.5 230.034 1019.63 230.295 1019.63 230.731V231.907C1019.63 232.255 1019.59 232.777 1019.37 233.039C1019.24 233.213 1019.02 233.3 1018.71 233.3C1018.14 233.3 1017.92 232.821 1017.83 232.516C1017.7 231.863 1017.66 230.949 1017.66 229.729C1017.66 228.423 1017.79 227.334 1018.05 226.812C1018.32 226.377 1018.62 226.072 1019.15 226.115C1019.94 226.159 1020.51 227.073 1020.78 228.292H1021.08ZM1029.29 225.941H1027.76V232.995H1029.29V225.941ZM1042.99 232.995V228.771C1042.99 227.552 1042.33 226.986 1041.37 227.03C1040.71 227.073 1040.31 227.509 1040.14 227.857C1039.92 227.248 1039.44 226.986 1038.73 227.03C1038.16 227.073 1037.72 227.422 1037.55 227.814V227.16H1036.19V232.995H1037.68V228.597C1037.68 228.162 1037.72 227.9 1037.99 227.683C1038.16 227.552 1038.34 227.509 1038.47 227.552C1038.82 227.639 1038.82 228.075 1038.82 228.597V232.995H1040.31V228.554C1040.31 228.162 1040.4 227.9 1040.62 227.683C1040.8 227.552 1040.97 227.509 1041.1 227.552C1041.46 227.639 1041.5 228.075 1041.5 228.597V232.995H1042.99ZM1049.62 232.995H1051.11V228.597C1051.11 228.162 1051.2 227.9 1051.42 227.683C1051.6 227.552 1051.82 227.509 1051.95 227.552C1052.3 227.639 1052.3 228.075 1052.3 228.597V232.995H1053.84V228.771C1053.84 227.552 1053.18 226.986 1052.21 227.03C1051.64 227.073 1051.2 227.422 1051.03 227.814V227.16H1049.62V232.995ZM1024.42 227.03C1024.95 227.03 1025.39 227.248 1025.74 227.552C1026.4 228.075 1026.75 229.033 1026.75 230.078C1026.75 231.166 1026.4 232.08 1025.74 232.603C1025.39 232.908 1024.95 233.125 1024.42 233.125C1023.89 233.125 1023.5 232.908 1023.1 232.603C1022.49 232.08 1022.09 231.166 1022.09 230.078C1022.09 229.033 1022.49 228.075 1023.1 227.552C1023.5 227.248 1023.89 227.03 1024.42 227.03ZM1025.17 230.078C1025.17 231.166 1025.17 232.037 1024.99 232.473C1024.86 232.69 1024.73 232.821 1024.42 232.821C1024.16 232.821 1023.98 232.69 1023.89 232.473C1023.67 232.037 1023.67 231.166 1023.67 230.078C1023.67 229.033 1023.67 228.118 1023.89 227.683C1023.98 227.465 1024.16 227.334 1024.42 227.334C1024.73 227.334 1024.86 227.465 1024.99 227.683C1025.18 228.054 1025.17 228.775 1025.17 229.627V229.627V229.627V229.627V229.627V229.627V229.627V229.627V229.627V229.627V229.627V229.627C1025.17 229.774 1025.17 229.924 1025.17 230.078ZM1041.06 236.783V235.216H1039.52C1038.34 235.216 1037.59 235.869 1037.59 236.914C1037.59 237.695 1038.16 238.044 1039.08 238.606L1039.08 238.612C1039.92 239.091 1040.27 239.439 1040.27 240.005C1040.27 240.571 1039.87 240.876 1039.35 240.876C1038.51 240.833 1038.16 240.136 1037.94 239.004H1037.64V241.181H1039.39C1040.31 241.181 1041.41 240.571 1041.41 239.309C1041.41 238.277 1040.8 237.949 1039.97 237.502L1039.97 237.502L1039.97 237.502C1039.86 237.439 1039.74 237.375 1039.61 237.306C1038.82 236.87 1038.69 236.522 1038.73 236.13C1038.78 235.738 1039.17 235.477 1039.61 235.52C1040.31 235.564 1040.58 236.13 1040.75 236.783H1041.06ZM1034.74 232.995V225.941H1033.2V227.596C1033.07 227.291 1032.76 227.073 1032.32 227.073C1031.23 227.073 1030.35 228.205 1030.3 229.947C1030.26 231.123 1030.65 233.082 1032.19 233.082C1032.81 233.082 1033.16 232.734 1033.29 232.429V232.995H1034.74ZM1033.25 229.947C1033.25 229.12 1033.25 228.075 1032.94 227.639L1032.94 227.639C1032.81 227.509 1032.72 227.422 1032.5 227.422C1031.93 227.422 1031.84 228.728 1031.84 229.903C1031.84 230.6 1031.84 231.253 1031.88 231.776C1031.97 232.342 1032.15 232.69 1032.45 232.69C1032.67 232.69 1032.81 232.603 1032.94 232.429C1033.25 231.997 1033.25 231.033 1033.25 230.21V230.209V230.209V230.209V230.209L1033.25 230.207C1033.25 230.119 1033.25 230.032 1033.25 229.947ZM1047.56 227.334C1047.95 227.552 1048.22 227.9 1048.22 228.684V232.995H1046.77V232.342C1046.59 232.821 1046.11 233.125 1045.45 233.125C1044.92 233.125 1044 232.864 1044 231.515C1044 230.334 1044.73 230.029 1045.58 229.674C1045.64 229.649 1045.7 229.624 1045.76 229.599C1046.59 229.251 1046.68 229.207 1046.68 228.858V227.9C1046.68 227.509 1046.46 227.334 1046.02 227.334C1045.85 227.378 1045.54 227.465 1045.54 227.683C1045.52 227.81 1045.58 227.875 1045.65 227.954C1045.73 228.037 1045.82 228.135 1045.85 228.336C1045.89 228.946 1045.41 229.163 1044.97 229.12C1044.66 229.12 1044.31 228.946 1044.27 228.467C1044.22 227.683 1045.1 227.03 1046.33 227.03C1046.9 227.03 1047.25 227.16 1047.56 227.334ZM1046.2 229.816L1046.68 229.512V231.297C1046.68 231.907 1046.5 232.473 1046.2 232.603C1045.93 232.69 1045.63 232.603 1045.58 232.124C1045.54 231.602 1045.54 231.297 1045.58 230.949C1045.63 230.513 1045.71 230.121 1046.2 229.816ZM1025.83 235.477C1026.22 235.738 1026.44 236.043 1026.44 236.827V241.181H1025.03V240.528C1024.86 240.963 1024.38 241.268 1023.72 241.268C1023.15 241.268 1022.27 241.05 1022.27 239.701C1022.27 238.533 1022.98 238.222 1023.78 237.872L1023.78 237.872C1023.85 237.843 1023.91 237.814 1023.98 237.785C1024.86 237.393 1024.95 237.349 1024.95 237.044V236.086C1024.95 235.651 1024.73 235.477 1024.29 235.52C1024.11 235.52 1023.81 235.608 1023.81 235.825C1023.78 235.979 1023.85 236.055 1023.93 236.143C1024 236.23 1024.09 236.328 1024.11 236.522C1024.16 237.088 1023.67 237.306 1023.23 237.306C1022.93 237.262 1022.58 237.088 1022.53 236.609C1022.49 235.869 1023.37 235.216 1024.6 235.216C1025.17 235.216 1025.52 235.303 1025.83 235.477ZM1024.46 237.959L1024.95 237.654V239.439C1024.95 240.092 1024.77 240.615 1024.42 240.745C1024.16 240.876 1023.85 240.789 1023.85 240.267C1023.81 239.787 1023.81 239.439 1023.85 239.091C1023.89 238.655 1023.98 238.264 1024.46 237.959ZM1036.45 236.957C1036.45 235.738 1035.79 235.128 1034.83 235.216C1034.34 235.259 1033.95 235.477 1033.73 235.782V234.084H1032.24V238.089C1032.24 239.57 1031.18 240.963 1030.13 240.92C1029.38 240.92 1029.21 240.353 1029.12 239.744C1028.99 238.873 1028.99 237.872 1029.07 236.783C1029.16 236.086 1029.34 235.52 1029.86 235.52C1030.26 235.52 1030.3 235.782 1030.13 235.956C1030.11 235.983 1030.08 236.01 1030.06 236.037L1030.06 236.037C1029.89 236.232 1029.71 236.451 1029.82 236.87C1029.95 237.393 1030.79 237.48 1031.18 237.088C1031.49 236.74 1031.45 236.174 1031.23 235.825C1030.96 235.39 1030.52 235.216 1029.86 235.216C1029.03 235.216 1027.45 235.956 1027.45 238.307C1027.45 240.833 1029.07 241.268 1030 241.268C1031.05 241.268 1031.97 240.353 1032.24 239.613V241.181H1033.73V236.783C1033.73 236.348 1033.82 236.086 1034.04 235.869C1034.21 235.738 1034.43 235.695 1034.56 235.738C1034.91 235.825 1034.91 236.261 1034.91 236.783V241.181H1036.45V236.957Z" fill="white"/>
<path fill-rule="evenodd" clip-rule="evenodd" d="M1012 96.5001C1012 84.0738 1022.07 74 1034.49 74L1034.49 74.0011C1046.92 74.0011 1057 84.0746 1057 96.5001C1057 108.927 1046.92 119 1034.49 119C1022.07 119 1012 108.927 1012 96.5001ZM1042.82 106.798C1043.5 107.194 1044.38 106.989 1044.78 106.343C1045.2 105.697 1044.98 104.854 1044.31 104.458C1038.29 100.915 1030.81 100.09 1022.1 102.005C1021.33 102.173 1020.86 102.908 1021.03 103.646C1021.21 104.384 1021.97 104.846 1022.74 104.678C1030.7 102.929 1037.46 103.643 1042.82 106.798ZM1047.74 100.108C1047.24 100.987 1046.17 101.264 1045.36 100.724C1039.39 96.7665 1030.29 95.6207 1023.23 97.9317C1022.31 98.23 1021.35 97.6735 1021.07 96.6878C1020.79 95.7004 1021.31 94.6596 1022.22 94.3593C1030.29 91.7205 1040.31 92.9988 1047.17 97.5411C1047.98 98.0816 1048.24 99.2311 1047.74 100.108V100.108ZM1021.71 91.2208C1028.62 89.205 1040.58 89.5849 1047.82 93.7167H1047.82C1048.82 94.2863 1050.11 93.97 1050.7 93.0107C1051.29 92.0527 1050.97 90.8138 1049.96 90.2445C1041.62 85.4901 1028.43 85.0429 1020.49 87.3573C1019.38 87.6816 1018.75 88.8086 1019.09 89.8757C1019.42 90.9422 1020.6 91.5442 1021.71 91.2208Z" fill="#1ED760"/>
<path d="M794.759 102.748C794.759 105.268 792.701 107.326 790.181 107.326C787.662 107.326 785.604 105.268 785.604 102.748C785.604 100.229 787.662 98.1709 790.181 98.1709H794.759V102.748Z" fill="#E01E5A"/>
<path d="M797.065 102.748C797.065 100.229 799.123 98.1709 801.643 98.1709C804.162 98.1709 806.22 100.229 806.22 102.748V114.21C806.22 116.729 804.162 118.787 801.643 118.787C799.123 118.787 797.065 116.729 797.065 114.21V102.748Z" fill="#E01E5A"/>
<path d="M801.643 84.3677C799.123 84.3677 797.065 82.3097 797.065 79.7903C797.065 77.271 799.123 75.2129 801.643 75.2129C804.162 75.2129 806.22 77.271 806.22 79.7903V84.3677H801.643Z" fill="#36C5F0"/>
<path d="M801.643 86.6738C804.162 86.6738 806.22 88.7319 806.22 91.2512C806.22 93.7706 804.162 95.8287 801.643 95.8287H790.181C787.662 95.8287 785.604 93.7706 785.604 91.2512C785.604 88.7319 787.662 86.6738 790.181 86.6738H801.643Z" fill="#36C5F0"/>
<path d="M820.023 91.2512C820.023 88.7319 822.081 86.6738 824.601 86.6738C827.12 86.6738 829.178 88.7319 829.178 91.2512C829.178 93.7706 827.12 95.8287 824.601 95.8287H820.023V91.2512Z" fill="#2EB67D"/>
<path d="M817.717 91.2516C817.717 93.771 815.659 95.829 813.139 95.829C810.62 95.829 808.562 93.771 808.562 91.2516V79.7903C808.562 77.271 810.62 75.2129 813.139 75.2129C815.659 75.2129 817.717 77.271 817.717 79.7903V91.2516Z" fill="#2EB67D"/>
<path d="M813.139 109.632C815.659 109.632 817.717 111.69 817.717 114.209C817.717 116.729 815.659 118.787 813.139 118.787C810.62 118.787 808.562 116.729 808.562 114.209V109.632H813.139Z" fill="#ECB22E"/>
<path d="M813.139 107.326C810.62 107.326 808.562 105.268 808.562 102.748C808.562 100.229 810.62 98.1709 813.139 98.1709H824.601C827.12 98.1709 829.178 100.229 829.178 102.748C829.178 105.268 827.12 107.326 824.601 107.326H813.139Z" fill="#ECB22E"/>
</svg>
