<svg width="1132" height="361" viewBox="0 0 1132 361" fill="none" xmlns="http://www.w3.org/2000/svg">
<g filter="url(#filter0_d)">
<rect x="11" y="6" width="1110" height="339" rx="20" fill="#080808"/>
<rect x="11" y="6" width="1110" height="339" rx="20" stroke="#323232"/>
</g>
<path fill-rule="evenodd" clip-rule="evenodd" d="M777.914 253.072C778.06 253.431 778.016 253.892 777.948 254.171C777.822 254.663 777.487 255.165 776.496 255.165C775.561 255.165 774.995 254.633 774.995 253.82V252.386H770.998L770.995 253.533C770.995 256.835 773.611 257.831 776.413 257.831C779.108 257.831 781.328 256.915 781.681 254.448C781.862 253.168 781.727 252.331 781.665 252.015C781.304 250.232 779.28 249.168 777.545 248.256C776.263 247.582 775.139 246.991 774.96 246.254C774.889 245.957 774.909 245.642 774.944 245.474C775.047 245.002 775.373 244.481 776.306 244.481C777.176 244.481 777.691 245.016 777.691 245.825V246.739H781.407V245.699C781.407 242.472 778.494 241.969 776.383 241.969C773.733 241.969 771.567 242.839 771.171 245.25C771.063 245.916 771.047 246.509 771.204 247.252C771.576 248.982 773.465 250.01 775.159 250.931C776.427 251.621 777.586 252.251 777.914 253.072ZM790.253 243.812L788.212 257.251H784.189L786.952 242.439H793.58L796.33 257.251H792.323L790.337 243.812H790.253ZM857.312 254.068L857.108 242.439H860.797V257.096H855.493L851.812 245.068H851.733L851.937 257.096H848.271V242.439H853.805L857.23 254.068H857.312ZM809.472 242.439L807.63 253.761H807.551L805.711 242.439H799.631L799.302 257.251H803.034L803.127 243.934H803.208L805.7 257.251H809.481L811.972 243.934H812.049L812.148 257.251H815.872L815.549 242.439H809.472ZM826.401 254.128C826.467 253.85 826.515 253.401 826.368 253.045C826.043 252.232 824.896 251.608 823.64 250.924C821.964 250.012 820.094 248.994 819.727 247.282C819.574 246.542 819.585 245.96 819.692 245.304C820.08 242.91 822.229 242.051 824.849 242.051C826.939 242.051 829.829 242.551 829.829 245.743V246.772H826.141V245.867C826.141 245.064 825.638 244.542 824.775 244.542C823.852 244.542 823.532 245.05 823.426 245.526C823.389 245.685 823.369 245.996 823.44 246.292C823.617 247.022 824.73 247.607 825.999 248.274C827.717 249.177 829.721 250.231 830.081 251.997C830.145 252.307 830.274 253.134 830.093 254.404C829.746 256.849 827.547 257.753 824.881 257.753C822.107 257.753 819.515 256.766 819.515 253.497L819.52 252.365H823.475L823.478 253.787C823.478 254.581 824.04 255.113 824.962 255.113C825.946 255.113 826.279 254.619 826.401 254.128ZM838.884 255.035C839.918 255.035 840.241 254.323 840.312 253.96C840.342 253.799 840.35 253.585 840.347 253.393V242.433H844.115V253.058C844.123 253.33 844.096 253.891 844.084 254.031C843.819 256.796 841.62 257.693 838.882 257.693C836.142 257.693 833.941 256.796 833.679 254.031C833.667 253.891 833.64 253.33 833.648 253.058V242.433H837.413V253.393C837.413 253.585 837.419 253.801 837.448 253.96C837.529 254.323 837.842 255.035 838.884 255.035ZM871.494 253.806C871.425 254.201 871.048 254.879 869.968 254.879C868.89 254.879 868.514 254.202 868.45 253.806C868.419 253.636 868.408 253.429 868.412 253.242V246.468C868.412 246.229 868.429 245.965 868.475 245.77C868.554 245.401 868.872 244.69 869.958 244.69C871.094 244.69 871.38 245.442 871.444 245.77C871.488 245.98 871.496 246.335 871.493 246.333V247.162H875.25V246.668C875.25 246.668 875.266 246.165 875.217 245.692C874.943 242.919 872.63 242.033 869.987 242.033C867.341 242.033 865.083 242.924 864.752 245.692C864.724 245.94 864.691 246.405 864.691 246.668L864.688 252.905C864.692 253.182 864.699 253.387 864.741 253.881C864.993 256.575 867.341 257.537 869.987 257.537C872.628 257.537 874.979 256.575 875.228 253.881C875.272 253.387 875.278 253.182 875.282 252.905V248.93H869.998V251.092H871.528V253.242C871.529 253.429 871.521 253.636 871.494 253.806Z" fill="#D8D8D8"/>
<path fill-rule="evenodd" clip-rule="evenodd" d="M372.607 237.398C374.673 238.317 376.847 239.283 379.417 239.629C379.73 239.648 380.053 239.656 380.399 239.657C380.748 239.658 381.051 239.655 381.318 239.648C383.693 239.397 385.51 238.236 385.51 238.236C379.093 249.846 370.358 245.53 364.295 242.534C363.606 242.194 362.951 241.87 362.338 241.589C358.047 239.614 354.736 241.833 352.733 243.423C348.33 246.913 345.541 246.889 341.727 245.723C340.866 245.462 339.952 245.14 338.956 244.789C338.107 244.49 337.198 244.169 336.21 243.847C329.533 241.645 326.826 248.689 326.826 248.689L321.833 260.677L321.743 260.894C321.536 261.289 321.097 261.36 320.705 261.036C317.475 258.024 315.791 253.81 316.015 249.053C316.431 240.199 323.855 233.573 332.608 233.987C332.608 233.987 338.272 234.453 343.139 237.441C351.884 242.807 354.262 241.172 358.223 238.448C358.67 238.14 359.137 237.819 359.636 237.492C364.971 234.005 368.586 235.611 372.607 237.398ZM342.419 256.521C351.03 261.799 354.731 259.367 358.436 256.931C358.533 256.867 358.63 256.803 358.727 256.74C364.977 252.656 369.388 255.084 373.435 257.311C375.344 258.362 377.172 259.368 379.073 259.624C382.31 260.062 385.159 258.226 385.159 258.226C378.629 270.052 370.537 265.391 365.842 262.687C365.088 262.252 364.421 261.868 363.863 261.612C363.476 261.434 363.111 261.251 362.755 261.073C360.18 259.781 358.09 258.733 351.809 261.765C345.563 264.789 337.293 267.297 329.71 265.025C329.71 265.025 329.682 265.016 329.649 264.999C330.526 262.584 331.881 259.411 334.227 259.447C334.496 259.448 335.239 259.487 336.065 259.53H336.065L336.065 259.53C337.338 259.597 338.808 259.674 339.044 259.638C339.495 259.579 339.788 259.257 339.869 258.909C339.999 258.333 339.868 258.072 339.769 257.874C339.729 257.795 339.694 257.725 339.684 257.65C339.659 257.455 339.802 257.359 339.966 257.248C340.019 257.212 340.074 257.175 340.126 257.133C340.479 256.849 340.512 256.637 340.434 256.4C340.387 256.258 340.147 256.182 339.949 256.12C339.86 256.091 339.779 256.066 339.729 256.038C339.57 255.946 339.615 255.676 339.869 255.643C341.147 255.474 341.078 254.799 340.934 254.559C340.411 253.614 341.096 253.486 341.436 253.426C341.436 253.426 341.894 253.438 342.211 253.381C342.935 253.25 342.616 252.426 342.616 252.426C342.616 252.426 341.903 248.146 341.727 247.382C341.569 246.678 341.928 246.465 342.568 246.737C342.63 246.765 342.685 246.802 342.744 246.847C342.745 246.847 342.747 246.85 342.749 246.854L342.749 246.854C342.751 246.856 342.753 246.86 342.756 246.863C351.107 251.985 352.246 251.632 359.185 247.087C365.215 243.142 369.4 245.392 373.377 247.529C375.296 248.56 377.168 249.566 379.174 249.835C382.414 250.269 385.257 248.438 385.257 248.438C379.142 259.512 370.789 255.475 363.657 252.027L363.657 252.027C363.057 251.737 362.466 251.451 361.885 251.179C358.114 249.418 355.01 251.334 351.799 253.316C348.99 255.051 346.099 256.835 342.61 256.252C342.386 256.203 342.254 256.42 342.418 256.521L342.419 256.521Z" fill="#4665B9"/>
<path fill-rule="evenodd" clip-rule="evenodd" d="M561.487 247.092C561.487 247.092 566.347 240.01 576.05 239.277V236.708C565.302 237.56 555.995 246.551 555.995 246.551C555.995 246.551 561.267 261.603 576.05 262.981V260.25C565.201 258.902 561.487 247.092 561.487 247.092ZM576.05 254.819V257.32C567.851 255.876 565.575 247.457 565.575 247.457C565.575 247.457 569.512 243.15 576.05 242.451V245.196C576.045 245.196 576.042 245.194 576.038 245.194C572.606 244.787 569.925 247.954 569.925 247.954C569.925 247.954 571.428 253.285 576.05 254.819ZM576.05 231.969V236.708C576.366 236.684 576.681 236.664 576.998 236.653C589.217 236.246 597.179 246.551 597.179 246.551C597.179 246.551 588.035 257.534 578.508 257.534C577.635 257.534 576.818 257.454 576.05 257.32V260.25C576.707 260.332 577.387 260.381 578.097 260.381C586.963 260.381 593.374 255.909 599.581 250.616C600.611 251.431 604.824 253.411 605.69 254.278C599.788 259.159 586.032 263.094 578.233 263.094C577.482 263.094 576.76 263.049 576.05 262.981V267.099H609.746V231.969H576.05ZM576.05 242.451V239.278C576.362 239.256 576.677 239.239 576.998 239.229C585.785 238.957 591.55 246.687 591.55 246.687C591.55 246.687 585.323 255.229 578.647 255.229C577.687 255.229 576.825 255.076 576.05 254.819V245.196C579.471 245.604 580.159 247.096 582.215 250.483L586.789 246.673C586.789 246.673 583.451 242.348 577.822 242.348C577.21 242.348 576.625 242.39 576.05 242.451Z" fill="#77B900"/>
<path fill-rule="evenodd" clip-rule="evenodd" d="M125.08 256.647C121.3 259.287 116.835 262.05 112.037 264.956L111.85 265.059C111.788 265.099 111.767 265.181 111.809 265.263C111.85 265.325 111.933 265.345 112.017 265.304L112.183 265.222C116.253 263.135 120.947 260.638 125.641 258.079C125.662 258.059 125.683 258.059 125.724 258.038C125.454 257.609 125.226 257.138 125.08 256.647ZM149.837 236.896C143.897 230.429 105.661 236.241 89.3989 239.741L89.025 239.823C88.9419 239.843 88.9004 239.905 88.9004 239.987C88.9212 240.068 88.9835 240.109 89.0665 240.109L89.4404 240.028C102.899 237.674 130.917 234.399 136.96 240.294C138.809 242.095 138.352 244.407 136.233 247.13C137.376 247.866 138.207 249.012 138.58 250.445C146.888 244.98 152.475 239.782 149.837 236.896Z" fill="#DE4953"/>
<path fill-rule="evenodd" clip-rule="evenodd" d="M130.937 259.083C129.026 259.083 127.573 257.22 127.49 254.949C127.386 251.94 129.421 247.499 132.62 247.499C134.51 247.499 136.005 249.361 136.088 251.633C136.192 254.621 134.634 259.083 130.937 259.083ZM132.973 246.987C128.486 246.987 125.392 250.937 125.537 254.826C125.641 257.834 127.614 259.799 130.605 259.799C135.13 259.799 137.976 256.318 138.044 252.4C138.295 252.363 138.657 252.329 138.809 252.329C139.079 252.329 139.328 252.37 139.328 252.636C139.328 252.799 139.058 253.905 138.996 254.15L138.435 256.606C138.206 257.609 137.957 258.653 137.75 259.492H139.203L140.013 255.624C142.506 253.086 143.461 252.247 144.043 252.247C144.313 252.247 144.479 252.39 144.5 252.697C144.52 253.147 144.23 254.171 144.126 254.457L143.295 257.282C143.108 257.916 142.963 258.489 142.983 258.899C143.004 259.513 143.399 259.799 143.96 259.799C144.944 259.799 145.677 258.862 146.31 257.875C146.635 259.124 147.649 259.779 148.84 259.779C150.564 259.779 152.039 258.612 152.766 257.159L152.475 256.975C151.893 257.855 150.772 258.735 149.65 258.776C148.342 258.776 147.719 257.896 147.677 256.873C147.656 256.463 147.677 256.218 147.76 255.951C150.086 255.89 153.617 255.133 153.534 252.656C153.493 251.551 152.516 251.101 151.478 251.101C149.048 251.101 146.099 254.007 146.203 257.118C146.206 257.205 146.212 257.29 146.22 257.373C145.931 257.827 145.346 258.673 144.873 258.673C144.707 258.673 144.562 258.571 144.562 258.305C144.541 257.978 144.686 257.486 144.79 257.159L145.704 253.843C145.953 252.922 146.078 252.349 146.057 252.022C146.036 251.408 145.663 251.121 145.102 251.121C144.146 251.121 142.88 251.797 140.2 254.846H140.159L140.491 253.372C140.536 253.175 140.58 252.976 140.623 252.78C140.759 252.164 140.889 251.576 141.031 251.142C140.127 251.458 138.874 251.813 138.041 251.984C138.041 251.976 138.041 251.968 138.04 251.96C137.936 248.952 135.963 246.987 132.973 246.987ZM82.4826 253.966C82.7319 253.925 82.9396 253.864 83.1057 253.802C83.074 253.967 83.0453 254.11 83.0208 254.232C82.9811 254.43 82.9524 254.574 82.9396 254.662C82.8565 254.846 82.7526 255.01 82.6073 255.133C82.3996 255.297 82.1503 255.419 81.8388 255.522C81.5273 255.624 81.2157 255.665 80.9042 255.665C80.4888 255.665 80.198 255.604 80.0111 255.481C79.8242 255.358 79.7619 255.194 79.8034 254.99C79.8242 254.805 79.928 254.642 80.115 254.519C80.3019 254.376 80.6342 254.294 81.0911 254.212C81.7557 254.109 82.2334 254.028 82.4826 253.966ZM86.8944 252.3C86.952 251.942 86.994 251.681 87.0103 251.408C87.0311 250.425 86.1588 249.668 83.4588 249.689C81.7557 249.689 80.115 249.852 78.3911 250.098L77.685 252.001C78.9934 251.674 81.548 251.244 82.898 251.51C83.4173 251.613 83.5211 251.838 83.4588 252.206C83.4173 252.411 83.3342 252.513 83.0642 252.615C83.0568 252.618 83.049 252.62 83.0408 252.623C82.8439 252.688 82.4363 252.823 81.818 252.881C80.5719 252.984 79.6373 253.086 78.9726 253.188C78.308 253.291 77.8511 253.414 77.4565 253.598C77.0826 253.782 76.7296 253.987 76.4596 254.294C76.1896 254.601 76.0234 255.03 76.0027 255.378C75.9819 255.972 76.2103 256.259 76.7088 256.688C77.1865 257.098 77.8719 257.22 79.0973 257.22C79.8242 257.22 80.3019 257.139 80.9042 256.995C81.5065 256.832 82.1711 256.566 82.7111 256.238L82.7526 257.159H86.5326L86.5534 257.016C86.2419 256.832 86.1173 256.586 86.1796 256.259L86.8442 252.615C86.8619 252.502 86.8787 252.397 86.8944 252.3ZM99.2434 249.873L97.9349 257.159H101.549L102.857 249.873H99.2434ZM101.59 247.11C100.51 247.11 99.5549 247.601 99.4511 248.195C99.3265 248.788 100.116 249.279 101.196 249.279C102.255 249.279 103.231 248.788 103.335 248.195C103.439 247.601 102.67 247.11 101.59 247.11ZM115.07 253.987C115.319 253.946 115.526 253.884 115.693 253.823C115.61 254.253 115.547 254.539 115.506 254.683C115.443 254.867 115.34 255.03 115.194 255.153C114.986 255.317 114.737 255.44 114.426 255.542C114.114 255.644 113.803 255.685 113.491 255.685C113.055 255.685 112.764 255.624 112.577 255.501C112.411 255.378 112.328 255.215 112.37 255.01C112.411 254.826 112.515 254.662 112.681 254.539C112.868 254.396 113.2 254.314 113.657 254.232C114.343 254.13 114.82 254.048 115.07 253.987ZM119.39 252.636C119.493 252.104 119.556 251.776 119.576 251.428C119.597 250.446 118.725 249.689 116.046 249.648C114.322 249.648 112.723 249.811 110.978 250.057L110.272 251.96C111.58 251.633 114.114 251.203 115.485 251.469C115.983 251.572 116.108 251.797 116.046 252.165C116.004 252.39 115.9 252.493 115.63 252.595C115.617 252.599 115.603 252.604 115.587 252.609C115.386 252.676 115.003 252.804 114.405 252.861C113.159 252.963 112.224 253.066 111.56 253.168C110.895 253.291 110.438 253.414 110.043 253.598C109.67 253.782 109.316 253.987 109.046 254.294C108.776 254.601 108.61 255.03 108.59 255.378C108.569 255.972 108.797 256.259 109.296 256.688C109.773 257.098 110.459 257.22 111.684 257.22C112.411 257.22 112.889 257.159 113.491 256.995C114.073 256.832 114.737 256.566 115.298 256.238L115.319 257.159H119.099L119.12 257.036C118.808 256.852 118.683 256.606 118.746 256.279L119.39 252.636ZM72.5134 254.867C73.6765 254.867 74.3203 254.764 75.5042 254.539L75.0265 257.159C73.8427 257.261 72.5757 257.323 71.3711 257.323C69.2734 257.343 64.538 256.381 65.0365 252.554C65.5142 248.788 69.4811 246.946 73.6142 246.905C74.8396 246.885 75.7742 246.967 77.1865 247.499L76.7296 250.016C75.6911 249.423 74.9227 249.259 73.9257 249.259C70.7688 249.259 69.5434 251.449 69.4811 252.472C69.4188 254.028 70.7896 254.867 72.5134 254.867ZM105.1 248.358L104.851 249.832V249.852H103.439L103.169 251.326H104.54L103.46 257.159C103.48 257.139 107.115 257.159 107.115 257.159L108.195 251.306H109.981L110.334 249.832H108.486L108.88 247.54L105.1 248.358ZM121.404 247.007L119.556 257.159H123.253L124.997 247.11L121.404 247.007ZM91.8703 252.022C92.2649 251.735 92.6803 251.592 93.158 251.592C93.6357 251.592 93.9888 251.735 94.2588 252.042C94.5288 252.329 94.6119 252.759 94.508 253.332C94.4457 253.7 94.3211 254.007 94.1134 254.294C93.9265 254.56 93.7188 254.723 93.4073 254.887C93.158 255.01 92.8257 255.071 92.4934 255.071C91.9949 255.071 91.6211 254.928 91.3719 254.642C91.1226 254.355 91.0603 253.905 91.1642 253.27C91.2473 252.718 91.4965 252.308 91.8703 252.022ZM88.3396 249.914L86.5742 259.676H90.1673L90.7488 256.34C90.998 256.606 91.1849 256.75 91.3511 256.873C91.538 256.995 91.7873 257.077 92.078 257.159C92.3896 257.241 92.7634 257.282 93.1996 257.282C94.4249 257.282 95.2973 257.098 96.2734 256.402C97.2496 255.706 97.8519 254.764 98.0596 253.557C98.1842 252.82 98.1219 252.165 97.8934 251.572C97.6442 250.958 97.2288 250.507 96.6057 250.18C95.9826 249.852 95.4842 249.811 94.6534 249.811C93.9057 249.811 93.1996 249.996 92.5973 250.241C91.9742 250.487 91.538 250.794 91.268 251.162L91.5173 249.914H88.3396ZM151.229 251.51C151.852 251.51 152.143 251.899 152.163 252.493C152.205 254.089 150.315 255.522 147.906 255.522C148.176 254.376 149.754 251.51 151.229 251.51Z" fill="white"/>
<path fill-rule="evenodd" clip-rule="evenodd" d="M594.737 88.8647C593.332 86.976 590.858 85.4434 587.192 84.1788C582.608 82.7165 578.768 81.6462 575.663 81V118.941L583.943 121.453V89.7747C583.943 88.9351 584.014 88.3791 584.371 88.0274C584.728 87.5417 585.072 87.4721 585.573 87.6735C586.765 88.0274 587.335 89.0773 587.335 90.8238V103.555C590.013 104.807 592.417 104.949 594.18 103.615C596.013 102.364 597.001 100.121 597.001 96.7712C597.001 93.2766 596.297 90.6121 594.737 88.8648L594.737 88.8647ZM573.529 111.488L571.837 112.073L570.017 112.771L566.985 113.335L564.09 112.983C563.504 112.639 563.359 112.285 563.724 111.93L563.771 111.905L563.771 111.905C564.132 111.705 564.617 111.438 565.166 111.235L567.122 110.537L573.529 108.347V103.356L571.837 103.891L561.331 107.527L559.522 108.225C556.774 109.345 555.332 110.537 555.393 111.59C555.54 113.123 557.349 114.245 560.608 115.083C564.842 116.185 569.14 116.417 573.529 115.781L573.529 111.488ZM595.294 106.578C598.416 106.444 601.765 106.777 605.114 107.763C608.075 108.617 609.719 109.604 609.793 110.847C609.944 112.165 608.6 113.217 605.628 114.203L604.146 114.793L591.579 118.73L586.332 120.389V115.731L597.525 112.165L600.273 111.245C601.389 110.913 601.916 110.58 601.765 110.191C601.614 109.859 601.24 109.594 600.424 109.538C600.424 109.538 599.006 109.091 597.677 109.404C596.805 109.604 595.593 109.859 595.593 109.859L592.47 110.847L586.332 112.753V107.962C589.412 107.099 592.407 106.633 595.294 106.578Z" fill="#0FBDF0"/>
<mask id="mask0" mask-type="alpha" maskUnits="userSpaceOnUse" x="328" y="80" width="43" height="43">
<path fill-rule="evenodd" clip-rule="evenodd" d="M369.613 97.42H349.73V105.646H361.175C360.108 110.872 355.646 113.872 349.73 113.872C342.746 113.872 337.12 108.259 337.12 101.291C337.12 94.3231 342.746 88.71 349.73 88.71C352.736 88.71 355.452 89.7746 357.586 91.5166L363.794 85.3228C360.011 82.0323 355.161 80 349.73 80C337.896 80 328.391 89.4842 328.391 101.291C328.391 113.098 337.896 122.582 349.73 122.582C360.399 122.582 370.098 114.84 370.098 101.291C370.098 100.033 369.904 98.6782 369.613 97.42Z" fill="white"/>
</mask>
<g mask="url(#mask0)">
<path fill-rule="evenodd" clip-rule="evenodd" d="M326.451 113.873V88.7109L342.94 101.292L326.451 113.873Z" fill="#FBBC05"/>
</g>
<mask id="mask1" mask-type="alpha" maskUnits="userSpaceOnUse" x="328" y="80" width="43" height="43">
<path fill-rule="evenodd" clip-rule="evenodd" d="M369.613 97.42H349.73V105.646H361.175C360.108 110.872 355.646 113.872 349.73 113.872C342.746 113.872 337.12 108.259 337.12 101.291C337.12 94.3231 342.746 88.71 349.73 88.71C352.736 88.71 355.452 89.7746 357.586 91.5166L363.794 85.3228C360.011 82.0323 355.161 80 349.73 80C337.896 80 328.391 89.4842 328.391 101.291C328.391 113.098 337.896 122.582 349.73 122.582C360.399 122.582 370.098 114.84 370.098 101.291C370.098 100.033 369.904 98.6782 369.613 97.42Z" fill="white"/>
</mask>
<g mask="url(#mask1)">
<path fill-rule="evenodd" clip-rule="evenodd" d="M326.451 113.872L355.549 91.6134L363.212 92.5812L373.008 78.0645V124.518H326.451V113.872Z" fill="#34A853"/>
</g>
<mask id="mask2" mask-type="alpha" maskUnits="userSpaceOnUse" x="328" y="80" width="43" height="43">
<path fill-rule="evenodd" clip-rule="evenodd" d="M369.613 97.42H349.73V105.646H361.175C360.108 110.872 355.646 113.872 349.73 113.872C342.746 113.872 337.12 108.259 337.12 101.291C337.12 94.3231 342.746 88.71 349.73 88.71C352.736 88.71 355.452 89.7746 357.586 91.5166L363.794 85.3228C360.011 82.0323 355.161 80 349.73 80C337.896 80 328.391 89.4842 328.391 101.291C328.391 113.098 337.896 122.582 349.73 122.582C360.399 122.582 370.098 114.84 370.098 101.291C370.098 100.033 369.904 98.6782 369.613 97.42Z" fill="white"/>
</mask>
<g mask="url(#mask2)">
<path fill-rule="evenodd" clip-rule="evenodd" d="M326.451 88.71L342.94 101.291L349.73 95.3877L373.008 91.6134V78.0645H326.451V88.71Z" fill="#EA4335"/>
</g>
<mask id="mask3" mask-type="alpha" maskUnits="userSpaceOnUse" x="328" y="80" width="43" height="43">
<path fill-rule="evenodd" clip-rule="evenodd" d="M369.613 97.42H349.73V105.646H361.175C360.108 110.872 355.646 113.872 349.73 113.872C342.746 113.872 337.12 108.259 337.12 101.291C337.12 94.3231 342.746 88.71 349.73 88.71C352.736 88.71 355.452 89.7746 357.586 91.5166L363.794 85.3228C360.011 82.0323 355.161 80 349.73 80C337.896 80 328.391 89.4842 328.391 101.291C328.391 113.098 337.896 122.582 349.73 122.582C360.399 122.582 370.098 114.84 370.098 101.291C370.098 100.033 369.904 98.6782 369.613 97.42Z" fill="white"/>
</mask>
<g mask="url(#mask3)">
<path fill-rule="evenodd" clip-rule="evenodd" d="M373.008 124.519L342.94 101.292L339.06 98.3887L373.008 88.7109V124.519Z" fill="#4285F4"/>
</g>
<path fill-rule="evenodd" clip-rule="evenodd" d="M82.8812 113.381C80.858 113.3 79.2027 112.742 77.9084 111.705C77.6614 111.507 77.0728 110.914 76.8754 110.663C76.3505 109.998 75.9937 109.351 75.7557 108.633C75.0233 106.422 75.4002 103.52 76.8338 100.336C78.0612 97.6105 79.9552 94.9069 83.2595 91.1624C83.7463 90.6114 85.1958 89 85.2051 89C85.2086 89 85.1296 89.1379 85.0302 89.3059C84.171 90.7563 83.4359 92.4648 83.0354 93.9439C82.392 96.3172 82.4696 98.3539 83.2626 99.9331C83.8097 101.021 84.7475 101.964 85.802 102.485C87.6482 103.396 90.3511 103.472 93.652 102.705C93.8792 102.652 105.141 99.6391 118.677 96.0095C132.214 92.3796 143.291 89.412 143.293 89.4145C143.297 89.4176 111.843 102.983 95.5154 110.02C92.9296 111.134 92.2381 111.416 91.0225 111.846C87.9149 112.946 85.1313 113.471 82.8812 113.381Z" fill="white" stroke="black"/>
<path fill-rule="evenodd" clip-rule="evenodd" d="M1066.65 271.562H1023V228H1066.65V271.562ZM1031.08 230.81V233.292H1030.78C1030.51 232.073 1029.94 231.159 1029.15 231.115C1028.62 231.072 1028.32 231.376 1028.05 231.812C1027.79 232.334 1027.66 233.423 1027.66 234.729C1027.66 235.948 1027.7 236.863 1027.83 237.516C1027.92 237.821 1028.14 238.3 1028.71 238.3C1029.02 238.3 1029.24 238.213 1029.37 238.038C1029.59 237.777 1029.63 237.255 1029.63 236.906V235.731C1029.63 235.295 1029.5 235.034 1029.28 234.903C1029.17 234.85 1029.03 234.829 1028.91 234.811C1028.83 234.8 1028.76 234.79 1028.71 234.773V234.468H1031.17V240.694H1030.86L1030.84 240.607C1030.72 240.172 1030.63 239.843 1030.42 239.475C1030.2 239.084 1029.81 238.648 1029.15 238.648C1028.45 238.604 1027.92 239.04 1027.92 239.693C1027.92 240.504 1028.38 240.748 1029.22 241.2L1029.22 241.2C1029.28 241.233 1029.35 241.268 1029.41 241.304C1029.52 241.365 1029.63 241.425 1029.75 241.485L1029.75 241.485C1030.6 241.943 1031.52 242.44 1031.52 243.786C1031.52 245.266 1030.25 246.181 1028.8 246.181H1026.47V243.177H1026.78C1027.18 245.441 1028.14 245.832 1028.8 245.832C1029.63 245.832 1030.03 245.31 1030.03 244.57C1029.99 243.612 1029.33 243.263 1028.4 242.785C1027.09 242.044 1026.47 241.696 1026.47 240.477C1026.52 239.432 1027.35 238.779 1028.27 238.518C1026.34 238.3 1025.77 236.558 1025.81 234.686C1025.81 232.813 1026.91 230.81 1029.06 230.81H1031.08ZM1037.76 230.941H1039.29V237.995H1037.76V230.941ZM1052.99 233.771V237.995H1051.5V233.597C1051.5 233.075 1051.46 232.639 1051.1 232.552C1050.97 232.509 1050.8 232.552 1050.62 232.683C1050.4 232.9 1050.31 233.162 1050.31 233.554V237.995H1048.82V233.597C1048.82 233.075 1048.82 232.639 1048.47 232.552C1048.34 232.509 1048.16 232.552 1047.99 232.683C1047.72 232.9 1047.68 233.162 1047.68 233.597V237.995H1046.19V232.16H1047.55V232.813C1047.72 232.422 1048.16 232.073 1048.73 232.03C1049.44 231.986 1049.92 232.247 1050.14 232.857C1050.31 232.509 1050.71 232.073 1051.37 232.03C1052.33 231.986 1052.99 232.552 1052.99 233.771ZM1061.11 237.995H1059.62V232.16H1061.03V232.813C1061.2 232.422 1061.64 232.073 1062.21 232.03C1063.18 231.986 1063.84 232.552 1063.84 233.771V237.995H1062.3V233.597C1062.3 233.075 1062.3 232.639 1061.95 232.552C1061.82 232.509 1061.6 232.552 1061.42 232.683C1061.2 232.9 1061.11 233.162 1061.11 233.597V237.995ZM1035.74 232.552C1035.39 232.247 1034.95 232.03 1034.42 232.03C1033.89 232.03 1033.5 232.247 1033.1 232.552C1032.49 233.075 1032.09 234.033 1032.09 235.077C1032.09 236.166 1032.49 237.08 1033.1 237.603C1033.5 237.908 1033.89 238.125 1034.42 238.125C1034.95 238.125 1035.39 237.908 1035.74 237.603C1036.4 237.08 1036.75 236.166 1036.75 235.077C1036.75 234.033 1036.4 233.075 1035.74 232.552ZM1034.99 237.472C1035.17 237.037 1035.17 236.166 1035.17 235.077C1035.17 234.924 1035.17 234.774 1035.17 234.627V234.627V234.627V234.627V234.627V234.627V234.627V234.627V234.627V234.627V234.627V234.627V234.627C1035.17 233.774 1035.18 233.054 1034.99 232.683C1034.86 232.465 1034.73 232.334 1034.42 232.334C1034.16 232.334 1033.98 232.465 1033.89 232.683C1033.67 233.118 1033.67 234.033 1033.67 235.077C1033.67 236.166 1033.67 237.037 1033.89 237.472C1033.98 237.69 1034.16 237.821 1034.42 237.821C1034.73 237.821 1034.86 237.69 1034.99 237.472ZM1051.06 240.216V241.783H1050.75C1050.58 241.13 1050.31 240.564 1049.61 240.52C1049.17 240.477 1048.78 240.738 1048.73 241.13C1048.69 241.522 1048.82 241.87 1049.61 242.306C1049.73 242.375 1049.85 242.439 1049.97 242.502L1049.97 242.502L1049.97 242.502C1050.8 242.949 1051.41 243.277 1051.41 244.309C1051.41 245.571 1050.31 246.181 1049.39 246.181H1047.64V244.004H1047.94C1048.16 245.136 1048.51 245.832 1049.35 245.876C1049.87 245.876 1050.27 245.571 1050.27 245.005C1050.27 244.439 1049.92 244.091 1049.08 243.612L1049.08 243.606C1048.16 243.043 1047.59 242.695 1047.59 241.914C1047.59 240.869 1048.34 240.216 1049.52 240.216H1051.06ZM1044.74 230.941V237.995H1043.29V237.429C1043.16 237.734 1042.81 238.082 1042.19 238.082C1040.65 238.082 1040.26 236.123 1040.3 234.947C1040.35 233.205 1041.23 232.073 1042.32 232.073C1042.76 232.073 1043.07 232.291 1043.2 232.596V230.941H1044.74ZM1042.94 232.639C1043.24 233.075 1043.24 234.12 1043.24 234.947C1043.24 235.031 1043.25 235.119 1043.25 235.207V235.207L1043.25 235.209V235.209V235.209V235.209V235.209C1043.25 236.033 1043.25 236.997 1042.94 237.429C1042.81 237.603 1042.67 237.69 1042.45 237.69C1042.15 237.69 1041.97 237.342 1041.88 236.776C1041.84 236.253 1041.84 235.6 1041.84 234.903C1041.84 233.728 1041.93 232.422 1042.5 232.422C1042.72 232.422 1042.81 232.508 1042.94 232.639L1042.94 232.639ZM1058.22 233.684C1058.22 232.9 1057.95 232.552 1057.56 232.334C1057.25 232.16 1056.9 232.03 1056.33 232.03C1055.1 232.03 1054.22 232.683 1054.27 233.467C1054.31 233.945 1054.66 234.12 1054.97 234.12C1055.41 234.163 1055.89 233.945 1055.85 233.336C1055.82 233.135 1055.73 233.037 1055.65 232.954C1055.58 232.875 1055.52 232.81 1055.54 232.683C1055.54 232.465 1055.85 232.378 1056.02 232.334C1056.46 232.334 1056.68 232.509 1056.68 232.9V233.858C1056.68 234.206 1056.59 234.25 1055.76 234.599C1055.7 234.624 1055.64 234.649 1055.58 234.674L1055.58 234.674C1054.73 235.029 1054 235.334 1054 236.515C1054 237.864 1054.92 238.125 1055.45 238.125C1056.11 238.125 1056.59 237.821 1056.77 237.342V237.995H1058.22V233.684ZM1056.68 234.511L1056.2 234.816C1055.71 235.121 1055.63 235.513 1055.58 235.948C1055.54 236.297 1055.54 236.602 1055.58 237.124C1055.63 237.603 1055.93 237.69 1056.2 237.603C1056.5 237.472 1056.68 236.906 1056.68 236.297V234.511ZM1036.44 241.826C1036.44 241.043 1036.22 240.738 1035.82 240.477C1035.52 240.303 1035.17 240.216 1034.6 240.216C1033.37 240.216 1032.49 240.869 1032.53 241.609C1032.58 242.088 1032.93 242.262 1033.23 242.306C1033.67 242.306 1034.16 242.088 1034.11 241.522C1034.09 241.328 1034 241.23 1033.93 241.143C1033.85 241.055 1033.78 240.979 1033.81 240.825C1033.81 240.607 1034.11 240.52 1034.29 240.52C1034.73 240.477 1034.95 240.651 1034.95 241.086V242.044C1034.95 242.349 1034.86 242.393 1033.98 242.785C1033.91 242.814 1033.85 242.843 1033.78 242.872L1033.78 242.872C1032.98 243.222 1032.27 243.533 1032.27 244.7C1032.27 246.05 1033.15 246.268 1033.72 246.268C1034.38 246.268 1034.86 245.963 1035.03 245.528V246.181H1036.44V241.826ZM1034.95 242.654L1034.46 242.959C1033.98 243.263 1033.89 243.655 1033.85 244.091C1033.81 244.439 1033.81 244.787 1033.85 245.266C1033.85 245.789 1034.16 245.876 1034.42 245.745C1034.77 245.615 1034.95 245.092 1034.95 244.439V242.654ZM1044.83 240.216C1045.79 240.128 1046.45 240.738 1046.45 241.957V246.181H1044.91V241.783C1044.91 241.26 1044.91 240.825 1044.56 240.738C1044.43 240.694 1044.21 240.738 1044.04 240.869C1043.82 241.086 1043.73 241.348 1043.73 241.783V246.181H1042.23V244.613C1041.97 245.353 1041.05 246.268 1040 246.268C1039.07 246.268 1037.45 245.832 1037.45 243.307C1037.45 240.956 1039.03 240.216 1039.86 240.216C1040.52 240.216 1040.96 240.39 1041.23 240.825C1041.44 241.173 1041.49 241.74 1041.18 242.088C1040.79 242.48 1039.95 242.393 1039.82 241.87C1039.7 241.45 1039.89 241.231 1040.06 241.037L1040.06 241.037C1040.08 241.01 1040.11 240.983 1040.13 240.956C1040.3 240.782 1040.26 240.52 1039.86 240.52C1039.34 240.52 1039.16 241.086 1039.07 241.783C1038.99 242.872 1038.99 243.873 1039.12 244.744C1039.21 245.353 1039.38 245.919 1040.13 245.919C1041.18 245.963 1042.23 244.57 1042.23 243.089V239.084H1043.73V240.782C1043.95 240.477 1044.34 240.259 1044.83 240.216Z" fill="#64A8F0"/>
<path fill-rule="evenodd" clip-rule="evenodd" d="M1031.08 233.292V230.811H1029.06C1026.91 230.811 1025.81 232.814 1025.81 234.686C1025.77 236.558 1026.34 238.3 1028.27 238.518C1027.35 238.779 1026.52 239.432 1026.47 240.477C1026.47 241.696 1027.09 242.044 1028.4 242.785C1029.33 243.264 1029.99 243.612 1030.03 244.57C1030.03 245.31 1029.63 245.833 1028.8 245.833C1028.14 245.833 1027.18 245.441 1026.78 243.177H1026.47V246.181H1028.8C1030.25 246.181 1031.52 245.267 1031.52 243.786C1031.52 242.44 1030.6 241.943 1029.75 241.486C1029.63 241.425 1029.52 241.365 1029.41 241.304C1029.35 241.268 1029.28 241.233 1029.22 241.2C1028.38 240.748 1027.92 240.504 1027.92 239.693C1027.92 239.04 1028.45 238.605 1029.15 238.648C1029.81 238.648 1030.2 239.084 1030.42 239.475C1030.63 239.843 1030.72 240.172 1030.84 240.607C1030.85 240.636 1030.86 240.665 1030.86 240.695H1031.17V234.468H1028.71V234.773C1028.76 234.79 1028.83 234.8 1028.91 234.811C1029.03 234.829 1029.17 234.85 1029.28 234.903C1029.5 235.034 1029.63 235.295 1029.63 235.731V236.907C1029.63 237.255 1029.59 237.777 1029.37 238.039C1029.24 238.213 1029.02 238.3 1028.71 238.3C1028.14 238.3 1027.92 237.821 1027.83 237.516C1027.7 236.863 1027.66 235.949 1027.66 234.729C1027.66 233.423 1027.79 232.334 1028.05 231.812C1028.32 231.377 1028.62 231.072 1029.15 231.115C1029.94 231.159 1030.51 232.073 1030.78 233.292H1031.08ZM1039.29 230.941H1037.76V237.995H1039.29V230.941ZM1052.99 237.995V233.771C1052.99 232.552 1052.33 231.986 1051.37 232.03C1050.71 232.073 1050.31 232.509 1050.14 232.857C1049.92 232.248 1049.44 231.986 1048.73 232.03C1048.16 232.073 1047.72 232.422 1047.55 232.814V232.16H1046.19V237.995H1047.68V233.597C1047.68 233.162 1047.72 232.9 1047.99 232.683C1048.16 232.552 1048.34 232.509 1048.47 232.552C1048.82 232.639 1048.82 233.075 1048.82 233.597V237.995H1050.31V233.554C1050.31 233.162 1050.4 232.9 1050.62 232.683C1050.8 232.552 1050.97 232.509 1051.1 232.552C1051.46 232.639 1051.5 233.075 1051.5 233.597V237.995H1052.99ZM1059.62 237.995H1061.11V233.597C1061.11 233.162 1061.2 232.9 1061.42 232.683C1061.6 232.552 1061.82 232.509 1061.95 232.552C1062.3 232.639 1062.3 233.075 1062.3 233.597V237.995H1063.84V233.771C1063.84 232.552 1063.18 231.986 1062.21 232.03C1061.64 232.073 1061.2 232.422 1061.03 232.814V232.16H1059.62V237.995ZM1034.42 232.03C1034.95 232.03 1035.39 232.248 1035.74 232.552C1036.4 233.075 1036.75 234.033 1036.75 235.078C1036.75 236.166 1036.4 237.08 1035.74 237.603C1035.39 237.908 1034.95 238.125 1034.42 238.125C1033.89 238.125 1033.5 237.908 1033.1 237.603C1032.49 237.08 1032.09 236.166 1032.09 235.078C1032.09 234.033 1032.49 233.075 1033.1 232.552C1033.5 232.248 1033.89 232.03 1034.42 232.03ZM1035.17 235.078C1035.17 236.166 1035.17 237.037 1034.99 237.473C1034.86 237.69 1034.73 237.821 1034.42 237.821C1034.16 237.821 1033.98 237.69 1033.89 237.473C1033.67 237.037 1033.67 236.166 1033.67 235.078C1033.67 234.033 1033.67 233.118 1033.89 232.683C1033.98 232.465 1034.16 232.334 1034.42 232.334C1034.73 232.334 1034.86 232.465 1034.99 232.683C1035.18 233.054 1035.17 233.775 1035.17 234.627V234.627V234.627V234.627V234.627V234.627V234.627V234.627V234.627V234.627V234.627V234.627C1035.17 234.774 1035.17 234.924 1035.17 235.078ZM1051.06 241.783V240.216H1049.52C1048.34 240.216 1047.59 240.869 1047.59 241.914C1047.59 242.695 1048.16 243.044 1049.08 243.606L1049.08 243.612C1049.92 244.091 1050.27 244.439 1050.27 245.005C1050.27 245.571 1049.87 245.876 1049.35 245.876C1048.51 245.833 1048.16 245.136 1047.94 244.004H1047.64V246.181H1049.39C1050.31 246.181 1051.41 245.571 1051.41 244.309C1051.41 243.277 1050.8 242.949 1049.97 242.502L1049.97 242.502L1049.97 242.502C1049.86 242.439 1049.74 242.375 1049.61 242.306C1048.82 241.87 1048.69 241.522 1048.73 241.13C1048.78 240.738 1049.17 240.477 1049.61 240.52C1050.31 240.564 1050.58 241.13 1050.75 241.783H1051.06ZM1044.74 237.995V230.941H1043.2V232.596C1043.07 232.291 1042.76 232.073 1042.32 232.073C1041.23 232.073 1040.35 233.205 1040.3 234.947C1040.26 236.123 1040.65 238.082 1042.19 238.082C1042.81 238.082 1043.16 237.734 1043.29 237.429V237.995H1044.74ZM1043.25 234.947C1043.25 234.12 1043.25 233.075 1042.94 232.639L1042.94 232.639C1042.81 232.509 1042.72 232.422 1042.5 232.422C1041.93 232.422 1041.84 233.728 1041.84 234.903C1041.84 235.6 1041.84 236.253 1041.88 236.776C1041.97 237.342 1042.15 237.69 1042.45 237.69C1042.67 237.69 1042.81 237.603 1042.94 237.429C1043.25 236.997 1043.25 236.033 1043.25 235.21V235.209V235.209V235.209V235.209L1043.25 235.207C1043.25 235.119 1043.25 235.032 1043.25 234.947ZM1057.56 232.334C1057.95 232.552 1058.22 232.9 1058.22 233.684V237.995H1056.77V237.342C1056.59 237.821 1056.11 238.125 1055.45 238.125C1054.92 238.125 1054 237.864 1054 236.515C1054 235.334 1054.73 235.029 1055.58 234.674C1055.64 234.649 1055.7 234.624 1055.76 234.599C1056.59 234.251 1056.68 234.207 1056.68 233.858V232.9C1056.68 232.509 1056.46 232.334 1056.02 232.334C1055.85 232.378 1055.54 232.465 1055.54 232.683C1055.52 232.81 1055.58 232.875 1055.65 232.954C1055.73 233.037 1055.82 233.135 1055.85 233.336C1055.89 233.946 1055.41 234.163 1054.97 234.12C1054.66 234.12 1054.31 233.946 1054.27 233.467C1054.22 232.683 1055.1 232.03 1056.33 232.03C1056.9 232.03 1057.25 232.16 1057.56 232.334ZM1056.2 234.816L1056.68 234.512V236.297C1056.68 236.907 1056.5 237.473 1056.2 237.603C1055.93 237.69 1055.63 237.603 1055.58 237.124C1055.54 236.602 1055.54 236.297 1055.58 235.949C1055.63 235.513 1055.71 235.121 1056.2 234.816ZM1035.83 240.477C1036.22 240.738 1036.44 241.043 1036.44 241.827V246.181H1035.03V245.528C1034.86 245.963 1034.38 246.268 1033.72 246.268C1033.15 246.268 1032.27 246.05 1032.27 244.701C1032.27 243.533 1032.98 243.222 1033.78 242.872L1033.78 242.872C1033.85 242.843 1033.91 242.814 1033.98 242.785C1034.86 242.393 1034.95 242.349 1034.95 242.044V241.086C1034.95 240.651 1034.73 240.477 1034.29 240.52C1034.11 240.52 1033.81 240.608 1033.81 240.825C1033.78 240.979 1033.85 241.055 1033.93 241.143C1034 241.23 1034.09 241.328 1034.11 241.522C1034.16 242.088 1033.67 242.306 1033.23 242.306C1032.93 242.262 1032.58 242.088 1032.53 241.609C1032.49 240.869 1033.37 240.216 1034.6 240.216C1035.17 240.216 1035.52 240.303 1035.83 240.477ZM1034.46 242.959L1034.95 242.654V244.439C1034.95 245.092 1034.77 245.615 1034.42 245.745C1034.16 245.876 1033.85 245.789 1033.85 245.267C1033.81 244.787 1033.81 244.439 1033.85 244.091C1033.89 243.655 1033.98 243.264 1034.46 242.959ZM1046.45 241.957C1046.45 240.738 1045.79 240.128 1044.83 240.216C1044.34 240.259 1043.95 240.477 1043.73 240.782V239.084H1042.24V243.089C1042.24 244.57 1041.18 245.963 1040.13 245.92C1039.38 245.92 1039.21 245.353 1039.12 244.744C1038.99 243.873 1038.99 242.872 1039.07 241.783C1039.16 241.086 1039.34 240.52 1039.86 240.52C1040.26 240.52 1040.3 240.782 1040.13 240.956C1040.11 240.983 1040.08 241.01 1040.06 241.037L1040.06 241.037C1039.89 241.232 1039.71 241.451 1039.82 241.87C1039.95 242.393 1040.79 242.48 1041.18 242.088C1041.49 241.74 1041.45 241.174 1041.23 240.825C1040.96 240.39 1040.52 240.216 1039.86 240.216C1039.03 240.216 1037.45 240.956 1037.45 243.307C1037.45 245.833 1039.07 246.268 1040 246.268C1041.05 246.268 1041.97 245.353 1042.24 244.613V246.181H1043.73V241.783C1043.73 241.348 1043.82 241.086 1044.04 240.869C1044.21 240.738 1044.43 240.695 1044.56 240.738C1044.91 240.825 1044.91 241.261 1044.91 241.783V246.181H1046.45V241.957Z" fill="white"/>
<path fill-rule="evenodd" clip-rule="evenodd" d="M1022 101.5C1022 89.0738 1032.07 79 1044.49 79L1044.49 79.0011C1056.92 79.0011 1067 89.0746 1067 101.5C1067 113.927 1056.92 124 1044.49 124C1032.07 124 1022 113.927 1022 101.5ZM1052.82 111.798C1053.5 112.194 1054.38 111.989 1054.78 111.343C1055.2 110.697 1054.98 109.854 1054.31 109.458C1048.29 105.915 1040.81 105.09 1032.1 107.005C1031.33 107.173 1030.86 107.908 1031.03 108.646C1031.21 109.384 1031.97 109.846 1032.74 109.678C1040.7 107.929 1047.46 108.643 1052.82 111.798ZM1057.74 105.108C1057.24 105.987 1056.17 106.264 1055.36 105.724C1049.39 101.766 1040.29 100.621 1033.23 102.932C1032.31 103.23 1031.35 102.674 1031.07 101.688C1030.79 100.7 1031.31 99.6596 1032.22 99.3593C1040.29 96.7205 1050.31 97.9988 1057.17 102.541C1057.98 103.082 1058.24 104.231 1057.74 105.108V105.108ZM1031.71 96.2208C1038.62 94.205 1050.58 94.5849 1057.82 98.7167H1057.82C1058.82 99.2863 1060.11 98.97 1060.7 98.0107C1061.29 97.0527 1060.97 95.8138 1059.96 95.2445C1051.62 90.4901 1038.43 90.0429 1030.49 92.3573C1029.38 92.6816 1028.75 93.8086 1029.09 94.8757C1029.42 95.9422 1030.6 96.5442 1031.71 96.2208Z" fill="#1ED760"/>
<path d="M804.759 107.749C804.759 110.269 802.701 112.327 800.181 112.327C797.662 112.327 795.604 110.269 795.604 107.749C795.604 105.23 797.662 103.172 800.181 103.172H804.759V107.749Z" fill="#E01E5A"/>
<path d="M807.065 107.749C807.065 105.23 809.123 103.172 811.643 103.172C814.162 103.172 816.22 105.23 816.22 107.749V119.211C816.22 121.73 814.162 123.788 811.643 123.788C809.123 123.788 807.065 121.73 807.065 119.211V107.749Z" fill="#E01E5A"/>
<path d="M811.643 89.3677C809.123 89.3677 807.065 87.3097 807.065 84.7903C807.065 82.271 809.123 80.2129 811.643 80.2129C814.162 80.2129 816.22 82.271 816.22 84.7903V89.3677H811.643Z" fill="#36C5F0"/>
<path d="M811.643 91.6738C814.162 91.6738 816.22 93.7319 816.22 96.2512C816.22 98.7706 814.162 100.829 811.643 100.829H800.181C797.662 100.829 795.604 98.7706 795.604 96.2512C795.604 93.7319 797.662 91.6738 800.181 91.6738H811.643Z" fill="#36C5F0"/>
<path d="M830.023 96.2512C830.023 93.7319 832.081 91.6738 834.601 91.6738C837.12 91.6738 839.178 93.7319 839.178 96.2512C839.178 98.7706 837.12 100.829 834.601 100.829H830.023V96.2512Z" fill="#2EB67D"/>
<path d="M827.717 96.2516C827.717 98.771 825.659 100.829 823.139 100.829C820.62 100.829 818.562 98.771 818.562 96.2516V84.7903C818.562 82.271 820.62 80.2129 823.139 80.2129C825.659 80.2129 827.717 82.271 827.717 84.7903V96.2516Z" fill="#2EB67D"/>
<path d="M823.139 114.633C825.659 114.633 827.717 116.691 827.717 119.21C827.717 121.73 825.659 123.788 823.139 123.788C820.62 123.788 818.562 121.73 818.562 119.21V114.633H823.139Z" fill="#ECB22E"/>
<path d="M823.139 112.327C820.62 112.327 818.562 110.269 818.562 107.749C818.562 105.23 820.62 103.172 823.139 103.172H834.601C837.12 103.172 839.178 105.23 839.178 107.749C839.178 110.269 837.12 112.327 834.601 112.327H823.139Z" fill="#ECB22E"/>
<defs>
<filter id="filter0_d" x="0.5" y="0.5" width="1131" height="360" filterUnits="userSpaceOnUse" color-interpolation-filters="sRGB">
<feFlood flood-opacity="0" result="BackgroundImageFix"/>
<feColorMatrix in="SourceAlpha" type="matrix" values="0 0 0 0 0 0 0 0 0 0 0 0 0 0 0 0 0 0 127 0"/>
<feOffset dy="5"/>
<feGaussianBlur stdDeviation="5"/>
<feColorMatrix type="matrix" values="0 0 0 0 0 0 0 0 0 0 0 0 0 0 0 0 0 0 0.05 0"/>
<feBlend mode="normal" in2="BackgroundImageFix" result="effect1_dropShadow"/>
<feBlend mode="normal" in="SourceGraphic" in2="effect1_dropShadow" result="shape"/>
</filter>
</defs>
</svg>
