<?xml version="1.0" encoding="UTF-8"?>
<svg width="4493px" height="193px" viewBox="0 0 4493 193" version="1.1" xmlns="http://www.w3.org/2000/svg" xmlns:xlink="http://www.w3.org/1999/xlink">
    <!-- Generator: Sketch 43.2 (39069) - http://www.bohemiancoding.com/sketch -->
    <title>Group 3</title>
    <desc>Created with Sketch.</desc>
    <defs></defs>
    <g id="Page-1" stroke="none" stroke-width="1" fill="none" fill-rule="evenodd">
        <g id="Artboard-2" transform="translate(-363.000000, -153.000000)">
            <g id="Group-3" transform="translate(363.000000, 153.000000)">
                <g id="Group-2" transform="translate(0.000000, 7.000000)">
                    <path d="M231.5,94.36 C231.5,119.9 211.52,138.72 187,138.72 C162.48,138.72 142.5,119.9 142.5,94.36 C142.5,68.64 162.48,50 187,50 C211.52,50 231.5,68.64 231.5,94.36 Z M212.02,94.36 C212.02,78.4 200.44,67.48 187,67.48 C173.56,67.48 161.98,78.4 161.98,94.36 C161.98,110.16 173.56,121.24 187,121.24 C200.44,121.24 212.02,110.14 212.02,94.36 Z" id="Shape" fill="#EA4335"></path>
                    <path d="M327.5,94.36 C327.5,119.9 307.52,138.72 283,138.72 C258.48,138.72 238.5,119.9 238.5,94.36 C238.5,68.66 258.48,50 283,50 C307.52,50 327.5,68.64 327.5,94.36 Z M308.02,94.36 C308.02,78.4 296.44,67.48 283,67.48 C269.56,67.48 257.98,78.4 257.98,94.36 C257.98,110.16 269.56,121.24 283,121.24 C296.44,121.24 308.02,110.14 308.02,94.36 Z" id="Shape" fill="#FBBC05"></path>
                    <path d="M419.5,52.68 L419.5,132.32 C419.5,165.08 400.18,178.46 377.34,178.46 C355.84,178.46 342.9,164.08 338.02,152.32 L354.98,145.26 C358,152.48 365.4,161 377.32,161 C391.94,161 401,151.98 401,135 L401,128.62 L400.32,128.62 C395.96,134 387.56,138.7 376.96,138.7 C354.78,138.7 334.46,119.38 334.46,94.52 C334.46,69.48 354.78,50 376.96,50 C387.54,50 395.94,54.7 400.32,59.92 L401,59.92 L401,52.7 L419.5,52.7 L419.5,52.68 Z M402.38,94.52 C402.38,78.9 391.96,67.48 378.7,67.48 C365.26,67.48 354,78.9 354,94.52 C354,109.98 365.26,121.24 378.7,121.24 C391.96,121.24 402.38,109.98 402.38,94.52 Z" id="Shape" fill="#4285F4"></path>
                    <polygon id="Shape" fill="#34A853" points="450 6 450 136 431 136 431 6"></polygon>
                    <path d="M524.04,108.96 L539.16,119.04 C534.28,126.26 522.52,138.7 502.2,138.7 C477,138.7 458.18,119.22 458.18,94.34 C458.18,67.96 477.16,49.98 500.02,49.98 C523.04,49.98 534.3,68.3 537.98,78.2 L540,83.24 L480.7,107.8 C485.24,116.7 492.3,121.24 502.2,121.24 C512.12,121.24 519,116.36 524.04,108.96 Z M477.5,93 L517.14,76.54 C514.96,71 508.4,67.14 500.68,67.14 C490.78,67.14 477,75.88 477.5,93 L477.5,93 Z" id="Shape" fill="#EA4335"></path>
                    <path d="M70.58,82.82 L70.58,64 L134,64 C134.62,67.28 134.94,71.16 134.94,75.36 C134.94,89.48 131.08,106.94 118.64,119.38 C106.54,131.98 91.08,138.7 70.6,138.7 C32.64,138.7 0.72,107.78 0.72,69.82 C0.72,31.86 32.64,0.94 70.6,0.94 C91.6,0.94 106.56,9.18 117.8,19.92 L104.52,33.2 C96.46,25.64 85.54,19.76 70.58,19.76 C42.86,19.76 21.18,42.1 21.18,69.82 C21.18,97.54 42.86,119.88 70.58,119.88 C88.56,119.88 98.8,112.66 105.36,106.1 C110.68,100.78 114.18,93.18 115.56,82.8 L70.58,82.82 L70.58,82.82 Z" id="Shape" fill="#4285F4"></path>
                </g>
                <path d="M909.378797,144.071445 C889.817351,144.071445 871.659038,138.20518 859.538315,127.326024 C850.381086,119.106747 845.980845,107.942409 845.980845,96.4516866 C845.980845,85.1008432 850.570845,73.859518 859.537231,65.6836144 C870.793737,55.4246988 890.667471,49 909.378797,49 C930.085303,49 946.658315,54.2156626 959.327712,65.7118072 C968.341808,73.8920481 972.69976,85.0834938 972.69976,96.4527709 C972.69976,107.472891 968.075061,119.208674 959.327712,127.326024 C947.530122,138.275662 928.990122,144.071445 909.378797,144.071445 L909.378797,131.532168 C919.761327,131.532168 929.392411,127.947349 936.118556,121.254819 C942.798074,114.607831 945.910122,106.437349 945.910122,96.4516866 C945.910122,86.8856625 942.553013,77.9420481 936.118556,71.5986746 C929.482411,65.0622891 919.621447,61.3842168 909.378797,61.3842168 C899.1047,61.3842168 889.23723,65.0243373 882.595664,71.5986746 C876.195905,77.9398794 872.830122,86.9095179 872.830122,96.4516866 C872.830122,105.964578 876.234941,114.928795 882.595664,121.255903 C889.242652,127.868192 899.075423,131.533253 909.378797,131.533253 L909.378797,144.07253 L909.378797,144.071445 Z M766.40458,49.0455422 C755.940725,49.0455422 744.053135,51.0027711 733.952532,55.5136144 C724.630484,59.6731325 717.000002,66.4003614 717.000002,77.552771 C716.995665,87.5969878 723.379159,93.4795179 723.205665,93.3168673 C725.920846,95.8162649 730.291809,100.072289 741.719641,102.571687 C746.82687,103.688554 757.746147,105.403976 768.619882,106.540361 C779.413375,107.678915 790.035544,108.761084 794.36205,109.856265 C797.799399,110.731325 803.573496,111.923012 803.573496,118.400843 C803.573496,124.85265 797.490363,126.821807 796.433134,127.249036 C795.37699,127.666506 788.0794,131.014939 774.961086,131.014939 C765.275785,131.014939 753.632171,128.102409 749.388074,126.584337 C744.495544,124.842891 739.363376,122.539759 734.576026,116.691927 C733.385424,115.242168 731.507352,111.25506 731.507352,107.306988 L719.634942,107.306988 L719.634942,140.574457 L732.831327,140.574457 L732.831327,136.079879 C732.831327,135.568072 733.471086,133.463373 735.686388,134.464217 C738.442773,135.716626 746.534098,138.938192 754.994098,140.704578 C761.930604,142.155421 766.403496,143.195301 775.027231,143.195301 C789.097592,143.195301 796.656508,140.903012 801.88193,139.410963 C806.804821,138.001325 812.887954,135.470482 817.829279,131.53 C820.505423,129.399277 826.373857,123.93747 826.373857,114.023373 C826.373857,104.507229 821.266628,98.6008432 819.469881,96.8040962 C817.022532,94.3556625 814.033014,92.4580721 810.917713,90.995301 C808.203616,89.7179516 803.920484,88.1836143 800.415905,87.3259035 C793.613857,85.6560239 778.233616,83.595783 770.878556,82.8259035 C763.165665,82.0202408 749.786026,80.9120481 744.442412,79.2584336 C742.822412,78.7563854 739.51952,77.1830119 739.51952,73.3487951 C739.51952,70.6216867 741.030002,68.3098794 744.015183,66.4415662 C748.753737,63.4726505 758.325183,61.6271084 768.302171,61.6271084 C780.097592,61.5837349 790.086508,64.2804819 796.440725,67.1214457 C798.601809,68.0865059 801.130484,69.4722891 803.138677,71.1118071 C805.404942,72.959518 808.586387,76.7991565 809.736869,82.1546987 L820.395905,82.1546987 L820.395905,53.1963855 L808.494219,53.1963855 L808.494219,56.5621686 C808.494219,57.6486747 807.37193,59.0604819 805.249881,57.8937349 C799.923616,55.0993976 784.864339,49.0704819 766.402412,49.0455422 L766.40458,49.0455422 Z M1027.22458,54.3078313 L1085.28217,106.703012 L1084.68578,71.426265 C1084.62723,66.8004819 1083.77494,64.869277 1078.77181,64.869277 L1067.85578,64.869277 L1067.85578,54.316506 L1117.49675,54.316506 L1117.49675,64.869277 L1106.84855,64.869277 C1101.74566,64.869277 1101.42362,66.5012047 1101.36181,71.426265 L1102.26181,138.831927 L1085.26157,138.831927 L1018.39048,79.1499999 L1018.40458,121.506385 C1018.46313,126.110482 1018.67892,128.279156 1023.42289,128.279156 L1035.34518,128.279156 L1035.34518,138.82759 L986.593375,138.82759 L986.593375,128.280241 L997.98976,128.280241 C1002.24687,128.280241 1002.07771,124.221566 1002.07771,121.266747 L1002.07771,71.8274698 C1002.07771,68.636265 1001.62988,64.8768674 994.946025,64.8768674 L985.698796,64.8768674 L985.698796,54.3078313 L1027.22458,54.3078313 Z M1174.22169,128.259638 C1174.68795,128.259638 1176.75904,128.2 1177.16024,128.07747 C1178.30639,127.719638 1179.08386,126.902048 1179.44386,126.049759 C1179.59566,125.691927 1179.67157,124.108795 1179.67157,123.76506 L1179.68024,107.087952 C1179.68024,106.686747 1179.65096,106.513253 1178.97,105.619759 C1178.22181,104.643855 1148.55976,71.0293975 1147.20217,69.549277 C1145.51602,67.7113252 1142.55578,64.8703614 1138.05795,64.8703614 L1127.74265,64.8703614 L1127.74265,54.313253 L1185.95747,54.313253 L1185.95747,64.8573493 L1178.93964,64.8573493 C1177.31639,64.8573493 1176.23747,66.3971084 1177.62434,68.1081927 C1177.62434,68.1081927 1197.21072,91.5374697 1197.39614,91.7825299 C1197.57831,92.0319275 1197.73446,92.0915661 1197.98386,91.8638552 C1198.22892,91.6307227 1218.06145,68.3228915 1218.21759,68.1385541 C1219.16096,67.0086746 1218.5212,64.869277 1216.48807,64.869277 L1209.28916,64.869277 L1209.28916,54.313253 L1257,54.313253 L1257,64.869277 L1246.34096,64.869277 C1242.47422,64.869277 1240.90084,65.5849397 1237.99157,68.8737349 C1236.66108,70.3787951 1206.68241,104.597229 1205.86699,105.524337 C1205.43976,106.009036 1205.47663,106.684578 1205.47663,107.085783 L1205.47663,123.760723 C1205.47663,124.099036 1205.55253,125.684337 1205.70434,126.04 C1206.06542,126.896626 1206.84723,127.714217 1207.99229,128.067711 C1208.39349,128.191325 1210.43639,128.252048 1210.90157,128.252048 L1221.80458,128.252048 L1221.80458,138.806988 L1163.89012,138.806988 L1163.89012,128.250964 L1174.22386,128.259638 L1174.22169,128.259638 Z" id="path4258" fill="#000000"></path>
                <path d="M1791.56947,38.0747659 C1793.33418,38.1816767 1795.15749,38.2279825 1797.10444,38.2317078 C1799.06975,38.2359728 1800.77305,38.2218627 1802.27645,38.1814363 C1815.71689,36.7622898 1826,30.1793085 1826,30.1793085 C1785.5937,103.442134 1728.93512,64.778087 1694.99628,49.1769593 C1693.45137,48.4641823 1691.92894,47.8477906 1690.42947,47.3207257 C1690.0601,47.1930088 1689.69559,47.0696778 1689.3357,46.9506786 C1667.8175,39.954275 1651.12339,51.2722981 1640.69591,59.5689118 C1615.80274,79.3408995 1600.03443,79.2089102 1578.47618,72.6006491 C1569.45692,69.855273 1559.42574,65.9395923 1547.28273,61.9711159 C1509.53381,49.4937334 1494.23185,89.4072786 1494.23185,89.4072786 L1466.00376,157.32894 L1465.4934,158.560839 C1464.32309,160.795857 1461.8417,161.200624 1459.62428,159.361574 C1441.36577,142.299765 1431.84494,118.418513 1433.11204,91.4663107 C1435.46145,41.3016015 1477.43402,3.75506331 1526.92119,6.10447172 C1526.92119,6.10447172 1558.94178,8.74425646 1586.45713,25.6740759 C1641.47905,59.5069649 1651.915,44.213812 1679.72073,25.9641002 C1725.389,-3.95346008 1748.7599,32.2907843 1791.55081,38.0719129 L1791.55081,38.0722648 C1791.55703,38.0731 1791.56325,38.0739337 1791.56947,38.0747659 Z M1582.38307,133.78206 C1632.34539,164.473957 1653.0677,149.154406 1674.58195,135.022759 C1726.58571,100.969536 1756.0809,146.840195 1789.60617,151.363026 C1807.90868,153.844424 1824.01136,143.443672 1824.01136,143.443672 C1781.16766,221.21173 1726.41852,173.14125 1703.61958,162.626108 C1685.60745,154.337184 1675.88424,143.945231 1635.46914,163.497237 C1600.15762,180.62944 1553.40703,194.840281 1510.53693,181.966931 C1510.53693,181.966931 1510.37854,181.917655 1510.1934,181.817695 C1515.1474,168.134811 1522.81157,150.157877 1536.07209,150.36026 C1539.94378,150.374339 1561.10605,151.776944 1563.30587,151.442572 C1565.85766,151.108199 1567.51193,149.286748 1567.96949,147.315708 C1568.99901,142.731282 1567.12476,141.666569 1566.92238,140.17949 C1566.73724,138.718809 1568.20707,138.234849 1569.42137,137.249329 C1571.41881,135.63906 1571.60359,134.442358 1571.16363,133.096068 C1570.77646,131.925763 1568.07508,131.547394 1567.17755,131.045835 C1566.28003,130.527029 1566.53485,128.995602 1567.96949,128.810817 C1575.1937,127.851696 1574.80653,124.024008 1573.9882,122.668918 C1571.03164,117.310155 1574.90332,116.588614 1576.83037,116.245442 C1576.83037,116.245442 1579.41736,116.315836 1581.21241,115.990615 C1585.30408,115.251475 1583.50022,110.579056 1583.50022,110.579056 C1583.50022,110.579056 1579.47015,86.3282337 1578.47583,81.9989867 C1577.57831,78.0129118 1579.61094,76.8074101 1583.22745,78.3472845 C1583.57942,78.5056716 1583.88704,78.7168544 1584.22176,78.9723855 C1584.23584,78.9723855 1584.25696,79.0216615 1584.29216,79.0603783 C1631.50031,108.080412 1637.94138,106.082975 1677.16858,80.327475 C1727.72046,47.1893774 1755.34141,91.2121874 1790.17777,95.9022049 C1808.49788,98.3572047 1824.56536,87.9828507 1824.56536,87.9828507 C1787.08922,156.010103 1734.74229,123.399963 1692.43534,103.513584 C1652.469,84.8063098 1625.74558,139.335463 1583.46503,132.26084 C1582.19793,131.979263 1581.44999,133.211162 1582.38271,133.783116 L1582.38307,133.78206 Z" id="Combined-Shape" fill="#4665B9"></path>
                <g id="Toyota_carlogo" transform="translate(2003.000000, 5.000000)" fill="#FF0000">
                    <g id="Group">
                        <path d="M131.584104,173.527622 C116.860875,164.311125 106.018958,132.501044 106.018958,94.7104797 C106.018958,93.3236163 106.024813,91.9543081 106.059938,90.5908517 L106.0775,90.608407 C65.1334583,84.1773401 35.5465,66.5518866 34.7913125,45.7138256 L34.668375,45.9537471 C24.6460417,58.400407 18.9265208,72.7898459 18.9265208,88.1214157 C18.9265208,133.238363 68.4703333,170.203831 131.314813,173.474956 L131.584104,173.527622 Z M0,91.4159477 C0,40.9329506 62.8503333,0 140.382917,0 C217.9155,0 280.765833,40.9329506 280.765833,91.4159477 C280.765833,141.898945 217.9155,182.831895 140.382917,182.831895 C62.8503333,182.831895 0,141.898945 0,91.4159477 Z M140.382917,13.1898314 C155.352021,13.1898314 168.078979,35.8828953 172.797438,67.5525349 L172.815,67.5057209 C201.933625,62.9764709 222.323688,52.5194041 222.323688,40.3594797 C222.323688,24.0331134 185.635625,10.819875 140.382917,10.819875 C95.1302083,10.819875 58.4421458,24.0389651 58.4421458,40.3594797 C58.4421458,52.5194041 78.8263542,62.9706192 107.950833,67.5057209 L107.968396,67.5525349 C112.686854,35.8887471 125.419667,13.1898314 140.382917,13.1898314 Z M149.445167,173.474956 C212.289646,170.203831 261.839313,133.238363 261.839313,88.1214157 C261.839313,72.7898459 256.113938,58.400407 246.097458,45.9537471 L245.974521,45.7138256 C245.219333,66.5518866 215.638229,84.1773401 174.688333,90.608407 L174.705896,90.5908517 C174.735167,91.9543081 174.746875,93.3236163 174.746875,94.7104797 C174.746875,132.501044 163.89325,164.311125 149.181729,173.527622 L149.445167,173.474956 Z M140.382917,69.904936 C147.091792,69.904936 153.607479,69.6182006 159.842167,69.0681366 L159.836313,69.0739884 C156.733604,48.7742878 149.193438,34.449218 140.382917,34.449218 C131.572396,34.449218 124.038083,48.7742878 120.929521,69.0739884 L120.923667,69.0681366 C127.158354,69.6182006 133.674042,69.904936 140.382917,69.904936 Z M140.382917,145.076442 C151.652187,145.076442 160.843229,121.634355 161.334979,92.2351919 L161.393521,92.2527471 C154.602687,92.8788837 147.577687,93.2124331 140.382917,93.2124331 C133.188146,93.2124331 126.163146,92.8847355 119.372312,92.2527471 L119.436708,92.2351919 C119.922604,121.640206 129.113646,145.076442 140.382917,145.076442 Z" id="Shape"></path>
                    </g>
                </g>
                <g id="Nvidia_logo" transform="translate(2461.000000, 15.000000)">
                    <g id="svg2">
                        <path d="M578.514629,62.252253 L589.027161,90.7212831 L567.676742,90.7212831 L578.514629,62.252253 Z M567.256161,51.1672711 L543.030121,111.928958 L560.13704,111.928958 L563.968887,101.19256 L592.638798,101.19256 L596.265315,111.928958 L614.836331,111.928958 L590.429758,51.1594157 L567.256161,51.1672711 Z M518.618589,111.951542 L535.974484,111.951542 L535.974484,51.1486145 L518.615613,51.1446867 L518.618589,111.951542 Z M398.131161,51.1446867 L383.650887,99.3357349 L369.779661,51.1486145 L351.052911,51.1446867 L370.863847,111.951542 L395.867565,111.951542 L415.838202,51.1446867 L398.131161,51.1446867 L398.131161,51.1446867 Z M468.285798,64.385 L475.745153,64.385 C486.567169,64.385 493.566266,69.1944819 493.566266,81.6757651 C493.566266,94.159994 486.567169,98.9704578 475.745153,98.9704578 L468.285798,98.9704578 L468.285798,64.385 Z M451.075718,51.1446867 L451.075718,111.951542 L479.21296,111.951542 C494.204081,111.951542 499.099282,109.48494 504.39225,103.950795 C508.130855,100.065307 510.549194,91.538247 510.549194,82.2168072 C510.549194,73.6671627 508.502831,66.0464217 504.934839,61.2978193 C498.506105,52.8051265 489.245395,51.1446867 475.424758,51.1446867 L451.075718,51.1446867 L451.075718,51.1446867 Z M286.669355,51.060241 L286.669355,111.951542 L304.172056,111.951542 L304.172056,65.716494 L317.733798,65.7204217 C322.22429,65.7204217 325.425266,66.8280361 327.587685,69.1149458 C330.330387,72.0067229 331.450282,76.6748072 331.450282,85.2136506 L331.450282,111.951542 L348.410395,111.951542 L348.410395,78.3087349 C348.410395,54.2976566 332.950089,51.060241 317.823073,51.060241 L286.669355,51.060241 L286.669355,51.060241 Z M423.142815,51.1446867 L423.149758,111.951542 L440.497718,111.951542 L440.497718,51.1446867 L423.142815,51.1446867 L423.142815,51.1446867 Z" id="path19" fill="#000000"></path>
                        <path d="M25.999621,70.1233855 C25.999621,70.1233855 48.3221371,37.5204398 92.8927742,34.1475181 L92.8927742,22.3192169 C43.5251371,26.2439819 0.774701613,67.6341988 0.774701613,67.6341988 C0.774701613,67.6341988 24.9878468,136.923928 92.8927742,143.268163 L92.8927742,130.69556 C43.0609113,124.489777 25.999621,70.1233855 25.999621,70.1233855 Z M92.8927742,105.691753 L92.8927742,117.205837 C55.2309677,110.559169 44.7769597,71.8044458 44.7769597,71.8044458 C44.7769597,71.8044458 62.8599435,51.9744157 92.8927742,48.7586024 L92.8927742,61.3930663 C92.8699597,61.3930663 92.8540887,61.3861928 92.8352419,61.3861928 C77.0723952,59.5136566 64.7585081,74.0903735 64.7585081,74.0903735 C64.7585081,74.0903735 71.6603952,98.6297289 92.8927742,105.691753 L92.8927742,105.691753 Z M92.8927742,0.502746988 L92.8927742,22.3192169 C94.3419919,22.209241 95.7912097,22.1159578 97.2483629,22.0668614 C153.374056,20.1943253 189.943742,67.6341988 189.943742,67.6341988 C189.943742,67.6341988 147.942218,118.191693 104.183976,118.191693 C100.173581,118.191693 96.4191048,117.82347 92.8927742,117.204855 L92.8927742,130.69556 C95.9082581,131.074584 99.0348387,131.297482 102.297315,131.297482 C143.017258,131.297482 172.464847,110.711367 200.979024,86.3467952 C205.706589,90.0948133 225.061234,99.212994 229.039887,103.20453 C201.928306,125.673982 138.743008,143.78662 102.921242,143.78662 C99.4683145,143.78662 96.1522742,143.579434 92.8927742,143.268163 L92.8927742,162.225259 L247.666452,162.225259 L247.666452,0.502746988 L92.8927742,0.502746988 Z M92.8927742,48.7586024 L92.8927742,34.1485 C94.3271129,34.0493253 95.7723629,33.9727349 97.2483629,33.9265843 C137.608234,32.6716807 164.08696,68.2596867 164.08696,68.2596867 C164.08696,68.2596867 135.487476,107.579018 104.822782,107.579018 C100.409661,107.579018 96.4528306,106.87694 92.8917823,105.691753 L92.8917823,61.3930663 C108.60404,63.2724759 111.766331,70.1430241 121.212532,85.7311265 L142.221726,68.1948795 C142.221726,68.1948795 126.885411,48.2843313 101.032597,48.2843313 C98.2224435,48.2833494 95.5333065,48.478753 92.8927742,48.7586024 L92.8927742,48.7586024 Z" id="path21" fill="#77B900"></path>
                    </g>
                </g>
                <g id="Samsung_Logo" transform="translate(3252.000000, 57.000000)" fill="#034EA2">
                    <polygon id="Shape" points="430.297703 60.7543176 429.27955 2.6568536 447.669457 2.6568536 447.669457 75.8821456 421.229032 75.8821456 402.878587 15.7875567 402.483954 15.7875567 403.502108 75.8821456 385.23059 75.8821456 385.23059 2.6568536 412.815452 2.6568536 429.887285 60.7543176"></polygon>
                    <polygon id="Shape" points="96.0196909 9.5131249 85.8460465 76.6526898 65.7907865 76.6526898 79.5634857 2.6568536 112.602179 2.6568536 126.311737 76.6526898 106.335403 76.6526898 96.4380021 9.5131249"></polygon>
                    <polygon id="Shape" points="182.641682 59.2210918 191.820851 2.6568536 222.112896 2.6568536 223.723 76.6526898 205.159453 76.6526898 204.670108 10.1264152 204.283367 10.1264152 191.868206 76.6526898 173.020524 76.6526898 160.59747 10.1264152 160.194945 10.1264152 159.729277 76.6526898 141.126268 76.6526898 142.767942 2.6568536 173.075773 2.6568536 182.247049 59.2210918"></polygon>
                    <path d="M34.5121577,55.7772308 C35.2382828,57.5699256 35.0172882,59.8736956 34.6779037,61.2653929 C34.0543832,63.7264169 32.3811383,66.234617 27.4403305,66.234617 C22.7836585,66.234617 19.9580847,63.5770256 19.9580847,59.5120116 L19.9580847,52.3490951 L0.0369999176,52.3490951 L0.0212145889,58.0810008 C0.0212145889,74.576938 13.0598961,79.5540248 27.0299119,79.5540248 C40.4632266,79.5540248 51.528742,74.9779355 53.2888062,62.6492275 C54.1885699,56.2568553 53.5176934,52.0739007 53.2098795,50.4934988 C50.0764918,35.0039868 21.8838948,30.3807213 19.7844461,21.7160298 C19.4292762,20.2299801 19.5318808,18.6574409 19.7055194,17.8161323 C20.2185426,15.4573234 21.8444315,12.8547709 26.4932108,12.8547709 C30.8341761,12.8547709 33.399292,15.5280877 33.399292,19.5695136 L33.399292,24.1377403 L51.9233752,24.1377403 L51.9233752,18.9404979 C51.9233752,2.82197022 37.4008729,0.305907361 26.8799513,0.305907361 C13.6676312,0.305907361 2.87046641,4.65397849 0.89730033,16.6996294 C0.360599155,20.02555 0.281672512,22.9897866 1.06304628,26.7009793 C4.30693132,41.8209446 30.6921082,46.2004665 34.5121577,55.7772308 Z" id="Shape"></path>
                    <path d="M276.043472,55.6435649 C276.777489,57.4205343 276.540709,59.6614028 276.209218,61.0531001 C275.601482,63.5062614 273.944023,65.9751481 269.034786,65.9751481 C264.441255,65.9751481 261.639359,63.3175567 261.639359,59.346895 L261.623574,52.2468801 L241.907698,52.2468801 L241.88402,57.9001588 C241.88402,74.2309793 254.804312,79.16089 268.63226,79.16089 C281.923507,79.16089 292.886417,74.6477022 294.614911,62.429072 C295.514674,56.0838759 294.875369,51.9559603 294.551769,50.4070091 C291.434167,35.0590256 263.525706,30.4829363 261.449935,21.9047345 C261.094765,20.4265476 261.19737,18.8697337 261.378901,18.0756013 C261.90771,15.701067 263.502028,13.161416 268.103451,13.161416 C272.404953,13.161416 274.914821,15.7718313 274.914821,19.7818065 L274.914821,24.3028569 L293.296836,24.3028569 L293.296836,19.1606534 C293.296836,3.21510505 278.892723,0.714767577 268.474406,0.714767577 C255.412047,0.714767577 244.701702,5.00779983 242.767999,16.9669611 C242.231298,20.2457055 242.176049,23.1549032 242.941637,26.8503706 C246.138166,41.8130819 272.262885,46.161153 276.043472,55.6435649 Z" id="Shape"></path>
                    <path d="M338.434983,65.5820132 C343.588893,65.5820132 345.198996,62.0280744 345.554166,60.2117916 C345.704127,59.4097965 345.74359,58.3404698 345.727805,57.3812208 L345.727805,2.62540281 L364.512346,2.62540281 L364.512346,55.7064665 C364.551809,57.066713 364.417634,59.8658329 364.354493,60.5656129 C363.036418,74.3803706 352.073507,78.8621075 338.42709,78.8621075 C324.764889,78.8621075 313.794085,74.3803706 312.491795,60.5656129 C312.428654,59.8658329 312.294479,57.066713 312.333942,55.7064665 L312.333942,2.62540281 L331.102698,2.62540281 L331.102698,57.3812208 C331.102698,58.3404698 331.134269,59.4176592 331.276337,60.2117916 C331.678862,62.0280744 333.24161,65.5820132 338.434983,65.5820132 Z" id="Shape"></path>
                    <path d="M493.383769,64.8036063 C498.766566,64.8036063 500.64502,61.4147841 500.992298,59.4412473 C501.126473,58.5920761 501.165936,57.5620629 501.158044,56.626402 L501.158044,45.8859586 L493.53373,45.8859586 L493.53373,35.0826137 L519.871551,35.0826137 L519.871551,54.9437849 C519.855765,56.3276195 519.824195,57.3497701 519.6032,59.8186567 C518.364052,73.2795931 506.643445,78.0837006 493.478481,78.0837006 C480.289839,78.0837006 468.585018,73.2795931 467.330084,59.8186567 C467.116982,57.3497701 467.085412,56.3276195 467.061734,54.9437849 L467.077519,23.7839189 C467.077519,22.4708486 467.243265,20.1434905 467.385333,18.9090471 C469.0349,5.0785641 480.289839,0.628277916 493.478481,0.628277916 C506.651338,0.628277916 518.182521,5.05497601 519.547952,18.9090471 C519.792624,21.2678561 519.713697,23.7839189 519.713697,23.7839189 L519.713697,26.2528056 L500.984405,26.2528056 L500.984405,22.1091646 C501.00019,22.1170273 500.960727,20.3479206 500.739732,19.2943193 C500.424026,17.6588784 498.995454,13.9005095 493.336413,13.9005095 C487.922046,13.9005095 486.33562,17.4544483 485.940987,19.2943193 C485.7121,20.2692936 485.62528,21.5902266 485.62528,22.7853565 L485.62528,56.626402 C485.609495,57.5620629 485.664744,58.5920761 485.814704,59.4412473 C486.138303,61.4226468 488.008865,64.8036063 493.383769,64.8036063 Z" id="Shape"></path>
                </g>
                <g id="capital-one-logo-(1)" transform="translate(3949.000000, 0.000000)">
                    <path d="M369.002512,139.582581 C345.788389,155.833028 318.365112,172.83931 288.901033,190.727399 L287.753082,191.357261 C287.370432,191.609206 287.242882,192.113096 287.497982,192.616985 C287.753082,192.994903 288.263283,193.120875 288.773483,192.86893 L289.793884,192.365041 C314.793709,179.51585 343.620037,164.14721 372.446365,148.400653 C372.573915,148.27468 372.701465,148.27468 372.956566,148.148708 C371.298414,145.503286 369.895363,142.60592 369.002512,139.582581 L369.002512,139.582581 Z M521.042261,18.0191586 C484.562925,-21.7881381 249.743145,13.98804 149.871397,35.5293303 L147.575495,36.0332201 C147.065294,36.1591926 146.810194,36.53711 146.810194,37.0409998 C146.937744,37.5448896 147.320394,37.7968346 147.830595,37.7968346 L150.126497,37.2929447 C232.778978,22.8061121 404.844097,2.65051877 441.961183,38.9305867 C453.313144,50.016163 450.507042,64.2510507 437.496929,81.0053877 C444.512186,85.5403962 449.614191,92.5948538 451.910093,101.412926 C502.930143,67.7782796 537.241127,35.7812752 521.042261,18.0191586 Z" id="Shape" fill="#A12830"></path>
                    <g id="Group" transform="translate(0.000000, 79.493718)" fill="#003A6F">
                        <path d="M383.798326,49.6331485 C384.308527,63.6160913 393.237035,75.079585 404.971647,75.079585 C427.675569,75.079585 437.241829,47.6175891 436.604078,29.2256103 C436.093877,15.2426674 426.910268,3.77917374 415.303207,3.77917374 C395.660488,3.77917374 383.160576,31.1151971 383.798326,49.6331485 L383.798326,49.6331485 Z M371.808614,48.8773137 C370.915764,24.9425467 389.920732,0.62986229 417.471559,0.62986229 C435.838777,0.62986229 447.956039,12.7232183 448.59379,31.2411696 C449.486641,56.4356612 431.757173,79.488621 402.930845,79.488621 C384.563627,79.488621 372.446365,67.395265 371.808614,48.8773137 Z M111.223709,42.5786908 C110.203308,42.9566082 108.927807,43.3345256 107.397205,43.5864705 C105.866604,43.9643879 102.932951,44.4682777 98.8513469,45.09814 C96.0452441,45.6020298 94.0044421,46.1059196 92.856491,46.9877268 C91.7085399,47.7435616 91.0707893,48.7513413 90.9432391,49.8850934 C90.6881389,51.144818 91.0707893,52.1525976 92.2187404,52.9084324 C93.3666915,53.6642671 95.1523933,54.0421845 97.7033958,54.0421845 C99.6166476,54.0421845 101.5299,53.7902396 103.443151,53.1603773 C105.356403,52.530515 106.887005,51.7746802 108.162506,50.7669006 C109.055357,50.0110658 109.693108,49.0032862 110.203308,47.8695341 C110.330858,46.9877268 110.713509,45.2241124 111.223709,42.5786908 L111.223709,42.5786908 Z M135.203133,27.8399132 C135.075582,29.981445 134.692932,31.9970043 134.182732,35.2722882 L130.101128,57.6953858 C129.718477,59.7109451 130.483778,61.2226146 132.39703,62.3563667 L132.26948,63.2381739 L109.055357,63.2381739 L108.800257,57.5694133 C105.483953,59.5849726 101.402349,61.2226146 97.7033958,62.2303943 C94.0044421,63.1122015 91.0707893,63.6160913 86.6065349,63.6160913 C79.0810775,63.6160913 74.8719234,62.8602566 71.9382705,60.3408074 C68.8770675,57.6953858 67.4740161,55.9317714 67.6015663,52.2785701 C67.7291164,50.1370383 68.7495174,47.4916167 70.407669,45.6020298 C72.0658206,43.7124429 74.2341728,42.4527184 76.530075,41.3189662 C78.9535274,40.1852141 81.7596301,39.4293794 85.8412341,38.7995171 C89.9228381,38.1696548 95.6625938,37.5397925 103.315601,36.9099302 C107.269655,36.5320128 109.820658,35.6502056 110.968609,35.2722882 C112.62676,34.642426 113.136961,34.0125637 113.392061,32.7528391 C113.774712,30.4853348 113.136961,29.0996378 109.948208,28.4697755 C101.65745,26.8321336 85.9687843,29.4775552 77.9331264,31.4931145 L82.2698306,19.7776759 C92.856491,18.2660064 102.932951,17.2582267 113.392061,17.2582267 C129.973577,17.1322543 135.330683,21.7932352 135.203133,27.8399132 L135.203133,27.8399132 Z M202.294498,63.2381739 L210.330156,18.3919789 L232.523878,18.3919789 L224.48822,63.2381739 L202.294498,63.2381739 Z M211.605657,8.06223731 C212.243408,4.40903603 218.110714,1.38569704 224.74332,1.38569704 C231.375927,1.38569704 236.095281,4.40903603 235.457531,8.06223731 C234.81978,11.7154386 228.824924,14.7387776 222.319868,14.7387776 C215.687261,14.7387776 210.840357,11.7154386 211.605657,8.06223731 Z M311.349855,42.7046633 C310.329454,43.0825806 309.053953,43.460498 307.523351,43.7124429 C305.99275,44.0903603 303.059097,44.5942501 298.849943,45.2241124 C296.04384,45.7280023 294.003038,46.2318921 292.855087,47.1136993 C291.834686,47.8695341 291.196935,48.8773137 290.941835,50.0110658 C290.686735,51.2707904 291.196935,52.2785701 292.217336,53.0344048 C293.365288,53.7902396 295.150989,54.168157 297.829542,54.168157 C299.742794,54.168157 301.656046,53.916212 303.569298,53.2863497 C305.482549,52.6564875 307.013151,51.9006527 308.288652,50.892873 C309.181503,50.1370383 309.819254,49.1292586 310.201904,47.9955065 C310.457004,47.1136993 310.839655,45.3500849 311.349855,42.7046633 Z M335.201729,27.9658857 C335.074178,30.1074175 334.691528,32.1229768 334.053777,35.3982607 L330.099724,57.8213582 C329.717073,59.8369176 330.482374,61.3485871 332.395626,62.4823392 L332.268076,63.2381739 L309.053953,63.2381739 L308.926403,57.5694133 C305.482549,59.5849726 301.400945,61.2226146 297.829542,62.2303943 C294.130588,63.2381739 291.196935,63.6160913 286.732681,63.6160913 C279.207224,63.6160913 274.99807,62.8602566 272.064417,60.3408074 C269.003214,57.6953858 267.600162,55.9317714 267.727712,52.2785701 C267.855263,50.1370383 268.875664,47.4916167 270.533815,45.6020298 C272.191967,43.7124429 274.360319,42.4527184 276.656221,41.3189662 C279.079674,40.1852141 281.885776,39.4293794 285.96738,38.6735446 C290.048984,38.0436823 295.78874,37.41382 303.441747,36.7839577 C307.395801,36.4060404 309.819254,35.5242332 310.967205,35.1463158 C312.625356,34.5164535 313.263107,33.8865912 313.518207,32.5008942 C313.900858,30.2333899 313.135557,28.8476929 310.074354,28.2178306 C301.656046,26.5801886 286.09493,29.2256103 278.059273,31.2411696 L282.395977,19.525731 C293.110187,18.0140615 302.931547,17.0062818 313.518207,17.0062818 C329.972173,17.2582267 335.329279,21.9192077 335.201729,27.9658857 L335.201729,27.9658857 Z M64.5403633,47.1136993 C57.2700061,48.4993963 53.3159523,49.1292586 46.1731453,49.1292586 C35.5864849,49.1292586 27.1681766,43.9643879 27.550827,34.390481 C27.9334774,28.0918581 35.4589348,14.6128051 54.8465538,14.6128051 C60.9689598,14.6128051 65.6883144,15.6205848 72.0658206,19.2737861 L74.8719234,3.77917374 C66.1985149,0.503889832 60.4587593,-3.09613446e-14 52.9333019,0.125972458 C27.550827,0.377917374 3.18875313,11.7154386 0.25510025,34.8943709 C-2.80610275,58.4512205 26.2753258,64.3719261 39.1578884,64.2459536 C46.5557956,64.2459536 54.3363533,63.8680362 61.6067104,63.2381739 L64.5403633,47.1136993 Z M244.76869,18.140034 L246.299291,9.07001698 L269.513414,4.03111866 L267.089962,18.140034 L278.441923,18.140034 L276.273571,27.2100509 L265.30426,27.2100509 L258.671654,63.2381739 C258.671654,63.2381739 236.350382,63.1122015 236.222832,63.2381739 L242.855438,27.3360234 L234.43713,27.3360234 L236.095281,18.2660064 L244.76869,18.2660064 L244.76869,18.140034 Z M357.778101,63.2381739 L335.074178,63.2381739 L346.42614,0.755834748 L368.492311,1.38569704 L357.778101,63.2381739 Z M172.95797,28.9736653 C170.024317,28.9736653 167.473314,29.8554726 165.049862,31.619087 C162.75396,33.3827014 161.223358,35.9021505 160.713158,39.3034069 C160.075407,43.2085531 160.458057,45.9799472 161.988659,47.7435616 C163.51926,49.507176 165.815163,50.3889832 168.876366,50.3889832 C170.917168,50.3889832 172.95797,50.0110658 174.488571,49.2552311 C176.401823,48.2474514 177.677324,47.2396718 178.825275,45.6020298 C180.100777,43.8384154 180.866077,41.9488285 181.248728,39.6813243 C181.886478,36.1540955 181.376278,33.5086738 179.718126,31.7450594 C178.059975,29.8554726 175.891622,28.9736653 172.95797,28.9736653 L172.95797,28.9736653 Z M132.52458,78.7327863 L143.366341,18.6439238 L162.88151,18.6439238 L161.350908,26.3282437 C163.00906,24.0607395 165.687612,22.1711526 169.514116,20.6594831 C173.21307,19.1478136 177.549774,18.0140615 182.141579,18.0140615 C187.243584,18.0140615 190.304787,18.2660064 194.13129,20.2815657 C197.957794,22.2971251 200.508797,25.0685191 202.039398,28.8476929 C203.442449,32.5008942 203.8251,36.5320128 203.059799,41.0670213 C201.784298,48.4993963 198.085344,54.2941294 192.090488,58.577193 C186.095632,62.8602566 180.738527,63.9940087 173.21307,63.9940087 C170.534517,63.9940087 168.238615,63.7420638 166.325363,63.2381739 C164.539661,62.7342841 163.00906,62.2303943 161.861109,61.4745595 C160.840708,60.7187248 159.692757,59.8369176 158.162155,58.1992756 L154.590752,78.7327863 L132.52458,78.7327863 L132.52458,78.7327863 Z M535.327875,34.5164535 C535.200325,30.8632522 533.414623,28.4697755 529.588119,28.4697755 C520.53206,28.4697755 510.838251,46.1059196 509.180099,53.1603773 C523.975914,53.1603773 535.582975,44.3423052 535.327875,34.5164535 L535.327875,34.5164535 Z M537.241127,62.1044218 L539.026828,63.2381739 C534.562574,72.1822184 525.506515,79.3626486 514.919855,79.3626486 C506.246446,79.3626486 499.103639,73.6938879 498.720989,62.986229 C498.083238,43.8384154 516.195356,25.9503264 531.118721,25.9503264 C537.496227,25.9503264 543.491083,28.7217204 543.746183,35.5242332 C544.256383,50.7669006 522.572862,55.4278815 508.287248,55.8057989 C507.777048,57.4434409 507.649498,58.9551104 507.777048,61.4745595 C508.032148,67.7731824 511.858652,73.1899981 519.89431,73.1899981 C526.782016,72.9380532 533.669723,67.5212375 537.241127,62.1044218 Z" id="Shape"></path>
                        <path d="M448.211139,34.0125637 C449.741741,33.7606188 452.292743,33.5086738 453.313144,33.5086738 C454.971296,33.5086738 456.501897,33.7606188 456.501897,35.3982607 C456.501897,36.4060404 454.843746,43.2085531 454.461095,44.7202226 L451.017242,59.8369176 C449.614191,66.009568 448.083589,72.4341634 446.808088,77.5990341 L455.736597,77.5990341 L460.711052,53.7902396 C476.017067,38.1696548 481.884372,33.004784 485.455776,33.004784 C487.113927,33.004784 488.134328,33.8865912 488.261879,35.7761781 C488.389429,38.5475722 486.603727,44.8461951 485.965976,46.6098095 L480.863971,63.9940087 C479.71602,67.8991549 478.823169,71.4263837 478.950719,73.9458329 C479.07827,77.7250066 481.501722,79.488621 484.945575,79.488621 C491.450632,79.488621 496.169986,72.8120807 500.25159,66.2615129 L499.103639,64.1199811 C497.445488,66.7654028 493.618984,72.5601358 490.557781,72.5601358 C489.53738,72.5601358 488.644529,71.9302735 488.644529,70.2926316 C488.516979,68.2770723 489.40983,65.2537333 490.04758,63.2381739 L495.659786,42.8306357 C497.190387,37.1618751 497.955688,33.6346463 497.828138,31.619087 C497.700588,27.8399132 495.404686,26.0762988 491.960832,26.0762988 C486.093526,26.0762988 478.312969,30.2333899 461.859003,49.0032862 L461.603902,49.0032862 L463.644704,39.9332692 C464.792656,34.8943709 465.813057,29.7295001 466.961008,26.2022713 C461.221252,28.2178306 453.185594,30.4853348 448.083589,31.4931145 L448.211139,34.0125637 L448.211139,34.0125637 Z" id="Shape"></path>
                    </g>
                </g>
            </g>
        </g>
    </g>
</svg>