<svg width="496" height="78" viewBox="0 0 496 78" fill="none" xmlns="http://www.w3.org/2000/svg">
<path d="M6.53267 59.3326H4.50639L0.287642 75.0059H2.31392L6.53267 59.3326ZM11.1363 73.0371H13.5078V68.6138H16.0135C19.0369 68.6138 20.6605 66.7985 20.6605 64.28C20.6605 61.7807 19.0561 59.9462 16.0454 59.9462H11.1363V73.0371ZM13.5078 66.6642V61.9277H15.6811C17.4581 61.9277 18.2443 62.8865 18.2443 64.28C18.2443 65.6735 17.4581 66.6642 15.6939 66.6642H13.5078ZM21.8981 73.0371H24.212V67.2651C24.212 66.0186 25.1516 65.1365 26.4236 65.1365C26.8135 65.1365 27.2993 65.2069 27.4975 65.2708V63.1422C27.2866 63.1039 26.9222 63.0783 26.6665 63.0783C25.5415 63.0783 24.6019 63.7175 24.2439 64.8553H24.1417V63.2189H21.8981V73.0371ZM32.1932 73.2289C35.0696 73.2289 36.8977 71.2026 36.8977 68.1664C36.8977 65.1238 35.0696 63.0911 32.1932 63.0911C29.3167 63.0911 27.4886 65.1238 27.4886 68.1664C27.4886 71.2026 29.3167 73.2289 32.1932 73.2289ZM32.2059 71.3752C30.6143 71.3752 29.8345 69.9561 29.8345 68.16C29.8345 66.3638 30.6143 64.9256 32.2059 64.9256C33.772 64.9256 34.5518 66.3638 34.5518 68.16C34.5518 69.9561 33.772 71.3752 32.2059 71.3752ZM38.1417 63.2189V73.5676C38.1417 74.3922 37.7901 74.8333 36.9016 74.8333C36.7865 74.8333 36.6971 74.8269 36.5692 74.8205V76.7061C36.7354 76.7189 36.876 76.7189 37.0422 76.7189C39.2091 76.7189 40.4556 75.7218 40.4556 73.5996V63.2189H38.1417ZM39.2922 61.8255C40.0273 61.8255 40.6282 61.263 40.6282 60.5726C40.6282 59.8759 40.0273 59.3134 39.2922 59.3134C38.5507 59.3134 37.9499 59.8759 37.9499 60.5726C37.9499 61.263 38.5507 61.8255 39.2922 61.8255ZM46.4616 73.2289C48.75 73.2289 50.3224 72.1103 50.7315 70.4036L48.571 70.1607C48.2578 70.9917 47.4907 71.4263 46.4936 71.4263C44.9978 71.4263 44.0071 70.4419 43.9879 68.7608H50.8274V68.0513C50.8274 64.606 48.7563 63.0911 46.3402 63.0911C43.5277 63.0911 41.6931 65.1557 41.6931 68.1855C41.6931 71.2665 43.5021 73.2289 46.4616 73.2289ZM43.9943 67.2012C44.0646 65.9483 44.9914 64.8936 46.3721 64.8936C47.7017 64.8936 48.5965 65.8652 48.6093 67.2012H43.9943ZM56.3476 73.2289C58.8149 73.2289 60.3874 71.7651 60.5536 69.6813H58.3419C58.1438 70.736 57.3831 71.3432 56.3668 71.3432C54.9222 71.3432 53.9889 70.1351 53.9889 68.128C53.9889 66.1465 54.9414 64.9576 56.3668 64.9576C57.479 64.9576 58.1629 65.6735 58.3419 66.6195H60.5536C60.3938 64.4909 58.7318 63.0911 56.3348 63.0911C53.4584 63.0911 51.6431 65.1685 51.6431 68.1664C51.6431 71.1387 53.4137 73.2289 56.3476 73.2289ZM66.6363 63.2189H64.6995V60.8667H62.3856V63.2189H60.9921V65.0087H62.3856V70.4675C62.3728 72.3148 63.7151 73.2225 65.4538 73.1713C66.1122 73.1522 66.566 73.0243 66.8153 72.9412L66.4254 71.1323C66.2975 71.1642 66.0355 71.2218 65.7478 71.2218C65.1661 71.2218 64.6995 71.0172 64.6995 70.084V65.0087H66.6363V63.2189ZM75.4708 65.8141C75.1512 64.1522 73.8217 63.0911 71.5205 63.0911C69.1555 63.0911 67.5447 64.2544 67.5511 66.0698C67.5447 67.5016 68.4268 68.4476 70.3124 68.8375L71.9871 69.1891C72.8884 69.3873 73.3103 69.7516 73.3103 70.3077C73.3103 70.9789 72.5816 71.4838 71.4822 71.4838C70.4211 71.4838 69.7308 71.0236 69.5326 70.1415L67.2762 70.3588C67.5639 72.1614 69.0788 73.2289 71.4886 73.2289C73.9431 73.2289 75.6754 71.9569 75.6818 70.0968C75.6754 68.6969 74.7741 67.8404 72.9204 67.4377L71.2457 67.0797C70.2485 66.856 69.8522 66.5108 69.8586 65.9419C69.8522 65.2772 70.5873 64.8169 71.5525 64.8169C72.62 64.8169 73.1825 65.3986 73.3614 66.0442L75.4708 65.8141Z" fill="white"/>
<path d="M103.533 59.3326H101.506L97.2876 75.0059H99.3139L103.533 59.3326ZM110.891 73.0371H113.231L115.858 63.8517H115.96L118.581 73.0371H120.92L124.615 59.9462H122.065L119.706 69.5726H119.591L117.066 59.9462H114.746L112.227 69.5662H112.106L109.747 59.9462H107.197L110.891 73.0371ZM128.782 73.2289C131.07 73.2289 132.643 72.1103 133.052 70.4036L130.891 70.1607C130.578 70.9917 129.811 71.4263 128.814 71.4263C127.318 71.4263 126.327 70.4419 126.308 68.7608H133.148V68.0513C133.148 64.606 131.077 63.0911 128.66 63.0911C125.848 63.0911 124.013 65.1557 124.013 68.1855C124.013 71.2665 125.822 73.2289 128.782 73.2289ZM126.314 67.2012C126.385 65.9483 127.312 64.8936 128.692 64.8936C130.022 64.8936 130.917 65.8652 130.929 67.2012H126.314ZM142.145 65.8141C141.825 64.1522 140.496 63.0911 138.195 63.0911C135.83 63.0911 134.219 64.2544 134.225 66.0698C134.219 67.5016 135.101 68.4476 136.987 68.8375L138.661 69.1891C139.563 69.3873 139.985 69.7516 139.985 70.3077C139.985 70.9789 139.256 71.4838 138.156 71.4838C137.095 71.4838 136.405 71.0236 136.207 70.1415L133.95 70.3588C134.238 72.1614 135.753 73.2289 138.163 73.2289C140.617 73.2289 142.35 71.9569 142.356 70.0968C142.35 68.6969 141.448 67.8404 139.595 67.4377L137.92 67.0797C136.923 66.856 136.526 66.5108 136.533 65.9419C136.526 65.2772 137.262 64.8169 138.227 64.8169C139.294 64.8169 139.857 65.3986 140.036 66.0442L142.145 65.8141ZM145.858 59.9462H143.544V73.0371H145.858V59.9462ZM151.864 73.2289C154.152 73.2289 155.725 72.1103 156.134 70.4036L153.973 70.1607C153.66 70.9917 152.893 71.4263 151.896 71.4263C150.4 71.4263 149.409 70.4419 149.39 68.7608H156.23V68.0513C156.23 64.606 154.159 63.0911 151.743 63.0911C148.93 63.0911 147.095 65.1557 147.095 68.1855C147.095 71.2665 148.904 73.2289 151.864 73.2289ZM149.397 67.2012C149.467 65.9483 150.394 64.8936 151.774 64.8936C153.104 64.8936 153.999 65.8652 154.012 67.2012H149.397ZM158.624 76.7189C160.427 76.7189 161.469 75.7921 162.025 74.226L165.969 63.2317L163.495 63.2189L161.226 70.6337H161.124L158.861 63.2189H156.406L159.967 73.2417L159.768 73.7722C159.34 74.8908 158.663 74.9675 157.653 74.6735L157.116 76.476C157.429 76.6039 157.991 76.7189 158.624 76.7189ZM170.702 73.0371H173.073V67.476H179.139V73.0371H181.517V59.9462H179.139V65.4881H173.073V59.9462H170.702V73.0371ZM186.099 73.2353C187.64 73.2353 188.56 72.513 188.982 71.6884H189.059V73.0371H191.283V66.4661C191.283 63.8709 189.168 63.0911 187.295 63.0911C185.23 63.0911 183.645 64.0115 183.133 65.8013L185.294 66.1081C185.524 65.437 186.176 64.8617 187.307 64.8617C188.381 64.8617 188.969 65.4114 188.969 66.3766V66.4149C188.969 67.0797 188.273 67.1117 186.54 67.2971C184.636 67.5016 182.814 68.0705 182.814 70.2821C182.814 72.2125 184.226 73.2353 186.099 73.2353ZM186.7 71.535C185.735 71.535 185.045 71.0939 185.045 70.2438C185.045 69.3553 185.818 68.9846 186.854 68.8375C187.461 68.7544 188.675 68.601 188.976 68.3581V69.5151C188.976 70.6081 188.094 71.535 186.7 71.535ZM192.89 73.0371H195.204V63.2189H192.89V73.0371ZM194.053 61.8255C194.788 61.8255 195.389 61.263 195.389 60.5726C195.389 59.8759 194.788 59.3134 194.053 59.3134C193.312 59.3134 192.711 59.8759 192.711 60.5726C192.711 61.263 193.312 61.8255 194.053 61.8255ZM199.177 67.2843C199.177 65.8652 200.034 65.0471 201.255 65.0471C202.45 65.0471 203.166 65.8333 203.166 67.1436V73.0371H205.48V66.7857C205.486 64.4334 204.144 63.0911 202.118 63.0911C200.647 63.0911 199.638 63.7942 199.19 64.8873H199.075V63.2189H196.863V73.0371H199.177V67.2843ZM211.459 73.2289C213.747 73.2289 215.32 72.1103 215.729 70.4036L213.568 70.1607C213.255 70.9917 212.488 71.4263 211.491 71.4263C209.995 71.4263 209.004 70.4419 208.985 68.7608H215.824V68.0513C215.824 64.606 213.753 63.0911 211.337 63.0911C208.525 63.0911 206.69 65.1557 206.69 68.1855C206.69 71.2665 208.499 73.2289 211.459 73.2289ZM208.991 67.2012C209.062 65.9483 209.989 64.8936 211.369 64.8936C212.699 64.8936 213.594 65.8652 213.606 67.2012H208.991ZM224.822 65.8141C224.502 64.1522 223.173 63.0911 220.872 63.0911C218.507 63.0911 216.896 64.2544 216.902 66.0698C216.896 67.5016 217.778 68.4476 219.664 68.8375L221.338 69.1891C222.24 69.3873 222.661 69.7516 222.661 70.3077C222.661 70.9789 221.933 71.4838 220.833 71.4838C219.772 71.4838 219.082 71.0236 218.884 70.1415L216.627 70.3588C216.915 72.1614 218.43 73.2289 220.84 73.2289C223.294 73.2289 225.027 71.9569 225.033 70.0968C225.027 68.6969 224.125 67.8404 222.272 67.4377L220.597 67.0797C219.6 66.856 219.203 66.5108 219.21 65.9419C219.203 65.2772 219.938 64.8169 220.904 64.8169C221.971 64.8169 222.534 65.3986 222.713 66.0442L224.822 65.8141ZM234.504 73.0371C238.493 73.0371 240.858 70.5698 240.858 66.4789C240.858 62.4007 238.493 59.9462 234.594 59.9462H230.068V73.0371H234.504ZM232.44 70.9853V61.998H234.459C237.118 61.998 238.506 63.481 238.506 66.4789C238.506 69.4895 237.118 70.9853 234.389 70.9853H232.44ZM246.635 73.2289C248.924 73.2289 250.496 72.1103 250.905 70.4036L248.745 70.1607C248.432 70.9917 247.664 71.4263 246.667 71.4263C245.172 71.4263 244.181 70.4419 244.162 68.7608H251.001V68.0513C251.001 64.606 248.93 63.0911 246.514 63.0911C243.701 63.0911 241.867 65.1557 241.867 68.1855C241.867 71.2665 243.676 73.2289 246.635 73.2289ZM244.168 67.2012C244.238 65.9483 245.165 64.8936 246.546 64.8936C247.875 64.8936 248.77 65.8652 248.783 67.2012H244.168ZM259.999 65.8141C259.679 64.1522 258.349 63.0911 256.048 63.0911C253.683 63.0911 252.072 64.2544 252.079 66.0698C252.072 67.5016 252.955 68.4476 254.84 68.8375L256.515 69.1891C257.416 69.3873 257.838 69.7516 257.838 70.3077C257.838 70.9789 257.109 71.4838 256.01 71.4838C254.949 71.4838 254.259 71.0236 254.06 70.1415L251.804 70.3588C252.092 72.1614 253.607 73.2289 256.016 73.2289C258.471 73.2289 260.203 71.9569 260.21 70.0968C260.203 68.6969 259.302 67.8404 257.448 67.4377L255.773 67.0797C254.776 66.856 254.38 66.5108 254.386 65.9419C254.38 65.2772 255.115 64.8169 256.08 64.8169C257.148 64.8169 257.71 65.3986 257.889 66.0442L259.999 65.8141ZM261.398 73.0371H263.712V63.2189H261.398V73.0371ZM262.561 61.8255C263.296 61.8255 263.897 61.263 263.897 60.5726C263.897 59.8759 263.296 59.3134 262.561 59.3134C261.819 59.3134 261.219 59.8759 261.219 60.5726C261.219 61.263 261.819 61.8255 262.561 61.8255ZM269.641 76.9235C272.294 76.9235 274.25 75.709 274.25 73.1969V63.2189H271.968V64.8425H271.84C271.488 64.133 270.753 63.0911 269.021 63.0911C266.752 63.0911 264.968 64.8681 264.968 68.0961C264.968 71.2985 266.752 72.8965 269.014 72.8965C270.696 72.8965 271.482 71.9952 271.84 71.2729H271.955V73.133C271.955 74.5776 270.996 75.1721 269.679 75.1721C268.286 75.1721 267.672 74.5137 267.391 73.9384L265.307 74.4434C265.729 75.8176 267.142 76.9235 269.641 76.9235ZM269.66 71.0811C268.132 71.0811 267.327 69.8922 267.327 68.0833C267.327 66.2999 268.12 64.9895 269.66 64.9895C271.149 64.9895 271.968 66.2232 271.968 68.0833C271.968 69.9561 271.137 71.0811 269.66 71.0811ZM278.215 67.2843C278.215 65.8652 279.071 65.0471 280.292 65.0471C281.488 65.0471 282.204 65.8333 282.204 67.1436V73.0371H284.517V66.7857C284.524 64.4334 283.181 63.0911 281.155 63.0911C279.685 63.0911 278.675 63.7942 278.228 64.8873H278.113V63.2189H275.901V73.0371H278.215V67.2843Z" fill="white"/>
<path d="M473.475 59.3326H471.448L467.23 75.0059H469.256L473.475 59.3326ZM479.044 73.2864C482.202 73.2928 484.088 70.7999 484.088 66.5044C484.088 62.2346 482.189 59.7672 479.044 59.7672C475.9 59.7672 474.007 62.2282 474.001 66.5044C474.001 70.7935 475.887 73.2864 479.044 73.2864ZM479.044 71.2857C477.414 71.2857 476.392 69.6493 476.398 66.5044C476.404 63.3851 477.421 61.7424 479.044 61.7424C480.674 61.7424 481.691 63.3851 481.697 66.5044C481.697 69.6493 480.681 71.2857 479.044 71.2857ZM490.036 59.7672C487.198 59.748 485.312 61.6976 485.312 64.2544C485.319 66.7218 487.077 68.5051 489.371 68.5051C490.784 68.5051 492.011 67.8212 492.644 66.6962H492.734C492.727 69.4959 491.711 71.1642 489.902 71.1642C488.771 71.1642 488.01 70.5123 487.773 69.4703H485.44C485.709 71.6373 487.422 73.2161 489.902 73.2161C493.04 73.2161 495.041 70.5953 495.035 66.089C495.028 61.3205 492.548 59.78 490.036 59.7672ZM490.043 61.6848C491.442 61.6848 492.472 62.8482 492.472 64.1841C492.478 65.5392 491.398 66.7026 490.017 66.7026C488.624 66.7026 487.62 65.6032 487.614 64.2033C487.614 62.7971 488.656 61.6848 490.043 61.6848Z" fill="white"/>
<path fill-rule="evenodd" clip-rule="evenodd" d="M13.6385 6.82L15.4315 2.03739L17.127 6.82H18.4036L20.4597 0H19.1149L17.6825 4.95478L15.9674 0H14.9248L13.1318 4.8687L11.9039 0H10.5397L12.3522 6.82H13.6385ZM5.82212 5.87473L7.99014 10.588L7.08452 11.4976L0.916641 7.86616L1.87716 6.90145L6.23377 9.54062L4.00401 4.76531L4.73812 4.028L9.49952 6.38464L6.95416 1.80228L7.90095 0.851351L11.3451 7.21843L10.4463 8.12112L5.82212 5.87473ZM5.82212 25.0264L7.99014 20.3131L7.08452 19.4035L0.916641 23.0349L1.87716 23.9997L6.23377 21.3605L4.00401 26.1358L4.73812 26.8731L9.49952 24.5165L6.95416 29.0988L7.90095 30.0498L11.3451 23.6827L10.4463 22.78L5.82212 25.0264ZM15.4315 28.9626L13.6385 24.18H12.3522L10.5397 31H11.9039L13.1318 26.1313L14.9248 31H15.9674L17.6825 26.0452L19.1149 31H20.4597L18.4036 24.18H17.127L15.4315 28.9626ZM6.82 17.362L2.03739 15.569L6.82 13.8735V12.5969L0 10.5408V11.8856L4.95478 13.318L0 15.0331V16.0757L4.8687 17.8687L0 19.0966V20.4608L6.82 18.6483V17.362ZM25.1779 5.87473L23.0099 10.588L23.9155 11.4976L30.0834 7.86616L29.1228 6.90145L24.7662 9.54062L26.996 4.76531L26.2619 4.028L21.5005 6.38464L24.0458 1.80228L23.099 0.851351L19.6549 7.21843L20.5537 8.12112L25.1779 5.87473ZM23.0099 20.3131L25.1779 25.0264L20.5537 22.78L19.6549 23.6827L23.099 30.0498L24.0458 29.0988L21.5005 24.5165L26.2619 26.8731L26.996 26.1358L24.7662 21.3605L29.1228 23.9997L30.0834 23.0349L23.9155 19.4035L23.0099 20.3131ZM28.9626 15.569L24.18 17.362V18.6483L31 20.4608V19.0966L26.1313 17.8687L31 16.0757V15.0331L26.0452 13.318L31 11.8856V10.5408L24.18 12.5969V13.8735L28.9626 15.569Z" fill="white"/>
</svg>
