<?xml version="1.0" encoding="UTF-8"?>
<svg width="1440px" height="580px" viewBox="0 0 1440 580" version="1.1" xmlns="http://www.w3.org/2000/svg" xmlns:xlink="http://www.w3.org/1999/xlink">
    <!-- Generator: Sketch Beta 41.2 (35396) - http://www.bohemiancoding.com/sketch -->
    <title>Group 3</title>
    <desc>Created with Sketch Beta.</desc>
    <defs>
        <linearGradient x1="0%" y1="100%" x2="100%" y2="100%" id="linearGradient-1">
            <stop stop-color="#7ED321" offset="0%"></stop>
            <stop stop-color="#6F8FC1" offset="100%"></stop>
        </linearGradient>
        <linearGradient x1="100%" y1="100%" x2="0%" y2="100%" id="linearGradient-2">
            <stop stop-color="#9FDE59" offset="0%"></stop>
            <stop stop-color="#6F8FC1" offset="100%"></stop>
        </linearGradient>
        <rect id="path-3" x="19" y="38.8888889" width="11" height="11.1111111" rx="2"></rect>
        <mask id="mask-4" maskContentUnits="userSpaceOnUse" maskUnits="objectBoundingBox" x="0" y="0" width="11" height="11.1111111" fill="white">
            <use xlink:href="#path-3"></use>
        </mask>
        <linearGradient x1="50%" y1="0%" x2="50%" y2="100%" id="linearGradient-5">
            <stop stop-color="#4285F4" stop-opacity="0.2" offset="0%"></stop>
            <stop stop-color="#419BF9" stop-opacity="0" offset="100%"></stop>
        </linearGradient>
        <rect id="path-6" x="19" y="38.8888889" width="11" height="11.1111111" rx="2"></rect>
        <mask id="mask-7" maskContentUnits="userSpaceOnUse" maskUnits="objectBoundingBox" x="0" y="0" width="11" height="11.1111111" fill="white">
            <use xlink:href="#path-6"></use>
        </mask>
        <rect id="path-8" x="19" y="38.8888889" width="11" height="11.1111111" rx="2"></rect>
        <mask id="mask-9" maskContentUnits="userSpaceOnUse" maskUnits="objectBoundingBox" x="0" y="0" width="11" height="11.1111111" fill="white">
            <use xlink:href="#path-8"></use>
        </mask>
    </defs>
    <g id="portfolio-concept" stroke="none" stroke-width="1" fill="none" fill-rule="evenodd">
        <g id="Artboard">
            <g id="Group-3">
                <rect id="Rectangle-5" fill="#FFFFFF" x="0" y="0" width="1440" height="580"></rect>
                <g id="Group-2" transform="translate(0.000000, 132.000000)">
                    <g id="Group" transform="translate(0.000000, 55.000000)">
                        <path d="M-1.13686838e-13,0 C-6.76578298e-14,124.041464 10.7501642,195.577885 109.154042,271.927996 C142.174495,297.548076 183.212802,294.187637 183.212802,294.187637 L1261.06137,294.187637 C1261.06137,294.187637 1315.12107,295.69704 1322.60285,297.548076 C1393.61051,315.115781 1440,392.937863 1440,392.937863" id="Line" stroke="url(#linearGradient-1)" stroke-linecap="round" stroke-linejoin="round"></path>
                        <path d="M736.7,263.730469 L736.7,228.15625 L751.4,228.15625 L751.4,249.924764 C748.113147,254.307914 744.960686,258.979966 741.80194,263.730469 L736.7,263.730469 Z M508.9,263.730469 L508.9,257.350945 C503.375164,256.662777 499.1,251.95509 499.1,246.25 C499.1,240.54491 503.375164,235.837223 508.9,235.149055 L508.9,200.800781 L570.5,200.800781 L570.5,225.922725 C575.261414,223.165316 580.590773,221.58016 586.717323,221.58016 C610.083435,221.58016 624.436616,238.253517 632.962002,255.013607 C639.876531,249.350471 647.334035,244.155583 655.1,240.199431 L655.1,206.025951 C655.622804,206.397719 656.492479,206.757812 657.9,206.757812 C660.809376,206.757812 661.420762,205.219287 661.420762,205.219287 C662.22932,204.390045 662.8,202.703055 662.8,201.542 L662.8,180.1875 L658.95,180.1875 L663.55,180.1875 L655.1,180.1875 L663.566158,169 L672,169 L672,125 L753.2,125 L753.2,189 L783.6,189 L783.6,224.915889 C787.128384,224.001196 790.909273,223.50751 794.991248,223.50751 C818.937662,223.50751 835.105673,245.200344 844.548245,263.730469 L847.811087,263.730469 C854.515224,253.663611 861.150801,243.534301 868,237.684333 L868,208.231894 L927.5,208.231894 L927.5,208.231894 L868,208.231894 L876.466158,200.800781 L922.872177,200.800781 L927.5,203.758332 L927.5,175.628906 L963.592578,175.628906 L963.592578,115.105078 L1039.80742,115.105078 L1039.80742,188.914062 L1040.2,188.914062 L1040.2,189 L1072.4397,189 C1072.34059,187.142349 1070.90223,152.890669 1099.44982,150.579558 C1099.16527,150.141756 1099,149.619454 1099,149.058594 C1099,148.023208 1099.56324,147.119227 1100.40036,146.635684 C1100.40012,146.626339 1100.4,146.616961 1100.4,146.607551 L1100.4,129.134636 C1100.4,128.553299 1100.86236,128.082031 1101.44262,128.082031 L1102.15738,128.082031 C1102.7332,128.082031 1103.2,128.546677 1103.2,129.134636 L1103.2,146.607551 C1103.2,146.616957 1103.19988,146.626335 1103.19964,146.635682 C1104.03676,147.119223 1104.6,148.023206 1104.6,149.058594 C1104.6,149.582102 1104.45601,150.072017 1104.20543,150.490978 C1135.00643,151.775387 1130.54419,189.078441 1130.54419,189.078441 L1130.5,189.078441 L1130.5,216.219601 C1134.58453,215.163728 1139.24947,214.587973 1144.61732,214.587973 C1163.00057,214.587973 1175.80507,224.908332 1184.58188,237.471761 C1182.88139,240.370359 1181.6,243.338265 1181.6,245.550781 C1181.6,251.255872 1185.87516,255.963558 1191.4,256.651727 L1191.4,263.730469 L1193.5,263.730469 L1193.5,256.716786 C1199.35951,256.355852 1204,251.494634 1204,245.550781 C1204,244.481757 1203.70085,243.236382 1203.19983,241.907684 C1208.26292,236.33045 1213.41222,232.634467 1218.76568,232.634467 C1229.46843,232.634467 1242.15803,249.649358 1250.82711,263.730469 L1256.88722,263.730469 L1256.88722,274.166961 C1259.50704,278.944119 1261.06233,282.147503 1261.06233,282.147503 L1256.88722,282.147503 L1256.88722,294.237124 L179,294.237124 L179,263.730469 L201.392981,263.730469 C205.980723,257.150736 210.559631,250.580375 215.080059,244.673621 C214.963166,245.2303 214.9,245.758768 214.9,246.25 C214.9,251.302152 218.252591,255.572139 222.856717,256.961249 C221.914429,258.672805 221.037037,260.54704 221.037037,261.591969 C221.037037,262.375966 221.258169,263.108396 221.641555,263.73047 L228.617705,263.730469 C229.00109,263.108395 229.222222,262.375966 229.222222,261.591969 C229.222222,260.623081 228.467882,258.941194 227.606912,257.337107 C233.079892,256.601913 237.3,251.918236 237.3,246.25 C237.3,241.537659 231.487262,233.398653 228.192843,229.800913 C233.309001,225.139522 238.277278,222.279379 243.017323,222.279379 C259.418163,222.279379 271.378571,230.493902 280,241.187109 L280,200.101562 L321,200.101562 L321,196.320312 L360.5,196.320312 L360.5,201.007812 L360.5,200.101562 L321,200.101562 L321,125 L402.2,125 L402.2,163.042969 L424.2,163.042969 L424.2,125.285156 L508.9,125.285156 L508.9,235.149055 C509.358632,235.091928 509.825876,235.0625 510.3,235.0625 C516.485589,235.0625 521.5,240.071314 521.5,246.25 C521.5,252.193853 516.859511,257.05507 511,257.416005 L511,254.633751 C511.065975,254.585312 511.127252,254.528264 511.182205,254.462773 L515.684549,249.09709 C516.057016,248.6532 515.994678,247.996144 515.55045,247.623392 C515.103124,247.248042 514.446023,247.306087 514.075855,247.747236 L511,251.412897 L511,248.701043 C511,248.113083 510.529899,247.648438 509.95,247.648438 C509.366058,247.648438 508.9,248.119705 508.9,248.701043 L508.9,261.762451 L508.9,263.730469 L508.9,263.730469 Z M968.1,263.730469 L1001.7,263.730469 L1001.7,226.517773 L1001.7,263.730469 L1020.85,263.730469 L968.1,263.730469 Z M1054.7,263.730469 L1054.7,228.15625 L1069.4,228.15625 L1069.4,263.730469 L1054.7,263.730469 Z M1072.9,263.730469 L1072.9,228.15625 L1087.6,228.15625 L1087.6,263.730469 L1072.9,263.730469 Z M905.1,263.730469 L905.1,257.350945 C899.575164,256.662777 895.3,251.95509 895.3,246.25 C895.3,240.071314 900.314411,235.0625 906.5,235.0625 C912.685589,235.0625 917.7,240.071314 917.7,246.25 C917.7,252.193853 913.059511,257.05507 907.2,257.416005 L907.2,263.730469 L905.1,263.730469 Z M361.2,263.730469 L361.2,257.416005 C367.059511,257.05507 371.7,252.193853 371.7,246.25 C371.7,240.071314 361.706914,228.001607 360.5,228.001607 L360.5,224.574219 L280,224.574219 L280,230.867188 L357.470716,230.867188 C354.121366,234.824318 349.3,241.95828 349.3,246.25 C349.3,251.95509 353.575164,256.662777 359.1,257.350945 L359.1,263.730469 L326.016846,263.730469 L361.2,263.730469 Z M864.079763,263.730469 C863.479829,263.181653 863.103704,262.39324 863.103704,261.517186 C863.103704,259.859144 866.112963,255.359088 866.112963,255.359088 C866.112963,255.359088 867.144754,256.902032 868,258.513854 L868,263.730469 L864.079763,263.730469 Z M1207.64616,263.730469 C1208.2461,263.181653 1208.62222,262.39324 1208.62222,261.517186 C1208.62222,259.859144 1205.61296,255.359088 1205.61296,255.359088 C1205.61296,255.359088 1202.6037,259.859144 1202.6037,261.517186 C1202.6037,262.39324 1202.97983,263.181653 1203.57976,263.730469 L1207.64616,263.730469 Z M571.774408,263.730469 C572.485065,262.995443 572.922222,261.995069 572.922222,260.89275 C572.922222,258.635971 568.82963,252.510894 568.82963,252.510894 C568.82963,252.510894 564.737037,258.635971 564.737037,260.89275 C564.737037,261.995069 565.174194,262.995443 565.884851,263.730469 L571.774408,263.730469 Z M1168.02303,263.730469 C1166.8952,261.036789 1164.50741,257.463159 1164.50741,257.463159 C1164.50741,257.463159 1162.11962,261.036789 1160.99178,263.730469 L1168.02303,263.730469 Z M813.945379,263.730469 C813.418323,262.88351 813.05,262.332031 813.05,262.332031 C813.05,262.332031 812.681677,262.88351 812.154621,263.730469 L813.945379,263.730469 Z M769.6,231.394636 L769.6,228.15625 L754.9,228.15625 L754.9,245.445742 C759.374639,239.973324 764.167555,235.129418 769.6,231.394636 Z M773.1,215.370536 L773.1,219.765625 L766.8,219.765625 L766.8,215.370536 C766.8,214.708534 768.210303,214.171875 769.95,214.171875 C771.689697,214.171875 773.1,214.708534 773.1,215.370536 Z M756.3,215.370536 L756.3,219.765625 L750,219.765625 L750,215.370536 C750,214.708534 751.410303,214.171875 753.15,214.171875 C754.889697,214.171875 756.3,214.708534 756.3,215.370536 Z M739.5,215.370536 L739.5,219.765625 L733.2,219.765625 L733.2,215.370536 C733.2,214.708534 734.610303,214.171875 736.35,214.171875 C738.089697,214.171875 739.5,214.708534 739.5,215.370536 Z M1091.1,215.370536 L1091.1,219.765625 L1084.8,219.765625 L1084.8,215.370536 C1084.8,214.708534 1086.2103,214.171875 1087.95,214.171875 C1089.6897,214.171875 1091.1,214.708534 1091.1,215.370536 Z M1074.3,215.370536 L1074.3,219.765625 L1068,219.765625 L1068,215.370536 C1068,214.708534 1069.4103,214.171875 1071.15,214.171875 C1072.8897,214.171875 1074.3,214.708534 1074.3,215.370536 Z M1057.5,215.370536 L1057.5,219.765625 L1051.2,219.765625 L1051.2,215.370536 C1051.2,214.708534 1052.6103,214.171875 1054.35,214.171875 C1056.0897,214.171875 1057.5,214.708534 1057.5,215.370536 Z M1101.6,259.535547 L1137.15,259.535547 L1137.15,258.835547 L1101.6,258.835547 L1101.6,259.535547 Z M1101.6,256.039453 L1137.15,256.039453 L1137.15,255.339453 L1101.6,255.339453 L1101.6,256.039453 Z M1101.6,252.542969 L1122.8,252.542969 L1122.8,235.511998 C1122.8,232.97217 1113.42985,230.908465 1101.8,230.867799 L1101.8,221.777344 L1101.8,189.078441 L1101.6,189.078441 L1101.6,252.542969 Z M1101.6,263.031641 L1137.15,263.031641 L1137.15,262.331641 L1101.6,262.331641 L1101.6,263.031641 Z M1113.7,199.402344 L1113.7,207.09375 L1107.4,207.09375 L1107.4,199.402344 C1107.4,198.24384 1108.8103,197.304688 1110.55,197.304688 C1112.2897,197.304688 1113.7,198.24384 1113.7,199.402344 Z M1125.6,199.402344 L1125.6,207.09375 L1119.3,207.09375 L1119.3,199.402344 C1119.3,198.24384 1120.7103,197.304688 1122.45,197.304688 C1124.1897,197.304688 1125.6,198.24384 1125.6,199.402344 Z M990.707474,175.628906 L990.707474,115.105078 L996.570155,115.105078 L996.570155,175.628906 L990.707474,175.628906 Z M973.852269,175.628906 L973.852269,115.105078 L979.714949,115.105078 L979.714949,175.628906 L973.852269,175.628906 Z M927.5,208.231894 L924.7,208.231894 L924.7,218.012483 C924.7,219.176498 925.521403,220.551412 926.534656,221.097858 C926.534656,221.097858 926.603352,221.356403 927.5,221.53032 L927.5,208.231894 Z M1024.41789,188.914062 L1024.41789,115.105078 L1030.28057,115.105078 L1030.28057,188.914062 L1024.41789,188.914062 Z M1007.56268,188.914062 L1007.56268,115.105078 L1013.42536,115.105078 L1013.42536,188.914062 L1007.56268,188.914062 Z M360.5,180.238281 L321,180.238281 L321,185.832031 L360.5,185.832031 L360.5,180.238281 Z M360.5,164.15625 L321,164.15625 L321,169.75 L360.5,169.75 L360.5,164.15625 Z M442.4,180.1875 L508.6,180.1875 L496.972177,169 L450.566158,169 L442.4,179.791069 L442.4,180.1875 L449.8,180.1875 L449.8,201.542 C449.8,202.703055 449.22932,204.390045 448.420762,205.219287 C448.420762,205.219287 447.809376,206.757812 444.9,206.757812 C443.733468,206.757812 442.936374,206.51047 442.4,206.214133 L442.4,180.1875 Z M689.980295,243.561544 L683.811262,250.316864 L683.365414,239.691076 C681.886599,238.870932 681.181129,237.076466 681.777205,235.43876 C682.437591,233.624364 684.445441,232.689453 686.261864,233.350577 C686.92225,231.536181 688.9301,230.60127 690.746522,231.262394 C692.562945,231.923518 693.500098,233.930322 692.839712,235.744718 C692.666676,236.22013 692.401129,236.635161 692.070755,236.976919 C693.643053,237.75963 694.411133,239.613928 693.796823,241.301729 C693.216713,242.895568 691.596821,243.810746 689.980295,243.561544 Z M710.751696,169.75 L753.2,169.75 L753.2,164.15625 L672,164.15625 L672,169 L709.972177,169 L710.751696,169.75 Z M721.6,180.238281 L753.2,180.238281 L753.2,185.832031 L721.6,185.832031 L721.6,180.238281 Z M476.980295,243.561544 L470.811262,250.316864 L470.365414,239.691076 C468.886599,238.870932 468.181129,237.076466 468.777205,235.43876 C469.437591,233.624364 471.445441,232.689453 473.261864,233.350577 C473.92225,231.536181 475.9301,230.60127 477.746522,231.262394 C479.562945,231.923518 480.500098,233.930322 479.839712,235.744718 C479.666676,236.22013 479.401129,236.635161 479.070755,236.976919 C480.643053,237.75963 481.411133,239.613928 480.796823,241.301729 C480.216713,242.895568 478.596821,243.810746 476.980295,243.561544 Z M468.241208,117.521834 L468.241208,114.796875 L464.8,114.796875 L464.8,117.521834 L462.17979,117.521834 L462.17979,121.103034 L464.8,121.103034 L464.8,123.390294 L468.241208,123.390294 L468.241208,121.103034 L470.77321,121.103034 L470.77321,117.521834 L468.241208,117.521834 Z M555.8,239.691684 L555.8,228.070312 L539.7,228.070312 L539.7,263.730469 L540.969365,263.730469 C545.744373,255.111879 550.468044,246.702936 555.8,239.691684 Z M534.8,238.708421 L534.8,236.537909 L525.7,242.909798 L525.7,245.08031 L534.8,238.708421 Z M534.8,242.131659 L534.8,246.253998 C534.8,247.410294 533.860415,248.347656 532.70085,248.347656 L527.79915,248.347656 C527.322418,248.347656 526.882803,248.189153 526.530394,247.9221 L534.8,242.131659 Z M534.8,233.114671 L534.8,230.944159 L525.7,237.316048 L525.7,239.48656 L534.8,233.114671 Z M533.674778,228.308811 C533.383701,228.156487 533.052366,228.070312 532.70085,228.070312 L527.79915,228.070312 C526.639585,228.070312 525.7,229.007675 525.7,230.163971 L525.7,233.89281 L533.674778,228.308811 Z M508.9,200.800781 L570.5,200.800781 L570.5,214.085938 L508.9,214.085938 L508.9,200.800781 Z M1223.66852,252.972605 C1225.33049,252.972605 1226.67778,251.628496 1226.67778,249.970454 C1226.67778,248.312413 1223.66852,243.812357 1223.66852,243.812357 C1223.66852,243.812357 1220.65926,248.312413 1220.65926,249.970454 C1220.65926,251.628496 1222.00655,252.972605 1223.66852,252.972605 Z M593.385185,249.262625 C595.645462,249.262625 597.477778,247.433144 597.477778,245.176365 C597.477778,242.919586 593.385185,236.79451 593.385185,236.79451 C593.385185,236.79451 589.292593,242.919586 589.292593,245.176365 C589.292593,247.433144 591.124909,249.262625 593.385185,249.262625 Z M617.940741,258.718115 C620.201017,258.718115 622.033333,256.888634 622.033333,254.631855 C622.033333,252.375076 617.940741,246.25 617.940741,246.25 C617.940741,246.25 613.848148,252.375076 613.848148,254.631855 C613.848148,256.888634 615.680464,258.718115 617.940741,258.718115 Z M1175.84074,251.725928 C1178.10102,251.725928 1179.93333,249.896447 1179.93333,247.639668 C1179.93333,245.382889 1175.84074,239.257812 1175.84074,239.257812 C1175.84074,239.257812 1171.74815,245.382889 1171.74815,247.639668 C1171.74815,249.896447 1173.58046,251.725928 1175.84074,251.725928 Z M249.685185,249.961844 C251.945462,249.961844 253.777778,248.132363 253.777778,245.875584 C253.777778,243.618805 249.685185,237.493728 249.685185,237.493728 C249.685185,237.493728 245.592593,243.618805 245.592593,245.875584 C245.592593,248.132363 247.424909,249.961844 249.685185,249.961844 Z M274.240741,259.417334 C276.501017,259.417334 278.333333,257.587853 278.333333,255.331074 C278.333333,253.074295 274.240741,246.949219 274.240741,246.949219 C274.240741,246.949219 270.148148,253.074295 270.148148,255.331074 C270.148148,257.587853 271.980464,259.417334 274.240741,259.417334 Z M440.3,112 L489.3,112 L489.3,125.285156 L440.3,125.285156 L440.3,112 Z M483,136.472656 L489.3,136.472656 L489.3,144.164062 L483,144.164062 L483,136.472656 Z M497,136.472656 L503.3,136.472656 L503.3,144.164062 L497,144.164062 L497,136.472656 Z M483,151.15625 L489.3,151.15625 L489.3,158.847656 L483,158.847656 L483,151.15625 Z M497,151.15625 L503.3,151.15625 L503.3,158.847656 L497,158.847656 L497,151.15625 Z M456.4,136.472656 L462.7,136.472656 L462.7,144.164062 L456.4,144.164062 L456.4,136.472656 Z M470.4,136.472656 L476.7,136.472656 L476.7,144.164062 L470.4,144.164062 L470.4,136.472656 Z M456.4,151.15625 L462.7,151.15625 L462.7,158.847656 L456.4,158.847656 L456.4,151.15625 Z M470.4,151.15625 L476.7,151.15625 L476.7,158.847656 L470.4,158.847656 L470.4,151.15625 Z M429.8,136.472656 L436.1,136.472656 L436.1,144.164062 L429.8,144.164062 L429.8,136.472656 Z M443.8,136.472656 L450.1,136.472656 L450.1,144.164062 L443.8,144.164062 L443.8,136.472656 Z M429.8,151.15625 L436.1,151.15625 L436.1,158.847656 L429.8,158.847656 L429.8,151.15625 Z M443.8,151.15625 L450.1,151.15625 L450.1,158.847656 L443.8,158.847656 L443.8,151.15625 Z M321,148.074219 L402.2,148.074219 L402.2,153.667969 L321,153.667969 L321,148.074219 Z M321,131.992188 L402.2,131.992188 L402.2,137.585938 L321,137.585938 L321,131.992188 Z M672,148.074219 L753.2,148.074219 L753.2,153.667969 L672,153.667969 L672,148.074219 Z M672,131.992188 L753.2,131.992188 L753.2,137.585938 L672,137.585938 L672,131.992188 Z M479.2,180.1875 L489,180.1875 L489,201.542 C489,202.703055 488.42932,204.390045 487.620762,205.219287 C487.620762,205.219287 487.009376,206.757812 484.1,206.757812 C481.190624,206.757812 480.579238,205.219287 480.579238,205.219287 C479.817506,204.349432 479.2,202.69569 479.2,201.542 L479.2,180.1875 Z M459.6,180.1875 L469.4,180.1875 L469.4,201.542 C469.4,202.703055 468.82932,204.390045 468.020762,205.219287 C468.020762,205.219287 467.409376,206.757812 464.5,206.757812 C461.590624,206.757812 460.979238,205.219287 460.979238,205.219287 C460.217506,204.349432 459.6,202.69569 459.6,201.542 L459.6,180.1875 Z M489,180.1875 L498.8,180.1875 L498.8,201.542 C498.8,202.703055 498.22932,204.390045 497.420762,205.219287 C497.420762,205.219287 496.809376,206.757812 493.9,206.757812 C490.990624,206.757812 490.379238,205.219287 490.379238,205.219287 C489.617506,204.349432 489,202.69569 489,201.542 L489,180.1875 Z M469.4,180.1875 L479.2,180.1875 L479.2,201.542 C479.2,202.703055 478.62932,204.390045 477.820762,205.219287 C477.820762,205.219287 477.209376,206.757812 474.3,206.757812 C471.390624,206.757812 470.779238,205.219287 470.779238,205.219287 C470.017506,204.349432 469.4,202.69569 469.4,201.542 L469.4,180.1875 Z M449.8,180.1875 L459.6,180.1875 L459.6,201.542 C459.6,202.703055 459.02932,204.390045 458.220762,205.219287 C458.220762,205.219287 457.609376,206.757812 454.7,206.757812 C451.790624,206.757812 451.179238,205.219287 451.179238,205.219287 C450.417506,204.349432 449.8,202.69569 449.8,201.542 L449.8,180.1875 Z M498.8,180.1875 L508.6,180.1875 L508.6,201.542 C508.6,202.703055 508.02932,204.390045 507.220762,205.219287 C507.220762,205.219287 506.609376,206.757812 503.7,206.757812 C500.790624,206.757812 500.179238,205.219287 500.179238,205.219287 C499.417506,204.349432 498.8,202.69569 498.8,201.542 L498.8,180.1875 Z M455.4,217.246094 L493.2,217.246094 L493.2,220.742188 L455.4,220.742188 L455.4,217.246094 Z M692.2,180.1875 L702,180.1875 L702,201.542 C702,202.703055 701.42932,204.390045 700.620762,205.219287 C700.620762,205.219287 700.009376,206.757812 697.1,206.757812 C694.190624,206.757812 693.579238,205.219287 693.579238,205.219287 C692.817506,204.349432 692.2,202.69569 692.2,201.542 L692.2,180.1875 Z M672.6,180.1875 L682.4,180.1875 L682.4,201.542 C682.4,202.703055 681.82932,204.390045 681.020762,205.219287 C681.020762,205.219287 680.409376,206.757812 677.5,206.757812 C674.590624,206.757812 673.979238,205.219287 673.979238,205.219287 C673.217506,204.349432 672.6,202.69569 672.6,201.542 L672.6,180.1875 Z M702,180.1875 L711.8,180.1875 L711.8,201.542 C711.8,202.703055 711.22932,204.390045 710.420762,205.219287 C710.420762,205.219287 709.809376,206.757812 706.9,206.757812 C703.990624,206.757812 703.379238,205.219287 703.379238,205.219287 C702.617506,204.349432 702,202.69569 702,201.542 L702,180.1875 Z M682.4,180.1875 L692.2,180.1875 L692.2,201.542 C692.2,202.703055 691.62932,204.390045 690.820762,205.219287 C690.820762,205.219287 690.209376,206.757812 687.3,206.757812 C684.390624,206.757812 683.779238,205.219287 683.779238,205.219287 C683.017506,204.349432 682.4,202.69569 682.4,201.542 L682.4,180.1875 Z M662.8,180.1875 L672.6,180.1875 L672.6,201.542 C672.6,202.703055 672.02932,204.390045 671.220762,205.219287 C671.220762,205.219287 670.609376,206.757812 667.7,206.757812 C664.790624,206.757812 664.179238,205.219287 664.179238,205.219287 C663.417506,204.349432 662.8,202.69569 662.8,201.542 L662.8,180.1875 Z M711.8,180.1875 L721.6,180.1875 L721.6,201.542 C721.6,202.703055 721.02932,204.390045 720.220762,205.219287 C720.220762,205.219287 719.609376,206.757812 716.7,206.757812 C713.790624,206.757812 713.179238,205.219287 713.179238,205.219287 C712.417506,204.349432 711.8,202.69569 711.8,201.542 L711.8,180.1875 Z M668.4,217.246094 L706.2,217.246094 L706.2,220.742188 L668.4,220.742188 L668.4,217.246094 Z M370.65,193.109766 L432.25,193.109766 L432.25,192.409766 L370.65,192.409766 L370.65,193.109766 Z M401.8,170.734375 L432.6,188.214844 L371,188.214844 L401.8,170.734375 Z M383.6,200.800781 L418.6,200.800781 L418.6,251.144531 L383.6,251.144531 L383.6,200.800781 Z M383.6,251.144531 L418.6,251.144531 L418.6,253.242188 L383.6,253.242188 L383.6,251.144531 Z M383.6,254.640625 L418.6,254.640625 L418.6,256.738281 L383.6,256.738281 L383.6,254.640625 Z M383.6,258.136719 L418.6,258.136719 L418.6,260.234375 L383.6,260.234375 L383.6,258.136719 Z M310.45,231.224566 L310.45,262.673872 L311.15,262.673872 L311.15,231.224566 L310.45,231.224566 Z M329.35,231.224566 L329.35,262.673872 L330.05,262.673872 L330.05,231.224566 L329.35,231.224566 Z M311.5,230.867188 L329,230.867188 L329,263.730469 L311.5,263.730469 L311.5,230.867188 Z M280,230.867188 L310.1,230.867188 L310.1,249.046875 L280,249.046875 L280,230.867188 Z M1021.3,190.3125 L1037.4,201.5 L1005.2,201.5 L1021.3,190.3125 Z M1012.2,210.589844 L1017.76818,210.589844 L1017.76818,222.476562 L1012.2,222.476562 L1012.2,210.589844 Z M1024.13182,210.589844 L1029.7,210.589844 L1029.7,222.476562 L1024.13182,222.476562 L1024.13182,210.589844 Z M1015,244.851562 L1027.6,244.851562 L1027.6,263.730469 L1015,263.730469 L1015,244.851562 Z M905.1,208.231894 L914.9,208.231894 L914.9,218.012483 C914.9,219.170043 914.100928,220.615901 913.065344,221.097858 C913.065344,221.097858 912.909376,221.684863 910,221.684863 C907.090624,221.684863 906.934656,221.097858 906.934656,221.097858 C905.921403,220.551412 905.1,219.176498 905.1,218.012483 L905.1,208.231894 Z M885.5,208.231894 L895.3,208.231894 L895.3,218.012483 C895.3,219.170043 894.500928,220.615901 893.465344,221.097858 C893.465344,221.097858 893.309376,221.684863 890.4,221.684863 C887.490624,221.684863 887.334656,221.097858 887.334656,221.097858 C886.321403,220.551412 885.5,219.176498 885.5,218.012483 L885.5,208.231894 Z M868,208.231894 L875.7,208.231894 L875.7,218.012483 C875.7,219.170043 874.968753,220.686484 873.937025,221.245739 C873.937025,221.245739 874.135938,221.684863 871.85,221.684863 C869.564062,221.684863 869.743308,221.237337 869.743308,221.237337 C868.780505,220.613859 868,219.176498 868,218.012483 L868,208.231894 Z M914.9,208.231894 L924.7,208.231894 L924.7,218.634529 C924.7,219.789459 923.91673,221.250432 922.888306,221.757124 C922.888306,221.757124 922.709376,222.384082 919.8,222.384082 C916.890624,222.384082 916.711694,221.757124 916.711694,221.757124 C915.711123,221.187492 914.9,219.786647 914.9,218.634529 L914.9,208.231894 Z M895.3,208.231894 L905.1,208.231894 L905.1,218.012483 C905.1,219.170043 904.300928,220.615901 903.265344,221.097858 C903.265344,221.097858 903.109376,221.684863 900.2,221.684863 C897.290624,221.684863 897.134656,221.097858 897.134656,221.097858 C896.121403,220.551412 895.3,219.176498 895.3,218.012483 L895.3,208.231894 Z M875.7,208.231894 L885.5,208.231894 L885.5,218.012483 C885.5,219.170043 884.700928,220.615901 883.665344,221.097858 C883.665344,221.097858 883.509376,221.684863 880.6,221.684863 C877.690624,221.684863 877.534656,221.097858 877.534656,221.097858 C876.521403,220.551412 875.7,219.176498 875.7,218.012483 L875.7,208.231894 Z M927.5,188.914062 L1001.7,188.914062 L1001.7,215.484375 L927.5,215.484375 L927.5,188.914062 Z M974.4,226.671875 L991.2,226.671875 L991.2,263.730469 L974.4,263.730469 L974.4,226.671875 Z M934.5,227.371094 L964.6,227.371094 L964.6,249.746094 L934.5,249.746094 L934.5,227.371094 Z M229.875855,247.747236 C230.246023,247.306087 230.903124,247.248042 231.35045,247.623392 C231.794678,247.996144 231.857016,248.6532 231.484549,249.09709 L226.982205,254.462773 C226.612038,254.903922 225.954936,254.961967 225.507611,254.586617 C225.063382,254.213865 225.001044,253.556809 225.373512,253.112919 L229.875855,247.747236 Z M910.275855,247.747236 C910.646023,247.306087 911.303124,247.248042 911.75045,247.623392 C912.194678,247.996144 912.257016,248.6532 911.884549,249.09709 L907.382205,254.462773 C907.012038,254.903922 906.354936,254.961967 905.907611,254.586617 C905.463382,254.213865 905.401044,253.556809 905.773512,253.112919 L910.275855,247.747236 Z M1040,189 L1101.6,189 L1101.6,191.796875 C1101.6,191.796875 1094.71631,194.230261 1070.8,194.230261 C1046.88369,194.230261 1040,191.796875 1040,191.796875 L1040,189 Z M722,189 L783.6,189 L783.6,191.796875 C783.6,191.796875 776.716307,194.230261 752.8,194.230261 C728.883693,194.230261 722,191.796875 722,191.796875 L722,189 Z M798.35,245.434004 C800.862896,245.434004 802.9,243.399173 802.9,240.889082 C802.9,238.378991 798.35,231.566406 798.35,231.566406 C798.35,231.566406 793.8,238.378991 793.8,240.889082 C793.8,243.399173 795.837104,245.434004 798.35,245.434004 Z M771.05,262.914473 C773.562896,262.914473 775.6,260.879642 775.6,258.369551 C775.6,255.85946 771.05,249.046875 771.05,249.046875 C771.05,249.046875 766.5,255.85946 766.5,258.369551 C766.5,260.879642 768.537104,262.914473 771.05,262.914473 Z M1228.44298,277.378183 L1235.9283,277.378183 L1235.9283,280.58941 L1228.44298,280.58941 L1228.44298,277.378183 Z M1205.98699,277.378183 L1213.47232,277.378183 L1213.47232,280.58941 L1205.98699,280.58941 L1205.98699,277.378183 Z M1183.53101,277.378183 L1191.01634,277.378183 L1191.01634,280.58941 L1183.53101,280.58941 L1183.53101,277.378183 Z M1161.07503,277.378183 L1168.56035,277.378183 L1168.56035,280.58941 L1161.07503,280.58941 L1161.07503,277.378183 Z M1138.61904,277.378183 L1146.10437,277.378183 L1146.10437,280.58941 L1138.61904,280.58941 L1138.61904,277.378183 Z M1116.16306,277.378183 L1123.64839,277.378183 L1123.64839,280.58941 L1116.16306,280.58941 L1116.16306,277.378183 Z M1093.70707,277.378183 L1101.1924,277.378183 L1101.1924,280.58941 L1093.70707,280.58941 L1093.70707,277.378183 Z M1071.25109,277.378183 L1078.73642,277.378183 L1078.73642,280.58941 L1071.25109,280.58941 L1071.25109,277.378183 Z M1048.79511,277.378183 L1056.28043,277.378183 L1056.28043,280.58941 L1048.79511,280.58941 L1048.79511,277.378183 Z M1026.33912,277.378183 L1033.82445,277.378183 L1033.82445,280.58941 L1026.33912,280.58941 L1026.33912,277.378183 Z M1003.88314,277.378183 L1011.36847,277.378183 L1011.36847,280.58941 L1003.88314,280.58941 L1003.88314,277.378183 Z M981.427155,277.378183 L988.912483,277.378183 L988.912483,280.58941 L981.427155,280.58941 L981.427155,277.378183 Z M958.971171,277.378183 L966.456499,277.378183 L966.456499,280.58941 L958.971171,280.58941 L958.971171,277.378183 Z M936.515187,277.378183 L944.000515,277.378183 L944.000515,280.58941 L936.515187,280.58941 L936.515187,277.378183 Z M914.059203,277.378183 L921.544531,277.378183 L921.544531,280.58941 L914.059203,280.58941 L914.059203,277.378183 Z M891.60322,277.378183 L899.088547,277.378183 L899.088547,280.58941 L891.60322,280.58941 L891.60322,277.378183 Z M869.147236,277.378183 L876.632564,277.378183 L876.632564,280.58941 L869.147236,280.58941 L869.147236,277.378183 Z M846.691252,277.378183 L854.17658,277.378183 L854.17658,280.58941 L846.691252,280.58941 L846.691252,277.378183 Z M824.235268,277.378183 L831.720596,277.378183 L831.720596,280.58941 L824.235268,280.58941 L824.235268,277.378183 Z M801.779284,277.378183 L809.264612,277.378183 L809.264612,280.58941 L801.779284,280.58941 L801.779284,277.378183 Z M779.323301,277.378183 L786.808628,277.378183 L786.808628,280.58941 L779.323301,280.58941 L779.323301,277.378183 Z M756.867317,277.378183 L764.352645,277.378183 L764.352645,280.58941 L756.867317,280.58941 L756.867317,277.378183 Z M734.411333,277.378183 L741.896661,277.378183 L741.896661,280.58941 L734.411333,280.58941 L734.411333,277.378183 Z M711.955349,277.378183 L719.440677,277.378183 L719.440677,280.58941 L711.955349,280.58941 L711.955349,277.378183 Z M689.499365,277.378183 L696.984693,277.378183 L696.984693,280.58941 L689.499365,280.58941 L689.499365,277.378183 Z M667.043381,277.378183 L674.528709,277.378183 L674.528709,280.58941 L667.043381,280.58941 L667.043381,277.378183 Z M644.587398,277.378183 L652.072726,277.378183 L652.072726,280.58941 L644.587398,280.58941 L644.587398,277.378183 Z M622.131414,277.378183 L629.616742,277.378183 L629.616742,280.58941 L622.131414,280.58941 L622.131414,277.378183 Z M599.67543,277.378183 L607.160758,277.378183 L607.160758,280.58941 L599.67543,280.58941 L599.67543,277.378183 Z M577.219446,277.378183 L584.704774,277.378183 L584.704774,280.58941 L577.219446,280.58941 L577.219446,277.378183 Z M554.763462,277.378183 L562.24879,277.378183 L562.24879,280.58941 L554.763462,280.58941 L554.763462,277.378183 Z M532.307479,277.378183 L539.792807,277.378183 L539.792807,280.58941 L532.307479,280.58941 L532.307479,277.378183 Z M509.851495,277.378183 L517.336823,277.378183 L517.336823,280.58941 L509.851495,280.58941 L509.851495,277.378183 Z M487.395511,277.378183 L494.880839,277.378183 L494.880839,280.58941 L487.395511,280.58941 L487.395511,277.378183 Z M464.939527,277.378183 L472.424855,277.378183 L472.424855,280.58941 L464.939527,280.58941 L464.939527,277.378183 Z M442.483543,277.378183 L449.968871,277.378183 L449.968871,280.58941 L442.483543,280.58941 L442.483543,277.378183 Z M420.02756,277.378183 L427.512887,277.378183 L427.512887,280.58941 L420.02756,280.58941 L420.02756,277.378183 Z M397.571576,277.378183 L405.056904,277.378183 L405.056904,280.58941 L397.571576,280.58941 L397.571576,277.378183 Z M375.115592,277.378183 L382.60092,277.378183 L382.60092,280.58941 L375.115592,280.58941 L375.115592,277.378183 Z M352.659608,277.378183 L360.144936,277.378183 L360.144936,280.58941 L352.659608,280.58941 L352.659608,277.378183 Z M330.203624,277.378183 L337.688952,277.378183 L337.688952,280.58941 L330.203624,280.58941 L330.203624,277.378183 Z M307.747641,277.378183 L315.232968,277.378183 L315.232968,280.58941 L307.747641,280.58941 L307.747641,277.378183 Z M285.291657,277.378183 L292.776985,277.378183 L292.776985,280.58941 L285.291657,280.58941 L285.291657,277.378183 Z M262.835673,277.378183 L270.321001,277.378183 L270.321001,280.58941 L262.835673,280.58941 L262.835673,277.378183 Z M240.379689,277.378183 L247.865017,277.378183 L247.865017,280.58941 L240.379689,280.58941 L240.379689,277.378183 Z M217.923705,277.378183 L225.409033,277.378183 L225.409033,280.58941 L217.923705,280.58941 L217.923705,277.378183 Z M195.467721,277.378183 L202.953049,277.378183 L202.953049,280.58941 L195.467721,280.58941 L195.467721,277.378183 Z" id="Combined-Shape" stroke="url(#linearGradient-2)" stroke-width="0.7" transform="translate(720.031163, 203.118562) scale(-1, 1) translate(-720.031163, -203.118562) "></path>
                    </g>
                    <g id="Group-22" transform="translate(306.738759, 107.070726) rotate(17.000000) translate(-306.738759, -107.070726) translate(282.238759, 82.070726)">
                        <use id="Rectangle-6" stroke="#4285F4" mask="url(#mask-4)" fill-opacity="0.1" fill="#4285F4" xlink:href="#path-3"></use>
                        <path d="M24.3786154,39.3654532 L48.6476565,24.6582741 C48.7660544,24.5865243 48.8044518,24.4314096 48.7334195,24.3118158 C48.6623872,24.1922219 48.5088236,24.1534367 48.3904257,24.2251865 L24.1213846,38.9323656 C24.0029867,39.0041154 23.9645893,39.1592301 24.0356216,39.278824 C24.1066539,39.3984178 24.2602175,39.437203 24.3786154,39.3654532 Z" id="Line" fill="#4285F4"></path>
                        <path d="M24.6280076,38.7095136 L0.610955005,24.2483354 C0.492356371,24.1769247 0.338902221,24.2161492 0.268205568,24.3359458 C0.197508916,24.4557424 0.236341144,24.6107465 0.354939779,24.6821573 L24.3719924,39.1433355 C24.490591,39.2147463 24.6440452,39.1755218 24.7147418,39.0557252 C24.7854385,38.9359286 24.7466062,38.7809244 24.6280076,38.7095136 Z" id="Line-Copy-38" fill="#4285F4"></path>
                        <path d="M24.6916639,38.8141626 L36.6190016,24.4283578 C36.7076513,24.3214355 36.6937053,24.1621671 36.5878522,24.0726219 C36.4819992,23.9830766 36.3243235,23.9971635 36.2356737,24.1040858 L24.3083361,38.4898906 C24.2196863,38.5968129 24.2336323,38.7560813 24.3394854,38.8456265 C24.4453385,38.9351717 24.6030142,38.9210848 24.6916639,38.8141626 Z" id="Line-Copy-39" fill="#4285F4"></path>
                        <path d="M24.5591293,38.2740214 L12.6909974,24.0794878 C12.60191,23.9729373 12.4441778,23.9595102 12.3386929,24.0494976 C12.2332079,24.1394849 12.2199151,24.2988103 12.3090026,24.4053607 L24.1771345,38.5998944 C24.2662219,38.7064448 24.423954,38.7198719 24.529439,38.6298846 C24.6349239,38.5398972 24.6482167,38.3805719 24.5591293,38.2740214 Z" id="Line-Copy-40" fill="#4285F4"></path>
                        <path d="M48.5,24.2424242 C48.5,24.2424242 46.5196234,0 24.5,0 C2.4803766,1.36193239e-15 0.5,24.2424242 0.5,24.2424242 C0.5,24.2424242 2.81355711,23.00554 6.33428965,23.00554 C9.85502219,23.00554 12.4336836,24.2424242 12.4336836,24.2424242 C12.4336836,24.2424242 17.4107683,22.038268 24.5,22.038268 C31.5892317,22.038268 36.3850865,24.2424242 36.3850865,24.2424242 C36.3850865,24.2424242 38.9662002,23.00554 42.3967571,23.00554 C45.8273141,23.00554 48.5,24.2424242 48.5,24.2424242 Z" id="Oval-2" stroke="#4285F4" stroke-width="0.5" fill="url(#linearGradient-5)"></path>
                        <path d="M20.3784154,0.267480036 C20.3096523,0.309200595 20.1848547,0.390563717 20.012021,0.512178759 C19.7264205,0.713142526 19.4088403,0.955551187 19.0672871,1.24002598 C18.0934068,2.05115709 17.1202015,3.03780336 16.2119894,4.20503671 C14.4660174,6.44895821 13.1727742,9.08469081 12.5214677,12.1247902 C11.5362652,16.723414 11.4780206,20.3342598 11.9728692,22.9791121 C12.03796,23.3270071 12.1079345,23.6253164 12.1782317,23.8743091 C12.2211794,24.02643 12.2553282,24.1297957 12.2761134,24.1846817 C12.3254431,24.3149426 12.4699741,24.3801464 12.5989323,24.3303184 C12.7278906,24.2804904 12.7924423,24.1344996 12.7431126,24.0042387 C12.7275114,23.9630418 12.6979837,23.8736637 12.6590617,23.7358019 C12.5929094,23.5014902 12.5264345,23.2181003 12.4641723,22.8853235 C11.9818424,20.3073807 12.038987,16.7647316 13.010156,12.2316118 C13.6446223,9.27011683 14.9040301,6.70334357 16.6051037,4.51712545 C17.4900278,3.3798219 18.4380399,2.41871671 19.3853769,1.62969318 C19.7162498,1.35411384 20.0230653,1.11992184 20.2978199,0.926589838 C20.4611992,0.811627419 20.5765537,0.736420811 20.6358718,0.700430794 C20.7542323,0.628618031 20.7925489,0.473482956 20.7214542,0.353926905 C20.6503596,0.234370855 20.4967759,0.195667273 20.3784154,0.267480036 Z" id="Line" fill="#4285F4"></path>
                        <path d="M28.3712718,0.700430794 C28.4305899,0.736420811 28.5459444,0.811627419 28.7093237,0.926589838 C28.9840783,1.11992184 29.2908938,1.35411384 29.6217667,1.62969318 C30.5691037,2.41871671 31.5171158,3.3798219 32.4020399,4.51712545 C34.1031135,6.70334357 35.3625213,9.27011683 35.9969876,12.2316118 C36.9624466,16.7380791 37.0052474,20.286397 36.5018211,22.8925152 C36.434783,23.2395555 36.3631989,23.5354875 36.2919483,23.7805114 C36.2499936,23.9247896 36.2181326,24.0185363 36.2012421,24.0619444 C36.1507357,24.1917444 36.2139636,24.3383251 36.3424656,24.3893417 C36.4709676,24.4403583 36.6160825,24.3764917 36.6665889,24.2466917 C36.6888582,24.1894603 36.7255269,24.0815675 36.7716816,23.9228458 C36.8472802,23.6628698 36.9225453,23.3517205 36.9925664,22.9892377 C37.5090554,20.3154972 37.4654193,16.6979327 36.4856759,12.1247902 C35.8343694,9.08469081 34.5411262,6.44895821 32.7951542,4.20503671 C31.8869421,3.03780336 30.9137368,2.05115709 29.9398565,1.24002598 C29.5983033,0.955551187 29.2807231,0.713142526 28.9951226,0.512178759 C28.8222889,0.390563717 28.6974913,0.309200595 28.6287282,0.267480036 C28.5103677,0.195667273 28.356784,0.234370855 28.2856894,0.353926905 C28.2145947,0.473482956 28.2529113,0.628618031 28.3712718,0.700430794 Z" id="Line-Copy-41" fill="#4285F4"></path>
                    </g>
                    <g id="Group-22-Copy-2" transform="translate(618.738759, 189.070726) rotate(-12.000000) translate(-618.738759, -189.070726) translate(594.238759, 164.070726)">
                        <use id="Rectangle-6" stroke="#4285F4" mask="url(#mask-7)" fill-opacity="0.1" fill="#4285F4" xlink:href="#path-6"></use>
                        <path d="M24.3786154,39.3654532 L48.6476565,24.6582741 C48.7660544,24.5865243 48.8044518,24.4314096 48.7334195,24.3118158 C48.6623872,24.1922219 48.5088236,24.1534367 48.3904257,24.2251865 L24.1213846,38.9323656 C24.0029867,39.0041154 23.9645893,39.1592301 24.0356216,39.278824 C24.1066539,39.3984178 24.2602175,39.437203 24.3786154,39.3654532 Z" id="Line" fill="#4285F4"></path>
                        <path d="M24.6280076,38.7095136 L0.610955005,24.2483354 C0.492356371,24.1769247 0.338902221,24.2161492 0.268205568,24.3359458 C0.197508916,24.4557424 0.236341144,24.6107465 0.354939779,24.6821573 L24.3719924,39.1433355 C24.490591,39.2147463 24.6440452,39.1755218 24.7147418,39.0557252 C24.7854385,38.9359286 24.7466062,38.7809244 24.6280076,38.7095136 Z" id="Line-Copy-38" fill="#4285F4"></path>
                        <path d="M24.6916639,38.8141626 L36.6190016,24.4283578 C36.7076513,24.3214355 36.6937053,24.1621671 36.5878522,24.0726219 C36.4819992,23.9830766 36.3243235,23.9971635 36.2356737,24.1040858 L24.3083361,38.4898906 C24.2196863,38.5968129 24.2336323,38.7560813 24.3394854,38.8456265 C24.4453385,38.9351717 24.6030142,38.9210848 24.6916639,38.8141626 Z" id="Line-Copy-39" fill="#4285F4"></path>
                        <path d="M24.5591293,38.2740214 L12.6909974,24.0794878 C12.60191,23.9729373 12.4441778,23.9595102 12.3386929,24.0494976 C12.2332079,24.1394849 12.2199151,24.2988103 12.3090026,24.4053607 L24.1771345,38.5998944 C24.2662219,38.7064448 24.423954,38.7198719 24.529439,38.6298846 C24.6349239,38.5398972 24.6482167,38.3805719 24.5591293,38.2740214 Z" id="Line-Copy-40" fill="#4285F4"></path>
                        <path d="M48.5,24.2424242 C48.5,24.2424242 46.5196234,0 24.5,0 C2.4803766,1.36193239e-15 0.5,24.2424242 0.5,24.2424242 C0.5,24.2424242 2.81355711,23.00554 6.33428965,23.00554 C9.85502219,23.00554 12.4336836,24.2424242 12.4336836,24.2424242 C12.4336836,24.2424242 17.4107683,22.038268 24.5,22.038268 C31.5892317,22.038268 36.3850865,24.2424242 36.3850865,24.2424242 C36.3850865,24.2424242 38.9662002,23.00554 42.3967571,23.00554 C45.8273141,23.00554 48.5,24.2424242 48.5,24.2424242 Z" id="Oval-2" stroke="#4285F4" stroke-width="0.5" fill="url(#linearGradient-5)"></path>
                        <path d="M20.3784154,0.267480036 C20.3096523,0.309200595 20.1848547,0.390563717 20.012021,0.512178759 C19.7264205,0.713142526 19.4088403,0.955551187 19.0672871,1.24002598 C18.0934068,2.05115709 17.1202015,3.03780336 16.2119894,4.20503671 C14.4660174,6.44895821 13.1727742,9.08469081 12.5214677,12.1247902 C11.5362652,16.723414 11.4780206,20.3342598 11.9728692,22.9791121 C12.03796,23.3270071 12.1079345,23.6253164 12.1782317,23.8743091 C12.2211794,24.02643 12.2553282,24.1297957 12.2761134,24.1846817 C12.3254431,24.3149426 12.4699741,24.3801464 12.5989323,24.3303184 C12.7278906,24.2804904 12.7924423,24.1344996 12.7431126,24.0042387 C12.7275114,23.9630418 12.6979837,23.8736637 12.6590617,23.7358019 C12.5929094,23.5014902 12.5264345,23.2181003 12.4641723,22.8853235 C11.9818424,20.3073807 12.038987,16.7647316 13.010156,12.2316118 C13.6446223,9.27011683 14.9040301,6.70334357 16.6051037,4.51712545 C17.4900278,3.3798219 18.4380399,2.41871671 19.3853769,1.62969318 C19.7162498,1.35411384 20.0230653,1.11992184 20.2978199,0.926589838 C20.4611992,0.811627419 20.5765537,0.736420811 20.6358718,0.700430794 C20.7542323,0.628618031 20.7925489,0.473482956 20.7214542,0.353926905 C20.6503596,0.234370855 20.4967759,0.195667273 20.3784154,0.267480036 Z" id="Line" fill="#4285F4"></path>
                        <path d="M28.3712718,0.700430794 C28.4305899,0.736420811 28.5459444,0.811627419 28.7093237,0.926589838 C28.9840783,1.11992184 29.2908938,1.35411384 29.6217667,1.62969318 C30.5691037,2.41871671 31.5171158,3.3798219 32.4020399,4.51712545 C34.1031135,6.70334357 35.3625213,9.27011683 35.9969876,12.2316118 C36.9624466,16.7380791 37.0052474,20.286397 36.5018211,22.8925152 C36.434783,23.2395555 36.3631989,23.5354875 36.2919483,23.7805114 C36.2499936,23.9247896 36.2181326,24.0185363 36.2012421,24.0619444 C36.1507357,24.1917444 36.2139636,24.3383251 36.3424656,24.3893417 C36.4709676,24.4403583 36.6160825,24.3764917 36.6665889,24.2466917 C36.6888582,24.1894603 36.7255269,24.0815675 36.7716816,23.9228458 C36.8472802,23.6628698 36.9225453,23.3517205 36.9925664,22.9892377 C37.5090554,20.3154972 37.4654193,16.6979327 36.4856759,12.1247902 C35.8343694,9.08469081 34.5411262,6.44895821 32.7951542,4.20503671 C31.8869421,3.03780336 30.9137368,2.05115709 29.9398565,1.24002598 C29.5983033,0.955551187 29.2807231,0.713142526 28.9951226,0.512178759 C28.8222889,0.390563717 28.6974913,0.309200595 28.6287282,0.267480036 C28.5103677,0.195667273 28.356784,0.234370855 28.2856894,0.353926905 C28.2145947,0.473482956 28.2529113,0.628618031 28.3712718,0.700430794 Z" id="Line-Copy-41" fill="#4285F4"></path>
                    </g>
                    <g id="Group-22-Copy" transform="translate(778.769997, 33.011842) rotate(-25.000000) translate(-778.769997, -33.011842) translate(754.269997, 8.011842)">
                        <use id="Rectangle-6" stroke="#4285F4" mask="url(#mask-9)" fill-opacity="0.1" fill="#4285F4" xlink:href="#path-8"></use>
                        <path d="M24.3786154,39.3654532 L48.6476565,24.6582741 C48.7660544,24.5865243 48.8044518,24.4314096 48.7334195,24.3118158 C48.6623872,24.1922219 48.5088236,24.1534367 48.3904257,24.2251865 L24.1213846,38.9323656 C24.0029867,39.0041154 23.9645893,39.1592301 24.0356216,39.278824 C24.1066539,39.3984178 24.2602175,39.437203 24.3786154,39.3654532 Z" id="Line" fill="#4285F4"></path>
                        <path d="M24.6280076,38.7095136 L0.610955005,24.2483354 C0.492356371,24.1769247 0.338902221,24.2161492 0.268205568,24.3359458 C0.197508916,24.4557424 0.236341144,24.6107465 0.354939779,24.6821573 L24.3719924,39.1433355 C24.490591,39.2147463 24.6440452,39.1755218 24.7147418,39.0557252 C24.7854385,38.9359286 24.7466062,38.7809244 24.6280076,38.7095136 Z" id="Line-Copy-38" fill="#4285F4"></path>
                        <path d="M24.6916639,38.8141626 L36.6190016,24.4283578 C36.7076513,24.3214355 36.6937053,24.1621671 36.5878522,24.0726219 C36.4819992,23.9830766 36.3243235,23.9971635 36.2356737,24.1040858 L24.3083361,38.4898906 C24.2196863,38.5968129 24.2336323,38.7560813 24.3394854,38.8456265 C24.4453385,38.9351717 24.6030142,38.9210848 24.6916639,38.8141626 Z" id="Line-Copy-39" fill="#4285F4"></path>
                        <path d="M24.5591293,38.2740214 L12.6909974,24.0794878 C12.60191,23.9729373 12.4441778,23.9595102 12.3386929,24.0494976 C12.2332079,24.1394849 12.2199151,24.2988103 12.3090026,24.4053607 L24.1771345,38.5998944 C24.2662219,38.7064448 24.423954,38.7198719 24.529439,38.6298846 C24.6349239,38.5398972 24.6482167,38.3805719 24.5591293,38.2740214 Z" id="Line-Copy-40" fill="#4285F4"></path>
                        <path d="M48.5,24.2424242 C48.5,24.2424242 46.5196234,0 24.5,0 C2.4803766,1.36193239e-15 0.5,24.2424242 0.5,24.2424242 C0.5,24.2424242 2.81355711,23.00554 6.33428965,23.00554 C9.85502219,23.00554 12.4336836,24.2424242 12.4336836,24.2424242 C12.4336836,24.2424242 17.4107683,22.038268 24.5,22.038268 C31.5892317,22.038268 36.3850865,24.2424242 36.3850865,24.2424242 C36.3850865,24.2424242 38.9662002,23.00554 42.3967571,23.00554 C45.8273141,23.00554 48.5,24.2424242 48.5,24.2424242 Z" id="Oval-2" stroke="#4285F4" stroke-width="0.5" fill="url(#linearGradient-5)"></path>
                        <path d="M20.3784154,0.267480036 C20.3096523,0.309200595 20.1848547,0.390563717 20.012021,0.512178759 C19.7264205,0.713142526 19.4088403,0.955551187 19.0672871,1.24002598 C18.0934068,2.05115709 17.1202015,3.03780336 16.2119894,4.20503671 C14.4660174,6.44895821 13.1727742,9.08469081 12.5214677,12.1247902 C11.5362652,16.723414 11.4780206,20.3342598 11.9728692,22.9791121 C12.03796,23.3270071 12.1079345,23.6253164 12.1782317,23.8743091 C12.2211794,24.02643 12.2553282,24.1297957 12.2761134,24.1846817 C12.3254431,24.3149426 12.4699741,24.3801464 12.5989323,24.3303184 C12.7278906,24.2804904 12.7924423,24.1344996 12.7431126,24.0042387 C12.7275114,23.9630418 12.6979837,23.8736637 12.6590617,23.7358019 C12.5929094,23.5014902 12.5264345,23.2181003 12.4641723,22.8853235 C11.9818424,20.3073807 12.038987,16.7647316 13.010156,12.2316118 C13.6446223,9.27011683 14.9040301,6.70334357 16.6051037,4.51712545 C17.4900278,3.3798219 18.4380399,2.41871671 19.3853769,1.62969318 C19.7162498,1.35411384 20.0230653,1.11992184 20.2978199,0.926589838 C20.4611992,0.811627419 20.5765537,0.736420811 20.6358718,0.700430794 C20.7542323,0.628618031 20.7925489,0.473482956 20.7214542,0.353926905 C20.6503596,0.234370855 20.4967759,0.195667273 20.3784154,0.267480036 Z" id="Line" fill="#4285F4"></path>
                        <path d="M28.3712718,0.700430794 C28.4305899,0.736420811 28.5459444,0.811627419 28.7093237,0.926589838 C28.9840783,1.11992184 29.2908938,1.35411384 29.6217667,1.62969318 C30.5691037,2.41871671 31.5171158,3.3798219 32.4020399,4.51712545 C34.1031135,6.70334357 35.3625213,9.27011683 35.9969876,12.2316118 C36.9624466,16.7380791 37.0052474,20.286397 36.5018211,22.8925152 C36.434783,23.2395555 36.3631989,23.5354875 36.2919483,23.7805114 C36.2499936,23.9247896 36.2181326,24.0185363 36.2012421,24.0619444 C36.1507357,24.1917444 36.2139636,24.3383251 36.3424656,24.3893417 C36.4709676,24.4403583 36.6160825,24.3764917 36.6665889,24.2466917 C36.6888582,24.1894603 36.7255269,24.0815675 36.7716816,23.9228458 C36.8472802,23.6628698 36.9225453,23.3517205 36.9925664,22.9892377 C37.5090554,20.3154972 37.4654193,16.6979327 36.4856759,12.1247902 C35.8343694,9.08469081 34.5411262,6.44895821 32.7951542,4.20503671 C31.8869421,3.03780336 30.9137368,2.05115709 29.9398565,1.24002598 C29.5983033,0.955551187 29.2807231,0.713142526 28.9951226,0.512178759 C28.8222889,0.390563717 28.6974913,0.309200595 28.6287282,0.267480036 C28.5103677,0.195667273 28.356784,0.234370855 28.2856894,0.353926905 C28.2145947,0.473482956 28.2529113,0.628618031 28.3712718,0.700430794 Z" id="Line-Copy-41" fill="#4285F4"></path>
                    </g>
                </g>
            </g>
        </g>
    </g>
</svg>