<?xml version="1.0" encoding="UTF-8"?>
<svg width="1440px" height="580px" viewBox="0 0 1440 580" version="1.1" xmlns="http://www.w3.org/2000/svg" xmlns:xlink="http://www.w3.org/1999/xlink">
    <!-- Generator: Sketch Beta 41.2 (35396) - http://www.bohemiancoding.com/sketch -->
    <title>gsx_landscape</title>
    <desc>Created with Sketch Beta.</desc>
    <defs>
        <linearGradient x1="0%" y1="100%" x2="100%" y2="100%" id="linearGradient-1">
            <stop stop-color="#7ED321" offset="0%"></stop>
            <stop stop-color="#6F8FC1" offset="100%"></stop>
        </linearGradient>
        <linearGradient x1="100%" y1="100%" x2="0%" y2="100%" id="linearGradient-2">
            <stop stop-color="#9FDE59" offset="0%"></stop>
            <stop stop-color="#6F8FC1" offset="100%"></stop>
        </linearGradient>
        <rect id="path-3" x="19" y="38.8888889" width="11" height="11.1111111" rx="2"></rect>
        <mask id="mask-4" maskContentUnits="userSpaceOnUse" maskUnits="objectBoundingBox" x="0" y="0" width="11" height="11.1111111" fill="white">
            <use xlink:href="#path-3"></use>
        </mask>
        <linearGradient x1="50%" y1="0%" x2="50%" y2="100%" id="linearGradient-5">
            <stop stop-color="#4285F4" stop-opacity="0.2" offset="0%"></stop>
            <stop stop-color="#419BF9" stop-opacity="0" offset="100%"></stop>
        </linearGradient>
        <rect id="path-6" x="19" y="38.8888889" width="11" height="11.1111111" rx="2"></rect>
        <mask id="mask-7" maskContentUnits="userSpaceOnUse" maskUnits="objectBoundingBox" x="0" y="0" width="11" height="11.1111111" fill="white">
            <use xlink:href="#path-6"></use>
        </mask>
        <rect id="path-8" x="19" y="38.8888889" width="11" height="11.1111111" rx="2"></rect>
        <mask id="mask-9" maskContentUnits="userSpaceOnUse" maskUnits="objectBoundingBox" x="0" y="0" width="11" height="11.1111111" fill="white">
            <use xlink:href="#path-8"></use>
        </mask>
        <linearGradient x1="0%" y1="0%" x2="69.2665245%" y2="100%" id="linearGradient-10">
            <stop stop-color="#99D465" offset="0%"></stop>
            <stop stop-color="#6F8FC1" offset="100%"></stop>
        </linearGradient>
    </defs>
    <g id="portfolio-concept" stroke="none" stroke-width="1" fill="none" fill-rule="evenodd">
        <g id="Artboard">
            <g id="gsx_landscape">
                <g id="Group-7">
                    <g id="Group-3">
                        <rect id="Rectangle-5" fill="#FFFFFF" x="0" y="0" width="1440" height="580"></rect>
                        <g id="Group-2" transform="translate(0.000000, 132.000000)">
                            <g id="Group" transform="translate(0.000000, 55.000000)">
                                <path d="M-1.13686838e-13,0 C-6.76578298e-14,124.041464 10.7501642,195.577885 109.154042,271.927996 C142.174495,297.548076 183.212802,294.187637 183.212802,294.187637 L1261.06137,294.187637 C1261.06137,294.187637 1315.12107,295.69704 1322.60285,297.548076 C1393.61051,315.115781 1440,392.937863 1440,392.937863" id="Line" stroke="url(#linearGradient-1)" stroke-linecap="round" stroke-linejoin="round"></path>
                                <path d="M736.7,263.730469 L736.7,228.15625 L751.4,228.15625 L751.4,249.924764 C748.113147,254.307914 744.960686,258.979966 741.80194,263.730469 L736.7,263.730469 Z M508.9,263.730469 L508.9,257.350945 C503.375164,256.662777 499.1,251.95509 499.1,246.25 C499.1,240.54491 503.375164,235.837223 508.9,235.149055 L508.9,200.800781 L570.5,200.800781 L570.5,225.922725 C575.261414,223.165316 580.590773,221.58016 586.717323,221.58016 C610.083435,221.58016 624.436616,238.253517 632.962002,255.013607 C639.876531,249.350471 647.334035,244.155583 655.1,240.199431 L655.1,206.025951 C655.622804,206.397719 656.492479,206.757812 657.9,206.757812 C660.809376,206.757812 661.420762,205.219287 661.420762,205.219287 C662.22932,204.390045 662.8,202.703055 662.8,201.542 L662.8,180.1875 L658.95,180.1875 L663.55,180.1875 L655.1,180.1875 L663.566158,169 L672,169 L672,125 L753.2,125 L753.2,189 L783.6,189 L783.6,224.915889 C787.128384,224.001196 790.909273,223.50751 794.991248,223.50751 C818.937662,223.50751 835.105673,245.200344 844.548245,263.730469 L847.811087,263.730469 C854.515224,253.663611 861.150801,243.534301 868,237.684333 L868,208.231894 L927.5,208.231894 L927.5,208.231894 L868,208.231894 L876.466158,200.800781 L922.872177,200.800781 L927.5,203.758332 L927.5,175.628906 L963.592578,175.628906 L963.592578,115.105078 L1039.80742,115.105078 L1039.80742,188.914062 L1040.2,188.914062 L1040.2,189 L1072.4397,189 C1072.34059,187.142349 1070.90223,152.890669 1099.44982,150.579558 C1099.16527,150.141756 1099,149.619454 1099,149.058594 C1099,148.023208 1099.56324,147.119227 1100.40036,146.635684 C1100.40012,146.626339 1100.4,146.616961 1100.4,146.607551 L1100.4,129.134636 C1100.4,128.553299 1100.86236,128.082031 1101.44262,128.082031 L1102.15738,128.082031 C1102.7332,128.082031 1103.2,128.546677 1103.2,129.134636 L1103.2,146.607551 C1103.2,146.616957 1103.19988,146.626335 1103.19964,146.635682 C1104.03676,147.119223 1104.6,148.023206 1104.6,149.058594 C1104.6,149.582102 1104.45601,150.072017 1104.20543,150.490978 C1135.00643,151.775387 1130.54419,189.078441 1130.54419,189.078441 L1130.5,189.078441 L1130.5,216.219601 C1134.58453,215.163728 1139.24947,214.587973 1144.61732,214.587973 C1163.00057,214.587973 1175.80507,224.908332 1184.58188,237.471761 C1182.88139,240.370359 1181.6,243.338265 1181.6,245.550781 C1181.6,251.255872 1185.87516,255.963558 1191.4,256.651727 L1191.4,263.730469 L1193.5,263.730469 L1193.5,256.716786 C1199.35951,256.355852 1204,251.494634 1204,245.550781 C1204,244.481757 1203.70085,243.236382 1203.19983,241.907684 C1208.26292,236.33045 1213.41222,232.634467 1218.76568,232.634467 C1229.46843,232.634467 1242.15803,249.649358 1250.82711,263.730469 L1256.88722,263.730469 L1256.88722,274.166961 C1259.50704,278.944119 1261.06233,282.147503 1261.06233,282.147503 L1256.88722,282.147503 L1256.88722,294.237124 L179,294.237124 L179,263.730469 L201.392981,263.730469 C205.980723,257.150736 210.559631,250.580375 215.080059,244.673621 C214.963166,245.2303 214.9,245.758768 214.9,246.25 C214.9,251.302152 218.252591,255.572139 222.856717,256.961249 C221.914429,258.672805 221.037037,260.54704 221.037037,261.591969 C221.037037,262.375966 221.258169,263.108396 221.641555,263.73047 L228.617705,263.730469 C229.00109,263.108395 229.222222,262.375966 229.222222,261.591969 C229.222222,260.623081 228.467882,258.941194 227.606912,257.337107 C233.079892,256.601913 237.3,251.918236 237.3,246.25 C237.3,241.537659 231.487262,233.398653 228.192843,229.800913 C233.309001,225.139522 238.277278,222.279379 243.017323,222.279379 C259.418163,222.279379 271.378571,230.493902 280,241.187109 L280,200.101562 L321,200.101562 L321,196.320312 L360.5,196.320312 L360.5,201.007812 L360.5,200.101562 L321,200.101562 L321,125 L402.2,125 L402.2,163.042969 L424.2,163.042969 L424.2,125.285156 L508.9,125.285156 L508.9,235.149055 C509.358632,235.091928 509.825876,235.0625 510.3,235.0625 C516.485589,235.0625 521.5,240.071314 521.5,246.25 C521.5,252.193853 516.859511,257.05507 511,257.416005 L511,254.633751 C511.065975,254.585312 511.127252,254.528264 511.182205,254.462773 L515.684549,249.09709 C516.057016,248.6532 515.994678,247.996144 515.55045,247.623392 C515.103124,247.248042 514.446023,247.306087 514.075855,247.747236 L511,251.412897 L511,248.701043 C511,248.113083 510.529899,247.648438 509.95,247.648438 C509.366058,247.648438 508.9,248.119705 508.9,248.701043 L508.9,261.762451 L508.9,263.730469 L508.9,263.730469 Z M968.1,263.730469 L1001.7,263.730469 L1001.7,226.517773 L1001.7,263.730469 L1020.85,263.730469 L968.1,263.730469 Z M1054.7,263.730469 L1054.7,228.15625 L1069.4,228.15625 L1069.4,263.730469 L1054.7,263.730469 Z M1072.9,263.730469 L1072.9,228.15625 L1087.6,228.15625 L1087.6,263.730469 L1072.9,263.730469 Z M905.1,263.730469 L905.1,257.350945 C899.575164,256.662777 895.3,251.95509 895.3,246.25 C895.3,240.071314 900.314411,235.0625 906.5,235.0625 C912.685589,235.0625 917.7,240.071314 917.7,246.25 C917.7,252.193853 913.059511,257.05507 907.2,257.416005 L907.2,263.730469 L905.1,263.730469 Z M361.2,263.730469 L361.2,257.416005 C367.059511,257.05507 371.7,252.193853 371.7,246.25 C371.7,240.071314 361.706914,228.001607 360.5,228.001607 L360.5,224.574219 L280,224.574219 L280,230.867188 L357.470716,230.867188 C354.121366,234.824318 349.3,241.95828 349.3,246.25 C349.3,251.95509 353.575164,256.662777 359.1,257.350945 L359.1,263.730469 L326.016846,263.730469 L361.2,263.730469 Z M864.079763,263.730469 C863.479829,263.181653 863.103704,262.39324 863.103704,261.517186 C863.103704,259.859144 866.112963,255.359088 866.112963,255.359088 C866.112963,255.359088 867.144754,256.902032 868,258.513854 L868,263.730469 L864.079763,263.730469 Z M1207.64616,263.730469 C1208.2461,263.181653 1208.62222,262.39324 1208.62222,261.517186 C1208.62222,259.859144 1205.61296,255.359088 1205.61296,255.359088 C1205.61296,255.359088 1202.6037,259.859144 1202.6037,261.517186 C1202.6037,262.39324 1202.97983,263.181653 1203.57976,263.730469 L1207.64616,263.730469 Z M571.774408,263.730469 C572.485065,262.995443 572.922222,261.995069 572.922222,260.89275 C572.922222,258.635971 568.82963,252.510894 568.82963,252.510894 C568.82963,252.510894 564.737037,258.635971 564.737037,260.89275 C564.737037,261.995069 565.174194,262.995443 565.884851,263.730469 L571.774408,263.730469 Z M1168.02303,263.730469 C1166.8952,261.036789 1164.50741,257.463159 1164.50741,257.463159 C1164.50741,257.463159 1162.11962,261.036789 1160.99178,263.730469 L1168.02303,263.730469 Z M813.945379,263.730469 C813.418323,262.88351 813.05,262.332031 813.05,262.332031 C813.05,262.332031 812.681677,262.88351 812.154621,263.730469 L813.945379,263.730469 Z M769.6,231.394636 L769.6,228.15625 L754.9,228.15625 L754.9,245.445742 C759.374639,239.973324 764.167555,235.129418 769.6,231.394636 Z M773.1,215.370536 L773.1,219.765625 L766.8,219.765625 L766.8,215.370536 C766.8,214.708534 768.210303,214.171875 769.95,214.171875 C771.689697,214.171875 773.1,214.708534 773.1,215.370536 Z M756.3,215.370536 L756.3,219.765625 L750,219.765625 L750,215.370536 C750,214.708534 751.410303,214.171875 753.15,214.171875 C754.889697,214.171875 756.3,214.708534 756.3,215.370536 Z M739.5,215.370536 L739.5,219.765625 L733.2,219.765625 L733.2,215.370536 C733.2,214.708534 734.610303,214.171875 736.35,214.171875 C738.089697,214.171875 739.5,214.708534 739.5,215.370536 Z M1091.1,215.370536 L1091.1,219.765625 L1084.8,219.765625 L1084.8,215.370536 C1084.8,214.708534 1086.2103,214.171875 1087.95,214.171875 C1089.6897,214.171875 1091.1,214.708534 1091.1,215.370536 Z M1074.3,215.370536 L1074.3,219.765625 L1068,219.765625 L1068,215.370536 C1068,214.708534 1069.4103,214.171875 1071.15,214.171875 C1072.8897,214.171875 1074.3,214.708534 1074.3,215.370536 Z M1057.5,215.370536 L1057.5,219.765625 L1051.2,219.765625 L1051.2,215.370536 C1051.2,214.708534 1052.6103,214.171875 1054.35,214.171875 C1056.0897,214.171875 1057.5,214.708534 1057.5,215.370536 Z M1101.6,259.535547 L1137.15,259.535547 L1137.15,258.835547 L1101.6,258.835547 L1101.6,259.535547 Z M1101.6,256.039453 L1137.15,256.039453 L1137.15,255.339453 L1101.6,255.339453 L1101.6,256.039453 Z M1101.6,252.542969 L1122.8,252.542969 L1122.8,235.511998 C1122.8,232.97217 1113.42985,230.908465 1101.8,230.867799 L1101.8,221.777344 L1101.8,189.078441 L1101.6,189.078441 L1101.6,252.542969 Z M1101.6,263.031641 L1137.15,263.031641 L1137.15,262.331641 L1101.6,262.331641 L1101.6,263.031641 Z M1113.7,199.402344 L1113.7,207.09375 L1107.4,207.09375 L1107.4,199.402344 C1107.4,198.24384 1108.8103,197.304688 1110.55,197.304688 C1112.2897,197.304688 1113.7,198.24384 1113.7,199.402344 Z M1125.6,199.402344 L1125.6,207.09375 L1119.3,207.09375 L1119.3,199.402344 C1119.3,198.24384 1120.7103,197.304688 1122.45,197.304688 C1124.1897,197.304688 1125.6,198.24384 1125.6,199.402344 Z M990.707474,175.628906 L990.707474,115.105078 L996.570155,115.105078 L996.570155,175.628906 L990.707474,175.628906 Z M973.852269,175.628906 L973.852269,115.105078 L979.714949,115.105078 L979.714949,175.628906 L973.852269,175.628906 Z M927.5,208.231894 L924.7,208.231894 L924.7,218.012483 C924.7,219.176498 925.521403,220.551412 926.534656,221.097858 C926.534656,221.097858 926.603352,221.356403 927.5,221.53032 L927.5,208.231894 Z M1024.41789,188.914062 L1024.41789,115.105078 L1030.28057,115.105078 L1030.28057,188.914062 L1024.41789,188.914062 Z M1007.56268,188.914062 L1007.56268,115.105078 L1013.42536,115.105078 L1013.42536,188.914062 L1007.56268,188.914062 Z M360.5,180.238281 L321,180.238281 L321,185.832031 L360.5,185.832031 L360.5,180.238281 Z M360.5,164.15625 L321,164.15625 L321,169.75 L360.5,169.75 L360.5,164.15625 Z M442.4,180.1875 L508.6,180.1875 L496.972177,169 L450.566158,169 L442.4,179.791069 L442.4,180.1875 L449.8,180.1875 L449.8,201.542 C449.8,202.703055 449.22932,204.390045 448.420762,205.219287 C448.420762,205.219287 447.809376,206.757812 444.9,206.757812 C443.733468,206.757812 442.936374,206.51047 442.4,206.214133 L442.4,180.1875 Z M689.980295,243.561544 L683.811262,250.316864 L683.365414,239.691076 C681.886599,238.870932 681.181129,237.076466 681.777205,235.43876 C682.437591,233.624364 684.445441,232.689453 686.261864,233.350577 C686.92225,231.536181 688.9301,230.60127 690.746522,231.262394 C692.562945,231.923518 693.500098,233.930322 692.839712,235.744718 C692.666676,236.22013 692.401129,236.635161 692.070755,236.976919 C693.643053,237.75963 694.411133,239.613928 693.796823,241.301729 C693.216713,242.895568 691.596821,243.810746 689.980295,243.561544 Z M710.751696,169.75 L753.2,169.75 L753.2,164.15625 L672,164.15625 L672,169 L709.972177,169 L710.751696,169.75 Z M721.6,180.238281 L753.2,180.238281 L753.2,185.832031 L721.6,185.832031 L721.6,180.238281 Z M476.980295,243.561544 L470.811262,250.316864 L470.365414,239.691076 C468.886599,238.870932 468.181129,237.076466 468.777205,235.43876 C469.437591,233.624364 471.445441,232.689453 473.261864,233.350577 C473.92225,231.536181 475.9301,230.60127 477.746522,231.262394 C479.562945,231.923518 480.500098,233.930322 479.839712,235.744718 C479.666676,236.22013 479.401129,236.635161 479.070755,236.976919 C480.643053,237.75963 481.411133,239.613928 480.796823,241.301729 C480.216713,242.895568 478.596821,243.810746 476.980295,243.561544 Z M468.241208,117.521834 L468.241208,114.796875 L464.8,114.796875 L464.8,117.521834 L462.17979,117.521834 L462.17979,121.103034 L464.8,121.103034 L464.8,123.390294 L468.241208,123.390294 L468.241208,121.103034 L470.77321,121.103034 L470.77321,117.521834 L468.241208,117.521834 Z M555.8,239.691684 L555.8,228.070312 L539.7,228.070312 L539.7,263.730469 L540.969365,263.730469 C545.744373,255.111879 550.468044,246.702936 555.8,239.691684 Z M534.8,238.708421 L534.8,236.537909 L525.7,242.909798 L525.7,245.08031 L534.8,238.708421 Z M534.8,242.131659 L534.8,246.253998 C534.8,247.410294 533.860415,248.347656 532.70085,248.347656 L527.79915,248.347656 C527.322418,248.347656 526.882803,248.189153 526.530394,247.9221 L534.8,242.131659 Z M534.8,233.114671 L534.8,230.944159 L525.7,237.316048 L525.7,239.48656 L534.8,233.114671 Z M533.674778,228.308811 C533.383701,228.156487 533.052366,228.070312 532.70085,228.070312 L527.79915,228.070312 C526.639585,228.070312 525.7,229.007675 525.7,230.163971 L525.7,233.89281 L533.674778,228.308811 Z M508.9,200.800781 L570.5,200.800781 L570.5,214.085938 L508.9,214.085938 L508.9,200.800781 Z M1223.66852,252.972605 C1225.33049,252.972605 1226.67778,251.628496 1226.67778,249.970454 C1226.67778,248.312413 1223.66852,243.812357 1223.66852,243.812357 C1223.66852,243.812357 1220.65926,248.312413 1220.65926,249.970454 C1220.65926,251.628496 1222.00655,252.972605 1223.66852,252.972605 Z M593.385185,249.262625 C595.645462,249.262625 597.477778,247.433144 597.477778,245.176365 C597.477778,242.919586 593.385185,236.79451 593.385185,236.79451 C593.385185,236.79451 589.292593,242.919586 589.292593,245.176365 C589.292593,247.433144 591.124909,249.262625 593.385185,249.262625 Z M617.940741,258.718115 C620.201017,258.718115 622.033333,256.888634 622.033333,254.631855 C622.033333,252.375076 617.940741,246.25 617.940741,246.25 C617.940741,246.25 613.848148,252.375076 613.848148,254.631855 C613.848148,256.888634 615.680464,258.718115 617.940741,258.718115 Z M1175.84074,251.725928 C1178.10102,251.725928 1179.93333,249.896447 1179.93333,247.639668 C1179.93333,245.382889 1175.84074,239.257812 1175.84074,239.257812 C1175.84074,239.257812 1171.74815,245.382889 1171.74815,247.639668 C1171.74815,249.896447 1173.58046,251.725928 1175.84074,251.725928 Z M249.685185,249.961844 C251.945462,249.961844 253.777778,248.132363 253.777778,245.875584 C253.777778,243.618805 249.685185,237.493728 249.685185,237.493728 C249.685185,237.493728 245.592593,243.618805 245.592593,245.875584 C245.592593,248.132363 247.424909,249.961844 249.685185,249.961844 Z M274.240741,259.417334 C276.501017,259.417334 278.333333,257.587853 278.333333,255.331074 C278.333333,253.074295 274.240741,246.949219 274.240741,246.949219 C274.240741,246.949219 270.148148,253.074295 270.148148,255.331074 C270.148148,257.587853 271.980464,259.417334 274.240741,259.417334 Z M440.3,112 L489.3,112 L489.3,125.285156 L440.3,125.285156 L440.3,112 Z M483,136.472656 L489.3,136.472656 L489.3,144.164062 L483,144.164062 L483,136.472656 Z M497,136.472656 L503.3,136.472656 L503.3,144.164062 L497,144.164062 L497,136.472656 Z M483,151.15625 L489.3,151.15625 L489.3,158.847656 L483,158.847656 L483,151.15625 Z M497,151.15625 L503.3,151.15625 L503.3,158.847656 L497,158.847656 L497,151.15625 Z M456.4,136.472656 L462.7,136.472656 L462.7,144.164062 L456.4,144.164062 L456.4,136.472656 Z M470.4,136.472656 L476.7,136.472656 L476.7,144.164062 L470.4,144.164062 L470.4,136.472656 Z M456.4,151.15625 L462.7,151.15625 L462.7,158.847656 L456.4,158.847656 L456.4,151.15625 Z M470.4,151.15625 L476.7,151.15625 L476.7,158.847656 L470.4,158.847656 L470.4,151.15625 Z M429.8,136.472656 L436.1,136.472656 L436.1,144.164062 L429.8,144.164062 L429.8,136.472656 Z M443.8,136.472656 L450.1,136.472656 L450.1,144.164062 L443.8,144.164062 L443.8,136.472656 Z M429.8,151.15625 L436.1,151.15625 L436.1,158.847656 L429.8,158.847656 L429.8,151.15625 Z M443.8,151.15625 L450.1,151.15625 L450.1,158.847656 L443.8,158.847656 L443.8,151.15625 Z M321,148.074219 L402.2,148.074219 L402.2,153.667969 L321,153.667969 L321,148.074219 Z M321,131.992188 L402.2,131.992188 L402.2,137.585938 L321,137.585938 L321,131.992188 Z M672,148.074219 L753.2,148.074219 L753.2,153.667969 L672,153.667969 L672,148.074219 Z M672,131.992188 L753.2,131.992188 L753.2,137.585938 L672,137.585938 L672,131.992188 Z M479.2,180.1875 L489,180.1875 L489,201.542 C489,202.703055 488.42932,204.390045 487.620762,205.219287 C487.620762,205.219287 487.009376,206.757812 484.1,206.757812 C481.190624,206.757812 480.579238,205.219287 480.579238,205.219287 C479.817506,204.349432 479.2,202.69569 479.2,201.542 L479.2,180.1875 Z M459.6,180.1875 L469.4,180.1875 L469.4,201.542 C469.4,202.703055 468.82932,204.390045 468.020762,205.219287 C468.020762,205.219287 467.409376,206.757812 464.5,206.757812 C461.590624,206.757812 460.979238,205.219287 460.979238,205.219287 C460.217506,204.349432 459.6,202.69569 459.6,201.542 L459.6,180.1875 Z M489,180.1875 L498.8,180.1875 L498.8,201.542 C498.8,202.703055 498.22932,204.390045 497.420762,205.219287 C497.420762,205.219287 496.809376,206.757812 493.9,206.757812 C490.990624,206.757812 490.379238,205.219287 490.379238,205.219287 C489.617506,204.349432 489,202.69569 489,201.542 L489,180.1875 Z M469.4,180.1875 L479.2,180.1875 L479.2,201.542 C479.2,202.703055 478.62932,204.390045 477.820762,205.219287 C477.820762,205.219287 477.209376,206.757812 474.3,206.757812 C471.390624,206.757812 470.779238,205.219287 470.779238,205.219287 C470.017506,204.349432 469.4,202.69569 469.4,201.542 L469.4,180.1875 Z M449.8,180.1875 L459.6,180.1875 L459.6,201.542 C459.6,202.703055 459.02932,204.390045 458.220762,205.219287 C458.220762,205.219287 457.609376,206.757812 454.7,206.757812 C451.790624,206.757812 451.179238,205.219287 451.179238,205.219287 C450.417506,204.349432 449.8,202.69569 449.8,201.542 L449.8,180.1875 Z M498.8,180.1875 L508.6,180.1875 L508.6,201.542 C508.6,202.703055 508.02932,204.390045 507.220762,205.219287 C507.220762,205.219287 506.609376,206.757812 503.7,206.757812 C500.790624,206.757812 500.179238,205.219287 500.179238,205.219287 C499.417506,204.349432 498.8,202.69569 498.8,201.542 L498.8,180.1875 Z M455.4,217.246094 L493.2,217.246094 L493.2,220.742188 L455.4,220.742188 L455.4,217.246094 Z M692.2,180.1875 L702,180.1875 L702,201.542 C702,202.703055 701.42932,204.390045 700.620762,205.219287 C700.620762,205.219287 700.009376,206.757812 697.1,206.757812 C694.190624,206.757812 693.579238,205.219287 693.579238,205.219287 C692.817506,204.349432 692.2,202.69569 692.2,201.542 L692.2,180.1875 Z M672.6,180.1875 L682.4,180.1875 L682.4,201.542 C682.4,202.703055 681.82932,204.390045 681.020762,205.219287 C681.020762,205.219287 680.409376,206.757812 677.5,206.757812 C674.590624,206.757812 673.979238,205.219287 673.979238,205.219287 C673.217506,204.349432 672.6,202.69569 672.6,201.542 L672.6,180.1875 Z M702,180.1875 L711.8,180.1875 L711.8,201.542 C711.8,202.703055 711.22932,204.390045 710.420762,205.219287 C710.420762,205.219287 709.809376,206.757812 706.9,206.757812 C703.990624,206.757812 703.379238,205.219287 703.379238,205.219287 C702.617506,204.349432 702,202.69569 702,201.542 L702,180.1875 Z M682.4,180.1875 L692.2,180.1875 L692.2,201.542 C692.2,202.703055 691.62932,204.390045 690.820762,205.219287 C690.820762,205.219287 690.209376,206.757812 687.3,206.757812 C684.390624,206.757812 683.779238,205.219287 683.779238,205.219287 C683.017506,204.349432 682.4,202.69569 682.4,201.542 L682.4,180.1875 Z M662.8,180.1875 L672.6,180.1875 L672.6,201.542 C672.6,202.703055 672.02932,204.390045 671.220762,205.219287 C671.220762,205.219287 670.609376,206.757812 667.7,206.757812 C664.790624,206.757812 664.179238,205.219287 664.179238,205.219287 C663.417506,204.349432 662.8,202.69569 662.8,201.542 L662.8,180.1875 Z M711.8,180.1875 L721.6,180.1875 L721.6,201.542 C721.6,202.703055 721.02932,204.390045 720.220762,205.219287 C720.220762,205.219287 719.609376,206.757812 716.7,206.757812 C713.790624,206.757812 713.179238,205.219287 713.179238,205.219287 C712.417506,204.349432 711.8,202.69569 711.8,201.542 L711.8,180.1875 Z M668.4,217.246094 L706.2,217.246094 L706.2,220.742188 L668.4,220.742188 L668.4,217.246094 Z M370.65,193.109766 L432.25,193.109766 L432.25,192.409766 L370.65,192.409766 L370.65,193.109766 Z M401.8,170.734375 L432.6,188.214844 L371,188.214844 L401.8,170.734375 Z M383.6,200.800781 L418.6,200.800781 L418.6,251.144531 L383.6,251.144531 L383.6,200.800781 Z M383.6,251.144531 L418.6,251.144531 L418.6,253.242188 L383.6,253.242188 L383.6,251.144531 Z M383.6,254.640625 L418.6,254.640625 L418.6,256.738281 L383.6,256.738281 L383.6,254.640625 Z M383.6,258.136719 L418.6,258.136719 L418.6,260.234375 L383.6,260.234375 L383.6,258.136719 Z M310.45,231.224566 L310.45,262.673872 L311.15,262.673872 L311.15,231.224566 L310.45,231.224566 Z M329.35,231.224566 L329.35,262.673872 L330.05,262.673872 L330.05,231.224566 L329.35,231.224566 Z M311.5,230.867188 L329,230.867188 L329,263.730469 L311.5,263.730469 L311.5,230.867188 Z M280,230.867188 L310.1,230.867188 L310.1,249.046875 L280,249.046875 L280,230.867188 Z M1021.3,190.3125 L1037.4,201.5 L1005.2,201.5 L1021.3,190.3125 Z M1012.2,210.589844 L1017.76818,210.589844 L1017.76818,222.476562 L1012.2,222.476562 L1012.2,210.589844 Z M1024.13182,210.589844 L1029.7,210.589844 L1029.7,222.476562 L1024.13182,222.476562 L1024.13182,210.589844 Z M1015,244.851562 L1027.6,244.851562 L1027.6,263.730469 L1015,263.730469 L1015,244.851562 Z M905.1,208.231894 L914.9,208.231894 L914.9,218.012483 C914.9,219.170043 914.100928,220.615901 913.065344,221.097858 C913.065344,221.097858 912.909376,221.684863 910,221.684863 C907.090624,221.684863 906.934656,221.097858 906.934656,221.097858 C905.921403,220.551412 905.1,219.176498 905.1,218.012483 L905.1,208.231894 Z M885.5,208.231894 L895.3,208.231894 L895.3,218.012483 C895.3,219.170043 894.500928,220.615901 893.465344,221.097858 C893.465344,221.097858 893.309376,221.684863 890.4,221.684863 C887.490624,221.684863 887.334656,221.097858 887.334656,221.097858 C886.321403,220.551412 885.5,219.176498 885.5,218.012483 L885.5,208.231894 Z M868,208.231894 L875.7,208.231894 L875.7,218.012483 C875.7,219.170043 874.968753,220.686484 873.937025,221.245739 C873.937025,221.245739 874.135938,221.684863 871.85,221.684863 C869.564062,221.684863 869.743308,221.237337 869.743308,221.237337 C868.780505,220.613859 868,219.176498 868,218.012483 L868,208.231894 Z M914.9,208.231894 L924.7,208.231894 L924.7,218.634529 C924.7,219.789459 923.91673,221.250432 922.888306,221.757124 C922.888306,221.757124 922.709376,222.384082 919.8,222.384082 C916.890624,222.384082 916.711694,221.757124 916.711694,221.757124 C915.711123,221.187492 914.9,219.786647 914.9,218.634529 L914.9,208.231894 Z M895.3,208.231894 L905.1,208.231894 L905.1,218.012483 C905.1,219.170043 904.300928,220.615901 903.265344,221.097858 C903.265344,221.097858 903.109376,221.684863 900.2,221.684863 C897.290624,221.684863 897.134656,221.097858 897.134656,221.097858 C896.121403,220.551412 895.3,219.176498 895.3,218.012483 L895.3,208.231894 Z M875.7,208.231894 L885.5,208.231894 L885.5,218.012483 C885.5,219.170043 884.700928,220.615901 883.665344,221.097858 C883.665344,221.097858 883.509376,221.684863 880.6,221.684863 C877.690624,221.684863 877.534656,221.097858 877.534656,221.097858 C876.521403,220.551412 875.7,219.176498 875.7,218.012483 L875.7,208.231894 Z M927.5,188.914062 L1001.7,188.914062 L1001.7,215.484375 L927.5,215.484375 L927.5,188.914062 Z M974.4,226.671875 L991.2,226.671875 L991.2,263.730469 L974.4,263.730469 L974.4,226.671875 Z M934.5,227.371094 L964.6,227.371094 L964.6,249.746094 L934.5,249.746094 L934.5,227.371094 Z M229.875855,247.747236 C230.246023,247.306087 230.903124,247.248042 231.35045,247.623392 C231.794678,247.996144 231.857016,248.6532 231.484549,249.09709 L226.982205,254.462773 C226.612038,254.903922 225.954936,254.961967 225.507611,254.586617 C225.063382,254.213865 225.001044,253.556809 225.373512,253.112919 L229.875855,247.747236 Z M910.275855,247.747236 C910.646023,247.306087 911.303124,247.248042 911.75045,247.623392 C912.194678,247.996144 912.257016,248.6532 911.884549,249.09709 L907.382205,254.462773 C907.012038,254.903922 906.354936,254.961967 905.907611,254.586617 C905.463382,254.213865 905.401044,253.556809 905.773512,253.112919 L910.275855,247.747236 Z M1040,189 L1101.6,189 L1101.6,191.796875 C1101.6,191.796875 1094.71631,194.230261 1070.8,194.230261 C1046.88369,194.230261 1040,191.796875 1040,191.796875 L1040,189 Z M722,189 L783.6,189 L783.6,191.796875 C783.6,191.796875 776.716307,194.230261 752.8,194.230261 C728.883693,194.230261 722,191.796875 722,191.796875 L722,189 Z M798.35,245.434004 C800.862896,245.434004 802.9,243.399173 802.9,240.889082 C802.9,238.378991 798.35,231.566406 798.35,231.566406 C798.35,231.566406 793.8,238.378991 793.8,240.889082 C793.8,243.399173 795.837104,245.434004 798.35,245.434004 Z M771.05,262.914473 C773.562896,262.914473 775.6,260.879642 775.6,258.369551 C775.6,255.85946 771.05,249.046875 771.05,249.046875 C771.05,249.046875 766.5,255.85946 766.5,258.369551 C766.5,260.879642 768.537104,262.914473 771.05,262.914473 Z M1228.44298,277.378183 L1235.9283,277.378183 L1235.9283,280.58941 L1228.44298,280.58941 L1228.44298,277.378183 Z M1205.98699,277.378183 L1213.47232,277.378183 L1213.47232,280.58941 L1205.98699,280.58941 L1205.98699,277.378183 Z M1183.53101,277.378183 L1191.01634,277.378183 L1191.01634,280.58941 L1183.53101,280.58941 L1183.53101,277.378183 Z M1161.07503,277.378183 L1168.56035,277.378183 L1168.56035,280.58941 L1161.07503,280.58941 L1161.07503,277.378183 Z M1138.61904,277.378183 L1146.10437,277.378183 L1146.10437,280.58941 L1138.61904,280.58941 L1138.61904,277.378183 Z M1116.16306,277.378183 L1123.64839,277.378183 L1123.64839,280.58941 L1116.16306,280.58941 L1116.16306,277.378183 Z M1093.70707,277.378183 L1101.1924,277.378183 L1101.1924,280.58941 L1093.70707,280.58941 L1093.70707,277.378183 Z M1071.25109,277.378183 L1078.73642,277.378183 L1078.73642,280.58941 L1071.25109,280.58941 L1071.25109,277.378183 Z M1048.79511,277.378183 L1056.28043,277.378183 L1056.28043,280.58941 L1048.79511,280.58941 L1048.79511,277.378183 Z M1026.33912,277.378183 L1033.82445,277.378183 L1033.82445,280.58941 L1026.33912,280.58941 L1026.33912,277.378183 Z M1003.88314,277.378183 L1011.36847,277.378183 L1011.36847,280.58941 L1003.88314,280.58941 L1003.88314,277.378183 Z M981.427155,277.378183 L988.912483,277.378183 L988.912483,280.58941 L981.427155,280.58941 L981.427155,277.378183 Z M958.971171,277.378183 L966.456499,277.378183 L966.456499,280.58941 L958.971171,280.58941 L958.971171,277.378183 Z M936.515187,277.378183 L944.000515,277.378183 L944.000515,280.58941 L936.515187,280.58941 L936.515187,277.378183 Z M914.059203,277.378183 L921.544531,277.378183 L921.544531,280.58941 L914.059203,280.58941 L914.059203,277.378183 Z M891.60322,277.378183 L899.088547,277.378183 L899.088547,280.58941 L891.60322,280.58941 L891.60322,277.378183 Z M869.147236,277.378183 L876.632564,277.378183 L876.632564,280.58941 L869.147236,280.58941 L869.147236,277.378183 Z M846.691252,277.378183 L854.17658,277.378183 L854.17658,280.58941 L846.691252,280.58941 L846.691252,277.378183 Z M824.235268,277.378183 L831.720596,277.378183 L831.720596,280.58941 L824.235268,280.58941 L824.235268,277.378183 Z M801.779284,277.378183 L809.264612,277.378183 L809.264612,280.58941 L801.779284,280.58941 L801.779284,277.378183 Z M779.323301,277.378183 L786.808628,277.378183 L786.808628,280.58941 L779.323301,280.58941 L779.323301,277.378183 Z M756.867317,277.378183 L764.352645,277.378183 L764.352645,280.58941 L756.867317,280.58941 L756.867317,277.378183 Z M734.411333,277.378183 L741.896661,277.378183 L741.896661,280.58941 L734.411333,280.58941 L734.411333,277.378183 Z M711.955349,277.378183 L719.440677,277.378183 L719.440677,280.58941 L711.955349,280.58941 L711.955349,277.378183 Z M689.499365,277.378183 L696.984693,277.378183 L696.984693,280.58941 L689.499365,280.58941 L689.499365,277.378183 Z M667.043381,277.378183 L674.528709,277.378183 L674.528709,280.58941 L667.043381,280.58941 L667.043381,277.378183 Z M644.587398,277.378183 L652.072726,277.378183 L652.072726,280.58941 L644.587398,280.58941 L644.587398,277.378183 Z M622.131414,277.378183 L629.616742,277.378183 L629.616742,280.58941 L622.131414,280.58941 L622.131414,277.378183 Z M599.67543,277.378183 L607.160758,277.378183 L607.160758,280.58941 L599.67543,280.58941 L599.67543,277.378183 Z M577.219446,277.378183 L584.704774,277.378183 L584.704774,280.58941 L577.219446,280.58941 L577.219446,277.378183 Z M554.763462,277.378183 L562.24879,277.378183 L562.24879,280.58941 L554.763462,280.58941 L554.763462,277.378183 Z M532.307479,277.378183 L539.792807,277.378183 L539.792807,280.58941 L532.307479,280.58941 L532.307479,277.378183 Z M509.851495,277.378183 L517.336823,277.378183 L517.336823,280.58941 L509.851495,280.58941 L509.851495,277.378183 Z M487.395511,277.378183 L494.880839,277.378183 L494.880839,280.58941 L487.395511,280.58941 L487.395511,277.378183 Z M464.939527,277.378183 L472.424855,277.378183 L472.424855,280.58941 L464.939527,280.58941 L464.939527,277.378183 Z M442.483543,277.378183 L449.968871,277.378183 L449.968871,280.58941 L442.483543,280.58941 L442.483543,277.378183 Z M420.02756,277.378183 L427.512887,277.378183 L427.512887,280.58941 L420.02756,280.58941 L420.02756,277.378183 Z M397.571576,277.378183 L405.056904,277.378183 L405.056904,280.58941 L397.571576,280.58941 L397.571576,277.378183 Z M375.115592,277.378183 L382.60092,277.378183 L382.60092,280.58941 L375.115592,280.58941 L375.115592,277.378183 Z M352.659608,277.378183 L360.144936,277.378183 L360.144936,280.58941 L352.659608,280.58941 L352.659608,277.378183 Z M330.203624,277.378183 L337.688952,277.378183 L337.688952,280.58941 L330.203624,280.58941 L330.203624,277.378183 Z M307.747641,277.378183 L315.232968,277.378183 L315.232968,280.58941 L307.747641,280.58941 L307.747641,277.378183 Z M285.291657,277.378183 L292.776985,277.378183 L292.776985,280.58941 L285.291657,280.58941 L285.291657,277.378183 Z M262.835673,277.378183 L270.321001,277.378183 L270.321001,280.58941 L262.835673,280.58941 L262.835673,277.378183 Z M240.379689,277.378183 L247.865017,277.378183 L247.865017,280.58941 L240.379689,280.58941 L240.379689,277.378183 Z M217.923705,277.378183 L225.409033,277.378183 L225.409033,280.58941 L217.923705,280.58941 L217.923705,277.378183 Z M195.467721,277.378183 L202.953049,277.378183 L202.953049,280.58941 L195.467721,280.58941 L195.467721,277.378183 Z" id="Combined-Shape" stroke="url(#linearGradient-2)" stroke-width="0.7" transform="translate(720.031163, 203.118562) scale(-1, 1) translate(-720.031163, -203.118562) "></path>
                            </g>
                            <g id="Group-22" transform="translate(306.500000, 107.000000) rotate(17.000000) translate(-306.500000, -107.000000) translate(282.000000, 82.000000)">
                                <use id="Rectangle-6" stroke="#4285F4" mask="url(#mask-4)" fill-opacity="0.1" fill="#4285F4" xlink:href="#path-3"></use>
                                <path d="M24.3786154,39.3654532 L48.6476565,24.6582741 C48.7660544,24.5865243 48.8044518,24.4314096 48.7334195,24.3118158 C48.6623872,24.1922219 48.5088236,24.1534367 48.3904257,24.2251865 L24.1213846,38.9323656 C24.0029867,39.0041154 23.9645893,39.1592301 24.0356216,39.278824 C24.1066539,39.3984178 24.2602175,39.437203 24.3786154,39.3654532 Z" id="Line" fill="#4285F4"></path>
                                <path d="M24.6280076,38.7095136 L0.610955005,24.2483354 C0.492356371,24.1769247 0.338902221,24.2161492 0.268205568,24.3359458 C0.197508916,24.4557424 0.236341144,24.6107465 0.354939779,24.6821573 L24.3719924,39.1433355 C24.490591,39.2147463 24.6440452,39.1755218 24.7147418,39.0557252 C24.7854385,38.9359286 24.7466062,38.7809244 24.6280076,38.7095136 Z" id="Line-Copy-38" fill="#4285F4"></path>
                                <path d="M24.6916639,38.8141626 L36.6190016,24.4283578 C36.7076513,24.3214355 36.6937053,24.1621671 36.5878522,24.0726219 C36.4819992,23.9830766 36.3243235,23.9971635 36.2356737,24.1040858 L24.3083361,38.4898906 C24.2196863,38.5968129 24.2336323,38.7560813 24.3394854,38.8456265 C24.4453385,38.9351717 24.6030142,38.9210848 24.6916639,38.8141626 Z" id="Line-Copy-39" fill="#4285F4"></path>
                                <path d="M24.5591293,38.2740214 L12.6909974,24.0794878 C12.60191,23.9729373 12.4441778,23.9595102 12.3386929,24.0494976 C12.2332079,24.1394849 12.2199151,24.2988103 12.3090026,24.4053607 L24.1771345,38.5998944 C24.2662219,38.7064448 24.423954,38.7198719 24.529439,38.6298846 C24.6349239,38.5398972 24.6482167,38.3805719 24.5591293,38.2740214 Z" id="Line-Copy-40" fill="#4285F4"></path>
                                <path d="M48.5,24.2424242 C48.5,24.2424242 46.5196234,0 24.5,0 C2.4803766,1.36193239e-15 0.5,24.2424242 0.5,24.2424242 C0.5,24.2424242 2.81355711,23.00554 6.33428965,23.00554 C9.85502219,23.00554 12.4336836,24.2424242 12.4336836,24.2424242 C12.4336836,24.2424242 17.4107683,22.038268 24.5,22.038268 C31.5892317,22.038268 36.3850865,24.2424242 36.3850865,24.2424242 C36.3850865,24.2424242 38.9662002,23.00554 42.3967571,23.00554 C45.8273141,23.00554 48.5,24.2424242 48.5,24.2424242 Z" id="Oval-2" stroke="#4285F4" stroke-width="0.5" fill="url(#linearGradient-5)"></path>
                                <path d="M20.3784154,0.267480036 C20.3096523,0.309200595 20.1848547,0.390563717 20.012021,0.512178759 C19.7264205,0.713142526 19.4088403,0.955551187 19.0672871,1.24002598 C18.0934068,2.05115709 17.1202015,3.03780336 16.2119894,4.20503671 C14.4660174,6.44895821 13.1727742,9.08469081 12.5214677,12.1247902 C11.5362652,16.723414 11.4780206,20.3342598 11.9728692,22.9791121 C12.03796,23.3270071 12.1079345,23.6253164 12.1782317,23.8743091 C12.2211794,24.02643 12.2553282,24.1297957 12.2761134,24.1846817 C12.3254431,24.3149426 12.4699741,24.3801464 12.5989323,24.3303184 C12.7278906,24.2804904 12.7924423,24.1344996 12.7431126,24.0042387 C12.7275114,23.9630418 12.6979837,23.8736637 12.6590617,23.7358019 C12.5929094,23.5014902 12.5264345,23.2181003 12.4641723,22.8853235 C11.9818424,20.3073807 12.038987,16.7647316 13.010156,12.2316118 C13.6446223,9.27011683 14.9040301,6.70334357 16.6051037,4.51712545 C17.4900278,3.3798219 18.4380399,2.41871671 19.3853769,1.62969318 C19.7162498,1.35411384 20.0230653,1.11992184 20.2978199,0.926589838 C20.4611992,0.811627419 20.5765537,0.736420811 20.6358718,0.700430794 C20.7542323,0.628618031 20.7925489,0.473482956 20.7214542,0.353926905 C20.6503596,0.234370855 20.4967759,0.195667273 20.3784154,0.267480036 Z" id="Line" fill="#4285F4"></path>
                                <path d="M28.3712718,0.700430794 C28.4305899,0.736420811 28.5459444,0.811627419 28.7093237,0.926589838 C28.9840783,1.11992184 29.2908938,1.35411384 29.6217667,1.62969318 C30.5691037,2.41871671 31.5171158,3.3798219 32.4020399,4.51712545 C34.1031135,6.70334357 35.3625213,9.27011683 35.9969876,12.2316118 C36.9624466,16.7380791 37.0052474,20.286397 36.5018211,22.8925152 C36.434783,23.2395555 36.3631989,23.5354875 36.2919483,23.7805114 C36.2499936,23.9247896 36.2181326,24.0185363 36.2012421,24.0619444 C36.1507357,24.1917444 36.2139636,24.3383251 36.3424656,24.3893417 C36.4709676,24.4403583 36.6160825,24.3764917 36.6665889,24.2466917 C36.6888582,24.1894603 36.7255269,24.0815675 36.7716816,23.9228458 C36.8472802,23.6628698 36.9225453,23.3517205 36.9925664,22.9892377 C37.5090554,20.3154972 37.4654193,16.6979327 36.4856759,12.1247902 C35.8343694,9.08469081 34.5411262,6.44895821 32.7951542,4.20503671 C31.8869421,3.03780336 30.9137368,2.05115709 29.9398565,1.24002598 C29.5983033,0.955551187 29.2807231,0.713142526 28.9951226,0.512178759 C28.8222889,0.390563717 28.6974913,0.309200595 28.6287282,0.267480036 C28.5103677,0.195667273 28.356784,0.234370855 28.2856894,0.353926905 C28.2145947,0.473482956 28.2529113,0.628618031 28.3712718,0.700430794 Z" id="Line-Copy-41" fill="#4285F4"></path>
                            </g>
                            <g id="Group-22-Copy-2" transform="translate(618.738759, 189.070726) rotate(-12.000000) translate(-618.738759, -189.070726) translate(594.238759, 164.070726)">
                                <use id="Rectangle-6" stroke="#4285F4" mask="url(#mask-7)" fill-opacity="0.1" fill="#4285F4" xlink:href="#path-6"></use>
                                <path d="M24.3786154,39.3654532 L48.6476565,24.6582741 C48.7660544,24.5865243 48.8044518,24.4314096 48.7334195,24.3118158 C48.6623872,24.1922219 48.5088236,24.1534367 48.3904257,24.2251865 L24.1213846,38.9323656 C24.0029867,39.0041154 23.9645893,39.1592301 24.0356216,39.278824 C24.1066539,39.3984178 24.2602175,39.437203 24.3786154,39.3654532 Z" id="Line" fill="#4285F4"></path>
                                <path d="M24.6280076,38.7095136 L0.610955005,24.2483354 C0.492356371,24.1769247 0.338902221,24.2161492 0.268205568,24.3359458 C0.197508916,24.4557424 0.236341144,24.6107465 0.354939779,24.6821573 L24.3719924,39.1433355 C24.490591,39.2147463 24.6440452,39.1755218 24.7147418,39.0557252 C24.7854385,38.9359286 24.7466062,38.7809244 24.6280076,38.7095136 Z" id="Line-Copy-38" fill="#4285F4"></path>
                                <path d="M24.6916639,38.8141626 L36.6190016,24.4283578 C36.7076513,24.3214355 36.6937053,24.1621671 36.5878522,24.0726219 C36.4819992,23.9830766 36.3243235,23.9971635 36.2356737,24.1040858 L24.3083361,38.4898906 C24.2196863,38.5968129 24.2336323,38.7560813 24.3394854,38.8456265 C24.4453385,38.9351717 24.6030142,38.9210848 24.6916639,38.8141626 Z" id="Line-Copy-39" fill="#4285F4"></path>
                                <path d="M24.5591293,38.2740214 L12.6909974,24.0794878 C12.60191,23.9729373 12.4441778,23.9595102 12.3386929,24.0494976 C12.2332079,24.1394849 12.2199151,24.2988103 12.3090026,24.4053607 L24.1771345,38.5998944 C24.2662219,38.7064448 24.423954,38.7198719 24.529439,38.6298846 C24.6349239,38.5398972 24.6482167,38.3805719 24.5591293,38.2740214 Z" id="Line-Copy-40" fill="#4285F4"></path>
                                <path d="M48.5,24.2424242 C48.5,24.2424242 46.5196234,0 24.5,0 C2.4803766,1.36193239e-15 0.5,24.2424242 0.5,24.2424242 C0.5,24.2424242 2.81355711,23.00554 6.33428965,23.00554 C9.85502219,23.00554 12.4336836,24.2424242 12.4336836,24.2424242 C12.4336836,24.2424242 17.4107683,22.038268 24.5,22.038268 C31.5892317,22.038268 36.3850865,24.2424242 36.3850865,24.2424242 C36.3850865,24.2424242 38.9662002,23.00554 42.3967571,23.00554 C45.8273141,23.00554 48.5,24.2424242 48.5,24.2424242 Z" id="Oval-2" stroke="#4285F4" stroke-width="0.5" fill="url(#linearGradient-5)"></path>
                                <path d="M20.3784154,0.267480036 C20.3096523,0.309200595 20.1848547,0.390563717 20.012021,0.512178759 C19.7264205,0.713142526 19.4088403,0.955551187 19.0672871,1.24002598 C18.0934068,2.05115709 17.1202015,3.03780336 16.2119894,4.20503671 C14.4660174,6.44895821 13.1727742,9.08469081 12.5214677,12.1247902 C11.5362652,16.723414 11.4780206,20.3342598 11.9728692,22.9791121 C12.03796,23.3270071 12.1079345,23.6253164 12.1782317,23.8743091 C12.2211794,24.02643 12.2553282,24.1297957 12.2761134,24.1846817 C12.3254431,24.3149426 12.4699741,24.3801464 12.5989323,24.3303184 C12.7278906,24.2804904 12.7924423,24.1344996 12.7431126,24.0042387 C12.7275114,23.9630418 12.6979837,23.8736637 12.6590617,23.7358019 C12.5929094,23.5014902 12.5264345,23.2181003 12.4641723,22.8853235 C11.9818424,20.3073807 12.038987,16.7647316 13.010156,12.2316118 C13.6446223,9.27011683 14.9040301,6.70334357 16.6051037,4.51712545 C17.4900278,3.3798219 18.4380399,2.41871671 19.3853769,1.62969318 C19.7162498,1.35411384 20.0230653,1.11992184 20.2978199,0.926589838 C20.4611992,0.811627419 20.5765537,0.736420811 20.6358718,0.700430794 C20.7542323,0.628618031 20.7925489,0.473482956 20.7214542,0.353926905 C20.6503596,0.234370855 20.4967759,0.195667273 20.3784154,0.267480036 Z" id="Line" fill="#4285F4"></path>
                                <path d="M28.3712718,0.700430794 C28.4305899,0.736420811 28.5459444,0.811627419 28.7093237,0.926589838 C28.9840783,1.11992184 29.2908938,1.35411384 29.6217667,1.62969318 C30.5691037,2.41871671 31.5171158,3.3798219 32.4020399,4.51712545 C34.1031135,6.70334357 35.3625213,9.27011683 35.9969876,12.2316118 C36.9624466,16.7380791 37.0052474,20.286397 36.5018211,22.8925152 C36.434783,23.2395555 36.3631989,23.5354875 36.2919483,23.7805114 C36.2499936,23.9247896 36.2181326,24.0185363 36.2012421,24.0619444 C36.1507357,24.1917444 36.2139636,24.3383251 36.3424656,24.3893417 C36.4709676,24.4403583 36.6160825,24.3764917 36.6665889,24.2466917 C36.6888582,24.1894603 36.7255269,24.0815675 36.7716816,23.9228458 C36.8472802,23.6628698 36.9225453,23.3517205 36.9925664,22.9892377 C37.5090554,20.3154972 37.4654193,16.6979327 36.4856759,12.1247902 C35.8343694,9.08469081 34.5411262,6.44895821 32.7951542,4.20503671 C31.8869421,3.03780336 30.9137368,2.05115709 29.9398565,1.24002598 C29.5983033,0.955551187 29.2807231,0.713142526 28.9951226,0.512178759 C28.8222889,0.390563717 28.6974913,0.309200595 28.6287282,0.267480036 C28.5103677,0.195667273 28.356784,0.234370855 28.2856894,0.353926905 C28.2145947,0.473482956 28.2529113,0.628618031 28.3712718,0.700430794 Z" id="Line-Copy-41" fill="#4285F4"></path>
                            </g>
                            <g id="Group-22-Copy" transform="translate(778.769997, 33.011842) rotate(-25.000000) translate(-778.769997, -33.011842) translate(754.269997, 8.011842)">
                                <use id="Rectangle-6" stroke="#4285F4" mask="url(#mask-9)" fill-opacity="0.1" fill="#4285F4" xlink:href="#path-8"></use>
                                <path d="M24.3786154,39.3654532 L48.6476565,24.6582741 C48.7660544,24.5865243 48.8044518,24.4314096 48.7334195,24.3118158 C48.6623872,24.1922219 48.5088236,24.1534367 48.3904257,24.2251865 L24.1213846,38.9323656 C24.0029867,39.0041154 23.9645893,39.1592301 24.0356216,39.278824 C24.1066539,39.3984178 24.2602175,39.437203 24.3786154,39.3654532 Z" id="Line" fill="#4285F4"></path>
                                <path d="M24.6280076,38.7095136 L0.610955005,24.2483354 C0.492356371,24.1769247 0.338902221,24.2161492 0.268205568,24.3359458 C0.197508916,24.4557424 0.236341144,24.6107465 0.354939779,24.6821573 L24.3719924,39.1433355 C24.490591,39.2147463 24.6440452,39.1755218 24.7147418,39.0557252 C24.7854385,38.9359286 24.7466062,38.7809244 24.6280076,38.7095136 Z" id="Line-Copy-38" fill="#4285F4"></path>
                                <path d="M24.6916639,38.8141626 L36.6190016,24.4283578 C36.7076513,24.3214355 36.6937053,24.1621671 36.5878522,24.0726219 C36.4819992,23.9830766 36.3243235,23.9971635 36.2356737,24.1040858 L24.3083361,38.4898906 C24.2196863,38.5968129 24.2336323,38.7560813 24.3394854,38.8456265 C24.4453385,38.9351717 24.6030142,38.9210848 24.6916639,38.8141626 Z" id="Line-Copy-39" fill="#4285F4"></path>
                                <path d="M24.5591293,38.2740214 L12.6909974,24.0794878 C12.60191,23.9729373 12.4441778,23.9595102 12.3386929,24.0494976 C12.2332079,24.1394849 12.2199151,24.2988103 12.3090026,24.4053607 L24.1771345,38.5998944 C24.2662219,38.7064448 24.423954,38.7198719 24.529439,38.6298846 C24.6349239,38.5398972 24.6482167,38.3805719 24.5591293,38.2740214 Z" id="Line-Copy-40" fill="#4285F4"></path>
                                <path d="M48.5,24.2424242 C48.5,24.2424242 46.5196234,0 24.5,0 C2.4803766,1.36193239e-15 0.5,24.2424242 0.5,24.2424242 C0.5,24.2424242 2.81355711,23.00554 6.33428965,23.00554 C9.85502219,23.00554 12.4336836,24.2424242 12.4336836,24.2424242 C12.4336836,24.2424242 17.4107683,22.038268 24.5,22.038268 C31.5892317,22.038268 36.3850865,24.2424242 36.3850865,24.2424242 C36.3850865,24.2424242 38.9662002,23.00554 42.3967571,23.00554 C45.8273141,23.00554 48.5,24.2424242 48.5,24.2424242 Z" id="Oval-2" stroke="#4285F4" stroke-width="0.5" fill="url(#linearGradient-5)"></path>
                                <path d="M20.3784154,0.267480036 C20.3096523,0.309200595 20.1848547,0.390563717 20.012021,0.512178759 C19.7264205,0.713142526 19.4088403,0.955551187 19.0672871,1.24002598 C18.0934068,2.05115709 17.1202015,3.03780336 16.2119894,4.20503671 C14.4660174,6.44895821 13.1727742,9.08469081 12.5214677,12.1247902 C11.5362652,16.723414 11.4780206,20.3342598 11.9728692,22.9791121 C12.03796,23.3270071 12.1079345,23.6253164 12.1782317,23.8743091 C12.2211794,24.02643 12.2553282,24.1297957 12.2761134,24.1846817 C12.3254431,24.3149426 12.4699741,24.3801464 12.5989323,24.3303184 C12.7278906,24.2804904 12.7924423,24.1344996 12.7431126,24.0042387 C12.7275114,23.9630418 12.6979837,23.8736637 12.6590617,23.7358019 C12.5929094,23.5014902 12.5264345,23.2181003 12.4641723,22.8853235 C11.9818424,20.3073807 12.038987,16.7647316 13.010156,12.2316118 C13.6446223,9.27011683 14.9040301,6.70334357 16.6051037,4.51712545 C17.4900278,3.3798219 18.4380399,2.41871671 19.3853769,1.62969318 C19.7162498,1.35411384 20.0230653,1.11992184 20.2978199,0.926589838 C20.4611992,0.811627419 20.5765537,0.736420811 20.6358718,0.700430794 C20.7542323,0.628618031 20.7925489,0.473482956 20.7214542,0.353926905 C20.6503596,0.234370855 20.4967759,0.195667273 20.3784154,0.267480036 Z" id="Line" fill="#4285F4"></path>
                                <path d="M28.3712718,0.700430794 C28.4305899,0.736420811 28.5459444,0.811627419 28.7093237,0.926589838 C28.9840783,1.11992184 29.2908938,1.35411384 29.6217667,1.62969318 C30.5691037,2.41871671 31.5171158,3.3798219 32.4020399,4.51712545 C34.1031135,6.70334357 35.3625213,9.27011683 35.9969876,12.2316118 C36.9624466,16.7380791 37.0052474,20.286397 36.5018211,22.8925152 C36.434783,23.2395555 36.3631989,23.5354875 36.2919483,23.7805114 C36.2499936,23.9247896 36.2181326,24.0185363 36.2012421,24.0619444 C36.1507357,24.1917444 36.2139636,24.3383251 36.3424656,24.3893417 C36.4709676,24.4403583 36.6160825,24.3764917 36.6665889,24.2466917 C36.6888582,24.1894603 36.7255269,24.0815675 36.7716816,23.9228458 C36.8472802,23.6628698 36.9225453,23.3517205 36.9925664,22.9892377 C37.5090554,20.3154972 37.4654193,16.6979327 36.4856759,12.1247902 C35.8343694,9.08469081 34.5411262,6.44895821 32.7951542,4.20503671 C31.8869421,3.03780336 30.9137368,2.05115709 29.9398565,1.24002598 C29.5983033,0.955551187 29.2807231,0.713142526 28.9951226,0.512178759 C28.8222889,0.390563717 28.6974913,0.309200595 28.6287282,0.267480036 C28.5103677,0.195667273 28.356784,0.234370855 28.2856894,0.353926905 C28.2145947,0.473482956 28.2529113,0.628618031 28.3712718,0.700430794 Z" id="Line-Copy-41" fill="#4285F4"></path>
                            </g>
                        </g>
                    </g>
                </g>
                <g id="Group-6" transform="translate(276.000000, 80.000000)" fill="url(#linearGradient-10)">
                    <path d="M11.8828125,14.5820312 C11.8828125,16.0117259 11.3574271,17.1445271 10.3066406,17.9804688 C9.25585412,18.8164104 7.85938371,19.234375 6.1171875,19.234375 C4.02342703,19.234375 2.41797434,19.0039086 1.30078125,18.5429688 L1.30078125,17.3476562 C2.53516242,17.8710964 4.10936543,18.1328125 6.0234375,18.1328125 C7.42969453,18.1328125 8.54491775,17.8105501 9.36914062,17.1660156 C10.1933635,16.5214812 10.6054688,15.6757865 10.6054688,14.6289062 C10.6054688,13.9804655 10.4687514,13.4433615 10.1953125,13.0175781 C9.92187363,12.5917947 9.47656559,12.2031268 8.859375,11.8515625 C8.24218441,11.4999982 7.33594348,11.1210958 6.140625,10.7148438 C4.39061625,10.1132782 3.18164396,9.46289412 2.51367188,8.76367188 C1.84569979,8.06444963 1.51171875,7.13281832 1.51171875,5.96875 C1.51171875,4.68749359 2.01366686,3.64258217 3.01757812,2.83398438 C4.02148939,2.02538658 5.31249211,1.62109375 6.890625,1.62109375 C8.50000805,1.62109375 10.0117117,1.9257782 11.4257812,2.53515625 L10.9921875,3.56640625 C9.57030539,2.97265328 8.21094398,2.67578125 6.9140625,2.67578125 C5.64843117,2.67578125 4.64062875,2.96874707 3.890625,3.5546875 C3.14062125,4.14062793 2.765625,4.93749496 2.765625,5.9453125 C2.765625,6.57812816 2.88085822,7.09765422 3.11132812,7.50390625 C3.34179803,7.91015828 3.71874738,8.275389 4.2421875,8.59960938 C4.76562762,8.92382975 5.66405613,9.31249773 6.9375,9.765625 C8.27344418,10.2265648 9.27734039,10.673826 9.94921875,11.1074219 C10.6210971,11.5410178 11.1113266,12.0332004 11.4199219,12.5839844 C11.7285172,13.1347684 11.8828125,13.8007773 11.8828125,14.5820312 Z M24.09375,19 L24.09375,10.7382812 C24.09375,9.45702484 23.8242214,8.52539354 23.2851562,7.94335938 C22.7460911,7.36132521 21.9101619,7.0703125 20.7773438,7.0703125 C19.2538986,7.0703125 18.1386754,7.45507428 17.4316406,8.22460938 C16.7246058,8.99414447 16.3710938,10.2421789 16.3710938,11.96875 L16.3710938,19 L15.2109375,19 L15.2109375,0.765625 L16.3710938,0.765625 L16.3710938,6.56640625 L16.3125,8.1953125 L16.3945312,8.1953125 C16.8710961,7.42968367 17.4726526,6.87500172 18.1992188,6.53125 C18.9257849,6.18749828 19.8281196,6.015625 20.90625,6.015625 C23.7968895,6.015625 25.2421875,7.56639074 25.2421875,10.6679688 L25.2421875,19 L24.09375,19 Z M37.1015625,19 L36.8085938,16.984375 L36.7148438,16.984375 C36.0742155,17.8046916 35.416019,18.3847639 34.7402344,18.7246094 C34.0644497,19.0644548 33.2656296,19.234375 32.34375,19.234375 C31.0937437,19.234375 30.1210972,18.9140657 29.4257812,18.2734375 C28.7304653,17.6328093 28.3828125,16.7460994 28.3828125,15.6132812 C28.3828125,14.3710875 28.9003854,13.4062534 29.9355469,12.71875 C30.9707083,12.0312466 32.4687402,11.6679689 34.4296875,11.6289062 L36.8554688,11.5585938 L36.8554688,10.7148438 C36.8554688,9.5039002 36.6093775,8.58984684 36.1171875,7.97265625 C35.6249975,7.35546566 34.8320367,7.046875 33.7382812,7.046875 C32.5585879,7.046875 31.3359438,7.37499672 30.0703125,8.03125 L29.6367188,7.0234375 C31.0351632,6.36718422 32.4179619,6.0390625 33.7851562,6.0390625 C35.1836007,6.0390625 36.2285122,6.40234012 36.9199219,7.12890625 C37.6113316,7.85547238 37.9570312,8.98827355 37.9570312,10.5273438 L37.9570312,19 L37.1015625,19 Z M32.4140625,18.1796875 C33.7734443,18.1796875 34.8456992,17.7910195 35.6308594,17.0136719 C36.4160196,16.2363242 36.8085938,15.1562569 36.8085938,13.7734375 L36.8085938,12.5195312 L34.5820312,12.6132812 C32.7929598,12.6992192 31.5175819,12.9785133 30.7558594,13.4511719 C29.9941368,13.9238305 29.6132812,14.6601512 29.6132812,15.6601562 C29.6132812,16.4570352 29.8574194,17.0761697 30.3457031,17.5175781 C30.8339868,17.9589866 31.523433,18.1796875 32.4140625,18.1796875 Z M47.53125,19.234375 C45.5703027,19.234375 44.1406295,18.5000073 43.2421875,17.03125 L43.1601562,17.03125 L43.1953125,18.015625 C43.2265627,18.5937529 43.2421875,19.2265591 43.2421875,19.9140625 L43.2421875,24.765625 L42.0820312,24.765625 L42.0820312,6.26171875 L43.0664062,6.26171875 L43.2890625,8.078125 L43.359375,8.078125 C44.2343794,6.70311813 45.6328029,6.015625 47.5546875,6.015625 C49.2734461,6.015625 50.5839799,6.58007248 51.4863281,7.70898438 C52.3886764,8.83789627 52.8398438,10.480458 52.8398438,12.6367188 C52.8398438,14.7304792 52.3652391,16.3535099 51.4160156,17.5058594 C50.4667921,18.6582089 49.1718832,19.234375 47.53125,19.234375 Z M47.5078125,18.203125 C48.8125065,18.203125 49.8222621,17.7187548 50.5371094,16.75 C51.2519567,15.7812452 51.609375,14.42579 51.609375,12.6835938 C51.609375,8.94138754 50.257826,7.0703125 47.5546875,7.0703125 C46.0703051,7.0703125 44.9804722,7.47851154 44.2851562,8.29492188 C43.5898403,9.11133221 43.2421875,10.441397 43.2421875,12.2851562 L43.2421875,12.6601562 C43.2421875,14.6523537 43.5761685,16.0742145 44.2441406,16.9257812 C44.9121127,17.777348 45.9999925,18.203125 47.5078125,18.203125 Z M57.5273438,19 L56.3671875,19 L56.3671875,6.26171875 L57.5273438,6.26171875 L57.5273438,19 Z M56.203125,2.72265625 C56.203125,1.9726525 56.4492163,1.59765625 56.9414062,1.59765625 C57.183595,1.59765625 57.3730462,1.69531152 57.5097656,1.890625 C57.6464851,2.08593848 57.7148438,2.36327945 57.7148438,2.72265625 C57.7148438,3.07422051 57.6464851,3.35156148 57.5097656,3.5546875 C57.3730462,3.75781352 57.183595,3.859375 56.9414062,3.859375 C56.4492163,3.859375 56.203125,3.48047254 56.203125,2.72265625 Z M70.6757812,19 L70.6757812,10.7382812 C70.6757812,9.45702484 70.4062527,8.52539354 69.8671875,7.94335938 C69.3281223,7.36132521 68.4921932,7.0703125 67.359375,7.0703125 C65.8359299,7.0703125 64.7207067,7.45507428 64.0136719,8.22460938 C63.3066371,8.99414447 62.953125,10.2421789 62.953125,11.96875 L62.953125,19 L61.7929688,19 L61.7929688,6.26171875 L62.7773438,6.26171875 L63,8.0078125 L63.0703125,8.0078125 C63.8984416,6.67968086 65.3710832,6.015625 67.4882812,6.015625 C70.3789207,6.015625 71.8242188,7.56639074 71.8242188,10.6679688 L71.8242188,19 L70.6757812,19 Z M85.8867188,6.26171875 L85.8867188,7.0703125 L83.25,7.234375 C83.9531285,8.10937938 84.3046875,9.07030727 84.3046875,10.1171875 C84.3046875,11.3437561 83.8964885,12.3378868 83.0800781,13.0996094 C82.2636678,13.8613319 81.1679756,14.2421875 79.7929688,14.2421875 C79.2148409,14.2421875 78.8085949,14.2187502 78.5742188,14.171875 C78.1132789,14.4140637 77.76172,14.6992171 77.5195312,15.0273438 C77.2773425,15.3554704 77.15625,15.7031232 77.15625,16.0703125 C77.15625,16.4765645 77.3105453,16.7734366 77.6191406,16.9609375 C77.9277359,17.1484384 78.4453089,17.2421875 79.171875,17.2421875 L81.3984375,17.2421875 C82.7812569,17.2421875 83.8398401,17.5214816 84.5742188,18.0800781 C85.3085974,18.6386747 85.6757812,19.4648383 85.6757812,20.5585938 C85.6757812,21.9023505 85.1308648,22.9394495 84.0410156,23.6699219 C82.9511664,24.4003943 81.3984476,24.765625 79.3828125,24.765625 C77.781242,24.765625 76.54102,24.4570343 75.6621094,23.8398438 C74.7831987,23.2226532 74.34375,22.3632868 74.34375,21.2617188 C74.34375,20.3867144 74.6152317,19.6601591 75.1582031,19.0820312 C75.7011746,18.5039034 76.4374954,18.1093761 77.3671875,17.8984375 C76.9843731,17.7343742 76.6777355,17.5019546 76.4472656,17.2011719 C76.2167957,16.9003891 76.1015625,16.5546895 76.1015625,16.1640625 C76.1015625,15.3124957 76.6445258,14.5625032 77.7304688,13.9140625 C76.9882775,13.6093735 76.4101583,13.1308626 75.9960938,12.4785156 C75.5820292,11.8261686 75.375,11.0781292 75.375,10.234375 C75.375,8.96093113 75.7792928,7.93945697 76.5878906,7.16992188 C77.3964884,6.40038678 78.4882744,6.015625 79.8632812,6.015625 C80.6992229,6.015625 81.3476539,6.09765543 81.8085938,6.26171875 L85.8867188,6.26171875 Z M75.5742188,21.15625 C75.5742188,22.9062588 76.874987,23.78125 79.4765625,23.78125 C82.8203292,23.78125 84.4921875,22.7148544 84.4921875,20.5820312 C84.4921875,19.8164024 84.2304714,19.2617205 83.7070312,18.9179688 C83.1835911,18.574217 82.3359434,18.4023438 81.1640625,18.4023438 L79.078125,18.4023438 C76.7421758,18.4023438 75.5742188,19.3203033 75.5742188,21.15625 Z M76.546875,10.234375 C76.546875,11.2187549 76.8457001,11.9824192 77.4433594,12.5253906 C78.0410186,13.0683621 78.8398388,13.3398438 79.8398438,13.3398438 C80.9023491,13.3398438 81.716794,13.0703152 82.2832031,12.53125 C82.8496122,11.9921848 83.1328125,11.2109426 83.1328125,10.1875 C83.1328125,9.10155707 82.8417998,8.28711209 82.2597656,7.74414062 C81.6777315,7.20116916 80.8632865,6.9296875 79.8164062,6.9296875 C78.8007762,6.9296875 78.001956,7.22070021 77.4199219,7.80273438 C76.8378877,8.38476854 76.546875,9.1953073 76.546875,10.234375 Z M102.46875,19 L102.175781,16.984375 L102.082031,16.984375 C101.441403,17.8046916 100.783207,18.3847639 100.107422,18.7246094 C99.4316372,19.0644548 98.6328171,19.234375 97.7109375,19.234375 C96.4609312,19.234375 95.4882847,18.9140657 94.7929688,18.2734375 C94.0976528,17.6328093 93.75,16.7460994 93.75,15.6132812 C93.75,14.3710875 94.2675729,13.4062534 95.3027344,12.71875 C96.3378958,12.0312466 97.8359277,11.6679689 99.796875,11.6289062 L102.222656,11.5585938 L102.222656,10.7148438 C102.222656,9.5039002 101.976565,8.58984684 101.484375,7.97265625 C100.992185,7.35546566 100.199224,7.046875 99.1054688,7.046875 C97.9257754,7.046875 96.7031313,7.37499672 95.4375,8.03125 L95.0039062,7.0234375 C96.4023507,6.36718422 97.7851494,6.0390625 99.1523438,6.0390625 C100.550788,6.0390625 101.5957,6.40234012 102.287109,7.12890625 C102.978519,7.85547238 103.324219,8.98827355 103.324219,10.5273438 L103.324219,19 L102.46875,19 Z M97.78125,18.1796875 C99.1406318,18.1796875 100.212887,17.7910195 100.998047,17.0136719 C101.783207,16.2363242 102.175781,15.1562569 102.175781,13.7734375 L102.175781,12.5195312 L99.9492188,12.6132812 C98.1601473,12.6992192 96.8847694,12.9785133 96.1230469,13.4511719 C95.3613243,13.9238305 94.9804688,14.6601512 94.9804688,15.6601562 C94.9804688,16.4570352 95.2246069,17.0761697 95.7128906,17.5175781 C96.2011743,17.9589866 96.8906205,18.1796875 97.78125,18.1796875 Z M114.691406,6.26171875 L114.691406,14.5117188 C114.691406,15.7929752 114.960935,16.7246065 115.5,17.3066406 C116.039065,17.8886748 116.874994,18.1796875 118.007813,18.1796875 C119.523445,18.1796875 120.638668,17.7968788 121.353516,17.03125 C122.068363,16.2656212 122.425781,15.0195399 122.425781,13.2929688 L122.425781,6.26171875 L123.574219,6.26171875 L123.574219,19 L122.589844,19 L122.378906,17.2421875 L122.308594,17.2421875 C121.480465,18.5703191 120.007823,19.234375 117.890625,19.234375 C114.992173,19.234375 113.542969,17.6836093 113.542969,14.5820312 L113.542969,6.26171875 L114.691406,6.26171875 Z M136.722656,19 L136.722656,10.7382812 C136.722656,9.45702484 136.453128,8.52539354 135.914062,7.94335938 C135.374997,7.36132521 134.539068,7.0703125 133.40625,7.0703125 C131.882805,7.0703125 130.767582,7.45507428 130.060547,8.22460938 C129.353512,8.99414447 129,10.2421789 129,11.96875 L129,19 L127.839844,19 L127.839844,6.26171875 L128.824219,6.26171875 L129.046875,8.0078125 L129.117188,8.0078125 C129.945317,6.67968086 131.417958,6.015625 133.535156,6.015625 C136.425796,6.015625 137.871094,7.56639074 137.871094,10.6679688 L137.871094,19 L136.722656,19 Z M143.15625,19 L141.996094,19 L141.996094,6.26171875 L143.15625,6.26171875 L143.15625,19 Z M141.832031,2.72265625 C141.832031,1.9726525 142.078123,1.59765625 142.570312,1.59765625 C142.812501,1.59765625 143.001952,1.69531152 143.138672,1.890625 C143.275391,2.08593848 143.34375,2.36327945 143.34375,2.72265625 C143.34375,3.07422051 143.275391,3.35156148 143.138672,3.5546875 C143.001952,3.75781352 142.812501,3.859375 142.570312,3.859375 C142.078123,3.859375 141.832031,3.48047254 141.832031,2.72265625 Z M152.15625,7.26953125 L149.15625,7.26953125 L149.15625,19 L147.996094,19 L147.996094,7.26953125 L145.628906,7.26953125 L145.628906,6.58984375 L147.996094,6.15625 L147.996094,5.171875 C147.996094,3.60936719 148.2832,2.46289428 148.857422,1.73242188 C149.431643,1.00194947 150.371087,0.63671875 151.675781,0.63671875 C152.37891,0.63671875 153.082028,0.742186445 153.785156,0.953125 L153.515625,1.9609375 C152.890622,1.76562402 152.269534,1.66796875 151.652344,1.66796875 C150.746089,1.66796875 150.103518,1.9355442 149.724609,2.47070312 C149.345701,3.00586205 149.15625,3.87499398 149.15625,5.078125 L149.15625,6.26171875 L152.15625,6.26171875 L152.15625,7.26953125 Z M155.777344,19 L154.617188,19 L154.617188,6.26171875 L155.777344,6.26171875 L155.777344,19 Z M154.453125,2.72265625 C154.453125,1.9726525 154.699216,1.59765625 155.191406,1.59765625 C155.433595,1.59765625 155.623046,1.69531152 155.759766,1.890625 C155.896485,2.08593848 155.964844,2.36327945 155.964844,2.72265625 C155.964844,3.07422051 155.896485,3.35156148 155.759766,3.5546875 C155.623046,3.75781352 155.433595,3.859375 155.191406,3.859375 C154.699216,3.859375 154.453125,3.48047254 154.453125,2.72265625 Z M165.1875,19.234375 C163.335928,19.234375 161.892583,18.6640682 160.857422,17.5234375 C159.82226,16.3828068 159.304688,14.7851665 159.304688,12.7304688 C159.304688,10.6992086 159.804683,9.07227174 160.804688,7.84960938 C161.804692,6.62694701 163.152335,6.015625 164.847656,6.015625 C166.347664,6.015625 167.531246,6.53905727 168.398438,7.5859375 C169.265629,8.63281773 169.699219,10.0546785 169.699219,11.8515625 L169.699219,12.7890625 L160.523438,12.7890625 C160.539063,14.5390713 160.947262,15.8749954 161.748047,16.796875 C162.548832,17.7187546 163.695305,18.1796875 165.1875,18.1796875 C165.914066,18.1796875 166.552732,18.1289068 167.103516,18.0273438 C167.6543,17.9257807 168.351558,17.7070329 169.195312,17.3710938 L169.195312,18.4257812 C168.476559,18.7382828 167.812503,18.9511713 167.203125,19.0644531 C166.593747,19.1777349 165.921879,19.234375 165.1875,19.234375 Z M164.847656,7.046875 C163.621088,7.046875 162.636722,7.45116783 161.894531,8.25976562 C161.15234,9.06836342 160.718751,10.2343674 160.59375,11.7578125 L168.46875,11.7578125 C168.46875,10.2812426 168.148441,9.12695729 167.507812,8.29492188 C166.867184,7.46288646 165.980474,7.046875 164.847656,7.046875 Z M177.878906,6.015625 C178.800786,6.015625 179.597653,6.18359207 180.269531,6.51953125 C180.94141,6.85547043 181.542966,7.42968344 182.074219,8.2421875 L182.144531,8.2421875 C182.097656,7.25780758 182.074219,6.29297348 182.074219,5.34765625 L182.074219,0.765625 L183.222656,0.765625 L183.222656,19 L182.460938,19 L182.167969,17.0546875 L182.074219,17.0546875 C181.105464,18.5078198 179.714853,19.234375 177.902344,19.234375 C176.144522,19.234375 174.800786,18.6875055 173.871094,17.59375 C172.941402,16.4999945 172.476562,14.9062605 172.476562,12.8125 C172.476562,10.609364 172.937495,8.92578707 173.859375,7.76171875 C174.781255,6.59765043 176.121085,6.015625 177.878906,6.015625 Z M177.878906,7.0703125 C176.488274,7.0703125 175.443363,7.55858887 174.744141,8.53515625 C174.044918,9.51172363 173.695313,10.9296782 173.695313,12.7890625 C173.695313,16.3984555 175.097642,18.203125 177.902344,18.203125 C179.339851,18.203125 180.394528,17.7851604 181.066406,16.9492188 C181.738285,16.1132771 182.074219,14.7343846 182.074219,12.8125 L182.074219,12.6132812 C182.074219,10.6445214 181.744144,9.22851994 181.083984,8.36523438 C180.423825,7.50194881 179.355476,7.0703125 177.878906,7.0703125 Z M188.824219,16.2109375 L188.964844,16.4570312 C188.378903,18.5273541 187.699223,20.4062416 186.925781,22.09375 L186.164062,22.09375 C186.765628,19.9453018 187.195311,17.9843839 187.453125,16.2109375 L188.824219,16.2109375 Z M204.269531,6.015625 C206.05079,6.015625 207.392574,6.57616627 208.294922,7.69726562 C209.19727,8.81836498 209.648438,10.4570205 209.648438,12.6132812 C209.648438,14.7304793 209.173833,16.3632755 208.224609,17.5117188 C207.275386,18.660162 205.941415,19.234375 204.222656,19.234375 C203.316402,19.234375 202.500004,19.0468769 201.773438,18.671875 C201.046871,18.2968731 200.472658,17.7656284 200.050781,17.078125 L199.945312,17.078125 L199.617188,19 L198.890625,19 L198.890625,0.765625 L200.050781,0.765625 L200.050781,5.34765625 C200.050781,6.03515969 200.035156,6.66796586 200.003906,7.24609375 L199.96875,8.2421875 L200.050781,8.2421875 C200.535159,7.47655867 201.119137,6.9140643 201.802734,6.5546875 C202.486332,6.1953107 203.308589,6.015625 204.269531,6.015625 Z M204.246094,7.0703125 C202.746086,7.0703125 201.671878,7.4999957 201.023438,8.359375 C200.374997,9.2187543 200.050781,10.6367089 200.050781,12.6132812 L200.050781,12.8125 C200.050781,14.7343846 200.388668,16.1132771 201.064453,16.9492188 C201.740238,17.7851604 202.792962,18.203125 204.222656,18.203125 C205.613288,18.203125 206.660153,17.7168017 207.363281,16.7441406 C208.06641,15.7714795 208.417969,14.3867277 208.417969,12.5898438 C208.417969,8.91013785 207.027358,7.0703125 204.246094,7.0703125 Z M218.320312,19.234375 C216.468741,19.234375 215.025396,18.6640682 213.990234,17.5234375 C212.955073,16.3828068 212.4375,14.7851665 212.4375,12.7304688 C212.4375,10.6992086 212.937495,9.07227174 213.9375,7.84960938 C214.937505,6.62694701 216.285148,6.015625 217.980469,6.015625 C219.480476,6.015625 220.664058,6.53905727 221.53125,7.5859375 C222.398442,8.63281773 222.832031,10.0546785 222.832031,11.8515625 L222.832031,12.7890625 L213.65625,12.7890625 C213.671875,14.5390713 214.080074,15.8749954 214.880859,16.796875 C215.681645,17.7187546 216.828118,18.1796875 218.320312,18.1796875 C219.046879,18.1796875 219.685544,18.1289068 220.236328,18.0273438 C220.787112,17.9257807 221.484371,17.7070329 222.328125,17.3710938 L222.328125,18.4257812 C221.609371,18.7382828 220.945316,18.9511713 220.335938,19.0644531 C219.726559,19.1777349 219.054691,19.234375 218.320312,19.234375 Z M217.980469,7.046875 C216.7539,7.046875 215.769535,7.45116783 215.027344,8.25976562 C214.285153,9.06836342 213.851563,10.2343674 213.726562,11.7578125 L221.601562,11.7578125 C221.601562,10.2812426 221.281253,9.12695729 220.640625,8.29492188 C219.999997,7.46288646 219.113287,7.046875 217.980469,7.046875 Z M234.082031,19 L233.789063,16.984375 L233.695313,16.984375 C233.054684,17.8046916 232.396488,18.3847639 231.720703,18.7246094 C231.044918,19.0644548 230.246098,19.234375 229.324219,19.234375 C228.074213,19.234375 227.101566,18.9140657 226.40625,18.2734375 C225.710934,17.6328093 225.363281,16.7460994 225.363281,15.6132812 C225.363281,14.3710875 225.880854,13.4062534 226.916016,12.71875 C227.951177,12.0312466 229.449209,11.6679689 231.410156,11.6289062 L233.835938,11.5585938 L233.835938,10.7148438 C233.835938,9.5039002 233.589846,8.58984684 233.097656,7.97265625 C232.605466,7.35546566 231.812505,7.046875 230.71875,7.046875 C229.539057,7.046875 228.316413,7.37499672 227.050781,8.03125 L226.617188,7.0234375 C228.015632,6.36718422 229.398431,6.0390625 230.765625,6.0390625 C232.164069,6.0390625 233.208981,6.40234012 233.900391,7.12890625 C234.5918,7.85547238 234.9375,8.98827355 234.9375,10.5273438 L234.9375,19 L234.082031,19 Z M229.394531,18.1796875 C230.753913,18.1796875 231.826168,17.7910195 232.611328,17.0136719 C233.396488,16.2363242 233.789062,15.1562569 233.789062,13.7734375 L233.789062,12.5195312 L231.5625,12.6132812 C229.773429,12.6992192 228.498051,12.9785133 227.736328,13.4511719 C226.974606,13.9238305 226.59375,14.6601512 226.59375,15.6601562 C226.59375,16.4570352 226.837888,17.0761697 227.326172,17.5175781 C227.814456,17.9589866 228.503902,18.1796875 229.394531,18.1796875 Z M240.070312,6.26171875 L240.070312,14.5117188 C240.070312,15.7929752 240.339841,16.7246065 240.878906,17.3066406 C241.417971,17.8886748 242.253901,18.1796875 243.386719,18.1796875 C244.902351,18.1796875 246.017575,17.7968788 246.732422,17.03125 C247.447269,16.2656212 247.804687,15.0195399 247.804687,13.2929688 L247.804687,6.26171875 L248.953125,6.26171875 L248.953125,19 L247.96875,19 L247.757812,17.2421875 L247.6875,17.2421875 C246.859371,18.5703191 245.386729,19.234375 243.269531,19.234375 C240.371079,19.234375 238.921875,17.6836093 238.921875,14.5820312 L238.921875,6.26171875 L240.070312,6.26171875 Z M256.582031,18.203125 C257.31641,18.203125 257.957029,18.1406256 258.503906,18.015625 L258.503906,18.953125 C257.941403,19.1406259 257.292972,19.234375 256.558594,19.234375 C255.433588,19.234375 254.603518,18.9335968 254.068359,18.3320312 C253.5332,17.7304657 253.265625,16.7851627 253.265625,15.4960938 L253.265625,7.26953125 L251.378906,7.26953125 L251.378906,6.58984375 L253.265625,6.0625 L253.851562,3.1796875 L254.449219,3.1796875 L254.449219,6.26171875 L258.1875,6.26171875 L258.1875,7.26953125 L254.449219,7.26953125 L254.449219,15.3320312 C254.449219,16.3085986 254.621092,17.0312477 254.964844,17.5 C255.308595,17.9687523 255.847653,18.203125 256.582031,18.203125 Z M262.417969,19 L261.257812,19 L261.257812,6.26171875 L262.417969,6.26171875 L262.417969,19 Z M261.09375,2.72265625 C261.09375,1.9726525 261.339841,1.59765625 261.832031,1.59765625 C262.07422,1.59765625 262.263671,1.69531152 262.400391,1.890625 C262.53711,2.08593848 262.605469,2.36327945 262.605469,2.72265625 C262.605469,3.07422051 262.53711,3.35156148 262.400391,3.5546875 C262.263671,3.75781352 262.07422,3.859375 261.832031,3.859375 C261.339841,3.859375 261.09375,3.48047254 261.09375,2.72265625 Z M271.417969,7.26953125 L268.417969,7.26953125 L268.417969,19 L267.257812,19 L267.257812,7.26953125 L264.890625,7.26953125 L264.890625,6.58984375 L267.257812,6.15625 L267.257812,5.171875 C267.257812,3.60936719 267.544919,2.46289428 268.119141,1.73242188 C268.693362,1.00194947 269.632806,0.63671875 270.9375,0.63671875 C271.640629,0.63671875 272.343746,0.742186445 273.046875,0.953125 L272.777344,1.9609375 C272.152341,1.76562402 271.531253,1.66796875 270.914062,1.66796875 C270.007808,1.66796875 269.365236,1.9355442 268.986328,2.47070312 C268.60742,3.00586205 268.417969,3.87499398 268.417969,5.078125 L268.417969,6.26171875 L271.417969,6.26171875 L271.417969,7.26953125 Z M274.886719,6.26171875 L274.886719,14.5117188 C274.886719,15.7929752 275.156247,16.7246065 275.695312,17.3066406 C276.234378,17.8886748 277.070307,18.1796875 278.203125,18.1796875 C279.718758,18.1796875 280.833981,17.7968788 281.548828,17.03125 C282.263675,16.2656212 282.621094,15.0195399 282.621094,13.2929688 L282.621094,6.26171875 L283.769531,6.26171875 L283.769531,19 L282.785156,19 L282.574219,17.2421875 L282.503906,17.2421875 C281.675777,18.5703191 280.203136,19.234375 278.085938,19.234375 C275.187486,19.234375 273.738281,17.6836093 273.738281,14.5820312 L273.738281,6.26171875 L274.886719,6.26171875 Z M289.195312,19 L288.035156,19 L288.035156,0.765625 L289.195312,0.765625 L289.195312,19 Z M307.429688,19 L307.136719,16.984375 L307.042969,16.984375 C306.402341,17.8046916 305.744144,18.3847639 305.068359,18.7246094 C304.392575,19.0644548 303.593755,19.234375 302.671875,19.234375 C301.421869,19.234375 300.449222,18.9140657 299.753906,18.2734375 C299.05859,17.6328093 298.710938,16.7460994 298.710938,15.6132812 C298.710938,14.3710875 299.22851,13.4062534 300.263672,12.71875 C301.298833,12.0312466 302.796865,11.6679689 304.757812,11.6289062 L307.183594,11.5585938 L307.183594,10.7148438 C307.183594,9.5039002 306.937502,8.58984684 306.445312,7.97265625 C305.953123,7.35546566 305.160162,7.046875 304.066406,7.046875 C302.886713,7.046875 301.664069,7.37499672 300.398438,8.03125 L299.964844,7.0234375 C301.363288,6.36718422 302.746087,6.0390625 304.113281,6.0390625 C305.511726,6.0390625 306.556637,6.40234012 307.248047,7.12890625 C307.939457,7.85547238 308.285156,8.98827355 308.285156,10.5273438 L308.285156,19 L307.429688,19 Z M302.742188,18.1796875 C304.101569,18.1796875 305.173824,17.7910195 305.958984,17.0136719 C306.744145,16.2363242 307.136719,15.1562569 307.136719,13.7734375 L307.136719,12.5195312 L304.910156,12.6132812 C303.121085,12.6992192 301.845707,12.9785133 301.083984,13.4511719 C300.322262,13.9238305 299.941406,14.6601512 299.941406,15.6601562 C299.941406,16.4570352 300.185544,17.0761697 300.673828,17.5175781 C301.162112,17.9589866 301.851558,18.1796875 302.742188,18.1796875 Z M321.292969,19 L321.292969,10.7382812 C321.292969,9.45702484 321.02344,8.52539354 320.484375,7.94335938 C319.94531,7.36132521 319.109381,7.0703125 317.976562,7.0703125 C316.453117,7.0703125 315.337894,7.45507428 314.630859,8.22460938 C313.923825,8.99414447 313.570312,10.2421789 313.570312,11.96875 L313.570312,19 L312.410156,19 L312.410156,6.26171875 L313.394531,6.26171875 L313.617188,8.0078125 L313.6875,8.0078125 C314.515629,6.67968086 315.988271,6.015625 318.105469,6.015625 C320.996108,6.015625 322.441406,7.56639074 322.441406,10.6679688 L322.441406,19 L321.292969,19 Z M331.230469,6.015625 C332.152348,6.015625 332.949215,6.18359207 333.621094,6.51953125 C334.292972,6.85547043 334.894529,7.42968344 335.425781,8.2421875 L335.496094,8.2421875 C335.449219,7.25780758 335.425781,6.29297348 335.425781,5.34765625 L335.425781,0.765625 L336.574219,0.765625 L336.574219,19 L335.8125,19 L335.519531,17.0546875 L335.425781,17.0546875 C334.457026,18.5078198 333.066415,19.234375 331.253906,19.234375 C329.496085,19.234375 328.152348,18.6875055 327.222656,17.59375 C326.292964,16.4999945 325.828125,14.9062605 325.828125,12.8125 C325.828125,10.609364 326.289058,8.92578707 327.210938,7.76171875 C328.132817,6.59765043 329.472647,6.015625 331.230469,6.015625 Z M331.230469,7.0703125 C329.839837,7.0703125 328.794925,7.55858887 328.095703,8.53515625 C327.396481,9.51172363 327.046875,10.9296782 327.046875,12.7890625 C327.046875,16.3984555 328.449205,18.203125 331.253906,18.203125 C332.691413,18.203125 333.74609,17.7851604 334.417969,16.9492188 C335.089847,16.1132771 335.425781,14.7343846 335.425781,12.8125 L335.425781,12.6132812 C335.425781,10.6445214 335.095706,9.22851994 334.435547,8.36523438 C333.775387,7.50194881 332.707039,7.0703125 331.230469,7.0703125 Z M6.8671875,40.2695312 L3.8671875,40.2695312 L3.8671875,52 L2.70703125,52 L2.70703125,40.2695312 L0.33984375,40.2695312 L0.33984375,39.5898438 L2.70703125,39.15625 L2.70703125,38.171875 C2.70703125,36.6093672 2.99413775,35.4628943 3.56835938,34.7324219 C4.142581,34.0019495 5.08202473,33.6367188 6.38671875,33.6367188 C7.08984727,33.6367188 7.79296523,33.7421864 8.49609375,33.953125 L8.2265625,34.9609375 C7.60155938,34.765624 6.98047184,34.6679688 6.36328125,34.6679688 C5.45702672,34.6679688 4.81445502,34.9355442 4.43554688,35.4707031 C4.05663873,36.0058621 3.8671875,36.874994 3.8671875,38.078125 L3.8671875,39.2617188 L6.8671875,39.2617188 L6.8671875,40.2695312 Z M10.3359375,39.2617188 L10.3359375,47.5117188 C10.3359375,48.7929752 10.6054661,49.7246065 11.1445312,50.3066406 C11.6835964,50.8886748 12.5195256,51.1796875 13.6523438,51.1796875 C15.1679763,51.1796875 16.2831996,50.7968788 16.9980469,50.03125 C17.7128942,49.2656212 18.0703125,48.0195399 18.0703125,46.2929688 L18.0703125,39.2617188 L19.21875,39.2617188 L19.21875,52 L18.234375,52 L18.0234375,50.2421875 L17.953125,50.2421875 C17.1249959,51.5703191 15.6523543,52.234375 13.5351562,52.234375 C10.6367043,52.234375 9.1875,50.6836093 9.1875,47.5820312 L9.1875,39.2617188 L10.3359375,39.2617188 Z M32.3671875,52 L32.3671875,43.7382812 C32.3671875,42.4570248 32.0976589,41.5253935 31.5585938,40.9433594 C31.0195286,40.3613252 30.1835994,40.0703125 29.0507812,40.0703125 C27.5273361,40.0703125 26.4121129,40.4550743 25.7050781,41.2246094 C24.9980433,41.9941445 24.6445312,43.2421789 24.6445312,44.96875 L24.6445312,52 L23.484375,52 L23.484375,39.2617188 L24.46875,39.2617188 L24.6914062,41.0078125 L24.7617188,41.0078125 C25.5898479,39.6796809 27.0624894,39.015625 29.1796875,39.015625 C32.070327,39.015625 33.515625,40.5663907 33.515625,43.6679688 L33.515625,52 L32.3671875,52 Z M51.7734375,48.6835938 C51.7734375,49.8242245 51.3398481,50.7011688 50.4726562,51.3144531 C49.6054644,51.9277374 48.375008,52.234375 46.78125,52.234375 C45.0781165,52.234375 43.7265675,51.9726589 42.7265625,51.4492188 L42.7265625,50.1953125 C44.0078189,50.8359407 45.3593679,51.15625 46.78125,51.15625 C48.0390688,51.15625 48.9941374,50.9472677 49.6464844,50.5292969 C50.2988314,50.111326 50.625,49.554691 50.625,48.859375 C50.625,48.2187468 50.365237,47.6796897 49.8457031,47.2421875 C49.3261693,46.8046853 48.4726622,46.3750021 47.2851562,45.953125 C46.0117124,45.4921852 45.1171901,45.0957048 44.6015625,44.7636719 C44.0859349,44.431639 43.6972669,44.0566427 43.4355469,43.6386719 C43.1738268,43.220701 43.0429688,42.7109405 43.0429688,42.109375 C43.0429688,41.1562452 43.4433554,40.4023465 44.2441406,39.8476562 C45.0449259,39.292966 46.1640553,39.015625 47.6015625,39.015625 C48.9765694,39.015625 50.2812438,39.2734349 51.515625,39.7890625 L51.0820312,40.84375 C49.832025,40.3281224 48.6718804,40.0703125 47.6015625,40.0703125 C46.5624948,40.0703125 45.7382843,40.2421858 45.1289062,40.5859375 C44.5195282,40.9296892 44.2148438,41.406247 44.2148438,42.015625 C44.2148438,42.6796908 44.4511695,43.2109355 44.9238281,43.609375 C45.3964867,44.0078145 46.3203056,44.4531225 47.6953125,44.9453125 C48.8437557,45.3593771 49.6796849,45.7324202 50.203125,46.0644531 C50.7265651,46.396486 51.1191393,46.7734354 51.3808594,47.1953125 C51.6425794,47.6171896 51.7734375,48.1132784 51.7734375,48.6835938 Z M63.9375,52 L63.9375,43.7382812 C63.9375,42.4570248 63.6679714,41.5253935 63.1289062,40.9433594 C62.5898411,40.3613252 61.7539119,40.0703125 60.6210938,40.0703125 C59.0976486,40.0703125 57.9824254,40.4550743 57.2753906,41.2246094 C56.5683558,41.9941445 56.2148438,43.2421789 56.2148438,44.96875 L56.2148438,52 L55.0546875,52 L55.0546875,33.765625 L56.2148438,33.765625 L56.2148438,39.5664062 L56.15625,41.1953125 L56.2382812,41.1953125 C56.7148461,40.4296837 57.3164026,39.8750017 58.0429688,39.53125 C58.7695349,39.1874983 59.6718696,39.015625 60.75,39.015625 C63.6406395,39.015625 65.0859375,40.5663907 65.0859375,43.6679688 L65.0859375,52 L63.9375,52 Z M79.7460938,45.6132812 C79.7460938,47.6914166 79.2421925,49.3144473 78.234375,50.4824219 C77.2265575,51.6503965 75.8359464,52.234375 74.0625,52.234375 C72.9453069,52.234375 71.9609418,51.9648464 71.109375,51.4257812 C70.2578082,50.8867161 69.605471,50.1132863 69.1523438,49.1054688 C68.6992165,48.0976512 68.4726562,46.9336004 68.4726562,45.6132812 C68.4726562,43.5351459 68.9765575,41.9160214 69.984375,40.7558594 C70.9921925,39.5956973 72.3749912,39.015625 74.1328125,39.015625 C75.8828213,39.015625 77.2558544,39.6035097 78.2519531,40.7792969 C79.2480519,41.955084 79.7460938,43.566396 79.7460938,45.6132812 Z M69.6914062,45.6132812 C69.6914062,47.36329 70.076168,48.7285107 70.8457031,49.7089844 C71.6152382,50.689458 72.703118,51.1796875 74.109375,51.1796875 C75.515632,51.1796875 76.6035118,50.689458 77.3730469,49.7089844 C78.142582,48.7285107 78.5273438,47.36329 78.5273438,45.6132812 C78.5273438,43.85546 78.1386758,42.4921923 77.3613281,41.5234375 C76.5839805,40.5546827 75.4921945,40.0703125 74.0859375,40.0703125 C72.6796805,40.0703125 71.5957069,40.5527296 70.8339844,41.5175781 C70.0722618,42.4824267 69.6914062,43.8476474 69.6914062,45.6132812 Z M88.7226562,52.234375 C86.7617089,52.234375 85.3320357,51.5000073 84.4335938,50.03125 L84.3515625,50.03125 L84.3867188,51.015625 C84.4179689,51.5937529 84.4335938,52.2265591 84.4335938,52.9140625 L84.4335938,57.765625 L83.2734375,57.765625 L83.2734375,39.2617188 L84.2578125,39.2617188 L84.4804688,41.078125 L84.5507812,41.078125 C85.4257856,39.7031181 86.8242091,39.015625 88.7460938,39.015625 C90.4648523,39.015625 91.7753861,39.5800725 92.6777344,40.7089844 C93.5800826,41.8378963 94.03125,43.480458 94.03125,45.6367188 C94.03125,47.7304792 93.5566454,49.3535099 92.6074219,50.5058594 C91.6581984,51.6582089 90.3632895,52.234375 88.7226562,52.234375 Z M88.6992188,51.203125 C90.0039128,51.203125 91.0136683,50.7187548 91.7285156,49.75 C92.4433629,48.7812452 92.8007812,47.42579 92.8007812,45.6835938 C92.8007812,41.9413875 91.4492323,40.0703125 88.7460938,40.0703125 C87.2617113,40.0703125 86.1718785,40.4785115 85.4765625,41.2949219 C84.7812465,42.1113322 84.4335938,43.441397 84.4335938,45.2851562 L84.4335938,45.6601562 C84.4335938,47.6523537 84.7675748,49.0742145 85.4355469,49.9257812 C86.103519,50.777348 87.1913987,51.203125 88.6992188,51.203125 Z M103.007812,52.234375 C101.046865,52.234375 99.617192,51.5000073 98.71875,50.03125 L98.6367188,50.03125 L98.671875,51.015625 C98.7031252,51.5937529 98.71875,52.2265591 98.71875,52.9140625 L98.71875,57.765625 L97.5585938,57.765625 L97.5585938,39.2617188 L98.5429688,39.2617188 L98.765625,41.078125 L98.8359375,41.078125 C99.7109419,39.7031181 101.109365,39.015625 103.03125,39.015625 C104.750009,39.015625 106.060542,39.5800725 106.962891,40.7089844 C107.865239,41.8378963 108.316406,43.480458 108.316406,45.6367188 C108.316406,47.7304792 107.841802,49.3535099 106.892578,50.5058594 C105.943355,51.6582089 104.648446,52.234375 103.007812,52.234375 Z M102.984375,51.203125 C104.289069,51.203125 105.298825,50.7187548 106.013672,49.75 C106.728519,48.7812452 107.085938,47.42579 107.085938,45.6835938 C107.085938,41.9413875 105.734389,40.0703125 103.03125,40.0703125 C101.546868,40.0703125 100.457035,40.4785115 99.7617188,41.2949219 C99.0664028,42.1113322 98.71875,43.441397 98.71875,45.2851562 L98.71875,45.6601562 C98.71875,47.6523537 99.052731,49.0742145 99.7207031,49.9257812 C100.388675,50.777348 101.476555,51.203125 102.984375,51.203125 Z M113.003906,52 L111.84375,52 L111.84375,39.2617188 L113.003906,39.2617188 L113.003906,52 Z M111.679688,35.7226562 C111.679688,34.9726525 111.925779,34.5976562 112.417969,34.5976562 C112.660157,34.5976562 112.849609,34.6953115 112.986328,34.890625 C113.123048,35.0859385 113.191406,35.3632795 113.191406,35.7226562 C113.191406,36.0742205 113.123048,36.3515615 112.986328,36.5546875 C112.849609,36.7578135 112.660157,36.859375 112.417969,36.859375 C111.925779,36.859375 111.679688,36.4804725 111.679688,35.7226562 Z M126.152344,52 L126.152344,43.7382812 C126.152344,42.4570248 125.882815,41.5253935 125.34375,40.9433594 C124.804685,40.3613252 123.968756,40.0703125 122.835938,40.0703125 C121.312492,40.0703125 120.197269,40.4550743 119.490234,41.2246094 C118.7832,41.9941445 118.429688,43.2421789 118.429688,44.96875 L118.429688,52 L117.269531,52 L117.269531,39.2617188 L118.253906,39.2617188 L118.476562,41.0078125 L118.546875,41.0078125 C119.375004,39.6796809 120.847646,39.015625 122.964844,39.015625 C125.855483,39.015625 127.300781,40.5663907 127.300781,43.6679688 L127.300781,52 L126.152344,52 Z M141.363281,39.2617188 L141.363281,40.0703125 L138.726562,40.234375 C139.429691,41.1093794 139.78125,42.0703073 139.78125,43.1171875 C139.78125,44.3437561 139.373051,45.3378868 138.556641,46.0996094 C137.74023,46.8613319 136.644538,47.2421875 135.269531,47.2421875 C134.691403,47.2421875 134.285157,47.2187502 134.050781,47.171875 C133.589841,47.4140637 133.238282,47.6992171 132.996094,48.0273438 C132.753905,48.3554704 132.632812,48.7031232 132.632812,49.0703125 C132.632812,49.4765645 132.787108,49.7734366 133.095703,49.9609375 C133.404298,50.1484384 133.921871,50.2421875 134.648438,50.2421875 L136.875,50.2421875 C138.257819,50.2421875 139.316403,50.5214816 140.050781,51.0800781 C140.78516,51.6386747 141.152344,52.4648383 141.152344,53.5585938 C141.152344,54.9023505 140.607427,55.9394495 139.517578,56.6699219 C138.427729,57.4003943 136.87501,57.765625 134.859375,57.765625 C133.257804,57.765625 132.017583,57.4570343 131.138672,56.8398438 C130.259761,56.2226532 129.820312,55.3632868 129.820312,54.2617188 C129.820312,53.3867144 130.091794,52.6601591 130.634766,52.0820312 C131.177737,51.5039034 131.914058,51.1093761 132.84375,50.8984375 C132.460936,50.7343742 132.154298,50.5019546 131.923828,50.2011719 C131.693358,49.9003891 131.578125,49.5546895 131.578125,49.1640625 C131.578125,48.3124957 132.121088,47.5625032 133.207031,46.9140625 C132.46484,46.6093735 131.886721,46.1308626 131.472656,45.4785156 C131.058592,44.8261686 130.851562,44.0781292 130.851562,43.234375 C130.851562,41.9609311 131.255855,40.939457 132.064453,40.1699219 C132.873051,39.4003868 133.964837,39.015625 135.339844,39.015625 C136.175785,39.015625 136.824216,39.0976554 137.285156,39.2617188 L141.363281,39.2617188 Z M131.050781,54.15625 C131.050781,55.9062588 132.351549,56.78125 134.953125,56.78125 C138.296892,56.78125 139.96875,55.7148544 139.96875,53.5820312 C139.96875,52.8164024 139.707034,52.2617205 139.183594,51.9179688 C138.660154,51.574217 137.812506,51.4023438 136.640625,51.4023438 L134.554688,51.4023438 C132.218738,51.4023438 131.050781,52.3203033 131.050781,54.15625 Z M132.023438,43.234375 C132.023438,44.2187549 132.322263,44.9824192 132.919922,45.5253906 C133.517581,46.0683621 134.316401,46.3398438 135.316406,46.3398438 C136.378912,46.3398438 137.193357,46.0703152 137.759766,45.53125 C138.326175,44.9921848 138.609375,44.2109426 138.609375,43.1875 C138.609375,42.1015571 138.318362,41.2871121 137.736328,40.7441406 C137.154294,40.2011692 136.339849,39.9296875 135.292969,39.9296875 C134.277339,39.9296875 133.478519,40.2207002 132.896484,40.8027344 C132.31445,41.3847685 132.023438,42.1953073 132.023438,43.234375 Z M155.355469,52.234375 C153.503897,52.234375 152.060552,51.6640682 151.025391,50.5234375 C149.990229,49.3828068 149.472656,47.7851665 149.472656,45.7304688 C149.472656,43.6992086 149.972651,42.0722717 150.972656,40.8496094 C151.972661,39.626947 153.320304,39.015625 155.015625,39.015625 C156.515633,39.015625 157.699214,39.5390573 158.566406,40.5859375 C159.433598,41.6328177 159.867188,43.0546785 159.867188,44.8515625 L159.867188,45.7890625 L150.691406,45.7890625 C150.707031,47.5390713 151.11523,48.8749954 151.916016,49.796875 C152.716801,50.7187546 153.863274,51.1796875 155.355469,51.1796875 C156.082035,51.1796875 156.7207,51.1289068 157.271484,51.0273438 C157.822268,50.9257807 158.519527,50.7070329 159.363281,50.3710938 L159.363281,51.4257812 C158.644528,51.7382828 157.980472,51.9511713 157.371094,52.0644531 C156.761716,52.1777349 156.089847,52.234375 155.355469,52.234375 Z M155.015625,40.046875 C153.789056,40.046875 152.804691,40.4511678 152.0625,41.2597656 C151.320309,42.0683634 150.886719,43.2343674 150.761719,44.7578125 L158.636719,44.7578125 C158.636719,43.2812426 158.316409,42.1269573 157.675781,41.2949219 C157.035153,40.4628865 156.148443,40.046875 155.015625,40.046875 Z M166.03125,45.4492188 L161.589844,39.2617188 L162.925781,39.2617188 L166.722656,44.6289062 L170.484375,39.2617188 L171.761719,39.2617188 L167.390625,45.4492188 L172.078125,52 L170.730469,52 L166.722656,46.3164062 L162.691406,52 L161.414062,52 L166.03125,45.4492188 Z M180.304688,52.234375 C178.34374,52.234375 176.914067,51.5000073 176.015625,50.03125 L175.933594,50.03125 L175.96875,51.015625 C176,51.5937529 176.015625,52.2265591 176.015625,52.9140625 L176.015625,57.765625 L174.855469,57.765625 L174.855469,39.2617188 L175.839844,39.2617188 L176.0625,41.078125 L176.132812,41.078125 C177.007817,39.7031181 178.40624,39.015625 180.328125,39.015625 C182.046884,39.015625 183.357417,39.5800725 184.259766,40.7089844 C185.162114,41.8378963 185.613281,43.480458 185.613281,45.6367188 C185.613281,47.7304792 185.138677,49.3535099 184.189453,50.5058594 C183.24023,51.6582089 181.945321,52.234375 180.304688,52.234375 Z M180.28125,51.203125 C181.585944,51.203125 182.5957,50.7187548 183.310547,49.75 C184.025394,48.7812452 184.382812,47.42579 184.382812,45.6835938 C184.382812,41.9413875 183.031264,40.0703125 180.328125,40.0703125 C178.843743,40.0703125 177.75391,40.4785115 177.058594,41.2949219 C176.363278,42.1113322 176.015625,43.441397 176.015625,45.2851562 L176.015625,45.6601562 C176.015625,47.6523537 176.349606,49.0742145 177.017578,49.9257812 C177.68555,50.777348 178.77343,51.203125 180.28125,51.203125 Z M194.285156,52.234375 C192.433584,52.234375 190.99024,51.6640682 189.955078,50.5234375 C188.919917,49.3828068 188.402344,47.7851665 188.402344,45.7304688 C188.402344,43.6992086 188.902339,42.0722717 189.902344,40.8496094 C190.902349,39.626947 192.249992,39.015625 193.945312,39.015625 C195.44532,39.015625 196.628902,39.5390573 197.496094,40.5859375 C198.363286,41.6328177 198.796875,43.0546785 198.796875,44.8515625 L198.796875,45.7890625 L189.621094,45.7890625 C189.636719,47.5390713 190.044918,48.8749954 190.845703,49.796875 C191.646488,50.7187546 192.792961,51.1796875 194.285156,51.1796875 C195.011722,51.1796875 195.650388,51.1289068 196.201172,51.0273438 C196.751956,50.9257807 197.449215,50.7070329 198.292969,50.3710938 L198.292969,51.4257812 C197.574215,51.7382828 196.910159,51.9511713 196.300781,52.0644531 C195.691403,52.1777349 195.019535,52.234375 194.285156,52.234375 Z M193.945313,40.046875 C192.718744,40.046875 191.734379,40.4511678 190.992188,41.2597656 C190.249996,42.0683634 189.816407,43.2343674 189.691406,44.7578125 L197.566406,44.7578125 C197.566406,43.2812426 197.246097,42.1269573 196.605469,41.2949219 C195.964841,40.4628865 195.078131,40.046875 193.945313,40.046875 Z M207.328125,39.015625 C207.86719,39.015625 208.445309,39.070312 209.0625,39.1796875 L208.839844,40.2929688 C208.308591,40.1601556 207.757815,40.09375 207.1875,40.09375 C206.101557,40.09375 205.210941,40.5546829 204.515625,41.4765625 C203.820309,42.3984421 203.472656,43.562493 203.472656,44.96875 L203.472656,52 L202.3125,52 L202.3125,39.2617188 L203.296875,39.2617188 L203.414062,41.5585938 L203.496094,41.5585938 C204.019534,40.6210891 204.578122,39.9628925 205.171875,39.5839844 C205.765628,39.2050762 206.484371,39.015625 207.328125,39.015625 Z M212.8125,52 L211.652344,52 L211.652344,39.2617188 L212.8125,39.2617188 L212.8125,52 Z M211.488281,35.7226562 C211.488281,34.9726525 211.734373,34.5976562 212.226562,34.5976562 C212.468751,34.5976562 212.658202,34.6953115 212.794922,34.890625 C212.931641,35.0859385 213,35.3632795 213,35.7226562 C213,36.0742205 212.931641,36.3515615 212.794922,36.5546875 C212.658202,36.7578135 212.468751,36.859375 212.226562,36.859375 C211.734373,36.859375 211.488281,36.4804725 211.488281,35.7226562 Z M222.222656,52.234375 C220.371084,52.234375 218.92774,51.6640682 217.892578,50.5234375 C216.857417,49.3828068 216.339844,47.7851665 216.339844,45.7304688 C216.339844,43.6992086 216.839839,42.0722717 217.839844,40.8496094 C218.839849,39.626947 220.187492,39.015625 221.882812,39.015625 C223.38282,39.015625 224.566402,39.5390573 225.433594,40.5859375 C226.300786,41.6328177 226.734375,43.0546785 226.734375,44.8515625 L226.734375,45.7890625 L217.558594,45.7890625 C217.574219,47.5390713 217.982418,48.8749954 218.783203,49.796875 C219.583988,50.7187546 220.730461,51.1796875 222.222656,51.1796875 C222.949222,51.1796875 223.587888,51.1289068 224.138672,51.0273438 C224.689456,50.9257807 225.386715,50.7070329 226.230469,50.3710938 L226.230469,51.4257812 C225.511715,51.7382828 224.847659,51.9511713 224.238281,52.0644531 C223.628903,52.1777349 222.957035,52.234375 222.222656,52.234375 Z M221.882812,40.046875 C220.656244,40.046875 219.671879,40.4511678 218.929688,41.2597656 C218.187496,42.0683634 217.753907,43.2343674 217.628906,44.7578125 L225.503906,44.7578125 C225.503906,43.2812426 225.183597,42.1269573 224.542969,41.2949219 C223.902341,40.4628865 223.015631,40.046875 221.882812,40.046875 Z M239.132812,52 L239.132812,43.7382812 C239.132812,42.4570248 238.863284,41.5253935 238.324219,40.9433594 C237.785154,40.3613252 236.949224,40.0703125 235.816406,40.0703125 C234.292961,40.0703125 233.177738,40.4550743 232.470703,41.2246094 C231.763668,41.9941445 231.410156,43.2421789 231.410156,44.96875 L231.410156,52 L230.25,52 L230.25,39.2617188 L231.234375,39.2617188 L231.457031,41.0078125 L231.527344,41.0078125 C232.355473,39.6796809 233.828114,39.015625 235.945312,39.015625 C238.835952,39.015625 240.28125,40.5663907 240.28125,43.6679688 L240.28125,52 L239.132812,52 Z M249.492188,52.234375 C247.671866,52.234375 246.246099,51.660162 245.214844,50.5117188 C244.183589,49.3632755 243.667969,47.761729 243.667969,45.7070312 C243.667969,43.5976457 244.20312,41.955084 245.273438,40.7792969 C246.343755,39.6035097 247.808584,39.015625 249.667969,39.015625 C250.769537,39.015625 251.824214,39.2070293 252.832031,39.5898438 L252.515625,40.6210938 C251.414057,40.2539044 250.457035,40.0703125 249.644531,40.0703125 C248.082023,40.0703125 246.898442,40.5527296 246.09375,41.5175781 C245.289058,42.4824267 244.886719,43.8710847 244.886719,45.6835938 C244.886719,47.4023523 245.289058,48.748042 246.09375,49.7207031 C246.898442,50.6933642 248.02343,51.1796875 249.46875,51.1796875 C250.625006,51.1796875 251.699214,50.9726583 252.691406,50.5585938 L252.691406,51.6367188 C251.878902,52.0351582 250.812507,52.234375 249.492188,52.234375 Z M260.953125,52.234375 C259.101553,52.234375 257.658208,51.6640682 256.623047,50.5234375 C255.587885,49.3828068 255.070312,47.7851665 255.070312,45.7304688 C255.070312,43.6992086 255.570308,42.0722717 256.570312,40.8496094 C257.570317,39.626947 258.91796,39.015625 260.613281,39.015625 C262.113289,39.015625 263.296871,39.5390573 264.164062,40.5859375 C265.031254,41.6328177 265.464844,43.0546785 265.464844,44.8515625 L265.464844,45.7890625 L256.289062,45.7890625 C256.304688,47.5390713 256.712887,48.8749954 257.513672,49.796875 C258.314457,50.7187546 259.46093,51.1796875 260.953125,51.1796875 C261.679691,51.1796875 262.318357,51.1289068 262.869141,51.0273438 C263.419925,50.9257807 264.117183,50.7070329 264.960938,50.3710938 L264.960938,51.4257812 C264.242184,51.7382828 263.578128,51.9511713 262.96875,52.0644531 C262.359372,52.1777349 261.687504,52.234375 260.953125,52.234375 Z M260.613281,40.046875 C259.386713,40.046875 258.402347,40.4511678 257.660156,41.2597656 C256.917965,42.0683634 256.484376,43.2343674 256.359375,44.7578125 L264.234375,44.7578125 C264.234375,43.2812426 263.914066,42.1269573 263.273438,41.2949219 C262.632809,40.4628865 261.746099,40.046875 260.613281,40.046875 Z" id="Shaping-a-unified,-b"></path>
                </g>
            </g>
        </g>
    </g>
</svg>