<svg width="10" height="308" viewBox="0 0 10 308" fill="none" xmlns="http://www.w3.org/2000/svg">
<line x1="4.50024" y1="179" x2="4.50024" y2="98" stroke="white"/>
<path d="M8 307.426L8 305.071C8 303.739 7.32102 303.085 6.41477 303.085C5.53409 303.085 5.01705 303.71 4.9858 304.33L4.92898 304.33C4.79545 303.761 4.39773 303.312 3.69034 303.312C2.82386 303.312 2.18182 303.937 2.18182 305.199L2.18182 307.426L8 307.426ZM7.11932 306.372L5.41477 306.372L5.41477 305.21C5.41477 304.56 5.8125 304.156 6.33239 304.156C6.79545 304.156 7.11932 304.474 7.11932 305.239L7.11932 306.372ZM4.65625 306.372L3.05114 306.372L3.05114 305.307C3.05114 304.687 3.37784 304.366 3.8267 304.366C4.33807 304.366 4.65625 304.781 4.65625 305.33L4.65625 306.372ZM8 300.621L6.56534 300.141L6.56534 297.954L8 297.471L8 296.346L2.18182 298.397L2.18182 299.698L8 301.746L8 300.621ZM5.71875 299.857L3.375 299.07L3.375 299.025L5.71875 298.238L5.71875 299.857ZM3.78125 291.711L3.78125 290.697C2.79829 290.717 2.10227 291.555 2.10227 292.793C2.10227 294.015 2.78977 294.933 3.81818 294.93C4.65341 294.93 5.13352 294.336 5.38068 293.379L5.55114 292.717C5.71023 292.089 5.90625 291.674 6.35795 291.671C6.85511 291.674 7.1875 292.146 7.1875 292.833C7.1875 293.492 6.89204 294.004 6.28125 294.046L6.28125 295.083C7.4375 295.041 8.08807 294.18 8.08807 292.825C8.08807 291.43 7.39204 290.62 6.36648 290.617C5.35795 290.62 4.89773 291.453 4.69034 292.328L4.55398 292.873C4.44034 293.35 4.23864 293.867 3.75284 293.862C3.31534 293.859 2.99432 293.467 2.99432 292.808C2.99432 292.18 3.28693 291.765 3.78125 291.711ZM8 288.878L8 285.071L7.11648 285.071L7.11648 287.824L5.52841 287.824L5.52841 285.29L4.64489 285.29L4.64489 287.824L3.06534 287.824L3.06534 285.094L2.18182 285.094L2.18182 288.878L8 288.878ZM8 281.247C8 279.474 6.90341 278.423 5.08523 278.423C3.27273 278.423 2.18182 279.474 2.18182 281.207L2.18182 283.218L8 283.218L8 281.247ZM7.08807 282.164L3.09375 282.164L3.09375 281.267C3.09375 280.085 3.75284 279.468 5.08523 279.468C6.42329 279.468 7.08807 280.085 7.08807 281.298L7.08807 282.164ZM2.18182 272.783L2.18182 273.837L8 273.837L8 272.783L2.18182 272.783ZM2.18182 266.061L2.18182 267.109L6.14773 267.109L6.14773 267.16L2.18182 269.899L2.18182 270.842L8 270.842L8 269.788L4.03693 269.788L4.03693 269.739L8 266.998L8 266.061L2.18182 266.061ZM2.18182 256.546L2.18182 257.595L6.14773 257.595L6.14773 257.646L2.18182 260.385L2.18182 261.328L8 261.328L8 260.274L4.03693 260.274L4.03693 260.225L8 257.484L8 256.546L2.18182 256.546ZM8 254.598L8 250.791L7.11647 250.791L7.11647 253.544L5.52841 253.544L5.52841 251.01L4.64488 251.01L4.64488 253.544L3.06534 253.544L3.06534 250.814L2.18182 250.814L2.18182 254.598L8 254.598ZM8 247.714L8 246.674L3.91761 245.507L3.91761 245.461L8 244.297L8 243.257L2.18182 241.615L2.18182 242.748L6.46022 243.797L6.46022 243.848L2.18182 244.97L2.18182 246.001L6.45738 247.12L6.45738 247.174L2.18182 248.223L2.18182 249.356L8 247.714ZM2.18181 237.697L5.82954 235.581L8 235.581L8 234.53L5.82954 234.53L2.18181 232.413L2.18181 233.604L4.75568 235.027L4.75568 235.084L2.18181 236.507L2.18181 237.697ZM5.09091 225.996C3.21022 225.996 2.10227 227.144 2.10227 228.669C2.10227 230.198 3.21022 231.343 5.09091 231.343C6.96875 231.343 8.07954 230.198 8.07954 228.669C8.07954 227.144 6.97159 225.996 5.09091 225.996ZM5.09091 227.056C6.41477 227.056 7.13352 227.72 7.13352 228.669C7.13352 229.615 6.41477 230.283 5.09091 230.283C3.76704 230.283 3.04829 229.615 3.04829 228.669C3.04829 227.72 3.76704 227.056 5.09091 227.056ZM8 224.2L8 223.146L5.86931 223.146L5.86931 222.072L8 220.93L8 219.754L5.69318 221.012C5.41761 220.327 4.83238 219.967 4.04261 219.967C2.93181 219.967 2.18181 220.683 2.18181 222.018L2.18181 224.2L8 224.2ZM4.99431 223.146L3.0625 223.146L3.0625 222.18C3.0625 221.393 3.42329 221.04 4.04261 221.04C4.66193 221.04 4.99431 221.393 4.99431 222.174L4.99431 223.146ZM8 218.196L8 217.142L6.26704 217.142L5.50568 216.498L8 214.762L8 213.495L4.79261 215.765L2.18181 213.515L2.18181 214.802L4.85511 217.071L4.85511 217.142L2.18181 217.142L2.18181 218.196L8 218.196ZM4.14488 204.218C2.85227 204.397 2.10227 205.391 2.10227 206.681C2.10227 208.201 3.21022 209.346 5.0909 209.346C6.96875 209.346 8.07954 208.215 8.07954 206.681C8.07954 205.297 7.18465 204.38 6.07386 204.218L6.06818 205.28C6.75 205.414 7.13352 205.971 7.13352 206.667C7.13352 207.61 6.42613 208.286 5.0909 208.286C3.7784 208.286 3.04829 207.616 3.04829 206.664C3.04829 205.957 3.44886 205.403 4.14488 205.28L4.14488 204.218ZM2.18181 201.399L2.18181 202.453L8 202.453L8 201.399L2.18181 201.399ZM3.06534 199.713L3.06534 197.915L8 197.915L8 196.869L3.06534 196.869L3.06534 195.071L2.18181 195.071L2.18181 199.713L3.06534 199.713ZM2.18181 193.774L5.82954 191.657L7.99999 191.657L7.99999 190.606L5.82954 190.606L2.18181 188.49L2.18181 189.68L4.75568 191.103L4.75568 191.16L2.18181 192.584L2.18181 193.774Z" fill="white"/>
<path d="M8.00024 88.4261L8.00024 87.3722L5.52865 87.3722L5.52865 84.9545L4.64513 84.9545L4.64513 87.3722L3.06559 87.3722L3.06558 84.6989L2.18206 84.6989L2.18206 88.4261L8.00024 88.4261ZM8.00024 82.9386L8.00024 81.8847L5.86956 81.8847L5.86956 80.8108L8.00024 79.6687L8.00024 78.4926L5.69343 79.7511C5.41786 79.0665 4.83263 78.7057 4.04286 78.7057C2.93206 78.7057 2.18206 79.4216 2.18206 80.7568L2.18206 82.9386L8.00024 82.9386ZM4.99456 81.8847L3.06274 81.8847L3.06274 80.9187C3.06274 80.1318 3.42354 79.7795 4.04286 79.7795C4.66218 79.7795 4.99456 80.1318 4.99456 80.9131L4.99456 81.8847ZM5.09115 71.7366C3.21047 71.7366 2.10252 72.8844 2.10252 74.4099C2.10252 75.9384 3.21047 77.0832 5.09115 77.0832C6.96899 77.0832 8.07979 75.9384 8.07979 74.4099C8.07979 72.8844 6.97183 71.7366 5.09115 71.7366ZM5.09115 72.7963C6.41502 72.7963 7.13377 73.4611 7.13377 74.4099C7.13377 75.356 6.41502 76.0236 5.09115 76.0236C3.76729 76.0236 3.04854 75.356 3.04854 74.4099C3.04854 73.4611 3.76729 72.7963 5.09115 72.7963ZM2.18206 69.9402L8.00024 69.9402L8.00024 68.9288L3.99456 68.9288L3.99456 68.8749L7.9832 67.2669L7.9832 66.5112L4.00308 64.9033L4.00308 64.8493L8.00024 64.8493L8.00024 63.8379L2.18206 63.8379L2.18206 65.1277L6.39797 66.855L6.39797 66.9232L2.18206 68.6504L2.18206 69.9402ZM3.78149 55.9439L3.78149 54.9297C2.79854 54.9496 2.10252 55.7876 2.10252 57.0263C2.10252 58.2479 2.79002 59.1655 3.81842 59.1626C4.65365 59.1626 5.13377 58.5689 5.38092 57.6115L5.55138 56.9496C5.71047 56.3217 5.90649 55.907 6.3582 55.9041C6.85536 55.907 7.18774 56.3786 7.18774 57.0661C7.18774 57.7251 6.89229 58.2365 6.28149 58.2791L6.28149 59.3161C7.43774 59.2734 8.08831 58.4126 8.08831 57.0575C8.08831 55.6626 7.39229 54.853 6.36672 54.8501C5.3582 54.853 4.89797 55.6854 4.69058 56.5604L4.55422 57.1058C4.44058 57.5831 4.23888 58.1001 3.75308 58.0945C3.31558 58.0916 2.99456 57.6996 2.99456 57.0405C2.99456 56.4126 3.28717 55.9979 3.78149 55.9439ZM8.00024 53.1105L8.00024 52.0565L5.52865 52.0565L5.52865 49.6389L4.64513 49.6389L4.64513 52.0565L3.06558 52.0565L3.06558 49.3832L2.18206 49.3832L2.18206 53.1105L8.00024 53.1105ZM8.00024 44.8386L8.00024 42.4835C8.00024 41.1511 7.32126 40.4977 6.41501 40.4977C5.53433 40.4977 5.01729 41.1227 4.98604 41.742L4.92922 41.742C4.7957 41.1739 4.39797 40.725 3.69058 40.725C2.82411 40.725 2.18206 41.35 2.18206 42.6114L2.18206 44.8386L8.00024 44.8386ZM7.11956 43.7847L5.41501 43.7847L5.41501 42.6227C5.41501 41.9722 5.81274 41.5687 6.33263 41.5687C6.7957 41.5687 7.11956 41.8869 7.11956 42.6511L7.11956 43.7847ZM4.65649 43.7847L3.05138 43.7847L3.05138 42.7193C3.05138 42.1 3.37808 41.779 3.82695 41.779C4.33831 41.779 4.65649 42.1937 4.65649 42.742L4.65649 43.7847ZM8.00024 38.0337L6.56558 37.5536L6.56558 35.366L8.00024 34.8831L8.00024 33.7581L2.18206 35.8092L2.18206 37.1104L8.00024 39.1587L8.00024 38.0337ZM5.71899 37.2695L3.37524 36.4825L3.37524 36.4371L5.71899 35.6501L5.71899 37.2695ZM2.18206 33.1832L5.82979 31.0668L8.00024 31.0668L8.00024 30.0156L5.82979 30.0156L2.18206 27.8991L2.18206 29.0895L4.75592 30.5128L4.75592 30.5696L2.18206 31.9929L2.18206 33.1832ZM8.00024 22.8212L6.56558 22.3411L6.56558 20.1536L8.00024 19.6706L8.00024 18.5456L2.18206 20.5967L2.18206 21.8979L8.00024 23.9462L8.00024 22.8212ZM5.71899 22.057L3.37524 21.27L3.37524 21.2246L5.71899 20.4376L5.71899 22.057ZM8.00024 16.9793L8.00024 15.9253L5.86956 15.9253L5.86956 14.8514L8.00024 13.7094L8.00024 12.5332L5.69342 13.7918C5.41785 13.1071 4.83263 12.7463 4.04285 12.7463C2.93206 12.7463 2.18206 13.4622 2.18206 14.7974L2.18206 16.9793L8.00024 16.9793ZM4.99456 15.9253L3.06274 15.9253L3.06274 14.9594C3.06274 14.1724 3.42354 13.8202 4.04285 13.8202C4.66217 13.8202 4.99456 14.1724 4.99456 14.9537L4.99456 15.9253ZM8.00024 10.9761L8.00024 7.16932L7.11672 7.16932L7.11672 9.92216L5.52865 9.92216L5.52865 7.38807L4.64513 7.38807L4.64513 9.92216L3.06558 9.92216L3.06558 7.19205L2.18206 7.19205L2.18206 10.9761L8.00024 10.9761ZM8.00024 4.5696L6.56558 4.08949L6.56558 1.90199L8.00024 1.41903L8.00024 0.294034L2.18206 2.34517L2.18206 3.64631L8.00024 5.6946L8.00024 4.5696ZM5.71899 3.8054L3.37524 3.01847L3.37524 2.97301L5.71899 2.18608L5.71899 3.8054Z" fill="white"/>
</svg>
