<?xml version="1.0" encoding="UTF-8"?>
<svg width="1440px" height="929px" viewBox="0 0 1440 929" version="1.1" xmlns="http://www.w3.org/2000/svg" xmlns:xlink="http://www.w3.org/1999/xlink">
    <!-- Generator: Sketch 49.3 (51167) - http://www.bohemiancoding.com/sketch -->
    <title>Group 3</title>
    <desc>Created with Sketch.</desc>
    <defs>
        <rect id="path-1" x="0" y="0" width="1440" height="1169"></rect>
        <linearGradient x1="100%" y1="100%" x2="0%" y2="100%" id="linearGradient-3">
            <stop stop-color="#9A21D3" offset="0%"></stop>
            <stop stop-color="#2196F3" offset="100%"></stop>
        </linearGradient>
    </defs>
    <g id="Page-1" stroke="none" stroke-width="1" fill="none" fill-rule="evenodd" opacity="0.5">
        <g id="Group-3" transform="translate(0.000000, -159.000000)">
            <mask id="mask-2" fill="white">
                <use xlink:href="#path-1"></use>
            </mask>
            <g id="Mask"></g>
            <g mask="url(#mask-2)" id="Line" stroke="url(#linearGradient-3)" stroke-linecap="round" stroke-linejoin="round">
                <g transform="translate(-765.000000, 58.000000)">
                    <path d="M0.989869281,148 C0.989869281,410.371182 130.876177,834.583346 295.682724,834.583346 C460.489272,834.583346 405.075207,460.34618 811.944606,278.421085 C1218.81401,96.4959904 1256.25211,848.785648 1519.23909,895.869005 C1782.22607,942.952361 2059.76221,706.327469 2289.43362,662.236137 C2519.10504,618.144805 2799.38187,565.431011 2921.12167,746.2526 C3042.86147,927.074189 3026.25763,981 3026.25763,981" transform="translate(1514.005065, 564.500000) scale(-1, 1) translate(-1514.005065, -564.500000) "></path>
                    <path d="M0,169 C9.71256558e-14,431.289037 129.903863,855.368384 294.732685,855.368384 C459.561508,855.368384 404.139953,481.248388 811.064344,299.380252 C1217.98874,117.512116 1255.4319,869.56624 1518.45443,916.634856 C1781.47695,963.703471 2059.0506,727.152663 2288.75306,683.075136 C2518.45551,638.997608 2798.77023,586.300318 2920.52648,767.065294 C3042.28273,947.83027 3028.53328,987 3028.53328,987" transform="translate(1514.500000, 578.000000) scale(-1, 1) translate(-1514.500000, -578.000000) "></path>
                    <path d="M1.97973856,191 C1.97973856,453.347967 131.879535,877.522596 296.703199,877.522596 C461.526862,877.522596 406.107042,503.318543 813.018696,321.409546 C1219.93035,139.500548 1257.37234,891.723642 1520.38664,938.802832 C1783.40093,985.882023 2060.96589,749.278068 2290.66116,705.190637 C2520.35642,661.103205 2800.66236,608.394076 2922.41481,789.199665 C3044.16725,970.005255 3028.32439,993 3028.32439,993" transform="translate(1515.489869, 592.000000) scale(-1, 1) translate(-1515.489869, -592.000000) "></path>
                    <path d="M1.97973856,212 C1.97973856,474.505412 131.879535,898.934603 296.703199,898.934603 C461.526862,898.934603 406.107042,524.505977 813.018696,342.487809 C1219.93035,160.469641 1257.37234,913.144172 1520.38664,960.251616 C1783.40093,1007.35906 2060.96589,770.613111 2290.66116,726.499221 C2520.35642,682.385332 2800.66236,629.644569 2922.41481,810.558667 C3044.16725,991.472765 3028.32439,990.999994 3028.32439,990.999994" transform="translate(1515.489869, 601.500000) scale(-1, 1) translate(-1515.489869, -601.500000) "></path>
                    <path d="M1.97973856,233 C1.97973856,495.359132 131.879535,919.551813 296.703199,919.551813 C461.526862,919.551813 406.107042,545.331835 813.018696,363.415095 C1219.93035,181.498356 1257.37234,933.753463 1520.38664,980.834657 C1783.40093,1027.91585 2060.96589,791.301827 2290.66116,747.212519 C2520.35642,703.123212 2800.66236,650.411839 2922.41481,831.225124 C3044.16725,1012.03841 3028.32439,980.834657 3028.32439,980.834657" transform="translate(1515.489869, 610.000000) scale(-1, 1) translate(-1515.489869, -610.000000) "></path>
                    <path d="M1.97973856,254 C1.97973856,516.359132 131.879535,940.551813 296.703199,940.551813 C461.526862,940.551813 406.107042,566.331835 813.018696,384.415095 C1219.93035,202.498356 1257.37234,954.753463 1520.38664,1001.83466 C1783.40093,1048.91585 2060.96589,812.301827 2290.66116,768.212519 C2520.35642,724.123212 2800.66236,671.411839 2922.41481,852.225124 C3044.16725,1033.03841 3028.32439,981.338559 3028.32439,981.338559" transform="translate(1515.489869, 631.000000) scale(-1, 1) translate(-1515.489869, -631.000000) "></path>
                    <path d="M4.94934641,275 C4.94934641,537.359132 134.835224,961.551813 299.641227,961.551813 C464.447229,961.551813 409.033347,587.331835 815.901401,405.415095 C1222.76945,223.498356 1260.20744,975.753463 1523.19355,1022.83466 C1786.17966,1069.91585 2063.71488,833.301827 2293.38553,789.212519 C2523.05618,745.123212 2803.33209,692.411839 2925.07149,873.225124 C3046.81088,1054.03841 3026.78252,999.568643 3026.78252,999.568643" transform="translate(1516.479739, 652.000000) scale(-1, 1) translate(-1516.479739, -652.000000) "></path>
                    <path d="M1.97973856,127 C1.97973856,389.371182 131.866046,813.583346 296.672594,813.583346 C461.479141,813.583346 406.065076,439.34618 812.934476,257.421085 C1219.80387,75.4959904 1257.24198,827.785648 1520.22896,874.869005 C1783.21594,921.952361 2060.75208,685.327469 2290.42349,641.236137 C2520.09491,597.144805 2800.37174,544.431011 2922.11154,725.2526 C3043.85134,906.074189 3027.2475,960 3027.2475,960" transform="translate(1514.994935, 543.500000) scale(-1, 1) translate(-1514.994935, -543.500000) "></path>
                    <path d="M1.97973856,106 C1.97973856,368.371182 131.866046,792.583346 296.672594,792.583346 C461.479141,792.583346 406.065076,418.34618 812.934476,236.421085 C1219.80387,54.4959904 1257.24198,806.785648 1520.22896,853.869005 C1783.21594,900.952361 2060.75208,664.327469 2290.42349,620.236137 C2520.09491,576.144805 2800.37174,523.431011 2922.11154,704.2526 C3043.85134,885.074189 3027.2475,939 3027.2475,939" transform="translate(1514.994935, 522.500000) scale(-1, 1) translate(-1514.994935, -522.500000) "></path>
                    <path d="M1.97973856,85 C1.97973856,347.371182 131.866046,771.583346 296.672594,771.583346 C461.479141,771.583346 406.065076,397.34618 812.934476,215.421085 C1219.80387,33.4959904 1257.24198,785.785648 1520.22896,832.869005 C1783.21594,879.952361 2060.75208,643.327469 2290.42349,599.236137 C2520.09491,555.144805 2800.37174,502.431011 2922.11154,683.2526 C3043.85134,864.074189 3027.2475,918 3027.2475,918" transform="translate(1514.994935, 501.500000) scale(-1, 1) translate(-1514.994935, -501.500000) "></path>
                    <path d="M1.97973856,64 C1.97973856,326.371182 131.866046,750.583346 296.672594,750.583346 C461.479141,750.583346 406.065076,376.34618 812.934476,194.421085 C1219.80387,12.4959904 1257.24198,764.785648 1520.22896,811.869005 C1783.21594,858.952361 2060.75208,622.327469 2290.42349,578.236137 C2520.09491,534.144805 2800.37174,481.431011 2922.11154,662.2526 C3043.85134,843.074189 3027.2475,897 3027.2475,897" transform="translate(1514.994935, 480.500000) scale(-1, 1) translate(-1514.994935, -480.500000) "></path>
                    <path d="M1.97973856,43 C1.97973856,305.371182 131.866046,729.583346 296.672594,729.583346 C461.479141,729.583346 406.065076,355.34618 812.934476,173.421085 C1219.80387,-8.50400957 1257.24198,743.785648 1520.22896,790.869005 C1783.21594,837.952361 2060.75208,601.327469 2290.42349,557.236137 C2520.09491,513.144805 2800.37174,460.431011 2922.11154,641.2526 C3043.85134,822.074189 3027.2475,876 3027.2475,876" transform="translate(1514.994935, 459.500000) scale(-1, 1) translate(-1514.994935, -459.500000) "></path>
                    <path d="M1.97973856,21 C1.97973856,283.371182 131.866046,707.583346 296.672594,707.583346 C461.479141,707.583346 406.065076,333.34618 812.934476,151.421085 C1219.80387,-30.5040096 1257.24198,721.785648 1520.22896,768.869005 C1783.21594,815.952361 2060.75208,579.327469 2290.42349,535.236137 C2520.09491,491.144805 2800.37174,438.431011 2922.11154,619.2526 C3043.85134,800.074189 3027.2475,854 3027.2475,854" transform="translate(1514.994935, 437.500000) scale(-1, 1) translate(-1514.994935, -437.500000) "></path>
                    <path d="M0,0 C9.71256558e-14,262.468068 129.903863,686.83688 294.732685,686.83688 C459.561508,686.83688 404.139953,312.46152 811.064344,130.469246 C1217.98874,-51.5230284 1255.4319,701.044427 1518.45443,748.14517 C1781.47695,795.245913 2059.0506,558.533642 2288.75306,514.426028 C2518.45551,470.318415 2798.77023,417.585155 2920.52648,598.473516 C3042.28273,779.361877 3028.53328,835 3028.53328,835" transform="translate(1514.500000, 417.500000) scale(-1, 1) translate(-1514.500000, -417.500000) "></path>
                </g>
            </g>
        </g>
    </g>
</svg>