<?xml version="1.0" encoding="UTF-8" standalone="no"?>
<svg width="62px" height="93px" viewBox="0 0 62 93" version="1.1" xmlns="http://www.w3.org/2000/svg" xmlns:xlink="http://www.w3.org/1999/xlink" xmlns:sketch="http://www.bohemiancoding.com/sketch/ns">
    <!-- Generator: Sketch 3.3.3 (12081) - http://www.bohemiancoding.com/sketch -->
    <title>pdf</title>
    <desc>Created with Sketch.</desc>
    <defs></defs>
    <g id="icons" stroke="none" stroke-width="1" fill="none" fill-rule="evenodd" sketch:type="MSPage">
        <g id="pdf" sketch:type="MSLayerGroup" transform="translate(-1.000000, -1.000000)" fill="#545B61">
            <text id="Haines-CV" sketch:type="MSTextLayer" font-family="Lato" font-size="14" font-weight="260">
                <tspan x="0" y="93">Haines CV</tspan>
            </text>
            <g transform="translate(5.000000, 0.000000)" id="Group" sketch:type="MSShapeGroup">
                <g transform="translate(0.000000, 0.709832)">
                    <path d="M30.7306012,0.776105323 C30.6948784,0.785871628 30.6596652,0.797385726 30.625091,0.810605323 L4.80876449,0.810605323 C2.32714204,0.810605323 0.283948163,2.83642306 0.283948163,5.29694081 L0.283948163,59.168279 C0.283948163,61.6303548 2.32714204,63.6547258 4.80876449,63.6547258 L7.05366245,63.6547258 L7.05366245,64.2460113 C7.05366245,66.0726194 8.57850939,67.584721 10.4210094,67.584721 L51.3553767,67.584721 C53.1976522,67.584721 54.687591,66.0726194 54.687591,64.2460113 L54.687591,49.465321 C54.687591,47.6384903 53.1976522,46.1614452 51.3553767,46.1614452 L48.3738155,46.1614452 L48.3738155,17.5735989 C48.3745347,17.5506044 48.3745347,17.5275933 48.3738155,17.5045989 C48.3739953,17.4930996 48.3739953,17.4815982 48.3738155,17.4700989 C48.3689237,17.399605 48.3572725,17.3297331 48.3390196,17.2614295 C48.3391994,17.2499302 48.3391994,17.2384288 48.3390196,17.2269295 C48.3397622,17.2035643 48.3397622,17.1801818 48.3390196,17.1568166 C48.3276766,17.1450659 48.3160752,17.1335631 48.3042237,17.1223166 C48.3044034,17.1108173 48.3044034,17.0993159 48.3042237,17.0878166 C48.2934563,17.064049 48.2818505,17.0406637 48.2694278,17.0177037 C48.2586368,16.994312 48.2470311,16.9712981 48.2346318,16.9487037 C48.2230339,16.9485255 48.2114339,16.9485255 48.1998359,16.9487037 C48.1890685,16.9249361 48.1774628,16.9015508 48.16504,16.8785908 C48.153697,16.8668401 48.1420956,16.8553373 48.1302441,16.8440908 C48.1194531,16.8206991 48.1078475,16.7976852 48.0954482,16.7750908 C48.0841052,16.7633401 48.0725037,16.7518373 48.0606522,16.7405908 C48.0493092,16.7288401 48.0377078,16.7173373 48.0258563,16.7060908 L31.6801931,1.09072306 C31.6580493,1.06634662 31.6348293,1.04295281 31.6106012,1.02061016 C31.392874,0.847111449 31.1177282,0.760329428 30.8389176,0.777218226 C30.8037669,0.775578548 30.768558,0.775578548 30.7334073,0.777218226 L30.7306012,0.776105323 Z M4.80898898,3.03674565 L29.7834788,3.03674565 L29.7834788,14.130944 C29.7834788,16.5922408 31.7921012,18.6173908 34.2732747,18.6173908 L46.129142,18.6173908 L46.129142,46.161779 L10.4212339,46.161779 C8.57873388,46.161779 7.05388694,47.6388242 7.05388694,49.4656548 L7.05388694,61.4292532 L4.80898898,61.4292532 C3.54163184,61.4292532 2.52907061,60.4284194 2.52907061,59.1686129 L2.52907061,5.29727468 C2.52907061,4.04069565 3.54163184,3.03674565 4.80898898,3.03674565 L4.80898898,3.03674565 Z M32.0283767,4.56698758 L44.4103359,16.3219166 L44.4810502,16.3920295 L34.2737237,16.3920295 C33.0059176,16.3920295 32.0288257,15.389415 32.0288257,14.1313892 L32.0288257,4.56743274 L32.0283767,4.56698758 Z M6.38737673,21.1561456 C5.76759084,21.2427269 5.33589253,21.8110057 5.42306835,22.4255413 C5.51024417,23.040077 6.08329408,23.4682397 6.70312163,23.3819521 L42.0953971,23.3819521 C42.5001926,23.3876282 42.876713,23.1767602 43.0807813,22.8300936 C43.2848497,22.483427 43.2848497,22.0546708 43.0807813,21.7080041 C42.876713,21.3613375 42.5001926,21.1504695 42.0953971,21.1561456 L6.70312163,21.1561456 C6.63312337,21.149611 6.56266072,21.149611 6.49266245,21.1561456 C6.45751166,21.154513 6.42230304,21.154513 6.38715224,21.1561456 L6.38737673,21.1561456 Z M6.38737673,27.7291747 C5.76759084,27.8157559 5.33589253,28.3840347 5.42306835,28.9985703 C5.51024417,29.613106 6.08329408,30.0412687 6.70312163,29.9549811 L42.0953971,29.9549811 C42.5001926,29.9606573 42.876713,29.7497893 43.0807813,29.4031226 C43.2848497,29.056456 43.2848497,28.6276998 43.0807813,28.2810332 C42.876713,27.9343665 42.5001926,27.7234985 42.0953971,27.7291747 L6.70312163,27.7291747 C6.63312337,27.72264 6.56266072,27.72264 6.49266245,27.7291747 C6.45751166,27.727542 6.42230304,27.727542 6.38715224,27.7291747 L6.38737673,27.7291747 Z M6.38737673,34.3023484 C5.77031014,34.3917845 5.34200871,34.958641 5.42886661,35.5709355 C5.5157245,36.18323 6.08511364,36.6109546 6.70312163,36.5281548 L42.0953971,36.5281548 C42.5001926,36.533831 42.876713,36.322963 43.0807813,35.9762963 C43.2848497,35.6296297 43.2848497,35.2008735 43.0807813,34.8542069 C42.876713,34.5075402 42.5001926,34.2966723 42.0953971,34.3023484 L6.70312163,34.3023484 C6.63312337,34.2958137 6.56266072,34.2958137 6.49266245,34.3023484 C6.45751166,34.3007157 6.42230304,34.3007157 6.38715224,34.3023484 L6.38737673,34.3023484 Z M6.49288694,40.8406548 C5.87568459,40.9013991 5.42388849,41.4450483 5.48178172,42.0573244 C5.53967495,42.6696005 6.08551135,43.1205171 6.70334612,43.0664613 L25.7498461,43.0664613 C26.1546415,43.0721374 26.5311619,42.8612694 26.7352303,42.5146028 C26.9392987,42.1679362 26.9392987,41.73918 26.7352303,41.3925133 C26.5311619,41.0458467 26.1546415,40.8349787 25.7498461,40.8406548 L6.70334612,40.8406548 C6.66819549,40.8390152 6.63298655,40.8390152 6.59783592,40.8406548 C6.56268525,40.8390168 6.52747638,40.8390168 6.49232571,40.8406548 L6.49288694,40.8406548 Z M10.4214584,48.3875855 L51.3558257,48.3875855 C51.9933767,48.3875855 52.443142,48.8334145 52.443142,49.4656548 L52.443142,64.2463452 C52.443142,64.8784742 51.9933767,65.3592484 51.3558257,65.3592484 L10.4214584,65.3592484 C9.7837951,65.3592484 9.29900939,64.8784742 9.29900939,64.2463452 L9.29900939,49.4656548 C9.29900939,48.8334145 9.7837951,48.3875855 10.4214584,48.3875855 L10.4214584,48.3875855 Z M17.7875298,52.6304177 L17.7875298,61.1858613 L19.5063359,61.1858613 L19.5063359,57.9514306 L20.6638053,57.9514306 C21.452438,57.9514306 22.0368971,57.9280597 22.4527645,57.8468177 C22.7587441,57.7811565 23.0683155,57.6336968 23.364642,57.429479 C23.6608563,57.22515 23.9090298,56.9526 24.1013053,56.5948016 C24.2931318,56.2368919 24.3819176,55.7984081 24.3819176,55.2731177 C24.3819176,54.5923548 24.2243257,54.0336774 23.8908461,53.6038742 C23.5573665,53.1739597 23.1224176,52.8975145 22.628091,52.7691968 C22.3062849,52.6846161 21.6179992,52.6300839 20.5585196,52.6300839 L17.7875298,52.6300839 L17.7875298,52.6304177 Z M25.8201114,52.6304177 L25.8201114,61.1858613 L29.0821727,61.1858613 C29.7255604,61.1858613 30.2411012,61.1324419 30.62554,61.0119145 C31.1396216,60.8485403 31.5509992,60.6081532 31.8532747,60.31635 C32.2533155,59.9312855 32.584438,59.4432774 32.8002849,58.8209419 C32.9763971,58.3113435 33.0457645,57.6818855 33.0457645,56.9776403 C33.0457645,56.17635 32.9537237,55.50705 32.7651522,54.9605032 C32.5768053,54.4139565 32.3194278,53.9467597 31.9584482,53.5694855 C31.5974686,53.1921 31.1666727,52.9522694 30.6605604,52.8043645 C30.2839788,52.6953 29.7300502,52.6304177 29.0120196,52.6304177 L25.8201114,52.6304177 L25.8201114,52.6304177 Z M34.5541114,52.6304177 L34.5541114,61.1858613 L36.2728053,61.1858613 L36.2728053,57.5689258 L39.8857441,57.5689258 L39.8857441,56.108129 L36.2728053,56.108129 L36.2728053,54.0911032 L40.4469686,54.0911032 L40.4469686,52.6304177 L34.5541114,52.6304177 L34.5541114,52.6304177 Z M19.5063359,54.0911032 L20.3481727,54.0911032 C20.9758461,54.0911032 21.4028257,54.0911032 21.6109278,54.1256032 C21.8933359,54.1756839 22.12804,54.3058935 22.3124584,54.5082194 C22.4971012,54.7105452 22.5930706,54.96195 22.5930706,55.273229 C22.5930706,55.5261919 22.5133767,55.7782645 22.3824992,55.9687935 C22.2511727,56.1594339 22.0878563,56.2972113 21.8564073,56.3861323 C21.6248461,56.4762774 21.1400604,56.4907452 20.4533461,56.4907452 L19.5063359,56.4907452 L19.5063359,54.0911032 L19.5063359,54.0911032 Z M27.5738257,54.0911032 L28.3456216,54.0911032 C29.0556829,54.0911032 29.5403563,54.105571 29.7837033,54.1601032 C30.1093257,54.2302161 30.3786012,54.3790113 30.5905196,54.5774419 C30.802438,54.7759839 30.9638461,55.0233823 31.0814788,55.3773968 C31.1996727,55.7314113 31.2568053,56.2462403 31.2569176,56.9076387 C31.2568053,57.5689258 31.1996727,58.0895419 31.0814788,58.4726032 C30.9638461,58.8558871 30.8118665,59.1400113 30.62554,59.3072806 C30.4391012,59.4746613 30.2065298,59.58495 29.9240094,59.6551742 C29.7081624,59.7097065 29.3582951,59.7597871 28.8717135,59.7597871 L27.5738257,59.7597871 L27.5738257,54.0909919 L27.5738257,54.0911032 Z M14.4201829,59.551229 L14.4201829,61.1858613 L16.0687237,61.1858613 L16.0687237,59.551229 L14.4201829,59.551229 L14.4201829,59.551229 Z" id="Shape"></path>
                </g>
            </g>
        </g>
    </g>
</svg>