<svg width="10" height="321" viewBox="0 0 10 321" fill="none" xmlns="http://www.w3.org/2000/svg">
<line x1="5.5" y1="114" x2="5.5" y2="195" stroke="white"/>
<path d="M5.85511 5.55398C7.14773 5.375 7.89773 4.38068 7.89773 3.09091C7.89773 1.57102 6.78977 0.426136 4.90909 0.426136C3.03125 0.426136 1.92045 1.55682 1.92045 3.09091C1.92045 4.47443 2.81534 5.39205 3.92614 5.55398L3.93182 4.49148C3.25 4.35795 2.86648 3.80114 2.86648 3.10511C2.86648 2.16193 3.57386 1.4858 4.90909 1.4858C6.22159 1.4858 6.9517 2.15625 6.9517 3.10795C6.9517 3.81534 6.55114 4.36932 5.85511 4.49148L5.85511 5.55398ZM7.81818 10.9868L4.10511 10.9868C3.375 10.9868 2.85227 10.4783 2.85227 9.67997C2.85227 8.87884 3.375 8.37315 4.10511 8.37315L7.81818 8.37315L7.81818 7.31918L4.01705 7.31918C2.76705 7.31918 1.91193 8.25668 1.91193 9.67997C1.91193 11.0976 2.76704 12.0408 4.01704 12.0408L7.81818 12.0408L7.81818 10.9868ZM2 13.9864L2 15.0403L4.13068 15.0403L4.13068 16.1142L2 17.2563L2 18.4324L4.30682 17.1739C4.58239 17.8585 5.16761 18.2193 5.95739 18.2193C7.06818 18.2193 7.81818 17.5034 7.81818 16.1682L7.81818 13.9864L2 13.9864ZM5.00568 15.0403L6.9375 15.0403L6.9375 16.0063C6.9375 16.7932 6.5767 17.1455 5.95739 17.1455C5.33807 17.1455 5.00568 16.7932 5.00568 16.0119L5.00568 15.0403ZM2 19.9895L2 21.0435L4.13068 21.0435L4.13068 22.1173L2 23.2594L2 24.4355L4.30682 23.177C4.58239 23.8616 5.16761 24.2224 5.95739 24.2224C7.06818 24.2224 7.81818 23.5065 7.81818 22.1713L7.81818 19.9895L2 19.9895ZM5.00568 21.0435L6.9375 21.0435L6.9375 22.0094C6.9375 22.7963 6.5767 23.1486 5.95739 23.1486C5.33807 23.1486 5.00568 22.7963 5.00568 22.0151L5.00568 21.0435ZM2 25.9926L2 29.7994L2.88352 29.7994L2.88352 27.0466L4.47159 27.0466L4.47159 29.5807L5.35511 29.5807L5.35511 27.0466L6.93466 27.0466L6.93466 29.7767L7.81818 29.7767L7.81818 25.9926L2 25.9926ZM7.81818 36.4332L7.81818 35.3849L3.85227 35.3849L3.85227 35.3338L7.81818 32.5952L7.81818 31.652L2 31.652L2 32.706L5.96307 32.706L5.96307 32.7543L2 35.4957L2 36.4332L7.81818 36.4332ZM6.93466 38.126L6.93466 39.9243L2 39.9243L2 40.9697L6.93466 40.9697L6.93466 42.768L7.81818 42.768L7.81818 38.126L6.93466 38.126ZM2 44.4629L2 48.0794L2.88352 48.0794L2.88352 45.5169L7.81818 45.5169L7.81818 44.4629L2 44.4629ZM7.81818 48.8105L4.17045 50.927L2 50.927L2 51.9781L4.17045 51.9781L7.81818 54.0946L7.81818 52.9043L5.24432 51.481L5.24432 51.4241L7.81818 50.0009L7.81818 48.8105ZM2 58.4254L2 59.4794L4.47159 59.4794L4.47159 61.897L5.35511 61.897L5.35511 59.4794L6.93466 59.4794L6.93466 62.1527L7.81818 62.1527L7.81818 58.4254L2 58.4254ZM7.81818 67.5805L4.10511 67.5805C3.375 67.5805 2.85227 67.072 2.85227 66.2737C2.85227 65.4726 3.375 64.9669 4.10511 64.9669L7.81818 64.9669L7.81818 63.9129L4.01704 63.9129C2.76704 63.9129 1.91193 64.8504 1.91193 66.2737C1.91193 67.6913 2.76704 68.6345 4.01704 68.6345L7.81818 68.6345L7.81818 67.5805ZM2 70.5801L2 74.1966L2.88352 74.1966L2.88352 71.6341L7.81818 71.6341L7.81818 70.5801L2 70.5801ZM2 75.9114L2 79.5278L2.88352 79.5278L2.88352 76.9653L7.81818 76.9653L7.81818 75.9114L2 75.9114ZM6.93466 83.7713L6.93466 85.5696L2 85.5696L2 86.6151L6.93466 86.6151L6.93466 88.4134L7.81818 88.4134L7.81818 83.7713L6.93466 83.7713ZM7.81818 91.1622L7.81818 90.1082L2 90.1082L2 91.1622L7.81818 91.1622ZM7.81818 93.1035L2 93.1035L2 94.1149L6.00568 94.1149L6.00568 94.1689L2.01704 95.7768L2.01704 96.5325L5.99715 98.1405L5.99715 98.1945L2 98.1945L2 99.2058L7.81818 99.2058L7.81818 97.916L3.60227 96.1888L3.60227 96.1206L7.81818 94.3933L7.81818 93.1035ZM2 101.154L2 104.96L2.88352 104.96L2.88352 102.208L4.47159 102.208L4.47159 104.742L5.35511 104.742L5.35511 102.208L6.93465 102.208L6.93465 104.938L7.81818 104.938L7.81818 101.154L2 101.154Z" fill="white"/>
<path d="M2 205.545C2 207.318 3.09659 208.369 4.91477 208.369C6.72727 208.369 7.81818 207.318 7.81818 205.585L7.81818 203.574L2 203.574L2 205.545ZM2.91193 204.628L6.90625 204.628L6.90625 205.526C6.90625 206.707 6.24716 207.324 4.91477 207.324C3.5767 207.324 2.91193 206.707 2.91193 205.494L2.91193 204.628ZM2 210.171L2 213.978L2.88352 213.978L2.88352 211.225L4.47159 211.225L4.47159 213.759L5.35511 213.759L5.35511 211.225L6.93466 211.225L6.93466 213.955L7.81818 213.955L7.81818 210.171L2 210.171ZM6.21875 218.992L6.21875 220.006C7.2017 219.986 7.89773 219.148 7.89773 217.91C7.89773 216.688 7.21023 215.77 6.18182 215.773C5.34659 215.773 4.86648 216.367 4.61932 217.324L4.44886 217.986C4.28977 218.614 4.09375 219.029 3.64204 219.032C3.14489 219.029 2.8125 218.557 2.8125 217.87C2.8125 217.211 3.10795 216.699 3.71875 216.657L3.71875 215.62C2.5625 215.663 1.91193 216.523 1.91193 217.878C1.91193 219.273 2.60795 220.083 3.63352 220.086C4.64204 220.083 5.10227 219.251 5.30966 218.376L5.44602 217.83C5.55966 217.353 5.76136 216.836 6.24716 216.841C6.68466 216.844 7.00568 217.236 7.00568 217.895C7.00568 218.523 6.71307 218.938 6.21875 218.992ZM7.81818 222.879L7.81818 221.825L2 221.825L2 222.879L7.81818 222.879ZM5.96023 228.718L5.96023 229.792C7.10227 229.613 7.89773 228.625 7.89773 227.338C7.89773 225.815 6.77841 224.673 4.90341 224.673C3.0625 224.673 1.92045 225.764 1.92045 227.369C1.92045 228.809 2.84659 229.841 4.34659 229.841L5.04545 229.841L5.04545 227.48L4.22159 227.48L4.22159 228.821C3.39204 228.804 2.86648 228.25 2.86648 227.375C2.86648 226.4 3.59659 225.733 4.91477 225.733C6.22443 225.733 6.9517 226.412 6.9517 227.352C6.9517 228.054 6.5767 228.531 5.96023 228.718ZM7.81818 236.441L7.81818 235.393L3.85227 235.393L3.85227 235.342L7.81818 232.603L7.81818 231.66L2 231.66L2 232.714L5.96307 232.714L5.96307 232.762L2 235.504L2 236.441L7.81818 236.441ZM7.81818 239.443L7.81818 238.389L2 238.389L2 239.443L7.81818 239.443ZM7.81818 246.166L7.81818 245.118L3.85227 245.118L3.85227 245.067L7.81818 242.328L7.81818 241.385L2 241.385L2 242.439L5.96307 242.439L5.96307 242.487L2 245.229L2 246.166L7.81818 246.166ZM5.96023 252.012L5.96023 253.086C7.10227 252.907 7.89773 251.918 7.89773 250.632C7.89773 249.109 6.77841 247.967 4.90341 247.967C3.0625 247.967 1.92045 249.058 1.92045 250.663C1.92045 252.103 2.84659 253.134 4.34659 253.134L5.04545 253.134L5.04545 250.774L4.22159 250.774L4.22159 252.114C3.39204 252.097 2.86648 251.543 2.86648 250.668C2.86648 249.694 3.59659 249.026 4.91477 249.026C6.22443 249.026 6.9517 249.705 6.9517 250.646C6.9517 251.347 6.5767 251.825 5.96023 252.012ZM2 258.485L3.43466 258.965L3.43466 261.153L2 261.636L2 262.761L7.81818 260.71L7.81818 259.408L2 257.36L2 258.485ZM4.28125 259.249L6.625 260.036L6.625 260.082L4.28125 260.869L4.28125 259.249ZM6.93466 263.368L6.93466 265.166L2 265.166L2 266.212L6.93466 266.212L6.93466 268.01L7.81818 268.01L7.81818 263.368L6.93466 263.368ZM2 274.461C2 276.234 3.09659 277.285 4.91477 277.285C6.72727 277.285 7.81818 276.234 7.81818 274.501L7.81818 272.489L2 272.489L2 274.461ZM2.91193 273.543L6.90625 273.543L6.90625 274.441C6.90625 275.623 6.24716 276.239 4.91477 276.239C3.5767 276.239 2.91193 275.623 2.91193 274.41L2.91193 273.543ZM7.81818 282.754L4.10511 282.754C3.375 282.754 2.85227 282.245 2.85227 281.447C2.85227 280.646 3.375 280.14 4.10511 280.14L7.81818 280.14L7.81818 279.086L4.01704 279.086C2.76704 279.086 1.91193 280.024 1.91193 281.447C1.91193 282.865 2.76704 283.808 4.01704 283.808L7.81818 283.808L7.81818 282.754ZM4.90909 290.952C6.78977 290.952 7.89772 289.805 7.89772 288.279C7.89772 286.751 6.78977 285.606 4.90909 285.606C3.03125 285.606 1.92045 286.751 1.92045 288.279C1.92045 289.805 3.02841 290.952 4.90909 290.952ZM4.90909 289.893C3.58522 289.893 2.86647 289.228 2.86647 288.279C2.86647 287.333 3.58522 286.665 4.90909 286.665C6.23295 286.665 6.9517 287.333 6.9517 288.279C6.9517 289.228 6.23295 289.893 4.90909 289.893ZM2 292.749L2 296.365L2.88352 296.365L2.88352 293.803L7.81818 293.803L7.81818 292.749L2 292.749ZM7.81818 299.134L7.81818 298.08L2 298.08L2 299.134L7.81818 299.134ZM7.81818 305.857L7.81818 304.808L3.85227 304.808L3.85227 304.757L7.81818 302.019L7.81818 301.075L2 301.075L2 302.129L5.96306 302.129L5.96306 302.178L2 304.919L2 305.857L7.81818 305.857ZM5.96022 311.703L5.96022 312.777C7.10227 312.598 7.89772 311.609 7.89772 310.322C7.89772 308.799 6.7784 307.657 4.9034 307.657C3.0625 307.657 1.92045 308.748 1.92045 310.353C1.92045 311.794 2.84659 312.825 4.34659 312.825L5.04545 312.825L5.04545 310.464L4.22159 310.464L4.22159 311.805C3.39204 311.788 2.86647 311.234 2.86647 310.359C2.86647 309.385 3.59659 308.717 4.91477 308.717C6.22443 308.717 6.9517 309.396 6.9517 310.336C6.9517 311.038 6.5767 311.515 5.96022 311.703ZM4.90909 319.843C6.78977 319.843 7.89772 318.695 7.89772 317.17C7.89772 315.641 6.78977 314.496 4.90909 314.496C3.03125 314.496 1.92045 315.641 1.92045 317.17C1.92045 318.695 3.0284 319.843 4.90909 319.843ZM4.90909 318.783C3.58522 318.783 2.86647 318.119 2.86647 317.17C2.86647 316.224 3.58522 315.556 4.90909 315.556C6.23295 315.556 6.9517 316.224 6.9517 317.17C6.9517 318.119 6.23295 318.783 4.90909 318.783Z" fill="white"/>
</svg>
