<svg width="10" height="301" viewBox="0 0 10 301" fill="none" xmlns="http://www.w3.org/2000/svg">
<line x1="5.5" y1="106" x2="5.5" y2="187" stroke="white"/>
<path d="M4.90909 5.77273C6.78977 5.77273 7.89773 4.625 7.89773 3.09943C7.89773 1.57102 6.78977 0.426136 4.90909 0.426136C3.03125 0.426136 1.92045 1.57102 1.92045 3.09943C1.92045 4.625 3.02841 5.77273 4.90909 5.77273ZM4.90909 4.71307C3.58523 4.71307 2.86648 4.0483 2.86648 3.09943C2.86648 2.15341 3.58523 1.4858 4.90909 1.4858C6.23295 1.4858 6.9517 2.15341 6.9517 3.09943C6.9517 4.0483 6.23295 4.71307 4.90909 4.71307ZM2 7.56918L2 8.62315L3.96591 8.62315L3.96591 9.73679C3.96591 11.0805 4.77273 11.8021 5.89204 11.8021C7.00284 11.8021 7.81818 11.0891 7.81818 9.75099L7.81818 7.56918L2 7.56918ZM4.83239 8.62315L6.9375 8.62315L6.9375 9.58906C6.9375 10.3788 6.51136 10.7283 5.89205 10.7283C5.27273 10.7283 4.83239 10.3788 4.83239 9.59474L4.83239 8.62315ZM2 13.5176L2 17.3244L2.88352 17.3244L2.88352 14.5716L4.47159 14.5716L4.47159 17.1057L5.35511 17.1057L5.35511 14.5716L6.93466 14.5716L6.93466 17.3017L7.81818 17.3017L7.81818 13.5176L2 13.5176ZM7.81818 23.9582L7.81818 22.9099L3.85227 22.9099L3.85227 22.8588L7.81818 20.1202L7.81818 19.177L2 19.177L2 20.231L5.96307 20.231L5.96307 20.2793L2 23.0207L2 23.9582L7.81818 23.9582ZM6.93466 28.4354L6.93466 30.2337L2 30.2337L2 31.2791L6.93466 31.2791L6.93466 33.0774L7.81818 33.0774L7.81818 28.4354L6.93466 28.4354ZM4.90909 39.7212C6.78977 39.7212 7.89773 38.5734 7.89773 37.0479C7.89773 35.5195 6.78977 34.3746 4.90909 34.3746C3.03125 34.3746 1.92045 35.5195 1.92045 37.0479C1.92045 38.5734 3.02841 39.7212 4.90909 39.7212ZM4.90909 38.6615C3.58523 38.6615 2.86648 37.9967 2.86648 37.0479C2.86648 36.1018 3.58523 35.4342 4.90909 35.4342C6.23295 35.4342 6.9517 36.1018 6.9517 37.0479C6.9517 37.9967 6.23295 38.6615 4.90909 38.6615ZM2 44.302L2 45.356L4.47159 45.356L4.47159 47.7736L5.35511 47.7736L5.35511 45.356L6.93466 45.356L6.93466 48.0293L7.81818 48.0293L7.81818 44.302L2 44.302ZM2 49.7895L2 50.8435L4.13068 50.8435L4.13068 51.9173L2 53.0594L2 54.2355L4.30682 52.977C4.58238 53.6616 5.16761 54.0224 5.95738 54.0224C7.06818 54.0224 7.81818 53.3065 7.81818 51.9713L7.81818 49.7895L2 49.7895ZM5.00568 50.8435L6.9375 50.8435L6.9375 51.8094C6.9375 52.5963 6.5767 52.9486 5.95738 52.9486C5.33807 52.9486 5.00568 52.5963 5.00568 51.8151L5.00568 50.8435ZM2 55.7926L2 59.5994L2.88352 59.5994L2.88352 56.8466L4.47159 56.8466L4.47159 59.3807L5.35511 59.3807L5.35511 56.8466L6.93466 56.8466L6.93466 59.5767L7.81818 59.5767L7.81818 55.7926L2 55.7926ZM2 61.452L2 65.2588L2.88352 65.2588L2.88352 62.506L4.47159 62.506L4.47159 65.0401L5.35511 65.0401L5.35511 62.506L6.93466 62.506L6.93466 65.2361L7.81818 65.2361L7.81818 61.452L2 61.452ZM2 67.1114L2 70.7278L2.88352 70.7278L2.88352 68.1653L7.81818 68.1653L7.81818 67.1114L2 67.1114ZM2 73.4085L3.43466 73.8886L3.43466 76.0761L2 76.5591L2 77.6841L7.81818 75.633L7.81818 74.3318L2 72.2835L2 73.4085ZM4.28125 74.1727L6.625 74.9597L6.625 75.0051L4.28125 75.792L4.28125 74.1727ZM7.81818 84.0317L7.81818 82.9834L3.85227 82.9834L3.85227 82.9322L7.81818 80.1936L7.81818 79.2504L2 79.2504L2 80.3044L5.96306 80.3044L5.96306 80.3527L2 83.0942L2 84.0317L7.81818 84.0317ZM5.85511 90.9602C7.14772 90.7812 7.89772 89.7869 7.89772 88.4972C7.89772 86.9773 6.78977 85.8324 4.90909 85.8324C3.03125 85.8324 1.92045 86.9631 1.92045 88.4972C1.92045 89.8807 2.81534 90.7983 3.92613 90.9602L3.93181 89.8977C3.25 89.7642 2.86647 89.2074 2.86647 88.5114C2.86647 87.5682 3.57386 86.892 4.90909 86.892C6.22159 86.892 6.9517 87.5625 6.9517 88.5142C6.9517 89.2216 6.55113 89.7756 5.85511 89.8977L5.85511 90.9602ZM2 92.7254L2 96.5322L2.88352 96.5322L2.88352 93.7794L4.47159 93.7794L4.47159 96.3135L5.35511 96.3135L5.35511 93.7794L6.93465 93.7794L6.93465 96.5095L7.81818 96.5095L7.81818 92.7254L2 92.7254Z" fill="white"/>
<path d="M5.85511 200.554C7.14773 200.375 7.89773 199.381 7.89773 198.091C7.89773 196.571 6.78977 195.426 4.90909 195.426C3.03125 195.426 1.92045 196.557 1.92045 198.091C1.92045 199.474 2.81534 200.392 3.92614 200.554L3.93182 199.491C3.25 199.358 2.86648 198.801 2.86648 198.105C2.86648 197.162 3.57386 196.486 4.90909 196.486C6.22159 196.486 6.9517 197.156 6.9517 198.108C6.9517 198.815 6.55114 199.369 5.85511 199.491L5.85511 200.554ZM7.81818 205.987L4.10511 205.987C3.375 205.987 2.85227 205.478 2.85227 204.68C2.85227 203.879 3.375 203.373 4.10511 203.373L7.81818 203.373L7.81818 202.319L4.01705 202.319C2.76705 202.319 1.91193 203.257 1.91193 204.68C1.91193 206.098 2.76704 207.041 4.01704 207.041L7.81818 207.041L7.81818 205.987ZM2 208.986L2 210.04L4.13068 210.04L4.13068 211.114L2 212.256L2 213.432L4.30682 212.174C4.58239 212.859 5.16761 213.219 5.95739 213.219C7.06818 213.219 7.81818 212.503 7.81818 211.168L7.81818 208.986L2 208.986ZM5.00568 210.04L6.9375 210.04L6.9375 211.006C6.9375 211.793 6.5767 212.145 5.95739 212.145C5.33807 212.145 5.00568 211.793 5.00568 211.012L5.00568 210.04ZM2 214.989L2 216.043L4.13068 216.043L4.13068 217.117L2 218.259L2 219.436L4.30682 218.177C4.58239 218.862 5.16761 219.222 5.95739 219.222C7.06818 219.222 7.81818 218.507 7.81818 217.171L7.81818 214.989L2 214.989ZM5.00568 216.043L6.9375 216.043L6.9375 217.009C6.9375 217.796 6.5767 218.149 5.95739 218.149C5.33807 218.149 5.00568 217.796 5.00568 217.015L5.00568 216.043ZM2 220.993L2 224.799L2.88352 224.799L2.88352 222.047L4.47159 222.047L4.47159 224.581L5.35511 224.581L5.35511 222.047L6.93466 222.047L6.93466 224.777L7.81818 224.777L7.81818 220.993L2 220.993ZM7.81818 231.433L7.81818 230.385L3.85227 230.385L3.85227 230.334L7.81818 227.595L7.81818 226.652L2 226.652L2 227.706L5.96307 227.706L5.96307 227.754L2 230.496L2 231.433L7.81818 231.433ZM6.93466 233.126L6.93466 234.924L2 234.924L2 235.97L6.93466 235.97L6.93466 237.768L7.81818 237.768L7.81818 233.126L6.93466 233.126ZM2 239.463L2 243.079L2.88352 243.079L2.88352 240.517L7.81818 240.517L7.81818 239.463L2 239.463ZM7.81818 243.811L4.17045 245.927L2 245.927L2 246.978L4.17045 246.978L7.81818 249.095L7.81818 247.904L5.24432 246.481L5.24432 246.424L7.81818 245.001L7.81818 243.811ZM2 253.425L2 254.479L4.47159 254.479L4.47159 256.897L5.35511 256.897L5.35511 254.479L6.93466 254.479L6.93466 257.153L7.81818 257.153L7.81818 253.425L2 253.425ZM7.81818 262.581L4.10511 262.581C3.375 262.581 2.85227 262.072 2.85227 261.274C2.85227 260.473 3.375 259.967 4.10511 259.967L7.81818 259.967L7.81818 258.913L4.01704 258.913C2.76704 258.913 1.91193 259.85 1.91193 261.274C1.91193 262.691 2.76704 263.635 4.01704 263.635L7.81818 263.635L7.81818 262.581ZM2 265.58L2 269.197L2.88352 269.197L2.88352 266.634L7.81818 266.634L7.81818 265.58L2 265.58ZM2 270.911L2 274.528L2.88352 274.528L2.88352 271.965L7.81818 271.965L7.81818 270.911L2 270.911ZM6.93466 278.771L6.93466 280.57L2 280.57L2 281.615L6.93466 281.615L6.93466 283.413L7.81818 283.413L7.81818 278.771L6.93466 278.771ZM7.81818 286.162L7.81818 285.108L2 285.108L2 286.162L7.81818 286.162ZM7.81818 288.104L2 288.104L2 289.115L6.00568 289.115L6.00568 289.169L2.01704 290.777L2.01704 291.533L5.99715 293.14L5.99715 293.194L2 293.194L2 294.206L7.81818 294.206L7.81818 292.916L3.60227 291.189L3.60227 291.121L7.81818 289.393L7.81818 288.104ZM2 296.154L2 299.96L2.88352 299.96L2.88352 297.208L4.47159 297.208L4.47159 299.742L5.35511 299.742L5.35511 297.208L6.93465 297.208L6.93465 299.938L7.81818 299.938L7.81818 296.154L2 296.154Z" fill="white"/>
</svg>
