<svg width="132" height="132" viewBox="0 0 132 132" fill="none" xmlns="http://www.w3.org/2000/svg">
<path d="M66.3208 48.9531C60.0894 48.9531 55 54.0425 55 60.2739H57C57 55.147 61.1939 50.9531 66.3208 50.9531V48.9531ZM77.6416 60.2739C77.6416 54.0425 72.5523 48.9531 66.3208 48.9531V50.9531C71.4477 50.9531 75.6416 55.147 75.6416 60.2739H77.6416ZM77.6416 71.6869V60.2739H75.6416V71.6869H77.6416ZM66.3208 83.0077C72.5523 83.0077 77.6416 77.9184 77.6416 71.6869H75.6416C75.6416 76.8138 71.4477 81.0077 66.3208 81.0077V83.0077ZM55 71.6869C55 77.9184 60.0894 83.0077 66.3208 83.0077V81.0077C61.1939 81.0077 57 76.8138 57 71.6869H55ZM55 60.2739V71.6869H57V60.2739H55ZM67.0137 61.6937C67.0137 62.0698 66.6969 62.3866 66.3208 62.3866V64.3866C67.8014 64.3866 69.0137 63.1744 69.0137 61.6937H67.0137ZM67.0137 57.1067V61.6937H69.0137V57.1067H67.0137ZM66.3208 56.4139C66.6969 56.4139 67.0137 56.7307 67.0137 57.1067H69.0137C69.0137 55.6261 67.8014 54.4139 66.3208 54.4139V56.4139ZM65.628 57.1067C65.628 56.7307 65.9448 56.4139 66.3208 56.4139V54.4139C64.8402 54.4139 63.628 55.6261 63.628 57.1067H65.628ZM65.628 61.6937V57.1067H63.628V61.6937H65.628ZM66.3208 62.3866C65.9448 62.3866 65.628 62.0698 65.628 61.6937H63.628C63.628 63.1744 64.8402 64.3866 66.3208 64.3866V62.3866Z" fill="white"/>
<path d="M68.9966 85.556L66.3208 88.2317L63.6451 85.556C63.0444 84.9553 62.116 84.9553 61.5154 85.556C60.9147 86.1567 60.9147 87.085 61.5154 87.6857L65.2833 91.4536C65.5563 91.7266 65.9386 91.8905 66.3754 91.8905C66.7577 91.8905 67.1399 91.7266 67.4676 91.4536L71.2355 87.6857C71.8362 87.085 71.8362 86.1567 71.2355 85.556C70.5802 84.9553 69.5973 84.9553 68.9966 85.556Z" fill="white"/>
<path d="M63.6451 46.3481L66.3208 43.6724L68.9966 46.3481C69.2696 46.6212 69.6519 46.785 70.0887 46.785C70.5256 46.785 70.8532 46.6212 71.1809 46.3481C71.7816 45.7474 71.7816 44.8191 71.1809 44.2184L67.413 40.4505C66.8123 39.8498 65.884 39.8498 65.2833 40.4505L61.5154 44.2184C60.9147 44.8191 60.9147 45.7474 61.5154 46.3481C62.0614 46.9488 63.0444 46.9488 63.6451 46.3481Z" fill="white"/>
<path d="M55.8771 127.092C55.9182 127.878 56.4132 128.937 58.0506 129.146C59.3087 129.306 60.5109 128.575 60.6686 127.335C60.7921 126.364 60.211 125.538 59.128 125.184L58.2519 124.903C57.8277 124.765 57.59 124.49 57.6324 124.157C57.6842 123.75 58.071 123.517 58.6445 123.59C59.5418 123.705 59.8818 124.284 59.8608 124.892L61.2433 124.739C61.2685 123.802 60.6409 122.528 58.8278 122.298C57.2644 122.099 56.2711 123.035 56.1405 124.061C56.0216 124.996 56.5668 125.883 57.7862 126.273L58.6438 126.551C59.0865 126.692 59.2514 126.948 59.2113 127.263C59.1654 127.624 58.7704 127.921 58.2246 127.852C57.429 127.75 57.2452 127.201 57.2378 126.89L55.8771 127.092Z" fill="white"/>
<path d="M49.0524 120.174C47.0926 119.568 45.8416 120.645 45.3665 121.454L46.5931 122.254C46.8584 121.838 47.521 121.243 48.6168 121.582C49.561 121.874 50.2217 122.83 49.855 124.015C49.4442 125.342 48.3035 125.653 47.4573 125.391C46.3437 125.047 46.1717 124.183 46.2088 123.716L44.7519 123.724C44.6755 124.696 45.1352 126.176 47.0326 126.763C48.7965 127.309 50.7067 126.436 51.316 124.467C51.9253 122.499 50.8697 120.737 49.0524 120.174Z" fill="white"/>
<path d="M39.1656 116.201L37.7217 115.461L37.6956 118.455C36.8417 118.342 36.0914 118.722 35.6829 119.519C35.1468 120.565 35.4852 121.744 36.647 122.34L38.9787 123.535L41.9952 117.652L40.6841 116.98L39.5609 119.17L39.0962 118.932L39.1656 116.201ZM38.9823 120.299L38.2505 121.726L37.4788 121.331C36.9394 121.054 36.7894 120.631 37.0149 120.192C37.2276 119.777 37.6712 119.627 38.2106 119.903L38.9823 120.299Z" fill="white"/>
<path d="M31.0233 115.088C30.1846 116.184 29.0199 116.08 28.2867 115.519C27.561 114.964 27.1557 113.867 27.9944 112.771C28.8331 111.675 29.9921 111.786 30.7179 112.342C31.451 112.903 31.862 113.992 31.0233 115.088ZM32.2435 116.01C33.5129 114.351 33.0831 112.32 31.6019 111.187C30.1282 110.059 28.0549 110.175 26.7855 111.834C25.5104 113.5 25.9403 115.532 27.414 116.659C28.8952 117.793 30.9685 117.677 32.2435 116.01Z" fill="white"/>
<path d="M22.4387 102.755L21.4027 103.709L23.3352 105.809L19.5067 109.333L20.5046 110.417L25.3691 105.939L22.4387 102.755Z" fill="white"/>
<path d="M17.4122 95.8174L16.2449 96.6049L17.8409 98.9704L13.5275 101.881L14.3515 103.102L19.8322 99.4042L17.4122 95.8174Z" fill="white"/>
<path d="M6.32515 83.6875L4.99446 84.1479L6.80888 89.3914L8.13957 88.9309L7.47479 87.0098L12.3922 85.3082L11.9104 83.9158L6.99298 85.6174L6.32515 83.6875Z" fill="white"/>
<path d="M6.73067 77.2759C5.36681 77.4873 4.59802 76.6061 4.45665 75.6938C4.3167 74.7907 4.78275 73.7182 6.14661 73.5069C7.51046 73.2955 8.27003 74.1781 8.40998 75.0812C8.55135 75.9935 8.09452 77.0646 6.73067 77.2759ZM6.97408 78.7858C9.03829 78.4659 10.1332 76.7015 9.84755 74.8584C9.56338 73.0246 7.98583 71.6743 5.92163 71.9942C3.8482 72.3155 2.75333 74.0799 3.03751 75.9137C3.32311 77.7568 4.90065 79.1071 6.97408 78.7858Z" fill="white"/>
<path d="M9.7254 57.8356C10.0145 55.8045 8.75323 54.7396 7.87871 54.3985L7.28329 55.736C7.73573 55.9323 8.42837 56.4924 8.26672 57.628C8.12742 58.6066 7.28776 59.4101 6.05988 59.2354C4.68429 59.0395 4.19712 57.9623 4.32197 57.0853C4.48624 55.9313 5.31165 55.6249 5.77848 55.5877L5.54038 54.1504C4.56848 54.2287 3.18014 54.9165 2.90022 56.8829C2.64001 58.7109 3.80405 60.459 5.84436 60.7494C7.88466 61.0399 9.45731 59.719 9.7254 57.8356Z" fill="white"/>
<path d="M8.29568 48.2966C6.99108 47.8463 6.72301 46.708 7.02423 45.8353C7.32242 44.9715 8.23553 44.241 9.54013 44.6913C10.8447 45.1416 11.104 46.2768 10.8058 47.1407C10.5046 48.0133 9.60028 48.7469 8.29568 48.2966ZM7.8055 49.7452C9.78002 50.4268 11.5724 49.3783 12.1809 47.6153C12.7864 45.8612 12.0225 43.9303 10.0479 43.2487C8.0646 42.5641 6.27224 43.6126 5.66675 45.3668C5.05821 47.1297 5.82215 49.0606 7.8055 49.7452Z" fill="white"/>
<path d="M18.0244 35.0588L12.2978 31.7545L11.5614 33.0307L15.0426 35.0393L10.3217 35.1792L9.4269 36.73L15.1535 40.0343L15.8852 38.7662L12.1213 36.5944L17.2461 36.4077L18.0244 35.0588Z" fill="white"/>
<path d="M20.0442 23.9605L18.9645 23.0567L15.403 27.3113L16.4827 28.2151L17.7876 26.6563L21.7776 29.9963L22.7234 28.8665L18.7333 25.5265L20.0442 23.9605Z" fill="white"/>
<path d="M28.1678 23.3335L23.7344 18.4286L22.6275 19.4291L27.0609 24.3339L28.1678 23.3335Z" fill="white"/>
<path d="M36.8614 16.9089L33.2133 11.3949L31.9845 12.2079L34.2022 15.5598L29.9158 13.5766L28.4225 14.5645L32.0706 20.0785L33.2917 19.2707L30.8939 15.6465L35.5626 17.7682L36.8614 16.9089Z" fill="white"/>
<path d="M43.52 13.7635C44.857 13.1902 45.5829 11.9252 44.9287 10.3996L43.2639 6.51722L41.9098 7.09788L43.5268 10.8689C43.8429 11.606 43.5895 12.1509 42.9467 12.4265C42.3039 12.7022 41.7345 12.51 41.4185 11.773L39.8014 8.00196L38.4473 8.58263L40.1121 12.4651C40.7663 13.9906 42.183 14.3368 43.52 13.7635Z" fill="white"/>
<path d="M54.4256 10.1455L54.0969 8.78587L51.4502 9.4259L51.1521 8.19321L53.545 7.61455L53.2403 6.35466L50.8474 6.93332L50.5515 5.70968L53.1891 5.07185L52.8625 3.72132L48.7928 4.70547L50.3469 11.1318L54.4256 10.1455Z" fill="white"/>
<path d="M66.5074 10.5107V1.32535L65.3324 1.32535V10.5107H66.5074Z" fill="white"/>
<path d="M82.7112 6.27963C82.7572 5.49444 82.3822 4.38681 80.7779 3.99884C79.5452 3.70075 78.2696 4.29412 77.9759 5.50869C77.7458 6.4604 78.2321 7.34553 79.2693 7.81702L80.1091 8.19279C80.5154 8.37738 80.7212 8.67661 80.6423 9.00291C80.5459 9.40172 80.1357 9.59035 79.5737 9.45445C78.6945 9.24184 78.4207 8.62875 78.5087 8.02645L77.1178 8.02586C76.9892 8.95418 77.4722 10.2894 79.2487 10.719C80.7806 11.0895 81.8712 10.2691 82.1145 9.26297C82.3359 8.34751 81.8921 7.40552 80.7232 6.88301L79.9016 6.51163C79.4772 6.32266 79.3417 6.05003 79.4162 5.74185C79.5017 5.38836 79.9272 5.13628 80.462 5.2656C81.2415 5.45411 81.3635 6.02087 81.3364 6.33094L82.7112 6.27963Z" fill="white"/>
<path d="M88.7298 13.9093C90.6106 14.7287 91.9729 13.7965 92.5345 13.0443L91.4038 12.1143C91.0941 12.4982 90.3698 13.0167 89.3182 12.5586C88.412 12.1637 87.861 11.1405 88.3564 10.0034C88.9114 8.72961 90.0794 8.54681 90.8916 8.90065C91.9602 9.36623 92.0358 10.2434 91.9473 10.7033L93.3962 10.8565C93.5795 9.89878 93.2861 8.37744 91.4652 7.5841C89.7724 6.84662 87.7775 7.50324 86.9544 9.39258C86.1312 11.2819 86.9857 13.1495 88.7298 13.9093Z" fill="white"/>
<path d="M98.1171 18.9497L99.4703 19.845L99.8271 16.872C100.663 17.0786 101.451 16.7835 101.945 16.0369C102.593 15.057 102.387 13.8473 101.299 13.127L99.1132 11.6811L95.4651 17.1951L96.6938 18.0081L98.0522 15.9549L98.4878 16.2431L98.1171 18.9497ZM98.752 14.8972L99.637 13.5595L100.36 14.0381C100.866 14.3725 100.968 14.8093 100.696 15.2214C100.438 15.6103 99.9808 15.7102 99.4753 15.3757L98.752 14.8972Z" fill="white"/>
<path d="M106.086 20.9574C107.041 19.9608 108.187 20.1933 108.854 20.8319C109.514 21.4641 109.795 22.599 108.841 23.5957C107.886 24.5924 106.746 24.3531 106.087 23.7209C105.42 23.0823 105.132 21.9541 106.086 20.9574ZM104.976 19.9063C103.531 21.4147 103.733 23.4813 105.08 24.7715C106.42 26.0551 108.494 26.1688 109.939 24.6603C111.39 23.1451 111.187 21.0785 109.847 19.7949C108.5 18.5048 106.427 18.3911 104.976 19.9063Z" fill="white"/>
<path d="M113.256 34.1624L114.391 33.3291L112.702 31.0289L116.896 27.9495L116.025 26.7618L110.695 30.6746L113.256 34.1624Z" fill="white"/>
<path d="M117.485 41.6136L118.732 40.9599L117.407 38.4325L122.016 36.0166L121.332 34.7117L115.476 37.7814L117.485 41.6136Z" fill="white"/>
<path d="M127.164 54.8948L128.537 54.5842L127.313 49.1723L125.94 49.4829L126.388 51.4658L121.313 52.6136L121.638 54.0507L126.713 52.9028L127.164 54.8948Z" fill="white"/>
<path d="M126.052 61.2213C127.431 61.1619 128.098 62.1226 128.137 63.045C128.177 63.958 127.595 64.9724 126.216 65.0318C124.837 65.0911 124.18 64.13 124.141 63.217C124.101 62.2947 124.673 61.2806 126.052 61.2213ZM125.977 59.6938C123.89 59.7836 122.607 61.4162 122.687 63.2796C122.767 65.1336 124.186 66.6499 126.273 66.5601C128.369 66.4699 129.652 64.8372 129.572 62.9832C129.492 61.1199 128.073 59.6035 125.977 59.6938Z" fill="white"/>
<path d="M120.928 80.214C120.416 82.2007 121.552 83.3985 122.383 83.8341L123.123 82.5706C122.695 82.3255 122.068 81.6923 122.354 80.5815C122.601 79.6243 123.524 78.9184 124.725 79.2278C126.071 79.5744 126.436 80.6989 126.215 81.5568C125.924 82.6856 125.07 82.8989 124.602 82.8842L124.68 84.3391C125.654 84.3686 127.11 83.8385 127.606 81.915C128.066 80.127 127.102 78.2609 125.107 77.7468C123.111 77.2327 121.402 78.3718 120.928 80.214Z" fill="white"/>
<path d="M121.295 89.8491C122.542 90.4409 122.682 91.6017 122.286 92.4358C121.895 93.2614 120.906 93.8865 119.66 93.2948C118.413 92.7031 118.28 91.5462 118.672 90.7206C119.068 89.8866 120.048 89.2574 121.295 89.8491ZM121.942 88.4635C120.055 87.5679 118.158 88.412 117.358 90.0969C116.562 91.7734 117.108 93.7769 118.995 94.6725C120.891 95.572 122.788 94.728 123.584 93.0515C124.383 91.3665 123.838 89.3631 121.942 88.4635Z" fill="white"/>
<path d="M110.163 101.931L115.489 105.848L116.362 104.661L113.124 102.28L117.832 102.663L118.892 101.22L113.566 97.3033L112.699 98.4828L116.199 101.057L111.085 100.676L110.163 101.931Z" fill="white"/>
<path d="M106.929 112.741L107.902 113.759L111.912 109.924L110.939 108.906L109.47 110.311L105.873 106.551L104.808 107.569L108.405 111.33L106.929 112.741Z" fill="white"/>
<path d="M98.7859 112.466L102.65 117.83L103.861 116.958L99.9966 111.594L98.7859 112.466Z" fill="white"/>
<path d="M89.4356 117.889L92.4521 123.772L93.7632 123.1L91.9295 119.524L95.9705 121.968L97.5637 121.151L94.5472 115.268L93.2444 115.936L95.227 119.803L90.8214 117.178L89.4356 117.889Z" fill="white"/>
<path d="M82.4704 120.279C81.0782 120.701 80.217 121.878 80.6986 123.466L81.9242 127.509L83.3342 127.082L82.1438 123.155C81.9111 122.387 82.2231 121.874 82.8924 121.671C83.5617 121.468 84.1064 121.722 84.3391 122.489L85.5296 126.416L86.9396 125.988L85.7139 121.946C85.2323 120.357 83.8625 119.857 82.4704 120.279Z" fill="white"/>
<path d="M71.2316 122.673L71.4081 124.06L74.1093 123.717L74.2694 124.975L71.8272 125.285L71.9908 126.571L74.433 126.261L74.5919 127.509L71.8999 127.852L72.0753 129.23L76.2288 128.702L75.3944 122.143L71.2316 122.673Z" fill="white"/>
</svg>
