<?xml version="1.0" encoding="UTF-8"?>
<svg width="113px" height="113px" viewBox="0 0 113 113" version="1.1" xmlns="http://www.w3.org/2000/svg" xmlns:xlink="http://www.w3.org/1999/xlink">
    <!-- Generator: Sketch 63.1 (92452) - https://sketch.com -->
    <title>Group 28</title>
    <desc>Created with Sketch.</desc>
    <g id="V3" stroke="none" stroke-width="1" fill="none" fill-rule="evenodd">
        <g id="Intro-Copy-7" transform="translate(-663.000000, -5485.000000)">
            <g id="Group-28" transform="translate(663.000000, 5485.000000)">
                <g id="Group-27">
                    <text id="Scroll-to-continue" font-family="CircularStd-Medium, Circular Std" font-size="14" font-weight="400" fill="#000000">
                        <tspan x="0" y="77">Scroll to continue</tspan>
                    </text>
                    <g id="Group" transform="translate(46.000000, 0.000000)" fill-rule="nonzero">
                        <path d="M10.3754266,10.2116041 C4.69624573,10.2116041 0.0546075085,14.8532423 0.0546075085,20.5324232 L0.0546075085,31.9453925 C0.0546075085,37.6245734 4.69624573,42.2662116 10.3754266,42.2662116 C16.0546075,42.2662116 20.6962457,37.6245734 20.6962457,31.9453925 L20.6962457,20.5324232 C20.6962457,14.8532423 16.0546075,10.2116041 10.3754266,10.2116041 Z M12.0682594,21.9522184 C12.0682594,22.8805461 11.3037543,23.6450512 10.3754266,23.6450512 C9.44709898,23.6450512 8.68259386,22.8805461 8.68259386,21.9522184 L8.68259386,17.3651877 C8.68259386,16.4368601 9.44709898,15.6723549 10.3754266,15.6723549 C11.3037543,15.6723549 12.0682594,16.4368601 12.0682594,17.3651877 L12.0682594,21.9522184 Z" id="Shape" stroke="#111111" stroke-width="2"></path>
                        <path d="M13.0511945,45.8156997 L10.3754266,48.4914676 L7.6996587,45.8156997 C7.09897611,45.2150171 6.17064846,45.2150171 5.56996587,45.8156997 C4.96928328,46.4163823 4.96928328,47.3447099 5.56996587,47.9453925 L9.33788396,51.7133106 C9.6109215,51.9863481 9.99317406,52.1501706 10.4300341,52.1501706 C10.8122867,52.1501706 11.1945392,51.9863481 11.5221843,51.7133106 L15.2901024,47.9453925 C15.890785,47.3447099 15.890785,46.4163823 15.2901024,45.8156997 C14.6348123,45.2150171 13.6518771,45.2150171 13.0511945,45.8156997 Z" id="Path" fill="#000000"></path>
                        <path d="M7.6996587,6.60750853 L10.3754266,3.93174061 L13.0511945,6.60750853 C13.3242321,6.88054608 13.7064846,7.0443686 14.1433447,7.0443686 C14.5802048,7.0443686 14.9078498,6.88054608 15.2354949,6.60750853 C15.8361775,6.00682594 15.8361775,5.07849829 15.2354949,4.4778157 L11.4675768,0.709897611 C10.8668942,0.109215017 9.93856655,0.109215017 9.33788396,0.709897611 L5.56996587,4.4778157 C4.96928328,5.07849829 4.96928328,6.00682594 5.56996587,6.60750853 C6.11604096,7.20819113 7.09897611,7.20819113 7.6996587,6.60750853 Z" id="Path" fill="#000000"></path>
                    </g>
                </g>
                <g id="Combined-Shape-9" transform="translate(40.000000, 101.000000)" fill="#111111" fill-rule="nonzero" stroke="#111111" stroke-width="2.77775297">
                    <path d="M32.5788651,0.0381837704 C32.7121106,-0.0393991943 32.8834477,0.00499616066 32.9615571,0.137343571 C33.0396666,0.269690981 32.9949699,0.439873175 32.8617244,0.51745614 L32.8617244,0.51745614 L16.6414296,9.96181623 C16.6349771,9.96557327 16.6284352,9.96904427 16.6218189,9.97223308 C16.6121682,9.9769033 16.6016892,9.98119555 16.5909977,9.98484432 C16.5820143,9.9879607 16.5733754,9.9904438 16.5646851,9.99249855 C16.5530418,9.99519069 16.5408473,9.99725971 16.528545,9.99852335 C16.5195175,9.99949982 16.5100909,9.99998548 16.500688,9.99999968 C16.4905856,10.0000197 16.4808203,9.9995345 16.4710686,9.99853322 C16.4591527,9.99725971 16.4469582,9.99519069 16.4349556,9.99233811 C16.4266246,9.9904438 16.4179857,9.9879607 16.4094278,9.98504156 C16.3983108,9.98119555 16.3878318,9.9769033 16.3776297,9.9719843 C16.3715648,9.96904427 16.3650229,9.96557327 16.3585704,9.96181623 L0.138275572,0.51745614 C0.00503006415,0.439873175 -0.0396665536,0.269690981 0.038442882,0.137343571 C0.116552318,0.00499616066 0.287889353,-0.0393991943 0.42113486,0.0381837704 L16.5,9.4 Z" id="Combined-Shape"></path>
                </g>
            </g>
        </g>
    </g>
</svg>