<svg width="440" height="365" viewBox="0 0 440 365" fill="none" xmlns="http://www.w3.org/2000/svg">
<rect width="440" height="365" rx="8" fill="#65A6EA"/>
<path d="M47.5327 302.295H45.5064L41.2876 317.969H43.3139L47.5327 302.295ZM52.1363 316H54.5078V311.577H57.0135C60.0369 311.577 61.6605 309.761 61.6605 307.243C61.6605 304.744 60.0561 302.909 57.0454 302.909H52.1363V316ZM54.5078 309.627V304.891H56.6811C58.4581 304.891 59.2443 305.849 59.2443 307.243C59.2443 308.636 58.4581 309.627 56.6939 309.627H54.5078ZM62.8981 316H65.212V310.228C65.212 308.982 66.1516 308.099 67.4236 308.099C67.8135 308.099 68.2993 308.17 68.4975 308.234V306.105C68.2866 306.067 67.9222 306.041 67.6665 306.041C66.5415 306.041 65.6019 306.68 65.2439 307.818H65.1417V306.182H62.8981V316ZM73.1932 316.192C76.0696 316.192 77.8977 314.165 77.8977 311.129C77.8977 308.087 76.0696 306.054 73.1932 306.054C70.3167 306.054 68.4886 308.087 68.4886 311.129C68.4886 314.165 70.3167 316.192 73.1932 316.192ZM73.2059 314.338C71.6143 314.338 70.8345 312.919 70.8345 311.123C70.8345 309.327 71.6143 307.888 73.2059 307.888C74.772 307.888 75.5518 309.327 75.5518 311.123C75.5518 312.919 74.772 314.338 73.2059 314.338ZM79.1417 306.182V316.531C79.1417 317.355 78.7901 317.796 77.9016 317.796C77.7865 317.796 77.6971 317.79 77.5692 317.783V319.669C77.7354 319.682 77.876 319.682 78.0422 319.682C80.2091 319.682 81.4556 318.685 81.4556 316.562V306.182H79.1417ZM80.2922 304.788C81.0273 304.788 81.6282 304.226 81.6282 303.536C81.6282 302.839 81.0273 302.276 80.2922 302.276C79.5507 302.276 78.9499 302.839 78.9499 303.536C78.9499 304.226 79.5507 304.788 80.2922 304.788ZM87.4616 316.192C89.75 316.192 91.3224 315.073 91.7315 313.366L89.571 313.124C89.2578 313.955 88.4907 314.389 87.4936 314.389C85.9978 314.389 85.0071 313.405 84.9879 311.724H91.8274V311.014C91.8274 307.569 89.7563 306.054 87.3402 306.054C84.5277 306.054 82.6931 308.119 82.6931 311.148C82.6931 314.229 84.5021 316.192 87.4616 316.192ZM84.9943 310.164C85.0646 308.911 85.9914 307.857 87.3721 307.857C88.7017 307.857 89.5965 308.828 89.6093 310.164H84.9943ZM97.3476 316.192C99.8149 316.192 101.387 314.728 101.554 312.644H99.3419C99.1438 313.699 98.3831 314.306 97.3668 314.306C95.9222 314.306 94.9889 313.098 94.9889 311.091C94.9889 309.109 95.9414 307.92 97.3668 307.92C98.479 307.92 99.1629 308.636 99.3419 309.582H101.554C101.394 307.454 99.7318 306.054 97.3348 306.054C94.4584 306.054 92.6431 308.131 92.6431 311.129C92.6431 314.102 94.4137 316.192 97.3476 316.192ZM107.636 306.182H105.7V303.83H103.386V306.182H101.992V307.972H103.386V313.43C103.373 315.278 104.715 316.185 106.454 316.134C107.112 316.115 107.566 315.987 107.815 315.904L107.425 314.095C107.298 314.127 107.035 314.185 106.748 314.185C106.166 314.185 105.7 313.98 105.7 313.047V307.972H107.636V306.182ZM110.277 316.141C111.031 316.141 111.677 315.514 111.683 314.734C111.677 313.967 111.031 313.341 110.277 313.341C109.497 313.341 108.864 313.967 108.871 314.734C108.864 315.514 109.497 316.141 110.277 316.141ZM110.277 309.129C111.031 309.129 111.677 308.502 111.683 307.722C111.677 306.955 111.031 306.329 110.277 306.329C109.497 306.329 108.864 306.955 108.871 307.722C108.864 308.502 109.497 309.129 110.277 309.129ZM122.396 302.909H120.14L116.886 304.999V307.173L119.948 305.217H120.025V316H122.396V302.909ZM130.209 319.682C132.011 319.682 133.053 318.755 133.609 317.189L137.553 306.195L135.079 306.182L132.81 313.597H132.708L130.445 306.182H127.99L131.551 316.205L131.353 316.735C130.924 317.854 130.247 317.93 129.237 317.636L128.7 319.439C129.013 319.567 129.576 319.682 130.209 319.682ZM142.452 316.192C144.74 316.192 146.312 315.073 146.721 313.366L144.561 313.124C144.248 313.955 143.481 314.389 142.484 314.389C140.988 314.389 139.997 313.405 139.978 311.724H146.817V311.014C146.817 307.569 144.746 306.054 142.33 306.054C139.518 306.054 137.683 308.119 137.683 311.148C137.683 314.229 139.492 316.192 142.452 316.192ZM139.984 310.164C140.055 308.911 140.981 307.857 142.362 307.857C143.692 307.857 144.587 308.828 144.599 310.164H139.984ZM150.88 316.198C152.421 316.198 153.341 315.476 153.763 314.651H153.84V316H156.064V309.429C156.064 306.834 153.948 306.054 152.076 306.054C150.011 306.054 148.426 306.974 147.914 308.764L150.075 309.071C150.305 308.4 150.957 307.825 152.088 307.825C153.162 307.825 153.75 308.374 153.75 309.339V309.378C153.75 310.043 153.054 310.075 151.321 310.26C149.416 310.464 147.595 311.033 147.595 313.245C147.595 315.175 149.007 316.198 150.88 316.198ZM151.481 314.498C150.516 314.498 149.826 314.057 149.826 313.207C149.826 312.318 150.599 311.947 151.634 311.8C152.242 311.717 153.456 311.564 153.757 311.321V312.478C153.757 313.571 152.875 314.498 151.481 314.498ZM157.671 316H159.985V310.228C159.985 308.982 160.924 308.099 162.196 308.099C162.586 308.099 163.072 308.17 163.27 308.234V306.105C163.059 306.067 162.695 306.041 162.439 306.041C161.314 306.041 160.375 306.68 160.017 307.818H159.914V306.182H157.671V316Z" fill="white" fill-opacity="0.5"/>
<path d="M186.533 302.295H184.506L180.288 317.969H182.314L186.533 302.295ZM190.561 304.897H194.607V316H196.96V304.897H201.006V302.909H190.561V304.897ZM205.12 316.192C207.408 316.192 208.98 315.073 209.39 313.366L207.229 313.124C206.916 313.955 206.149 314.389 205.152 314.389C203.656 314.389 202.665 313.405 202.646 311.724H209.485V311.014C209.485 307.569 207.414 306.054 204.998 306.054C202.186 306.054 200.351 308.119 200.351 311.148C200.351 314.229 202.16 316.192 205.12 316.192ZM202.652 310.164C202.723 308.911 203.649 307.857 205.03 307.857C206.36 307.857 207.255 308.828 207.267 310.164H202.652ZM213.548 316.198C215.089 316.198 216.009 315.476 216.431 314.651H216.508V316H218.732V309.429C218.732 306.834 216.616 306.054 214.744 306.054C212.679 306.054 211.094 306.974 210.582 308.764L212.743 309.071C212.973 308.4 213.625 307.825 214.756 307.825C215.83 307.825 216.418 308.374 216.418 309.339V309.378C216.418 310.043 215.722 310.075 213.989 310.26C212.084 310.464 210.263 311.033 210.263 313.245C210.263 315.175 211.675 316.198 213.548 316.198ZM214.149 314.498C213.184 314.498 212.494 314.057 212.494 313.207C212.494 312.318 213.267 311.947 214.303 311.8C214.91 311.717 216.124 311.564 216.425 311.321V312.478C216.425 313.571 215.543 314.498 214.149 314.498ZM220.339 316H222.653V310.03C222.653 308.822 223.458 308.004 224.455 308.004C225.433 308.004 226.105 308.662 226.105 309.672V316H228.374V309.876C228.374 308.771 229.032 308.004 230.151 308.004C231.084 308.004 231.825 308.553 231.825 309.768V316H234.146V309.41C234.146 307.217 232.88 306.054 231.078 306.054C229.652 306.054 228.565 306.757 228.131 307.85H228.029C227.651 306.738 226.699 306.054 225.376 306.054C224.059 306.054 223.075 306.732 222.666 307.85H222.551V306.182H220.339V316ZM246.735 306.508H249.017C248.972 304.296 247.086 302.73 244.299 302.73C241.551 302.73 239.486 304.277 239.492 306.591C239.492 308.47 240.828 309.55 242.983 310.107L244.472 310.49C245.885 310.848 246.818 311.289 246.824 312.305C246.818 313.424 245.757 314.172 244.21 314.172C242.727 314.172 241.576 313.507 241.48 312.133H239.147C239.243 314.734 241.18 316.198 244.229 316.198C247.367 316.198 249.189 314.632 249.196 312.325C249.189 310.055 247.316 309.02 245.348 308.553L244.12 308.246C243.046 307.991 241.883 307.537 241.896 306.444C241.902 305.46 242.784 304.737 244.267 304.737C245.68 304.737 246.613 305.396 246.735 306.508ZM250.488 316H252.801V306.182H250.488V316ZM251.651 304.788C252.386 304.788 252.987 304.226 252.987 303.536C252.987 302.839 252.386 302.276 251.651 302.276C250.909 302.276 250.309 302.839 250.309 303.536C250.309 304.226 250.909 304.788 251.651 304.788ZM254.333 316H262.393V314.082H257.408V313.999L262.227 307.761V306.182H254.499V308.099H259.396V308.183L254.333 314.53V316ZM267.914 316.192C270.202 316.192 271.774 315.073 272.184 313.366L270.023 313.124C269.71 313.955 268.943 314.389 267.946 314.389C266.45 314.389 265.459 313.405 265.44 311.724H272.279V311.014C272.279 307.569 270.208 306.054 267.792 306.054C264.98 306.054 263.145 308.119 263.145 311.148C263.145 314.229 264.954 316.192 267.914 316.192ZM265.446 310.164C265.517 308.911 266.443 307.857 267.824 307.857C269.154 307.857 270.049 308.828 270.061 310.164H265.446ZM274.942 316.141C275.697 316.141 276.342 315.514 276.349 314.734C276.342 313.967 275.697 313.341 274.942 313.341C274.163 313.341 273.53 313.967 273.536 314.734C273.53 315.514 274.163 316.141 274.942 316.141ZM274.942 309.129C275.697 309.129 276.342 308.502 276.349 307.722C276.342 306.955 275.697 306.329 274.942 306.329C274.163 306.329 273.53 306.955 273.536 307.722C273.53 308.502 274.163 309.129 274.942 309.129ZM287.062 302.909H284.805L281.552 304.999V307.173L284.613 305.217H284.69V316H287.062V302.909ZM294.504 316.249C297.662 316.256 299.547 313.763 299.547 309.467C299.547 305.197 297.649 302.73 294.504 302.73C291.359 302.73 289.467 305.191 289.461 309.467C289.461 313.756 291.346 316.249 294.504 316.249ZM294.504 314.249C292.874 314.249 291.851 312.612 291.858 309.467C291.864 306.348 292.881 304.705 294.504 304.705C296.134 304.705 297.15 306.348 297.157 309.467C297.157 312.612 296.141 314.249 294.504 314.249Z" fill="white" fill-opacity="0.5"/>
<path d="M41.5 75.3601C41.5 76.1886 42.1716 76.8601 43 76.8601H68.2583C69.0868 76.8601 69.7583 76.1886 69.7583 75.3601V50.1018C69.7583 49.2734 69.0868 48.6018 68.2583 48.6018H43C42.1716 48.6018 41.5 49.2734 41.5 50.1018V75.3601Z" fill="#64A8F0" stroke="white"/>
<path fill-rule="evenodd" clip-rule="evenodd" d="M47.2197 52.5911V51.0967H45.9837C44.6673 51.0967 43.9956 52.3028 43.9956 53.4301C43.9687 54.5577 44.318 55.6064 45.5002 55.7375C44.9361 55.8947 44.4254 56.288 44.3986 56.9173C44.3986 57.6513 44.7749 57.8612 45.5808 58.307C46.1451 58.5953 46.548 58.805 46.5748 59.3819C46.5748 59.8276 46.3331 60.1422 45.8227 60.1422C45.4196 60.1422 44.8285 59.9063 44.5866 58.543H44.3986V60.3521H45.8227C46.7092 60.3521 47.4884 59.8014 47.4884 58.9099C47.4884 58.0996 46.9227 57.8003 46.4018 57.5247C46.3329 57.4882 46.2647 57.4521 46.1987 57.4153C46.1578 57.3936 46.1182 57.3727 46.0799 57.3525C45.5646 57.0808 45.2852 56.9335 45.2852 56.4454C45.2852 56.0522 45.6076 55.7899 46.0375 55.8162C46.4406 55.8162 46.6824 56.0784 46.8168 56.3142C46.9427 56.5356 46.9979 56.734 47.0707 56.9957C47.0755 57.013 47.0803 57.0305 47.0853 57.0483H47.2735V53.2991H45.7688V53.4826C45.7999 53.4927 45.8429 53.4989 45.8903 53.5057C45.9657 53.5166 46.0521 53.529 46.1181 53.5613C46.2525 53.6399 46.3331 53.7973 46.3331 54.0594V54.7674C46.3331 54.9771 46.3063 55.2917 46.1719 55.4491C46.0913 55.5539 45.9569 55.6064 45.7688 55.6064C45.4196 55.6064 45.2852 55.3179 45.2315 55.1344C45.1509 54.7411 45.124 54.1906 45.124 53.4564C45.124 52.6698 45.2047 52.0143 45.3658 51.6998C45.5272 51.4375 45.7151 51.254 46.0375 51.2802C46.5212 51.3063 46.8704 51.857 47.0317 52.5911H47.2197ZM52.2441 51.1761H51.3037V55.4235H52.2441V51.1761ZM60.627 55.4231V52.88C60.627 52.1459 60.2238 51.805 59.6327 51.8312C59.2297 51.8574 58.988 52.1197 58.8804 52.3294C58.7461 51.9624 58.4506 51.805 58.0206 51.8312C57.6716 51.8574 57.4027 52.0672 57.2953 52.3032V51.9099H56.4624V55.4231H57.3759V52.7752C57.3759 52.5129 57.4027 52.3555 57.564 52.2244C57.6716 52.1459 57.779 52.1197 57.8595 52.1459C58.0744 52.1983 58.0744 52.4605 58.0744 52.7752V55.4231H58.988V52.749C58.988 52.5129 59.0417 52.3555 59.1761 52.2244C59.2835 52.1459 59.391 52.1197 59.4716 52.1459C59.6865 52.1983 59.7134 52.4605 59.7134 52.7752V55.4231H60.627ZM64.684 55.4237H65.5974V52.7758C65.5974 52.5135 65.6512 52.3561 65.7855 52.225C65.8931 52.1465 66.0274 52.1203 66.108 52.1465C66.3229 52.199 66.3229 52.4611 66.3229 52.7758V55.4237H67.2634V52.8806C67.2634 52.1465 66.8604 51.8056 66.2693 51.8318C65.9199 51.858 65.6512 52.0678 65.5438 52.3038V51.9105H64.684V55.4237ZM49.2616 51.8313C49.584 51.8313 49.8528 51.9625 50.0677 52.146C50.4708 52.4606 50.6856 53.0374 50.6856 53.6666C50.6856 54.3221 50.4708 54.8726 50.0677 55.1874C49.8528 55.3709 49.584 55.5019 49.2616 55.5019C48.9393 55.5019 48.6975 55.3709 48.4556 55.1874C48.0794 54.8726 47.8377 54.3221 47.8377 53.6666C47.8377 53.0374 48.0794 52.4606 48.4556 52.146C48.6975 51.9625 48.9393 51.8313 49.2616 51.8313ZM49.7184 53.6669C49.7184 54.3224 49.7184 54.8468 49.6108 55.109C49.5303 55.24 49.4496 55.3187 49.2615 55.3187C49.1005 55.3187 48.993 55.24 48.9392 55.109C48.8048 54.8468 48.8048 54.3224 48.8048 53.6669C48.8048 53.0377 48.8048 52.4871 48.9392 52.2248C48.993 52.0938 49.1005 52.0151 49.2615 52.0151C49.4496 52.0151 49.5303 52.0938 49.6108 52.2248C49.7256 52.4485 49.7228 52.8822 49.7195 53.3954V53.3955V53.3955V53.3955V53.3955V53.3955V53.3955V53.3955V53.3955V53.3955V53.3955C49.719 53.4838 49.7184 53.5745 49.7184 53.6669ZM59.4446 57.7044V56.7606H58.5043C57.779 56.7606 57.322 57.1538 57.322 57.7831C57.322 58.2536 57.6693 58.4634 58.2303 58.8023L58.2356 58.8056C58.7461 59.0941 58.961 59.3039 58.961 59.6447C58.961 59.9855 58.7192 60.169 58.3969 60.169C57.8864 60.1429 57.6715 59.7234 57.5371 59.0416H57.3489V60.3527H58.4237C58.988 60.3527 59.6597 59.9855 59.6597 59.2252C59.6597 58.6038 59.2871 58.4067 58.7782 58.1373L58.7782 58.1372C58.7073 58.0997 58.6337 58.0608 58.5581 58.0191C58.0744 57.7569 57.9937 57.5471 58.0206 57.3113C58.0475 57.0753 58.2894 56.918 58.5581 56.9441C58.988 56.9704 59.1492 57.3113 59.2567 57.7044H59.4446ZM55.5758 55.4235V51.1761H54.6353V52.1724C54.5548 51.9889 54.3666 51.8578 54.098 51.8578C53.4263 51.8578 52.8888 52.5394 52.862 53.5882C52.8352 54.2962 53.077 55.476 54.0173 55.476C54.3934 55.476 54.6085 55.2663 54.6891 55.0827V55.4235H55.5758ZM54.6623 53.5877C54.6623 53.0896 54.6623 52.4604 54.4741 52.1982L54.4737 52.1979C54.3933 52.1194 54.3396 52.0671 54.2054 52.0671C53.8561 52.0671 53.8024 52.8537 53.8024 53.5615C53.8024 53.981 53.8024 54.3744 53.8293 54.689C53.883 55.0298 53.9905 55.2395 54.1786 55.2395C54.313 55.2395 54.3934 55.1872 54.4741 55.0822C54.668 54.8221 54.6652 54.2418 54.6628 53.7458V53.7458V53.7457V53.7457V53.7457L54.6628 53.745V53.745C54.6625 53.6914 54.6623 53.6388 54.6623 53.5877ZM63.4212 52.0151C63.6629 52.1463 63.8242 52.356 63.8242 52.828V55.4236H62.9376V55.0304C62.8301 55.3187 62.5346 55.5022 62.1314 55.5022C61.8091 55.5022 61.2448 55.345 61.2448 54.5322C61.2448 53.8214 61.691 53.6377 62.2101 53.424C62.2463 53.409 62.2829 53.394 62.3197 53.3786C62.8301 53.1689 62.8838 53.1425 62.8838 52.9328V52.356C62.8838 52.1201 62.7496 52.0151 62.4808 52.0151C62.3733 52.0413 62.1852 52.0938 62.1852 52.2248C62.1721 52.3013 62.2098 52.3407 62.2551 52.388C62.303 52.438 62.3594 52.497 62.3733 52.6183C62.4001 52.9853 62.1046 53.1163 61.836 53.0901C61.6478 53.0901 61.4329 52.9853 61.4061 52.697C61.3792 52.2248 61.9165 51.8317 62.6688 51.8317C63.0182 51.8317 63.2331 51.9103 63.4212 52.0151ZM62.5882 53.5098L62.8838 53.3263V54.4013C62.8838 54.7685 62.7765 55.1093 62.5882 55.1879C62.4271 55.2403 62.2389 55.1879 62.2121 54.8995C62.1852 54.5849 62.1852 54.4013 62.2121 54.1916C62.2389 53.9293 62.2927 53.6935 62.5882 53.5098ZM50.1215 56.918C50.3633 57.0753 50.4975 57.2588 50.4975 57.7306V60.3527H49.6378V59.9594C49.5304 60.2215 49.2349 60.405 48.8317 60.405C48.4824 60.405 47.9449 60.2739 47.9449 59.4612C47.9449 58.7583 48.3814 58.5708 48.872 58.36L48.872 58.36L48.8725 58.3598C48.9124 58.3426 48.9526 58.3253 48.9931 58.3076C49.5304 58.0716 49.584 58.0454 49.584 57.8618V57.285C49.584 57.0228 49.4496 56.918 49.1811 56.9441C49.0735 56.9441 48.8855 56.9966 48.8855 57.1276C48.8719 57.2203 48.9131 57.2662 48.9607 57.3192C49.0074 57.3713 49.0602 57.4303 49.0735 57.5471C49.1005 57.8881 48.8049 58.0191 48.5362 58.0191C48.3482 57.9929 48.1331 57.8881 48.1062 57.5996C48.0794 57.1538 48.6168 56.7606 49.3691 56.7606C49.7184 56.7606 49.9333 56.8131 50.1215 56.918ZM49.2886 58.4129L49.584 58.2294V59.3044C49.584 59.6977 49.4766 60.0122 49.2616 60.0908C49.1005 60.1695 48.9123 60.1172 48.9123 59.8025C48.8855 59.514 48.8855 59.3044 48.9123 59.0945C48.9393 58.8324 48.9931 58.5964 49.2886 58.4129ZM56.6236 57.8099C56.6236 57.0758 56.2206 56.7086 55.6295 56.7611C55.334 56.7873 55.0922 56.9185 54.9578 57.102V56.0795H54.0442V58.4916C54.0442 59.3831 53.3995 60.222 52.7546 60.1957C52.2977 60.1957 52.1903 59.8549 52.1367 59.4879C52.0561 58.9634 52.0561 58.3604 52.1097 57.7049C52.1635 57.2855 52.2709 56.9446 52.5934 56.9446C52.8352 56.9446 52.862 57.102 52.7546 57.2068C52.7413 57.2231 52.7271 57.2393 52.7127 57.2559C52.6108 57.3729 52.4959 57.5047 52.5666 57.7574C52.647 58.0721 53.1575 58.1244 53.3995 57.8886C53.5875 57.6788 53.5607 57.338 53.4263 57.1281C53.2651 56.866 52.9964 56.7611 52.5934 56.7611C52.0829 56.7611 51.1157 57.2068 51.1157 58.6228C51.1157 60.1434 52.1097 60.4055 52.674 60.4055C53.3189 60.4055 53.883 59.8549 54.0442 59.4092V60.3532H54.9578V57.7049C54.9578 57.4428 55.0116 57.2855 55.1458 57.1543C55.2534 57.0758 55.3877 57.0495 55.4683 57.0758C55.6833 57.1281 55.6833 57.3903 55.6833 57.7049V60.3532H56.6236V57.8099Z" fill="white"/>
<path fill-rule="evenodd" clip-rule="evenodd" d="M81.2143 59.8723L83.6754 62.3086L86.1365 59.8723L86.3723 60.1057L83.9112 62.542L86.3723 64.9783L86.1365 65.2117L83.6754 62.7754L81.2143 65.2117L80.9785 64.9783L83.4396 62.542L80.9785 60.1057L81.2143 59.8723Z" fill="white" stroke="white" stroke-width="1.10589"/>
<rect opacity="0.122339" x="92.7754" y="51.9409" width="29.6841" height="4.80496" rx="1.99059" fill="#2F66A5"/>
<rect opacity="0.122339" x="95.9551" y="58.3474" width="36.045" height="5.87273" rx="2.43295" fill="#2F66A5"/>
<path d="M111.593 73.7374C118.427 73.7374 123.962 68.1582 123.962 61.2827C123.962 54.4071 118.427 48.8279 111.593 48.8279C104.758 48.8279 99.2237 54.4071 99.2237 61.2827C99.2237 68.1582 104.758 73.7374 111.593 73.7374Z" fill="#E6ECF4" stroke="#2F66A5" stroke-width="0.884709"/>
<mask id="mask0" mask-type="alpha" maskUnits="userSpaceOnUse" x="98" y="48" width="27" height="27">
<path d="M111.593 73.7374C118.427 73.7374 123.962 68.1582 123.962 61.2827C123.962 54.4071 118.427 48.8279 111.593 48.8279C104.758 48.8279 99.2237 54.4071 99.2237 61.2827C99.2237 68.1582 104.758 73.7374 111.593 73.7374Z" fill="white" stroke="white" stroke-width="0.884709"/>
</mask>
<g mask="url(#mask0)">
<path d="M106.47 66.2632H116.717V74.9884H106.47V66.2632Z" fill="white" stroke="#4A4A4A" stroke-width="0.884709"/>
<path d="M106.293 67.1555L101.787 73.8291" stroke="#4A4A4A" stroke-width="0.884709" stroke-linecap="square"/>
<path d="M116.629 66.8889L121.4 73.8294" stroke="#4A4A4A" stroke-width="0.884709" stroke-linecap="square"/>
</g>
<path fill-rule="evenodd" clip-rule="evenodd" d="M109.805 77.3467C109.75 77.2571 109.729 77.151 109.745 77.0472L111.148 68.0807C111.226 67.582 111.944 67.582 112.022 68.0807L113.449 77.208L111.962 79.6343C111.789 79.9158 111.38 79.9158 111.207 79.6343L109.805 77.3467Z" fill="#4A90E2"/>
<path fill-rule="evenodd" clip-rule="evenodd" d="M109.738 66.8872H113.449L112.336 69.0227H110.851L109.738 66.8872Z" fill="#4A90E2"/>
<rect x="102.229" y="45.4424" width="19.2581" height="18.9311" rx="1.32706" fill="white" stroke="#4A4A4A" stroke-width="0.884709"/>
<path d="M107.088 57.0117C107.088 57.0117 108.455 59.6061 111.726 59.6061C114.998 59.6061 116.364 57.0117 116.364 57.0117" stroke="#4A4A4A" stroke-width="0.884709" stroke-linecap="square"/>
<rect x="108.148" y="49.804" width="1.59022" height="4.27108" rx="0.79511" fill="#4A4A4A"/>
<rect x="113.979" y="49.804" width="1.59022" height="4.27108" rx="0.79511" fill="#4A4A4A"/>
<path fill-rule="evenodd" clip-rule="evenodd" d="M99.6656 61.5508H98.6055C98.6055 64.3896 99.5068 67.0939 101.149 69.328C103.583 72.638 107.424 74.631 111.592 74.631C115.761 74.631 119.601 72.638 122.035 69.328C123.678 67.0939 124.579 64.3896 124.579 61.5508H123.519C123.519 64.2255 122.651 66.696 121.183 68.6922C119.01 71.6472 115.523 73.5629 111.592 73.5629C107.661 73.5629 104.174 71.6472 102.001 68.6922C100.534 66.696 99.6657 64.2255 99.6656 61.5508Z" fill="#2F66A5"/>
<path fill-rule="evenodd" clip-rule="evenodd" d="M109.805 77.3475C109.75 77.2579 109.729 77.1517 109.745 77.0479L111.148 68.0814C111.226 67.5828 111.944 67.5828 112.022 68.0814L113.449 77.2087L111.962 79.635C111.789 79.9166 111.38 79.9166 111.207 79.635L109.805 77.3475Z" fill="#4A90E2"/>
<path fill-rule="evenodd" clip-rule="evenodd" d="M109.738 66.8879H113.449L112.336 69.0235H110.851L109.738 66.8879Z" fill="#4A90E2"/>
<path d="M61.1222 143.179H65.9545C65.1491 138.04 60.7003 134.46 54.9091 134.46C48.0568 134.46 42.9176 139.497 42.9176 147.935C42.9176 156.219 47.8267 161.358 55.0497 161.358C61.5312 161.358 66.1719 157.19 66.1719 150.44V147.295H55.5483V151.003H61.5824C61.5057 154.736 59.0128 157.101 55.0753 157.101C50.6903 157.101 47.6861 153.815 47.6861 147.884C47.6861 141.99 50.7415 138.717 54.973 138.717C58.1307 138.717 60.2784 140.405 61.1222 143.179ZM77.679 161.384C83.4318 161.384 87.0881 157.331 87.0881 151.259C87.0881 145.173 83.4318 141.108 77.679 141.108C71.9261 141.108 68.2699 145.173 68.2699 151.259C68.2699 157.331 71.9261 161.384 77.679 161.384ZM77.7045 157.676C74.5213 157.676 72.9616 154.838 72.9616 151.246C72.9616 147.653 74.5213 144.777 77.7045 144.777C80.8366 144.777 82.3963 147.653 82.3963 151.246C82.3963 154.838 80.8366 157.676 77.7045 157.676ZM94.2038 134.818H89.576V161H94.2038V134.818ZM104.81 161.345C108.185 161.345 109.706 159.338 110.435 157.906H110.716V161H115.267V134.818H110.626V144.611H110.435C109.731 143.192 108.287 141.108 104.822 141.108C100.284 141.108 96.7173 144.662 96.7173 151.207C96.7173 157.676 100.182 161.345 104.81 161.345ZM106.101 157.548C103.045 157.548 101.435 154.864 101.435 151.182C101.435 147.526 103.02 144.905 106.101 144.905C109.08 144.905 110.716 147.372 110.716 151.182C110.716 154.991 109.054 157.548 106.101 157.548ZM118.758 161H123.386V149.06C123.386 146.643 124.997 145.007 126.991 145.007C128.947 145.007 130.29 146.324 130.29 148.344V161H134.828V148.753C134.828 146.541 136.145 145.007 138.382 145.007C140.249 145.007 141.731 146.107 141.731 148.536V161H146.372V147.82C146.372 143.435 143.841 141.108 140.236 141.108C137.385 141.108 135.212 142.514 134.342 144.7H134.138C133.383 142.476 131.479 141.108 128.832 141.108C126.199 141.108 124.23 142.463 123.412 144.7H123.182V141.364H118.758V161ZM155.278 161.396C158.359 161.396 160.2 159.952 161.043 158.303H161.197V161H165.646V147.858C165.646 142.668 161.414 141.108 157.668 141.108C153.539 141.108 150.369 142.949 149.346 146.528L153.667 147.142C154.127 145.8 155.431 144.649 157.694 144.649C159.842 144.649 161.018 145.749 161.018 147.679V147.756C161.018 149.085 159.624 149.149 156.16 149.52C152.35 149.929 148.707 151.067 148.707 155.49C148.707 159.351 151.532 161.396 155.278 161.396ZM156.479 157.996C154.549 157.996 153.168 157.114 153.168 155.413C153.168 153.636 154.715 152.895 156.786 152.601C158.001 152.435 160.43 152.128 161.03 151.642V153.956C161.03 156.142 159.266 157.996 156.479 157.996ZM173.487 149.494C173.487 146.656 175.2 145.02 177.642 145.02C180.032 145.02 181.464 146.592 181.464 149.213V161H186.092V148.497C186.105 143.793 183.42 141.108 179.367 141.108C176.427 141.108 174.407 142.514 173.512 144.7H173.282V141.364H168.859V161H173.487V149.494ZM211.279 142.016H215.843C215.754 137.592 211.982 134.46 206.409 134.46C200.911 134.46 196.782 137.554 196.795 142.182C196.795 145.94 199.467 148.101 203.775 149.213L206.754 149.98C209.579 150.696 211.446 151.578 211.458 153.611C211.446 155.848 209.323 157.344 206.23 157.344C203.264 157.344 200.963 156.014 200.771 153.266H196.105C196.296 158.469 200.17 161.396 206.268 161.396C212.545 161.396 216.188 158.264 216.201 153.649C216.188 149.111 212.443 147.04 208.505 146.107L206.051 145.493C203.903 144.982 201.576 144.074 201.602 141.888C201.615 139.919 203.379 138.474 206.345 138.474C209.17 138.474 211.036 139.791 211.279 142.016ZM224.436 161.396C227.517 161.396 229.357 159.952 230.201 158.303H230.355V161H234.803V147.858C234.803 142.668 230.572 141.108 226.826 141.108C222.697 141.108 219.526 142.949 218.504 146.528L222.825 147.142C223.285 145.8 224.589 144.649 226.852 144.649C229 144.649 230.176 145.749 230.176 147.679V147.756C230.176 149.085 228.782 149.149 225.318 149.52C221.508 149.929 217.865 151.067 217.865 155.49C217.865 159.351 220.69 161.396 224.436 161.396ZM225.637 157.996C223.707 157.996 222.326 157.114 222.326 155.413C222.326 153.636 223.873 152.895 225.944 152.601C227.159 152.435 229.588 152.128 230.188 151.642V153.956C230.188 156.142 228.424 157.996 225.637 157.996ZM246.582 161.384C251.517 161.384 254.662 158.456 254.994 154.288H250.571C250.175 156.398 248.653 157.612 246.621 157.612C243.731 157.612 241.865 155.196 241.865 151.182C241.865 147.219 243.77 144.841 246.621 144.841C248.845 144.841 250.213 146.273 250.571 148.165H254.994C254.675 143.908 251.351 141.108 246.557 141.108C240.804 141.108 237.173 145.263 237.173 151.259C237.173 157.203 240.714 161.384 246.582 161.384ZM261.982 149.494C261.982 146.656 263.746 145.02 266.226 145.02C268.655 145.02 270.087 146.567 270.087 149.213V161H274.715V148.497C274.715 143.754 272.03 141.108 267.952 141.108C264.935 141.108 263.018 142.476 262.11 144.7H261.88V134.818H257.354V161H261.982V149.494ZM293.512 146.554C292.873 143.23 290.214 141.108 285.612 141.108C280.882 141.108 277.66 143.435 277.673 147.065C277.66 149.929 279.424 151.821 283.195 152.601L286.545 153.304C288.347 153.7 289.191 154.429 289.191 155.541C289.191 156.884 287.734 157.893 285.535 157.893C283.413 157.893 282.032 156.973 281.636 155.209L277.123 155.643C277.698 159.249 280.728 161.384 285.548 161.384C290.457 161.384 293.921 158.839 293.934 155.119C293.921 152.32 292.119 150.607 288.411 149.801L285.062 149.085C283.068 148.638 282.275 147.947 282.288 146.81C282.275 145.48 283.745 144.56 285.676 144.56C287.811 144.56 288.936 145.723 289.294 147.014L293.512 146.554Z" fill="white" fill-opacity="0.5"/>
<path d="M57.8111 186.016H62.375C62.2855 181.592 58.5142 178.46 52.9403 178.46C47.4432 178.46 43.3139 181.554 43.3267 186.182C43.3267 189.94 45.9986 192.101 50.3068 193.213L53.2855 193.98C56.1108 194.696 57.9773 195.578 57.9901 197.611C57.9773 199.848 55.8551 201.344 52.7614 201.344C49.7955 201.344 47.4943 200.014 47.3026 197.266H42.6364C42.8281 202.469 46.7017 205.396 52.7997 205.396C59.0767 205.396 62.7202 202.264 62.733 197.649C62.7202 193.111 58.9744 191.04 55.0369 190.107L52.5824 189.493C50.4347 188.982 48.108 188.074 48.1335 185.888C48.1463 183.919 49.9105 182.474 52.8764 182.474C55.7017 182.474 57.5682 183.791 57.8111 186.016ZM65.3167 205H69.9446V185.364H65.3167V205ZM67.6435 182.577C69.1136 182.577 70.3153 181.452 70.3153 180.071C70.3153 178.678 69.1136 177.553 67.6435 177.553C66.1605 177.553 64.9588 178.678 64.9588 180.071C64.9588 181.452 66.1605 182.577 67.6435 182.577ZM73.2635 205H77.8913V193.06C77.8913 190.643 79.5021 189.007 81.4964 189.007C83.4524 189.007 84.7947 190.324 84.7947 192.344V205H89.3331V192.753C89.3331 190.541 90.6498 189.007 92.887 189.007C94.7535 189.007 96.2365 190.107 96.2365 192.536V205H100.877V191.82C100.877 187.435 98.3459 185.108 94.7407 185.108C91.8899 185.108 89.7166 186.514 88.8473 188.7H88.6427C87.8885 186.476 85.9836 185.108 83.3373 185.108C80.7038 185.108 78.7351 186.463 77.9169 188.7H77.6868V185.364H73.2635V205ZM112.697 205.384C118.45 205.384 122.106 201.331 122.106 195.259C122.106 189.173 118.45 185.108 112.697 185.108C106.945 185.108 103.288 189.173 103.288 195.259C103.288 201.331 106.945 205.384 112.697 205.384ZM112.723 201.676C109.54 201.676 107.98 198.838 107.98 195.246C107.98 191.653 109.54 188.777 112.723 188.777C115.855 188.777 117.415 191.653 117.415 195.246C117.415 198.838 115.855 201.676 112.723 201.676ZM129.222 193.494C129.222 190.656 130.935 189.02 133.377 189.02C135.768 189.02 137.2 190.592 137.2 193.213V205H141.827V192.497C141.84 187.793 139.155 185.108 135.103 185.108C132.163 185.108 130.143 186.514 129.248 188.7H129.018V185.364H124.594V205H129.222V193.494ZM156.148 205L158.309 198.544H168.153L170.326 205H175.388L166.158 178.818H160.303L151.086 205H156.148ZM159.587 194.734L163.128 184.188H163.333L166.874 194.734H159.587ZM181.82 193.494C181.82 190.656 183.533 189.02 185.975 189.02C188.366 189.02 189.797 190.592 189.797 193.213V205H194.425V192.497C194.438 187.793 191.753 185.108 187.701 185.108C184.761 185.108 182.741 186.514 181.846 188.7H181.616V185.364H177.192V205H181.82V193.494ZM202.318 193.494C202.318 190.656 204.031 189.02 206.473 189.02C208.863 189.02 210.295 190.592 210.295 193.213V205H214.923V192.497C214.936 187.793 212.251 185.108 208.198 185.108C205.258 185.108 203.238 186.514 202.343 188.7H202.113V185.364H197.69V205H202.318V193.494ZM230.703 196.741C230.703 199.733 228.568 201.216 226.523 201.216C224.298 201.216 222.815 199.643 222.815 197.151V185.364H218.187V197.866C218.187 202.584 220.872 205.256 224.733 205.256C227.673 205.256 229.744 203.709 230.639 201.51H230.844V205H235.331V185.364H230.703V196.741ZM238.65 205H243.278V185.364H238.65V205ZM240.976 182.577C242.447 182.577 243.648 181.452 243.648 180.071C243.648 178.678 242.447 177.553 240.976 177.553C239.493 177.553 238.292 178.678 238.292 180.071C238.292 181.452 239.493 182.577 240.976 182.577ZM256.402 185.364H252.528V180.659H247.9V185.364H245.113V188.943H247.9V199.861C247.875 203.555 250.56 205.371 254.037 205.268C255.354 205.23 256.261 204.974 256.76 204.808L255.98 201.19C255.724 201.254 255.2 201.369 254.625 201.369C253.461 201.369 252.528 200.96 252.528 199.094V188.943H256.402V185.364ZM258.832 205H263.46V185.364H258.832V205ZM261.159 182.577C262.629 182.577 263.831 181.452 263.831 180.071C263.831 178.678 262.629 177.553 261.159 177.553C259.676 177.553 258.474 178.678 258.474 180.071C258.474 181.452 259.676 182.577 261.159 182.577ZM275.472 205.384C280.049 205.384 283.194 203.146 284.012 199.733L279.691 199.247C279.064 200.909 277.53 201.778 275.536 201.778C272.545 201.778 270.563 199.81 270.525 196.447H284.204V195.028C284.204 188.138 280.062 185.108 275.229 185.108C269.604 185.108 265.935 189.237 265.935 195.297C265.935 201.459 269.553 205.384 275.472 205.384ZM270.537 193.328C270.678 190.822 272.532 188.713 275.293 188.713C277.952 188.713 279.742 190.656 279.768 193.328H270.537ZM302.199 190.554C301.559 187.23 298.9 185.108 294.298 185.108C289.568 185.108 286.346 187.435 286.359 191.065C286.346 193.929 288.111 195.821 291.882 196.601L295.231 197.304C297.034 197.7 297.878 198.429 297.878 199.541C297.878 200.884 296.42 201.893 294.221 201.893C292.099 201.893 290.719 200.973 290.322 199.209L285.809 199.643C286.385 203.249 289.415 205.384 294.234 205.384C299.143 205.384 302.608 202.839 302.621 199.119C302.608 196.32 300.805 194.607 297.098 193.801L293.748 193.085C291.754 192.638 290.961 191.947 290.974 190.81C290.961 189.48 292.432 188.56 294.362 188.56C296.497 188.56 297.622 189.723 297.98 191.014L302.199 190.554Z" fill="white"/>
</svg>
