<svg width="496" height="77" viewBox="0 0 496 77" fill="none" xmlns="http://www.w3.org/2000/svg">
<rect x="55.2295" width="29.7707" height="29.7707" rx="7.38615" fill="#372C47"/>
<rect x="55.3482" y="0.118706" width="29.5333" height="29.5333" rx="7.26745" stroke="#979797" stroke-opacity="0.295913" stroke-width="0.237412"/>
<g filter="url(#filter0_bi)">
<path fill-rule="evenodd" clip-rule="evenodd" d="M76.6778 9.33925C75.2284 7.95668 73.3296 7.19507 71.3295 7.19507C67.0576 7.19507 63.5818 10.6704 63.5818 14.9423C63.5818 19.2142 67.0576 22.6901 71.3295 22.6901C73.4697 22.6901 75.4593 21.8382 76.9296 20.2921L77.9476 21.2597C76.2094 23.0876 73.8563 24.0946 71.3295 24.0946C66.2816 24.0946 62.1768 19.9873 62.1768 14.9418C62.1768 9.89487 66.2841 5.78906 71.3295 5.78906C73.6932 5.78906 75.9361 6.68883 77.6479 8.32427L76.6778 9.33925ZM71.3179 21.2505C67.8521 21.2505 65.033 18.4304 65.033 14.9646C65.033 11.4988 67.8521 8.67873 71.3179 8.67873C72.9422 8.67873 74.4822 9.29685 75.656 10.4202L76.2663 9.78144C74.927 8.501 73.1701 7.79606 71.3179 7.79606C67.365 7.79606 64.1503 11.0124 64.1503 14.9646C64.1503 18.9175 67.3663 22.1332 71.3179 22.1332C73.298 22.1332 75.1407 21.3449 76.503 19.913L75.862 19.3046C74.6681 20.5594 73.0541 21.2505 71.3179 21.2505ZM71.3456 10.1135C72.6025 10.1135 73.7958 10.5922 74.7067 11.4611L75.3163 10.8232C74.2406 9.79539 72.831 9.22993 71.3456 9.22993C68.1747 9.22993 65.5935 11.8102 65.5935 14.982C65.5935 18.1529 68.1732 20.7341 71.3456 20.7341C72.9335 20.7341 74.4123 20.1013 75.5047 18.9525L74.865 18.3444C73.9409 19.3161 72.6906 19.8515 71.3456 19.8515C68.6609 19.8515 66.4765 17.667 66.4765 14.9823C66.4765 12.2977 68.6609 10.1135 71.3456 10.1135Z" fill="white" fill-opacity="0.2"/>
<path fill-rule="evenodd" clip-rule="evenodd" d="M76.6778 9.33925C75.2284 7.95668 73.3296 7.19507 71.3295 7.19507C67.0576 7.19507 63.5818 10.6704 63.5818 14.9423C63.5818 19.2142 67.0576 22.6901 71.3295 22.6901C73.4697 22.6901 75.4593 21.8382 76.9296 20.2921L77.9476 21.2597C76.2094 23.0876 73.8563 24.0946 71.3295 24.0946C66.2816 24.0946 62.1768 19.9873 62.1768 14.9418C62.1768 9.89487 66.2841 5.78906 71.3295 5.78906C73.6932 5.78906 75.9361 6.68883 77.6479 8.32427L76.6778 9.33925ZM71.3179 21.2505C67.8521 21.2505 65.033 18.4304 65.033 14.9646C65.033 11.4988 67.8521 8.67873 71.3179 8.67873C72.9422 8.67873 74.4822 9.29685 75.656 10.4202L76.2663 9.78144C74.927 8.501 73.1701 7.79606 71.3179 7.79606C67.365 7.79606 64.1503 11.0124 64.1503 14.9646C64.1503 18.9175 67.3663 22.1332 71.3179 22.1332C73.298 22.1332 75.1407 21.3449 76.503 19.913L75.862 19.3046C74.6681 20.5594 73.0541 21.2505 71.3179 21.2505ZM71.3456 10.1135C72.6025 10.1135 73.7958 10.5922 74.7067 11.4611L75.3163 10.8232C74.2406 9.79539 72.831 9.22993 71.3456 9.22993C68.1747 9.22993 65.5935 11.8102 65.5935 14.982C65.5935 18.1529 68.1732 20.7341 71.3456 20.7341C72.9335 20.7341 74.4123 20.1013 75.5047 18.9525L74.865 18.3444C73.9409 19.3161 72.6906 19.8515 71.3456 19.8515C68.6609 19.8515 66.4765 17.667 66.4765 14.9823C66.4765 12.2977 68.6609 10.1135 71.3456 10.1135Z" fill="url(#paint0_linear)" fill-opacity="0.75"/>
</g>
<path d="M6.25476 19.144C6.25476 20.8652 4.84865 22.2714 3.12738 22.2714C1.40611 22.2714 0 20.8652 0 19.144C0 17.4227 1.40611 16.0166 3.12738 16.0166H6.25476V19.144Z" fill="#E01E5A"/>
<path d="M7.83105 19.145C7.83105 17.4237 9.23716 16.0176 10.9584 16.0176C12.6797 16.0176 14.0858 17.4237 14.0858 19.145V26.9755C14.0858 28.6968 12.6797 30.1029 10.9584 30.1029C9.23716 30.1029 7.83105 28.6968 7.83105 26.9755V19.145Z" fill="#E01E5A"/>
<path d="M10.9584 6.58679C9.23716 6.58679 7.83105 5.18068 7.83105 3.45941C7.83105 1.73814 9.23716 0.332031 10.9584 0.332031C12.6797 0.332031 14.0858 1.73814 14.0858 3.45941V6.58679H10.9584Z" fill="#36C5F0"/>
<path d="M10.9579 8.16309C12.6792 8.16309 14.0853 9.56919 14.0853 11.2905C14.0853 13.0117 12.6792 14.4178 10.9579 14.4178H3.12738C1.40611 14.4178 0 13.0117 0 11.2905C0 9.56919 1.40611 8.16309 3.12738 8.16309H10.9579Z" fill="#36C5F0"/>
<path d="M23.5166 11.29C23.5166 9.56871 24.9227 8.1626 26.644 8.1626C28.3652 8.1626 29.7714 9.56871 29.7714 11.29C29.7714 13.0112 28.3652 14.4174 26.644 14.4174H23.5166V11.29Z" fill="#2EB67D"/>
<path d="M21.9403 11.29C21.9403 13.0112 20.5342 14.4174 18.8129 14.4174C17.0917 14.4174 15.6855 13.0112 15.6855 11.29V3.45941C15.6855 1.73814 17.0917 0.332031 18.8129 0.332031C20.5342 0.332031 21.9403 1.73814 21.9403 3.45941V11.29Z" fill="#2EB67D"/>
<path d="M18.8129 23.8477C20.5342 23.8477 21.9403 25.2538 21.9403 26.975C21.9403 28.6963 20.5342 30.1024 18.8129 30.1024C17.0917 30.1024 15.6855 28.6963 15.6855 26.975V23.8477H18.8129Z" fill="#ECB22E"/>
<path d="M18.8129 22.2723C17.0917 22.2723 15.6855 20.8662 15.6855 19.145C15.6855 17.4237 17.0917 16.0176 18.8129 16.0176H26.6435C28.3648 16.0176 29.7709 17.4237 29.7709 19.145C29.7709 20.8662 28.3648 22.2723 26.6435 22.2723H18.8129Z" fill="#ECB22E"/>
<path fill-rule="evenodd" clip-rule="evenodd" d="M39.5788 11.8608L42.5009 14.7535L45.4231 11.8608L45.703 12.138L42.7809 15.0306L45.703 17.9232L45.4231 18.2004L42.5009 15.3077L39.5788 18.2004L39.2988 17.9232L42.221 15.0306L39.2988 12.138L39.5788 11.8608Z" fill="white" stroke="white" stroke-width="1.19083" stroke-linejoin="round"/>
<path d="M6.53267 58.878H4.50639L0.287642 74.5513H2.31392L6.53267 58.878ZM11.1363 72.5825H13.5078V68.1592H16.0135C19.0369 68.1592 20.6605 66.3439 20.6605 63.8254C20.6605 61.3261 19.0561 59.4916 16.0454 59.4916H11.1363V72.5825ZM13.5078 66.2096V61.4731H15.6811C17.4581 61.4731 18.2443 62.432 18.2443 63.8254C18.2443 65.2189 17.4581 66.2096 15.6939 66.2096H13.5078ZM21.8981 72.5825H24.212V66.8105C24.212 65.5641 25.1516 64.682 26.4236 64.682C26.8135 64.682 27.2993 64.7523 27.4975 64.8162V62.6876C27.2866 62.6493 26.9222 62.6237 26.6665 62.6237C25.5415 62.6237 24.6019 63.2629 24.2439 64.4007H24.1417V62.7643H21.8981V72.5825ZM32.1932 72.7743C35.0696 72.7743 36.8977 70.748 36.8977 67.7118C36.8977 64.6692 35.0696 62.6365 32.1932 62.6365C29.3167 62.6365 27.4886 64.6692 27.4886 67.7118C27.4886 70.748 29.3167 72.7743 32.1932 72.7743ZM32.2059 70.9206C30.6143 70.9206 29.8345 69.5016 29.8345 67.7054C29.8345 65.9092 30.6143 64.471 32.2059 64.471C33.772 64.471 34.5518 65.9092 34.5518 67.7054C34.5518 69.5016 33.772 70.9206 32.2059 70.9206ZM38.1417 62.7643V73.1131C38.1417 73.9376 37.7901 74.3787 36.9016 74.3787C36.7865 74.3787 36.6971 74.3723 36.5692 74.3659V76.2516C36.7354 76.2643 36.876 76.2643 37.0422 76.2643C39.2091 76.2643 40.4556 75.2672 40.4556 73.145V62.7643H38.1417ZM39.2922 61.3709C40.0273 61.3709 40.6282 60.8084 40.6282 60.118C40.6282 59.4213 40.0273 58.8588 39.2922 58.8588C38.5507 58.8588 37.9499 59.4213 37.9499 60.118C37.9499 60.8084 38.5507 61.3709 39.2922 61.3709ZM46.4616 72.7743C48.75 72.7743 50.3224 71.6557 50.7315 69.949L48.571 69.7061C48.2578 70.5371 47.4907 70.9717 46.4936 70.9717C44.9978 70.9717 44.0071 69.9873 43.9879 68.3062H50.8274V67.5967C50.8274 64.1514 48.7563 62.6365 46.3402 62.6365C43.5277 62.6365 41.6931 64.7011 41.6931 67.731C41.6931 70.8119 43.5021 72.7743 46.4616 72.7743ZM43.9943 66.7466C44.0646 65.4937 44.9914 64.4391 46.3721 64.4391C47.7017 64.4391 48.5965 65.4106 48.6093 66.7466H43.9943ZM56.3476 72.7743C58.8149 72.7743 60.3874 71.3105 60.5536 69.2267H58.3419C58.1438 70.2814 57.3831 70.8886 56.3668 70.8886C54.9222 70.8886 53.9889 69.6805 53.9889 67.6734C53.9889 65.6919 54.9414 64.503 56.3668 64.503C57.479 64.503 58.1629 65.2189 58.3419 66.1649H60.5536C60.3938 64.0364 58.7318 62.6365 56.3348 62.6365C53.4584 62.6365 51.6431 64.7139 51.6431 67.7118C51.6431 70.6841 53.4137 72.7743 56.3476 72.7743ZM66.6363 62.7643H64.6995V60.4121H62.3856V62.7643H60.9921V64.5541H62.3856V70.0129C62.3728 71.8602 63.7151 72.7679 65.4538 72.7168C66.1122 72.6976 66.566 72.5697 66.8153 72.4866L66.4254 70.6777C66.2975 70.7097 66.0355 70.7672 65.7478 70.7672C65.1661 70.7672 64.6995 70.5626 64.6995 69.6294V64.5541H66.6363V62.7643ZM75.4708 65.3595C75.1512 63.6976 73.8217 62.6365 71.5205 62.6365C69.1555 62.6365 67.5447 63.7998 67.5511 65.6152C67.5447 67.047 68.4268 67.993 70.3124 68.3829L71.9871 68.7345C72.8884 68.9327 73.3103 69.297 73.3103 69.8531C73.3103 70.5243 72.5816 71.0293 71.4822 71.0293C70.4211 71.0293 69.7308 70.569 69.5326 69.6869L67.2762 69.9043C67.5639 71.7068 69.0788 72.7743 71.4886 72.7743C73.9431 72.7743 75.6754 71.5023 75.6818 69.6422C75.6754 68.2423 74.7741 67.3858 72.9204 66.9831L71.2457 66.6251C70.2485 66.4014 69.8522 66.0562 69.8586 65.4873C69.8522 64.8226 70.5873 64.3623 71.5525 64.3623C72.62 64.3623 73.1825 64.944 73.3614 65.5896L75.4708 65.3595Z" fill="white"/>
<path d="M103.533 58.878H101.506L97.2876 74.5513H99.3139L103.533 58.878ZM115.251 63.0903H117.533C117.488 60.8787 115.602 59.3126 112.815 59.3126C110.067 59.3126 108.002 60.8595 108.009 63.1734C108.009 65.0527 109.344 66.1329 111.499 66.6891L112.988 67.0726C114.401 67.4305 115.334 67.8716 115.34 68.8879C115.334 70.0065 114.273 70.7544 112.726 70.7544C111.243 70.7544 110.092 70.0896 109.996 68.7153H107.663C107.759 71.3169 109.696 72.7807 112.745 72.7807C115.884 72.7807 117.705 71.2146 117.712 68.9071C117.705 66.6379 115.832 65.6024 113.864 65.1358L112.636 64.829C111.562 64.5733 110.399 64.1195 110.412 63.0264C110.418 62.042 111.3 61.3197 112.783 61.3197C114.196 61.3197 115.129 61.9781 115.251 63.0903ZM121.317 59.4916H119.004V72.5825H121.317V59.4916ZM125.802 72.7807C127.343 72.7807 128.263 72.0584 128.685 71.2338H128.762V72.5825H130.986V66.0115C130.986 63.4163 128.87 62.6365 126.997 62.6365C124.933 62.6365 123.348 63.557 122.836 65.3467L124.997 65.6535C125.227 64.9824 125.879 64.4071 127.01 64.4071C128.084 64.4071 128.672 64.9568 128.672 65.922V65.9604C128.672 66.6251 127.975 66.6571 126.243 66.8425C124.338 67.047 122.517 67.6159 122.517 69.8275C122.517 71.7579 123.929 72.7807 125.802 72.7807ZM126.403 71.0804C125.438 71.0804 124.747 70.6393 124.747 69.7892C124.747 68.9007 125.521 68.53 126.556 68.3829C127.164 68.2998 128.378 68.1464 128.679 67.9035V69.0605C128.679 70.1535 127.796 71.0804 126.403 71.0804ZM136.875 72.7743C139.343 72.7743 140.915 71.3105 141.081 69.2267H138.87C138.672 70.2814 137.911 70.8886 136.895 70.8886C135.45 70.8886 134.517 69.6805 134.517 67.6734C134.517 65.6919 135.469 64.503 136.895 64.503C138.007 64.503 138.691 65.2189 138.87 66.1649H141.081C140.922 64.0364 139.26 62.6365 136.863 62.6365C133.986 62.6365 132.171 64.7139 132.171 67.7118C132.171 70.6841 133.942 72.7743 136.875 72.7743ZM142.261 72.5825H144.575V69.2842L145.419 68.3829L148.423 72.5825H151.191L147.164 67.0023L150.967 62.7643H148.264L144.735 66.7082H144.575V59.4916H142.261V72.5825Z" fill="white"/>
<path d="M473.475 58.878H471.448L467.23 74.5513H469.256L473.475 58.878ZM479.044 72.8318C482.202 72.8382 484.088 70.3453 484.088 66.0498C484.088 61.78 482.189 59.3126 479.044 59.3126C475.9 59.3126 474.007 61.7736 474.001 66.0498C474.001 70.3389 475.887 72.8318 479.044 72.8318ZM479.044 70.8311C477.414 70.8311 476.392 69.1947 476.398 66.0498C476.404 62.9305 477.421 61.2878 479.044 61.2878C480.674 61.2878 481.691 62.9305 481.697 66.0498C481.697 69.1947 480.681 70.8311 479.044 70.8311ZM490.036 59.3126C487.198 59.2935 485.312 61.243 485.312 63.7998C485.319 66.2672 487.077 68.0506 489.371 68.0506C490.784 68.0506 492.011 67.3666 492.644 66.2416H492.734C492.727 69.0413 491.711 70.7097 489.902 70.7097C488.771 70.7097 488.01 70.0577 487.773 69.0158H485.44C485.709 71.1827 487.422 72.7615 489.902 72.7615C493.04 72.7615 495.041 70.1408 495.035 65.6344C495.028 60.8659 492.548 59.3254 490.036 59.3126ZM490.043 61.2302C491.442 61.2302 492.472 62.3936 492.472 63.7295C492.478 65.0846 491.398 66.248 490.017 66.248C488.624 66.248 487.62 65.1486 487.614 63.7487C487.614 62.3425 488.656 61.2302 490.043 61.2302Z" fill="white"/>
<defs>
<filter id="filter0_bi" x="57.1573" y="0.769651" width="25.8097" height="28.3444" filterUnits="userSpaceOnUse" color-interpolation-filters="sRGB">
<feFlood flood-opacity="0" result="BackgroundImageFix"/>
<feGaussianBlur in="BackgroundImage" stdDeviation="2.50971"/>
<feComposite in2="SourceAlpha" operator="in" result="effect1_backgroundBlur"/>
<feBlend mode="normal" in="SourceGraphic" in2="effect1_backgroundBlur" result="shape"/>
<feColorMatrix in="SourceAlpha" type="matrix" values="0 0 0 0 0 0 0 0 0 0 0 0 0 0 0 0 0 0 127 0" result="hardAlpha"/>
<feOffset/>
<feGaussianBlur stdDeviation="0.237412"/>
<feComposite in2="hardAlpha" operator="arithmetic" k2="-1" k3="1"/>
<feColorMatrix type="matrix" values="0 0 0 0 0 0 0 0 0 0 0 0 0 0 0 0 0 0 0.5 0"/>
<feBlend mode="normal" in2="shape" result="effect2_innerShadow"/>
</filter>
<linearGradient id="paint0_linear" x1="54.2125" y1="15.1249" x2="72.6518" y2="30.8552" gradientUnits="userSpaceOnUse">
<stop stop-color="#23A4AE"/>
<stop offset="0.593027" stop-color="#52C491"/>
<stop offset="1" stop-color="#6DD780"/>
</linearGradient>
</defs>
</svg>
