<svg width="440" height="365" viewBox="0 0 440 365" fill="none" xmlns="http://www.w3.org/2000/svg">
<rect width="440" height="365" rx="8" fill="#1ED760"/>
<path d="M46.5327 305.295H44.5064L40.2876 320.969H42.3139L46.5327 305.295ZM51.1363 319H53.5078V314.577H56.0135C59.0369 314.577 60.6605 312.761 60.6605 310.243C60.6605 307.744 59.0561 305.909 56.0454 305.909H51.1363V319ZM53.5078 312.627V307.891H55.6811C57.4581 307.891 58.2443 308.849 58.2443 310.243C58.2443 311.636 57.4581 312.627 55.6939 312.627H53.5078ZM61.8981 319H64.212V313.228C64.212 311.982 65.1516 311.099 66.4236 311.099C66.8135 311.099 67.2993 311.17 67.4975 311.234V309.105C67.2866 309.067 66.9222 309.041 66.6665 309.041C65.5415 309.041 64.6019 309.68 64.2439 310.818H64.1417V309.182H61.8981V319ZM72.1932 319.192C75.0696 319.192 76.8977 317.165 76.8977 314.129C76.8977 311.087 75.0696 309.054 72.1932 309.054C69.3167 309.054 67.4886 311.087 67.4886 314.129C67.4886 317.165 69.3167 319.192 72.1932 319.192ZM72.2059 317.338C70.6143 317.338 69.8345 315.919 69.8345 314.123C69.8345 312.327 70.6143 310.888 72.2059 310.888C73.772 310.888 74.5518 312.327 74.5518 314.123C74.5518 315.919 73.772 317.338 72.2059 317.338ZM78.1417 309.182V319.531C78.1417 320.355 77.7901 320.796 76.9016 320.796C76.7865 320.796 76.6971 320.79 76.5692 320.783V322.669C76.7354 322.682 76.876 322.682 77.0422 322.682C79.2091 322.682 80.4556 321.685 80.4556 319.562V309.182H78.1417ZM79.2922 307.788C80.0273 307.788 80.6282 307.226 80.6282 306.536C80.6282 305.839 80.0273 305.276 79.2922 305.276C78.5507 305.276 77.9499 305.839 77.9499 306.536C77.9499 307.226 78.5507 307.788 79.2922 307.788ZM86.4616 319.192C88.75 319.192 90.3224 318.073 90.7315 316.366L88.571 316.124C88.2578 316.955 87.4907 317.389 86.4936 317.389C84.9978 317.389 84.0071 316.405 83.9879 314.724H90.8274V314.014C90.8274 310.569 88.7563 309.054 86.3402 309.054C83.5277 309.054 81.6931 311.119 81.6931 314.148C81.6931 317.229 83.5021 319.192 86.4616 319.192ZM83.9943 313.164C84.0646 311.911 84.9914 310.857 86.3721 310.857C87.7017 310.857 88.5965 311.828 88.6093 313.164H83.9943ZM96.3476 319.192C98.8149 319.192 100.387 317.728 100.554 315.644H98.3419C98.1438 316.699 97.3831 317.306 96.3668 317.306C94.9222 317.306 93.9889 316.098 93.9889 314.091C93.9889 312.109 94.9414 310.92 96.3668 310.92C97.479 310.92 98.1629 311.636 98.3419 312.582H100.554C100.394 310.454 98.7318 309.054 96.3348 309.054C93.4584 309.054 91.6431 311.131 91.6431 314.129C91.6431 317.102 93.4137 319.192 96.3476 319.192ZM106.636 309.182H104.7V306.83H102.386V309.182H100.992V310.972H102.386V316.43C102.373 318.278 103.715 319.185 105.454 319.134C106.112 319.115 106.566 318.987 106.815 318.904L106.425 317.095C106.298 317.127 106.035 317.185 105.748 317.185C105.166 317.185 104.7 316.98 104.7 316.047V310.972H106.636V309.182ZM109.277 319.141C110.031 319.141 110.677 318.514 110.683 317.734C110.677 316.967 110.031 316.341 109.277 316.341C108.497 316.341 107.864 316.967 107.871 317.734C107.864 318.514 108.497 319.141 109.277 319.141ZM109.277 312.129C110.031 312.129 110.677 311.502 110.683 310.722C110.677 309.955 110.031 309.329 109.277 309.329C108.497 309.329 107.864 309.955 107.871 310.722C107.864 311.502 108.497 312.129 109.277 312.129ZM121.396 305.909H119.14L115.886 307.999V310.173L118.948 308.217H119.025V319H121.396V305.909ZM129.209 322.682C131.011 322.682 132.053 321.755 132.609 320.189L136.553 309.195L134.079 309.182L131.81 316.597H131.708L129.445 309.182H126.99L130.551 319.205L130.353 319.735C129.924 320.854 129.247 320.93 128.237 320.636L127.7 322.439C128.013 322.567 128.576 322.682 129.209 322.682ZM141.452 319.192C143.74 319.192 145.312 318.073 145.721 316.366L143.561 316.124C143.248 316.955 142.481 317.389 141.484 317.389C139.988 317.389 138.997 316.405 138.978 314.724H145.817V314.014C145.817 310.569 143.746 309.054 141.33 309.054C138.518 309.054 136.683 311.119 136.683 314.148C136.683 317.229 138.492 319.192 141.452 319.192ZM138.984 313.164C139.055 311.911 139.981 310.857 141.362 310.857C142.692 310.857 143.587 311.828 143.599 313.164H138.984ZM149.88 319.198C151.421 319.198 152.341 318.476 152.763 317.651H152.84V319H155.064V312.429C155.064 309.834 152.948 309.054 151.076 309.054C149.011 309.054 147.426 309.974 146.914 311.764L149.075 312.071C149.305 311.4 149.957 310.825 151.088 310.825C152.162 310.825 152.75 311.374 152.75 312.339V312.378C152.75 313.043 152.054 313.075 150.321 313.26C148.416 313.464 146.595 314.033 146.595 316.245C146.595 318.175 148.007 319.198 149.88 319.198ZM150.481 317.498C149.516 317.498 148.826 317.057 148.826 316.207C148.826 315.318 149.599 314.947 150.634 314.8C151.242 314.717 152.456 314.564 152.757 314.321V315.478C152.757 316.571 151.875 317.498 150.481 317.498ZM156.671 319H158.985V313.228C158.985 311.982 159.924 311.099 161.196 311.099C161.586 311.099 162.072 311.17 162.27 311.234V309.105C162.059 309.067 161.695 309.041 161.439 309.041C160.314 309.041 159.375 309.68 159.017 310.818H158.914V309.182H156.671V319Z" fill="white" fill-opacity="0.5"/>
<path d="M185.533 305.295H183.506L179.288 320.969H181.314L185.533 305.295ZM189.561 307.897H193.607V319H195.96V307.897H200.006V305.909H189.561V307.897ZM204.12 319.192C206.408 319.192 207.98 318.073 208.39 316.366L206.229 316.124C205.916 316.955 205.149 317.389 204.152 317.389C202.656 317.389 201.665 316.405 201.646 314.724H208.485V314.014C208.485 310.569 206.414 309.054 203.998 309.054C201.186 309.054 199.351 311.119 199.351 314.148C199.351 317.229 201.16 319.192 204.12 319.192ZM201.652 313.164C201.723 311.911 202.649 310.857 204.03 310.857C205.36 310.857 206.255 311.828 206.267 313.164H201.652ZM212.548 319.198C214.089 319.198 215.009 318.476 215.431 317.651H215.508V319H217.732V312.429C217.732 309.834 215.616 309.054 213.744 309.054C211.679 309.054 210.094 309.974 209.582 311.764L211.743 312.071C211.973 311.4 212.625 310.825 213.756 310.825C214.83 310.825 215.418 311.374 215.418 312.339V312.378C215.418 313.043 214.722 313.075 212.989 313.26C211.084 313.464 209.263 314.033 209.263 316.245C209.263 318.175 210.675 319.198 212.548 319.198ZM213.149 317.498C212.184 317.498 211.494 317.057 211.494 316.207C211.494 315.318 212.267 314.947 213.303 314.8C213.91 314.717 215.124 314.564 215.425 314.321V315.478C215.425 316.571 214.543 317.498 213.149 317.498ZM219.339 319H221.653V313.03C221.653 311.822 222.458 311.004 223.455 311.004C224.433 311.004 225.105 311.662 225.105 312.672V319H227.374V312.876C227.374 311.771 228.032 311.004 229.151 311.004C230.084 311.004 230.825 311.553 230.825 312.768V319H233.146V312.41C233.146 310.217 231.88 309.054 230.078 309.054C228.652 309.054 227.565 309.757 227.131 310.85H227.029C226.651 309.738 225.699 309.054 224.376 309.054C223.059 309.054 222.075 309.732 221.666 310.85H221.551V309.182H219.339V319ZM245.735 309.508H248.017C247.972 307.296 246.086 305.73 243.299 305.73C240.551 305.73 238.486 307.277 238.492 309.591C238.492 311.47 239.828 312.55 241.983 313.107L243.472 313.49C244.885 313.848 245.818 314.289 245.824 315.305C245.818 316.424 244.757 317.172 243.21 317.172C241.727 317.172 240.576 316.507 240.48 315.133H238.147C238.243 317.734 240.18 319.198 243.229 319.198C246.367 319.198 248.189 317.632 248.196 315.325C248.189 313.055 246.316 312.02 244.348 311.553L243.12 311.246C242.046 310.991 240.883 310.537 240.896 309.444C240.902 308.46 241.784 307.737 243.267 307.737C244.68 307.737 245.613 308.396 245.735 309.508ZM249.488 319H251.801V309.182H249.488V319ZM250.651 307.788C251.386 307.788 251.987 307.226 251.987 306.536C251.987 305.839 251.386 305.276 250.651 305.276C249.909 305.276 249.309 305.839 249.309 306.536C249.309 307.226 249.909 307.788 250.651 307.788ZM253.333 319H261.393V317.082H256.408V316.999L261.227 310.761V309.182H253.499V311.099H258.396V311.183L253.333 317.53V319ZM266.914 319.192C269.202 319.192 270.774 318.073 271.184 316.366L269.023 316.124C268.71 316.955 267.943 317.389 266.946 317.389C265.45 317.389 264.459 316.405 264.44 314.724H271.279V314.014C271.279 310.569 269.208 309.054 266.792 309.054C263.98 309.054 262.145 311.119 262.145 314.148C262.145 317.229 263.954 319.192 266.914 319.192ZM264.446 313.164C264.517 311.911 265.443 310.857 266.824 310.857C268.154 310.857 269.049 311.828 269.061 313.164H264.446ZM273.942 319.141C274.697 319.141 275.342 318.514 275.349 317.734C275.342 316.967 274.697 316.341 273.942 316.341C273.163 316.341 272.53 316.967 272.536 317.734C272.53 318.514 273.163 319.141 273.942 319.141ZM273.942 312.129C274.697 312.129 275.342 311.502 275.349 310.722C275.342 309.955 274.697 309.329 273.942 309.329C273.163 309.329 272.53 309.955 272.536 310.722C272.53 311.502 273.163 312.129 273.942 312.129ZM286.062 305.909H283.805L280.552 307.999V310.173L283.613 308.217H283.69V319H286.062V305.909ZM293.504 319.249C296.662 319.256 298.547 316.763 298.547 312.467C298.547 308.197 296.649 305.73 293.504 305.73C290.359 305.73 288.467 308.191 288.461 312.467C288.461 316.756 290.346 319.249 293.504 319.249ZM293.504 317.249C291.874 317.249 290.851 315.612 290.858 312.467C290.864 309.348 291.881 307.705 293.504 307.705C295.134 307.705 296.15 309.348 296.157 312.467C296.157 315.612 295.141 317.249 293.504 317.249Z" fill="white" fill-opacity="0.5"/>
<path fill-rule="evenodd" clip-rule="evenodd" d="M40 65C40 54.5067 48.5067 46 58.9997 46L58.9995 46.0009C69.4939 46.0009 77.9997 54.5074 77.9997 65C77.9997 75.4937 69.4939 83.9997 58.9997 83.9997C48.5067 83.9997 40 75.4937 40 65ZM65.7489 73.3934C66.3119 73.7382 67.0489 73.5601 67.3922 72.9985C67.7378 72.4369 67.5593 71.704 66.9963 71.3593C61.944 68.2795 55.6812 67.5624 48.38 69.227C47.7355 69.3731 47.3342 70.0123 47.4814 70.6538C47.6279 71.2954 48.2688 71.6972 48.9117 71.551C55.5835 70.0306 61.2487 70.6515 65.7489 73.3934ZM70.3297 68.3499C69.901 69.0869 68.989 69.3194 68.2926 68.8664C63.1863 65.5493 55.4026 64.5888 49.3629 66.526C48.5796 66.776 47.7523 66.3096 47.5145 65.4833C47.2786 64.6557 47.7203 63.7832 48.5022 63.5315C55.4012 61.3196 63.978 62.391 69.842 66.1986C70.5384 66.6516 70.7584 67.6152 70.3297 68.3501V68.3499ZM48.2345 60.808C54.0318 59.1183 64.0497 59.4368 70.1216 62.9001H70.1225C70.9571 63.3775 72.0415 63.1125 72.5364 62.3084C73.0336 61.5053 72.7591 60.4668 71.92 59.9896C64.9293 56.0043 53.8664 55.6295 47.2116 57.5695C46.28 57.8413 45.7549 58.7861 46.037 59.6805C46.3191 60.5744 47.3036 61.0791 48.2345 60.808Z" fill="white"/>
<path fill-rule="evenodd" clip-rule="evenodd" d="M91.4244 60.1406L95.732 64.4482L100.04 60.1406L100.452 60.5533L96.1447 64.8609L100.452 69.1684L100.04 69.5811L95.732 65.2736L91.4244 69.5811L91.0117 69.1684L95.3193 64.8609L91.0117 60.5533L91.4244 60.1406Z" fill="white" stroke="white" stroke-width="1.51999" stroke-linejoin="round"/>
<path d="M115.075 59.8153L125.033 53.9606C125.558 53.6535 125.884 53.0861 125.884 52.4786V49.1741C125.884 48.4998 125.339 47.9524 124.667 47.9524H114.935C114.264 47.9524 113.719 48.4998 113.719 49.1741V59.0409C113.719 59.7352 114.47 60.1691 115.075 59.8153ZM142.603 65.6433L130.444 58.5936C129.5 58.0462 128.337 58.0462 127.393 58.6003L115.228 65.71C114.297 66.2575 113.719 67.2588 113.719 68.347V80.4168C113.719 81.0911 114.264 81.6385 114.935 81.6385H124.661C125.332 81.6385 125.877 81.0911 125.877 80.4168V72.6195C125.877 72.0253 126.356 71.538 126.954 71.538H130.883C131.475 71.538 131.96 72.0187 131.96 72.6195V80.4235C131.96 81.0978 132.505 81.6452 133.176 81.6452H142.902C143.573 81.6452 144.119 81.0978 144.119 80.4235V68.2869C144.119 67.1987 143.54 66.1907 142.603 65.6433ZM142.902 47.9524H133.176C132.505 47.9524 131.96 48.4998 131.96 49.1741V52.4719C131.96 53.0861 132.286 53.6535 132.811 53.9606L142.769 59.7686C143.367 60.1157 144.119 59.6818 144.119 58.9875V49.1741C144.119 48.4998 143.573 47.9524 142.902 47.9524Z" fill="white"/>
<path d="M56.8111 145.016H61.375C61.2855 140.592 57.5142 137.46 51.9403 137.46C46.4432 137.46 42.3139 140.554 42.3267 145.182C42.3267 148.94 44.9986 151.101 49.3068 152.213L52.2855 152.98C55.1108 153.696 56.9773 154.578 56.9901 156.611C56.9773 158.848 54.8551 160.344 51.7614 160.344C48.7955 160.344 46.4943 159.014 46.3026 156.266H41.6364C41.8281 161.469 45.7017 164.396 51.7997 164.396C58.0767 164.396 61.7202 161.264 61.733 156.649C61.7202 152.111 57.9744 150.04 54.0369 149.107L51.5824 148.493C49.4347 147.982 47.108 147.074 47.1335 144.888C47.1463 142.919 48.9105 141.474 51.8764 141.474C54.7017 141.474 56.5682 142.791 56.8111 145.016ZM64.3167 171.364H68.9446V160.906H69.1363C69.865 162.338 71.3863 164.345 74.7613 164.345C79.3892 164.345 82.8537 160.676 82.8537 154.207C82.8537 147.662 79.2869 144.108 74.7486 144.108C71.2841 144.108 69.8395 146.192 69.1363 147.611H68.8679V144.364H64.3167V171.364ZM68.8551 154.182C68.8551 150.372 70.4915 147.905 73.4702 147.905C76.5511 147.905 78.1363 150.526 78.1363 154.182C78.1363 157.864 76.5256 160.548 73.4702 160.548C70.517 160.548 68.8551 157.991 68.8551 154.182ZM93.9421 164.384C99.6949 164.384 103.351 160.331 103.351 154.259C103.351 148.173 99.6949 144.108 93.9421 144.108C88.1892 144.108 84.533 148.173 84.533 154.259C84.533 160.331 88.1892 164.384 93.9421 164.384ZM93.9677 160.676C90.7844 160.676 89.2248 157.838 89.2248 154.246C89.2248 150.653 90.7844 147.777 93.9677 147.777C97.0998 147.777 98.6594 150.653 98.6594 154.246C98.6594 157.838 97.0998 160.676 93.9677 160.676ZM115.644 144.364H111.771V139.659H107.143V144.364H104.356V147.943H107.143V158.861C107.118 162.555 109.802 164.371 113.279 164.268C114.596 164.23 115.504 163.974 116.002 163.808L115.223 160.19C114.967 160.254 114.443 160.369 113.868 160.369C112.704 160.369 111.771 159.96 111.771 158.094V147.943H115.644V144.364ZM118.075 164H122.703V144.364H118.075V164ZM120.402 141.577C121.872 141.577 123.073 140.452 123.073 139.071C123.073 137.678 121.872 136.553 120.402 136.553C118.919 136.553 117.717 137.678 117.717 139.071C117.717 140.452 118.919 141.577 120.402 141.577ZM135.968 144.364H131.889V142.817C131.889 141.283 132.529 140.426 134.255 140.426C134.983 140.426 135.597 140.592 135.98 140.707L136.914 137.128C136.313 136.923 134.996 136.591 133.398 136.591C129.985 136.591 127.262 138.547 127.262 142.51V144.364H124.36V147.943H127.262V164H131.889V147.943H135.968V144.364ZM141.028 171.364C144.633 171.364 146.717 169.51 147.829 166.378L155.717 144.389L150.77 144.364L146.231 159.193H146.027L141.501 144.364H136.592L143.713 164.409L143.317 165.47C142.46 167.707 141.105 167.861 139.085 167.273L138.011 170.878C138.638 171.134 139.763 171.364 141.028 171.364Z" fill="white" fill-opacity="0.5"/>
<path d="M56.8111 189.016H61.375C61.2855 184.592 57.5142 181.46 51.9403 181.46C46.4432 181.46 42.3139 184.554 42.3267 189.182C42.3267 192.94 44.9986 195.101 49.3068 196.213L52.2855 196.98C55.1108 197.696 56.9773 198.578 56.9901 200.611C56.9773 202.848 54.8551 204.344 51.7614 204.344C48.7955 204.344 46.4943 203.014 46.3026 200.266H41.6364C41.8281 205.469 45.7017 208.396 51.7997 208.396C58.0767 208.396 61.7202 205.264 61.733 200.649C61.7202 196.111 57.9744 194.04 54.0369 193.107L51.5824 192.493C49.4347 191.982 47.108 191.074 47.1335 188.888C47.1463 186.919 48.9105 185.474 51.8764 185.474C54.7017 185.474 56.5682 186.791 56.8111 189.016ZM64.3167 215.364H68.9446V204.906H69.1363C69.865 206.338 71.3863 208.345 74.7613 208.345C79.3892 208.345 82.8537 204.676 82.8537 198.207C82.8537 191.662 79.2869 188.108 74.7486 188.108C71.2841 188.108 69.8395 190.192 69.1363 191.611H68.8679V188.364H64.3167V215.364ZM68.8551 198.182C68.8551 194.372 70.4915 191.905 73.4702 191.905C76.5511 191.905 78.1363 194.526 78.1363 198.182C78.1363 201.864 76.5256 204.548 73.4702 204.548C70.517 204.548 68.8551 201.991 68.8551 198.182ZM93.9421 208.384C99.6949 208.384 103.351 204.331 103.351 198.259C103.351 192.173 99.6949 188.108 93.9421 188.108C88.1892 188.108 84.533 192.173 84.533 198.259C84.533 204.331 88.1892 208.384 93.9421 208.384ZM93.9677 204.676C90.7844 204.676 89.2248 201.838 89.2248 198.246C89.2248 194.653 90.7844 191.777 93.9677 191.777C97.0998 191.777 98.6594 194.653 98.6594 198.246C98.6594 201.838 97.0998 204.676 93.9677 204.676ZM115.644 188.364H111.771V183.659H107.143V188.364H104.356V191.943H107.143V202.861C107.118 206.555 109.802 208.371 113.279 208.268C114.596 208.23 115.504 207.974 116.002 207.808L115.223 204.19C114.967 204.254 114.443 204.369 113.868 204.369C112.704 204.369 111.771 203.96 111.771 202.094V191.943H115.644V188.364ZM118.075 208H122.703V188.364H118.075V208ZM120.402 185.577C121.872 185.577 123.073 184.452 123.073 183.071C123.073 181.678 121.872 180.553 120.402 180.553C118.919 180.553 117.717 181.678 117.717 183.071C117.717 184.452 118.919 185.577 120.402 185.577ZM135.968 188.364H131.889V186.817C131.889 185.283 132.529 184.426 134.255 184.426C134.983 184.426 135.597 184.592 135.98 184.707L136.914 181.128C136.313 180.923 134.996 180.591 133.398 180.591C129.985 180.591 127.262 182.547 127.262 186.51V188.364H124.36V191.943H127.262V208H131.889V191.943H135.968V188.364ZM141.028 215.364C144.633 215.364 146.717 213.51 147.829 210.378L155.717 188.389L150.77 188.364L146.231 203.193H146.027L141.501 188.364H136.592L143.713 208.409L143.317 209.47C142.46 211.707 141.105 211.861 139.085 211.273L138.011 214.878C138.638 215.134 139.763 215.364 141.028 215.364ZM165.183 208H169.926V196.878H182.058V208H186.814V181.818H182.058V192.902H169.926V181.818H165.183V208ZM198.893 208.384C204.646 208.384 208.302 204.331 208.302 198.259C208.302 192.173 204.646 188.108 198.893 188.108C193.14 188.108 189.484 192.173 189.484 198.259C189.484 204.331 193.14 208.384 198.893 208.384ZM198.919 204.676C195.736 204.676 194.176 201.838 194.176 198.246C194.176 194.653 195.736 191.777 198.919 191.777C202.051 191.777 203.611 194.653 203.611 198.246C203.611 201.838 202.051 204.676 198.919 204.676ZM210.79 208H215.418V196.06C215.418 193.643 217.029 192.007 219.023 192.007C220.979 192.007 222.322 193.324 222.322 195.344V208H226.86V195.753C226.86 193.541 228.177 192.007 230.414 192.007C232.28 192.007 233.763 193.107 233.763 195.536V208H238.404V194.82C238.404 190.435 235.873 188.108 232.268 188.108C229.417 188.108 227.243 189.514 226.374 191.7H226.17C225.415 189.476 223.511 188.108 220.864 188.108C218.231 188.108 216.262 189.463 215.444 191.7H215.214V188.364H210.79V208ZM250.352 208.384C254.929 208.384 258.074 206.146 258.892 202.733L254.571 202.247C253.944 203.909 252.41 204.778 250.416 204.778C247.425 204.778 245.443 202.81 245.405 199.447H259.084V198.028C259.084 191.138 254.942 188.108 250.109 188.108C244.484 188.108 240.815 192.237 240.815 198.297C240.815 204.459 244.433 208.384 250.352 208.384ZM245.417 196.328C245.558 193.822 247.412 191.713 250.173 191.713C252.832 191.713 254.622 193.656 254.648 196.328H245.417Z" fill="white"/>
</svg>
