<?xml version="1.0" encoding="UTF-8" standalone="no"?>
<svg width="65px" height="78px" viewBox="0 0 65 78" version="1.1" xmlns="http://www.w3.org/2000/svg" xmlns:xlink="http://www.w3.org/1999/xlink" xmlns:sketch="http://www.bohemiancoding.com/sketch/ns">
    <!-- Generator: Sketch 3.3.3 (12081) - http://www.bohemiancoding.com/sketch -->
    <title>Swipe</title>
    <desc>Created with Sketch.</desc>
    <defs></defs>
    <g id="Page-1" stroke="none" stroke-width="1" fill="none" fill-rule="evenodd" sketch:type="MSPage">
        <g id="Swipe" sketch:type="MSLayerGroup" transform="translate(1.000000, 1.000000)">
            <g id="Path-69-+-Path-66-+-Path-67-+-Path-70-+-Path-70-Copy-+-Path-67-+-Path-70-+-Path-70-Copy-2" sketch:type="MSShapeGroup">
                <path id="Path-69" stroke="#979797" d=""></path>
                <g id="Path-66-+-Path-67-+-Path-70-+-Path-70-Copy-+-Path-67-+-Path-70-+-Path-70-Copy-2" stroke="#FFFFFF" stroke-width="2" stroke-linecap="round" stroke-linejoin="round">
                    <path d="M22.9946838,41.6962891 C22.9946833,29.8344636 22.994683,4.25537109 22.994683,4.25537109 C22.994683,4.25537109 23.8657771,0.619140625 27.6753474,0.619140625 C31.4849177,0.619140625 32.5360895,4.25537109 32.5360895,4.25537109 L32.5360904,32.6216965 C32.5360904,32.6216965 33.3593745,26.743742 39.0493178,26.7705078 C44.07956,26.7941704 43.6899963,36.2411156 43.6899963,36.2411156 C43.6899963,36.2411156 43.3814035,29.8198242 49.516603,29.8198242 C55.6518025,29.8198242 54.1851134,40.712307 54.1851134,40.712307 C54.1851134,40.712307 52.9707046,34.7817383 59.0375991,34.7817383 C65.4672866,34.7817383 61.5483413,49.5688477 57.2089858,62.9726562 C52.8696303,76.3764648 47.489431,75.4785156 39.0493178,75.4785156 C17.5532241,75.4785156 13.2939997,56.0800781 13.2939997,56.0800781 L6.92095286,38.3383789 C6.92095286,38.3383789 3.62749583,32.4979324 8.72368724,30.5581055 C13.8198786,28.6182785 15.5977104,33.8671875 15.5977104,33.8671875 C15.5977104,33.8671875 22.9946842,53.5581145 22.9946838,41.6962891 Z" id="Path-66"></path>
                    <g id="Path-67-+-Path-70-+-Path-70-Copy" transform="translate(41.000000, 2.000000)">
                        <path d="M0.154429851,5.80888672 L13.9419922,5.80888672" id="Path-67"></path>
                        <path d="M14.5,5.85998535 L8.94000244,11" id="Path-70"></path>
                        <path d="M14.5,0.719970703 L8.94000244,5.85998535" id="Path-70-Copy" transform="translate(11.720001, 3.289978) scale(1, -1) translate(-11.720001, -3.289978) "></path>
                    </g>
                    <g id="Path-67-+-Path-70-+-Path-70-Copy-2" transform="translate(7.500000, 7.500000) scale(-1, 1) translate(-7.500000, -7.500000) translate(0.000000, 2.000000)">
                        <path d="M0.154429851,5.80888672 L13.9419922,5.80888672" id="Path-67"></path>
                        <path d="M14.5,5.85998535 L8.94000244,11" id="Path-70"></path>
                        <path d="M14.5,0.719970703 L8.94000244,5.85998535" id="Path-70-Copy" transform="translate(11.720001, 3.289978) scale(1, -1) translate(-11.720001, -3.289978) "></path>
                    </g>
                </g>
            </g>
        </g>
    </g>
</svg>