<svg width="40" height="40" viewBox="0 0 40 40" fill="none" xmlns="http://www.w3.org/2000/svg">
<path fill-rule="evenodd" clip-rule="evenodd" d="M17.598 8.8L19.9116 2.62889L22.0994 8.8H23.7466L26.3996 0H24.6645L22.8161 6.39327L20.6032 0H19.2578L16.9442 6.28219L15.3599 0H13.5996L15.9383 8.8H17.598ZM7.51239 7.57997L10.3098 13.6616L9.14128 14.8353L1.18273 10.1496L2.4221 8.90477L8.04355 12.3102L5.16643 6.14846L6.11366 5.19709L12.2574 8.23793L8.97307 2.32519L10.1947 1.09819L14.6388 9.31378L13.4791 10.4785L7.51239 7.57997ZM7.51239 32.2911L10.3098 26.2095L9.14128 25.0358L1.18273 29.7215L2.4221 30.9663L8.04355 27.5609L5.16643 33.7226L6.11366 34.674L12.2574 31.6332L8.97307 37.5459L10.1947 38.7729L14.6388 30.5573L13.4791 29.3926L7.51239 32.2911ZM19.9116 37.3711L17.598 31.2H15.9383L13.5996 40H15.3599L16.9442 33.7178L19.2578 40H20.6032L22.8161 33.6067L24.6645 40H26.3996L23.7466 31.2H22.0994L19.9116 37.3711ZM8.8 22.4017L2.62889 20.0882L8.8 17.9003V16.2532L0 13.6001V15.3353L6.39327 17.1836L0 19.3966V20.742L6.28219 23.0555L0 24.6398V26.4001L8.8 24.0614V22.4017ZM32.4876 7.57997L29.6902 13.6616L30.8587 14.8353L38.8173 10.1496L37.5779 8.90477L31.9564 12.3102L34.8336 6.14846L33.8863 5.19709L27.7426 8.23793L31.0269 2.32519L29.8052 1.09819L25.3612 9.31378L26.5209 10.4785L32.4876 7.57997ZM29.6902 26.2095L32.4876 32.2911L26.5209 29.3926L25.3612 30.5573L29.8052 38.7729L31.0269 37.5459L27.7426 31.6332L33.8863 34.674L34.8336 33.7226L31.9564 27.5609L37.5779 30.9663L38.8173 29.7215L30.8587 25.0358L29.6902 26.2095ZM37.3711 20.0884L31.2 22.402V24.0617L40 26.4004V24.6401L33.7178 23.0558L40 20.7422V19.3969L33.6067 17.1839L40 15.3356V13.6004L31.2 16.2534V17.9006L37.3711 20.0884Z" fill="white"/>
</svg>
