<svg width="440" height="365" viewBox="0 0 440 365" fill="none" xmlns="http://www.w3.org/2000/svg">
<rect width="440" height="365" rx="8" fill="#1A3749"/>
<path d="M46.5327 302.295H44.5064L40.2876 317.968H42.3139L46.5327 302.295ZM51.1363 316H53.5078V311.576H56.0135C59.0369 311.576 60.6605 309.761 60.6605 307.242C60.6605 304.743 59.0561 302.909 56.0454 302.909H51.1363V316ZM53.5078 309.627V304.89H55.6811C57.4581 304.89 58.2443 305.849 58.2443 307.242C58.2443 308.636 57.4581 309.627 55.6939 309.627H53.5078ZM61.8981 316H64.212V310.227C64.212 308.981 65.1516 308.099 66.4236 308.099C66.8135 308.099 67.2993 308.169 67.4975 308.233V306.105C67.2866 306.066 66.9222 306.041 66.6665 306.041C65.5415 306.041 64.6019 306.68 64.2439 307.818H64.1417V306.181H61.8981V316ZM72.1932 316.191C75.0696 316.191 76.8977 314.165 76.8977 311.129C76.8977 308.086 75.0696 306.053 72.1932 306.053C69.3167 306.053 67.4886 308.086 67.4886 311.129C67.4886 314.165 69.3167 316.191 72.1932 316.191ZM72.2059 314.338C70.6143 314.338 69.8345 312.919 69.8345 311.122C69.8345 309.326 70.6143 307.888 72.2059 307.888C73.772 307.888 74.5518 309.326 74.5518 311.122C74.5518 312.919 73.772 314.338 72.2059 314.338ZM78.1417 306.181V316.53C78.1417 317.355 77.7901 317.796 76.9016 317.796C76.7865 317.796 76.6971 317.789 76.5692 317.783V319.669C76.7354 319.681 76.876 319.681 77.0422 319.681C79.2091 319.681 80.4556 318.684 80.4556 316.562V306.181H78.1417ZM79.2922 304.788C80.0273 304.788 80.6282 304.225 80.6282 303.535C80.6282 302.838 80.0273 302.276 79.2922 302.276C78.5507 302.276 77.9499 302.838 77.9499 303.535C77.9499 304.225 78.5507 304.788 79.2922 304.788ZM86.4616 316.191C88.75 316.191 90.3224 315.073 90.7315 313.366L88.571 313.123C88.2578 313.954 87.4907 314.389 86.4936 314.389C84.9978 314.389 84.0071 313.404 83.9879 311.723H90.8274V311.014C90.8274 307.568 88.7563 306.053 86.3402 306.053C83.5277 306.053 81.6931 308.118 81.6931 311.148C81.6931 314.229 83.5021 316.191 86.4616 316.191ZM83.9943 310.164C84.0646 308.911 84.9914 307.856 86.3721 307.856C87.7017 307.856 88.5965 308.828 88.6093 310.164H83.9943ZM96.3476 316.191C98.8149 316.191 100.387 314.727 100.554 312.644H98.3419C98.1438 313.698 97.3831 314.306 96.3668 314.306C94.9222 314.306 93.9889 313.098 93.9889 311.09C93.9889 309.109 94.9414 307.92 96.3668 307.92C97.479 307.92 98.1629 308.636 98.3419 309.582H100.554C100.394 307.453 98.7318 306.053 96.3348 306.053C93.4584 306.053 91.6431 308.131 91.6431 311.129C91.6431 314.101 93.4137 316.191 96.3476 316.191ZM106.636 306.181H104.7V303.829H102.386V306.181H100.992V307.971H102.386V313.43C102.373 315.277 103.715 316.185 105.454 316.134C106.112 316.115 106.566 315.987 106.815 315.904L106.425 314.095C106.298 314.127 106.035 314.184 105.748 314.184C105.166 314.184 104.7 313.98 104.7 313.046V307.971H106.636V306.181ZM109.277 316.14C110.031 316.14 110.677 315.514 110.683 314.734C110.677 313.967 110.031 313.34 109.277 313.34C108.497 313.34 107.864 313.967 107.871 314.734C107.864 315.514 108.497 316.14 109.277 316.14ZM109.277 309.128C110.031 309.128 110.677 308.502 110.683 307.722C110.677 306.955 110.031 306.328 109.277 306.328C108.497 306.328 107.864 306.955 107.871 307.722C107.864 308.502 108.497 309.128 109.277 309.128ZM121.396 302.909H119.14L115.886 304.999V307.172L118.948 305.216H119.025V316H121.396V302.909ZM129.209 319.681C131.011 319.681 132.053 318.754 132.609 317.188L136.553 306.194L134.079 306.181L131.81 313.596H131.708L129.445 306.181H126.99L130.551 316.204L130.353 316.735C129.924 317.853 129.247 317.93 128.237 317.636L127.7 319.438C128.013 319.566 128.576 319.681 129.209 319.681ZM141.452 316.191C143.74 316.191 145.312 315.073 145.721 313.366L143.561 313.123C143.248 313.954 142.481 314.389 141.484 314.389C139.988 314.389 138.997 313.404 138.978 311.723H145.817V311.014C145.817 307.568 143.746 306.053 141.33 306.053C138.518 306.053 136.683 308.118 136.683 311.148C136.683 314.229 138.492 316.191 141.452 316.191ZM138.984 310.164C139.055 308.911 139.981 307.856 141.362 307.856C142.692 307.856 143.587 308.828 143.599 310.164H138.984ZM149.88 316.198C151.421 316.198 152.341 315.475 152.763 314.651H152.84V316H155.064V309.428C155.064 306.833 152.948 306.053 151.076 306.053C149.011 306.053 147.426 306.974 146.914 308.764L149.075 309.071C149.305 308.399 149.957 307.824 151.088 307.824C152.162 307.824 152.75 308.374 152.75 309.339V309.377C152.75 310.042 152.054 310.074 150.321 310.259C148.416 310.464 146.595 311.033 146.595 313.245C146.595 315.175 148.007 316.198 149.88 316.198ZM150.481 314.497C149.516 314.497 148.826 314.056 148.826 313.206C148.826 312.318 149.599 311.947 150.634 311.8C151.242 311.717 152.456 311.563 152.757 311.321V312.477C152.757 313.571 151.875 314.497 150.481 314.497ZM156.671 316H158.985V310.227C158.985 308.981 159.924 308.099 161.196 308.099C161.586 308.099 162.072 308.169 162.27 308.233V306.105C162.059 306.066 161.695 306.041 161.439 306.041C160.314 306.041 159.375 306.68 159.017 307.818H158.914V306.181H156.671V316Z" fill="white" fill-opacity="0.5"/>
<path d="M185.533 302.295H183.506L179.288 317.968H181.314L185.533 302.295ZM189.561 304.897H193.607V316H195.96V304.897H200.006V302.909H189.561V304.897ZM204.12 316.191C206.408 316.191 207.98 315.073 208.39 313.366L206.229 313.123C205.916 313.954 205.149 314.389 204.152 314.389C202.656 314.389 201.665 313.404 201.646 311.723H208.485V311.014C208.485 307.568 206.414 306.053 203.998 306.053C201.186 306.053 199.351 308.118 199.351 311.148C199.351 314.229 201.16 316.191 204.12 316.191ZM201.652 310.164C201.723 308.911 202.649 307.856 204.03 307.856C205.36 307.856 206.255 308.828 206.267 310.164H201.652ZM212.548 316.198C214.089 316.198 215.009 315.475 215.431 314.651H215.508V316H217.732V309.428C217.732 306.833 215.616 306.053 213.744 306.053C211.679 306.053 210.094 306.974 209.582 308.764L211.743 309.071C211.973 308.399 212.625 307.824 213.756 307.824C214.83 307.824 215.418 308.374 215.418 309.339V309.377C215.418 310.042 214.722 310.074 212.989 310.259C211.084 310.464 209.263 311.033 209.263 313.245C209.263 315.175 210.675 316.198 212.548 316.198ZM213.149 314.497C212.184 314.497 211.494 314.056 211.494 313.206C211.494 312.318 212.267 311.947 213.303 311.8C213.91 311.717 215.124 311.563 215.425 311.321V312.477C215.425 313.571 214.543 314.497 213.149 314.497ZM219.339 316H221.653V310.029C221.653 308.821 222.458 308.003 223.455 308.003C224.433 308.003 225.105 308.661 225.105 309.671V316H227.374V309.876C227.374 308.77 228.032 308.003 229.151 308.003C230.084 308.003 230.825 308.553 230.825 309.767V316H233.146V309.409C233.146 307.217 231.88 306.053 230.078 306.053C228.652 306.053 227.565 306.757 227.131 307.85H227.029C226.651 306.737 225.699 306.053 224.376 306.053C223.059 306.053 222.075 306.731 221.666 307.85H221.551V306.181H219.339V316ZM245.735 306.507H248.017C247.972 304.296 246.086 302.73 243.299 302.73C240.551 302.73 238.486 304.276 238.492 306.59C238.492 308.47 239.828 309.55 241.983 310.106L243.472 310.49C244.885 310.848 245.818 311.289 245.824 312.305C245.818 313.424 244.757 314.171 243.21 314.171C241.727 314.171 240.576 313.507 240.48 312.132H238.147C238.243 314.734 240.18 316.198 243.229 316.198C246.367 316.198 248.189 314.632 248.196 312.324C248.189 310.055 246.316 309.019 244.348 308.553L243.12 308.246C242.046 307.99 240.883 307.536 240.896 306.443C240.902 305.459 241.784 304.737 243.267 304.737C244.68 304.737 245.613 305.395 245.735 306.507ZM249.488 316H251.801V306.181H249.488V316ZM250.651 304.788C251.386 304.788 251.987 304.225 251.987 303.535C251.987 302.838 251.386 302.276 250.651 302.276C249.909 302.276 249.309 302.838 249.309 303.535C249.309 304.225 249.909 304.788 250.651 304.788ZM253.333 316H261.393V314.082H256.408V313.999L261.227 307.76V306.181H253.499V308.099H258.396V308.182L253.333 314.529V316ZM266.914 316.191C269.202 316.191 270.774 315.073 271.184 313.366L269.023 313.123C268.71 313.954 267.943 314.389 266.946 314.389C265.45 314.389 264.459 313.404 264.44 311.723H271.279V311.014C271.279 307.568 269.208 306.053 266.792 306.053C263.98 306.053 262.145 308.118 262.145 311.148C262.145 314.229 263.954 316.191 266.914 316.191ZM264.446 310.164C264.517 308.911 265.443 307.856 266.824 307.856C268.154 307.856 269.049 308.828 269.061 310.164H264.446ZM273.942 316.14C274.697 316.14 275.342 315.514 275.349 314.734C275.342 313.967 274.697 313.34 273.942 313.34C273.163 313.34 272.53 313.967 272.536 314.734C272.53 315.514 273.163 316.14 273.942 316.14ZM273.942 309.128C274.697 309.128 275.342 308.502 275.349 307.722C275.342 306.955 274.697 306.328 273.942 306.328C273.163 306.328 272.53 306.955 272.536 307.722C272.53 308.502 273.163 309.128 273.942 309.128ZM286.062 302.909H283.805L280.552 304.999V307.172L283.613 305.216H283.69V316H286.062V302.909ZM293.504 316.249C296.662 316.255 298.547 313.762 298.547 309.467C298.547 305.197 296.649 302.73 293.504 302.73C290.359 302.73 288.467 305.191 288.461 309.467C288.461 313.756 290.346 316.249 293.504 316.249ZM293.504 314.248C291.874 314.248 290.851 312.612 290.858 309.467C290.864 306.348 291.881 304.705 293.504 304.705C295.134 304.705 296.15 306.348 296.157 309.467C296.157 312.612 295.141 314.248 293.504 314.248Z" fill="white" fill-opacity="0.5"/>
<path fill-rule="evenodd" clip-rule="evenodd" d="M141.316 70.8222C140.456 70.8222 139.667 70.659 138.95 70.3328C138.233 70.0066 137.62 69.5332 137.11 68.9126C136.6 68.292 136.202 67.5202 135.915 66.5973C135.628 65.6743 135.485 64.6161 135.485 63.4226C135.485 61.704 135.704 60.1526 136.142 58.7681C136.58 57.3837 137.17 56.2022 137.911 55.2235C138.651 54.2449 139.508 53.493 140.48 52.9679C141.452 52.4427 142.472 52.1802 143.539 52.1802C144.432 52.1802 145.232 52.3512 145.941 52.6934C146.65 53.0355 147.248 53.5208 147.734 54.1494C148.22 54.778 148.59 55.5378 148.845 56.4289C149.1 57.3201 149.228 58.3066 149.228 59.3887C149.228 60.98 149.033 62.4679 148.642 63.8523C148.252 65.2367 147.706 66.4461 147.005 67.4804C146.304 68.5148 145.471 69.3303 144.507 69.927C143.543 70.5238 142.48 70.8222 141.316 70.8222ZM134.237 70.5107H122.023L122.071 70.1288L126.947 61.3449C127.425 60.4696 127.911 59.6541 128.405 58.8982C128.899 58.1424 129.401 57.4223 129.911 56.7381H124.772L125.298 52.5132H137.057L136.986 53.0144L131.417 62.8248C131.321 62.9998 131.198 63.2067 131.046 63.4454C130.895 63.684 130.731 63.9625 130.556 64.2808L129.289 66.4052C129.783 66.3733 130.178 66.3455 130.473 66.3216C130.767 66.2977 130.955 66.2858 131.034 66.2858H134.787L134.237 70.5107ZM143.015 56.7153C143.843 56.7153 144.258 57.6462 144.258 59.508C144.258 60.4151 144.194 61.2784 144.066 62.0979C143.939 62.9174 143.76 63.6374 143.529 64.2581C143.297 64.8787 143.031 65.372 142.728 65.738C142.425 66.104 142.098 66.2869 141.748 66.2869C140.887 66.2869 140.457 65.3083 140.457 63.351C140.457 62.5076 140.525 61.6881 140.66 60.8925C140.796 60.0968 140.975 59.3887 141.198 58.7681C141.421 58.1475 141.688 57.6502 141.999 57.2763C142.31 56.9023 142.648 56.7153 143.015 56.7153ZM148.227 70.5107L150.426 52.5132H154.561C155.772 52.5132 156.823 52.6922 157.716 53.0502C158.608 53.4083 159.349 53.9056 159.938 54.5421C160.528 55.1786 160.966 55.9424 161.253 56.8335C161.54 57.7247 161.683 58.6953 161.683 59.7456C161.683 62.3712 161.125 64.6309 160.01 66.5245C159.182 67.9248 158.19 68.9393 157.034 69.5678C155.879 70.1964 154.433 70.5107 152.696 70.5107H148.227ZM154.873 65.6914C154.475 65.9937 154.037 66.1529 153.559 66.1688L154.682 57.0029H154.826C155.447 57.0029 155.925 57.2894 156.26 57.8622C156.594 58.4351 156.762 59.2705 156.762 60.3685C156.762 61.196 156.686 61.9598 156.534 62.66C156.383 63.3601 156.168 63.9648 155.889 64.474C155.61 64.9833 155.272 65.389 154.873 65.6914ZM165.348 70.5107H160.852L163.051 52.5132H167.831L165.779 69.3085L165.348 70.5107ZM165.779 69.3085L171.801 52.5132H177.681L179.211 70.5107H174.191V68.2192H170.941L170.295 70.5107H165.632L165.779 69.3085ZM174.122 64.3784L174.06 56.9053C174.06 56.9053 173.975 57.4642 173.919 57.6711C173.863 57.878 173.819 58.0609 173.787 58.2201L172.067 64.3784H174.122ZM185.837 70.8222C186.697 70.8222 187.677 70.6073 188.777 70.1777L189.709 64.9742C188.769 65.7539 187.885 66.1438 187.056 66.1438C186.227 66.1438 185.598 65.8533 185.168 65.2725C184.738 64.6917 184.522 63.8443 184.522 62.7304C184.522 61.8552 184.614 61.0476 184.797 60.3077C184.981 59.5677 185.239 58.9273 185.574 58.3862C185.909 57.8452 186.307 57.4275 186.769 57.1331C187.231 56.8387 187.741 56.6915 188.299 56.6915C189.064 56.6915 189.757 57.0495 190.378 57.7656L191 52.6337C190.219 52.3313 189.43 52.1802 188.633 52.1802C187.327 52.1802 186.12 52.4626 185.012 53.0275C183.905 53.5924 182.945 54.3762 182.132 55.3787C181.32 56.3812 180.686 57.5746 180.232 58.9591C179.778 60.3435 179.551 61.8552 179.551 63.4943C179.551 64.5923 179.698 65.5908 179.993 66.4899C180.288 67.3889 180.706 68.1607 181.248 68.8052C181.79 69.4497 182.447 69.9469 183.22 70.297C183.993 70.6471 184.865 70.8222 185.837 70.8222Z" fill="white"/>
<path fill-rule="evenodd" clip-rule="evenodd" d="M45.4493 68.6401C43.9774 68.5854 42.7731 68.2087 41.8314 67.509C41.6517 67.3753 41.2235 66.9746 41.0798 66.8056C40.698 66.3565 40.4384 65.9194 40.2652 65.4345C39.7324 63.9418 40.0066 61.9831 41.0496 59.8334C41.9426 57.993 43.3205 56.1677 45.7246 53.6396C46.0787 53.2676 47.1333 52.1797 47.1401 52.1797C47.1426 52.1797 47.0851 52.2728 47.0128 52.3862C46.3877 53.3654 45.8529 54.5189 45.5615 55.5175C45.0934 57.1198 45.1499 58.4949 45.7268 59.5611C46.1248 60.2957 46.8071 60.9319 47.5743 61.2836C48.9175 61.8992 50.884 61.9501 53.2855 61.4326C53.4508 61.3968 61.6438 59.3626 71.4923 56.9121C81.3408 54.4614 89.4 52.4579 89.4012 52.4595C89.404 52.4616 66.5204 61.62 54.6412 66.3713C52.7599 67.1236 52.2569 67.3136 51.3724 67.604C49.1116 68.3466 47.0864 68.7009 45.4493 68.6401Z" fill="white"/>
<path fill-rule="evenodd" clip-rule="evenodd" d="M102.148 57.4617L105.469 60.7824L108.79 57.4617L109.108 57.7798L105.787 61.1006L109.108 64.4213L108.79 64.7395L105.469 61.4187L102.148 64.7395L101.83 64.4213L105.151 61.1006L101.83 57.7798L102.148 57.4617Z" stroke="white" stroke-width="0.745679"/>
<path d="M64.098 134.818H59.3807V152.664H59.1506L46.8267 134.818H42.5824V161H47.3253V143.166H47.5426L59.8793 161H64.098V134.818ZM67.6214 161H72.2493V141.363H67.6214V161ZM69.9481 138.576C71.4183 138.576 72.62 137.451 72.62 136.071C72.62 134.677 71.4183 133.552 69.9481 133.552C68.4652 133.552 67.2635 134.677 67.2635 136.071C67.2635 137.451 68.4652 138.576 69.9481 138.576ZM75.5682 161H80.196V154.403L81.8835 152.6L87.892 161H93.4275L85.3736 149.839L92.9801 141.363H87.5724L80.5156 149.251H80.196V134.818H75.5682V161ZM102.509 161.383C107.086 161.383 110.23 159.146 111.049 155.732L106.728 155.247C106.101 156.909 104.567 157.778 102.573 157.778C99.5813 157.778 97.5997 155.809 97.5614 152.447H111.24V151.028C111.24 144.137 107.098 141.107 102.266 141.107C96.6409 141.107 92.9719 145.237 92.9719 151.296C92.9719 157.458 96.5898 161.383 102.509 161.383ZM97.5742 149.328C97.7148 146.822 99.5685 144.713 102.33 144.713C104.989 144.713 106.779 146.656 106.804 149.328H97.5742Z" fill="white" fill-opacity="0.5"/>
<path d="M42.0966 205H61.4773V201.024H47.9901L61.4006 181.771V178.818H42.0199V182.794H55.5199L42.0966 202.046V205ZM72.9876 205.383C78.7404 205.383 82.3966 201.33 82.3966 195.258C82.3966 189.173 78.7404 185.107 72.9876 185.107C67.2347 185.107 63.5785 189.173 63.5785 195.258C63.5785 201.33 67.2347 205.383 72.9876 205.383ZM73.0131 201.676C69.8299 201.676 68.2702 198.838 68.2702 195.245C68.2702 191.653 69.8299 188.776 73.0131 188.776C76.1452 188.776 77.7049 191.653 77.7049 195.245C77.7049 198.838 76.1452 201.676 73.0131 201.676ZM92.1715 205.345C95.5465 205.345 97.0678 203.338 97.7965 201.906H98.0777V205H102.629V178.818H97.9883V188.61H97.7965C97.0934 187.191 95.6488 185.107 92.1843 185.107C87.6459 185.107 84.0792 188.661 84.0792 195.207C84.0792 201.676 87.5436 205.345 92.1715 205.345ZM93.4627 201.548C90.4073 201.548 88.7965 198.863 88.7965 195.181C88.7965 191.525 90.3817 188.904 93.4627 188.904C96.4414 188.904 98.0777 191.372 98.0777 195.181C98.0777 198.991 96.4158 201.548 93.4627 201.548ZM106.12 205H110.748V185.363H106.12V205ZM108.447 182.576C109.917 182.576 111.119 181.451 111.119 180.071C111.119 178.677 109.917 177.552 108.447 177.552C106.964 177.552 105.762 178.677 105.762 180.071C105.762 181.451 106.964 182.576 108.447 182.576ZM119.718 205.396C122.799 205.396 124.64 203.951 125.483 202.302H125.637V205H130.086V191.857C130.086 186.667 125.854 185.107 122.108 185.107C117.979 185.107 114.809 186.948 113.786 190.528L118.107 191.142C118.567 189.799 119.871 188.649 122.134 188.649C124.282 188.649 125.458 189.748 125.458 191.678V191.755C125.458 193.085 124.064 193.149 120.6 193.519C116.79 193.928 113.147 195.066 113.147 199.49C113.147 203.35 115.972 205.396 119.718 205.396ZM120.919 201.995C118.989 201.995 117.608 201.113 117.608 199.413C117.608 197.636 119.155 196.894 121.226 196.6C122.441 196.434 124.87 196.127 125.47 195.642V197.955C125.47 200.142 123.706 201.995 120.919 201.995ZM141.864 205.383C146.799 205.383 149.944 202.455 150.276 198.288H145.853C145.457 200.397 143.935 201.612 141.903 201.612C139.013 201.612 137.147 199.196 137.147 195.181C137.147 191.218 139.052 188.84 141.903 188.84C144.127 188.84 145.495 190.272 145.853 192.164H150.276C149.957 187.907 146.633 185.107 141.839 185.107C136.086 185.107 132.455 189.262 132.455 195.258C132.455 201.203 135.996 205.383 141.864 205.383ZM169.203 205C177.18 205 181.91 200.065 181.91 191.883C181.91 183.727 177.18 178.818 169.382 178.818H160.331V205H169.203ZM165.073 200.896V182.921H169.113C174.431 182.921 177.206 185.887 177.206 191.883C177.206 197.904 174.431 200.896 168.973 200.896H165.073ZM190.422 205.396C193.503 205.396 195.344 203.951 196.188 202.302H196.342V205H200.79V191.857C200.79 186.667 196.559 185.107 192.813 185.107C188.684 185.107 185.513 186.948 184.491 190.528L188.812 191.142C189.272 189.799 190.576 188.649 192.839 188.649C194.986 188.649 196.163 189.748 196.163 191.678V191.755C196.163 193.085 194.769 193.149 191.305 193.519C187.495 193.928 183.851 195.066 183.851 199.49C183.851 203.35 186.677 205.396 190.422 205.396ZM191.624 201.995C189.694 201.995 188.313 201.113 188.313 199.413C188.313 197.636 189.86 196.894 191.931 196.6C193.145 196.434 195.574 196.127 196.175 195.642V197.955C196.175 200.142 194.411 201.995 191.624 201.995ZM213.809 185.363H209.936V180.659H205.308V185.363H202.521V188.943H205.308V199.86C205.282 203.555 207.967 205.37 211.444 205.268C212.761 205.23 213.669 204.974 214.167 204.808L213.387 201.19C213.132 201.254 212.607 201.369 212.032 201.369C210.869 201.369 209.936 200.96 209.936 199.093V188.943H213.809V185.363ZM221.89 205.396C224.971 205.396 226.812 203.951 227.656 202.302H227.809V205H232.258V191.857C232.258 186.667 228.026 185.107 224.281 185.107C220.151 185.107 216.981 186.948 215.958 190.528L220.279 191.142C220.74 189.799 222.044 188.649 224.306 188.649C226.454 188.649 227.63 189.748 227.63 191.678V191.755C227.63 193.085 226.237 193.149 222.772 193.519C218.963 193.928 215.319 195.066 215.319 199.49C215.319 203.35 218.144 205.396 221.89 205.396ZM223.092 201.995C221.161 201.995 219.781 201.113 219.781 199.413C219.781 197.636 221.328 196.894 223.399 196.6C224.613 196.434 227.042 196.127 227.643 195.642V197.955C227.643 200.142 225.879 201.995 223.092 201.995ZM56.8111 230.015H61.375C61.2855 225.592 57.5142 222.46 51.9403 222.46C46.4432 222.46 42.3139 225.553 42.3267 230.181C42.3267 233.94 44.9986 236.1 49.3068 237.213L52.2855 237.98C55.1108 238.696 56.9773 239.578 56.9901 241.61C56.9773 243.848 54.8551 245.343 51.7614 245.343C48.7955 245.343 46.4943 244.014 46.3026 241.265H41.6364C41.8281 246.468 45.7017 249.396 51.7997 249.396C58.0767 249.396 61.7202 246.264 61.733 241.649C61.7202 237.11 57.9744 235.039 54.0369 234.106L51.5824 233.492C49.4347 232.981 47.108 232.073 47.1335 229.887C47.1463 227.919 48.9105 226.474 51.8764 226.474C54.7017 226.474 56.5682 227.791 56.8111 230.015ZM72.8821 249.383C77.8167 249.383 80.9616 246.455 81.294 242.288H76.8707C76.4744 244.397 74.9531 245.612 72.9204 245.612C70.0312 245.612 68.1648 243.196 68.1648 239.181C68.1648 235.218 70.0696 232.84 72.9204 232.84C75.1449 232.84 76.5128 234.272 76.8707 236.164H81.294C80.9744 231.907 77.6506 229.107 72.8565 229.107C67.1037 229.107 63.473 233.262 63.473 239.258C63.473 245.203 67.0142 249.383 72.8821 249.383ZM83.6541 249H88.2819V229.363H83.6541V249ZM85.9808 226.576C87.451 226.576 88.6527 225.451 88.6527 224.071C88.6527 222.677 87.451 221.552 85.9808 221.552C84.4978 221.552 83.2961 222.677 83.2961 224.071C83.2961 225.451 84.4978 226.576 85.9808 226.576ZM100.294 249.383C104.871 249.383 108.016 247.146 108.834 243.732L104.513 243.247C103.886 244.909 102.352 245.778 100.358 245.778C97.3664 245.778 95.3849 243.809 95.3465 240.447H109.026V239.028C109.026 232.137 104.883 229.107 100.051 229.107C94.4261 229.107 90.7571 233.237 90.7571 239.296C90.7571 245.458 94.375 249.383 100.294 249.383ZM95.3593 237.328C95.5 234.822 97.3537 232.713 100.115 232.713C102.774 232.713 104.564 234.656 104.589 237.328H95.3593ZM116.128 237.494C116.128 234.656 117.842 233.019 120.283 233.019C122.674 233.019 124.106 234.592 124.106 237.213V249H128.734V236.497C128.746 231.792 126.062 229.107 122.009 229.107C119.069 229.107 117.049 230.514 116.154 232.7H115.924V229.363H111.501V249H116.128V237.494ZM140.563 249.383C145.498 249.383 148.643 246.455 148.975 242.288H144.552C144.156 244.397 142.635 245.612 140.602 245.612C137.713 245.612 135.846 243.196 135.846 239.181C135.846 235.218 137.751 232.84 140.602 232.84C142.826 232.84 144.194 234.272 144.552 236.164H148.975C148.656 231.907 145.332 229.107 140.538 229.107C134.785 229.107 131.154 233.262 131.154 239.258C131.154 245.203 134.696 249.383 140.563 249.383ZM160.029 249.383C164.605 249.383 167.75 247.146 168.568 243.732L164.247 243.247C163.621 244.909 162.087 245.778 160.093 245.778C157.101 245.778 155.12 243.809 155.081 240.447H168.76V239.028C168.76 232.137 164.618 229.107 159.786 229.107C154.161 229.107 150.492 233.237 150.492 239.296C150.492 245.458 154.11 249.383 160.029 249.383ZM155.094 237.328C155.235 234.822 157.088 232.713 159.85 232.713C162.509 232.713 164.299 234.656 164.324 237.328H155.094Z" fill="white"/>
</svg>
